<svg width="201" height="48" viewBox="0 0 201 48" version="1.1" xmlns="http://www.w3.org/2000/svg"><title>logo</title><g id="Page-1" stroke="none" stroke-width="1" fill="none" fill-rule="evenodd"><g id="logo" transform="translate(.374 .773)" fill="#351111" fill-rule="nonzero"><g id="artists" transform="translate(105.408 32.393)"><path d="M5.59 7.733h3.559l-1.818-4.69-1.742 4.69zM9.512.325l4.422 10.547c.152.364.249.517.344.67.306.422.632.498 1.59.498v1.742H8.766v-1.761c.287 0 .593 0 .899-.02.44-.019.804-.095.804-.535 0-.326-.115-.517-.326-1.053a12.637 12.637 0 0 1-.363-.88l-4.862.018c-.364.92-.594 1.532-.594 1.952 0 .211.039.422.48.499.21.038.707.038 1.205.038v1.723H0V12.02c.287-.02.554-.02.841-.057.633-.078.844-.268 1.302-1.245.307-.69.632-1.379.92-2.067.267-.67.516-1.321.784-1.99.421-1.034.861-2.05 1.282-3.064.46-1.09.9-2.181 1.34-3.273h3.044z" id="Fill-13"/><path d="M22.11 5.761h1.818c.229 0 .44 0 .669-.019.48-.02 2.087-.076 2.087-1.837 0-.172-.02-.536-.192-.919-.268-.574-.823-.938-2.2-.938-.25 0-.48.02-.728.02H22.11V5.76zM25.555.344c1.225.039 2.584.058 3.54.88.23.193.556.537.767 1.245.134.517.153.938.153 1.149 0 .267-.02.727-.248 1.263-.498 1.205-1.704 1.57-2.834 1.875.612.135.919.23 1.167.365.21.114.67.44.938 1.09.172.478.172.9.21 1.915.02.267.039.517.039.765 0 .345-.018.747.172 1.073a.34.34 0 0 0 .288.172c.115 0 .382-.115.497-.44.096-.326.114-1.016.114-1.877h1.572c.018 1.57-.04 2.527-.441 3.14-.287.44-1.073 1.014-2.47 1.014-.152 0-1.32-.019-2.029-.421-.344-.191-.536-.46-.631-.574-.422-.613-.479-1.455-.517-3.044-.02-1.167-.095-1.627-.498-2.029-.517-.497-1.205-.42-1.914-.42-.44 0-.88 0-1.32.018-.02.938-.02 1.858-.02 2.795v.727c.038.633.306.92.976.939.402.018.804 0 1.207 0v1.78h-7.638v-1.742h1.052c.077 0 .48 0 .69-.116.402-.21.402-.842.402-1.301V3.541c0-1.32-.249-1.474-1.015-1.474h-1.148V.344h8.939z" id="Fill-14"/><path d="M43.472.383l.078 5.206h-1.858c0-.325.02-.631 0-.938-.096-1.55-.65-2.2-1.34-2.45-.364-.134-.765-.134-1.57-.134v8.901c0 .498-.02 1.053 1.034 1.053h.459c.307-.02.594 0 .9 0v1.742H33.06V12.02c.46-.02.92-.02 1.36-.02.286 0 .63-.019.803-.229.23-.269.21-.708.21-1.053l-.018-8.652c-.747-.038-1.436-.038-2.068.44-.689.536-.842 1.398-.842 3.101h-1.857l.076-5.225h12.75" id="Fill-15"/><path d="M46.766 3.33c.018-.727-.098-1.072-.479-1.167-.307-.096-.843-.077-1.627-.077V.344h7.637v1.742c-.383 0-.746-.019-1.148.02-.096 0-.594.019-.804.248-.153.172-.191.517-.191 1.053 0 .632 0 1.263-.019 1.876v5.55c0 .269 0 .403.019.517.133.709.88.632 1.07.632h1.035v1.742H44.66v-1.76c.363 0 .726.018 1.11 0 .326 0 .497-.039.613-.096.305-.172.401-.556.383-1.283V3.331" id="Fill-16"/><path d="M55.226 8.69c.192.919.325 1.589.995 2.24 1.187 1.187 2.834 1.301 3.37 1.301.67-.02 1.511-.172 2.03-.612.439-.402.496-.88.496-1.091 0-.096-.018-.345-.133-.594-.345-.689-1.035-.861-2.431-1.167-.92-.211-1.856-.402-2.795-.632-.401-.096-1.933-.44-2.794-1.646-.594-.804-.612-1.838-.612-2.163 0-.785.171-1.474.572-2.125.768-1.32 1.972-1.876 3.408-2.086C57.58.076 58.173 0 58.863 0c1.647 0 2.45.383 3.848 1.167l.363-.937h1.55v4.86h-1.837c-.057-.287-.094-.574-.173-.842-.114-.382-.305-1.033-1.09-1.646-.44-.345-1.301-.842-2.641-.842-.173 0-1.186 0-1.858.402-.668.383-.822.976-.822 1.302 0 .153.018.382.267.708.46.612 1.227.689 1.934.861.403.077.804.172 1.187.268l1.932.402c1.035.268 1.934.517 2.72 1.32.38.422.917 1.168.917 2.566 0 2.01-.957 2.986-1.57 3.464-1.052.785-2.334 1.053-3.598 1.053-.325 0-1.454-.02-2.467-.288-.672-.19-1.092-.382-2.183-1.147l-.44 1.072h-1.608V8.67l1.932.018" id="Fill-17"/><path d="M78.637.383l.078 5.206h-1.858c0-.325.02-.631 0-.938-.094-1.55-.65-2.2-1.34-2.45-.363-.134-.764-.134-1.57-.134v8.901c0 .498-.02 1.053 1.033 1.053h.46c.308-.02.595 0 .9 0v1.742h-8.115V12.02c.46-.02.917-.02 1.358-.02.287 0 .632-.019.805-.229.228-.269.21-.708.21-1.053l-.019-8.652c-.747-.038-1.437-.038-2.067.44-.69.536-.844 1.398-.844 3.101h-1.856L65.89.383h12.747" id="Fill-18"/><path d="M81.586 8.69c.19.919.325 1.589.995 2.24 1.186 1.187 2.833 1.301 3.368 1.301.67-.02 1.513-.172 2.03-.612.44-.402.498-.88.498-1.091a1.5 1.5 0 0 0-.134-.594c-.344-.689-1.034-.861-2.43-1.167-.921-.211-1.858-.402-2.796-.632-.4-.096-1.932-.44-2.795-1.646-.592-.804-.61-1.838-.61-2.163 0-.785.171-1.474.572-2.125.767-1.32 1.972-1.876 3.408-2.086.249-.039.841-.115 1.53-.115 1.646 0 2.451.383 3.847 1.167l.365-.937h1.55v4.86h-1.837c-.058-.287-.096-.574-.173-.842-.114-.382-.306-1.033-1.091-1.646-.44-.345-1.3-.842-2.64-.842-.174 0-1.188 0-1.858.402-.669.383-.824.976-.824 1.302 0 .153.02.382.27.708.458.612 1.224.689 1.933.861.401.077.804.172 1.185.268l1.934.402c1.033.268 1.934.517 2.718 1.32.383.422.919 1.168.919 2.566 0 2.01-.957 2.986-1.57 3.464-1.052.785-2.334 1.053-3.598 1.053-.325 0-1.454-.02-2.469-.288-.67-.19-1.09-.382-2.183-1.147l-.44 1.072h-1.606V8.67l1.932.018" id="Fill-19"/></g><g id="various" transform="translate(105.408 16.005)"><path d="M7.503.402v1.704c-.325.019-.67.019-.995.019-.44 0-.843-.02-.824.497 0 .173.039.326.173.652.23.612.46 1.205.67 1.799.229.631.44 1.282.67 1.913a63.7 63.7 0 0 0 .67 1.743c.225.66.442 1.324.65 1.99l2.106-5.8c.153-.42.325-.842.498-1.282.191-.479.249-.69.249-.957 0-.076 0-.249-.134-.364-.25-.23-.92-.23-1.723-.21V.383h5.895v1.723c-.267 0-.554 0-.823.038-.573.077-.746.421-.976.976L9.36 13.763H6.375c-.46-1.13-.938-2.259-1.379-3.369-.593-1.455-1.168-2.91-1.76-4.364a131.35 131.35 0 0 0-1.187-2.833C1.55 2.049 1.148 2.125 0 2.125V.402h7.503" id="Fill-6"/><path d="M17.228 7.733h3.56l-1.819-4.69-1.741 4.69zM21.152.326l4.421 10.546c.154.364.25.517.346.67.305.421.63.498 1.588.498v1.742h-7.101v-1.76c.286 0 .593 0 .899-.02.44-.02.805-.096.805-.536 0-.325-.116-.517-.327-1.053a12.635 12.635 0 0 1-.363-.88l-4.862.019c-.364.919-.593 1.531-.593 1.952 0 .21.037.421.478.498.21.038.709.038 1.205.038v1.723h-6.01V12.02c.287-.019.556-.019.843-.058.632-.076.841-.267 1.302-1.244.306-.689.631-1.378.918-2.067.267-.67.517-1.32.785-1.99.421-1.034.86-2.049 1.283-3.063.459-1.091.899-2.182 1.34-3.273h3.043z" id="Fill-7"/><path d="M33.748 5.762h1.819c.229 0 .44 0 .67-.02.478-.019 2.086-.076 2.086-1.837 0-.172-.019-.536-.19-.919-.27-.574-.825-.937-2.204-.937-.248 0-.477.018-.726.018h-1.455v3.695zM37.193.345c1.226.038 2.585.057 3.542.88.23.192.554.536.765 1.244.134.517.153.938.153 1.149 0 .268-.019.727-.249 1.263-.497 1.206-1.703 1.57-2.832 1.876.612.134.918.23 1.168.364.21.114.669.44.937 1.09.173.48.173.9.211 1.915.02.268.039.517.039.766 0 .344-.02.746.172 1.071a.335.335 0 0 0 .287.173c.114 0 .382-.115.498-.44.095-.326.114-1.015.114-1.876h1.57c.02 1.57-.038 2.526-.44 3.14-.288.44-1.072 1.014-2.47 1.014-.153 0-1.32-.02-2.03-.422-.343-.19-.534-.46-.63-.574-.421-.612-.48-1.455-.518-3.043-.019-1.168-.095-1.628-.496-2.03-.517-.497-1.208-.42-1.915-.42-.441 0-.88 0-1.32.019-.02.938-.02 1.856-.02 2.794v.728c.038.632.306.918.976.937.402.02.804 0 1.206 0v1.78h-7.638v-1.741h1.054c.076 0 .478 0 .688-.115.402-.21.402-.842.402-1.302V3.541c0-1.32-.249-1.474-1.014-1.474h-1.149V.345h8.94z" id="Fill-8"/><path d="M46.421 3.33c.02-.726-.096-1.07-.479-1.167-.307-.096-.843-.077-1.627-.077V.345h7.637v1.741c-.383 0-.746-.019-1.147.02-.097 0-.594.019-.805.248-.153.173-.191.517-.191 1.053 0 .632 0 1.264-.018 1.876v5.551c0 .268 0 .402.018.517.133.708.88.632 1.072.632h1.033v1.742h-7.599v-1.762c.365 0 .728.02 1.11 0 .326 0 .498-.038.613-.095.307-.172.403-.555.383-1.283V3.331" id="Fill-9"/><path d="M55.763 9.016c.113.498.594 2.507 2.392 3.158.268.115.652.21 1.282.21.136 0 .479 0 .824-.056.478-.077 1.302-.25 2.066-1.187.92-1.092 1.148-2.508 1.148-3.924 0-2.26-.439-3.37-1.052-4.211-.154-.211-.555-.728-1.205-1.035-.25-.133-.766-.306-1.531-.306-.21 0-1.149.02-1.839.345a2.917 2.917 0 0 0-.69.478c-.267.23-.478.48-.65.766-.4.632-.917 1.933-.917 3.924 0 .65.038 1.225.172 1.838zM55.84.632c.688-.287 1.779-.613 3.58-.613.343 0 .707.02 1.052.038.784.058 2.622.173 4.343 1.532.53.423.989.927 1.36 1.493.69 1.091.995 2.47.995 3.828 0 1.053-.23 4.403-3.08 6.164-1.054.632-2.106.823-2.527.9a9.898 9.898 0 0 1-1.916.191c-.363 0-.995-.039-1.855-.153-.69-.115-2.488-.345-3.944-1.818-.747-.747-1.972-2.47-1.894-5.303.058-2.737 1.34-5.187 3.886-6.259z" id="Fill-10"/><path d="M74.6.326v1.703c-.402.02-.804.02-1.207.02-.116 0-.517-.039-.766.21-.23.23-.247.517-.247.842v5.723c.056 1.187.171 1.685.478 2.144.306.44 1.071 1.149 2.489 1.149.343 0 1.607-.058 2.333-.9.536-.632.594-1.378.632-2.182V3.082c0-.306 0-.517-.172-.728-.113-.133-.287-.21-.325-.21-.269-.095-.765-.095-1.493-.077V.345h6.144v1.722c-.306.02-.613.02-.938.02-.345.019-.498.057-.632.114-.496.23-.383 1.053-.383 1.15v5.627c-.02.325-.02.65-.057.976-.154 1.8-.842 2.565-1.494 3.062-1.204.92-2.794 1.13-4.305 1.13-2.068 0-4.48-.536-5.342-2.642-.191-.46-.269-.861-.325-1.856V3.197c0-.02 0-.345-.02-.517-.133-.65-.726-.631-.917-.631-.345-.02-.67-.02-.995-.02V.326h7.541" id="Fill-11"/><path d="M84.535 8.69c.191.92.325 1.589.995 2.24 1.186 1.187 2.833 1.302 3.368 1.302.67-.02 1.513-.173 2.03-.613.44-.402.498-.88.498-1.09 0-.097-.02-.346-.134-.594-.345-.69-1.034-.861-2.432-1.168-.92-.21-1.857-.402-2.795-.632-.401-.096-1.933-.44-2.794-1.646-.593-.804-.612-1.837-.612-2.163 0-.785.171-1.474.572-2.125C84 .881 85.205.326 86.641.115A10.61 10.61 0 0 1 88.17 0c1.646 0 2.451.383 3.847 1.168L92.38.23h1.552v4.862h-1.837c-.058-.287-.096-.575-.173-.842-.116-.383-.306-1.034-1.091-1.646-.44-.345-1.3-.843-2.64-.843-.174 0-1.189 0-1.859.402-.67.383-.823.976-.823 1.302 0 .153.02.383.269.708.459.612 1.224.69 1.934.861.401.077.802.173 1.185.269l1.934.401c1.033.268 1.934.517 2.718 1.32.383.422.919 1.17.919 2.566 0 2.01-.957 2.986-1.57 3.465-1.052.784-2.336 1.052-3.599 1.052-.325 0-1.453-.019-2.468-.287-.67-.191-1.093-.382-2.183-1.148l-.44 1.072h-1.607V8.67l1.933.02" id="Fill-12"/></g><g id="the" transform="translate(105.695)"><path d="M12.824 0l.077 5.207h-1.857c0-.326.02-.633 0-.938-.095-1.551-.65-2.202-1.34-2.45-.363-.134-.765-.134-1.569-.134v8.9c0 .498-.02 1.053 1.033 1.053h.46c.306-.02.593 0 .9 0v1.742H2.412v-1.742c.46-.02.919-.02 1.36-.02.286 0 .631-.018.803-.23.23-.267.21-.707.21-1.051l-.018-8.652c-.747-.039-1.436-.039-2.067.44-.69.536-.843 1.397-.843 3.1H0L.077 0h12.747" id="Fill-3"/><path d="M16.156 2.756c0-.057.02-.287-.038-.478-.134-.613-.766-.555-.957-.555-.401 0-.766 0-1.13-.02V.02h7.446l-.018 1.684c-.326 0-.69 0-1.054.02-.726.038-.956.23-.956 1.455V5.55h5.474V3.159c0-.058.115-1.015-.364-1.322-.23-.134-.517-.114-1.129-.134-.191 0-.364 0-.555-.018V.019h7.503v1.666c-.325.018-.67.018-.995.018-.096 0-.689-.057-.976.307-.191.23-.172.44-.153.727v7.695s-.02.383.02.613c.095.555.457.612.956.612h1.11v1.761h-7.485v-1.76c.364 0 .728 0 1.111-.02.919-.038.957-.326.977-1.722V7.37h-5.494v2.947c-.039.823.095 1.149.478 1.264.248.076.862.076 1.55.076V13.4h-7.445v-1.722c.343 0 .688 0 1.052-.02.517 0 .708-.057.88-.248.212-.211.212-.518.192-.843v-7.81" id="Fill-4"/><path d="M32.542 11.657c.307-.019.402-.019.555-.057.69-.153.575-.958.575-1.11V2.718c.02-.402-.02-.574-.134-.727-.191-.25-.517-.288-.861-.288-.384 0-.766 0-1.13-.018V0h13.706v5.207h-1.876c0-.288-.02-.555-.038-.824-.058-1.014-.25-2.182-1.322-2.526-.44-.134-1.09-.154-2.163-.172h-2.737v3.847c.517 0 1.052.019 1.57-.02 1.09-.076 1.148-.573 1.13-2.277h1.78v6.393l-1.762-.019-.058-.976c-.018-.364-.018-.69-.21-.957-.153-.21-.382-.306-.65-.345-.364-.038-1.015-.038-1.819-.019v4.307h2.89c.671 0 1.454-.02 2.087-.307 1.244-.612 1.302-2.507 1.321-3.732h1.933l-.154 5.819H31.546v-1.742h.996" id="Fill-5"/></g><g id="line" transform="translate(96.03)"><path id="Fill-20" d="M0 46.175h1V0H0z"/></g><g id="va" transform="translate(0 .014)"><path d="M54.503.001L36.819 46.145h14.175s-9.535-.182-5.33-11.681L57.131 3.718 68.648 34.33s4.542 11.815 18.619 11.815L69.125 0H54.503" id="Fill-1"/><path d="M18.618 11.813S14.075 0 0 0l18.136 46.142H32.76L50.447 0H36.272s9.535.183 5.33 11.681l-11.47 30.744-11.514-30.612" id="Fill-2"/></g></g></g></svg>