<?xml version="1.0" encoding="UTF-8"?>
<svg width="201px" height="48px" viewBox="0 0 201 48" version="1.1" xmlns="http://www.w3.org/2000/svg" xmlns:xlink="http://www.w3.org/1999/xlink">
    <!-- Generator: Sketch 64 (93537) - https://sketch.com -->
    <title>logo</title>
    <desc>Created with Sketch.</desc>
    <g id="Page-1" stroke="none" stroke-width="1" fill="none" fill-rule="evenodd">
        <g id="logo" transform="translate(0.374000, 0.773000)" fill="#351111" fill-rule="nonzero">
            <g id="artists" transform="translate(105.408416, 32.393069)">
                <path d="M5.58927393,7.7330033 L9.1490099,7.7330033 L7.33052805,3.04339934 L5.58927393,7.7330033 Z M9.5130363,0.325082508 L13.9354785,10.8719472 C14.0874587,11.2358086 14.1838284,11.3887789 14.2790429,11.5419142 C14.5851485,11.9635314 14.9105611,12.039604 15.8684818,12.039604 L15.8684818,13.7821782 L8.7669967,13.7821782 L8.7669967,12.0209571 C9.05379538,12.0209571 9.35990099,12.0209571 9.6660066,12.0016502 C10.1059406,11.9823432 10.469802,11.9057756 10.469802,11.4660066 C10.469802,11.139934 10.3552805,10.9490099 10.1443894,10.4127063 C10.0107261,10.1259076 9.89620462,9.83844884 9.78052805,9.53250825 L4.91914191,9.55115512 C4.55528053,10.4706271 4.32508251,11.0828383 4.32508251,11.5033003 C4.32508251,11.7141914 4.36369637,11.9250825 4.80478548,12.0016502 C5.01435644,12.039604 5.5120462,12.039604 6.00973597,12.039604 L6.00973597,13.7628713 L0,13.7628713 L0,12.0209571 C0.286963696,12.0016502 0.554455446,12.0016502 0.841254125,11.9635314 C1.47392739,11.8864686 1.68481848,11.6955446 2.14273927,10.7188119 C2.45,10.029538 2.77541254,9.34026403 3.06221122,8.65214521 C3.32970297,7.98184818 3.57920792,7.3310231 3.84669967,6.66105611 C4.26848185,5.62772277 4.70825083,4.61270627 5.1290429,3.59834983 C5.58927393,2.50742574 6.0290429,1.41650165 6.4689769,0.325082508 L9.5130363,0.325082508 L9.5130363,0.325082508 Z" id="Fill-13"></path>
                <path d="M22.109571,5.76138614 L23.9280528,5.76138614 C24.1569307,5.76138614 24.3678218,5.76138614 24.5968647,5.74224422 C25.0764026,5.72293729 26.6839934,5.66567657 26.6839934,3.90478548 C26.6839934,3.73267327 26.6646865,3.36881188 26.4924092,2.98613861 C26.2237624,2.41155116 25.6694719,2.0480198 24.2919142,2.0480198 C24.0424092,2.0480198 23.8123762,2.06716172 23.5640264,2.06716172 L22.109571,2.06716172 L22.109571,5.76138614 L22.109571,5.76138614 Z M25.5547855,0.344389439 C26.780363,0.382838284 28.1386139,0.402145215 29.0953795,1.22491749 C29.3255776,1.41650165 29.6509901,1.76089109 29.8617162,2.46881188 C29.9955446,2.98613861 30.0148515,3.40693069 30.0148515,3.61765677 C30.0148515,3.88547855 29.9955446,4.34488449 29.7666667,4.88118812 C29.2688119,6.08646865 28.0625413,6.45016502 26.9334983,6.75643564 C27.5445545,6.89092409 27.8516502,6.98630363 28.1,7.12079208 C28.3108911,7.23514851 28.770132,7.56089109 29.0376238,8.21171617 C29.209901,8.68943894 29.209901,9.11122112 29.2485149,10.1259076 C29.2688119,10.3933993 29.2869637,10.6429043 29.2869637,10.8910891 C29.2869637,11.2358086 29.2688119,11.6382838 29.4594059,11.9635314 C29.5557756,12.1166667 29.6894389,12.1359736 29.7473597,12.1359736 C29.8617162,12.1359736 30.1293729,12.0209571 30.2438944,11.6955446 C30.340264,11.369637 30.3584158,10.680198 30.3584158,9.81930693 L31.929703,9.81930693 C31.9478548,11.3887789 31.890099,12.3462046 31.4886139,12.9590759 C31.2018152,13.3988449 30.4161716,13.9731023 29.0194719,13.9731023 C28.8665017,13.9731023 27.6986799,13.9539604 26.990099,13.5519802 C26.6455446,13.3608911 26.4537954,13.0929043 26.3587459,12.9783828 C25.9369637,12.3650165 25.880198,11.5226073 25.8417492,9.93432343 C25.8224422,8.76650165 25.7465347,8.30742574 25.3440594,7.90528053 C24.8270627,7.40759076 24.1389439,7.48415842 23.430363,7.48415842 C22.9892739,7.48415842 22.549505,7.48415842 22.109571,7.50313531 C22.090264,8.44125413 22.090264,9.36072607 22.090264,10.2981848 L22.090264,11.0254125 C22.1277228,11.6575908 22.3963696,11.9443894 23.0663366,11.9635314 C23.4676568,11.9823432 23.870132,11.9635314 24.2726073,11.9635314 L24.2726073,13.7435644 L16.6348185,13.7435644 L16.6348185,12.0016502 L17.6869637,12.0016502 C17.7640264,12.0016502 18.1665017,12.0016502 18.3773927,11.8864686 C18.7787129,11.6755776 18.7787129,11.0442244 18.7787129,10.5849835 L18.7787129,3.54108911 C18.7787129,2.22029703 18.530363,2.06716172 17.7640264,2.06716172 L16.6156766,2.06716172 L16.6156766,0.344389439 L25.5547855,0.344389439 L25.5547855,0.344389439 Z" id="Fill-14"></path>
                <path d="M43.4721122,0.382838284 L43.54967,5.58910891 L41.6920792,5.58910891 C41.6920792,5.26369637 41.7112211,4.95759076 41.6920792,4.65132013 C41.5957096,3.10066007 41.0412541,2.45016502 40.3519802,2.2009901 C39.9879538,2.06716172 39.5866337,2.06716172 38.7818482,2.06716172 L38.7818482,10.9683168 C38.7818482,11.4660066 38.7625413,12.0209571 39.8156766,12.0209571 L40.2749175,12.0209571 C40.5821782,12.0016502 40.8689769,12.0209571 41.1750825,12.0209571 L41.1750825,13.7628713 L33.0587459,13.7628713 L33.0587459,12.0209571 C33.5191419,12.0016502 33.9782178,12.0016502 34.4181518,12.0016502 C34.7049505,12.0016502 35.04967,11.9823432 35.2219472,11.7721122 C35.4521452,11.5033003 35.4328383,11.0635314 35.4328383,10.7188119 L35.4135314,2.06716172 C34.6665017,2.02871287 33.9782178,2.02871287 33.3457096,2.50742574 C32.6574257,3.04339934 32.5044554,3.90478548 32.5044554,5.60841584 L30.6473597,5.60841584 L30.7234323,0.382838284 L43.4721122,0.382838284" id="Fill-15"></path>
                <path d="M46.7658416,3.33052805 C46.7839934,2.60330033 46.6684818,2.25825083 46.2872937,2.1630363 C45.980363,2.06716172 45.4440594,2.0859736 44.660231,2.0859736 L44.660231,0.344389439 L52.2971947,0.344389439 L52.2971947,2.0859736 C51.9143564,2.0859736 51.5513201,2.06716172 51.1486799,2.10577558 C51.0529703,2.10577558 50.5546205,2.12458746 50.3450495,2.35412541 C50.1915842,2.52607261 50.1536304,2.87112211 50.1536304,3.40693069 C50.1536304,4.03877888 50.1536304,4.67046205 50.1354785,5.28267327 L50.1354785,10.8333333 C50.1354785,11.1019802 50.1354785,11.2358086 50.1536304,11.35033 C50.2872937,12.0589109 51.0348185,11.9823432 51.2245875,11.9823432 L52.2592409,11.9823432 L52.2592409,13.7242574 L44.660231,13.7242574 L44.660231,11.9635314 C45.0232673,11.9635314 45.3863036,11.9823432 45.7691419,11.9635314 C46.0958746,11.9635314 46.2674917,11.9250825 46.3830033,11.8678218 C46.6882838,11.6955446 46.7839934,11.3123762 46.7658416,10.5849835 L46.7658416,3.33052805" id="Fill-16"></path>
                <path d="M55.2262376,8.68943894 C55.4176568,9.60891089 55.5513201,10.2788779 56.2212871,10.929703 C57.4077558,12.1166667 59.0546205,12.2311881 59.5909241,12.2311881 C60.2608911,12.2118812 61.1024752,12.0589109 61.6206271,11.6189769 C62.059571,11.2171617 62.1173267,10.7381188 62.1173267,10.5277228 C62.1173267,10.4320132 62.0991749,10.1826733 61.9836634,9.93432343 C61.6387789,9.2450495 60.9490099,9.07277228 59.5529703,8.76650165 C58.6338284,8.55561056 57.6965347,8.36468647 56.7575908,8.13514851 C56.3566007,8.03927393 54.8252475,7.69471947 53.9638614,6.48861386 C53.369802,5.68481848 53.3516502,4.65132013 53.3516502,4.32557756 C53.3516502,3.54108911 53.5232673,2.85231023 53.9242574,2.2009901 C54.6915842,0.88019802 55.8962046,0.325082508 57.3318482,0.114521452 C57.5810231,0.0764026403 58.1734323,0 58.8632013,0 C60.510066,0 61.3136964,0.382838284 62.7113861,1.16732673 L63.0744224,0.229537954 L64.6239274,0.229537954 L64.6239274,5.09141914 L62.7872937,5.09141914 C62.729538,4.80429043 62.6932343,4.51716172 62.6140264,4.2490099 C62.500165,3.86666667 62.3087459,3.21551155 61.5232673,2.60330033 C61.0843234,2.25825083 60.2229373,1.76089109 58.8830033,1.76089109 C58.709736,1.76089109 57.6965347,1.76089109 57.0249175,2.1630363 C56.3566007,2.54587459 56.2031353,3.13894389 56.2031353,3.46452145 C56.2031353,3.61765677 56.2212871,3.84719472 56.470462,4.17260726 C56.9308581,4.78531353 57.6965347,4.86188119 58.4044554,5.03415842 C58.8070957,5.11072607 59.2080858,5.20643564 59.5909241,5.3019802 L61.5232673,5.70412541 C62.5579208,5.97194719 63.4572607,6.22079208 64.2427393,7.02475248 C64.6239274,7.44587459 65.160231,8.19240924 65.160231,9.58960396 C65.160231,11.59967 64.2031353,12.5757426 63.5909241,13.0542904 C62.5381188,13.8387789 61.2559406,14.1074257 59.9919142,14.1074257 C59.6668317,14.1074257 58.5381188,14.0876238 57.5249175,13.8194719 C56.8533003,13.6290429 56.4325083,13.4374587 55.3417492,12.6716172 L54.9011551,13.7435644 L53.2938944,13.7435644 L53.2938944,8.67145215 L55.2262376,8.68943894" id="Fill-17"></path>
                <path d="M78.6371287,0.382838284 L78.7146865,5.58910891 L76.8566007,5.58910891 C76.8566007,5.26369637 76.8764026,4.95759076 76.8566007,4.65132013 C76.7625413,3.10066007 76.2064356,2.45016502 75.5166667,2.2009901 C75.1536304,2.06716172 74.7526403,2.06716172 73.9473597,2.06716172 L73.9473597,10.9683168 C73.9473597,11.4660066 73.9275578,12.0209571 74.980363,12.0209571 L75.4407591,12.0209571 C75.7476898,12.0016502 76.0348185,12.0209571 76.340099,12.0209571 L76.340099,13.7628713 L68.2245875,13.7628713 L68.2245875,12.0209571 C68.6849835,12.0016502 69.1420792,12.0016502 69.5826733,12.0016502 C69.869802,12.0016502 70.2146865,11.9823432 70.3879538,11.7721122 C70.6156766,11.5033003 70.5975248,11.0635314 70.5975248,10.7188119 L70.5793729,2.06716172 C69.8318482,2.02871287 69.1420792,2.02871287 68.5117162,2.50742574 C67.8219472,3.04339934 67.6684818,3.90478548 67.6684818,5.60841584 L65.8120462,5.60841584 L65.889604,0.382838284 L78.6371287,0.382838284" id="Fill-18"></path>
                <path d="M81.5859736,8.68943894 C81.7757426,9.60891089 81.9110561,10.2788779 82.5810231,10.929703 C83.7674917,12.1166667 85.4143564,12.2311881 85.9490099,12.2311881 C86.6189769,12.2118812 87.4622112,12.0589109 87.9787129,11.6189769 C88.4193069,11.2171617 88.4770627,10.7381188 88.4770627,10.5277228 C88.4770627,10.4320132 88.4589109,10.1826733 88.3433993,9.93432343 C87.9985149,9.2450495 87.3087459,9.07277228 85.9127063,8.76650165 C84.9919142,8.55561056 84.0546205,8.36468647 83.1173267,8.13514851 C82.7163366,8.03927393 81.1849835,7.69471947 80.3219472,6.48861386 C79.729538,5.68481848 79.7113861,4.65132013 79.7113861,4.32557756 C79.7113861,3.54108911 79.8830033,2.85231023 80.2839934,2.2009901 C81.0513201,0.88019802 82.2559406,0.325082508 83.6915842,0.114521452 C83.9407591,0.0764026403 84.5331683,0 85.2229373,0 C86.8681518,0 87.6734323,0.382838284 89.0694719,1.16732673 L89.4341584,0.229537954 L90.9836634,0.229537954 L90.9836634,5.09141914 L89.1470297,5.09141914 C89.0892739,4.80429043 89.0513201,4.51716172 88.9737624,4.2490099 C88.859901,3.86666667 88.6684818,3.21551155 87.8830033,2.60330033 C87.4424092,2.25825083 86.5826733,1.76089109 85.2427393,1.76089109 C85.0694719,1.76089109 84.0546205,1.76089109 83.3846535,2.1630363 C82.7163366,2.54587459 82.5612211,3.13894389 82.5612211,3.46452145 C82.5612211,3.61765677 82.5810231,3.84719472 82.830198,4.17260726 C83.2889439,4.78531353 84.0546205,4.86188119 84.7641914,5.03415842 C85.1651815,5.11072607 85.5678218,5.20643564 85.9490099,5.3019802 L87.8830033,5.70412541 C88.9160066,5.97194719 89.8169967,6.22079208 90.6008251,7.02475248 C90.9836634,7.44587459 91.519967,8.19240924 91.519967,9.58960396 C91.519967,11.59967 90.5628713,12.5757426 89.9506601,13.0542904 C88.8978548,13.8387789 87.6156766,14.1074257 86.3516502,14.1074257 C86.0265677,14.1074257 84.8978548,14.0876238 83.8830033,13.8194719 C83.2130363,13.6290429 82.7922442,13.4374587 81.699835,12.6716172 L81.2608911,13.7435644 L79.6536304,13.7435644 L79.6536304,8.67145215 L81.5859736,8.68943894" id="Fill-19"></path>
            </g>
            <g id="various" transform="translate(105.408416, 16.004785)">
                <path d="M7.5029703,0.401815182 L7.5029703,2.10577558 C7.17755776,2.12475248 6.83283828,2.12475248 6.50759076,2.12475248 C6.06765677,2.12475248 5.66518152,2.10577558 5.68448845,2.62227723 C5.68448845,2.79488449 5.72293729,2.94785479 5.85676568,3.27359736 C6.0869637,3.8859736 6.3169967,4.47887789 6.52689769,5.07277228 C6.75577558,5.70429043 6.96666667,6.35544554 7.19686469,6.98646865 C7.41166557,7.5704578 7.63501188,8.15126822 7.86683168,8.72871287 C8.09195989,9.38946673 8.30886335,10.0529944 8.51749175,10.7191419 L10.6229373,4.91963696 C10.7759076,4.49818482 10.9481848,4.07739274 11.1206271,3.63712871 C11.3122112,3.15841584 11.369967,2.94785479 11.369967,2.680033 C11.369967,2.60363036 11.369967,2.43118812 11.2361386,2.31633663 C10.9867987,2.08646865 10.3168317,2.08646865 9.5130363,2.10577558 L9.5130363,0.382838284 L15.4082508,0.382838284 L15.4082508,2.10577558 C15.1405941,2.10577558 14.8537954,2.10577558 14.5851485,2.14389439 C14.0115512,2.22062706 13.8391089,2.5650165 13.6090759,3.12029703 L9.35990099,13.7628713 L6.37376238,13.7628713 C5.91468647,12.6334983 5.43613861,11.5042904 4.99521452,10.3940594 C4.40231023,8.93927393 3.82739274,7.48432343 3.23448845,6.02986799 C2.85132013,5.07277228 2.45,4.13465347 2.04752475,3.19669967 C1.54983498,2.04851485 1.14735974,2.12475248 0,2.12475248 L0,0.401815182 L7.5029703,0.401815182" id="Fill-6"></path>
                <path d="M17.2278878,7.7330033 L20.7876238,7.7330033 L18.9691419,3.04372937 L17.2278878,7.7330033 Z M21.1516502,0.325577558 L25.5731023,10.8724422 C25.7272277,11.2361386 25.8224422,11.3891089 25.9188119,11.5425743 C26.2237624,11.9633663 26.5491749,12.039934 27.5070957,12.039934 L27.5070957,13.7821782 L20.4056106,13.7821782 L20.4056106,12.0212871 C20.6924092,12.0212871 20.9985149,12.0212871 21.3046205,12.0019802 C21.7455446,11.9826733 22.109571,11.9061056 22.109571,11.4656766 C22.109571,11.1405941 21.9938944,10.9490099 21.7830033,10.4133663 C21.65033,10.1259076 21.5348185,9.83877888 21.420297,9.53250825 L16.5577558,9.55181518 C16.1938944,10.4706271 15.9648515,11.0833333 15.9648515,11.5042904 C15.9648515,11.7148515 16.0023102,11.9254125 16.4432343,12.0019802 C16.6529703,12.039934 17.1518152,12.039934 17.6483498,12.039934 L17.6483498,13.7628713 L11.6386139,13.7628713 L11.6386139,12.0212871 C11.9254125,12.0019802 12.1942244,12.0019802 12.4810231,11.9633663 C13.1125413,11.8871287 13.3222772,11.6955446 13.7825083,10.7191419 C14.0886139,10.030363 14.4140264,9.34141914 14.7008251,8.65214521 C14.9683168,7.98217822 15.2178218,7.33135314 15.4864686,6.66138614 C15.9070957,5.62772277 16.3468647,4.61336634 16.7686469,3.59867987 C17.2278878,2.50775578 17.6676568,1.41683168 18.1087459,0.325577558 L21.1516502,0.325577558 L21.1516502,0.325577558 Z" id="Fill-7"></path>
                <path d="M33.7481848,5.76171617 L35.5666667,5.76171617 C35.7955446,5.76171617 36.0064356,5.76171617 36.2366337,5.74273927 C36.7150165,5.72343234 38.3226073,5.66617162 38.3226073,3.9049505 C38.3226073,3.73250825 38.3044554,3.36881188 38.1321782,2.98613861 C37.8635314,2.41221122 37.3079208,2.04851485 35.9293729,2.04851485 C35.6810231,2.04851485 35.4521452,2.06732673 35.2026403,2.06732673 L33.7481848,2.06732673 L33.7481848,5.76171617 L33.7481848,5.76171617 Z M37.1933993,0.344719472 C38.4189769,0.382838284 39.7783828,0.401815182 40.7351485,1.22491749 C40.9641914,1.41683168 41.2894389,1.76122112 41.50033,2.46947195 C41.6341584,2.98613861 41.6534653,3.40726073 41.6534653,3.6179868 C41.6534653,3.8859736 41.6341584,4.34521452 41.4039604,4.88118812 C40.9074257,6.08745875 39.7011551,6.45082508 38.5721122,6.75709571 C39.1843234,6.89125413 39.490264,6.98646865 39.739769,7.12079208 C39.949505,7.23547855 40.4087459,7.56089109 40.6773927,8.21171617 C40.84967,8.69042904 40.84967,9.11155116 40.8881188,10.1259076 C40.9074257,10.3940594 40.9267327,10.6425743 40.9267327,10.8917492 C40.9267327,11.2361386 40.9074257,11.6382838 41.0990099,11.9633663 C41.1943894,12.1169967 41.3280528,12.1356436 41.3858086,12.1356436 C41.50033,12.1356436 41.7679868,12.0212871 41.8836634,11.6955446 C41.9788779,11.370462 41.9980198,10.6811881 41.9980198,9.82013201 L43.5678218,9.82013201 C43.5876238,11.3891089 43.529868,12.3462046 43.1272277,12.9590759 C42.840099,13.3991749 42.0559406,13.9737624 40.6580858,13.9737624 C40.5049505,13.9737624 39.3372937,13.9544554 38.6287129,13.5523102 C38.2853135,13.3610561 38.0935644,13.0929043 37.9973597,12.9780528 C37.5765677,12.3655116 37.5188119,11.5234323 37.480198,9.93465347 C37.4610561,8.76716172 37.3851485,8.30742574 36.9838284,7.90561056 C36.4666667,7.40792079 35.7764026,7.48432343 35.0688119,7.48432343 C34.6278878,7.48432343 34.1881188,7.48432343 33.7481848,7.50379538 C33.7288779,8.44158416 33.7288779,9.36039604 33.7288779,10.2981848 L33.7288779,11.0255776 C33.7673267,11.6575908 34.0349835,11.9443894 34.7049505,11.9633663 C35.1074257,11.9826733 35.5087459,11.9633663 35.9112211,11.9633663 L35.9112211,13.7435644 L28.2734323,13.7435644 L28.2734323,12.0019802 L29.3267327,12.0019802 C29.4026403,12.0019802 29.8051155,12.0019802 30.0148515,11.8871287 C30.4173267,11.6762376 30.4173267,11.0447195 30.4173267,10.5853135 L30.4173267,3.54141914 C30.4173267,2.22062706 30.1679868,2.06732673 29.4026403,2.06732673 L28.2542904,2.06732673 L28.2542904,0.344719472 L37.1933993,0.344719472 L37.1933993,0.344719472 Z" id="Fill-8"></path>
                <path d="M46.4209571,3.33085809 C46.4407591,2.60363036 46.3252475,2.25924092 45.9424092,2.16336634 C45.6354785,2.06732673 45.0991749,2.08646865 44.3153465,2.08646865 L44.3153465,0.344719472 L51.9523102,0.344719472 L51.9523102,2.08646865 C51.5694719,2.08646865 51.2064356,2.06732673 50.8054455,2.10577558 C50.7080858,2.10577558 50.2113861,2.12475248 50.000165,2.35445545 C49.8466997,2.52706271 49.8087459,2.87145215 49.8087459,3.40726073 C49.8087459,4.03877888 49.8087459,4.67062706 49.7905941,5.28333333 L49.7905941,10.8344884 C49.7905941,11.1023102 49.7905941,11.2361386 49.8087459,11.3511551 C49.9424092,12.0592409 50.689934,11.9826733 50.8813531,11.9826733 L51.9143564,11.9826733 L51.9143564,13.7245875 L44.3153465,13.7245875 L44.3153465,11.9633663 C44.680033,11.9633663 45.0430693,11.9826733 45.4259076,11.9633663 C45.7509901,11.9633663 45.9226073,11.9254125 46.0381188,11.8678218 C46.3450495,11.6955446 46.4407591,11.3132013 46.4209571,10.5853135 L46.4209571,3.33085809" id="Fill-9"></path>
                <path d="M55.7625413,9.01567657 C55.8764026,9.51369637 56.3566007,11.5234323 58.1552805,12.1742574 C58.4226073,12.2891089 58.8070957,12.3848185 59.4374587,12.3848185 C59.5727723,12.3848185 59.9160066,12.3848185 60.2608911,12.3275578 C60.7394389,12.2508251 61.5628713,12.0783828 62.3268977,11.1405941 C63.2476898,10.0493399 63.4754125,8.63316832 63.4754125,7.21650165 C63.4754125,4.95759076 63.0364686,3.84752475 62.4226073,3.00577558 C62.2691419,2.79488449 61.8681518,2.27788779 61.2179868,1.97145215 C60.9688119,1.83778878 60.4523102,1.66518152 59.6866337,1.66518152 C59.4770627,1.66518152 58.5381188,1.68465347 57.8483498,2.01006601 C57.5051155,2.18234323 57.2559406,2.39290429 57.1585809,2.48844884 C56.8912541,2.7179868 56.680033,2.96716172 56.5084158,3.25429043 C56.1074257,3.8859736 55.5909241,5.18745875 55.5909241,7.17838284 C55.5909241,7.82871287 55.6288779,8.4029703 55.7625413,9.01567657 L55.7625413,9.01567657 Z M55.840099,0.632013201 C56.5282178,0.344719472 57.6189769,0.0194719472 59.4193069,0.0194719472 C59.7625413,0.0194719472 60.1272277,0.0382838284 60.4721122,0.0574257426 C61.2559406,0.114851485 63.0942244,0.229867987 64.8153465,1.58910891 C65.3448346,2.01167819 65.8038038,2.51570887 66.1750825,3.08234323 C66.8648515,4.17310231 67.170132,5.55115512 67.170132,6.91023102 C67.170132,7.96320132 66.9407591,11.3132013 64.0892739,13.0735974 C63.0364686,13.7056106 61.9836634,13.8966997 61.5628713,13.9737624 C60.6618812,14.1457096 60.0315182,14.1650165 59.6470297,14.1650165 C59.2839934,14.1650165 58.6519802,14.1264026 57.7922442,14.0117162 C57.1024752,13.8966997 55.3037954,13.6673267 53.8483498,12.1935644 C53.1008251,11.4470297 51.8764026,9.72409241 51.9539604,6.89125413 C52.0117162,4.1539604 53.2938944,1.70363036 55.840099,0.632013201 L55.840099,0.632013201 Z" id="Fill-10"></path>
                <path d="M74.5991749,0.325577558 L74.5991749,2.02937294 C74.1981848,2.04851485 73.7955446,2.04851485 73.3929043,2.04851485 C73.2773927,2.04851485 72.8764026,2.01006601 72.6272277,2.25924092 C72.3978548,2.48844884 72.379703,2.77590759 72.379703,3.1009901 L72.379703,8.82442244 C72.4358086,10.0112211 72.5513201,10.5089109 72.8582508,10.9683168 C73.1635314,11.4084158 73.9292079,12.1169967 75.3466997,12.1169967 C75.689934,12.1169967 76.9539604,12.0592409 77.680033,11.2168317 C78.2163366,10.5853135 78.2740924,9.83877888 78.3120462,9.0349835 L78.3120462,3.08234323 C78.3120462,2.77590759 78.3120462,2.5650165 78.140429,2.35445545 C78.0265677,2.22062706 77.8533003,2.14389439 77.8153465,2.14389439 C77.5463696,2.04851485 77.04967,2.04851485 76.3219472,2.06732673 L76.3219472,0.344719472 L82.4655116,0.344719472 L82.4655116,2.06732673 C82.160231,2.08646865 81.8533003,2.08646865 81.5282178,2.08646865 C81.1833333,2.10577558 81.029868,2.14389439 80.8962046,2.20132013 C80.399505,2.43118812 80.5133663,3.25429043 80.5133663,3.35016502 L80.5133663,8.97755776 C80.4935644,9.30313531 80.4935644,9.62821782 80.4556106,9.95379538 C80.3021452,11.7533003 79.6140264,12.5186469 78.9622112,13.0163366 C77.7575908,13.9351485 76.1684818,14.1457096 74.6569307,14.1457096 C72.5892739,14.1457096 70.1767327,13.610066 69.3153465,11.5042904 C69.1239274,11.0447195 69.0463696,10.6425743 68.990264,9.64752475 L68.990264,3.19669967 C68.990264,3.17772277 68.990264,2.85247525 68.970462,2.680033 C68.8367987,2.02937294 68.2443894,2.04851485 68.0529703,2.04851485 C67.7080858,2.02937294 67.3830033,2.02937294 67.0579208,2.02937294 L67.0579208,0.325577558 L74.5991749,0.325577558" id="Fill-11"></path>
                <path d="M84.5348185,8.69042904 C84.7262376,9.60957096 84.859901,10.2790429 85.529868,10.929703 C86.7163366,12.1169967 88.3632013,12.2318482 88.8978548,12.2318482 C89.5678218,12.2125413 90.4110561,12.0592409 90.9275578,11.6189769 C91.3681518,11.2168317 91.4259076,10.7387789 91.4259076,10.5280528 C91.4259076,10.4323432 91.4061056,10.1831683 91.2922442,9.93465347 C90.9473597,9.24587459 90.2575908,9.07359736 88.859901,8.76716172 C87.9407591,8.55660066 87.0034653,8.3650165 86.0645215,8.13514851 C85.6635314,8.03943894 84.1321782,7.6950495 83.2707921,6.48894389 C82.6783828,5.68514851 82.6585809,4.65165017 82.6585809,4.32623762 C82.6585809,3.54141914 82.830198,2.85247525 83.2311881,2.20132013 C83.9985149,0.880528053 85.2047855,0.325577558 86.640429,0.114851485 C87.1474361,0.0396309328 87.6592271,0.00124660244 88.1717822,0 C89.8169967,0 90.6222772,0.382838284 92.0183168,1.16765677 L92.3813531,0.229867987 L93.9325083,0.229867987 L93.9325083,5.09174917 L92.0958746,5.09174917 C92.0381188,4.80462046 92.000165,4.51749175 91.9226073,4.24966997 C91.8070957,3.86666667 91.6173267,3.2160066 90.8318482,2.60363036 C90.3912541,2.25924092 89.5315182,1.76122112 88.1915842,1.76122112 C88.0183168,1.76122112 87.0034653,1.76122112 86.3334983,2.16336634 C85.6635314,2.5460396 85.510066,3.13943894 85.510066,3.46452145 C85.510066,3.6179868 85.529868,3.84752475 85.7790429,4.17310231 C86.2377888,4.78531353 87.0034653,4.86254125 87.7130363,5.03448845 C88.1140264,5.11105611 88.5150165,5.20676568 88.8978548,5.30264026 L90.8318482,5.70429043 C91.8648515,5.97211221 92.7658416,6.22112211 93.54967,7.02491749 C93.9325083,7.44636964 94.4688119,8.19306931 94.4688119,9.59026403 C94.4688119,11.599835 93.5117162,12.5760726 92.899505,13.0546205 C91.8466997,13.8394389 90.5628713,14.1072607 89.300495,14.1072607 C88.9754125,14.1072607 87.8466997,14.0884488 86.8318482,13.820132 C86.1618812,13.6288779 85.7394389,13.4377888 84.6486799,12.6719472 L84.209736,13.7435644 L82.6024752,13.7435644 L82.6024752,8.67145215 L84.5348185,8.69042904" id="Fill-12"></path>
            </g>
            <g id="the" transform="translate(105.695380, 0.000000)">
                <path d="M12.8244224,0 L12.9014851,5.20660066 L11.0443894,5.20660066 C11.0443894,4.88085809 11.0636964,4.57442244 11.0443894,4.26864686 C10.9491749,2.71782178 10.3937294,2.0669967 9.70445545,1.81848185 C9.34059406,1.68465347 8.93927393,1.68465347 8.13531353,1.68465347 L8.13531353,10.5851485 C8.13531353,11.0825083 8.1150165,11.6381188 9.16815182,11.6381188 L9.62854785,11.6381188 C9.93448845,11.6188119 10.2214521,11.6381188 10.5285479,11.6381188 L10.5285479,13.379868 L2.41138614,13.379868 L2.41138614,11.6381188 C2.87161716,11.6188119 3.32953795,11.6188119 3.77062706,11.6188119 C4.05742574,11.6188119 4.40214521,11.59967 4.57442244,11.3889439 C4.80346535,11.1211221 4.78415842,10.6808581 4.78415842,10.3366337 L4.7660066,1.68465347 C4.0189769,1.64620462 3.32953795,1.64620462 2.69933993,2.12491749 C2.00891089,2.66056106 1.85577558,3.52211221 1.85577558,5.22574257 L0,5.22574257 L0.0770627063,0 L12.8244224,0" id="Fill-3"></path>
                <path d="M16.1562706,2.75627063 C16.1562706,2.6990099 16.1755776,2.46930693 16.1178218,2.27755776 C15.9839934,1.66534653 15.3524752,1.72260726 15.1608911,1.72260726 C14.759571,1.72260726 14.3945545,1.72260726 14.0318482,1.70330033 L14.0318482,0.0193069307 L21.4768977,0.0193069307 L21.4585809,1.70330033 C21.1333333,1.70330033 20.7693069,1.70330033 20.4054455,1.72260726 C19.6787129,1.76072607 19.4486799,1.95247525 19.4486799,3.17772277 L19.4486799,5.55082508 L24.9232673,5.55082508 L24.9232673,3.15858086 C24.9232673,3.10115512 25.0377888,2.14405941 24.5594059,1.83745875 C24.3292079,1.70330033 24.0424092,1.72260726 23.430198,1.70330033 C23.2386139,1.70330033 23.0661716,1.70330033 22.8747525,1.68465347 L22.8747525,0.0193069307 L30.3775578,0.0193069307 L30.3775578,1.68465347 C30.0533003,1.70330033 29.7085809,1.70330033 29.3833333,1.70330033 C29.2867987,1.70330033 28.6940594,1.64620462 28.4070957,2.00973597 C28.2155116,2.23943894 28.2348185,2.45 28.2541254,2.73712871 L28.2541254,10.4323432 C28.2541254,10.4323432 28.2348185,10.8146865 28.2732673,11.0445545 C28.3686469,11.59967 28.7313531,11.6570957 29.230198,11.6570957 L30.340099,11.6570957 L30.340099,13.4183168 L22.8554455,13.4183168 L22.8554455,11.6570957 C23.2193069,11.6570957 23.5831683,11.6570957 23.9663366,11.6381188 C24.8848185,11.59967 24.9232673,11.3123762 24.9425743,9.91567657 L24.9425743,7.36963696 L19.4486799,7.36963696 L19.4486799,10.3173267 C19.410066,11.140264 19.5438944,11.4660066 19.9270627,11.5806931 C20.1754125,11.6570957 20.7886139,11.6570957 21.4768977,11.6570957 L21.4768977,13.3990099 L14.0318482,13.3990099 L14.0318482,11.6765677 C14.3752475,11.6765677 14.719967,11.6765677 15.0838284,11.6570957 C15.6008251,11.6570957 15.7924092,11.59967 15.9646865,11.4087459 C16.1755776,11.1978548 16.1755776,10.8914191 16.1562706,10.5661716 L16.1562706,2.75627063" id="Fill-4"></path>
                <path d="M32.5417492,11.6570957 C32.8490099,11.6381188 32.9442244,11.6381188 33.0971947,11.59967 C33.7866337,11.4466997 33.6721122,10.6424092 33.6721122,10.489604 L33.6721122,2.71782178 C33.6912541,2.31617162 33.6528053,2.14405941 33.5382838,1.99059406 C33.3466997,1.74191419 33.0212871,1.70330033 32.6767327,1.70330033 C32.2933993,1.70330033 31.9113861,1.70330033 31.5463696,1.68465347 L31.5463696,2.34502553e-15 L45.2528053,2.34502553e-15 L45.2528053,5.20660066 L43.3765677,5.20660066 C43.3765677,4.91947195 43.3567657,4.65165017 43.3386139,4.38349835 C43.2808581,3.36914191 43.0894389,2.20132013 42.0173267,1.85676568 C41.5773927,1.72260726 40.9265677,1.70330033 39.8541254,1.68465347 L37.1173267,1.68465347 L37.1173267,5.53151815 C37.6343234,5.53151815 38.1694719,5.55082508 38.6864686,5.51287129 C39.7770627,5.43613861 39.8348185,4.93877888 39.8166667,3.2349835 L41.5966997,3.2349835 L41.5966997,9.62805281 L39.8348185,9.60924092 L39.7770627,8.63283828 C39.7589109,8.26914191 39.7589109,7.94389439 39.5673267,7.67607261 C39.4141914,7.46551155 39.1853135,7.36963696 38.9165017,7.3310231 C38.5526403,7.29273927 37.9018152,7.29273927 37.0981848,7.3120462 L37.0981848,11.6188119 L39.9879538,11.6188119 C40.6590759,11.6188119 41.4424092,11.59967 42.0750825,11.3123762 C43.3188119,10.700165 43.3765677,8.8049505 43.3963696,7.58019802 L45.3287129,7.58019802 L45.1752475,13.3990099 L31.5463696,13.3990099 L31.5463696,11.6570957 L32.5417492,11.6570957" id="Fill-5"></path>
            </g>
            <g id="line" transform="translate(96.029868, 0.000000)">
                <polygon id="Fill-20" points="0 46.1750825 1 46.1750825 1 0 0 0"></polygon>
            </g>
            <g id="va" transform="translate(0.000000, 0.013531)">
                <path d="M54.5026403,0.00115511551 L36.8194719,46.1447195 L50.9937294,46.1447195 C50.9937294,46.1447195 41.4590759,45.9630363 45.6633663,34.4635314 L57.1318482,3.71848185 L68.6475248,34.330198 C68.6475248,34.330198 73.190429,46.1447195 87.2668317,46.1447195 L69.1245875,0.00115511551 L54.5026403,0.00115511551" id="Fill-1"></path>
                <path d="M18.6179868,11.8130363 C18.6179868,11.8130363 14.0752475,0 0,0 L18.1364686,46.1424092 L32.759571,46.1424092 L50.4473597,0 L36.2719472,0 C36.2719472,0 45.8066007,0.182838284 41.6011551,11.6811881 L30.1315182,42.4247525 C30.1315182,42.4235974 18.6179868,11.8130363 18.6179868,11.8130363" id="Fill-2"></path>
            </g>
        </g>
    </g>
</svg>