<?xml version="1.0" encoding="utf-8"?>
<!-- Generator: Adobe Illustrator 22.1.0, SVG Export Plug-In . SVG Version: 6.00 Build 0)  -->
<svg version="1.1" id="Layer_1" xmlns="http://www.w3.org/2000/svg" xmlns:xlink="http://www.w3.org/1999/xlink" x="0px" y="0px"
	 viewBox="0 0 290.4 96.3" style="enable-background:new 0 0 290.4 96.3;" xml:space="preserve">
<style type="text/css">
	.st0{fill:#002A42;}
	.st1{fill:#A2AD00;}
</style>
<g>
	<path class="st0" d="M45.6,34.2c2.6,0,4.7-2.1,4.7-4.7s-2.1-4.7-4.7-4.7c-2.6,0-4.7,2.1-4.7,4.7S43,34.2,45.6,34.2z M45.6,27.6
		c1,0,1.8,0.8,1.8,1.8s-0.8,1.8-1.8,1.8s-1.8-0.8-1.8-1.8S44.6,27.6,45.6,27.6z"/>
	<path class="st0" d="M52.2,36.9h-8.9c-1.4,0-2.2,0.7-2.2,2c0,0.9,0.4,1.9,2.2,1.9h8.9c3.4,0,5,1,5,3.1v2.6H39.5
		c-6.1,0-9.1,2.1-9.1,6.3v2.6c0,4.2,3.1,6.3,9.1,6.3h13.1c6.2,0,9.3-2.2,9.3-6.7V44C61.9,39.3,58.6,36.9,52.2,36.9z M57.2,54.9
		c0,2-1.6,2.9-4.9,2.9H39.8c-3.2,0-4.8-0.9-4.8-2.7v-2.4c0-1.8,1.6-2.7,4.8-2.7h17.4V54.9z"/>
	<path class="st0" d="M79.4,36.9h-3.2c-7.3,0-11,2.5-11,7.5v15.4c0,1.3,0.8,2.1,2.4,2.1c1.6,0,2.4-0.7,2.4-2.1V44.3
		c0-2.2,2-3.3,6.1-3.3h3.4c1.5,0,2.3-0.7,2.3-2S80.9,36.9,79.4,36.9z"/>
	<path class="st0" d="M102.5,36.9h-8.4c-7.3,0-11,2.5-11,7.5v9.1c0,4.9,3.7,7.5,11,7.5h14.7v3.5c0,2.1-1.9,3.1-5.7,3.1h-8.4
		c-1.4,0-2.2,0.7-2.2,1.9s0.8,1.9,2.2,1.9h8.4c6.9,0,10.4-2.4,10.4-7v-20C113.6,39.5,109.8,36.9,102.5,36.9z M108.8,57.2H93.7
		c-3.9,0-5.8-1-5.8-3v-9.8c0-2.2,1.9-3.3,5.8-3.3h9.3c3.9,0,5.8,1.1,5.8,3.3V57.2z"/>
	<path class="st0" d="M136.1,36.9h-8.1c-7.3,0-11,2.5-11,7.5v9.8c0,4.9,3.7,7.5,11,7.5h8.1c7.3,0,11-2.5,11-7.5v-9.8
		C147.1,39.5,143.4,36.9,136.1,36.9z M142.3,54.3c0,2.2-2.1,3.4-6.1,3.4h-8.4c-4,0-6.1-1.1-6.1-3.4v-9.9c0-2.2,2-3.4,6.1-3.4h8.4
		c4.1,0,6.1,1.1,6.1,3.4V54.3z"/>
	<path class="st0" d="M169.5,36.9h-8.1c-7.3,0-11,2.5-11,7.5v15.4c0,1.4,0.8,2.1,2.4,2.1c1.6,0,2.4-0.7,2.4-2.1V44.4
		c0-2.3,2-3.4,6.1-3.4h8.4c4.1,0,6.1,1.1,6.1,3.4v15.4c0,1.4,0.8,2.1,2.4,2.1c1.6,0,2.4-0.7,2.4-2.1V44.4
		C180.5,39.5,176.8,36.9,169.5,36.9z"/>
</g>
<g>
	<path class="st1" d="M194,36.8c-1.2,0-1.9,0.5-1.9,1.5v22.1c0,0.7,0.3,1.5,1.9,1.5s1.9-0.8,1.9-1.5V38.3
		C195.9,37.3,195.3,36.8,194,36.8z"/>
	<path class="st1" d="M216.6,41.8h-7.2c-1.2,0-1.8,0.6-1.8,1.6c0,0.7,0.3,1.6,1.8,1.6h7.2c2.7,0,4.1,0.8,4.1,2.5v2.1h-14.3
		c-4.9,0-7.4,1.7-7.4,5v2.1c0,3.4,2.5,5.1,7.4,5.1h10.6c5,0,7.5-1.8,7.5-5.4v-8.9C224.4,43.7,221.8,41.8,216.6,41.8z M220.6,56.3
		c0,1.6-1.3,2.3-4,2.3h-10.1c-2.6,0-3.9-0.7-3.9-2.2v-1.9c0-1.4,1.3-2.2,3.9-2.2h14V56.3z"/>
	<path class="st1" d="M258.2,41.6c-1.1,0-1.6,0.6-1.8,1.2l-5.6,13.8l-5.9-13.7l0,0c-0.4-0.9-1-1.3-1.9-1.3c-0.9,0-1.5,0.4-1.9,1.3
		l-5.9,13.7l-5.5-13.8c-0.4-0.8-1-1.2-1.9-1.2c-1.2,0-1.9,0.6-1.9,1.6c0,0.3,0,0.6,0.2,1l7.2,16.4c0.4,0.8,0.8,1.3,1.9,1.3
		c0.9,0,1.4-0.4,1.9-1.3l5.9-13.6l6,13.6c0.4,0.9,1,1.3,1.9,1.3c1,0,1.5-0.5,1.9-1.3l7.2-16.4c0.2-0.4,0.2-0.6,0.2-1
		C260.1,42.2,259.3,41.6,258.2,41.6z"/>
</g>
</svg>
