<?xml version="1.0" encoding="utf-8"?>
<!-- Generator: Adobe Illustrator 22.1.0, SVG Export Plug-In . SVG Version: 6.00 Build 0)  -->
<svg version="1.1" id="Layer_1" xmlns="http://www.w3.org/2000/svg" xmlns:xlink="http://www.w3.org/1999/xlink" x="0px" y="0px"
	 viewBox="0 0 290.4 96.3" style="enable-background:new 0 0 290.4 96.3;" xml:space="preserve">
<style type="text/css">
	.st0{clip-path:url(#SVGID_2_);fill:none;stroke:#FFFFFF;stroke-width:3.1181;stroke-miterlimit:10;}
	.st1{clip-path:url(#SVGID_4_);fill:none;stroke:#FFFFFF;stroke-width:5.2441;stroke-linecap:round;stroke-miterlimit:10;}
	.st2{clip-path:url(#SVGID_6_);fill:none;stroke:#FFFFFF;stroke-width:5.2441;stroke-linecap:round;stroke-miterlimit:10;}
	.st3{clip-path:url(#SVGID_8_);fill:none;stroke:#FFFFFF;stroke-width:5.2441;stroke-linecap:round;stroke-miterlimit:10;}
	.st4{clip-path:url(#SVGID_10_);fill:none;stroke:#FFFFFF;stroke-width:5.2441;stroke-miterlimit:10;}
	.st5{clip-path:url(#SVGID_12_);fill:none;stroke:#FFFFFF;stroke-width:5.2441;stroke-linecap:round;stroke-miterlimit:10;}
	.st6{clip-path:url(#SVGID_14_);fill:none;stroke:#FFFFFF;stroke-width:4.5354;stroke-linecap:round;stroke-miterlimit:10;}
	
		.st7{clip-path:url(#SVGID_16_);fill:none;stroke:#FFFFFF;stroke-width:4.5354;stroke-linecap:round;stroke-linejoin:round;stroke-miterlimit:10;}
	
		.st8{clip-path:url(#SVGID_18_);fill:none;stroke:#FFFFFF;stroke-width:4.5354;stroke-linecap:round;stroke-linejoin:round;stroke-miterlimit:10;}
</style>
<g>
	<defs>
		<path id="SVGID_1_" d="M45.6,34.2c2.6,0,4.7-2.1,4.7-4.7s-2.1-4.7-4.7-4.7c-2.6,0-4.7,2.1-4.7,4.7S43,34.2,45.6,34.2z M45.6,27.6
			c1,0,1.8,0.8,1.8,1.8s-0.8,1.8-1.8,1.8s-1.8-0.8-1.8-1.8S44.6,27.6,45.6,27.6z"/>
	</defs>
	<clipPath id="SVGID_2_">
		<use xlink:href="#SVGID_1_"  style="overflow:visible;"/>
	</clipPath>
	<circle class="st0 ani" cx="45.6" cy="29.5" r="3.3"/>
	<use xlink:href="#SVGID_1_"  style="overflow:visible;fill:none;stroke:#FFFFFF;stroke-miterlimit:10;"/>
</g>
<g>
	<defs>
		<path id="SVGID_3_" d="M52.2,36.9h-8.9c-1.4,0-2.2,0.7-2.2,2c0,0.9,0.4,1.9,2.2,1.9h8.9c3.4,0,5,1,5,3.1v2.6H39.5
			c-6.1,0-9.1,2.1-9.1,6.3v2.6c0,4.2,3.1,6.3,9.1,6.3h13.1c6.2,0,9.3-2.2,9.3-6.7V44C61.9,39.3,58.6,36.9,52.2,36.9z M57.2,54.9
			c0,2-1.6,2.9-4.9,2.9H39.8c-3.2,0-4.8-0.9-4.8-2.7v-2.4c0-1.8,1.6-2.7,4.8-2.7h17.4V54.9z"/>
	</defs>
	<clipPath id="SVGID_4_">
		<use xlink:href="#SVGID_3_"  style="overflow:visible;"/>
	</clipPath>
	<path class="st1 ani" d="M43.6,38.9h9c0,0,3.1-0.4,5,1c1.8,1.4,2.1,2.4,2.1,4.1c0,0.6,0,2.2,0,4.1c0,3.5,0,7.9,0,7.9s-1.1,3.7-6.8,3.8
		s-14.9,0-14.9,0s-5.6,0.3-5.4-5.9c0.2-6.2,6.1-5.8,6.1-5.8h6h14.5"/>
	<use xlink:href="#SVGID_3_"  style="overflow:visible;fill:none;stroke:#FFFFFF;stroke-miterlimit:10;"/>
</g>
<g>
	<defs>
		<path id="SVGID_5_" d="M79.4,36.9h-3.2c-7.3,0-11,2.5-11,7.5v15.4c0,1.3,0.8,2.1,2.4,2.1c1.6,0,2.4-0.7,2.4-2.1V44.3
			c0-2.2,2-3.3,6.1-3.3h3.4c1.5,0,2.3-0.7,2.3-2S80.9,36.9,79.4,36.9z"/>
	</defs>
	<clipPath id="SVGID_6_">
		<use xlink:href="#SVGID_5_"  style="overflow:visible;"/>
	</clipPath>
	<path class="st2 ani" d="M79.2,38.9l-4.3,0c0,0-7.5-0.7-7.5,7.2c0,7.8,0,13.7,0,13.7"/>
	<use xlink:href="#SVGID_5_"  style="overflow:visible;fill:none;stroke:#FFFFFF;stroke-miterlimit:10;"/>
</g>
<g>
	<defs>
		<path id="SVGID_7_" d="M102.5,36.9h-8.4c-7.3,0-11,2.5-11,7.5v9.1c0,4.9,3.7,7.5,11,7.5h14.7v3.5c0,2.1-1.9,3.1-5.7,3.1h-8.4
			c-1.4,0-2.2,0.7-2.2,1.9s0.8,1.9,2.2,1.9h8.4c6.9,0,10.4-2.4,10.4-7v-20C113.6,39.5,109.8,36.9,102.5,36.9z M108.8,57.2H93.7
			c-3.9,0-5.8-1-5.8-3v-9.8c0-2.2,1.9-3.3,5.8-3.3h9.3c3.9,0,5.8,1.1,5.8,3.3V57.2z"/>
	</defs>
	<clipPath id="SVGID_8_">
		<use xlink:href="#SVGID_7_"  style="overflow:visible;"/>
	</clipPath>
	<path class="st3 ani" d="M95.2,69.6h9.2c0,0,6.8,0.7,6.8-6.2c-0.1-6.5,0-17,0-17s1.5-7.7-8.3-7.4h-9.6c0,0-7.7-0.8-7.8,5.6s0,9.4,0,9.4
		s-0.2,5.2,7.2,5.2c7.3,0.1,18.3-0.2,18.3-0.2"/>
	<use xlink:href="#SVGID_7_"  style="overflow:visible;fill:none;stroke:#FFFFFF;stroke-miterlimit:10;"/>
</g>
<g>
	<defs>
		<path id="SVGID_9_" d="M136.1,36.9h-8.1c-7.3,0-11,2.5-11,7.5v9.8c0,4.9,3.7,7.5,11,7.5h8.1c7.3,0,11-2.5,11-7.5v-9.8
			C147.1,39.5,143.4,36.9,136.1,36.9z M142.3,54.3c0,2.2-2.1,3.4-6.1,3.4h-8.4c-4,0-6.1-1.1-6.1-3.4v-9.9c0-2.2,2-3.4,6.1-3.4h8.4
			c4.1,0,6.1,1.1,6.1,3.4V54.3z"/>
	</defs>
	<clipPath id="SVGID_10_">
		<use xlink:href="#SVGID_9_"  style="overflow:visible;"/>
	</clipPath>
	<path class="st4 ani" d="M119,47.8v-3.4c0,0-0.1-5.1,7-5.3h12.7c0,0,6,0.2,6.1,5.7c0.1,5.5,0,9.1,0,9.1s0.1,5.7-6.1,5.8
		c-6.2,0.1-13.1,0-13.1,0S119,59,119,53.4S119,47.8,119,47.8z"/>
	<use xlink:href="#SVGID_9_"  style="overflow:visible;fill:none;stroke:#FFFFFF;stroke-miterlimit:10;"/>
</g>
<g>
	<defs>
		<path id="SVGID_11_" d="M169.5,36.9h-8.1c-7.3,0-11,2.5-11,7.5v15.4c0,1.4,0.8,2.1,2.4,2.1c1.6,0,2.4-0.7,2.4-2.1V44.4
			c0-2.3,2-3.4,6.1-3.4h8.4c4.1,0,6.1,1.1,6.1,3.4v15.4c0,1.4,0.8,2.1,2.4,2.1c1.6,0,2.4-0.7,2.4-2.1V44.4
			C180.5,39.5,176.8,36.9,169.5,36.9z"/>
	</defs>
	<clipPath id="SVGID_12_">
		<use xlink:href="#SVGID_11_"  style="overflow:visible;"/>
	</clipPath>
	<path class="st5 ani" d="M152.8,59.9V44.9c0,0-0.7-5.9,7.8-5.9s11,0,11,0s6.8,0.2,6.7,6.2l0,14.8"/>
	<use xlink:href="#SVGID_11_"  style="overflow:visible;fill:none;stroke:#FFFFFF;stroke-miterlimit:10;"/>
</g>
<g>
	<defs>
		<path id="SVGID_13_" d="M194,36.8c-1.2,0-1.9,0.5-1.9,1.5v22.1c0,0.7,0.3,1.5,1.9,1.5s1.9-0.8,1.9-1.5V38.3
			C195.9,37.3,195.3,36.8,194,36.8z"/>
	</defs>
	<clipPath id="SVGID_14_">
		<use xlink:href="#SVGID_13_"  style="overflow:visible;"/>
	</clipPath>
	<line class="st6 ani" x1="194" y1="38.2" x2="194" y2="60.5"/>
	<use xlink:href="#SVGID_13_"  style="overflow:visible;fill:none;stroke:#FFFFFF;stroke-miterlimit:10;"/>
</g>
<g>
	<defs>
		<path id="SVGID_15_" d="M216.6,41.8h-7.2c-1.2,0-1.8,0.6-1.8,1.6c0,0.7,0.3,1.6,1.8,1.6h7.2c2.7,0,4.1,0.8,4.1,2.5v2.1h-14.3
			c-4.9,0-7.4,1.7-7.4,5v2.1c0,3.4,2.5,5.1,7.4,5.1h10.6c5,0,7.5-1.8,7.5-5.4v-8.9C224.4,43.7,221.8,41.8,216.6,41.8z M220.6,56.3
			c0,1.6-1.3,2.3-4,2.3h-10.1c-2.6,0-3.9-0.7-3.9-2.2v-1.9c0-1.4,1.3-2.2,3.9-2.2h14V56.3z"/>
	</defs>
	<clipPath id="SVGID_16_">
		<use xlink:href="#SVGID_15_"  style="overflow:visible;"/>
	</clipPath>
	<path class="st7 ani" d="M207.6,43.5h9.1c0,0,2.5-0.3,3.9,0.8s1.7,1.9,1.7,3.2c0,0.5,0,1.7,0,3.2c0,2.8,0,6.3,0,6.3s-0.9,2.9-5.4,3
		s-11.7,0-11.7,0s-4.4,0.3-4.2-4.6c0.2-4.9,4.8-4.6,4.8-4.6h4.7h11.4"/>
	<use xlink:href="#SVGID_15_"  style="overflow:visible;fill:none;stroke:#FFFFFF;stroke-miterlimit:10;"/>
</g>
<g>
	<defs>
		<path id="SVGID_17_" d="M258.2,41.6c-1.1,0-1.6,0.6-1.8,1.2l-5.6,13.8l-5.9-13.7l0,0c-0.4-0.9-1-1.3-1.9-1.3
			c-0.9,0-1.5,0.4-1.9,1.3l-5.9,13.7l-5.5-13.8c-0.4-0.8-1-1.2-1.9-1.2c-1.2,0-1.9,0.6-1.9,1.6c0,0.3,0,0.6,0.2,1l7.2,16.4
			c0.4,0.8,0.8,1.3,1.9,1.3c0.9,0,1.4-0.4,1.9-1.3l5.9-13.6l6,13.6c0.4,0.9,1,1.3,1.9,1.3c1,0,1.5-0.5,1.9-1.3l7.2-16.4
			c0.2-0.4,0.2-0.6,0.2-1C260.1,42.2,259.3,41.6,258.2,41.6z"/>
	</defs>
	<clipPath id="SVGID_18_">
		<use xlink:href="#SVGID_17_"  style="overflow:visible;"/>
	</clipPath>
	<polyline class="st8 ani" points="226.8,41.8 235.1,60 242.9,43.1 250.9,60 258.9,41 	"/>
	<use xlink:href="#SVGID_17_"  style="overflow:visible;fill:none;stroke:#FFFFFF;stroke-miterlimit:10;"/>
</g>
</svg>
