<?xml version="1.0" encoding="UTF-8"?>
<svg width="231px" height="48px" viewBox="0 0 231 48" version="1.1" xmlns="http://www.w3.org/2000/svg" xmlns:xlink="http://www.w3.org/1999/xlink">
    <!-- Generator: Sketch 64 (93537) - https://sketch.com -->
    <title>ArgonLaw_logo</title>
    <desc>Created with Sketch.</desc>
    <g id="Page-1" stroke="none" stroke-width="1" fill="none" fill-rule="evenodd">
        <g id="ArgonLaw_logo" fill-rule="nonzero">
            <g id="Group" fill="#002A42">
                <path d="M15.6,10.2 C18.2,10.2 20.3,8.1 20.3,5.5 C20.3,2.9 18.2,0.8 15.6,0.8 C13,0.8 10.9,2.9 10.9,5.5 C10.9,8.1 13,10.2 15.6,10.2 Z M15.6,3.6 C16.6,3.6 17.4,4.4 17.4,5.4 C17.4,6.4 16.6,7.2 15.6,7.2 C14.6,7.2 13.8,6.4 13.8,5.4 C13.8,4.4 14.6,3.6 15.6,3.6 Z" id="Shape"></path>
                <path d="M22.2,12.9 L13.3,12.9 C11.9,12.9 11.1,13.6 11.1,14.9 C11.1,15.8 11.5,16.8 13.3,16.8 L22.2,16.8 C25.6,16.8 27.2,17.8 27.2,19.9 L27.2,22.5 L9.5,22.5 C3.4,22.5 0.4,24.6 0.4,28.8 L0.4,31.4 C0.4,35.6 3.5,37.7 9.5,37.7 L22.6,37.7 C28.8,37.7 31.9,35.5 31.9,31 L31.9,20 C31.9,15.3 28.6,12.9 22.2,12.9 Z M27.2,30.9 C27.2,32.9 25.6,33.8 22.3,33.8 L9.8,33.8 C6.6,33.8 5,32.9 5,31.1 L5,28.7 C5,26.9 6.6,26 9.8,26 L27.2,26 L27.2,30.9 L27.2,30.9 Z" id="Shape"></path>
                <path d="M49.4,12.9 L46.2,12.9 C38.9,12.9 35.2,15.4 35.2,20.4 L35.2,35.8 C35.2,37.1 36,37.9 37.6,37.9 C39.2,37.9 40,37.2 40,35.8 L40,20.3 C40,18.1 42,17 46.1,17 L49.5,17 C51,17 51.8,16.3 51.8,15 C51.8,13.7 50.9,12.9 49.4,12.9 Z" id="Path"></path>
                <path d="M72.5,12.9 L64.1,12.9 C56.8,12.9 53.1,15.4 53.1,20.4 L53.1,29.5 C53.1,34.4 56.8,37 64.1,37 L78.8,37 L78.8,40.5 C78.8,42.6 76.9,43.6 73.1,43.6 L64.7,43.6 C63.3,43.6 62.5,44.3 62.5,45.5 C62.5,46.7 63.3,47.4 64.7,47.4 L73.1,47.4 C80,47.4 83.5,45 83.5,40.4 L83.5,20.4 C83.6,15.5 79.8,12.9 72.5,12.9 Z M78.8,33.2 L63.7,33.2 C59.8,33.2 57.9,32.2 57.9,30.2 L57.9,20.4 C57.9,18.2 59.8,17.1 63.7,17.1 L73,17.1 C76.9,17.1 78.8,18.2 78.8,20.4 L78.8,33.2 Z" id="Shape"></path>
                <path d="M106.1,12.9 L98,12.9 C90.7,12.9 87,15.4 87,20.4 L87,30.2 C87,35.1 90.7,37.7 98,37.7 L106.1,37.7 C113.4,37.7 117.1,35.2 117.1,30.2 L117.1,20.4 C117.1,15.5 113.4,12.9 106.1,12.9 Z M112.3,30.3 C112.3,32.5 110.2,33.7 106.2,33.7 L97.8,33.7 C93.8,33.7 91.7,32.6 91.7,30.3 L91.7,20.4 C91.7,18.2 93.7,17 97.8,17 L106.2,17 C110.3,17 112.3,18.1 112.3,20.4 L112.3,30.3 Z" id="Shape"></path>
                <path d="M139.5,12.9 L131.4,12.9 C124.1,12.9 120.4,15.4 120.4,20.4 L120.4,35.8 C120.4,37.2 121.2,37.9 122.8,37.9 C124.4,37.9 125.2,37.2 125.2,35.8 L125.2,20.4 C125.2,18.1 127.2,17 131.3,17 L139.7,17 C143.8,17 145.8,18.1 145.8,20.4 L145.8,35.8 C145.8,37.2 146.6,37.9 148.2,37.9 C149.8,37.9 150.6,37.2 150.6,35.8 L150.6,20.4 C150.5,15.5 146.8,12.9 139.5,12.9 Z" id="Path"></path>
            </g>
            <g id="Group" transform="translate(162.000000, 12.000000)" fill="#A2AD00">
                <path d="M2,0.8 C0.8,0.8 0.1,1.3 0.1,2.3 L0.1,24.4 C0.1,25.1 0.4,25.9 2,25.9 C3.6,25.9 3.9,25.1 3.9,24.4 L3.9,2.3 C3.9,1.3 3.3,0.8 2,0.8 Z" id="Path"></path>
                <path d="M24.6,5.8 L17.4,5.8 C16.2,5.8 15.6,6.4 15.6,7.4 C15.6,8.1 15.9,9 17.4,9 L24.6,9 C27.3,9 28.7,9.8 28.7,11.5 L28.7,13.6 L14.4,13.6 C9.5,13.6 7,15.3 7,18.6 L7,20.7 C7,24.1 9.5,25.8 14.4,25.8 L25,25.8 C30,25.8 32.5,24 32.5,20.4 L32.5,11.5 C32.4,7.7 29.8,5.8 24.6,5.8 Z M28.6,20.3 C28.6,21.9 27.3,22.6 24.6,22.6 L14.5,22.6 C11.9,22.6 10.6,21.9 10.6,20.4 L10.6,18.5 C10.6,17.1 11.9,16.3 14.5,16.3 L28.5,16.3 L28.5,20.3 L28.6,20.3 Z" id="Shape"></path>
                <path d="M66.2,5.6 C65.1,5.6 64.6,6.2 64.4,6.8 L58.8,20.6 L52.9,6.9 L52.9,6.9 C52.5,6 51.9,5.6 51,5.6 C50.1,5.6 49.5,6 49.1,6.9 L43.2,20.6 L37.7,6.8 C37.3,6 36.7,5.6 35.8,5.6 C34.6,5.6 33.9,6.2 33.9,7.2 C33.9,7.5 33.9,7.8 34.1,8.2 L41.3,24.6 C41.7,25.4 42.1,25.9 43.2,25.9 C44.1,25.9 44.6,25.5 45.1,24.6 L51,11 L57,24.6 C57.4,25.5 58,25.9 58.9,25.9 C59.9,25.9 60.4,25.4 60.8,24.6 L68,8.2 C68.2,7.8 68.2,7.6 68.2,7.2 C68.1,6.2 67.3,5.6 66.2,5.6 Z" id="Path"></path>
            </g>
        </g>
    </g>
</svg>