<?xml version="1.0" encoding="utf-8"?>
<!-- Generator: Adobe Illustrator 21.1.0, SVG Export Plug-In . SVG Version: 6.00 Build 0)  -->
<svg version="1.2" baseProfile="tiny" id="Layer_1" xmlns="http://www.w3.org/2000/svg" xmlns:xlink="http://www.w3.org/1999/xlink"
	 x="0px" y="0px" viewBox="0 0 535.9 333.1" xml:space="preserve">
<g>
	<path fill="#0C1C2A" d="M93,65.9c-0.5-1.2-1.2-2.2-2.1-2.9c-0.9-0.7-1.9-1.3-3-1.7c-1.1-0.4-2.1-0.7-3.2-0.8
		c-1.1-0.1-2-0.2-2.7-0.2c-2.4,0-4.6,0.5-6.7,1.5c-2.1,1-3.8,2.4-5.3,4.3c-1.5,1.9-2.7,4.2-3.5,7c-0.9,2.8-1.3,6-1.3,9.6
		c0,3.5,0.4,6.7,1.3,9.6c0.9,2.9,2.1,5.5,3.6,7.6c1.6,2.1,3.4,3.8,5.7,5c2.2,1.2,4.7,1.8,7.3,1.8c1.6,0,3.2-0.2,4.8-0.7
		c1.6-0.5,3.1-1.1,4.5-1.9c1.4-0.8,2.7-1.8,4-2.9c1.2-1.1,2.2-2.3,3.1-3.5l2.7,2.1c-1.4,2.2-3,4-4.8,5.6s-3.7,2.8-5.6,3.8
		c-2,1-3.9,1.7-5.9,2.2s-3.9,0.7-5.6,0.7c-3.5,0-6.9-0.6-10-1.8c-3.1-1.2-5.9-3-8.2-5.3c-2.3-2.3-4.2-5.1-5.6-8.4
		c-1.4-3.3-2-7.1-2-11.4c0-2.4,0.3-4.8,0.9-7.1c0.6-2.3,1.5-4.6,2.6-6.7c1.1-2.1,2.5-4.1,4.1-5.9c1.6-1.8,3.4-3.4,5.4-4.7
		c2-1.3,4.2-2.4,6.6-3.1c2.4-0.7,4.9-1.1,7.6-1.1c2.9,0,5.5,0.4,7.9,1.1c2.4,0.7,4.4,1.7,6.1,2.9c1.7,1.2,3,2.6,3.9,4.1
		c0.9,1.5,1.4,3.2,1.4,4.9c0,1.5-0.4,2.8-1.2,3.8c-0.8,1.1-2,1.6-3.6,1.7c-0.9,0-1.7-0.1-2.3-0.4c-0.6-0.3-1.1-0.7-1.5-1.2
		c-0.4-0.5-0.6-1-0.8-1.6c-0.2-0.6-0.3-1.1-0.3-1.5c0-0.7,0.1-1.4,0.3-2.1C92,67.3,92.4,66.6,93,65.9z"/>
	<path fill="#0C1C2A" d="M136.9,56.5c3.7,0,7.1,0.7,10.3,2c3.2,1.3,6,3.2,8.3,5.6c2.4,2.4,4.2,5.2,5.6,8.4c1.4,3.2,2.1,6.8,2.1,10.5
		c0,4-0.7,7.8-2,11.4c-1.3,3.5-3.2,6.6-5.6,9.2c-2.4,2.6-5.1,4.7-8.4,6.2c-3.2,1.5-6.7,2.3-10.4,2.3c-3.7,0-7.1-0.7-10.3-2
		c-3.2-1.3-5.9-3.1-8.3-5.5c-2.4-2.3-4.2-5.1-5.6-8.4c-1.4-3.2-2-6.8-2-10.7c0-4.1,0.7-7.9,2-11.5s3.2-6.6,5.5-9.2
		c2.3-2.6,5.1-4.6,8.3-6.1C129.7,57.2,133.1,56.5,136.9,56.5z M136.9,60.4c-2.8,0-5.1,0.6-7.1,1.8c-2,1.2-3.6,2.9-4.8,4.9
		c-1.3,2-2.2,4.4-2.8,7c-0.6,2.7-0.9,5.4-0.9,8.3c0,3.2,0.3,6.4,1,9.4c0.7,3.1,1.7,5.8,3,8.1c1.4,2.4,3.1,4.3,5.1,5.7
		c2.1,1.4,4.5,2.1,7.2,2.1s5.1-0.6,7-1.9c1.9-1.2,3.4-2.9,4.6-4.9c1.2-2,2-4.4,2.5-7c0.5-2.6,0.8-5.3,0.8-8.1c0-3.1-0.3-6.2-0.9-9.3
		c-0.6-3.1-1.5-5.8-2.8-8.2c-1.3-2.4-2.9-4.4-4.9-5.9C142,61.2,139.6,60.4,136.9,60.4z"/>
	<path fill="#0C1C2A" d="M179.2,70.7c0-1.1,0-2.2,0.1-3.3c0-1.1,0.2-2.3,0.4-3.5l-7.4,0.4v-4.4c2.3,0,4.1-0.1,5.6-0.2
		c1.4-0.2,2.6-0.4,3.4-0.6s1.5-0.6,2-0.9c0.5-0.3,0.9-0.7,1.3-1h3c0.1,0.7,0.1,1.5,0.2,2.3c0.1,0.9,0.1,2,0.2,3.2
		c1.1-0.9,2.2-1.7,3.4-2.5c1.2-0.8,2.5-1.4,3.8-2c1.3-0.6,2.7-1,4-1.3c1.4-0.3,2.7-0.5,4.1-0.5c3.5,0,6.5,0.6,8.8,1.9
		c2.3,1.3,4.2,3,5.5,5.1c1.2-1,2.4-1.9,3.8-2.8c1.4-0.8,2.8-1.6,4.3-2.2c1.5-0.6,3-1.1,4.6-1.5c1.6-0.4,3.1-0.5,4.6-0.5
		c3,0,5.6,0.4,7.9,1.3c2.2,0.9,4.1,2.3,5.5,4.2c1.4,1.9,2.5,4.3,3.2,7.3c0.7,3,1,6.5,0.9,10.6l-0.1,19.5c0,1.4,0,2.6-0.1,3.7
		c0,1.1-0.2,2.2-0.4,3.4l6.6-0.3v4.3h-21.3v-3.1c1.6,0,2.8-0.3,3.6-0.9c0.8-0.6,1.4-1.5,1.8-2.6c0.4-1.1,0.6-2.5,0.6-4
		c0.1-1.6,0.1-3.3,0.1-5.1V79.9c0-6-1-10.5-2.9-13.5c-1.9-3-4.9-4.5-9.1-4.5c-2.2,0-4.3,0.5-6.5,1.5c-2.2,1-4,2.2-5.6,3.7
		c0.7,2.3,1.1,4.9,1.1,7.6l-0.2,24.6c0,1.4,0,2.6-0.1,3.7c0,1.1-0.2,2.2-0.4,3.4l6.6-0.3v4.3H205v-3.1c1.6,0,2.8-0.3,3.6-0.9
		c0.8-0.6,1.4-1.5,1.8-2.6c0.4-1.1,0.6-2.5,0.6-4c0.1-1.6,0.1-3.3,0.1-5.1l0.1-14.6c0-6-0.8-10.5-2.6-13.6c-1.8-3.1-4.7-4.6-8.8-4.6
		c-2.1,0-4.3,0.5-6.3,1.4c-2.1,0.9-3.9,2.1-5.3,3.6c0,0.8,0,1.7,0,2.6c0,0.9,0,1.9,0,3v26.9c0,1.4,0,2.6-0.1,3.7
		c0,1.1-0.2,2.2-0.4,3.4l6.6-0.3v4.3h-21.3v-3.1c1.6,0,2.8-0.3,3.6-0.9c0.8-0.6,1.4-1.5,1.8-2.6c0.4-1.1,0.6-2.5,0.6-4
		c0.1-1.6,0.1-3.3,0.1-5.1V70.7z"/>
	<path fill="#0C1C2A" d="M273.6,70.7c0-1.1,0-2.2,0.1-3.3c0-1.1,0.2-2.3,0.4-3.5l-7.4,0.4v-4.4c2.3,0,4.1-0.1,5.6-0.2
		c1.4-0.2,2.6-0.4,3.4-0.6c0.9-0.3,1.5-0.6,2-0.9c0.5-0.3,0.9-0.7,1.3-1h3c0.1,0.7,0.1,1.5,0.2,2.3c0.1,0.9,0.1,2,0.2,3.2
		c1.1-0.9,2.2-1.7,3.4-2.5c1.2-0.8,2.5-1.4,3.8-2s2.7-1,4-1.3c1.4-0.3,2.7-0.5,4.1-0.5c3.5,0,6.5,0.6,8.8,1.9c2.3,1.3,4.2,3,5.5,5.1
		c1.2-1,2.4-1.9,3.8-2.8c1.4-0.8,2.8-1.6,4.3-2.2c1.5-0.6,3-1.1,4.6-1.5c1.6-0.4,3.1-0.5,4.6-0.5c3,0,5.6,0.4,7.9,1.3
		c2.2,0.9,4.1,2.3,5.5,4.2c1.4,1.9,2.5,4.3,3.2,7.3c0.7,3,1,6.5,0.9,10.6l-0.1,19.5c0,1.4,0,2.6-0.1,3.7c0,1.1-0.2,2.2-0.4,3.4
		l6.6-0.3v4.3h-21.3v-3.1c1.6,0,2.8-0.3,3.6-0.9c0.8-0.6,1.4-1.5,1.8-2.6c0.4-1.1,0.6-2.5,0.6-4c0.1-1.6,0.1-3.3,0.1-5.1V79.9
		c0-6-1-10.5-2.9-13.5c-1.9-3-4.9-4.5-9.1-4.5c-2.2,0-4.3,0.5-6.5,1.5c-2.2,1-4,2.2-5.6,3.7c0.7,2.3,1.1,4.9,1.1,7.6l-0.2,24.6
		c0,1.4,0,2.6-0.1,3.7c0,1.1-0.2,2.2-0.4,3.4l6.6-0.3v4.3h-21.3v-3.1c1.6,0,2.8-0.3,3.6-0.9c0.8-0.6,1.4-1.5,1.8-2.6
		c0.4-1.1,0.6-2.5,0.6-4c0.1-1.6,0.1-3.3,0.1-5.1l0.1-14.6c0-6-0.8-10.5-2.6-13.6c-1.8-3.1-4.7-4.6-8.8-4.6c-2.1,0-4.3,0.5-6.3,1.4
		c-2.1,0.9-3.9,2.1-5.3,3.6c0,0.8,0,1.7,0,2.6c0,0.9,0,1.9,0,3v26.9c0,1.4,0,2.6-0.1,3.7c0,1.1-0.2,2.2-0.4,3.4l6.6-0.3v4.3h-21.3
		v-3.1c1.6,0,2.8-0.3,3.6-0.9c0.8-0.6,1.4-1.5,1.8-2.6c0.4-1.1,0.6-2.5,0.6-4c0.1-1.6,0.1-3.3,0.1-5.1V70.7z"/>
	<path fill="#0C1C2A" d="M387.7,56.5c3.7,0,7.1,0.7,10.3,2c3.2,1.3,6,3.2,8.3,5.6c2.4,2.4,4.2,5.2,5.6,8.4c1.4,3.2,2.1,6.8,2.1,10.5
		c0,4-0.7,7.8-2,11.4c-1.3,3.5-3.2,6.6-5.6,9.2c-2.4,2.6-5.1,4.7-8.4,6.2c-3.2,1.5-6.7,2.3-10.4,2.3c-3.7,0-7.1-0.7-10.3-2
		c-3.2-1.3-5.9-3.1-8.3-5.5c-2.4-2.3-4.2-5.1-5.6-8.4c-1.4-3.2-2-6.8-2-10.7c0-4.1,0.7-7.9,2-11.5s3.2-6.6,5.5-9.2
		c2.3-2.6,5.1-4.6,8.3-6.1C380.6,57.2,384,56.5,387.7,56.5z M387.7,60.4c-2.8,0-5.1,0.6-7.1,1.8c-2,1.2-3.6,2.9-4.8,4.9
		c-1.3,2-2.2,4.4-2.8,7c-0.6,2.7-0.9,5.4-0.9,8.3c0,3.2,0.3,6.4,1,9.4c0.7,3.1,1.7,5.8,3,8.1c1.4,2.4,3.1,4.3,5.1,5.7
		c2.1,1.4,4.5,2.1,7.2,2.1s5.1-0.6,7-1.9c1.9-1.2,3.4-2.9,4.6-4.9c1.2-2,2-4.4,2.5-7c0.5-2.6,0.8-5.3,0.8-8.1c0-3.1-0.3-6.2-0.9-9.3
		c-0.6-3.1-1.5-5.8-2.8-8.2c-1.3-2.4-2.9-4.4-4.9-5.9C392.9,61.2,390.5,60.4,387.7,60.4z"/>
	<path fill="#0C1C2A" d="M430.2,70.7c0-1.1,0-2.2,0.1-3.3c0-1.1,0.2-2.3,0.4-3.5l-7.4,0.4v-4.4c2.3,0,4.1-0.1,5.6-0.2
		c1.4-0.2,2.6-0.4,3.4-0.6c0.9-0.3,1.5-0.6,2-0.9c0.5-0.3,0.9-0.7,1.3-1h3c0.1,0.8,0.1,1.7,0.2,2.7c0.1,1,0.2,2.2,0.2,3.6
		c1.1-1,2.4-1.9,3.7-2.8c1.3-0.8,2.7-1.6,4.2-2.2c1.5-0.6,3-1.1,4.5-1.5c1.5-0.4,3.1-0.5,4.6-0.5c6,0,10.5,1.9,13.3,5.7
		c2.8,3.8,4.2,9.7,4.2,17.7v19.5c0,1.4,0,2.6-0.1,3.7c0,1.1-0.2,2.2-0.4,3.4l6.6-0.3v4.3h-21.3v-3.1c1.6,0,2.8-0.3,3.6-0.9
		c0.8-0.6,1.4-1.5,1.8-2.6c0.4-1.1,0.6-2.5,0.6-4c0.1-1.6,0.1-3.3,0.1-5.1V79.9c-0.1-6-1.1-10.5-3-13.6c-1.9-3-4.9-4.6-9.1-4.6
		c-1.3,0-2.5,0.2-3.8,0.6c-1.3,0.4-2.5,0.9-3.6,1.5c-1.2,0.6-2.2,1.3-3.3,2.1c-1,0.8-1.9,1.7-2.7,2.6c0,0.6,0.1,1.3,0.1,2
		c0,0.7,0,1.4,0,2.1l-0.1,26.7c0,1.4,0,2.6-0.1,3.7c0,1.1-0.2,2.2-0.4,3.4l6.6-0.3v4.3h-21.3v-3.1c1.6,0,2.8-0.3,3.6-0.9
		c0.8-0.6,1.4-1.5,1.8-2.6c0.4-1.1,0.6-2.5,0.6-4c0.1-1.6,0.1-3.3,0.1-5.1L430.2,70.7z"/>
	<path fill="#0C1C2A" d="M100.8,145.8c-0.9,0.1-1.7,0.4-2.3,0.8c-0.7,0.4-1.3,1-1.8,1.6c-0.5,0.6-0.9,1.4-1.2,2.1
		c-0.3,0.8-0.6,1.5-0.7,2.3c1.7,1.6,3.1,3.5,4.1,5.6c1,2.1,1.5,4.4,1.5,6.8c0,3-0.6,5.7-1.8,8.1c-1.2,2.5-2.8,4.6-4.9,6.4
		c-2,1.8-4.4,3.2-7.1,4.2c-2.7,1-5.5,1.5-8.4,1.5c-1.3,0-2.4-0.1-3.4-0.3c-1-0.2-2.2-0.3-3.5-0.3c-1.3,0-2.5,0.2-3.5,0.5
		c-1.1,0.3-2,0.8-2.7,1.4c-0.7,0.6-1.2,1.2-1.5,1.7c-0.2,0.6-0.4,1-0.4,1.5s0.1,0.8,0.2,1.3c0.2,0.8,0.8,1.5,1.7,2
		c0.9,0.5,2,0.9,3.4,1.2c1.4,0.3,3,0.5,5,0.6c1.9,0.1,4.1,0.3,6.5,0.4c4,0.2,7.6,0.6,10.8,1.1c3.2,0.6,5.9,1.5,8.1,2.7
		s3.9,2.8,5.1,4.7c1.2,1.9,1.8,4.3,1.8,7.1s-0.8,5.3-2.3,7.5c-1.5,2.2-3.5,4-5.9,5.5c-2.4,1.5-5.2,2.6-8.2,3.4
		c-3,0.8-6.1,1.1-9.2,1.1c-4.7,0-8.7-0.4-12-1.2c-3.3-0.8-6-1.9-8.1-3.2c-2.1-1.3-3.6-2.9-4.5-4.5c-1-1.7-1.4-3.4-1.4-5.1
		c0-1.6,0.3-3.1,0.9-4.4c0.6-1.3,1.4-2.5,2.3-3.6c0.9-1.1,2-2,3.1-2.7c1.1-0.8,2.2-1.4,3.3-1.9c-2.2-0.7-4-1.7-5.3-2.9
		c-1.3-1.3-1.9-3-1.9-5.3c0-1.2,0.3-2.4,0.8-3.6c0.5-1.2,1.2-2.3,2.1-3.2c0.9-1,2-1.8,3.3-2.5c1.3-0.7,2.7-1.2,4.2-1.4
		c-1.6-0.7-3-1.7-4.3-2.7c-1.3-1.1-2.4-2.3-3.3-3.6c-0.9-1.3-1.6-2.8-2.1-4.4c-0.5-1.6-0.7-3.3-0.7-5.1c0-3.1,0.6-6,1.9-8.5
		c1.3-2.5,2.9-4.7,5-6.5c2.1-1.8,4.4-3.2,7-4.2c2.6-1,5.3-1.5,8-1.5c2.3,0,4.7,0.3,6.9,1c2.3,0.7,4.4,1.6,6.3,2.9
		c0.5-1.5,1.2-2.8,2.1-4.1c0.9-1.3,1.9-2.3,3-3.2c1.1-0.9,2.3-1.6,3.6-2.1c1.3-0.5,2.6-0.8,4-0.8c1.8,0,3.1,0.5,4.1,1.4
		c1,0.9,1.5,2.2,1.5,3.8c0,0.4-0.1,0.9-0.3,1.4c-0.2,0.5-0.4,1-0.8,1.4c-0.4,0.4-0.8,0.8-1.4,1.1c-0.6,0.3-1.3,0.4-2.1,0.4
		c-1.2,0-2.2-0.4-2.9-1.1C101.5,147.7,101,146.8,100.8,145.8z M78.9,203.5c-1.9-0.1-3.8-0.2-5.6-0.3c-1.8-0.1-3.5-0.3-5.1-0.6
		c-1.9,1.3-3.4,2.8-4.5,4.6s-1.6,3.7-1.6,5.7c0,1.7,0.4,3.3,1.2,4.7c0.8,1.4,2,2.5,3.6,3.5c1.5,1,3.4,1.7,5.6,2.3
		c2.2,0.5,4.6,0.8,7.3,0.8c3,0,5.7-0.3,8-0.9c2.4-0.6,4.4-1.4,6-2.4c1.6-1,2.9-2.2,3.7-3.5c0.8-1.3,1.3-2.8,1.3-4.2
		c0-1.9-0.5-3.5-1.5-4.7c-1-1.2-2.4-2.2-4.2-2.8c-1.8-0.7-3.9-1.2-6.3-1.5C84.5,203.8,81.8,203.6,78.9,203.5z M78,149.9
		c-1.9,0-3.5,0.4-5,1.1c-1.5,0.7-2.7,1.8-3.7,3.1c-1,1.3-1.8,2.9-2.3,4.7c-0.5,1.8-0.8,3.7-0.8,5.8c0,2.5,0.3,4.8,0.8,6.9
		c0.5,2.1,1.3,3.8,2.4,5.3c1.1,1.5,2.3,2.6,3.9,3.5c1.5,0.8,3.3,1.2,5.2,1.2c1.9,0,3.6-0.4,5.1-1.1c1.4-0.7,2.7-1.7,3.6-3
		c1-1.3,1.7-2.8,2.2-4.5c0.5-1.7,0.7-3.6,0.7-5.7c0-2.3-0.3-4.5-0.8-6.6c-0.5-2.1-1.3-3.9-2.3-5.5c-1-1.6-2.3-2.8-3.8-3.8
		C81.8,150.4,80,149.9,78,149.9z"/>
	<path fill="#0C1C2A" d="M145.6,151.9c-1.3,0-2.7,0.2-4,0.7c-1.4,0.5-2.7,1.3-4,2.3c-1.3,1-2.5,2.2-3.7,3.7c-1.2,1.4-2.2,3-3.1,4.7
		l0.1,25.6c0,1.4,0,2.6-0.1,3.7c0,1.1-0.2,2.2-0.4,3.4l6.6-0.3v4.3h-21.4V197c1.6,0,2.8-0.3,3.6-0.9c0.8-0.6,1.4-1.5,1.8-2.6
		c0.4-1.1,0.6-2.5,0.6-4c0.1-1.6,0.1-3.3,0.1-5.1v-23.9c0-1.1,0-2.2,0.1-3.3c0-1.1,0.2-2.3,0.4-3.4l-7.4,0.3v-4.3h3.2
		c1.5,0,2.7-0.1,3.7-0.2c1-0.2,1.8-0.4,2.5-0.6c0.7-0.3,1.2-0.6,1.7-0.9c0.4-0.3,0.9-0.7,1.3-1h3c0.1,1.1,0.2,2.4,0.3,4.1
		c0.1,1.6,0.2,3.7,0.2,6.2c0.8-1.3,1.8-2.6,3-3.9c1.2-1.3,2.6-2.5,4.1-3.5c1.5-1,3.2-1.9,4.9-2.5c1.8-0.7,3.6-1,5.5-1
		c1,0,1.9,0.1,2.8,0.4c0.9,0.3,1.7,0.7,2.3,1.2c0.7,0.5,1.2,1.2,1.6,2c0.4,0.8,0.6,1.8,0.6,3c0,0.5-0.1,1-0.3,1.6
		c-0.2,0.6-0.5,1.1-0.9,1.6c-0.4,0.5-1,0.9-1.6,1.3c-0.6,0.3-1.4,0.5-2.4,0.5c-0.8,0-1.5-0.2-2.1-0.5c-0.6-0.3-1.2-0.8-1.6-1.3
		c-0.4-0.5-0.7-1.1-0.9-1.8C145.5,153.5,145.5,152.7,145.6,151.9z"/>
	<path fill="#0C1C2A" d="M185,146.2c3.7,0,7.1,0.7,10.3,2c3.2,1.3,6,3.2,8.3,5.6c2.4,2.4,4.2,5.2,5.6,8.4c1.4,3.2,2.1,6.8,2.1,10.5
		c0,4-0.7,7.8-2,11.4c-1.3,3.5-3.2,6.6-5.6,9.2c-2.4,2.6-5.1,4.7-8.4,6.2c-3.2,1.5-6.7,2.3-10.4,2.3c-3.7,0-7.1-0.7-10.3-2
		c-3.2-1.3-5.9-3.1-8.3-5.5c-2.4-2.3-4.2-5.1-5.6-8.4c-1.4-3.2-2-6.8-2-10.7c0-4.1,0.7-7.9,2-11.5s3.2-6.6,5.5-9.2
		c2.3-2.6,5.1-4.6,8.3-6.1C177.9,147,181.3,146.2,185,146.2z M185,150.2c-2.8,0-5.1,0.6-7.1,1.8c-2,1.2-3.6,2.9-4.8,4.9
		c-1.3,2-2.2,4.4-2.8,7c-0.6,2.7-0.9,5.4-0.9,8.3c0,3.2,0.3,6.4,1,9.4c0.7,3.1,1.7,5.8,3,8.1c1.4,2.4,3.1,4.3,5.1,5.7
		c2.1,1.4,4.5,2.1,7.2,2.1s5.1-0.6,7-1.9c1.9-1.2,3.4-2.9,4.6-4.9c1.2-2,2-4.4,2.5-7c0.5-2.6,0.8-5.3,0.8-8.1c0-3.1-0.3-6.2-0.9-9.3
		c-0.6-3.1-1.5-5.8-2.8-8.2c-1.3-2.4-2.9-4.4-4.9-5.9C190.2,151,187.8,150.2,185,150.2z"/>
	<path fill="#0C1C2A" d="M260,161.6c0-1.7,0-3.2,0.1-4.4c0.1-1.2,0.2-2.4,0.4-3.6L253,154v-4.3h3.2c1.5,0,2.8-0.1,3.8-0.2
		c1.1-0.2,2-0.4,2.7-0.6c0.7-0.3,1.4-0.6,1.9-0.9c0.5-0.3,0.9-0.7,1.4-1h3l-0.1,39.5c0,0.5,0,1.2,0,2.1c0,0.8,0,1.7-0.1,2.6
		c0,0.9-0.1,1.8-0.1,2.7c-0.1,0.9-0.1,1.7-0.2,2.4l7.5-0.4v4.4H261c-0.2-1.2-0.3-2.3-0.4-3.3c-0.1-1-0.2-2-0.3-3
		c-1.1,1.1-2.3,2.1-3.6,3.1c-1.3,1-2.7,1.8-4.2,2.5c-1.5,0.7-3,1.3-4.6,1.7c-1.6,0.4-3.1,0.6-4.6,0.6c-2.9,0-5.4-0.4-7.5-1.1
		c-2.1-0.8-3.9-2-5.4-3.8c-1.4-1.8-2.5-4.1-3.2-7c-0.7-2.9-1.1-6.5-1.1-10.8v-18.6c0-1.1,0-2.2,0.1-3.3c0-1.1,0.2-2.3,0.4-3.5
		l-7.2,0.3v-4.3h3.3c1.5,0,2.7-0.1,3.8-0.2c1.1-0.2,2-0.4,2.7-0.6c0.7-0.3,1.4-0.6,1.9-0.9c0.5-0.3,0.9-0.7,1.4-1h3v31.8
		c0,3,0.2,5.7,0.6,7.9c0.4,2.2,1.1,4.1,2,5.6c0.9,1.5,2.1,2.6,3.5,3.3c1.4,0.7,3.2,1,5.3,1c1.3,0,2.6-0.2,3.9-0.7
		c1.3-0.4,2.5-1,3.6-1.8c1.2-0.7,2.2-1.6,3.2-2.6c1-1,1.9-2,2.6-3.1v-4.3V161.6z"/>
	<path fill="#0C1C2A" d="M290.9,160.4c0-1.1,0-2.2,0.1-3.3c0-1.1,0.2-2.3,0.4-3.5l-7.4,0.4v-4.4c2.3,0,4.1-0.1,5.6-0.2
		c1.4-0.2,2.6-0.4,3.4-0.6c0.9-0.3,1.5-0.6,2-0.9c0.5-0.3,0.9-0.7,1.3-1h3c0.1,0.8,0.1,1.7,0.2,2.7c0.1,1,0.2,2.2,0.2,3.6
		c1.1-1,2.4-1.9,3.7-2.8c1.3-0.8,2.7-1.6,4.2-2.2c1.5-0.6,3-1.1,4.5-1.5c1.5-0.4,3.1-0.5,4.6-0.5c6,0,10.5,1.9,13.3,5.7
		c2.8,3.8,4.2,9.7,4.2,17.7V189c0,1.4,0,2.6-0.1,3.7c0,1.1-0.2,2.2-0.4,3.4l6.6-0.3v4.3H319V197c1.6,0,2.8-0.3,3.6-0.9
		c0.8-0.6,1.4-1.5,1.8-2.6c0.4-1.1,0.6-2.5,0.6-4s0.1-3.3,0.1-5.1v-14.6c-0.1-6-1.1-10.5-3-13.6c-1.9-3-4.9-4.6-9.1-4.6
		c-1.3,0-2.5,0.2-3.8,0.6c-1.3,0.4-2.5,0.9-3.6,1.5c-1.2,0.6-2.2,1.3-3.3,2.1c-1,0.8-1.9,1.7-2.7,2.6c0,0.6,0.1,1.3,0.1,2
		c0,0.7,0,1.4,0,2.1l-0.1,26.7c0,1.4,0,2.6-0.1,3.7c0,1.1-0.2,2.2-0.4,3.4l6.6-0.3v4.3h-21.3V197c1.6,0,2.8-0.3,3.6-0.9
		c0.8-0.6,1.4-1.5,1.8-2.6c0.4-1.1,0.6-2.5,0.6-4c0.1-1.6,0.1-3.3,0.1-5.1L290.9,160.4z"/>
	<path fill="#0C1C2A" d="M426.8,195.1c0,0.9-0.2,1.8-0.5,2.6c-0.3,0.8-0.8,1.5-1.4,2.1c-0.6,0.6-1.2,1.1-1.9,1.4
		c-0.7,0.3-1.5,0.5-2.3,0.5c-0.8,0-1.6-0.2-2.3-0.5c-0.7-0.3-1.4-0.8-1.9-1.4c-0.6-0.6-1-1.3-1.3-2.1c-0.3-0.8-0.5-1.7-0.5-2.6
		c0-1,0.2-1.8,0.5-2.7c0.3-0.8,0.8-1.6,1.4-2.2s1.2-1.1,2-1.5c0.7-0.4,1.5-0.5,2.3-0.5c0.8,0,1.6,0.2,2.4,0.5
		c0.7,0.4,1.4,0.8,1.9,1.5c0.5,0.6,1,1.3,1.3,2.2C426.7,193.3,426.8,194.2,426.8,195.1z"/>
	<g>
		<path fill="#0C1C2A" d="M380.8,122.8v5.7l7.4-0.4c-0.2,1.4-0.3,2.6-0.3,3.6c0,1,0,2.1,0,3.2l-0.1,14.3c-0.7-0.4-1.5-0.7-2.4-1.1
			c-0.9-0.3-1.9-0.6-3-0.9c-1.1-0.3-2.2-0.5-3.3-0.7c-1.2-0.2-2.3-0.3-3.5-0.3c-3.9,0-7.5,0.7-10.7,2.2c-3.3,1.4-6.1,3.5-8.5,6.1
			c-2.4,2.6-4.2,5.7-5.6,9.3c-1.3,3.6-2,7.5-2,11.7c0,4,0.6,7.7,1.7,10.9c1.1,3.2,2.7,6,4.7,8.3c2,2.3,4.4,4,7.1,5.3
			c2.7,1.2,5.7,1.8,8.9,1.8c3.5,0,6.7-0.6,9.5-1.9c2.8-1.3,5.3-3,7.3-5.2c0.1,0.8,0.2,1.7,0.3,2.6c0.1,0.9,0.2,1.8,0.4,2.9h14.9
			v-4.4l-7.4,0.4c0.2-1.4,0.3-2.7,0.3-3.8c0.1-1.1,0.1-2.2,0.1-3.3v-67.1c-2.8,1.1-5.8,1.7-9,1.7C385.3,123.7,383,123.4,380.8,122.8
			z M387.8,189.8c-0.8,1-1.7,1.9-2.6,2.7c-1,0.8-2,1.6-3.1,2.2s-2.3,1.1-3.4,1.4c-1.2,0.3-2.4,0.5-3.5,0.5c-2.4,0-4.6-0.6-6.5-1.7
			c-1.9-1.1-3.5-2.6-4.8-4.6c-1.3-2-2.3-4.4-3.1-7.3c-0.8-2.9-1.1-5.8-1.1-8.6c0-4.1,0.3-7.5,1-10.2c0.7-2.7,1.8-5.1,3.2-7.3
			c1.5-2.1,3.3-3.8,5.4-4.9c2.1-1.2,4.5-1.7,7.1-1.7c2.1,0,4.1,0.3,6.1,0.8c2,0.6,3.8,1.5,5.5,2.8l-0.1,30.1c0,1.1,0,2.1,0,3.1
			S387.8,189,387.8,189.8z"/>
	</g>
</g>
<g>
	<path fill="#0C1C2A" d="M172.6,272.7c0.1,0,0.3,0.1,0.4,0.2l1,1.1c-0.8,0.9-1.7,1.6-2.8,2.1c-1.1,0.5-2.4,0.7-4,0.7
		c-1.4,0-2.6-0.2-3.7-0.7c-1.1-0.5-2-1.1-2.8-2c-0.8-0.8-1.4-1.9-1.8-3c-0.4-1.2-0.6-2.5-0.6-3.9c0-1.4,0.2-2.7,0.7-3.9
		c0.5-1.2,1.1-2.2,1.9-3c0.8-0.9,1.8-1.5,3-2c1.2-0.5,2.4-0.7,3.8-0.7c1.4,0,2.6,0.2,3.6,0.6s1.9,1,2.7,1.7l-0.8,1.2
		c-0.1,0.1-0.1,0.2-0.2,0.2c-0.1,0.1-0.2,0.1-0.3,0.1c-0.1,0-0.2,0-0.4-0.1c-0.1-0.1-0.3-0.2-0.5-0.3c-0.2-0.1-0.4-0.3-0.6-0.4
		c-0.2-0.1-0.5-0.3-0.8-0.4c-0.3-0.1-0.7-0.2-1.1-0.3c-0.4-0.1-0.9-0.1-1.5-0.1c-1,0-1.9,0.2-2.8,0.5c-0.8,0.3-1.6,0.8-2.2,1.5
		c-0.6,0.6-1.1,1.4-1.4,2.3c-0.3,0.9-0.5,2-0.5,3.1c0,1.2,0.2,2.2,0.5,3.1c0.3,0.9,0.8,1.7,1.4,2.3c0.6,0.6,1.3,1.1,2.1,1.5
		c0.8,0.3,1.7,0.5,2.6,0.5c0.6,0,1.1,0,1.5-0.1c0.4-0.1,0.9-0.2,1.2-0.3c0.4-0.1,0.7-0.3,1.1-0.5c0.3-0.2,0.7-0.5,1-0.8
		C172.4,272.7,172.5,272.7,172.6,272.7z"/>
	<path fill="#0C1C2A" d="M201.4,267.2c0,1.4-0.2,2.7-0.7,3.9c-0.4,1.2-1.1,2.2-1.9,3c-0.8,0.8-1.8,1.5-2.9,2
		c-1.1,0.5-2.4,0.7-3.8,0.7c-1.4,0-2.6-0.2-3.8-0.7c-1.1-0.5-2.1-1.1-2.9-2c-0.8-0.8-1.4-1.9-1.9-3c-0.4-1.2-0.7-2.5-0.7-3.9
		c0-1.4,0.2-2.7,0.7-3.9c0.4-1.2,1.1-2.2,1.9-3.1c0.8-0.9,1.8-1.5,2.9-2c1.1-0.5,2.4-0.7,3.8-0.7c1.4,0,2.6,0.2,3.8,0.7
		s2.1,1.1,2.9,2c0.8,0.9,1.4,1.9,1.9,3C201.2,264.5,201.4,265.8,201.4,267.2z M198.8,267.2c0-1.2-0.2-2.2-0.5-3.1
		c-0.3-0.9-0.8-1.7-1.3-2.3c-0.6-0.6-1.3-1.1-2.1-1.5c-0.8-0.3-1.7-0.5-2.8-0.5c-1,0-1.9,0.2-2.7,0.5c-0.8,0.3-1.5,0.8-2.1,1.5
		c-0.6,0.6-1,1.4-1.3,2.3c-0.3,0.9-0.5,2-0.5,3.1c0,1.2,0.2,2.2,0.5,3.1c0.3,0.9,0.8,1.7,1.3,2.3c0.6,0.6,1.3,1.1,2.1,1.5
		c0.8,0.3,1.7,0.5,2.7,0.5c1,0,1.9-0.2,2.8-0.5c0.8-0.3,1.5-0.8,2.1-1.5c0.6-0.6,1-1.4,1.3-2.3C198.7,269.4,198.8,268.3,198.8,267.2
		z"/>
	<path fill="#0C1C2A" d="M221.1,270.4c0.1,0.2,0.2,0.5,0.3,0.7c0.1-0.2,0.2-0.5,0.3-0.7s0.2-0.4,0.3-0.7l6.4-11.6
		c0.1-0.2,0.2-0.3,0.4-0.4c0.1,0,0.3-0.1,0.5-0.1h1.9l0,18.8h-2.2l0-13.8c0-0.2,0-0.4,0-0.6c0-0.2,0-0.4,0-0.6l-6.5,11.8
		c-0.2,0.4-0.5,0.6-0.9,0.6h-0.4c-0.4,0-0.7-0.2-0.9-0.6l-6.6-11.8c0,0.2,0,0.5,0.1,0.7c0,0.2,0,0.4,0,0.6l0,13.8h-2.2l0-18.8h1.9
		c0.2,0,0.4,0,0.5,0.1c0.1,0,0.2,0.2,0.4,0.4l6.5,11.6C220.9,270,221,270.2,221.1,270.4z"/>
	<path fill="#0C1C2A" d="M251.9,270.4c0.1,0.2,0.2,0.5,0.3,0.7c0.1-0.2,0.2-0.5,0.3-0.7c0.1-0.2,0.2-0.4,0.3-0.7l6.4-11.6
		c0.1-0.2,0.2-0.3,0.4-0.4c0.1,0,0.3-0.1,0.5-0.1h1.9l0,18.8h-2.2l0-13.8c0-0.2,0-0.4,0-0.6c0-0.2,0-0.4,0-0.6l-6.5,11.8
		c-0.2,0.4-0.5,0.6-0.9,0.6h-0.4c-0.4,0-0.7-0.2-0.9-0.6l-6.6-11.8c0,0.2,0,0.5,0.1,0.7c0,0.2,0,0.4,0,0.6l0,13.8h-2.2l0-18.8h1.9
		c0.2,0,0.4,0,0.5,0.1c0.1,0,0.2,0.2,0.4,0.4l6.5,11.6C251.7,270,251.8,270.2,251.9,270.4z"/>
	<path fill="#0C1C2A" d="M280.3,274.5c0.8,0,1.5-0.1,2.1-0.4c0.6-0.3,1.1-0.6,1.6-1.1c0.4-0.5,0.8-1,1-1.7c0.2-0.7,0.3-1.4,0.3-2.2
		l0-11.4h2.5l0,11.4c0,1.1-0.2,2.1-0.5,3c-0.3,0.9-0.8,1.7-1.5,2.4c-0.6,0.7-1.4,1.2-2.4,1.6c-0.9,0.4-2,0.6-3.1,0.6
		c-1.2,0-2.2-0.2-3.1-0.6c-0.9-0.4-1.7-0.9-2.4-1.6c-0.6-0.7-1.1-1.5-1.5-2.4c-0.3-0.9-0.5-1.9-0.5-3l0-11.4h2.5l0,11.4
		c0,0.8,0.1,1.5,0.3,2.2c0.2,0.7,0.5,1.2,1,1.7c0.4,0.5,0.9,0.8,1.6,1.1C278.9,274.4,279.6,274.5,280.3,274.5z"/>
	<path fill="#0C1C2A" d="M300.6,257.8c0.1,0.1,0.2,0.2,0.4,0.3l10.9,14.2c0-0.2,0-0.4-0.1-0.7c0-0.2,0-0.4,0-0.6l0-13.3h2.2l0,18.8
		h-1.3c-0.2,0-0.4,0-0.5-0.1c-0.1-0.1-0.3-0.2-0.4-0.4L301,261.9c0,0.2,0,0.4,0,0.6c0,0.2,0,0.4,0,0.6l0,13.4h-2.2l0-18.8h1.3
		C300.3,257.7,300.5,257.8,300.6,257.8z"/>
	<path fill="#0C1C2A" d="M328.3,276.6h-2.6l0-18.8h2.6L328.3,276.6z"/>
	<path fill="#0C1C2A" d="M352.7,257.7l0,2.1h-6.1l0,16.7h-2.6l0-16.7H338l0-2.1H352.7z"/>
	<path fill="#0C1C2A" d="M369.2,269.1l0,7.5h-2.5l0-7.5l-6.9-11.3h2.2c0.2,0,0.4,0.1,0.5,0.2c0.1,0.1,0.2,0.3,0.3,0.4l4.3,7.3
		c0.2,0.3,0.3,0.6,0.4,0.9s0.2,0.5,0.3,0.8c0.1-0.3,0.2-0.5,0.3-0.8c0.1-0.3,0.3-0.6,0.4-0.9l4.3-7.3c0.1-0.1,0.2-0.3,0.3-0.4
		c0.1-0.1,0.3-0.2,0.5-0.2h2.3L369.2,269.1z"/>
	<path fill="#0C1C2A" d="M411,272.7c0.1,0,0.3,0.1,0.4,0.2l1,1.1c-0.8,0.9-1.7,1.6-2.8,2.1c-1.1,0.5-2.4,0.7-4,0.7
		c-1.4,0-2.6-0.2-3.7-0.7c-1.1-0.5-2-1.1-2.8-2c-0.8-0.8-1.4-1.9-1.8-3c-0.4-1.2-0.6-2.5-0.6-3.9c0-1.4,0.2-2.7,0.7-3.9
		c0.5-1.2,1.1-2.2,1.9-3c0.8-0.9,1.8-1.5,3-2c1.2-0.5,2.4-0.7,3.8-0.7c1.4,0,2.6,0.2,3.6,0.6c1,0.4,1.9,1,2.7,1.7l-0.8,1.2
		c-0.1,0.1-0.1,0.2-0.2,0.2c-0.1,0.1-0.2,0.1-0.3,0.1c-0.1,0-0.2,0-0.4-0.1c-0.1-0.1-0.3-0.2-0.5-0.3c-0.2-0.1-0.4-0.3-0.6-0.4
		c-0.2-0.1-0.5-0.3-0.8-0.4c-0.3-0.1-0.7-0.2-1.1-0.3c-0.4-0.1-0.9-0.1-1.5-0.1c-1,0-1.9,0.2-2.8,0.5c-0.8,0.3-1.6,0.8-2.2,1.5
		c-0.6,0.6-1.1,1.4-1.4,2.3c-0.3,0.9-0.5,2-0.5,3.1c0,1.2,0.2,2.2,0.5,3.1c0.3,0.9,0.8,1.7,1.4,2.3c0.6,0.6,1.3,1.1,2.1,1.5
		c0.8,0.3,1.7,0.5,2.6,0.5c0.6,0,1.1,0,1.5-0.1c0.4-0.1,0.9-0.2,1.2-0.3s0.7-0.3,1.1-0.5c0.3-0.2,0.7-0.5,1-0.8
		C410.7,272.7,410.9,272.7,411,272.7z"/>
	<path fill="#0C1C2A" d="M437.8,276.6h-2c-0.2,0-0.4-0.1-0.6-0.2c-0.1-0.1-0.2-0.3-0.3-0.4l-1.8-4.5h-8.5L423,276
		c-0.1,0.2-0.2,0.3-0.3,0.4c-0.1,0.1-0.3,0.2-0.6,0.2h-2l7.5-18.8h2.6L437.8,276.6z M425.5,269.6h7l-3-7.7c-0.2-0.5-0.4-1.1-0.6-1.8
		c-0.1,0.4-0.2,0.7-0.3,1c-0.1,0.3-0.2,0.6-0.3,0.8L425.5,269.6z"/>
	<path fill="#0C1C2A" d="M458.4,257.7l0,2.1h-9v6.6h7.7v2.1h-7.7l0,8.1h-2.6l0-18.8H458.4z"/>
	<path fill="#0C1C2A" d="M479.8,257.7l0,2.1h-9v6.3h7.3v2h-7.3l0,6.4h9v2.1h-11.6l0-18.8H479.8z"/>
</g>
<g>
	<rect x="53.6" y="266.5" fill="#0C1C2A" width="83.5" height="2.1"/>
</g>
</svg>
