<?xml version="1.0" encoding="utf-8"?>
<!-- Generator: Adobe Illustrator 22.1.0, SVG Export Plug-In . SVG Version: 6.00 Build 0)  -->
<svg version="1.1" id="Layer_1" xmlns="http://www.w3.org/2000/svg" xmlns:xlink="http://www.w3.org/1999/xlink" x="0px" y="0px"
	 viewBox="0 0 578.6 571.1" style="enable-background:new 0 0 578.6 571.1;" xml:space="preserve">
<style type="text/css">
	.st0{fill:none;stroke:#C9925C;stroke-width:2.8346;stroke-miterlimit:10;}
	.st1{fill:none;stroke:#C9925C;stroke-width:2.8346;stroke-linecap:round;stroke-linejoin:round;stroke-miterlimit:10;}
	.st2{fill:none;stroke:#C9925C;stroke-width:2.8346;stroke-linejoin:round;stroke-miterlimit:10;}
</style>
<path class="st0" d="M335.1,497.5c9.2-5.6,23.8-9.6,23.8-9.6s-14.6-4-23.8-9.6c-11.2-6.7-40.9-39.2-90.4-39.2
	c-53.3,0-77.5,14.5-92.6,25.6s-17.9,19-29.7,20s-6.8,3.3-6.8,3.3s-5,2.2,6.8,3.3c11.8,1,14.6,8.9,29.7,20
	c15.1,11.1,39.3,25.6,92.6,25.6C294.2,536.7,324,504.2,335.1,497.5z"/>
<g>
	<path class="st0" d="M114.5,487.8h-13H114.5z"/>
</g>
<path class="st0" d="M358.9,487.8H115.6H358.9z"/>
<path class="st0" d="M145.9,487.8l53.6-44.5L145.9,487.8z"/>
<path class="st0" d="M145.9,487.8l53.6,44.5L145.9,487.8z"/>
<path class="st0" d="M180,487.8l58.8-48.8L180,487.8z"/>
<path class="st0" d="M180,487.8l58.9,48.9L180,487.8z"/>
<path class="st0" d="M214.6,488.2l55.7-46.2L214.6,488.2z"/>
<path class="st0" d="M269.6,533.9l-55-45.6L269.6,533.9z"/>
<path class="st0" d="M251.3,488.2l44.4-36.9L251.3,488.2z"/>
<path class="st0" d="M295.2,524.6l-43.8-36.4L295.2,524.6z"/>
<path class="st0" d="M290,488.2l27.8-23.1L290,488.2z"/>
<path class="st0" d="M317.3,510.9L290,488.2L317.3,510.9z"/>
<path class="st0" d="M69.6,233.1c5.6-9.2,9.6-23.8,9.6-23.8s4,14.6,9.6,23.8c6.7,11.2,39.2,40.9,39.2,90.4
	c0,53.3-14.5,77.5-25.6,92.6s-19,17.9-20,29.7c-1,11.8-3.3,6.8-3.3,6.8s-2.2,5-3.3-6.8s-8.9-14.6-20-29.7s-25.6-39.3-25.6-92.6
	C30.4,274,62.8,244.3,69.6,233.1z"/>
<path class="st0" d="M79.2,211.4v254.1V211.4z"/>
<path class="st0" d="M79.2,422.3l44.5-53.6L79.2,422.3z"/>
<path class="st0" d="M79.2,422.3l-44.5-53.6L79.2,422.3z"/>
<path class="st0" d="M79.2,388.2l48.8-58.8L79.2,388.2z"/>
<path class="st0" d="M79.2,388.2l-49.5-59.3L79.2,388.2z"/>
<path class="st0" d="M78.8,353.6l46.2-55.7L78.8,353.6z"/>
<path class="st0" d="M33.2,298.6l45.6,55L33.2,298.6z"/>
<path class="st0" d="M78.8,316.9l36.9-44.4L78.8,316.9z"/>
<path class="st0" d="M42.4,273.1l36.4,43.8L42.4,273.1z"/>
<path class="st0" d="M78.8,278.2l23.1-27.8L78.8,278.2z"/>
<path class="st0" d="M56.1,250.9l22.7,27.3L56.1,250.9z"/>
<path class="st0" d="M397.2,30.8c3.1-5.1,5.3-13.1,5.3-13.1s2.2,8.1,5.3,13.1c3.7,6.2,21.7,22.6,21.7,49.9c0,29.4-8,42.8-14.1,51.1
	s-10.5,9.9-11.1,16.4s-1.8,3.8-1.8,3.8s-1.2,2.7-1.8-3.8c-0.6-6.5-4.9-8.1-11.1-16.4c-6.1-8.3-14.1-21.7-14.1-51.1
	C375.6,53.4,393.5,37,397.2,30.8z"/>
<path class="st0" d="M402.5,21.2V149V21.2z"/>
<path class="st0" d="M402.5,125.5l26.4-31.8L402.5,125.5z"/>
<path class="st0" d="M402.6,125.5l-26.4-31.8L402.6,125.5z"/>
<path class="st0" d="M427.8,68.1l-25.5,30.8L427.8,68.1z"/>
<path class="st0" d="M402.6,98.6l-25.2-30.3L402.6,98.6z"/>
<path class="st0" d="M420.6,48.8L402.2,71L420.6,48.8z"/>
<path class="st0" d="M402.2,71l-18-21.8L402.2,71z"/>
<path class="st0" d="M536.6,170.2c5.1-3.1,13.1-5.3,13.1-5.3s-8.1-2.2-13.1-5.3c-6.2-3.7-22.6-21.7-49.9-21.7
	c-29.4,0-42.8,8-51.1,14.1s-9.9,10.5-16.4,11.1s-3.8,1.8-3.8,1.8s-2.9,0.2,3.6,0.8c2.4,0.2,4.3,2,6,3.1c2.8,2,5.3,5.1,10.5,8.9
	c8.3,6.1,21.7,14.1,51.1,14.1C514,191.9,530.4,173.9,536.6,170.2z"/>
<path class="st0" d="M546.2,164.9H417.4H546.2z"/>
<path class="st0" d="M441.9,164.9l31.8-26.4L441.9,164.9z"/>
<path class="st0" d="M441.9,164.8l31.8,26.4L441.9,164.8z"/>
<path class="st0" d="M468.6,165.1l30.8-25.5L468.6,165.1z"/>
<path class="st0" d="M499.1,190l-30.3-25.2L499.1,190z"/>
<path class="st0" d="M496.4,165.2l22.2-18.4L496.4,165.2z"/>
<path class="st0" d="M518.2,183.3l-21.8-18L518.2,183.3z"/>
<path class="st0" d="M500.4,74c1.3-5.4,5.2-12.3,5.2-12.3s-6.8,3.9-12.3,5.2c-6.6,1.6-29.4,0.6-47.6,18.8
	c-19.6,19.6-23.1,33.8-24.6,43.4c-0.7,4.8-0.6,8.7-0.8,11.5l8.3-2.5l-2.1,9c2.9-0.3,6.4-0.1,11.6-0.9c9.6-1.5,23.8-5,43.4-24.6
	C499.8,103.4,498.8,80.6,500.4,74z"/>
<path class="st0" d="M503.3,64.1l-75.1,75.1L503.3,64.1z"/>
<path class="st0" d="M433.9,133.4l3.6-38.7L433.9,133.4z"/>
<path class="st0" d="M433.9,133.4l38.7-3.6L433.9,133.4z"/>
<path class="st0" d="M451.8,115.8l3.5-37.4L451.8,115.8z"/>
<path class="st0" d="M488.7,112.1l-36.9,3.4L488.7,112.1z"/>
<path class="st0" d="M470.4,97.4l2.5-27L470.4,97.4z"/>
<path class="st0" d="M496.8,94.9l-26.5,2.5L496.8,94.9z"/>
<path class="st0" d="M259.6,78.4c5-8.1,8.5-21,8.5-21s3.5,12.9,8.5,21c5.9,9.9,34.7,36.2,34.7,79.9c0,47.1-12.8,68.5-22.6,81.8
	c-6,8.2-11.2,12.5-14.3,16.8c0,0-1.6-0.2-6.3-0.2c-3.6,0-6,0.8-6,0.8c-3.1-4.4-8.5-9.2-14.6-17.5c-9.8-13.3-22.6-34.7-22.6-81.8
	C224.9,114.6,253.6,88.3,259.6,78.4z"/>
<path class="st0" d="M268.1,57.4v199.4V57.4z"/>
<path class="st0" d="M268.1,245.6l39.3-47.4L268.1,245.6z"/>
<path class="st0" d="M268.1,245.6l-39.3-47.4L268.1,245.6z"/>
<path class="st0" d="M268.1,215.5l43.1-51.9L268.1,215.5z"/>
<path class="st0" d="M268.1,215.5L225.3,164L268.1,215.5z"/>
<path class="st0" d="M308.6,135.7l-40.9,49.2L308.6,135.7z"/>
<path class="st0" d="M267.7,184.9l-40.3-48.6L267.7,184.9z"/>
<path class="st0" d="M300.3,113.2l-32.6,39.2L300.3,113.2z"/>
<path class="st0" d="M267.7,152.5l-32.1-38.7L267.7,152.5z"/>
<path class="st0" d="M288.2,93.7l-20.4,24.6L288.2,93.7z"/>
<path class="st0" d="M267.7,118.3l-20-24.1L267.7,118.3z"/>
<path class="st0" d="M488.5,307.4c8.1-5,21-8.5,21-8.5s-12.9-3.5-21-8.5c-9.9-5.9-36.2-34.7-79.9-34.7c-47.1,0-68.5,12.8-81.8,22.6
	c-8.3,6.1-12.4,11.2-16.9,14.3c0,0,0.2,4.8,0.1,6.6c-0.1,1.9-1.1,5.3-1.1,5.3c4.8,3.1,8.9,8.4,17.8,14.9
	c13.3,9.8,34.7,22.6,81.8,22.6C452.4,342,478.7,313.3,488.5,307.4z"/>
<path class="st0" d="M506.8,298.9H310H506.8z"/>
<path class="st0" d="M321.4,298.9l47.4-39.3L321.4,298.9z"/>
<path class="st0" d="M321.4,298.9l47.4,39.3L321.4,298.9z"/>
<path class="st0" d="M351.5,298.9l51.9-43.1L351.5,298.9z"/>
<path class="st0" d="M351.5,298.9l52.1,43.2L351.5,298.9z"/>
<path class="st0" d="M382.1,299.2l49.2-40.9L382.1,299.2z"/>
<path class="st0" d="M430.6,339.5L382,299.2L430.6,339.5z"/>
<path class="st0" d="M414.5,299.2l39.2-32.6L414.5,299.2z"/>
<path class="st0" d="M453.2,331.4l-38.7-32.1L453.2,331.4z"/>
<path class="st0" d="M448.7,299.2l24.6-20.4L448.7,299.2z"/>
<path class="st0" d="M472.8,319.3l-24.1-20L472.8,319.3z"/>
<path class="st0" d="M372.8,201l17-17.4c0,0,1.6-4.1,2.3-6.2c0.7-2,4.9-7.7,4.9-7.7s-2.7,3-6.6,4.5c-4,1.5-7.2,2.8-7.2,2.8l-17.4,17
	c0,0-0.3,1.9-0.9,4.6s-2.4,6.2-2.4,6.2s3.8-2.2,5.8-3S372.8,201,372.8,201z"/>
<line class="st0" x1="324.8" y1="250.1" x2="348" y2="226.3"/>
<path class="st0" d="M167,388.5l-79,77.3H75.4v12.6l-48.8,48.8l1.5,24.6l60.4-60.3H101v-12.6l76.5-78.1c0,0-4.1-0.1-6.7-3.9
	C168.2,393.1,167,388.5,167,388.5z"/>
<line class="st0" x1="340.3" y1="219" x2="316.7" y2="242.1"/>
<path class="st0" d="M246.8,374.5c3,0,5.5-2.8,5.5-6.3s-2.5-6.3-5.5-6.3s-5.5,2.8-5.5,6.3S243.8,374.5,246.8,374.5z"/>
<path class="st0" d="M208.2,414.1c0,3-2.8,5.5-6.3,5.5s-6.3-2.5-6.3-5.5s2.8-5.5,6.3-5.5S208.2,411,208.2,414.1z"/>
<ellipse transform="matrix(0.7071 -0.7071 0.7071 0.7071 -207.9541 273.9412)" class="st0" cx="226.7" cy="388" rx="16.8" ry="23"/>
<path class="st0" d="M243.6,395.9c2.1,2.1,1.9,5.9-0.6,8.4s-6.2,2.8-8.4,0.6c-2.1-2.1-1.9-5.9,0.6-8.4
	C237.7,394.1,241.5,393.8,243.6,395.9z"/>
<path class="st0" d="M152,357.9c-3,0-5.5,2.8-5.5,6.3s2.5,6.3,5.5,6.3s5.5-2.8,5.5-6.3C157.5,360.7,155,357.9,152,357.9z"/>
<path class="st0" d="M191.6,319.3c0-3,2.8-5.5,6.3-5.5s6.3,2.5,6.3,5.5s-2.8,5.5-6.3,5.5C194.4,324.7,191.6,322.3,191.6,319.3z"/>
<ellipse class="st0" cx="295.1" cy="297" rx="14.9" ry="20.5"/>
<ellipse class="st0" cx="295.1" cy="312.6" rx="5.6" ry="4.9"/>
<path class="st0" d="M254.2,266.1c-2.7,0-4.9,2.5-4.9,5.6s2.2,5.6,4.9,5.6s4.9-2.5,4.9-5.6S256.9,266.1,254.2,266.1z"/>
<ellipse transform="matrix(0.7071 -0.7071 0.7071 0.7071 -188.1079 225.9417)" class="st0" cx="178.7" cy="340" rx="16.8" ry="23"/>
<path class="st0" d="M170.8,323.1c2.1,2.1,1.9,5.9-0.6,8.4s-6.2,2.8-8.4,0.6c-2.1-2.1-1.9-5.9,0.6-8.4
	C164.9,321.3,168.7,321,170.8,323.1z"/>
<ellipse transform="matrix(0.7071 -0.7071 0.7071 0.7071 -214.3604 243.7343)" class="st0" cx="187" cy="380.6" rx="23" ry="16.8"/>
<path class="st0" d="M170.8,387.9c2.1-2.1,5.9-1.9,8.4,0.6s2.8,6.2,0.6,8.4c-2.1,2.1-5.9,1.9-8.4-0.6
	C168.9,393.8,168.6,390,170.8,387.9z"/>
<path class="st0" d="M231.9,359.5c9-9,11-21.6,4.4-28.2s-19.2-4.6-28.2,4.4s-11,21.6-4.4,28.2S222.9,368.5,231.9,359.5z"/>
<ellipse transform="matrix(0.7071 -0.7071 0.7071 0.7071 -169.562 262.267)" class="st0" cx="231.8" cy="335.8" rx="5.5" ry="6.3"/>
<ellipse transform="matrix(0.7071 -0.7071 0.7071 0.7071 -93.3486 293.4124)" class="st0" cx="307.5" cy="259.4" rx="20.3" ry="14.8"/>
<ellipse transform="matrix(0.7071 -0.7071 0.7071 0.7071 -82.9502 297.7426)" class="st0" cx="317.9" cy="249" rx="4.8" ry="5.6"/>
<path class="st0" d="M419.9,158c-7.5,7.5-19.1,8.1-19.1,8.1s0.6-11.6,8.1-19.1c6.5-6.5,16.7-7.3,19.9-8.9
	C427.3,141.5,426.5,151.4,419.9,158z"/>
<path class="st0" d="M399,145.4c4.8,9.5,1.8,20.7,1.8,20.7s-10.9-4.1-15.7-13.6c-4.2-8.2-1.8-18.1-2.3-21.6
	C385.6,133.3,394.7,137,399,145.4z"/>
<path class="st0" d="M380.5,161.3c10.5-1.7,20.2,4.7,20.2,4.7s-7.3,9.1-17.8,10.7c-9,1.4-17.8-3.9-21.3-4.5
	C364.9,170.4,371.3,162.8,380.5,161.3z"/>
<path class="st0" d="M390,183.8c1.7-10.5,10.7-17.8,10.7-17.8s6.4,9.7,4.7,20.2c-1.4,9-9.2,15.7-10.9,18.9
	C393.8,201.5,388.6,193,390,183.8z"/>
<path class="st0" d="M414.4,181.7c-9.5-4.8-13.6-15.7-13.6-15.7s11.2-3,20.7,1.8c8.2,4.2,12.1,13.6,14.6,16.2
	C432.3,183.6,422.7,186,414.4,181.7z"/>
<path class="st1" d="M410,156.6l-8,8L410,156.6z"/>
<path class="st1" d="M394.7,154.3l5.3,10.4L394.7,154.3z"/>
<path class="st1" d="M387.7,168.2l11.4-1.8L387.7,168.2z"/>
<path class="st1" d="M398.8,179.1l1.9-11.9L398.8,179.1z"/>
<path class="st1" d="M412.6,172l-10.1-5.2L412.6,172z"/>
<path class="st0" d="M342.8,215.5c5.7-5.7,14.6-6.2,14.6-6.2s-0.4,8.9-6.2,14.6c-5,5-12.8,5.6-15.2,6.8
	C337.2,228.2,337.8,220.6,342.8,215.5z"/>
<path class="st0" d="M358.8,225.2c-3.7-7.2-1.4-15.8-1.4-15.8s8.3,3.2,12,10.4c3.2,6.2,1.4,13.9,1.7,16.6
	C369.1,234.4,362.1,231.6,358.8,225.2z"/>
<path class="st0" d="M372.9,213c-8,1.3-15.5-3.6-15.5-3.6s5.6-6.9,13.6-8.2c6.9-1.1,13.6,3,16.3,3.5
	C384.9,206.1,380,211.8,372.9,213z"/>
<path class="st0" d="M365.6,195.8c-1.3,8-8.2,13.6-8.2,13.6s-4.9-7.4-3.6-15.5c1.1-6.9,7-12,8.3-14.4
	C362.8,182.2,366.8,188.7,365.6,195.8z"/>
<path class="st0" d="M347,197.4c7.2,3.7,10.4,12,10.4,12s-8.6,2.3-15.8-1.4c-6.2-3.2-9.3-10.4-11.1-12.4
	C333.3,195.9,340.7,194.1,347,197.4z"/>
<path class="st2" d="M350.4,216.6l4.4-4.4L350.4,216.6z"/>
<path class="st2" d="M362.1,218.3l-2.8-5.5L362.1,218.3z"/>
<path class="st2" d="M367.4,207.7l-6.1,1L367.4,207.7z"/>
<path class="st2" d="M358.9,199.4l-1,6.1L358.9,199.4z"/>
<path class="st2" d="M348.4,204.8l5.5,2.8L348.4,204.8z"/>
<ellipse class="st0" cx="269.8" cy="271.7" rx="20.5" ry="14.9"/>
<path class="st0" d="M208.1,335.7c1.6-1.6,3.2-2.9,5-4c-1.6-10.5-8.3-18.4-16.5-18.4c-5.5,0-10.4,3.7-13.5,9.3
	c2.6,1.4,5.2,3.2,7.5,5.5c5.9,5.9,8.7,13.2,8.2,19.5c-0.3,3.4,0.8,3.9,2,0C202,343.5,204.5,339.3,208.1,335.7z"/>
<path class="st0" d="M236.8,353.1c-1.3,2.2-2.9,4.4-4.9,6.4c-4.2,4.2-9.2,6.8-14,7.8c-4.1,0.8-2.9,1.1,0,0.7
	c6.5-1,14.4,1.9,20.6,8.1c1.9,1.9,3.5,4,4.8,6.2c5.4-3.1,8.9-7.9,8.9-13.3C252.3,361.6,245.8,355.4,236.8,353.1z"/>
<path class="st0" d="M214.8,399.9c-7.8-7.8-10.3-18.2-6.6-25.1c-0.3-0.2-0.7-0.3-1-0.4c0,5.9-2.8,12.7-8.3,18.1
	c-3.9,3.9-8.4,6.4-12.8,7.6c1.2,11.1,8.2,19.5,16.6,19.5c7.6,0,14-6.9,16.1-16.3C217.4,402.3,216.1,401.1,214.8,399.9z"/>
<path class="st0" d="M175.2,368.7c5-5,11.1-7.8,16.7-8.2c-0.1-0.6-0.3-1.1-0.4-1.7c-6.9,3.3-17,0.7-24.6-6.9c-1.6-1.6-3-3.4-4.2-5.2
	c-9.6,2-16.6,8.5-16.6,16.1c0,9,9.8,16.4,22.1,16.8C169.5,375.8,171.8,372,175.2,368.7z"/>
<path class="st0" d="M229.4,327.4c0,0,4.1,0.8,6.9,3.9s3.3,5.9,3.3,5.9l40.6-41.5c0,0,0.6-4.6,1.2-6.9c0.6-2.2,3.2-6.9,3.2-6.9
	s-4.3,2.9-6.8,3.4c-2.5,0.5-7,1.5-7,1.5L229.4,327.4z"/>
</svg>
