<?xml version="1.0" encoding="utf-8"?>
<!-- Generator: Adobe Illustrator 24.1.2, SVG Export Plug-In . SVG Version: 6.00 Build 0)  -->
<svg version="1.1" id="Layer_1" xmlns="http://www.w3.org/2000/svg" xmlns:xlink="http://www.w3.org/1999/xlink" x="0px" y="0px"
	 viewBox="0 0 1190.55 841.89" style="enable-background:new 0 0 1190.55 841.89;" xml:space="preserve">
<style type="text/css">
	.st0{fill:#FFFFFF;}
</style>
<g>
	<path class="st0" d="M1049.77,634.98c0.51-0.51,0.51-1.01,0.51-1.52v-0.51c-1.52-4.55-4.05-7.59-8.09-8.09
		c-2.53-0.51-5.06-1.01-7.59-1.01c-3.54,0-6.58,1.01-10.12,2.53c-7.59,4.55-15.68,11.13-22.26,17.71l-24.28,34.91l-3.04,2.53h-1.52
		c0-0.51-0.51-0.51-0.51-1.01c0.51-1.01,0.51-2.53,0.51-4.05c3.04-10.62,11.64-34.4,13.66-43.51c0-1.52,0.51-3.04,0.51-6.07
		c0-1.01-0.51-2.53-1.52-3.04c-1.01-0.51-2.02-3.04-2.53-5.06c-1.01-1.01-2.53-1.52-3.54-1.52h-1.01c0-1.01-0.51-2.53-1.52-3.54
		l-6.58-2.02h-1.01c-0.51,0,0,0.51-1.01,1.01c-2.02,1.01-3.04,2.53-4.55,4.05c-1.01,13.66-4.55,25.29-8.6,37.94
		c-1.52,4.55-2.53,8.6-3.54,13.66c-1.52,2.53-2.02,6.07-2.02,8.6c-0.21,1.14-0.45,2.29-0.7,3.45c-1.77,3.15-3.65,6.34-5.37,9.2
		c-5.06,7.59-10.62,14.16-16.69,21.75c-4.55,5.06-13.66,11.64-17.71,15.68c-7.08,7.59-14.67,13.66-22.77,19.22
		c-8.09,5.56-17.71,8.6-26.81,10.62h-4.05c-3.54,0-5.56-1.52-6.07-4.55c-1.01-3.54-2.02-7.08-2.02-10.62v-2.02l5.06-38.95
		c1.01-2.53,2.53-4.05,5.06-4.55l5.56-1.52c9.61-2.53,18.72-7.59,27.32-14.16c7.59-5.56,12.14-13.15,16.19-21.25
		c2.53-5.06,4.05-9.61,4.55-15.18v-1.52c0-7.08-3.54-12.14-9.61-15.68c-5.56-3.04-11.13-4.05-16.69-4.05c-2.02,0-4.55,0-7.08,0.51
		c-3.54,0.51-6.58,2.02-9.11,4.05c-5.56,3.54-10.12,7.59-14.17,12.65c-6.07,6.58-11.13,13.66-15.68,21.25
		c-3.54,6.07-6.07,12.65-9.11,18.72c-1.01,1.52-2.02,3.04-3.54,4.05l-1.52,2.02c0,0.51,0.51,0.51,0.51,1.01
		c0,0.51,0.51,1.52,0.51,2.02s-0.51,1.01-0.51,1.52v3.04c-1.52,5.56-3.04,11.13-4.05,17.2V723c-0.51,3.04-0.51,5.56-0.51,8.6
		c0,3.04,0,6.07,0.51,8.6c0.51,4.05,1.52,7.59,3.54,11.13c4.05,7.59,11.13,12.65,18.21,17.71c5.56,4.05,11.64,5.56,18.21,5.56
		c4.55,0,8.6-1.01,13.15-2.02c12.65-3.54,23.78-11.13,32.88-20.24c7.08-7.59,17.2-18.72,24.28-28.33h-0.51c-0.51,0-1.01,0-1.01-0.51
		c0-1.6,6.58-7.12,12.82-15.23c-1.51,8.48-3.55,17.07-5.24,26.36c-1.52,6.07-2.02,12.65-2.53,18.21c-0.51,2.02-1.01,3.54-1.01,4.55
		c0,1.52,0.51,2.02,2.53,2.53c2.02,0,2.02,1.01,2.02,2.02v1.52c0.51-1.01,1.52-1.52,2.02-3.04h1.01v1.01c0,1.01-0.51,2.02-0.51,3.04
		V766c0,2.02,1.01,2.53,3.54,3.04c1.01,0,1.52,0,2.02,1.01c0.51,1.01,0.51,2.02,0.51,2.53c0.51,1.01,1.52,1.52,2.53,1.52
		c0.51,0,1.52-0.51,2.02-1.01c2.02-2.02,3.04-3.54,3.54-5.56c1.52-5.56,4.05-11.64,5.56-18.21c1.01-6.07,2.53-11.64,5.56-16.69
		l12.14-23.27c10.62-17.2,21.75-32.88,33.39-48.06c5.56-6.58,11.64-12.65,17.71-17.2c5.06-4.55,10.62-6.58,16.19-8.09
		C1047.74,635.99,1048.76,635.48,1049.77,634.98z M863.6,675.96c0-0.51,0-1.01,0.51-1.52c4.55-9.11,9.11-17.71,15.68-25.8
		c3.04-2.53,5.56-5.56,9.11-7.59l2.02-1.52h1.01c1.01,0,2.02,0.51,2.02,1.52v0.51c-0.51,4.05-2.02,7.59-4.05,11.13
		c-4.05,8.6-10.62,15.18-18.21,21.25c-2.02,1.52-4.05,2.02-6.58,3.54c-1.01,0-1.52-0.51-1.52-1.01V675.96z"/>
	<path class="st0" d="M469.53,600.58c0.51-0.51,0.51-2.53,1.52-3.04c-1.52-1.52-3.04-4.05-5.06-5.06c-1.01-1.01-4.05-2.02-5.56-2.53
		c-0.51-0.51-1.01-0.51-2.02-0.51s-2.53,0-3.04,1.01c-4.55,3.54-6.07,8.09-6.58,13.66c0,1.01,0,2.02,1.52,2.53
		c1.52,1.52,3.54,1.01,3.54,3.04c0.51,2.53,3.04,3.04,4.05,4.05v1.52c1.01,0,1.01,1.52,1.52,1.52c0.51,0,1.01-0.51,2.53-0.51
		c0.51-2.02,1.01-3.54,2.02-5.06c-0.51-1.01-0.51-1.52-0.51-2.53c0-1.52,0.51-2.53,1.52-3.54C465.99,602.6,467,601.59,469.53,600.58
		z"/>
	<path class="st0" d="M828.2,550.49l3.54-8.6l8.6-26.81l4.55-12.65c0-1.01,0.51-1.52,0.51-2.53c0-1.01-0.51-2.02-2.03-3.04
		c-0.51,0-0.51-1.01-0.51-2.02c-0.5-1.01-1.01-1.52-2.02-1.52c-1.01,0-2.03,0-3.04-1.01l-3.54-3.04c-1.01-0.51-1.52-1.01-2.02-1.01
		c-0.51,0-1.01,0.51-1.52,0.51l-2.53,1.52l-4.55,7.59c-5.56,9.11-9.61,21.25-13.66,31.87c-4.05,10.12-9.11,20.74-14.16,29.34
		l-18.21,27.82l-13.15,22.26c-5.06,7.08-9.61,15.68-14.67,23.78c-2.53,5.06-6.58,10.62-10.12,15.68c-0.51,0.51-1.01,1.01-1.52,1.01
		s-1.01-0.51-1.52-1.52c-3.54-5.06-9.1-7.59-15.68-9.61c-2.53-0.51-5.06-1.01-7.59-1.01c-8.09,0-15.68,3.54-21.25,9.61
		c-4.55,5.56-8.6,11.13-12.65,17.2c-0.87,1.97-1.75,3.88-2.61,5.78c-0.14,0.09-0.27,0.2-0.42,0.29
		c-4.55,5.06-7.59,11.64-12.65,16.19c-9.11,15.68-19.73,30.86-30.86,46.04c-5.56,10.12-13.66,19.22-20.74,28.84
		c-2.53,2.02-4.55,6.07-8.6,6.07c-1.01,0-2.02,0-4.05,1.01c-0.51,0-1.01,0.51-1.01,0.51c-0.51,0-0.51-0.51-0.51-0.51v-2.02
		c0.51-6.07,0.51-11.64,2.02-16.69c1.52-8.6,3.04-16.19,5.06-23.78c1.01-6.07,3.54-13.66,5.06-19.73
		c1.52-7.08,3.54-13.15,5.56-20.74c3.04-9.61,5.06-19.73,6.58-30.35c0-4.05,0.51-7.59,1.01-11.13c0-4.05-1.52-7.08-3.54-9.11
		c-3.04-3.04-6.58-4.05-10.12-4.05h-2.02c-0.51-0.51-1.52-0.51-2.53-0.51c-1.52,0-3.04,0.51-4.55,1.52
		c-1.52,1.01-3.54,2.02-5.06,3.54l-13.66,13.15c-8.09,7.08-14.67,15.68-21.25,24.28c-5.56,7.08-10.12,14.16-15.18,22.26
		c-4.55,6.58-9.11,14.16-13.66,20.24c-0.51,1.01-1.52,1.52-2.02,3.04c-1.01,0.51-1.52,1.01-2.53,1.01
		c-0.51-0.51-0.51-1.52-0.51-2.53c0-2.02,0-3.54,0.51-5.56c0.51-5.06,2.02-9.11,3.04-13.66c0.51-6.58,1.01-12.14,2.53-17.2
		c2.02-9.61,5.06-20.24,9.61-29.85c0.51-1.52,1.01-2.53,1.01-3.54v-5.06c0-1.01,0-1.52-1.52-1.52c0,0-1.01,0-1.52,0.51
		c-1.01,1.01-2.02,2.53-2.53,4.05h-0.51c-0.51-0.51-0.51-0.51-0.51-1.01c0.51-1.52,1.01-3.04,2.02-4.55c0-0.51,0.51-1.52,0.51-2.02
		s-0.51-1.01-1.01-1.01h-1.01v-2.02l-0.51-0.51l-1.01,1.01c-0.51,0-0.51,0.51-1.01,1.52l-2.53,1.52c-0.51-0.51-1.01-0.51-1.01-1.01
		c0-1.01,1.01-2.53,1.52-3.04v-0.51h-1.01c-1.01,0.51-2.53,1.52-3.04,1.52c-0.51,0.51-0.51,0.51-0.51,1.01v-1.01
		c0,0-0.51,0-0.51-0.51c0.51-0.51,0.51-1.01,0.51-1.52c0-0.51-0.51-1.01-1.52-1.01c-1.01-0.51-1.52-0.51-2.53-0.51
		c-1.52,0-3.04,0.51-5.06,3.04l-2.02,3.54c-1.01,1.01-1.52,2.53-2.02,4.05c-2.53,4.55-4.55,9.61-6.07,14.16
		c-1,3.15-2.12,6.58-3.22,10.11c-4.06,4.76-8.34,9.55-12.96,14.17c-6.07,6.58-12.14,12.65-17.71,20.24
		c-7.59,6.07-14.17,14.16-21.75,22.26c-6.58,7.59-13.15,13.15-19.73,19.22c-1.01,1.52-3.04,2.02-4.55,2.53
		c-0.51,0-1.01-0.51-1.52-0.51v-7.59c0-9.61,2.02-18.72,4.05-27.32c3.04-12.65,7.59-24.79,11.13-37.44
		c3.04-7.08,5.56-14.16,7.59-21.25c1.01-2.02,2.02-3.04,2.02-5.56c0-0.51-1.01-1.01-2.53-1.01c0,0,0,0.51-0.51,0.51
		c-0.51,0-1.01,0.51-1.01,0.51v-1.01c-0.51-1.01-0.51-3.04-3.04-3.54c0,0,0-0.51-0.51-0.51l-1.52-2.02c-1.52-1.01-3.54-1.01-5.06,0
		c-0.51-0.51-0.51-0.51-0.51-1.52c-0.51,0-3.04,0-3.54,1.52c-3.54,5.06-7.59,9.61-10.12,14.67l-9.61,19.22
		c-2.79,5.97-4.31,11.63-5.33,17.71l-6.81,10.11c-9.61,15.18-20.74,30.35-32.38,42.49c-10.62,13.15-21.75,20.24-30.35,21.25
		c-1.01,0-2.53,0-3.04-0.51c0-0.51-0.51-2.02-0.51-2.53c-0.51-1.52-2.02-9.61-2.02-21.25c0-4.55,0.51-9.61,1.01-15.18
		c1.52-15.18,5.06-25.29,7.59-37.94c0-0.51,0.51-1.52,0.51-2.53l3.54-7.59c0,0,17.71-54.13,17.71-55.14
		c0-1.01,12.14-37.44,12.65-37.94c0.51-0.51,9.61-30.86,9.61-30.86l9.11-26.81c1.01-1.52,3.04-18.21,3.04-29.34v-4.05
		c0-3.04-0.51-5.06-1.01-5.56c-0.51,0-1.01,0.51-2.02,1.52c-0.51-3.04-3.04-4.05-5.56-4.05c-2.02,0-4.05,0.51-5.06,0.51h-0.51
		c-25.29,0-52.61,100.17-58.18,124.96c-8.09,41.99-15.18,76.9-15.68,117.87c0,13.15,0.51,20.24,4.55,30.86
		c6.07,13.15,9.11,15.68,16.19,18.21l2.53,1.01c0.51,0.51,0.51,0.51,1.01,0.51l0.51,0.51c10.62-0.51,31.87-14.67,37.44-21.75
		c12.55-15.17,22.23-25.13,31.19-38.22c-0.23,3.43-0.33,6.89-0.33,10.39c0,5.56,1.52,11.13,3.54,16.19c1.52,3.54,3.54,6.07,5.56,8.6
		c2.02,1.52,4.55,2.53,7.08,3.54c1.52,2.02,4.05,2.53,5.56,3.54c2.02,0.51,3.54,0.51,5.56,0.51c2.53,0,5.06-0.51,7.08-1.52
		l7.59-7.08c2.53-3.04,5.06-5.56,7.08-8.6c3.04-4.05,7.08-8.6,10.12-13.66c8.09-9.11,16.69-19.73,26.31-29.85
		c3.92-5.1,7.25-9.59,11.61-14.18c-0.31,2.15-0.49,4.2-0.49,6.09c0,1.52,0.51,2.53,0.51,3.54c0,1.01,0.51,2.53,0.51,4.05
		c0,2.53-0.51,5.06-0.51,7.59c0,2.53-0.51,4.55-0.51,7.08c0,4.55,0.51,9.11,2.02,13.66c1.01,3.54,3.04,6.07,4.55,9.11
		c1.01,2.02,2.53,2.53,4.05,4.05c2.02,3.04,4.55,4.55,7.08,6.07c1.52,1.01,3.04,1.01,4.55,1.01c2.02,0,4.55-1.01,6.58-3.04
		c2.02-1.52,4.05-3.54,5.56-6.07c11.13-15.68,21.25-33.89,30.35-49.58c4.05-7.08,8.6-12.65,13.15-19.22
		c4.55-6.07,9.11-10.62,13.15-15.68c3.54-2.53,6.07-5.06,9.11-7.59c0.51,0,1.01,0,1.52-1.01h1.01v1.52l-6.58,18.21
		c-2.53,7.59-5.56,15.18-7.59,22.77l-2.02,6.07c-0.51,3.04-2.53,5.56-2.53,9.11l-5.56,24.28c-1.01,8.09-2.53,15.18-3.04,22.77
		c0,5.56,0.51,10.62,1.52,16.19c1.01,3.04,3.54,7.59,6.07,10.62c1.52,1.52,3.54,3.04,4.05,4.55c2.53,2.02,1.52,1.01,5.56,2.02
		c2.02,2.02,4.05,3.04,6.07,3.04c1.52,0,3.54-1.01,5.06-2.02c2.02-2.02,5.06-3.54,9.61-5.56c3.54-5.56,8.09-12.14,12.65-12.14
		c8.09-14.16,18.72-27.82,27.82-43c4.09-5.84,7.5-11.51,10.72-17.01c-0.4,3.37-0.61,6.83-0.61,10.44V723
		c0.5,4.05,1.52,7.59,5.56,10.12l7.59,6.07c3.04,2.02,6.58,3.04,9.61,3.04c2.03,0,3.54-0.51,5.56-1.01
		c2.53-1.52,5.06-3.04,6.58-4.55c3.54-2.02,6.58-5.56,9.61-9.11c9.11-11.64,17.2-24.79,24.79-37.94
		c6.07-11.13,12.65-22.77,19.73-33.89c5.56-10.12,10.62-20.24,17.2-29.85c3.54-7.59,8.09-13.66,12.14-20.74
		c0-0.51,0.51-0.51,1.01-1.01c0,0.51,0.51,1.01,1.01,1.52v1.52c-1.52,3.04-2.02,5.56-3.03,8.6l-1.52,6.07
		c-1.52,8.09-3.54,17.2-5.56,24.79l-4.05,26.81l-3.54,19.73c-1.01,7.59-2.53,13.66-3.04,20.24c-1.01,10.12-3.03,20.24-3.54,30.35
		l-2.02,28.84c-0.51,5.06-0.51,9.61-0.51,14.16v13.66l1.01,6.07c0.51,9.11,5.56,16.19,12.65,23.27c0.51,1.01,2.03,1.01,3.04,1.01
		c1.01,0,2.02,0,3.04-1.01c1.01-0.51,2.02-2.02,2.02-3.54c0-1.01-0.51-1.52-1.01-2.53c-1.52-2.02-1.52-4.55-2.02-7.08
		c0-6.58,0-13.15,0.51-19.22c1.01-8.09,1.01-15.68,2.02-23.27c1.01-8.6,3.04-18.21,4.05-27.32c2.02-15.68,4.55-31.37,8.09-47.05
		c3.54-16.19,6.58-31.87,9.61-47.55l6.07-23.27c2.53-12.14,5.56-23.78,9.61-35.92c0.51-2.02,0.51-4.05,1.52-6.07
		c3.54-11.64,6.58-23.27,9.61-35.41C828.2,551,828.2,551,828.2,550.49z M347.11,635.48c0.51-22.77,33.39-132.54,41.99-131.03
		c1.52,0.51,3.54,1.01,3.54,2.02c0,2.02-2.02,6.58-2.02,6.58s-51.1,156.32-51.6,156.32l8.6-30.35
		C347.11,638.52,347.11,637.51,347.11,635.48z M732.58,660.27c-3.04,5.56-6.07,10.62-9.61,14.67c-5.57,8.6-10.63,16.19-15.68,24.79
		c-5.56,8.09-11.13,15.18-17.2,21.75c-1.52,0.51-2.53,1.52-4.05,2.53h-0.51c-0.5,0-0.5-0.51-0.5-1.01c0-0.51,0-1.01-0.51-2.02
		c0.51-0.51,0.51-2.02,1.01-3.54c1.01-9.61,4.05-18.72,8.1-27.82c3.03-8.6,7.08-16.19,12.14-24.79c3.03-5.06,6.07-8.6,10.12-11.64
		c0.51-1.01,2.02-2.02,4.05-3.04c1.01-0.51,2.02-0.51,3.04-0.51c1.52,0,2.53,0.51,4.55,3.04l5.06,4.55
		c0.51,0.51,0.51,1.01,0.51,1.52C733.09,659.26,733.09,659.77,732.58,660.27z"/>
	<path class="st0" d="M1175.73,701.25c-2.02-2.02-4.55-2.53-7.08-2.53c-1.52,0-2.53,0-4.05,0.51c-9.61,3.54-18.21,8.6-24.79,14.67
		c-10.12,7.08-20.24,10.62-28.84,19.22c-0.51,0.51-3.04,2.02-4.05,3.54c-0.51,0-1.01,0.51-1.52,0.51c-1.01,0-1.01-0.51-1.52-2.02
		c0-0.51-0.51-1.52-0.51-2.02c-4.55-10.62-8.09-17.71-14.67-26.31c-5.56-5.06-7.08-6.07-11.13-12.65c-2.02-2.02-2.02-4.55-4.05-7.08
		c-1.01-2.02-1.52-4.55-1.52-6.58v-2.02c0-1.52,1.01-3.04,1.01-4.55c4.05-12.14,8.6-22.77,17.71-31.87
		c10.12-14.17,21.25-20.24,29.85-20.24c6.58,0,11.13,3.54,12.14,9.61c0,1.01,1.01,1.01,1.52,1.01h0.51v0.51
		c-3.04,7.59-5.56,8.6-6.07,14.17c-0.51,0.51-0.51,1.01-0.51,1.52s0,1.01,0.51,1.01c0.51,0.51,0.51,0.51,0.51,1.01
		c0,1.01-1.01,2.02-1.01,2.53c0,0.51,0.51,1.01,2.02,1.01c5.56,0,11.13-2.02,13.66-6.07c2.02-3.54,6.07-13.15,7.08-21.75v-1.52
		c0-12.65-19.22-19.73-29.34-21.25h-11.64c-13.66,1.52-24.79,8.6-36.93,18.72c-8.6,8.09-16.19,18.21-21.75,29.85
		c-1.52,3.54-2.02,6.58-3.54,10.12l-1.52,5.06c0,1.01,0,2.53,0.51,3.54v4.05c0,3.54,0.51,6.58,1.52,9.61
		c2.02,4.05,3.04,6.07,5.56,9.11c5.06,8.09,7.08,9.61,13.15,15.68c10.62,10.62,13.66,20.24,13.66,35.41v8.09
		c-1.01,4.05-6.07,5.06-8.6,8.6c-4.55,4.55-18.21,9.11-22.77,13.66c-3.54,5.56-8.09,12.65-9.61,18.72
		c1.52,7.59,6.58,11.64,14.67,11.64c3.04,0,6.07-0.51,9.61-1.52c1.01,0,2.02,0.51,3.04,0.51c2.02,0,3.54-0.51,4.55-2.02
		c10.12-5.56,16.69-13.15,20.74-20.24c5.06-6.07,7.08-12.14,9.11-17.71l0.51-4.05c0-1.01,0-2.53,1.01-4.55
		c1.01-3.54,5.56-3.54,8.6-6.07c1.01-0.51,1.52-1.01,1.52-1.52v-0.51c0-0.51-0.51,0,0-0.51c10.62-8.6,19.73-11.13,30.35-19.73
		c8.09-8.09,18.21-14.67,27.32-19.22c2.02-0.51,2.02-2.02,4.05-2.53c0.51-0.51,1.52-1.01,1.52-2.02
		C1176.23,703.27,1175.73,702.26,1175.73,701.25z"/>
	<path class="st0" d="M212.54,532.28c9.61-5.06,19.73-10.12,29.34-13.66l16.19-6.58c10.62-5.06,21.75-8.09,33.39-11.13
		c6.58-2.02,12.14-4.55,19.22-6.07c7.08-1.52,14.16-4.05,21.75-5.06c5.06-0.51,9.11-2.53,13.66-3.04c3.54-1.01,6.58-1.52,10.62-1.52
		c5.56-1.52,11.13-2.02,16.19-3.04c5.56-1.01,10.62-1.52,15.68-2.02h3.54c2.02-1.01,4.05-1.01,6.07-1.01h4.55
		c2.02,0,4.05,1.01,5.56,3.04l2.02,1.01c0.51,0,0.51,0.51,0.51,0.51c0,0.51-0.51,1.01-0.51,1.52h-0.51
		c-1.01,0.51-1.01,1.01-1.01,1.52s0,1.01,1.01,1.01c0.51,0.51,1.52,1.01,2.02,1.01c0.51,0,0.51,1.01,0.51,1.01l-0.51,0.51
		c-0.51,0-0.51,0.51-1.01,0.51c0,0.51-0.51,0.51-0.51,1.01s0.51,1.01,1.01,1.52c1.01,1.01,2.53,1.52,4.05,1.52
		c4.55-1.52,7.59-3.54,10.12-7.59c0.51-1.52,1.52-3.04,1.52-4.55c0-0.51,0-1.52-0.51-2.02v-3.04c-0.51-4.05-1.52-7.08-3.04-9.61
		l-2.53-3.54c-4.55-4.55-9.11-8.09-14.16-8.6c-3.54-0.51-8.09-1.01-12.14-1.01h-13.66c-5.06,0.51-11.13,1.52-16.19,1.52
		c-0.51,1.52-1.01,1.52-2.53,1.52l-22.26,3.54c-8.6,1.52-16.69,3.04-25.29,5.06c-5.06,0.51-11.64,2.53-16.69,4.55
		c-6.58,1.52-12.65,3.04-18.21,5.06c-4.55,1.52-8.6,3.04-13.66,4.05c-5.56,3.04-12.14,5.06-18.21,7.59
		c-4.55,2.02-9.61,4.05-14.16,6.58c-3.04,1.01-6.07,3.04-8.6,4.05c-7.08,4.05-15.18,7.59-21.25,12.14
		c-5.56,3.54-10.12,7.08-14.16,10.12c-2.02,1.52-4.05,3.54-7.08,5.06c-3.04,2.53-6.07,5.06-9.61,9.11
		c-2.02,3.04-4.05,5.06-7.08,7.08c-4.05,4.05-7.59,10.12-10.62,15.18c-1.52,2.02-2.53,4.05-3.54,7.59
		c-1.01,2.53-1.52,4.55-1.52,7.08c0,2.53,0.51,4.55,1.52,7.08c0.51,0.51,1.01,1.01,1.01,1.52c0,3.54,2.02,5.56,3.04,8.09
		c0.51,1.01,1.52,1.52,2.02,1.52c0.51,0,1.01-0.51,1.52-1.01c1.01-1.01,1.52-3.04,2.53-4.55c1.52-2.02,2.02-5.06,3.04-7.08
		c4.05-7.08,8.09-13.15,13.66-18.72c6.58-6.58,13.66-12.65,20.74-18.21C204.45,537.85,208.5,535.32,212.54,532.28z"/>
	<path class="st0" d="M309.68,629.41c-1.01-1.01-2.02-2.53-4.05-3.54c-2.02-3.04-5.06-5.06-9.11-5.56c-3.54,0-6.07,0-10.12,1.52
		c-8.09,1.52-16.19,4.05-24.28,6.58c-4.05,1.52-7.59,4.05-12.65,5.56c-1.01,0.51-2.53,1.01-3.54,1.01h-0.51
		c-0.51,0-1.01-0.51-1.01-1.52c0-0.51,0-1.52,0.51-3.54l4.05-15.68c2.53-9.61,5.56-18.72,7.59-28.84
		c1.01-6.58,3.04-13.66,4.05-20.24c1.52-7.59,3.04-15.18,4.05-22.77v-4.05c0-1.52,0-2.53,0.51-4.55c0-1.52-0.51-3.04-2.02-4.55
		c-2.53-2.53-5.56-3.54-9.61-4.55h-0.51c-0.51,0-1.01,0.51-1.52,1.52c-1.01,0.51-2.02,1.52-2.02,2.02l-4.05,12.65
		c-2.53,8.09-6.07,17.71-8.09,26.31l-7.59,26.31c-1.52,6.07-4.05,12.65-5.56,19.22l-8.09,33.89c-0.51,2.02-1.52,4.05-4.55,5.06
		l-2.53,1.52c-4.55,3.04-10.12,7.08-13.15,12.14c-0.51,0.51-0.51,1.01-0.51,1.01c0,0.51,0.51,0.51,1.01,1.01h2.02l-2.02,2.53
		c0,0,0,1.01,0.51,1.01c0,1.01,0.51,1.01,1.01,1.01c2.53,0.51,4.55,1.01,7.08,1.01c1.01,0,2.02,0,3.04-0.51h0.51
		c0.51,0,1.01,0.51,1.01,1.52v1.01c0,0.51-0.51,1.01-0.51,2.02l-4.05,18.72c-2.02,10.12-5.06,19.22-6.58,28.33
		c-1.52,10.12-3.54,20.24-4.55,30.86c-1.01,3.04-1.01,5.56-1.52,8.09c-2.02,9.11-2.02,18.72-2.02,27.82c0,4.55,0.51,7.08,1.52,9.61
		c1.01,3.54,3.04,6.58,6.07,8.09c3.54,3.04,7.08,5.06,10.62,6.58c1.52,0.51,4.05,1.01,6.07,1.01h3.04c1.52,0,2.53-1.52,2.53-3.04
		v-0.51c0-1.01-0.51-2.02-1.01-2.53c-1.52-1.52-3.04-2.53-4.55-3.54c-2.02-1.52-3.54-2.53-3.54-4.55c-0.51-2.02-0.51-3.54-0.51-5.06
		v-4.05c0-3.54,0-6.58,0.51-9.61c1.01-7.59,2.02-14.16,3.54-21.75c3.04-17.71,6.07-34.91,10.12-52.61
		c1.01-3.54,2.02-6.58,3.54-10.12c2.53-10.12,5.06-20.24,7.08-30.86c1.52-6.07,1.01-5.56,8.09-9.11
		c13.15-6.07,26.81-11.13,39.97-16.69c4.05-1.01,8.09-2.53,11.64-3.04c0.51,0,1.52-0.51,2.53-0.51c1.01,0,2.02,0.51,2.53,0.51
		c1.52,0.51,2.53,2.02,4.05,2.53v2.02c0,0.51-0.51,1.01-0.51,1.52c0.51,1.01,1.01,1.52,1.52,1.52c0.51,0,1.01-0.51,1.52-0.51
		c4.05-1.52,5.56-3.04,5.56-7.59C312.21,635.48,311.7,632.95,309.68,629.41z"/>
	<path class="st0" d="M836.79,251.83c-3.54,6.07-6.07,12.65-9.11,18.72c-1.01,1.52-2.02,3.04-3.54,4.05l-1.52,2.02
		c0,0.51,0.51,0.51,0.51,1.01c0,0.51,0.51,1.52,0.51,2.02c0,0.51-0.51,1.01-0.51,1.52v3.04c-1.52,5.56-3.04,11.13-4.05,17.2v12.14
		c-0.51,3.04-0.51,5.56-0.51,8.6c0,3.04,0,6.07,0.51,8.6c0.51,4.05,1.52,7.59,3.54,11.13c4.05,7.59,11.13,12.65,18.21,17.71
		c5.56,4.05,11.64,5.56,18.21,5.56c4.55,0,8.6-1.01,13.15-2.02c12.65-3.54,23.78-11.13,32.88-20.24
		c7.08-7.59,17.2-18.72,24.28-28.33h-0.51c-0.51,0-1.01,0-1.01-0.51c0-1.6,6.58-7.12,12.82-15.23c-1.51,8.48-3.55,17.07-5.24,26.36
		c-1.52,6.07-2.02,12.65-2.53,18.21c-0.51,2.02-1.01,3.54-1.01,4.55c0,1.52,0.51,2.02,2.53,2.53c2.02,0,2.02,1.01,2.02,2.02v1.52
		c0.51-1.01,1.52-1.52,2.02-3.04h1.01v1.01c0,1.01-0.51,2.02-0.51,3.04v1.52c0,2.02,1.01,2.53,3.54,3.04c1.01,0,1.52,0,2.02,1.01
		c0.51,1.01,0.51,2.02,0.51,2.53c0.51,1.01,1.52,1.52,2.53,1.52c0.51,0,1.52-0.51,2.02-1.01c2.02-2.02,3.04-3.54,3.54-5.56
		c1.52-5.56,4.05-11.64,5.56-18.21c1.01-6.07,2.53-11.64,5.56-16.69l12.14-23.27c10.62-17.2,21.75-32.88,33.39-48.06
		c5.56-6.58,11.64-12.65,17.71-17.2c5.06-4.55,10.62-6.58,16.19-8.09c1.52,0,2.53-0.51,3.54-1.01c0.51-0.51,0.51-1.01,0.51-1.52
		v-0.51c-1.52-4.55-4.05-7.59-8.09-8.09c-2.53-0.51-5.06-1.01-7.59-1.01c-3.54,0-6.58,1.01-10.12,2.53
		c-7.59,4.55-15.68,11.13-22.26,17.71l-24.28,34.91l-3.04,2.53h-1.52c0-0.51-0.51-0.51-0.51-1.01c0.51-1.01,0.51-2.53,0.51-4.05
		c3.04-10.62,11.64-34.4,13.66-43.51c0-1.52,0.51-3.04,0.51-6.07c0-1.01-0.51-2.53-1.52-3.04c-1.01-0.51-2.02-3.04-2.53-5.06
		c-1.01-1.01-2.53-1.52-3.54-1.52h-1.01c0-1.01-0.51-2.53-1.52-3.54l-6.58-2.02h-1.01c-0.51,0,0,0.51-1.01,1.01
		c-2.02,1.01-3.04,2.53-4.55,4.05c-1.01,13.66-4.55,25.29-8.6,37.94c-1.52,4.55-2.53,8.6-3.54,13.66c-1.52,2.53-2.02,6.07-2.02,8.6
		c-0.21,1.14-0.45,2.29-0.7,3.45c-1.77,3.15-3.65,6.34-5.37,9.2c-5.06,7.59-10.62,14.16-16.69,21.75
		c-4.55,5.06-13.66,11.64-17.71,15.68c-7.08,7.59-14.67,13.66-22.77,19.22c-8.09,5.56-17.71,8.6-26.81,10.62h-4.05
		c-3.54,0-5.56-1.52-6.07-4.55c-1.01-3.54-2.02-7.08-2.02-10.62v-2.02l5.06-38.95c1.01-2.53,2.53-4.05,5.06-4.55l5.56-1.52
		c9.61-2.53,18.72-7.59,27.32-14.17c7.59-5.56,12.14-13.15,16.19-21.25c2.53-5.06,4.05-9.61,4.55-15.18v-1.52
		c0-7.08-3.54-12.14-9.61-15.68c-5.56-3.04-11.13-4.05-16.69-4.05c-2.02,0-4.55,0-7.08,0.51c-3.54,0.51-6.58,2.02-9.11,4.05
		c-5.56,3.54-10.12,7.59-14.16,12.65C846.4,237.16,841.34,244.24,836.79,251.83z M861.07,266.5c0-0.51,0-1.01,0.51-1.52
		c4.55-9.11,9.11-17.71,15.68-25.8c3.04-2.53,5.56-5.56,9.11-7.59l2.02-1.52h1.01c1.01,0,2.02,0.51,2.02,1.52v0.51
		c-0.51,4.05-2.02,7.59-4.05,11.13c-4.05,8.6-10.62,15.18-18.21,21.25c-2.02,1.52-4.05,2.02-6.58,3.54c-1.01,0-1.52-0.51-1.52-1.01
		V266.5z"/>
	<path class="st0" d="M330.41,197.19c1.52,1.52,3.54,1.01,3.54,3.04c0.51,2.53,3.04,3.04,4.05,4.05v1.52c1.01,0,1.01,1.52,1.52,1.52
		c0.51,0,1.01-0.51,2.53-0.51c0.51-2.02,1.01-3.54,2.02-5.06c-0.51-1.01-0.51-1.52-0.51-2.53c0-1.52,0.51-2.53,1.52-3.54
		c1.01-2.53,2.02-3.54,4.55-4.55c0.51-0.51,0.51-2.53,1.52-3.04c-1.52-1.52-3.04-4.05-5.06-5.06c-1.01-1.01-4.05-2.02-5.56-2.53
		c-0.51-0.51-1.01-0.51-2.02-0.51c-1.01,0-2.53,0-3.04,1.01c-4.55,3.54-6.07,8.09-6.58,13.66
		C328.9,195.67,328.9,196.69,330.41,197.19z"/>
	<path class="st0" d="M287.41,335.3c1.52,3.54,3.54,6.07,5.56,8.6c2.02,1.52,4.55,2.53,7.08,3.54c1.52,2.02,4.05,2.53,5.56,3.54
		c2.02,0.51,3.54,0.51,5.56,0.51c2.53,0,5.06-0.51,7.08-1.52l7.59-7.08c2.53-3.04,5.06-5.56,7.08-8.6
		c3.04-4.05,7.08-8.6,10.12-13.66c8.09-9.11,16.69-19.73,26.31-29.85c4.27-5.55,7.83-10.38,12.78-15.4
		c1.92,3.85,2.95,5.86,5.42,8.82c5.06,8.09,7.08,9.61,13.15,15.68c10.62,10.62,13.66,20.24,13.66,35.41v8.09
		c-1.01,4.05-6.07,5.06-8.6,8.6c-4.55,4.55-18.21,9.11-22.77,13.66c-3.54,5.56-8.09,12.65-9.61,18.72
		c1.52,7.59,6.58,11.64,14.67,11.64c3.04,0,6.07-0.51,9.61-1.52c1.01,0,2.02,0.51,3.04,0.51c2.02,0,3.54-0.51,4.55-2.02
		c10.12-5.56,16.69-13.15,20.74-20.24c5.06-6.07,7.08-12.14,9.11-17.71l0.51-4.05c0-1.01,0-2.53,1.01-4.55
		c1.01-3.54,5.56-3.54,8.6-6.07c1.01-0.51,1.52-1.01,1.52-1.52v-0.51c0-0.51-0.51,0,0-0.51c10.62-8.6,19.73-11.13,30.35-19.73
		c3.14-3.14,6.58-6.04,10.15-8.69c-0.19,1.38-0.37,2.76-0.55,4.14l-1.52,7.08c0,3.04,0,6.07-0.51,9.11
		c0.51,6.58,1.01,13.15,3.54,19.22c4.05,8.6,11.13,14.67,19.73,19.22c2.53,1.01,5.06,1.52,7.59,1.52c3.54,0,6.58-1.01,10.12-2.02
		c12.65-4.55,22.26-12.14,32.38-21.25c7.59-6.58,14.17-13.66,19.73-20.74c11.86-13.21,23.72-26.89,36.64-44.81
		c-0.07,0.27-0.15,0.53-0.22,0.8c0,1.52-0.51,3.54-0.51,6.07c-0.51,2.02-1.01,3.54-1.01,5.56l-1.52,10.62c0,0.51,0,1.01-1.01,1.52
		c0,1.52-0.51,3.54-0.51,4.55c0,0.51-0.51,1.01-0.51,1.52c0,0.51,0.51,1.52,1.01,2.53c-0.51,2.02-0.51,3.54-0.51,5.06v5.06
		c0,0.51,0,0.51,0.51,1.01c0,2.02,1.01,4.05,1.01,7.59c0.51,4.55,3.54,8.6,8.09,12.14c3.54,3.04,7.59,4.55,12.14,6.07l5.56,1.52
		c4.55,2.02,9.61,3.04,13.66,3.54h1.52c7.59,0,15.18-3.54,19.22-8.09c1.52-3.04,4.05-5.56,5.56-8.09
		c4.05-5.56,6.07-11.64,9.11-17.71c2.53-6.07,4.05-12.14,5.56-18.72c3.04-6.07,3.04-11.64,4.55-17.71c0-2.53,0.51-2.53,3.04-3.04
		c2.02,0,5.06,0,7.08-0.51c6.07,0,12.14-1.52,18.72-3.04c3.53-1.06,7.3-2.37,10.8-4.09c0.07,0.38,0.17,0.75,0.33,1.06
		c0,1.52,0.51,2.53,0.51,4.05c0,4.05-1.01,8.6-1.01,12.14v8.6c0,2.02,0,3.54,0.51,5.56c-0.51,1.52-0.51,2.53-0.51,4.05v2.02
		c1.52,8.09,1.52,16.19,2.53,24.79c0.51,4.05,1.52,8.6,2.53,12.65c0.51,2.53,2.02,4.05,4.55,5.06c5.06,2.02,9.61,4.05,14.67,5.06
		c1.01,0.51,1.52,0.51,2.53,0.51c1.52,0,3.54-1.01,5.06-2.53c0.51-1.01,1.01-2.53,1.01-3.54c3.54-9.11,6.07-18.21,8.6-27.32
		c2.53-8.09,6.58-16.19,10.62-25.8c6.58-22.77,15.18-44.52,24.28-66.78c5.56-14.17,11.64-28.33,19.22-41.99
		c5.06-11.64,11.64-22.26,21.75-29.85l2.53-3.04c0-0.51,0-2.02-0.51-2.02c-2.02,0-3.04-1.01-4.05-3.04
		c-0.51-1.01-3.04-1.01-4.05-1.52c-1.01-1.01-2.02-1.01-3.04-1.01c-1.52,0-3.04,1.01-5.06,2.02c-2.53,2.53-5.56,4.05-7.08,5.56
		c-4.05,4.05-7.59,8.09-10.12,12.65c-5.06,8.09-10.12,16.69-14.16,25.29c-7.08,14.17-12.65,27.82-18.72,41.99l-16.19,45.02
		l-8.09,19.73c0,0.51-0.51,1.01-1.01,1.01l-1.01-1.01v-1.01c-0.51-6.58-0.51-12.65-0.51-18.72c0-2.53,0.51-5.56,0.51-8.09
		c0.51-5.06,0.51-9.61,0.51-14.67v-6.07c0-6.58,1.01-13.66,1.01-20.24h-0.51c0.51-6.07,1.52-12.14,1.52-18.21
		c0-2.53,0-5.56-0.51-8.09c-0.51-1.01-1.01-2.02-2.02-3.04c0-0.51-1.52-1.52-2.53-2.02c-0.51-0.51-1.01-1.01-1.52-1.01
		s-0.51,0.51-1.01,0.51c-0.51,0.51-1.01,0.51-1.52,0.51c-1.52-1.01-3.04-1.52-4.55-2.02h-1.52c-1.52,0-3.04,0.51-3.54,2.53
		c-1.52,3.04-2.02,6.07-3.04,9.61c0,5.06-2.02,9.61-3.54,14.67c-0.51,1.01-0.51,1.52-0.51,2.53v13.15c0,2.53-1.52,5.56-1.52,8.6
		c-0.39,2.7-0.19,5.41-0.52,8.11c-2.61,1.34-5,2.69-8.58,4.03c-3.54,2.02-7.59,3.54-12.14,4.55c-6.07,1.01-11.64,2.02-17.71,3.54
		c-1.52,0-2.02,0-2.02-1.52v-1.01c0-0.51,0-1.52,0.51-2.02c-1.01-2.02-1.52-3.54-2.02-6.07c-0.51-2.53-1.52-4.55-5.06-6.58
		c-1.52-0.51-2.53-1.01-4.55-1.01c-0.51,0-1.01-0.51-3.04-0.51c-2.53,0-5.06,0-7.08,1.01c-6.58,2.53-11.64,6.07-12.65,11.64v1.52
		c-0.51,0.51-0.51,1.52-0.51,2.02c0,1.52,1.01,3.54,2.53,4.05l2.53,2.02c3.04,1.52,6.07,4.05,9.61,5.06
		c2.02,0.51,2.53,1.01,2.53,2.02v2.53c-0.51,3.04-1.52,5.06-2.02,7.59c-0.51,4.55-2.53,9.61-4.05,13.15l-5.56,12.14
		c-3.04,7.08-7.59,14.17-12.65,20.24c-1.52,1.52-3.54,2.53-5.06,3.54c-1.52,1.52-2.53,1.52-3.54,1.52s-2.53-1.01-4.05-2.02
		l-2.02-1.52c-0.51-1.52-2.02-3.54-2.02-5.56c-1.52-2.53-1.52-5.06-1.52-7.59v-3.54c-0.51-1.01-0.51-1.52-0.51-2.53
		c0-1.01,0-1.52,0.51-2.53l1.52-17.2c1.52-5.06,1.52-9.61,3.04-14.17c0-3.54,0.51-6.07,0.51-8.6c2.53-5.56,4.55-12.14,6.07-18.21
		c1.52-3.04,2.02-7.59,3.54-10.62c2.53-5.56,6.58-12.14,9.11-18.72c2.02-2.53,3.04-6.07,6.07-8.6v-1.01c0-1.01,0-2.02-0.51-2.53
		c-1.01-0.51-1.52-1.01-1.52-1.01c-2.02-1.01-3.04-1.52-4.55-1.52h-2.53c-1.01-0.51-2.53-1.01-4.05-1.01
		c-2.53,0-4.55,0.51-6.07,2.02l-4.05,3.04c-2.53,3.54-5.56,8.09-8.6,11.64c-2.15,3.58-4.3,7.67-6.63,11.73
		c-0.23-0.38-0.48-0.6-0.95-0.6c-0.51,0-1.52,0.51-2.53,2.02l-16.19,21.25c-9.61,14.17-22.26,27.82-32.88,39.97l-17.2,18.21
		c-11.13,11.13-24.79,20.24-40.47,25.8l-4.05,1.52h-1.52c-1.52,0-2.02-0.51-3.04-2.02v-1.01c-1.01-4.55-1.52-8.6-1.52-13.15
		c0-3.04,0.51-6.58,1.01-10.12c0-1.52,1.01-3.04,1.01-4.55c1.01-7.08,3.54-13.66,5.56-20.24c3.54-8.6,6.58-17.2,10.62-25.29
		c6.07-12.14,12.65-24.28,22.77-33.89c3.04-3.04,6.07-5.56,9.61-7.08c1.01-0.51,1.52-1.01,2.53-1.01c1.01,0,2.53,1.01,3.54,2.02
		c0.51,0.51,0.51,1.01,0.51,1.52c2.02,3.04,5.06,5.06,7.59,7.59c1.52,1.52,3.04,2.02,5.06,2.53c1.01,0,3.04-1.01,3.04-2.02v-4.55
		l-2.53-6.58c-3.04-6.07-7.08-11.13-13.15-13.66c-4.05-1.52-8.09-2.53-12.65-2.53c-2.02,0-4.55,0-6.58,0.51
		c-2.02,0-4.55,0.51-6.07,2.02c-4.55,3.04-9.11,5.56-12.65,10.12c-7.59,8.6-14.67,17.71-20.24,27.82l-8.09,14.67
		c-2.75,6.19-5.26,12.37-7.38,18.56c-6.83,3.21-12.95,7.21-17.91,11.79c-10.12,7.08-20.24,10.62-28.84,19.22
		c-0.51,0.51-3.04,2.02-4.05,3.54c-0.51,0-1.01,0.51-1.52,0.51c-1.01,0-1.01-0.51-1.52-2.02c0-0.51-0.51-1.52-0.51-2.02
		c-4.55-10.62-8.09-17.71-14.67-26.31c-5.56-5.06-7.08-6.07-11.13-12.65c-2.02-2.02-2.02-4.55-4.05-7.08
		c-1.01-2.02-1.52-4.55-1.52-6.58v-2.02c0-1.52,1.01-3.04,1.01-4.55c4.05-12.14,8.6-22.77,17.71-31.87
		c10.12-14.17,21.25-20.24,29.85-20.24c6.58,0,11.13,3.54,12.14,9.61c0,1.01,1.01,1.01,1.52,1.01h0.51v0.51
		c-3.04,7.59-5.56,8.6-6.07,14.17c-0.51,0.51-0.51,1.01-0.51,1.52c0,0.51,0,1.01,0.51,1.01c0.51,0.51,0.51,0.51,0.51,1.01
		c0,1.01-1.01,2.02-1.01,2.53c0,0.51,0.51,1.01,2.02,1.01c5.56,0,11.13-2.02,13.66-6.07c2.02-3.54,6.07-13.15,7.08-21.75v-1.52
		c0-12.65-19.22-19.73-29.34-21.25h-11.64c-13.66,1.52-24.79,8.6-36.93,18.72c-8.6,8.09-16.19,18.21-21.75,29.85
		c-1.52,3.54-2.02,6.58-3.54,10.12l-1.52,5.06c0,1.01,0,2.53,0.51,3.54v1.59c-2.43,2.7-4.95,5.39-7.58,8.02
		c-6.07,6.58-12.14,12.65-17.71,20.24c-7.59,6.07-14.16,14.16-21.75,22.26c-6.58,7.59-13.15,13.15-19.73,19.22
		c-1.01,1.52-3.04,2.02-4.55,2.53c-0.51,0-1.01-0.51-1.52-0.51v-7.59c0-9.61,2.02-18.72,4.05-27.32
		c3.04-12.65,7.59-24.79,11.13-37.44c3.04-7.08,5.56-14.17,7.59-21.25c1.01-2.02,2.02-3.04,2.02-5.56c0-0.51-1.01-1.01-2.53-1.01
		c0,0,0,0.51-0.51,0.51c-0.51,0-1.01,0.51-1.01,0.51v-1.01c-0.51-1.01-0.51-3.04-3.04-3.54c0,0,0-0.51-0.51-0.51l-1.52-2.02
		c-1.52-1.01-3.54-1.01-5.06,0c-0.51-0.51-0.51-0.51-0.51-1.52c-0.51,0-3.04,0-3.54,1.52c-3.54,5.06-7.59,9.61-10.12,14.67
		l-9.61,19.22c-3.54,7.59-5.06,14.67-6.07,22.77c-3.54,11.13-4.55,22.26-4.55,33.89C283.87,324.68,285.39,330.24,287.41,335.3z"/>
	<path class="st0" d="M182.19,360.09c9.11-7.59,16.69-16.69,24.28-26.81c9.61-12.65,19.22-26.31,27.32-39.97
		c9.11-14.17,18.21-29.85,25.8-45.53c9.11-17.2,16.19-35.41,20.74-54.13c2.53-10.62,5.06-22.77,6.07-35.41v-7.59
		c0-8.09-0.51-16.19-2.02-25.29c-1.01-12.65-5.06-25.29-10.62-36.42c-5.06-11.13-11.64-21.75-22.77-27.82
		c-13.15-9.61-27.82-15.18-44.01-15.18c-3.04,0-5.56,0-8.6,0.51h-1.52c-5.56,0-10.62,1.01-16.19,2.02
		c-10.62,2.53-19.73,5.06-30.86,10.62c-3.54,2.02-8.09,4.05-13.15,5.06c-0.51,0.51-0.51,0.51-1.01,0.51c-0.51,0-1.01-1.01-1.01-1.52
		c0-3.54,0-7.08,1.01-10.62c1.01-5.06,2.53-9.61,2.53-14.16v-3.04c0-7.59-3.54-10.12-10.62-11.64c-1.01,0-2.53,1.01-3.54,1.52
		c-1.01,1.01-1.52,3.54-2.53,4.05c-4.55,15.18-9.61,29.34-12.65,45.53c-0.51,6.58-4.55,11.13-9.11,14.67l-10.12,7.08L71.4,115.24
		c-12.14,13.66-23.27,28.33-31.37,44.01c-3.54,8.6-7.08,18.21-8.6,27.82c-0.51,1.52-0.51,3.04-0.51,4.55
		c0,6.58,3.54,11.64,10.62,15.18c1.01,0,2.02-1.01,2.02-1.52c0.51-9.11,5.56-17.71,9.11-25.8c9.11-17.2,20.24-32.38,33.39-46.54
		c2.53-3.04,6.07-5.56,8.6-8.09h1.01c0.51,0,0.51,0,0.51,0.51c1.01,0,1.01,0.51,1.52,1.01v1.01c0,2.53-1.52,5.56-2.02,8.09
		c-3.04,16.19-6.07,31.37-10.12,48.06c-0.51,5.06-2.53,11.13-2.53,16.69c0,1.01,0,2.02-0.51,3.54c-2.02,9.11-4.55,19.22-5.56,28.84
		c-1.52,12.14-4.05,23.78-5.56,35.92c0,1.01-1.01,3.04-1.52,4.55l-3.04,23.27l-3.04,15.18c-0.51,7.59-2.53,15.68-3.54,23.78
		c-1.01,5.06-1.52,10.12-2.02,15.68c-1.52,9.11-2.53,18.72-3.54,28.33c-1.01,4.05-0.51,9.11-1.01,14.16
		c0,5.56-0.51,10.12-0.51,15.68c-0.51,1.52-0.51,2.02-0.51,3.04s0,2.02,0.51,2.53c0,1.52,0.51,4.55,3.04,5.06
		c3.04,3.04,7.59,6.07,13.15,6.58h1.01c1.52,0,2.53-1.01,3.04-3.04c0.51-1.01,0.51-2.53,0.51-4.05c0-1.01,0-2.53-0.51-3.54
		c-1.52-3.54-2.02-7.08-2.02-10.12c0-3.04,0.51-5.56,1.01-8.6c0-3.04,1.01-6.58,1.01-10.12c1.01-2.02,1.01-4.55,1.52-6.58
		c1.01-8.6,2.02-17.2,4.05-26.31c1.52-6.58,2.02-13.66,3.04-21.25c3.04-16.19,7.08-32.38,9.61-48.57
		c1.01-11.13,4.05-23.27,6.58-34.4c2.53-13.66,5.56-27.82,9.11-41.48c0-3.04,1.01-7.59,1.52-10.62c1.01-6.07,1.52-12.65,3.04-19.22
		l10.62-57.67c1.52-5.56,2.53-11.64,3.54-17.71c0-2.53,1.01-5.56,3.04-6.58c2.02-1.01,3.04-1.52,4.55-3.04
		c9.61-5.56,19.73-11.13,29.34-15.68c9.61-4.05,18.21-7.59,27.32-9.11c9.11-2.02,18.21-3.54,26.81-3.54
		c5.06,0,10.62,0.51,15.68,1.52c4.55,1.01,8.6,3.04,12.65,5.06c5.06,3.04,9.11,6.58,11.64,11.64c3.04,5.06,5.56,11.13,6.58,16.69
		c2.02,11.64,4.05,22.77,4.05,33.89v6.07c-0.51,5.56-1.52,10.62-3.04,16.69c-0.51,10.12-3.54,19.73-6.58,29.34
		c-0.51,3.04-2.02,5.56-2.53,7.08c-0.51,1.52-1.01,2.02-2.02,2.02h-1.01c-3.54-3.04-7.59-4.05-11.64-4.05c-2.02,0-4.05,0-6.07,0.51
		c-12.65,1.01-24.79,6.58-35.41,13.66c-12.14,7.08-20.24,16.69-28.84,26.81c-8.09,9.11-15.68,19.22-22.77,28.33
		c-4.05,7.08-9.61,14.17-12.65,21.25c-4.55,10.12-10.62,18.72-14.16,29.34c-5.06,10.62-9.61,20.74-11.64,32.38
		c-0.51,2.53-1.01,5.06-1.01,7.59c0,7.08,2.53,14.16,9.11,19.22c2.53,2.53,6.07,4.55,9.61,7.59c4.55,3.04,8.6,3.54,13.66,3.54
		c1.01,0,2.53,0.51,3.54,0.51c5.06,0,10.12-2.02,14.67-4.55C168.03,373.24,175.11,366.67,182.19,360.09z M151.84,353.51
		c-5.56,3.54-11.13,8.09-17.71,10.62h-1.52c-1.52,0-3.04-0.51-3.04-2.53c0-3.04,0-5.06-1.01-8.09c0.51-8.6,4.05-15.68,6.58-23.27
		c3.54-11.64,9.11-21.25,14.17-31.87c6.58-10.62,13.15-22.77,20.24-33.39c8.09-11.13,16.19-22.77,26.81-32.38
		c8.09-9.61,16.69-16.69,28.33-22.77c7.08-4.05,14.16-6.07,21.75-7.08c1.01,0,2.53,0,3.54,0.51c0.51,0,2.02,0.51,2.02,1.01
		l-2.53,6.58c-4.05,8.09-7.08,16.19-11.13,23.78c-3.54,7.08-8.6,14.67-13.15,21.75c-2.02,4.05-3.54,7.59-7.08,12.14
		c-5.56,7.59-11.13,16.69-16.69,24.79c-11.13,14.16-21.25,28.84-33.39,42.49C162.46,342.38,157.91,347.95,151.84,353.51z"/>
</g>
</svg>
