<?xml version="1.0" encoding="utf-8"?>
<!-- Generator: Adobe Illustrator 22.1.0, SVG Export Plug-In . SVG Version: 6.00 Build 0)  -->
<svg version="1.1" id="Layer_1" xmlns="http://www.w3.org/2000/svg" xmlns:xlink="http://www.w3.org/1999/xlink" x="0px" y="0px"
	 viewBox="0 0 429.4 143.2" style="enable-background:new 0 0 429.4 143.2;" xml:space="preserve">
<style type="text/css">
	.st0{fill:#FFFFFF;}
</style>
<g>
	<path class="st0" d="M203.2,76.1c-0.6,0-0.7,0-0.9,0.6l-0.6,1.7c-0.3,0.8-0.2,1,0.3,1.1l0.7,0.1c0.2,0.1,0.2,0.6-0.1,0.7
		c-0.7-0.1-1.3-0.1-2.1-0.1s-1.4,0.1-1.9,0.1c-0.2-0.1-0.2-0.5-0.1-0.7l0.6-0.1c0.8-0.2,1.1-0.5,1.6-1.7l2.5-6.1
		c0.5-1.1,0.6-1.7,0.7-2.2c0.5-0.2,1-0.7,1.1-1c0.2-0.1,0.4,0,0.4,0.1c0.1,0.3,0.5,1.6,1.1,3.3l2.4,6.3c0.3,0.9,0.6,1.2,1.5,1.4
		l0.4,0.1c0.2,0.1,0.2,0.6-0.1,0.7c-0.7-0.1-1.3-0.1-2.2-0.1c-1,0-1.7,0-2.4,0.1c-0.3-0.1-0.3-0.6-0.1-0.7l0.5-0.1
		c0.7-0.1,0.7-0.3,0.3-1.1l-0.6-1.7c-0.2-0.6-0.3-0.6-0.9-0.6H203.2z M205.2,75.3c0.7,0,0.8-0.1,0.5-0.8l-0.8-2.2
		c-0.2-0.6-0.3-0.8-0.4-1h-0.1c-0.1,0.1-0.2,0.3-0.4,0.9l-1,2.4c-0.3,0.7-0.2,0.8,0.3,0.8H205.2z"/>
	<path class="st0" d="M225.8,72.8c0-2.6-0.2-3.3-1.1-3.4l-0.8-0.1c-0.2-0.2-0.2-0.5,0.1-0.7c1,0.1,1.6,0.1,2.4,0.1s1.3,0,2.2-0.1
		c0.2,0.1,0.2,0.5,0,0.7l-0.8,0.1c-0.7,0.1-0.9,0.8-0.9,3.4v4.4c0,0.5,0,2.7,0.1,3.1c-0.1,0.2-0.3,0.3-0.6,0.2
		c-0.3-0.4-0.8-0.9-2.5-2.7l-4-4.3c-1-1.1-1.7-1.7-2-2c-0.1,0-0.1,0.3-0.1,1.1v3.5c0,2.6,0.2,3.3,1.1,3.4l0.8,0.1
		c0.2,0.2,0.2,0.5-0.1,0.7c-1-0.1-1.6-0.1-2.4-0.1s-1.3,0-2.2,0.1c-0.2-0.1-0.2-0.5,0-0.7l0.8-0.1c0.7-0.1,0.9-0.8,0.9-3.4v-4.7
		c0-0.9,0-1.2-0.6-1.6c-0.2-0.2-0.7-0.3-1-0.4l-0.4-0.1c-0.2-0.2-0.2-0.6,0.1-0.7c1,0.1,1.7,0.1,2.3,0.1c0.4,0,0.7,0,1.1-0.1
		c0.5,1,1.5,2.1,2.6,3.3l2.5,2.6c0.6,0.6,2.1,2.3,2.4,2.5c0.2-0.1,0.2-0.4,0.2-1.1V72.8z"/>
	<path class="st0" d="M234.3,71.8c0-1.7,0-2.2-0.6-2.2l-0.8-0.1c-0.2-0.1-0.2-0.6,0-0.7c1.5-0.1,3-0.2,5.1-0.2c1.5,0,2.8,0.2,4,0.6
		c2.4,0.8,3.7,2.8,3.7,5.2c0,2.1-1.1,4-3.2,5.1c-1.2,0.6-2.7,0.8-4,0.8c-1.2,0-2.4-0.1-3.2-0.1c-0.8,0-1.7,0-2.7,0.1
		c-0.2-0.1-0.2-0.5-0.1-0.7l0.5-0.1c1.1-0.2,1.2-0.3,1.2-2.1V71.8z M236.3,77.1c0,1.7,0.3,2.5,2.3,2.5c3.2,0,4.7-2,4.7-5.2
		c0-3.3-2.3-5-5.3-5c-0.9,0-1.4,0.1-1.6,0.3c-0.2,0.1-0.2,0.4-0.2,1V77.1z"/>
</g>
<path class="st0" d="M50.9,42.9c4.4,0,8.3-0.1,9.7-0.2c0,1.5,0,6.7,0.1,9.9c-0.3,0.6-1.5,0.7-2.2,0.3c-0.7-4-1.8-6-4.4-6.7
	c-1.9-0.5-3.6-0.6-5.8-0.6h-3.5c-2.9,0-2.9,0.1-2.9,4V62c0,1.7,0.1,1.9,1.7,1.9h4.1c6,0,7-0.1,7.7-3l0.6-2.3
	c0.4-0.5,1.7-0.5,2.1,0.1c-0.1,1.8-0.2,4.3-0.2,6.9c0,2.5,0.1,5,0.2,7.2c-0.3,0.6-1.7,0.6-2.1,0.1l-0.6-2.7c-0.6-2.9-1.7-3-7.7-3
	h-4.1c-1.6,0-1.7,0.1-1.7,1.9v9.6c0,7.3,0.6,7.4,3.9,7.8l2.9,0.3c0.5,0.5,0.4,1.7-0.1,2c-4.4-0.1-7.5-0.2-10.5-0.2s-6.1,0.1-9.3,0.2
	c-0.6-0.3-0.6-1.5-0.1-2l1.5-0.2c3.2-0.4,3.9-0.6,3.9-7.9V52.8c0-7.3-0.6-7.5-3.9-8l-0.9-0.1c-0.5-0.5-0.4-1.7,0.1-2
	c2.4,0.1,5.5,0.2,8.5,0.2H50.9z"/>
<path class="st0" d="M65.4,70c0-3.1,0-3.9-1.7-5l-0.8-0.5c-0.2-0.3-0.2-1.2,0.1-1.6c3-1,6.6-2.5,8.7-3.7c0.4,0,0.8,0.2,1,0.6
	c-0.1,1.3-0.1,2.5-0.1,3.1c0,0.5,0.3,0.8,0.7,0.8c2.1-1.5,4.4-3.6,6.8-3.6c2.4,0,3.8,1.6,3.8,3.4c0,2.7-2,4-3.9,4
	c-0.7,0-1.3-0.2-1.9-0.6c-1.7-1.2-2.9-1.3-3.3-1.3c-1.6,0-2,1.6-2,5v9.4c0,5.1,0.3,5.9,2.7,6.1l2.7,0.3c0.5,0.5,0.4,1.7-0.1,2
	c-4.1-0.1-6.5-0.2-9-0.2c-2.3,0-4.5,0.1-7.2,0.2c-0.6-0.3-0.6-1.5-0.1-2l1.2-0.2c2.3-0.4,2.6-1.1,2.6-6.2V70z"/>
<path class="st0" d="M107.2,79.6c-0.2,4,0.8,6.1,3.3,6.1c1.2,0,2.1-0.8,2.3-0.8c0.3,0,0.8,0.8,0.6,1.4c-1.4,1.9-4.8,3-6.9,3
	c-1.7,0-3.7-0.5-5-1.9c-0.5-0.5-0.8-0.8-1.1-0.8c-0.3,0-0.8,0.3-1.9,1c-1.3,0.8-3.4,1.8-5.9,1.8c-4.7,0-7-3.2-7-6.7
	c0-2.5,1-4.8,5.7-6.4c2.4-0.8,5-1.8,7.6-2.8c1.4-0.5,1.6-1.1,1.6-1.8l0.1-1.8c0.1-3.5-0.8-6.5-4.2-6.5c-1.9,0-3.4,1-3.7,3
	c-0.1,1.3-0.6,2-1.3,2.5c-1,0.6-2.9,1.2-4.4,1.2c-0.9,0-1.3-0.5-1.3-1.1c0-0.8,0.4-2.3,2.7-4.4c2.1-2,7.1-4.3,10.6-4.3
	c5.4,0,8.8,2.5,8.5,8.6L107.2,79.6z M100.4,77.2c0-0.8-0.2-1.2-0.6-1.2c-0.6,0-1.8,0.3-3,0.8c-1.9,0.7-3.7,1.7-3.7,4.6
	c0,1.8,1.2,4,3.9,4c2.5,0,3.2-1.7,3.3-3.3L100.4,77.2z"/>
<path class="st0" d="M127,80.1c0,5.1,0.3,5.9,2.6,6.3l1,0.1c0.5,0.5,0.4,1.7-0.1,2c-2.4-0.1-4.8-0.2-7.3-0.2c-2.2,0-4.5,0.1-7.4,0.2
	c-0.6-0.3-0.6-1.5-0.1-2l1.5-0.2c2.3-0.3,2.6-1.1,2.6-6.2V70c0-3.1,0-3.9-1.7-5l-0.8-0.5c-0.2-0.3-0.2-1.2,0.1-1.6
	c3-0.8,6.7-2.5,9-3.7c0.5,0,0.8,0.3,0.9,0.6c-0.1,1.3-0.1,2.6-0.1,3.2c0,0.5,0.2,0.6,0.6,0.7c3.2-1.8,5.2-3.4,9.4-3.4
	c5.6,0,8.2,3.9,8.2,9.2v10.7c0,5.1,0.3,5.9,2.6,6.2l1.6,0.2c0.5,0.5,0.4,1.7-0.1,2c-2.9-0.1-5.2-0.2-7.8-0.2c-2.3,0-4.6,0.1-7,0.2
	c-0.6-0.3-0.6-1.5-0.1-2l1-0.1c2.3-0.3,2.6-1.2,2.6-6.3v-9.5c0-3.5-1.4-6.3-5.5-6.3c-2.1,0-3.9,1.1-4.5,2.1c-0.9,1.2-1,1.9-1,4.4
	V80.1z"/>
<path class="st0" d="M156.9,50.6c0-4.6-0.1-5-1.8-6.1l-0.8-0.5c-0.4-0.3-0.5-1.4,0-1.6c2.6-0.8,6.2-2.2,9-3.3c0.4-0.1,0.8,0.2,1,0.6
	c-0.1,2.8-0.2,7-0.2,10v21.8c0,0.8,0.2,1,1.5,1c1.2,0,2.5-0.5,4.5-2.6l2.7-3c1.4-1.6,2-2.3,2-2.7c0-0.3-0.3-0.6-1.1-0.7l-1.9-0.2
	c-0.6-0.5-0.6-1.7,0.1-2.1h2c3,0,7.1-0.1,10.7-0.6c0.6,0.3,0.6,1.5,0.1,2.1l-1.2,0.2c-2.3,0.4-3.4,1-5,2.3c-2.4,2.1-4.8,4.1-5.9,5.3
	c-0.4,0.5-0.3,1,0,1.4c2.8,3.9,7.4,10.3,9.9,12.7c1.3,1.2,2.7,1.7,3.9,1.9l0.7,0.1c0.4,0.6,0.4,1.7-0.2,2c-2.3-0.1-4.8-0.2-7.6-0.2
	c-2.8,0-4.6,0.1-7.4,0.2c-0.7-0.3-0.8-1.5-0.1-2l0.7-0.1c0.7-0.1,1.3-0.5,1.3-0.8c0-0.3-0.2-0.8-0.8-1.7l-5.6-7.9
	c-0.8-1.2-1.7-1.4-2.1-1.4c-0.8,0-1,0.3-1,2.1v3.3c0,5.1,0.3,5.9,2.6,6.2l1.5,0.2c0.5,0.5,0.4,1.7-0.1,2c-2.9-0.1-5.2-0.2-7.8-0.2
	c-2.2,0-4.5,0.1-7.4,0.2c-0.6-0.3-0.6-1.5-0.1-2l1.4-0.2c2.3-0.3,2.6-1.1,2.6-6.2V50.6z"/>
<g>
	<path class="st0" d="M359.2,85.5c0.1,0.3,0.2,0.5,0.2,0.8c0.1,0.4,0.3,0.9,0.1,1.3c-0.2,0.7,0.5,0.9,0.4,1.4c0.1,0,0.1,0,0.2-0.1
		c-0.1-0.5-0.2-1.1-0.3-1.6c0-0.3,0-0.5,0.1-0.8c0.1-0.3,0-0.7,0-1c0-0.7-0.1-1.3-0.1-2c0-0.1,0-0.3,0.1-0.4
		c0.1,0.6,0.2,1.1,0.3,1.7c0.8-0.7,0.3-1.6,0.4-2.4c0-0.6,0-1.2,0-1.8c0,0.1,0.1,0.1,0.2,0.2c0.1-0.1,0.2-0.2,0.2-0.3
		c0,1-0.3,1.9,0,2.9c0,0,0.1,0,0.2,0c0,0.3-0.1,0.6-0.1,1c0.2-0.1,0.2-0.2,0.3-0.2c0.1,0.1,0.1,0.3,0.2,0.5c0.1-0.2,0.3-0.3,0.3-0.4
		c0-1.2,0-2.4,0-3.5c0-0.5,0-1,0-1.5c0-0.8-0.1-1.7,0-2.5c0-1.2,0.1-2.4,0.1-3.5c0-0.9,0.1-1.8,0.2-2.7c0.1-0.8,0.1-1.5,0.1-2.3
		c0-0.5,0.2-1,0.2-1.5c0.2-0.9,0.3-1.8,0.5-2.7c0.1-0.4,0.1-0.8,0.2-1.3c0-0.1,0-0.4-0.1-0.4c-0.2,0-0.4,0-0.5,0.1
		c-0.1,0.1-0.1,0.3-0.2,0.4c0,0.1,0,0.2,0,0.3c0-0.2-0.1-0.4-0.2-0.7c-0.2,0.3-0.5,0.4-0.3,0.8c0.1,0.1-0.1,0.3-0.1,0.5
		c-0.1,0.2-0.2,0.4-0.4,0.5c0.1-0.5,0.2-1,0.3-1.6c-0.2,0-0.3,0-0.4,0c-0.6,0.2-1.1,0.4-1.7,0.7c-0.2,0.1-0.4,0.4-0.5,0.7
		c-0.2,1.1-0.5,2.2-0.7,3.3c-0.1,0.5-0.1,1.1-0.2,1.6c0,0.1-0.1,0.3-0.2,0.4c-0.1,0-0.1,0-0.2-0.1c0-0.2,0.1-0.4,0.1-0.6
		c0-0.1,0.1-0.3,0.1-0.4c0-0.1-0.1-0.3-0.2-0.3c-0.1,0-0.3,0.1-0.3,0.2c-0.1,0.4-0.3,0.7-0.4,1.1c-0.1,0.4-0.3,0.8-0.4,1.2
		c0,0.1-0.1,0.1-0.2,0.2c0,0,0.1,0,0.1,0c-0.1,0.5-0.1,1-0.2,1.4c0,0-0.1,0-0.1,0c0-0.1-0.1-0.2-0.1-0.3c-0.1,0.1-0.3,0.1-0.4,0.2
		c-0.1,0.6-0.2,1.1-0.3,1.7c-0.5,0.1-0.3,0.5-0.4,0.9c-0.1,0.3-0.1,0.5-0.1,0.8c0,0.1,0,0.1,0,0.2c0,0.4,0,0.8,0,1.2
		c-0.1,0-0.1,0-0.2,0c0-0.5-0.1-1.1-0.1-1.7c-0.1,0.3-0.2,0.6-0.2,0.8c-0.1,0.4-0.2,0.8-0.3,1.1c0,0.2-0.1,0.3-0.1,0.5
		c-0.1,0.1-0.2,0.3-0.3,0.4c-0.1,0.4,0,0.8-0.4,1.2c-0.2,0.2-0.2,0.4-0.3,0.7c-0.3,0.9-0.6,1.9-0.8,2.8c-0.1,0.7-0.5,1.3-0.8,1.9
		c-0.1,0.4-0.2,0.8-0.4,1.1c-0.3,0.7-0.6,1.4-0.9,2.1c-0.2,0.3-0.3,0.7-0.5,1c-0.2,0.3-0.3,0.6-0.6,0.8c-0.4,0.2-0.6,0.7-0.9,1
		c-0.1,0.1-0.3,0.3-0.4,0.4c-0.5,0.5-1,1-1.6,1.3c-0.5,0.3-1.1,0.5-1.7,0.7c-0.2,0.1-0.5,0-0.8,0.1c-0.7,0.1-1.3-0.2-1.8-0.6
		c-1.7-1.2-2.9-2.9-3.7-4.8c-0.1-0.2-0.2-0.4-0.3-0.6c-0.1-0.2-0.1-0.5-0.2-0.7c-0.1-0.5-0.3-1-0.5-1.5c-0.2-0.3-0.1-0.5,0.2-0.5
		c-0.3-1.9-0.6-3.9-0.9-5.8c0,0-0.1,0-0.1,0c-0.2,0.5,0,1.1-0.1,1.6c-0.3-1-0.2-2-0.1-3c0,0.1,0.1,0.2,0.1,0.3c0,0,0.1,0,0.1,0
		c0-0.5,0-0.9,0.1-1.4c0-0.5,0-1.1,0-1.6c0-0.2-0.1-0.5-0.1-0.7c0-0.1,0-0.2,0-0.3c0.3-0.9,0.2-1.9,0.3-2.9c0,0,0,0,0-0.1
		c-0.1,0-0.2,0-0.3,0.1c0-0.1,0-0.1,0-0.1c0.1-1.1,0.3-2.2,0.4-3.3c0-0.3,0-0.5-0.4-0.6c-0.5-0.1-1-0.3-1.5-0.5
		c-0.4-0.2-0.7,0-1.1,0.1c-0.8,0.2-0.8,0.2-0.6,1c0.1,0.4,0,0.8,0.1,1.3c0.1,0.8,0.3,1.6,0.4,2.4c0,0.3,0.1,0.6,0.1,1
		c0,0.1,0,0.2,0,0.2c-0.3,0.6,0.1,1.2,0,1.8c0,0.2,0.1,0.3,0.2,0.5c0.6-0.1,0.7,0.1,0.7,0.9c0,0.2-0.1,0.5-0.1,0.7
		c0,0.4,0,0.9,0,1.3c-0.1,0.9-0.3,1.9-0.5,2.8c-0.1,0.4-0.3,0.7-0.5,1c-0.2,0.5-0.4,1.1-0.6,1.6c-0.2,0.5-0.5,0.9-0.7,1.4
		c-0.2,0.4-0.4,0.9-0.6,1.3c-0.2,0.5-0.4,1-0.7,1.5c-0.4,0.8-0.9,1.6-1.7,2.1c-0.4,0.3-0.8,0.5-1.1,0.8c-0.2,0.2-0.4,0.4-0.7,0.6
		c-0.4,0.4-0.8,0.7-1.3,1c-0.3,0.2-0.7,0.3-1,0.4c-0.6,0.2-1.2,0.3-1.8,0.5c-0.9,0.2-1.8,0.3-2.7,0c-0.8-0.3-1.7-0.4-2.6-0.4
		c-2.4,0.1-4.5-0.8-6.1-2.6c-0.4-0.4-0.8-0.9-1.2-1.3c-0.5,0.4-1,0.9-1.5,1.2c-0.5,0.4-1.1,0.6-1.6,0.9c-0.4,0.2-0.8,0.3-1.2,0.4
		c-0.2,0.1-0.3,0.3-0.6,0.4c-0.6,0.2-1.2,0.4-1.7,0.6c-0.4,0.1-0.7,0.3-1.1,0.4c-1.2,0.3-2.3,0.6-3.5,0.8c-1.6,0.3-3.3,0.5-4.9,0.4
		c-1.6-0.1-3.2-0.3-4.9-0.5c-2.5-0.3-5-1.1-7.4-1.9c-1-0.3-2-0.6-3-1c-2.9-1.2-5.5-2.8-7.5-5.2c-0.3-0.3-0.6-0.6-0.9-0.9
		c-0.1-0.1-0.2-0.1-0.3-0.2c-0.4,0.8-0.7,1.6-1,2.4c-0.3,0.8-0.7,1.5-1.1,2.3c-0.2,0.4-0.6,0.7-1,1.1c-0.4,0.4-0.7,0.7-1.1,1
		c-0.4,0.3-0.9,0.5-1.4,0.7c-0.2,0.1-0.4,0.2-0.6,0.3c-0.7,0.3-1.5,0.4-2.3,0.4c-0.3,0-0.7-0.5-0.7-0.9c0-0.3,0-0.6-0.1-0.9
		c-0.2-0.2-0.5-0.3-0.7-0.5c-0.2,0.1-0.5,0.2-0.7,0.2c-0.1,0-0.3,0-0.3-0.1c-0.3-0.5-0.6-1-0.4-1.7c0.1-0.4,0.3-0.7,0.3-1.1
		c0.1-0.3,0-0.6,0-0.9c0-0.2-0.1-0.3,0.2-0.5c0.1-0.1,0.1-0.4,0.1-0.6c0-0.2-0.2-0.4-0.2-0.6c0.1-0.2,0.3-0.3,0.3-0.5
		c0.3-0.8,0.6-1.7,0.8-2.6c0.4-1.5,1.3-2.5,2.9-2.7c0.7-0.1,1-0.4,1.2-1c0.2-0.8,0.6-1.5,0.9-2.2c0.4-1,0.7-2,1.1-3
		c0.2-0.6,0.5-1.2,0.7-1.8c0.1-0.3,0.2-0.6,0.3-0.9c0.3-0.7,0.5-1.5,0.8-2.2c1-2.2,1.6-4.5,2.4-6.7c0.3-0.9,0.6-1.9,0.9-2.8
		c0.2-0.8,0.5-1.5,0.8-2.3c0.4-1.3,0.8-2.6,1.1-3.9c0.4-1.5,0.7-3,1-4.5c0.6-2.7,1.1-5.4,1.6-8.2c0.4-1.8,1.1-3.5,1.8-5.2
		c0.1-0.3,0.3-0.7,0.3-1.1c-0.1-0.6,0.4-1,0.6-1.5c0-0.1,0.2-0.1,0.3-0.1c0.5-0.2,0.9-0.4,1.4-0.5c0.8-0.3,1.4,0.1,2,0.7
		c1.2,1.2,1.4,2.8,1.5,4.3c0,0.4,0.1,0.7,0.2,1.1c0,0.1,0.1,0.2,0.1,0.3c-0.1,0.8-0.2,1.5-0.3,2.3c-0.1,0.7-0.2,1.5-0.3,2.2
		c0,0,0,0.1,0,0.1c-0.5,1.2-0.3,2.6-0.5,3.9c-0.1,0.9-0.3,1.8-0.4,2.8c-0.1,0.6-0.1,1.2-0.2,1.9c-0.1,0.6-0.4,1.3-0.5,1.9
		c-0.1,0.6-0.2,1.2-0.3,1.8c-0.1,0.6-0.4,1.2-0.6,1.8c-0.4,1.3-0.8,2.6-1.3,3.8c-0.3,0.8-0.4,1.7-0.7,2.6c-0.3,0.7-0.6,1.5-0.8,2.2
		c-0.3,0.7-0.5,1.5-0.8,2.2c-0.3,0.9-0.7,1.7-1.1,2.6c-0.2,0.4-0.3,0.8-0.5,1.2c-0.6,1.2-1.2,2.5-1.8,3.7c-0.6,1.3-1.2,2.5-1.7,3.8
		c-0.2,0.4-0.4,0.8-0.6,1.2c-0.2,0.4-0.2,0.7,0.1,1c0.5,0.5,1,0.9,1.5,1.3c0.6,0.6,1.3,1.2,1.9,1.8c0.5,0.5,1.1,0.9,1.6,1.4
		c0.9,0.8,2,1.1,3,1.7c1.2,0.7,2.5,0.8,3.8,1.1c0.8,0.2,1.5,0.4,2.3,0.5c0.9,0.2,1.8,0.3,2.6,0.3c1.1,0.1,2.2,0.1,3.4,0.1
		c2.2-0.1,4.3-0.5,6.4-1.2c0.6-0.2,1.1-0.5,1.7-0.6c1.5-0.3,2.7-1.3,3.9-2c1.3-0.8,2.5-1.7,3.7-2.6c0.1-0.1,0.2-0.3,0.2-0.5
		c0-1.3-0.1-2.5,0-3.8c0.1-1.5,0.5-3.1,0.8-4.6c0.2-1.1,0.5-2.2,0.9-3.3c0.6-1.6,1.2-3.2,1.9-4.7c0.8-1.9,2-3.6,3.3-5.2
		c0.7-0.9,1.7-1.6,2.6-2.2c0.1-0.1,0.3,0,0.5-0.1c0.1,0,0.3,0,0.4,0c0.5-0.3,1-0.3,1.6-0.2c0.2,0,0.4-0.1,0.6-0.1
		c0.2,0,0.5,0,0.6,0.1c0.8,0.6,1.8,0.8,2.7,1c0.7,0.2,1.4,0.2,1.9,0.7c0.2,0.1,0.4,0.2,0.6-0.1c0.2-0.2,0.4-0.3,0.7-0.5
		c-0.1-0.1-0.1-0.2-0.1-0.4c0,0,0-0.1,0-0.1c0.5,0.5,0.9-0.1,1.4-0.1c0.5,0,1,0.1,1.5,0.2c-0.1-0.1-0.2-0.1-0.3-0.2c0,0,0-0.1,0-0.1
		c0.2,0,0.4,0,0.5,0.1c0.3,0.2,0.5,0.1,0.8-0.1c0.3-0.2,0.7-0.5,1-0.7c0.2-0.2,0.4-0.1,0.5,0c0.4,0.4,0.7,0.9,1,1.3
		c0,0-0.1,0.1-0.1,0.1c-0.1-0.1-0.2-0.2-0.3-0.3c0.1,0.8,0.5,1.3,1.2,1.7c0.7,0.3,1.4,0.7,2.1,1.1c0.1,0,0.1,0.1,0.2,0.1
		c0.3-0.4,0.5-0.7,0.7-1.1c0.1-0.1,0-0.3-0.1-0.4c0-0.2-0.1-0.3-0.1-0.5c0.4-1.7,0.8-3.3,1.1-5c0.1-0.6,0.3-1.3,0.4-1.9
		c0.2-0.8,0.5-1.6,0.7-2.4c0.3-1.1,0.6-2.2,1-3.2c0.6-1.8,1.3-3.6,2-5.3c0.4-1.1,0.9-2.1,1.5-3.2c0.7-1.3,1.5-2.5,2.2-3.7
		c0.5-0.9,1.3-1.6,2.1-2.3c0.4-0.3,1-0.7,1.6-0.5c0.2,0.1,0.4,0,0.6,0c0.2,0,0.5,0.1,0.7,0.2c0.7,0.2,1.3,0.5,2,0.7
		c0.4,0.2,0.7,0.5,0.9,0.9c0,0.1,0.1,0.2,0.2,0.3c0.2,0.2,0.4,0.4,0.1,0.8c-0.1,0.1,0,0.3,0,0.4c0,0.3,0.1,0.6-0.3,0.8
		c-0.1,0.1-0.1,0.3-0.1,0.5c0.1,0.6,0.2,1.1,0.3,1.7c0.1,0.8,0,1.6-0.2,2.3c-0.1,0.4-0.1,0.8-0.2,1.3c-0.1,0.7-0.2,1.3-0.3,2
		c-0.2,0.8-0.4,1.6-0.6,2.3c-0.2,0.8-0.5,1.5-0.7,2.3c-0.4,1.3-0.7,2.5-1.1,3.8c-0.4,1.2-0.8,2.3-1.1,3.5c-0.2,0.8-0.3,1.6-0.5,2.4
		c-0.1,0.3-0.2,0.5-0.2,0.8c-0.2,0.5-0.3,1.1-0.4,1.6c-0.1,0.3,0,0.4,0.3,0.4c1.2-0.1,2.4-0.4,3.6-0.7c1-0.3,2-0.5,3.1-0.8
		c0.6-0.1,1.3-0.2,1.9-0.3c0.3-0.1,0.6-0.1,0.9-0.2c0.1,0,0.1-0.1,0.1-0.2c0-0.6,0.4-1.1,0.4-1.7c0-0.2,0-0.4,0-0.5
		c0.3-0.9,0.6-1.7,0.8-2.6c0.1-0.2,0.1-0.5,0.1-0.7c0-0.2,0.1-0.3,0.1-0.5c0,0,0.1,0,0.1,0.1c0.1-0.1,0.3-0.2,0.3-0.3
		c0.1-0.3,0.2-0.7,0.2-1c0-0.1,0.1-0.1,0.1-0.2c0.1,0.1,0.2,0.1,0.2,0.2c-0.1,0.4-0.3,0.9-0.4,1.3c0,0.1-0.1,0.1-0.1,0.2
		c0,0.4-0.1,0.8-0.5,1.2c-0.3,0.4-0.3,1-0.3,1.6c0.2-0.2,0.3-0.2,0.4-0.4c0,0.2,0,0.3-0.1,0.3c-0.6,0.5-0.8,1.3-0.9,2.1
		c0,0.1,0.1,0.3,0.1,0.4c0.2-0.1,0.5-0.1,0.5-0.2c0.3-0.7,0.5-1.4,0.7-2.1c0.1-0.2,0.2-0.5,0.3-0.8c0.1,0.1,0.1,0.2,0.2,0.3
		c0.4-1.1,0.8-2.2,1.3-3.2c0,0,0.1,0,0.1,0c-0.1,0.2-0.1,0.4-0.2,0.5c-0.1,0.4-0.1,0.9-0.2,1.3c-0.2,0.9-0.4,1.7-0.8,2.5
		c-0.2,0.4-0.2,0.9-0.3,1.3c0.3,0.1,0.6,0,0.7-0.3c0.3-0.9,0.7-1.7,0.9-2.5c0.2-0.5,0.3-1.1,0.4-1.7c0.1-0.2,0.2-0.3,0.3-0.5
		c0,0,0.1,0,0.1,0.1c-0.1,0.4-0.3,0.8-0.4,1.2c0,0.1,0,0.2-0.1,0.3c-0.1,0.3-0.2,0.6-0.3,0.9c0,0-0.1,0.1-0.1,0.1
		c0.1,0.6-0.4,1-0.5,1.5c0,0.3-0.1,0.5-0.1,0.8c0.8,0,0.9,0,1.1-0.7c0.3-1.1,0.7-2.1,1-3.2c0.2-0.5,0.4-1,0.5-1.4c0-0.1,0-0.2,0-0.3
		c0,0-0.1,0-0.1,0c-0.1,0.2-0.2,0.4-0.4,0.6c0,0-0.1,0-0.1,0c0.1-0.3,0.2-0.6,0.4-0.9c0.2-0.3,0.3-0.6,0.3-1c0-0.4,0.2-0.7,0.3-1.1
		c0.3-0.8,0.5-1.5,0.7-2.3c-0.1,0.2-0.3,0.3-0.4,0.5c-0.2,0.5-0.7,0.8-0.7,1.5c0,0.2-0.2,0.5-0.3,0.7c-0.1,0.5-0.3,0.9-0.4,1.4
		c0,0.1,0,0.3-0.2,0.2c0,0-0.2,0.2-0.3,0.3c-0.1,0.1-0.1,0.3-0.1,0.5c0,0-0.1,0-0.1,0c0.1-0.3,0.2-0.6,0.3-0.9
		c0.2-0.4,0.4-0.9,0.6-1.3c0.2-0.6,0.4-1.2,0.6-1.8c0.2-0.5,0.3-0.9,0.5-1.4c0-0.1,0-0.3,0-0.5c-0.4,0.5-0.7,0.9-0.8,1.4
		c-0.1,0.3-0.3,0.6-0.5,0.8c0,0-0.1,0-0.1,0c0.3-0.8,0.7-1.6,1-2.4c-0.1,0-0.1-0.1-0.2-0.1c-0.1,0.2-0.3,0.4-0.4,0.6
		c-0.1,0.1-0.2,0.3-0.3,0.4c-0.1,0.2-0.2,0.4-0.2,0.6c-0.1,0.3-0.2,0.7-0.7,0.7c0.3-0.6,0.5-1.2,0.8-1.8c0,0-0.1-0.1-0.1-0.2
		c0.8-0.7,1.3-2.2,1-2.8c-0.1,0.1-0.1,0.2-0.2,0.3c-0.6-0.1-0.6-0.1-0.3-0.6c0.2-0.4,0.4-0.8,0.5-1.2c0.4-0.9,0.7-1.8,1-2.6
		c0-0.1,0-0.2,0.1-0.4c-0.4,0-0.8,0-1,0.1c-0.2,0.1-0.2,0.5-0.3,0.8c0,0.4,0,0.4-0.2,0.7c-0.5-0.5-0.5,0.3-1,0.4
		c0.3-0.6,0.5-1.2,0.7-1.8c0.1-0.4,0.2-0.8,0.4-1.3c0,0-0.1,0-0.1,0c0.1-0.1,0.3-0.2,0.5-0.3c-0.2-0.1-0.3-0.1-0.4-0.2
		c0.1-0.1,0.1-0.2,0.2-0.3c0-0.2,0.1-0.4,0-0.5c-0.2-0.2-0.1-0.3,0-0.5c0.2-0.5,0.4-0.9,0.7-1.5c-0.2,0.1-0.3,0.2-0.4,0.3
		c0.4-0.7,0.7-1.3,1-2c0.4-0.8,0.8-1.6,1.2-2.3c0.2-0.3,0.5-0.5,0.7-0.7c0.3-0.4,0.8-0.4,1.3-0.5c0.1,0,0.2-0.1,0.3-0.2
		c0.1,0.1,0.2,0.3,0.3,0.4c0.9-0.2,1.7,0.3,2,1.2c0.2,0.9,0.4,1.7,0.5,2.6c0.1,0.6-0.1,1.2-0.1,1.8c0,0.7,0.1,1.4,0.1,2
		c0,0,0,0.1,0,0.1c-0.3,0.8,0,1.7-0.5,2.5c0,0,0,0.1,0,0.3c0.1-0.2,0.2-0.3,0.3-0.5c0,0,0.1,0,0.1,0.1c0,0.1,0,0.3,0,0.4
		c0.1,0,0.2,0,0.3,0c0,0.1,0,0.2-0.1,0.3c-0.4,0.4-0.2,0.8-0.2,1.2c0,0.2,0,0.5-0.1,0.7c-0.1,0.4-0.2,0.8-0.3,1.1
		c0,0.2-0.1,0.5,0,0.7c0.1,0.5,0.1,0.9-0.3,1.2c-0.1,0.1-0.1,0.2-0.2,0.3c0.3,0.1,0.4,0.2,0.2,0.5c-0.2,0.4-0.3,1-0.5,1.4
		c-0.6,0.9-0.6,1.9-1,2.8c0,0,0,0.1-0.1,0.1c-0.4,0.2-0.4,0.6-0.3,0.9c0,0.1,0.1,0.2,0,0.3c0,0.2-0.1,0.3-0.2,0.5c0,0.1,0,0.2,0,0.2
		c-0.5,0.4-0.3,1-0.5,1.5c-0.2,0.5-0.3,1-0.5,1.5c-0.1,0.3-0.2,0.6-0.3,0.8c0.4,0.1,0.9,0.3,1.3,0.4c0.3,0.1,0.5,0.1,0.7-0.1
		c0.1-0.1,0.2-0.1,0.2-0.1c0.7,0,1.3,0.1,2,0.1c-0.2,0.2-0.4,0.4,0,0.4c0.8,0.1,1.7,0.2,2.5,0.3c-0.1-0.2-0.1-0.3-0.2-0.4
		c0.7,0.1,1.4,0.2,2.1,0.3c1.3,0.2,2.6,0.4,3.9,0.5c0.7,0.1,1.3,0.2,2,0.3c0.5,0.1,0.7-0.1,0.6-0.5c0-0.1,0-0.2-0.1-0.2
		c-0.4-0.2-0.8-0.4-1.1-0.6c-0.2-0.1-0.4-0.2-0.3-0.6c0.1-0.6,0.6-1,1-1.3c0.2-0.2,0.7-0.2,1-0.2c0.3,0,0.6-0.1,0.9-0.1
		c0.6,0,1.2,0.1,1.7,0.6c0.1,0.1,0.1,0.2,0.2,0.2c0.6,0,1,0.4,1.5,0.6c0.2,0.1,0.4,0.3,0.6,0.5c0.1,0.1,0.2,0.1,0.2,0.1
		c0.4,0,0.8,0.1,0.9,0.6c0.2-0.2,0.3-0.4,0.4-0.5c0.6,0.2,0.7,0.5,0.5,1.2c0.1-0.1,0.2-0.3,0.4-0.5c0.1,0.4,0.2,0.7,0.4,1
		c0.1,0,0.2-0.1,0.3-0.2c0.2,0.6,0.4,1.2,0.5,1.9c0,0,0.2-0.1,0.4-0.1c-0.1,0.4,0.2,0.7-0.3,1c-0.1,0.1-0.1,0.5-0.1,0.7
		c0,0.2,0.1,0.4,0.2,0.7c-0.3-0.1-0.5-0.2-0.6-0.2c-0.2,0.7-0.4,1.4-0.6,2.1c-0.2,0.5-0.3,1.1-0.5,1.6c-0.1,0.2-0.3,0.4-0.5,0.6
		c-0.2,0.2-0.3,0.4-0.4,0.6c0.1,0,0.1,0.1,0.2,0.1c0-0.1,0.1-0.2,0.1-0.3c0,0,0.1,0.1,0.1,0.1c-0.1,0.3-0.2,0.5-0.3,0.8
		c-0.2,0.5-0.5,1.1-0.7,1.6c-0.1,0.1,0,0.3,0,0.5c0,0,0.1,0,0.1,0c0-0.1,0.1-0.2,0.1-0.3c0,0,0.1,0,0.1,0c0,0.2,0,0.4-0.1,0.6
		c-0.3,0.5-0.7,1.1-0.9,1.6c-0.2,0.4-0.4,0.8-0.5,1.3c0,0.1,0.1,0.2,0.1,0.3c-1.2,1.9-1.9,4-2.6,6.1c0-0.1,0-0.2,0-0.3
		c0.2-0.8,0.5-1.7,0.7-2.5c0,0,0-0.1,0-0.2c-0.4-0.3-0.1-0.7,0-1c0.1-0.3,0.2-0.7,0.2-1c-0.4,0.4-0.5,0.9-0.7,1.3
		c-0.3,1-0.6,2-0.9,3.1c-0.3,1.1-0.5,2.1-0.7,3.2c-0.1,0.8-0.2,1.6-0.4,2.4c-0.1-0.1-0.3-0.2-0.4-0.4c0,0.4-0.1,0.7-0.1,1
		c0,0,0,0,0.1,0c0-0.2,0.1-0.3,0.1-0.5c0,0,0.1,0,0.1,0c-0.1,0.3-0.2,0.7-0.3,1c-0.1,0.7-0.4,1.3,0.1,2.1c0.1-0.1,0.2-0.2,0.2-0.3
		c0,0.2,0,0.4,0,0.5c0,0,0.1,0,0.1,0c0.1-0.2,0.2-0.4,0.2-0.5c0-0.5-0.1-0.9-0.1-1.4c0-0.3,0-0.6,0-1c0.1,0.2,0.1,0.2,0.2,0.3
		c0.1-0.3,0.1-0.5,0.2-0.8c0,0,0,0,0.1,0c0,1.3-0.1,2.6-0.1,3.9c-0.4,0-0.5,0.2-0.4,0.6c0,0,0,0,0,0c0.1,0.6,0.4,0.9,0.9,1
		c-0.1,0.2-0.1,0.2-0.7,0c0,0.1,0,0.1,0,0.2c0.3,0.2,0.2,0.4,0.1,0.6c0,0.1-0.1,0.3,0,0.4c0.3,0.3,0.2,0.5-0.1,0.8
		c-0.1-0.1-0.1-0.2-0.1-0.3c-0.1,0.1-0.2,0.2-0.3,0.3c0,0-0.1,0-0.1,0c0,0.1,0,0.3,0,0.4c0,0,0,0-0.1,0c0-0.2-0.1-0.4-0.1-0.6
		c-0.5,0.7-0.5,1-0.1,1.6c-0.4,0-0.7-0.5-0.7-1c0-0.3,0-0.5,0-0.8c0-0.1-0.1-0.2-0.2-0.3c-0.3,0.8-0.1,1.5,0.2,2.1
		c-0.2,0.2-0.4,0.4-0.6,0.6c0,0,0,0.1,0.1,0.1c0.3,0,0.5,0,0.9,0c-0.2,0.2-0.3,0.5-0.6,0.2c-0.1-0.1-0.4-0.1-0.6,0
		c-0.5,0.3-1.1,0-1.6,0c-0.3,0-0.6,0.1-0.9-0.2c0,0-0.2,0-0.3,0c-0.1-0.1-0.2-0.3-0.3-0.5c0.1-0.2,0.2-0.4,0.5-0.1
		c0-0.1,0-0.1,0-0.2c-0.1-0.1-0.1-0.1-0.2-0.1c-0.4-0.1-0.7-0.4-0.8-0.7c-0.4-0.9-0.6-1.9-1.2-2.8c0-0.1,0-0.1,0-0.2
		c0.1,0.2,0.2,0.3,0.3,0.5c0.1-0.4,0.1-0.8,0.2-1.1c0,0,0.1,0,0.1-0.1c0,0.1,0.1,0.2,0.1,0.3c0,0,0.1-0.1,0.1-0.1
		c-0.1-0.2-0.1-0.4-0.2-0.6c0,0,0,0,0.1,0c0.1,0.1,0.1,0.1,0.3,0.2c0-0.3,0-0.5-0.1-0.8c0,0,0,0,0.1,0c0.1,0.2,0.2,0.4,0.4,0.6
		c0,0.1,0.2,0.1,0.2,0.1c0,0,0.1-0.1,0.1-0.2c-0.1-0.3-0.1-0.5-0.2-0.8c0-0.1-0.1-0.2-0.1-0.3c0,0,0.1,0,0.1,0
		c0,0.1,0.1,0.2,0.1,0.3c0,0,0.1,0,0.1,0c0-0.3,0-0.6,0-0.9c0,0,0.1,0,0.1,0c0.1,0.3,0.2,0.6,0.3,0.9c0,0,0,0,0.1,0
		c0-0.4,0-0.8,0-1.2c0-0.3,0-0.6,0-0.9c0-0.3,0-0.6,0-0.9c0-0.3,0.1-0.6,0.1-0.9c0-0.1,0.2-0.2,0.2-0.4c0-0.1,0.2-0.1,0.1-0.2
		c-0.1-0.6,0.2-1.1-0.1-1.7c-0.1-0.2,0-0.7,0.3-1c0.3-0.3,0.5-0.9,0.2-1.3c0.9-0.4,0.7-1.3,0.9-2c0,0,0.1,0,0.1,0
		c-0.2,0.8-0.3,1.5-0.5,2.3c0.1,0,0.1,0,0.2,0c0.1-0.5,0.3-1,0.4-1.5c0.1-0.3,0.2-0.7,0.3-1c0-0.2,0-0.4,0-0.6c0-0.2,0-0.4,0-0.7
		c-0.4-0.3,0.2-0.5,0.2-0.8c0.1,0.1,0.2,0.3,0.2,0.4c-0.1,0.3-0.2,0.7-0.3,1.2c0.1,0.1,0.2,0.1,0.3,0.2c0,0.1,0,0.3,0,0.4
		c0,0.1,0,0.2-0.1,0.2c-0.6,0.2-0.2,0.6-0.2,0.9c0,0.3,0.1,0.5,0.1,0.8c0,0.2-0.1,0.5-0.2,0.7c0-0.2,0-0.3,0-0.6
		c-0.3,0.3-0.3,0.7,0,0.9c0.3,0.3,0.1,0.5,0,0.7c0.3,0.4,0.1,0.9,0.1,1.3c0,0.5-0.1,0.9-0.1,1.4c0,0.1,0,0.2,0,0.2
		c0.4,0.4,0.1,0.9,0.1,1.3c0,0.4,0,0.8,0,1.2c0.1-0.1,0.2-0.2,0.2-0.3c0.5,0.5,0.4,1.2,0.4,1.8c0,0.4,0.1,0.7,0.1,1.1
		c0.3,0,0.4-0.1,0.6-0.1c0,0,0,0,0-0.1c0-0.3-0.1-0.5-0.1-0.8c0.1-0.9,0.1-1.8,0.2-2.6c0.1-0.6,0.1-1.3,0.4-1.8
		c0.7-1,0.4-2.1,0.7-3.1c0.3-0.7,0.4-1.5,0.6-2.3c0.2-0.7,0.3-1.3,0.5-2c0.2-0.8,0.5-1.6,0.8-2.4c0.2-0.7,0.5-1.5,0.7-2.2
		c0.1-0.3,0.2-0.6,0.3-1c0-0.1,0-0.2,0-0.3c0.1-0.2,0.3-0.4,0.4-0.6c0,0.1,0.1,0.2,0.2,0.4c0.5-0.8,0.7-1.6,0.8-2.4
		c-0.2,0.2-0.4,0.4-0.4,0.7c0,0.2-0.2,0.4-0.4,0.6c-0.2-0.2-0.4-0.3-0.4-0.3c0.1-0.3,0.2-0.6,0.3-0.9c0-0.2,0-0.4,0-0.6
		c0-0.2,0.1-0.3,0.3-0.4c0.3-0.3,0.5-0.6,0.4-1.1c-0.1,0.3-0.3,0.5-0.5,0.9c0-0.2-0.1-0.3-0.1-0.5c-0.1,0.2-0.2,0.3-0.4,0.5
		c0.1-0.4,0-0.8,0.3-1.2c0.2-0.3,0.3-0.8,0.4-1.3c-0.1,0-0.2-0.1-0.3-0.1c-0.4,0.7-0.9,1.6-1.3,2.4c0,0-0.1,0-0.1-0.1
		c0.1-0.2,0.3-0.5,0.2-0.7c-0.2-0.5,0.2-0.8,0.4-1.2c0.2-0.4,0.2-0.8,0.3-1.2c0-0.1,0-0.2-0.2-0.3c-0.1,0.5-0.3,0.9-0.5,1.5
		c0-0.2-0.1-0.2-0.1-0.4c-0.2,0.5-0.4,0.9-0.6,1.4c0,0-0.1,0-0.1,0c0.6-1.7,1.2-3.4,1.7-5.1c0,0,0,0-0.1,0c-0.2,0.3-0.4,0.7-0.6,1
		c-0.1,0.2,0,0.5-0.5,0.6c-0.3,0-0.4,0.5-0.5,0.8c-0.5-0.2-0.7,0.1-0.6,0.7c-0.4,0.2-0.8,0.3-1.2,0.5c0-0.2,0-0.4,0-0.6
		c-0.2,0-0.3,0.1-0.5,0.1c0.1-0.3,0.1-0.5,0.2-0.8c-0.3,0.1-0.5,0.2-0.7,0.3c0,0-0.1,0-0.1,0.1c-0.3,0.5-0.7,0.9-1,1.4
		c-0.1,0.1-0.2,0.1-0.3,0.1c-0.2,0.1-0.4,0.2-0.5,0.5c-0.1,0.2-0.2,0.5-0.6,0.4c0,0.1,0,0.3,0,0.4c0,0,0,0-0.1-0.1
		c-0.4,0.6-0.9,1.3-1.3,2c0.6-1.8,1.5-3.4,2.2-5.1c-0.9,0-1.7,0-2.4,0c-1.5,0-3.1-0.1-4.6-0.1c-2.2,0-4.4,0-6.6,0
		c-0.3,0-0.7,0.1-1,0.1c-0.3,0-0.5,0.1-0.6,0.4c-0.1,0.2-0.1,0.4-0.2,0.5c-0.1,0.1-0.3,0.2-0.4,0.3c0.1-0.3,0.2-0.7,0.3-1.1
		c-0.2,0-0.4,0.1-0.6,0.1c-0.1,0.5-0.1,0.9-0.2,1.3c0,0.3-0.1,0.7-0.1,1c-0.1,0.3-0.2,0.7-0.2,1c-0.2,1-0.3,2.1-0.5,3.2
		c0,0.1,0,0.3-0.1,0.4c-0.5,0.4-0.5,0.9-0.5,1.4c-0.1,0.5-0.1,1-0.2,1.4c-0.1,0.1-0.3,0.2-0.3,0.3c0,0.5,0,0.9,0,1.4
		c0,0,0.1,0,0.1,0c0-0.1,0.1-0.1,0.1-0.2c0,0,0.1,0,0.1,0c-0.1,0.1-0.2,0.3-0.2,0.4c-0.1,0.3-0.1,0.7-0.2,1c-0.1,0.9,0,1.8-0.1,2.6
		c-0.2,0.8,0,1.6-0.1,2.3c-0.1,0.6,0,1.2-0.1,1.7c0-0.5,0-0.9-0.1-1.4c-0.3,0.8-0.4,2.9-0.1,3.6c0.1-0.3,0.2-0.6,0.3-0.8
		c0,0,0.1,0,0.1,0c0,1.8,0.5,3.5,1,5.2c0,0,0.1,0,0.1,0c0-0.3,0.1-0.7,0.1-1c0-0.4,0-0.7,0-1.1c0-0.4,0-0.8,0-1.1
		c0,0,0.1,0.1,0.2,0.2c0-1,0-1.9,0-2.7c0,0,0,0,0.1,0c0.1,0.5,0.1,1.1,0.2,1.6c0,0.1-0.1,0.2-0.1,0.2c0,0.1-0.1,0.2-0.1,0.3
		c0,0.1,0,0.3,0,0.4c0,0.2,0.1,0.4,0.1,0.6c0,0.2,0.1,0.3,0,0.4c-0.2,0.4-0.1,0.7,0,1c0,0.2-0.1,0.4-0.1,0.6c0,0.1,0,0.3,0,0.3
		c0.6,0.3,0.6,0.9,0.5,1.5c0-0.1-0.1-0.2-0.1-0.3c0-0.4-0.1-0.6-0.6-0.5c-0.1,0-0.1,0-0.2,0c-0.1,0.5-0.2,0.9-0.3,1.4
		c0,0.1-0.1,0.1-0.1,0.2c-0.2,0.1-0.4,0.3-0.5,0.4c0.1,0.2,0.1,0.4,0.1,0.5c0,0.1,0,0.3-0.1,0.3c-0.2,0.2-0.4,0.3-0.6,0.5
		c-0.1-0.1-0.3-0.3-0.6-0.4c-0.1,0.3-0.1,0.6-0.2,0.9c-0.2-0.2-0.3-0.2-0.4-0.3c-0.1,0.1-0.2,0.3-0.2,0.4c-0.1,0.1-0.2,0.2-0.3,0.2
		c-0.3,0.1-0.6,0.4-0.6,0.7c-0.7-0.2-1.4,0.6-2.2,0.2c0.1-0.1,0.2-0.1,0.4-0.2c-0.1-0.1-0.3-0.1-0.4-0.2c-0.3-0.2-0.5-0.4-0.8-0.6
		c0.1-0.2,0.2-0.3,0.3-0.4c-0.1-0.2-0.2-0.3-0.3-0.5c-0.1-0.2-0.1-0.3-0.1-0.5c-0.1-0.2-0.1-0.4-0.3-0.5c-0.6-0.4-0.6-0.4-0.8-1
		c0.1,0,0.2,0.1,0.4,0.1c-0.2-0.4-0.3-0.7-0.5-1.1c-0.1,0.2-0.1,0.3-0.1,0.4c0,0-0.1,0-0.1,0c0-0.2-0.1-0.4-0.1-0.7c0,0,0,0,0,0
		c-0.1-0.3-0.3-0.6-0.4-0.9c0-0.3,0.1-0.7,0.1-1c0,0,0.1,0,0.1,0c0.3,0.6,0.5,1.2,0.8,1.8c0.1-0.1,0.1-0.2,0.2-0.3
		c0.1,0.4,0.2,0.7,0.2,1c0,0,0.1,0,0.1,0c0-0.3,0-0.7,0-1c0,0,0.1,0,0.1,0c0.1,0.4,0.1,0.8,0.2,1.2c0,0,0.1,0,0.1,0
		c0-0.1,0.1-0.2,0.2-0.4c0,0.2,0,0.4,0.1,0.5c0,0.1,0.1,0.2,0.2,0.3c0,0,0.2,0,0.2,0c0-0.1,0-0.2,0-0.3c-0.1-0.3-0.2-0.7-0.3-1
		c0-0.1-0.1-0.1-0.1-0.2c0-0.1-0.2-0.3-0.1-0.3c0.3-0.5,0.2-1.1,0-1.6c-0.2-0.8-0.2-1.5,0-2.2c0-0.2,0-0.3,0-0.5
		c-0.1-0.6-0.2-1.1-0.2-1.7c0.1,0.3,0.2,0.5,0.3,0.9c0.1-0.1,0.1-0.2,0.2-0.2c0,0,0.1,0,0.1,0c0,0.1-0.1,0.3-0.1,0.4
		c0,0.2,0,0.4,0,0.7c0,0.7-0.1,1.5-0.1,2.2c0,0.2,0.1,0.5,0.1,0.7c0,0,0.1,0,0.1,0c0-0.4,0-0.8-0.1-1.3c0,0,0,0,0.1,0
		c0.1,0.6,0.2,1.1,0.3,1.7c0,0,0.1,0,0.1,0C359.2,85.9,359.2,85.7,359.2,85.5L359.2,85.5z M339.3,78.9c0.2-0.2,0.4-0.5,0.6-0.7
		c0-0.1,0-0.1,0-0.2c0-0.7-0.1-1.4,0-2.2c0-0.7,0.2-1.4,0.2-2.1c0-0.9-0.1-1.9-0.1-2.8c-0.3,0.3-0.5,0.5-0.6,0.8
		c-0.1,0.7-0.1,1.4-0.2,2.1c0,0.1-0.2,0.3-0.1,0.4c0.3,0.5,0,0.9,0.1,1.4c0.1,0.6-0.3,1.2,0.2,1.8c0,0,0,0.1,0,0.2
		c0,0.2,0,0.5,0,0.7C339.3,78.4,339.3,78.6,339.3,78.9c0,0.2-0.1,0.4-0.1,0.7c0,0.1,0.1,0.2,0.1,0.3c0.1,0,0.1,0,0.2,0
		C339.4,79.5,339.4,79.2,339.3,78.9z M346.5,81.2c0.2-0.1,0.3-0.2,0.5-0.3c0,0.1,0.1,0.2,0.1,0.3c0,0.3,0,0.6,0,0.9
		c0.1,0.8,0.6,1.6,0.5,2.5c0,0.3,0.3,0.7,0.6,0.8c0.3,0.1,0.5-0.2,0.7-0.5c0.4-0.6,0.8-1.2,1.1-1.8c1-2.1,2-4.1,3-6.2
		c0.8-1.7,1.5-3.4,2.1-5.1c0.3-0.7,0.6-1.5,0.6-2.3c0,0,0,0,0.1,0c0,0.1,0.1,0.2,0.1,0.3c0.6-1,2.6-5.9,2.5-6.4
		c-0.2,0.1-0.4,0.1-0.6,0.2c-0.2,0.1-0.4,0.3-0.7,0.3c-0.4,0-0.8,0.1-1,0.4c0,0.1-0.2,0.1-0.3,0.2c0-0.1,0-0.2-0.1-0.3
		c-0.1,0.1-0.3,0.1-0.4,0.2c-0.2,0.2-0.4,0.4-0.6,0.6c0,0-0.2,0-0.2,0c-0.2-0.3-0.4-0.2-0.6-0.1c-0.4,0.1-0.8,0.3-1.2,0.4
		c-1.4,0.3-2.8,1-4.2,1.2c-0.4,0-0.6,0.3-0.6,0.6c-0.1,0.4-0.1,0.8-0.2,1.2c-0.2,0.7-0.3,1.5-0.4,2.2c0,0.6-0.1,1.3-0.2,1.9
		c0,0,0,0.1,0,0.1c-0.1,0.2-0.2,0.5-0.4,0.8c0.2,0,0.2,0,0.3,0c0,0.1-0.1,0.2-0.1,0.3c0.1,0.9-0.3,1.7-0.3,2.6
		c0,0.5,0.2,1.1-0.2,1.6c0,0,0,0.2,0,0.2c0,0.2,0.1,0.5,0,0.7c-0.1,0.6-0.2,1.1-0.2,1.7C346.4,80.6,346.5,80.9,346.5,81.2
		c-0.1-0.1-0.2-0.3-0.2-0.4c0,0-0.1,0.1-0.1,0.1c0,0.2,0,0.4,0.1,0.6c0,0,0.1,0,0.1,0C346.3,81.4,346.4,81.3,346.5,81.2z
		 M327.9,72.2C327.9,72.2,327.9,72.2,327.9,72.2c0-0.7,0-1.4-0.1-2.2c0-0.3-0.1-0.5-0.4-0.7c-0.6-0.3-1.2-0.6-1.8-0.9
		c-0.6-0.3-1.1-0.2-1.5,0.2c-0.3,0.2-0.6,0.5-0.8,0.9c-0.5,0.9-0.9,1.8-1.4,2.8c-0.3,0.7-0.6,1.5-1.5,1.6c-0.1,0-0.3,0.2-0.3,0.4
		c-0.1,0.6-0.3,1.2-0.3,1.8c-0.2,1.6-0.3,3.2-0.4,4.8c-0.1,1.4,0.1,2.8,0.8,4c0.1,0.2,0.3,0.3,0.4,0.3c0.7,0.2,1.4,0.1,2-0.3
		c1-0.7,2-1.4,2.9-2.3c0.8-0.8,1.4-1.8,1.8-2.9c0.5-1.4,0.5-3,0.7-4.4C328,74.2,327.9,73.2,327.9,72.2z M365.2,61.9
		c-0.4,0-0.5,0.1-0.5,0.4c0,0.4-0.1,0.7-0.1,1.1c0,0.1-0.1,0.2-0.1,0.3c0,0-0.1,0-0.1,0c0-0.2,0.1-0.3,0.1-0.5c0-0.1,0-0.3,0-0.4
		c0,0-0.1,0-0.1,0c-0.1,0.1-0.1,0.2-0.1,0.3c-0.1,0.3-0.1,0.6-0.2,0.9c-0.1,0.3-0.2,0.6-0.3,1c0,0.3-0.3,0.7,0.1,0.9
		c0,0,0,0.2-0.1,0.4c-0.1-0.1-0.1-0.1-0.1-0.2c0,0-0.1-0.1-0.1-0.1c-0.3,1-0.5,1.9-0.4,2.9c0.1,0,0.2-0.1,0.2-0.1
		c0,0.3,0,0.5-0.1,0.8c0,0.2,0,0.4-0.1,0.4c-0.3,0.3-0.3,0.6-0.3,0.9c-0.1,1,0,1.9-0.2,2.9c-0.2,1.1,0,2.3,0,3.5
		c0.1-0.9,0.1-1.8,0.2-2.6c0-0.1,0.1-0.1,0.2-0.2c0,0.5,0,1,0,1.5c0,1-0.1,2.1-0.1,3.1c0,0.2-0.1,0.5-0.1,0.7
		c0.1,1.2,0.1,2.5,0.2,3.7c0,0.5,0.1,0.9,0.6,1.4c0-0.2,0.1-0.3,0.1-0.4c0-0.5-0.2-0.9-0.2-1.4c0.1-1.1,0-2.1-0.1-3.2
		c0-0.4,0.1-0.8,0.2-1.1c0-0.2,0.1-0.4,0-0.5c-0.3-0.4-0.1-0.8-0.1-1.2c0-0.3,0.2-0.5,0.2-0.8c0,0,0.1,0,0.1,0
		c0,0.3,0.1,0.6,0.1,0.9c0,0,0.1,0,0.1,0c0-0.3,0.1-0.7,0.1-1c0-0.3,0.2-0.7-0.1-1c-0.1-0.1,0-0.4,0.1-0.6c0.3-0.6,0.4-1.6,0-2
		c-0.1-0.1-0.1-0.2-0.1-0.4c0-0.6,0.1-1.2,0.2-1.9c0.1-0.7,0-1.3,0.3-2c0.1-0.2,0-0.5,0-0.7c0-0.2,0-0.4,0-0.7
		c0-0.2,0.1-0.4,0.1-0.5c0.1-0.4,0.1-0.8,0.2-1.3C364.9,64,365,63,365.2,61.9z M344.8,77.5c0,0,0.1,0.1,0.1,0.1
		c-0.4,0.7,0.1,5.3,0.7,6.4c0-0.1,0-0.2,0-0.3c0-0.2,0-0.4,0-0.7c0-0.1,0-0.2,0-0.3c0-1.2-0.1-2.3-0.1-3.5c0-0.4-0.1-0.9,0-1.3
		c0.1-0.4,0.3-0.8,0.2-1.3c-0.1-0.3-0.1-0.6-0.4-0.8c-0.3,0.5-0.6,1-0.9,1.6c-0.1-0.4-0.1-0.7-0.1-1.1c-0.1,0-0.1,0-0.2,0
		c0,0.1,0,0.2,0,0.3c0,0.4,0.1,0.7,0.1,1.1c-0.1,0.7-0.2,1.4-0.3,2.1c-0.4,0.1-0.4,0.2-0.2,0.9c0.1-0.1,0.3-0.1,0.4-0.2
		c0.1-0.4,0.2-0.7,0.4-1.1c0,0,0.1,0,0.1-0.1c0-0.2,0-0.3,0-0.5c0-0.4,0-0.8,0.1-1.2C344.6,77.7,344.8,77.6,344.8,77.5z M341.3,60.8
		c0-0.2,0.1-0.4,0.1-0.6c0.1-0.5,0.2-1,0.3-1.6c0-0.3,0.1-0.5,0.1-0.8c0-0.2,0-0.4,0.1-0.5c0.2-0.6,0.4-1.1,0.6-1.7
		c0.1-0.2,0-0.3,0.1-0.5c0.1-0.4,0.3-0.7,0.4-1.1c0-0.1-0.1-0.3-0.1-0.4c0,0-0.1,0-0.1,0c-0.1,0.2-0.2,0.5-0.3,0.7
		c-0.2,0.4-0.4,0.9-0.5,1.3c-0.2,0.8-0.4,1.7-0.6,2.5c-0.1,0.3-0.2,0.5-0.3,0.8c-0.2,0.3-0.3,0.6-0.1,0.9
		C340.5,60.3,340.5,60.5,341.3,60.8z M339.2,70.9c0.5-0.1,0.7-0.4,0.7-0.6c0-0.5,0-1,0-1.5c0-0.2,0.1-0.4,0.3-0.7
		c0.2-0.3,0.2-0.7,0.3-1.1c-0.6-0.2-0.8-0.1-0.9,0.4c0,0.2,0.1,0.4,0,0.5c-0.3,0.7-0.4,1.4-0.4,2.2
		C339.2,70.4,339.2,70.6,339.2,70.9z M347.1,86.2c0-0.2,0.1-0.4,0-0.5c-0.3-0.6-0.3-1.2-0.5-1.9c-0.1-0.4-0.4-0.8-0.6-1.3
		c-0.1,0-0.1,0-0.2,0c0.1,0.7,0.1,1.4,0.2,2C346.3,85.2,346.5,85.8,347.1,86.2z M381.8,79.8c-0.1,0-0.2,0-0.2,0
		c0,0.1-0.1,0.3-0.1,0.4c0,0.1,0.1,0.3,0,0.4c-0.2,0.6-0.4,1.3-0.4,1.9c0,0.7,0,1.3,0,2c0,0.1,0.1,0.3,0.2,0.4c0,0,0.1,0,0.1,0
		c0-0.5,0-1.1,0-1.6c0.1-0.7,0.2-1.3,0.3-2C381.7,80.8,381.8,80.3,381.8,79.8z M344.7,75.3c0.4-0.6,0.4-1.9-0.1-2.2
		c0,0.3-0.1,0.6-0.1,0.8c0,0.2-0.1,0.3-0.2,0.4c0,0.2,0,0.5,0.1,0.8c0.1-0.2,0.2-0.2,0.2-0.3C344.7,75.1,344.7,75.2,344.7,75.3z
		 M343.3,53.1c0.1-0.4,0.2-0.8,0.2-1.1c0.1-0.2,0.1-0.5,0.2-0.7c0.1-0.4,0.3-0.9,0.4-1.3c-0.1,0-0.1,0-0.2-0.1
		c-0.1,0.2-0.2,0.4-0.3,0.6c-0.2,0.5-0.4,1.1-0.5,1.7C343.2,52.4,342.9,52.7,343.3,53.1z M388.9,70.6c0,0-0.1,0-0.1,0
		c-0.1,0.2-0.2,0.5-0.3,0.8c0-0.1-0.1-0.2-0.1-0.3c0,0-0.1,0-0.1,0c-0.1,0.2-0.2,0.4-0.3,0.6c0,0,0.1,0,0.1,0.1
		c0.1-0.1,0.2-0.1,0.3-0.2c-0.1,0.4-0.3,0.7-0.4,1c-0.1,0.3-0.2,0.6-0.3,0.9C388.3,72.7,389,71.1,388.9,70.6z M342.6,74.2
		c0.2-1,0.6-1.9,0.3-2.9C343,72.3,342.3,73.2,342.6,74.2z M339.7,82.3c0,0-0.1,0-0.1,0c0.2,0.7,0.3,1.4,0.5,2.1
		C340.3,84,340,82.5,339.7,82.3z M380.9,84.9c-0.3,0.2-0.1,0.5-0.1,0.7c0,0.4,0.4,0.7,0,1.1c-0.1,0.1,0,0.3,0.1,0.4
		c0.2-0.4,0.2-0.9,0.3-1.3C381.3,85.5,381.3,85.2,380.9,84.9z M360.5,87.8c-0.1,0.1-0.2,0.1-0.2,0.2c0.1,0,0.2,0.1,0.2,0.1
		c0.2,0,0.4-0.1,0.3-0.3c-0.1-0.3-0.1-0.6-0.2-0.8c0-0.1-0.2-0.1-0.3-0.2c0,0.1-0.1,0.3-0.1,0.4C360.3,87.3,360.4,87.5,360.5,87.8z
		 M388.4,55.1c0.1,0.5,0.4,0.8,0.8,0.8c0.1,0,0.2,0.2,0.3,0.3c0-0.1,0.1-0.2,0.1-0.3C389.5,55.4,388.8,55.4,388.4,55.1
		C388.5,55.1,388.4,55.1,388.4,55.1z M366,63c-0.2,0.8-0.3,1.6-0.5,2.4C366,64.9,366.2,63.3,366,63z M368.1,44.1
		c-0.5,0.2-0.8,0.8-0.6,1.3C368,45,368,44.6,368.1,44.1z M392.4,61.7c-0.5,0.3-0.6,0.8-0.5,1.4C392.4,62.7,392.2,62.2,392.4,61.7z
		 M383.9,90.4c0,0.1,0,0.1,0,0.2c0.2,0,0.4,0.1,0.6,0c0.1,0,0.2-0.2,0.3-0.4c0,0-0.2-0.2-0.2-0.2c-0.1,0-0.2,0.2-0.4,0.3
		C384.2,90.3,384,90.3,383.9,90.4z M342.5,78.3c0.1,0,0.1,0,0.2,0c0-0.5-0.1-1-0.1-1.5c-0.1,0-0.1,0-0.2,0
		C342.2,77.3,342.4,77.8,342.5,78.3z M379,90.3c0,0,0.1,0,0.1,0c-0.1-0.3-0.1-0.6-0.2-0.9c-0.2,0.1-0.3,0.1-0.4,0.2
		C378.7,89.9,378.9,90.1,379,90.3z M336.9,70c0,0,0.1,0,0.1,0c0-0.5,0.1-1,0.1-1.5c0,0-0.1,0-0.1,0C337,69,336.9,69.5,336.9,70z
		 M364.7,70.2c-0.1,0.3-0.5,0.6-0.2,0.9c0,0,0.1,0,0.1,0C364.7,70.8,364.7,70.5,364.7,70.2z M341.6,69.9c0,0-0.1,0-0.1,0
		c0,0.4-0.1,0.8-0.1,1.2c0,0,0.1,0,0.1,0C341.6,70.7,341.6,70.3,341.6,69.9z M343.9,82.9C344,82.9,344,82.9,343.9,82.9
		c0.1-0.3,0.2-0.6-0.1-0.8c0,0-0.1,0-0.1,0C343.8,82.4,343.9,82.7,343.9,82.9z"/>
	<path class="st0" d="M400.1,40.5c0,0.5-0.2,0.6-0.6,0.4c-0.1,0-0.1-0.1-0.1-0.1c-0.3,0.4-0.5-0.1-0.7-0.1c-0.4-0.1-0.8-0.1-1.2-0.4
		c0,0-0.2,0.1-0.3,0.1c0,0,0,0.1,0,0.1c-0.1,0-0.1,0-0.2,0c-0.2-0.1-0.5-0.2-0.5-0.3c0-0.2,0.1-0.4,0.2-0.6c0.1-0.1,0.2-0.2,0.2-0.3
		c-0.1,0-0.3-0.1-0.4-0.1c-0.1,0-0.2,0-0.3,0c0.1,0.1,0.1,0.2,0.2,0.3c-0.2,0-0.4,0-0.5,0c-0.3-0.6-1-0.6-1.5-0.8
		c-0.3-0.1-0.6-0.4-1-0.5c-0.6-0.1-1.1-0.3-1.4-0.9c0,0-0.1-0.1-0.1-0.1c-0.6-0.2-0.6-0.2-0.8-0.8c0.2-0.2,0.4-0.3,0.6-0.5
		c0-0.1-0.1-0.2-0.2-0.3c0.2,0,0.4,0,0.6,0c0,0,0,0,0-0.1c-0.1-0.1-0.2-0.2-0.3-0.2c0-0.3,0-0.5,0-0.7c0.1,0,0.2,0,0.3,0
		c0.2-0.4-0.1-0.8-0.4-1c-0.2-0.2-0.3-0.4,0-0.6c0.3-0.2,0.3-0.4,0-0.6c-0.1-0.1-0.2-0.2-0.3-0.3c0,0,0.1-0.1,0.1-0.1
		c0.2,0.1,0.4,0.3,0.6,0.4c0,0,0,0,0.1-0.1c-0.3-0.3-0.6-0.6-0.9-0.9c0.6,0.1,1,0.6,1.3,1.2c0.1-0.2,0.1-0.3,0.1-0.4
		c0,0,0.1,0,0.1-0.1c0.1,0.2,0.3,0.4,0.4,0.7c0.1,0.3,0.2,0.3,0.4,0.3c0.4-0.5,0.4-1.1,0.5-1.6c1,1,2.1,2,3.1,2.9
		c0.1-0.1,0.2-0.2,0.3-0.3c0.2,0.4-0.2,0.8,0.3,1c0-0.1,0.1-0.3,0.2-0.4c0.1,0,0.2,0.1,0.2,0.1c0,0.1,0,0.3-0.1,0.4
		c0.3,0.5,0.6,1,0.8,1.5c0,0,0.1,0,0.1,0c0-0.2,0.1-0.4,0.1-0.6c0.1,0,0.1,0,0.1,0c0.1,0.6,0.7,1,0.7,1.6c0,0,0,0.1,0,0.1
		c0.5,0.2,0.4,0.8,0.7,1.2c0.4,0.5,0.3,1-0.3,1.2C400.6,40.6,400.3,40.5,400.1,40.5z M397.6,37.8c0.2,0.2,0.3,0.4,0.5,0.5
		c0.1,0.1,0.2,0.1,0.2,0.1c0-0.1,0.1-0.2,0.1-0.2C398.2,38.1,398,37.7,397.6,37.8z"/>
	<path class="st0" d="M312.7,115c-0.6-0.2-1.3-0.3-1.8-0.9c-0.3-0.5-0.7-0.9-0.7-1.5c-0.1-1,0.5-2.2,1.5-2.7
		c0.8-0.4,1.6-0.4,2.3-0.1c0.6,0.3,1.2,0.8,1.4,1.5c0.2,0.4,0.1,0.9,0.1,1.4c0,0.2-0.1,0.3-0.2,0.5c-0.4,0.6-0.9,1.2-1.6,1.5
		C313.4,114.9,313,114.9,312.7,115z"/>
	<path class="st0" d="M363.8,94.6c0.6-0.1,1.1,0.1,1.3,0.7c0.3,0.6,0,1.5-0.5,2c-0.4,0.3-0.8,0.6-1.4,0.5c-1.2-0.2-1.7-1.3-0.9-2.4
		C362.7,94.7,363,94.6,363.8,94.6z"/>
	<path class="st0" d="M313.5,100.4c0,0.9-0.6,1.4-1.3,1.4c-0.7,0-1.3-0.5-1.3-1.2c0-0.8,0.6-1.6,1.3-1.5
		C313,99.1,313.6,99.4,313.5,100.4z"/>
	<path class="st0" d="M327.4,93.8c0.1-0.2,0.2-0.5,0.4-0.7c0.4-0.3,0.8-0.6,1.4-0.6c0.6,0,1.1,0.8,0.9,1.5c-0.2,0.8-0.7,1.1-1.5,1.2
		C327.9,95.2,327.4,94.7,327.4,93.8z"/>
	<path class="st0" d="M309.5,117.4c0.6,0,0.8,0.3,0.8,0.9c0,0.7-0.4,1.1-1,1.1c-0.5,0-1-0.5-1-1
		C308.4,117.8,308.8,117.4,309.5,117.4z"/>
	<path class="st0" d="M361.2,72.6c0,0.8,0,1.5,0,2.3c0,1,0,2-0.1,3c0,0.2-0.1,0.4-0.1,0.6c0,0.2,0,0.4,0,0.7c0,0.2,0,0.4-0.1,0.6
		c0,0.1-0.2,0.2-0.2,0.4c0-0.2,0-0.5,0-0.7c0.1-1.3,0.2-2.7,0.2-4c0-0.5,0-1,0-1.6c0-0.1,0-0.1,0-0.2
		C360.6,73.2,361.1,72.9,361.2,72.6z"/>
	<path class="st0" d="M361.4,65.8c0.3,0.3,0.3,0.6,0,1c0,0-0.1,0.1-0.1,0.1c0.1,0.5-0.2,0.9-0.2,1.4c0,0.1,0,0.1,0.1,0.3
		c0.1-0.2,0.1-0.4,0.2-0.5c0.1,0,0.2,0,0.3,0c-0.1,0.2-0.1,0.5-0.2,0.6c-0.3,0.2-0.2,0.5-0.2,0.7c0,0.8-0.1,1.7-0.1,2.5
		c0,0.1-0.1,0.2-0.1,0.2c0,0-0.1,0-0.1,0c0-0.2,0.1-0.4,0.1-0.6c0-0.2,0.2-0.5-0.1-0.7c-0.1,0-0.1-0.2,0-0.3c0.3-0.6,0.2-1.2,0-1.8
		c-0.1-0.2,0-0.5,0-0.7c0.1-0.7,0.2-1.4,0.4-2.1C361.3,65.9,361.4,65.9,361.4,65.8L361.4,65.8z"/>
	<path class="st0" d="M358.6,72.8c-0.1,1.9-0.2,3.7-0.3,5.6c0,0-0.1,0-0.1,0c-0.1-0.3-0.1-0.6-0.1-0.9c0-0.4,0-0.8,0-1.2
		c0-0.1,0-0.3,0-0.4c0.1-0.6,0.1-1.2,0.1-1.7c0-0.4,0.1-0.7,0.1-1.1c0-0.1,0.1-0.2,0.2-0.3C358.5,72.8,358.6,72.8,358.6,72.8z"/>
	<path class="st0" d="M377.9,88.5c-0.3-0.9-0.6-1.7-0.3-2.7c0.1,0.1,0.1,0.1,0.3,0.2c0-0.2,0-0.3,0-0.4c0.2,0.4,0.6,0.6,0.5,1.2
		c-0.1-0.2-0.2-0.3-0.2-0.4c-0.2,0.7-0.5,1.4,0.1,2.1C378.1,88.5,378,88.5,377.9,88.5z"/>
	<path class="st0" d="M383.4,82c-0.2-0.9,0.9-5.4,1.3-5.7C384.3,78.2,383.8,80.1,383.4,82z"/>
	<path class="st0" d="M384.3,80.6c-0.2,1.9-0.4,3.7-0.5,5.6c0,0-0.1,0-0.1,0c0-0.3,0-0.7,0-1c0-0.2,0-0.5,0-0.7c0-0.2,0-0.4,0-0.6
		c0.1-0.5,0.2-1,0.2-1.5C383.8,81.7,384.1,81.1,384.3,80.6C384.3,80.5,384.3,80.5,384.3,80.6z"/>
	<path class="st0" d="M386.8,91.7c-0.1-0.1-0.1-0.2-0.2-0.2c-0.1-0.4-0.2-0.7-0.3-1.1c0-0.2,0.1-0.4,0.2-0.7
		c0.1,0.2,0.2,0.4,0.3,0.5c0,0,0.1,0,0.1,0c0-0.2-0.1-0.4-0.1-0.6c0,0,0.1,0,0.1,0c0,0.1,0,0.2,0.1,0.3c0.1,0.3-0.1,0.7,0.3,0.8
		c0,0,0,0.1,0,0.2c-0.1,0-0.2,0-0.3,0C387,91.1,386.9,91.4,386.8,91.7z"/>
	<path class="st0" d="M363.9,49.7c-0.1,0.5-0.2,1.1-0.4,1.6c-0.1,0.5-0.4,1-0.5,1.4c-0.1,0.3-0.2,0.5-0.3,0.8c0,0-0.1,0-0.1,0
		c0.2-0.6,0.3-1.3,0.6-1.9C363.3,50.9,363.6,50.3,363.9,49.7L363.9,49.7z"/>
	<path class="st0" d="M377.3,82.6c0.1-0.8,0.1-1.7,0.2-2.5c0,0,0.1,0,0.1,0c0,0.1,0,0.2,0,0.4c0.1,0,0.1-0.1,0.2-0.1
		c0,0.1,0.1,0.2,0.1,0.3c0,0.7-0.3,1.3-0.4,2C377.4,82.6,377.3,82.6,377.3,82.6z"/>
	<path class="st0" d="M364.8,80.8c-0.1-0.4-0.2-0.9,0.1-1.3c0-0.1,0-0.2,0-0.3c-0.2-0.5-0.2-0.9,0-1.4
		C364.9,78.8,365.2,79.8,364.8,80.8z"/>
	<path class="st0" d="M386.8,73.8c-0.3,1.1-0.6,2.2-0.9,3.2C386,75.9,386.2,74.8,386.8,73.8C386.7,73.8,386.8,73.8,386.8,73.8z"/>
	<path class="st0" d="M387.7,89.6c-0.1-0.4-0.1-0.8-0.2-1.1c0,0,0.1,0,0.1-0.1c0.1,0.1,0.2,0.2,0.2,0.3c-0.1,0.4,0,0.7,0.2,1
		c0.1,0.1,0.1,0.3,0.1,0.4c0,0-0.1,0-0.1,0c-0.1-0.1-0.2-0.2-0.4-0.4c-0.1,0.1-0.2,0.3-0.3,0.4C387.2,89.8,387.3,89.7,387.7,89.6z"
		/>
	<path class="st0" d="M387.4,71.2c0.3-0.8,0.6-1.6,1-2.4c0-0.1,0.1-0.1,0.3-0.1c-0.4,0.9-0.8,1.8-1.1,2.6
		C387.5,71.3,387.4,71.2,387.4,71.2z"/>
	<path class="st0" d="M365.5,51.8c-0.2,0.7-0.3,1.4-0.9,1.9c0.3-0.7,0.5-1.3,0.8-2C365.4,51.8,365.4,51.8,365.5,51.8z"/>
	<path class="st0" d="M388.4,75.7c-0.1,0.7-0.1,1.3-0.2,2c0,0-0.1,0-0.1,0c-0.1-0.1-0.2-0.2-0.1-0.3c0-0.4,0.1-0.7,0.2-1
		C388.2,76.2,388.3,76,388.4,75.7C388.4,75.7,388.4,75.7,388.4,75.7z"/>
	<path class="st0" d="M361.4,65.8c0.1-0.6,0.3-1.3,0.5-2c0,0.1,0.1,0.2,0.1,0.2c-0.1,0.5-0.1,1-0.2,1.4
		C361.6,65.6,361.5,65.7,361.4,65.8L361.4,65.8z"/>
	<path class="st0" d="M337.1,83.6c-0.1-0.8-0.3-1.6-0.4-2.5c0,0,0.1,0,0.1,0c0.1,0.8,0.3,1.7,0.4,2.5
		C337.2,83.6,337.1,83.6,337.1,83.6z"/>
	<path class="st0" d="M383.1,74.2c0-0.5-0.1-1-0.1-1.4c0,0,0.1,0,0.1,0C383.5,73.2,383.2,73.7,383.1,74.2z"/>
	<path class="st0" d="M386.5,89.5c-0.1-0.2-0.2-0.3-0.3-0.5c0-0.1,0-0.2,0-0.3c0.1,0.1,0.2,0.1,0.2,0.2c0,0.1,0.1,0.1,0.1,0.3
		c0.1-0.2,0.1-0.4,0.2-0.6c0,0,0,0,0.1,0c0,0.2-0.1,0.3-0.1,0.5C386.7,89.2,386.6,89.3,386.5,89.5z"/>
	<path class="st0" d="M359.5,72.3c-0.1,0.7-0.1,1.3-0.2,2c0,0-0.1,0-0.1,0c0-0.7,0.1-1.3,0.1-2C359.4,72.3,359.5,72.3,359.5,72.3z"
		/>
	<path class="st0" d="M367.1,63.3c0.2-0.3,0.4-0.5,0.6-0.7C367.8,63.1,367.7,63.4,367.1,63.3z"/>
	<path class="st0" d="M359,55.7c-0.1,0.4-0.2,0.8-0.2,1.1c-0.1,0-0.1,0-0.2-0.1c0.1-0.4,0.2-0.8,0.3-1.1
		C358.9,55.7,359,55.7,359,55.7z"/>
	<path class="st0" d="M363.9,49.7c0.2-0.7,0.4-1.3,0.6-2c0,0,0.1,0,0.1,0c0,0.2,0,0.3-0.1,0.5c-0.1,0.5-0.3,0.9-0.5,1.3
		C364,49.6,363.9,49.6,363.9,49.7L363.9,49.7z"/>
	<path class="st0" d="M384.5,94c-0.4-0.4-0.4-0.6,0-1c0,0.2,0,0.3,0,0.5C384.6,93.7,384.6,93.8,384.5,94z"/>
	<path class="st0" d="M318.3,98.5c-0.2,0.1-0.3,0.2-0.4,0.3c-0.1-0.1-0.2-0.2-0.2-0.3c0-0.1,0.2-0.2,0.3-0.3
		C318,98.2,318.1,98.4,318.3,98.5z"/>
	<path class="st0" d="M358.4,71c0.1-0.5,0.3-1,0.4-1.5c0,0,0.1,0,0.1,0c-0.1,0.5-0.2,1-0.3,1.5C358.5,71.1,358.4,71.1,358.4,71z"/>
	<path class="st0" d="M355.8,79.6c-0.1,0-0.2,0.1-0.3,0.1c-0.1-0.3-0.2-0.5-0.3-0.8c0,0,0.1,0,0.1,0
		C355.5,79.1,355.6,79.3,355.8,79.6z"/>
	<path class="st0" d="M365.2,72.1c-0.1,0.4-0.1,0.8-0.2,1.1c0,0-0.1,0-0.1,0c0-0.4,0-0.8,0.1-1.2C365.1,72.1,365.2,72.1,365.2,72.1z
		"/>
	<path class="st0" d="M387.7,69.4c-0.1,0.4-0.3,0.8-0.4,1.2c0,0-0.1,0-0.1,0c0.1-0.4,0.2-0.8,0.4-1.3
		C387.7,69.4,387.7,69.4,387.7,69.4z"/>
	<path class="st0" d="M388,67.6c-0.2,0.3-0.5,0.6-0.8,0.9C387.2,68.1,387.4,67.8,388,67.6z"/>
	<path class="st0" d="M361.4,49.1c0,0.6-0.4,0.5-0.7,0.3c0.1,0,0.2,0,0.3-0.1C361.1,49.3,361.2,49.2,361.4,49.1z"/>
	<path class="st0" d="M379.8,69.6c0-0.4,0.1-0.7,0.3-1c0,0,0.1,0,0.1,0c-0.1,0.3-0.2,0.6-0.3,0.9C379.8,69.6,379.8,69.6,379.8,69.6z
		"/>
	<path class="st0" d="M386.6,78.4c-0.1,0.5-0.3,1-0.4,1.5c0,0-0.1,0-0.1,0C386.3,79.4,386.4,78.9,386.6,78.4
		C386.6,78.4,386.6,78.4,386.6,78.4z"/>
	<path class="st0" d="M363.5,48.8c-0.1,0.3-0.2,0.5-0.4,0.8c0,0-0.1,0-0.1,0c0-0.3,0.1-0.6,0.4-0.8
		C363.5,48.8,363.5,48.8,363.5,48.8z"/>
	<path class="st0" d="M359.2,85.5c-0.1-0.5-0.2-1-0.3-1.4c0.1,0,0.1,0,0.2,0C359.1,84.5,359.2,85,359.2,85.5L359.2,85.5z"/>
	<path class="st0" d="M383.9,86.9c0,0.3,0,0.6,0,0.9c-0.1,0-0.1,0-0.2,0C383.8,87.5,383.8,87.2,383.9,86.9
		C383.9,86.9,383.9,86.9,383.9,86.9z"/>
	<path class="st0" d="M363.1,71.7c0,0.4-0.1,0.9-0.1,1.3c0,0,0,0-0.1,0c0-0.4,0-0.9,0-1.3C363,71.7,363,71.7,363.1,71.7z"/>
	<path class="st0" d="M364,67.8c-0.1,0.5-0.2,1.1-0.2,1.6c0,0-0.1,0-0.1,0c0.1-0.5,0.2-1.1,0.2-1.6C363.9,67.7,364,67.8,364,67.8z"
		/>
</g>
</svg>
