<svg xmlns="http://www.w3.org/2000/svg" viewBox="0 0 529.08 110.66"><defs><style>.cls-1{fill:#fff;}</style></defs><title>helimods_logo</title><g id="Art"><polygon class="cls-1" points="165.41 110.66 191.79 12.41 191.79 12.46 167.16 12.46 167.21 12.41 140.84 110.66 165.41 110.66"/><polygon class="cls-1" points="39.05 110.66 53.78 54.8 44.57 54.84 42.86 54.8 28.13 110.66 0 110.66 29.51 0 48.42 0.05 57.64 0 47.62 37.34 58.5 37.34 68.57 0 96.89 0.05 96.89 0 67.38 110.66 39.05 110.66"/><polygon class="cls-1" points="199.42 110.66 174.79 110.66 194.23 37.75 194.25 37.75 218.87 37.75 218.87 37.7 199.42 110.66"/><polygon class="cls-1" points="196.55 29.23 221.17 29.23 225.79 12.41 225.79 12.46 201.15 12.46 196.55 29.23"/><polygon class="cls-1" points="502.09 37.75 502.81 37.84 503.48 38.13 504.05 38.6 504.48 39.17 504.76 39.84 504.86 40.55 504.76 41.27 504.33 42.89 504.33 42.84 502.24 50.65 527.5 50.65 528.41 47.17 528.41 47.22 528.84 45.37 529.03 43.46 529.08 41.56 528.94 39.65 528.6 37.79 528.13 35.98 527.41 34.17 526.6 32.51 525.6 30.89 524.4 29.36 523.12 27.98 521.68 26.74 520.16 25.6 518.53 24.65 516.77 23.84 515 23.22 513.14 22.79 511.28 22.5 509.37 22.41 499.73 22.41 497.3 22.5 494.91 22.79 492.57 23.22 490.28 23.89 488.04 24.7 485.85 25.65 483.75 26.79 481.74 28.12 479.83 29.55 478.07 31.17 476.4 32.89 474.87 34.74 473.49 36.7 472.29 38.79 471.24 40.94 470.34 43.13 469.67 45.41 469.67 45.37 469.1 47.51 468.71 49.32 468.52 51.13 468.48 52.94 468.62 54.75 469 56.56 469.52 58.32 470.19 60.03 471.05 61.65 472.06 63.18 473.25 64.56 474.54 65.85 475.97 67.04 477.5 68.04 479.12 68.89 479.07 68.85 490.09 73.94 491.09 74.51 491.95 75.28 492.72 76.13 493.29 77.13 493.67 78.18 493.86 79.33 493.86 80.47 493.67 81.61 493.67 81.56 490.76 92.47 490.47 93.23 490 93.95 489.38 94.56 488.61 94.99 487.8 95.28 486.94 95.38 486.51 95.38 485.65 95.28 484.84 94.99 484.13 94.52 483.55 93.9 483.13 93.18 482.84 92.37 482.79 91.56 482.89 90.71 485.51 80.9 485.51 80.94 460.12 80.94 460.12 80.9 458.69 86.28 458.26 88.18 458.07 90.14 458.02 92.09 458.21 94.09 458.6 95.99 459.22 97.9 459.98 99.71 460.89 101.42 462.03 103.04 463.32 104.52 464.75 105.9 466.28 107.09 467.95 108.14 469.71 109.04 471.58 109.71 473.49 110.19 475.44 110.52 477.4 110.62 488.04 110.62 490.38 110.52 492.72 110.23 495.01 109.81 497.25 109.19 499.49 108.38 501.59 107.42 503.64 106.28 505.65 105.04 507.51 103.61 509.23 102.04 510.85 100.33 512.33 98.52 513.67 96.61 514.86 94.61 515.91 92.47 516.77 90.33 517.44 88.09 519.49 80.47 519.49 80.52 519.82 78.85 520.01 77.08 519.97 75.37 519.77 73.61 519.39 71.89 518.82 70.28 518.06 68.7 517.1 67.23 516.05 65.85 514.81 64.61 513.47 63.46 512 62.51 497.68 54.23 496.82 53.65 496.06 52.89 495.44 52.03 494.91 51.08 494.63 50.08 494.43 49.03 494.48 47.98 494.67 46.94 495.96 41.98 495.96 42.03 496.34 41.03 496.92 40.13 497.63 39.32 498.49 38.65 499.45 38.17 500.5 37.89 501.54 37.75 502.09 37.75"/><polygon class="cls-1" points="140.77 77.12 140.76 77.17 140.77 77.17 140.77 77.12"/><path class="cls-1" d="M176.63,66.63l-.38-1.86-.52-1.87L175,61.14l-1-1.67-1-1.58-1.24-1.47-1.44-1.34-1.48-1.15-1.62-1L165.42,52l-1.77-.67-1.86-.48-1.91-.29L158,50.5h-6.58l-2.39.09-2.39.29-2.38.43-2.34.67-2.24.81-2.2,1-2.1,1.15-2,1.28-1.91,1.48-1.81,1.63L128,61l-1.53,1.86-1.34,2-1.24,2-1,2.15-.91,2.24-.71,2.29v0l-11.29,42.5-.38,1.76-.19,1.86v1.82l.14,1.81.38,1.81.53,1.77.71,1.67.91,1.62,1,1.48,1.2,1.43,1.33,1.24,1.44,1.15,1.57,1,1.62.81,1.72.67,1.81.43,1.82.29,1.81.09h8.3l2.34-.09,2.34-.24,2.29-.48,2.29-.62,2.2-.81,2.14-.95,2.06-1.1,1.95-1.29,1.86-1.43,1.72-1.58,1.62-1.67,1.48-1.86,1.39-1.91,1.14-2,1-2.1.86-2.2.72-2.24,2.9-10.93H145.49v0L141.29,121l-.33.91-.53.81-.62.72-.76.62-.86.43-.95.24-1.05.09-.81-.09-.72-.24L134,124l-.57-.57-.39-.62-.24-.77,0-.76.09-.76,6.25-24.29h31l6-22v.05l.38-1.86.24-1.91V68.58Zm-21.49,2V68.6l-4.22,14.51h-8.24L147,68.36v0l.33-.86.53-.76.67-.62.76-.48.91-.29,2.32-.09h.1l.66.09.67.24.53.43.43.57.28.62.05.67Z" transform="translate(-27.2 -28.09)"/><path class="cls-1" d="M420.48,68.27l-.34-1.91-.52-1.91L419,62.64l-.9-1.72-1-1.68-1.19-1.57-1.33-1.44L413,54.94l-1.58-1.14-1.67-1L408,52l-1.82-.62-1.9-.48-1.91-.29-2-.09h-7.25l-2.53.09-2.49.29-2.43.43-2.43.67-2.39.76-2.29,1-2.24,1.14-2.15,1.3-2.05,1.43-1.91,1.62L368.42,61l-1.67,1.87-1.53,2-1.38,2.1-1.24,2.2-1.1,2.24-.91,2.34-.71,2.39v0l-10.22,38.23-.43,1.82-.19,1.86-.05,1.86.15,1.91.33,1.82.48,1.82.67,1.76.86,1.68,1,1.62,1.1,1.48,1.28,1.39,1.44,1.24,1.52,1.1,1.63,1,1.67.77,1.76.62,1.86.48,1.86.24,1.86.09h10.7l2.43-.09,2.38-.29,2.34-.43,2.34-.67,2.24-.81,2.2-1,2.15-1.15,2-1.29,1.91-1.48,1.77-1.63,1.67-1.72,1.52-1.86,1.39-2,1.24-2,1.05-2.15.86-2.25.71-2.34L420,76v0l.38-1.91.24-2,0-2ZM396,69.78v0l-13.5,50.41-.29.86-.48.77-.62.71-.71.53-.86.43-.86.29-.91,0H376.2l-.67-.09-.67-.24-.52-.43-.43-.57-.29-.63-.09-.71.09-.72,13.7-51.32v0l.38-.86.53-.76.67-.67.81-.48.85-.33,1-.1h.09l2.19.1.76.33.62.48.48.62.33.76.1.77Z" transform="translate(-27.2 -28.09)"/><path class="cls-1" d="M468.86,52.37s-4.05-1.87-13.21-1.87c-.87,0-2.24.09-2.24.09l-2.19.29-2.15.48-2.15.66-2.05.86-2,1L441,55.12l-1.72,1.33L437.62,58l-1.48,1.62-1.39,1.76-1.19,1.86-1,2-.86,2-.67,2.1v0l-13.21,49.36-.38,1.67-.14,1.72v1.71l.19,1.72.38,1.66.57,1.62.72,1.57.9,1.48,1.05,1.33,1.2,1.24,1.29,1.1,1.43,1,1.52.76,1.63.67,1.62.43,1.72.28,1.72.1h2.57l9.87,0H470.2L499.76,28.14H475.2Zm-6,17.35v0l-13.51,50.25-.28.85-.48.77-.62.71-.71.52-.86.43-.86.29-.91.05H443l-.67-.1-.67-.24-.52-.43-.43-.57-.29-.62-.09-.71.09-.72L454.15,69v0l.38-.86.52-.76.67-.67.82-.47.85-.34,1-.09h.09l2.18.09.77.34.62.47.48.62.33.77.1.76Z" transform="translate(-27.2 -28.09)"/><path class="cls-1" d="M341.51,40.23c-16.38,0-22.35,9.9-22.35,9.9s.43-9.81-13.21-9.9c-11.47-.07-17.65,6-20.59,9l2.11-8.7H262.2l-26.34,98.21H262l18-68.68c2-6.93,11.56-6.7,9.84,0l-18.19,68.68h26.72l18.14-68.68c2-6.93,11.56-6.7,9.84,0l-18.1,68.68h25.63l21.63-80.63C357.6,48.94,354,40.23,341.51,40.23Z" transform="translate(-27.2 -28.09)"/></g></svg>