<?xml version="1.0" encoding="utf-8"?>
<!-- Generator: Adobe Illustrator 23.0.3, SVG Export Plug-In . SVG Version: 6.00 Build 0)  -->
<svg version="1.1" xmlns="http://www.w3.org/2000/svg" xmlns:xlink="http://www.w3.org/1999/xlink" x="0px" y="0px"
	 viewBox="0 0 231 73" style="enable-background:new 0 0 231 73;" xml:space="preserve">
<g id="Layer_1">
</g>
<g id="Navigation">
	<g>
		<path d="M20.3,55.6c0,1.2-0.5,2.2-1.5,3.2c-0.1,0.1-1.1,0.9-3,2.3c-1.2,0.9-2,1.8-2.3,2.6h4.9v-1.9h1.9v3.7h-9
			c0-1.8,0.6-3.3,1.8-4.6c0.3-0.3,1.4-1.2,3.4-2.6c1.2-0.9,1.8-1.8,1.8-2.6c0-1.5-0.7-2.2-2.2-2.2c-1,0-1.7,0.2-2.2,0.7
			c-0.4,0.3-0.6,0.9-0.7,1.6h-1.8c0.1-1.1,0.4-2,1.1-2.7c0.8-0.9,2-1.3,3.6-1.3c1.2,0,2.2,0.3,2.9,1C19.9,53.4,20.3,54.4,20.3,55.6"
			/>
		<path d="M33.7,61.4c0,1.4-0.4,2.5-1.3,3.2c-0.8,0.7-2,1.1-3.4,1.1c-1.2,0-2.2-0.2-3-0.6c-0.8-0.4-1.4-1.1-2-2.1l1.5-0.7
			c0.4,0.7,0.8,1.2,1.4,1.5c0.5,0.3,1.2,0.4,2.1,0.4c1.9,0,2.8-0.9,2.8-2.7c0-0.7-0.2-1.3-0.6-1.7c-0.4-0.4-1-0.6-1.8-0.6h-2.2
			l-0.5-1.7h2.6c0.6,0,1.2-0.2,1.5-0.5c0.4-0.4,0.6-0.9,0.6-1.6c0-1.3-0.8-2-2.3-2c-0.9,0-1.6,0.1-2.1,0.3c-0.5,0.3-1,0.7-1.4,1.4
			l-1.5-0.7c0.5-1,1.2-1.7,2-2.1c0.8-0.4,1.8-0.6,3-0.6c1.5,0,2.6,0.4,3.4,1.1c0.6,0.6,1,1.5,1,2.6c0,1.3-0.5,2.2-1.6,2.9
			C33.1,58.8,33.7,59.8,33.7,61.4"/>
		<path d="M55.1,65.4H53l-1.5-4h-5l-1.5,4h-2L48,52h2.1L55.1,65.4z M50.9,59.7l-1.7-4.5c-0.1-0.2-0.1-0.4-0.2-0.7l0-0.2
			c0,0.2-0.1,0.5-0.2,0.9l-1.7,4.5H50.9z"/>
		<path d="M68.6,59.9c0,2-0.5,3.5-1.5,4.5c-0.9,0.9-2.2,1.4-3.9,1.4c-3.6,0-5.4-1.9-5.4-5.8V52h2v7.9c0,1.5,0.3,2.5,0.9,3.2
			c0.6,0.6,1.4,0.9,2.6,0.9c1.2,0,2-0.3,2.6-0.9c0.6-0.7,0.9-1.7,0.9-3.2V52h2V59.9z"/>
		<path d="M82.7,63.9c-0.7,0.6-1.4,1-2,1.3c-0.8,0.4-1.8,0.6-2.8,0.6c-3.9,0-5.8-2.3-5.8-7c0-4.7,1.9-7,5.8-7c1.6,0,2.8,0.4,3.6,1.2
			c0.7,0.7,1.1,1.6,1.2,2.8h-1.8c-0.2-1.5-1.2-2.3-3-2.3c-1.5,0-2.5,0.5-3.1,1.4c-0.5,0.8-0.7,2.1-0.7,3.9c0,1.7,0.2,3,0.7,3.8
			c0.6,1,1.6,1.5,3.1,1.5c1,0,2-0.3,2.8-0.8v-2.7c0-0.1,0-0.2,0.1-0.4h-2.9l-0.5-1.8h5.3V63.9z"/>
		<rect x="92.5" y="59" width="5.3" height="1.8"/>
		<path d="M115.7,65.4h-7.3v-1.8h2.7v-9.1c0-0.3,0-0.5,0.1-0.7l-2.8,0.5v-1.7l4.6-0.9v12h2.7V65.4z"/>
		<path d="M136.6,61.6c0,1.2-0.4,2.2-1.2,3c-0.9,0.8-2.2,1.2-3.9,1.2c-2.4,0-4-0.9-4.8-2.7l1.6-0.8c0.7,1.2,1.7,1.8,3.2,1.8
			c2.1,0,3.1-0.8,3.1-2.4c0-1.1-0.6-1.8-1.8-2l-2.8-0.5c-2-0.4-3.1-1.6-3.1-3.7c0-1.1,0.3-1.9,1-2.6c0.8-0.7,2-1.1,3.7-1.1
			c2.2,0,3.7,0.8,4.6,2.3l-1.7,0.8c-0.6-1-1.6-1.4-3-1.4c-1.8,0-2.7,0.7-2.7,2c0,0.6,0.1,1,0.3,1.2c0.2,0.3,0.6,0.4,1.2,0.5l2.8,0.5
			C135.5,58,136.6,59.3,136.6,61.6"/>
		<path d="M148.9,65.4h-8.8V52h8.8v1.8h-6.8v3.7h6.2l-0.5,1.8H142c0.1,0.2,0.1,0.4,0.1,0.6v3.8h6.8V65.4z"/>
		<path d="M161.9,56.3c0,1.3-0.4,2.3-1.1,3c-0.9,0.8-2.1,1.2-3.7,1.2h-2.6c0.1,0.2,0.1,0.3,0.1,0.5v4.4h-2V52h4.5
			c1.6,0,2.9,0.4,3.7,1.3C161.5,54,161.9,55,161.9,56.3 M159.9,56.3c0-1.7-1-2.6-2.9-2.6h-2.5v5.2h2.5
			C158.9,58.8,159.9,58,159.9,56.3"/>
		<path d="M180.9,55.6c0,1.2-0.5,2.2-1.5,3.2c-0.1,0.1-1.1,0.9-3,2.3c-1.2,0.9-2,1.8-2.3,2.6h4.9v-1.9h1.9v3.7h-9
			c0-1.8,0.6-3.3,1.8-4.6c0.3-0.3,1.4-1.2,3.4-2.6c1.2-0.9,1.8-1.8,1.8-2.6c0-1.5-0.7-2.2-2.2-2.2c-1,0-1.7,0.2-2.2,0.7
			c-0.4,0.3-0.6,0.9-0.7,1.6h-1.8c0.1-1.1,0.4-2,1.1-2.7c0.8-0.9,2-1.3,3.6-1.3c1.2,0,2.2,0.3,2.9,1
			C180.5,53.4,180.9,54.4,180.9,55.6"/>
		<path d="M194.2,58.6c0,2.3-0.3,4-0.8,5.1c-0.7,1.4-2,2.1-3.8,2.1c-1.9,0-3.1-0.7-3.8-2.1c-0.5-1.1-0.8-2.7-0.8-5.1
			c0-2.2,0.3-3.8,0.8-4.9c0.7-1.3,2-2,3.8-2c1.8,0,3,0.7,3.8,2C193.9,54.7,194.2,56.4,194.2,58.6 M192.2,58.6c0-1.9-0.1-3.2-0.4-3.9
			c-0.4-0.9-1.1-1.3-2.2-1.3c-1.1,0-1.8,0.4-2.2,1.3c-0.3,0.7-0.4,2-0.4,3.9c0,2,0.1,3.4,0.4,4.1c0.4,0.9,1.1,1.4,2.2,1.4
			c1.1,0,1.8-0.5,2.2-1.4C192.1,61.9,192.2,60.5,192.2,58.6"/>
		<path d="M206.4,65.4h-7.3v-1.8h2.7v-9.1c0-0.3,0-0.5,0.1-0.7l-2.8,0.5v-1.7l4.6-0.9v12h2.7V65.4z"/>
		<path d="M220.5,56.5c0,0.2,0,0.6,0,1.2c0,0.5,0,0.9,0,1.2c0,2.1-0.3,3.7-0.8,4.7c-0.7,1.4-2.1,2.2-4.2,2.2c-1.9,0-3.3-0.6-4.1-1.9
			l1.3-1.2c0.8,0.9,1.8,1.4,2.8,1.4c1,0,1.7-0.3,2.2-0.8c0.5-0.6,0.7-1.6,0.8-3.1c-0.7,0.6-1.6,0.9-2.7,0.9c-3.1,0-4.7-1.5-4.7-4.5
			c0-3.2,1.6-4.8,4.7-4.8C218.9,51.7,220.5,53.3,220.5,56.5 M218.5,56.5c0-1.1-0.2-1.9-0.6-2.4c-0.4-0.5-1.1-0.7-2.1-0.7
			c-1,0-1.6,0.2-2.1,0.7c-0.4,0.5-0.6,1.3-0.6,2.4c0,1,0.2,1.7,0.6,2.2c0.4,0.4,1.1,0.6,2.1,0.6C217.6,59.3,218.5,58.4,218.5,56.5"
			/>
		<polygon points="14.4,26.7 31.1,26.7 31.1,41.2 34.7,41.2 34.7,8.7 31.1,8.7 31.1,23.1 14.4,23.1 14.4,8.7 10.8,8.7 10.8,41.2 
			14.4,41.2 		"/>
		<rect x="45.2" y="37.7" width="20.7" height="3.5"/>
		<path d="M55.7,32.3c6.5,0,11.8-5.3,11.8-11.8c0-6.5-5.3-11.8-11.8-11.8c-6.5,0-11.8,5.3-11.8,11.8C43.9,27,49.2,32.3,55.7,32.3
			 M55.7,12.2c4.6,0,8.3,3.7,8.3,8.3c0,4.6-3.7,8.3-8.3,8.3c-4.6,0-8.3-3.7-8.3-8.3C47.4,15.9,51.2,12.2,55.7,12.2"/>
		<path d="M81.5,26.7h5.1l9.1,14.5h4.2l-9.2-14.7l1.4-0.4c3.1-0.9,6.8-3,6.8-8.5c0-8.9-10.1-9-10.5-9H77.9V13l6.4,10.2h-6.4v18h3.6
			V26.7z M81.7,12.2h6.7c2.4,0,6.9,1.1,6.9,5.5c0,3-2.3,5.1-6.1,5.4l-0.7,0.1L81.7,12.2z"/>
		<rect x="109.7" y="8.7" width="3.6" height="32.6"/>
		<polygon points="123.8,8.5 123.8,12.1 142.6,12.1 124.7,41.1 149.8,41.1 149.8,37.6 131.1,37.6 148.9,8.5 		"/>
		<path d="M171.9,32.3c6.5,0,11.8-5.3,11.8-11.8c0-6.5-5.3-11.8-11.8-11.8c-6.5,0-11.8,5.3-11.8,11.8
			C160.1,27,165.4,32.3,171.9,32.3 M171.9,12.2c4.6,0,8.3,3.7,8.3,8.3c0,4.6-3.7,8.3-8.3,8.3c-4.6,0-8.3-3.7-8.3-8.3
			C163.6,15.9,167.3,12.2,171.9,12.2"/>
		<rect x="161.4" y="37.7" width="20.7" height="3.5"/>
		<polygon points="197.6,14 216.7,41.2 220.8,41.2 220.8,8.7 217.3,8.7 217.3,35.9 198.2,8.7 194.1,8.7 194.1,41.2 197.6,41.2 		"/>
		<polygon points="14.4,26.7 31.1,26.7 31.1,41.2 34.7,41.2 34.7,8.7 31.1,8.7 31.1,23.1 14.4,23.1 14.4,8.7 10.8,8.7 10.8,41.2 
			14.4,41.2 		"/>
		<rect x="45.2" y="37.7" width="20.7" height="3.5"/>
		<path d="M55.7,32.3c6.5,0,11.8-5.3,11.8-11.8c0-6.5-5.3-11.8-11.8-11.8c-6.5,0-11.8,5.3-11.8,11.8C43.9,27,49.2,32.3,55.7,32.3
			 M55.7,12.2c4.6,0,8.3,3.7,8.3,8.3c0,4.6-3.7,8.3-8.3,8.3c-4.6,0-8.3-3.7-8.3-8.3C47.4,15.9,51.2,12.2,55.7,12.2"/>
		<path d="M81.5,26.7h5.1l9.1,14.5h4.2l-9.2-14.7l1.4-0.4c3.1-0.9,6.8-3,6.8-8.5c0-8.9-10.1-9-10.5-9H77.9V13l6.4,10.2h-6.4v18h3.6
			V26.7z M81.7,12.2h6.7c2.4,0,6.9,1.1,6.9,5.5c0,3-2.3,5.1-6.1,5.4l-0.7,0.1L81.7,12.2z"/>
		<rect x="109.7" y="8.7" width="3.6" height="32.6"/>
		<polygon points="123.8,8.5 123.8,12.1 142.6,12.1 124.7,41.1 149.8,41.1 149.8,37.6 131.1,37.6 148.9,8.5 		"/>
		<path d="M171.9,32.3c6.5,0,11.8-5.3,11.8-11.8c0-6.5-5.3-11.8-11.8-11.8c-6.5,0-11.8,5.3-11.8,11.8
			C160.1,27,165.4,32.3,171.9,32.3 M171.9,12.2c4.6,0,8.3,3.7,8.3,8.3c0,4.6-3.7,8.3-8.3,8.3c-4.6,0-8.3-3.7-8.3-8.3
			C163.6,15.9,167.3,12.2,171.9,12.2"/>
		<rect x="161.4" y="37.7" width="20.7" height="3.5"/>
		<polygon points="197.6,14 216.7,41.2 220.8,41.2 220.8,8.7 217.3,8.7 217.3,35.9 198.2,8.7 194.1,8.7 194.1,41.2 197.6,41.2 		"/>
	</g>
</g>
</svg>
