<svg width="653.33331" height="338.66666" xmlns="http://www.w3.org/2000/svg">
 <metadata id="metadata8">image/svg+xml</metadata>

 <g>
  <title>background</title>
  <rect fill="none" id="canvas_background" height="402" width="582" y="-1" x="-1"/>
 </g>
 <g>
  <title>Layer 1</title>
  <g id="g10" transform="matrix(1.3333333,0,0,-1.3333333,0,338.66667) ">
   <g id="g12" transform="translate(39,15.75) scale(0.10000000149011612) ">
    <path fill="#ffffff" fill-rule="nonzero" d="m365.730643,712.238c-1.289,-91.316 -35.219,-169.34 -101.828,-234.074c-66.61,-64.73 -158.199,-98.586 -274.766,-101.519c-81.113,1.488 -153.898,20.289 -218.398,56.371c-64.461,36.082 -118.055,80.484 -160.73862,133.218l99.91362,110.157c27.754,-33.227 65.75,-66.102 113.989,-98.625c48.273,-32.563 109.336,-50.075 183.176,-52.536c48.234,0.04 91.394,15.321 129.386,45.813c37.996,30.453 58.051,75.836 60.203,136.074c0.938,43.391 -20.172,84.707 -63.406,123.914c-43.234,39.249 -114.34,85.019 -213.277,137.409c-74.899,39.95 -137.129,84.9 -186.696,134.82c-49.566,49.88 -75.2847,110.82 -77.1636,182.82c2.9726,98.78 37.332,173.41 103.1206,223.83c65.75,50.47 144.946,75.76 237.59,75.92c58.989,-0.87 113.95,-12.59 164.922,-35.22c50.973,-22.64 97.61,-51.02 139.942,-85.18l-74.309,-122.98c-76.852,58.91 -156.242,89.68 -238.254,92.22c-37.058,0.51 -73.062,-9.42 -107.891,-29.79c-34.867,-20.33 -53.554,-53.95 -56.054,-100.85c1.25,-47.78 20.558,-84.83 57.972,-111.14c37.407,-26.3 85.528,-55 144.395,-86.11c99.293,-51.99 179.977,-108.13 242.129,-168.44c62.113,-60.32 94.129,-135.688 96.043,-226.102" id="path14"/>
    <path fill="#ffffff" fill-rule="nonzero" d="m740.105643,415.125l-180.461,0l492.761,1132.285l96.33,0l495.99,-1132.285l-179.37,0l-364.8,829.995l-360.45,-829.995" id="path16"/>
    <path fill="#ffffff" fill-rule="nonzero" d="m2084.125643,75.863l-169.06,-228.01144l0,1699.54844l169.06,0l0,-1471.537" id="path18"/>
    <path fill="#ffffff" fill-rule="nonzero" d="m3272.365643,415.074l-748.89,0l0,1132.326l684.82,0l0,-148.58l-515.75,0l0,-314.18l482.44,0l0,-148.58l-482.44,0l0,-372.404l579.82,0l0,-148.582" id="path20"/>
    <path fill="#ffffff" fill-rule="nonzero" d="m4495.015643,415.074l-169.06,0l0,983.746l-563.61,0l0,-983.746l-169.06,0l0,1132.326l901.73,0l0,-1132.326" id="path22"/>
    <path fill="#ffffff" fill-rule="nonzero" d="m2127.675643,1854.03l-128.06,-128.1l-128.1,128.1l128.1,128.1l128.06,-128.1" id="path24"/>
    <path fill="#ffffff" fill-rule="nonzero" d="m2127.675643,2254.28l-128.06,-128.1l-128.1,128.1l128.1,128.1l128.06,-128.1" id="path26"/>
    <path fill="#ffffff" fill-rule="nonzero" d="m1921.315643,2051.75l-128.06,-128.1l-128.1,128.1l128.1,128.1l128.06,-128.1" id="path28"/>
   </g>
  </g>
 </g>
</svg>