<?xml version="1.0" encoding="UTF-8"?>
<svg width="519px" height="270px" viewBox="0 0 519 270" version="1.1" xmlns="http://www.w3.org/2000/svg" xmlns:xlink="http://www.w3.org/1999/xlink">
    <!-- Generator: Sketch 64 (93537) - https://sketch.com -->
    <title>logo</title>
    <desc>Created with Sketch.</desc>
    <g id="Page-1" stroke="none" stroke-width="1" fill="none" fill-rule="evenodd">
        <g id="logo" fill="#FFFFFF" fill-rule="nonzero">
            <path d="M80.3,177.4 C80.2,187.1 76.6,195.4 69.5,202.3 C62.4,209.2 52.7,212.8 40.3,213.1 C31.7,212.9 24,210.9 17.1,207.1 C10.3,203.3 4.6,198.6 0,193 L10.6,181.3 C13.5,184.8 17.6,188.3 22.7,191.8 C27.8,195.3 34.3,197.1 42.2,197.4 C47.3,197.4 51.9,195.8 55.9,192.5 C59.9,189.3 62.1,184.4 62.3,178 C62.4,173.4 60.2,169 55.6,164.8 C51,160.6 43.5,155.8 32.9,150.2 C24.9,146 18.3,141.2 13.1,135.9 C7.8,130.6 5.1,124.1 4.9,116.5 C5.2,106 8.9,98.1 15.9,92.7 C22.9,87.3 31.3,84.7 41.1,84.6 C47.4,84.7 53.2,85.9 58.6,88.3 C64,90.7 69,93.7 73.5,97.4 L65.6,110.5 C57.4,104.2 49,101 40.3,100.7 C36.4,100.6 32.5,101.7 28.8,103.9 C25.1,106.1 23.1,109.6 22.8,114.6 C22.9,119.7 25,123.6 29,126.4 C33,129.2 38.1,132.2 44.3,135.5 C54.8,141 63.4,147 70,153.4 C76.7,159.8 80.1,167.8 80.3,177.4" id="Path"></path>
            <polyline id="Path" points="120.1 209 100.9 209 153.3 88.7 163.5 88.7 216.2 209 197.2 209 158.4 120.8 120.1 209"></polyline>
            <polyline id="Path" points="262.9 245 244.9 269.2 244.9 88.7 262.9 88.7 262.9 245"></polyline>
            <polyline id="Path" points="389.1 209 309.5 209 309.5 88.7 382.3 88.7 382.3 104.5 327.5 104.5 327.5 137.9 378.7 137.9 378.7 153.6 327.5 153.6 327.5 193.2 389.1 193.2 389.1 209"></polyline>
            <polyline id="Path" points="519 209 501 209 501 104.5 441.1 104.5 441.1 209 423.2 209 423.2 88.7 519 88.7 519 209"></polyline>
            <polyline id="Path" points="267.5 56.1 253.9 69.7 240.3 56.1 253.9 42.5 267.5 56.1"></polyline>
            <polyline id="Path" points="267.5 13.6 253.9 27.2 240.3 13.6 253.9 0 267.5 13.6"></polyline>
            <polyline id="Path" points="245.6 35.1 232 48.7 218.4 35.1 232 21.5 245.6 35.1"></polyline>
        </g>
    </g>
</svg>