<?xml version="1.0" encoding="UTF-8"?>
<svg width="217px" height="81px" viewBox="0 0 217 81" version="1.1" xmlns="http://www.w3.org/2000/svg" xmlns:xlink="http://www.w3.org/1999/xlink">
    <!-- Generator: Sketch 64 (93537) - https://sketch.com -->
    <title>matthew_flinders_logo</title>
    <desc>Created with Sketch.</desc>
    <g id="Page-1" stroke="none" stroke-width="1" fill="none" fill-rule="evenodd">
        <g id="matthew_flinders_logo" transform="translate(0.000000, -1.000000)" fill="#FFFFFF" fill-rule="nonzero">
            <path d="M95.87,23.51 C95.73,25.42 95.6,27.32 95.46,29.23 C95.26,29.2 95.05,29.18 94.85,29.18 C94.65,29.18 94.45,29.18 94.26,29.18 C94.06,29.18 93.86,29.18 93.66,29.18 C93.46,29.18 93.26,29.2 93.06,29.23 C93.6,26.3 94.09,23.4 94.51,20.5 C94.94,17.61 95.33,14.67 95.68,11.7 C95.87,11.73 96.04,11.76 96.2,11.79 C96.36,11.82 96.54,11.83 96.72,11.83 C96.87,11.83 97.03,11.82 97.2,11.79 C97.37,11.76 97.55,11.73 97.74,11.7 C98.2,12.72 98.68,13.76 99.18,14.81 C99.68,15.87 100.18,16.92 100.69,17.96 C101.19,19.01 101.69,20.03 102.2,21.04 C102.71,22.05 103.18,23 103.64,23.9 C104.66,22 105.68,20 106.69,17.92 C107.7,15.84 108.67,13.76 109.59,11.71 C110.02,11.8 110.38,11.84 110.69,11.84 C110.98,11.84 111.34,11.8 111.76,11.71 C111.93,13.17 112.11,14.75 112.31,16.43 C112.51,18.11 112.7,19.76 112.88,21.37 C113.07,22.98 113.25,24.48 113.44,25.87 C113.63,27.27 113.8,28.39 113.95,29.24 C113.61,29.21 113.26,29.19 112.92,29.19 C112.57,29.19 112.23,29.19 111.89,29.19 C111.55,29.19 111.2,29.19 110.84,29.19 C110.48,29.19 110.13,29.21 109.77,29.24 C109.68,27.49 109.54,25.59 109.35,23.55 C109.15,21.51 108.95,19.48 108.75,17.48 L108.7,17.48 C107.73,19.49 106.78,21.46 105.84,23.4 C104.9,25.34 103.98,27.29 103.06,29.24 C102.97,29.22 102.89,29.21 102.82,29.2 C102.74,29.19 102.66,29.19 102.58,29.19 C102.49,29.19 102.41,29.19 102.34,29.2 C102.26,29.21 102.18,29.22 102.1,29.24 C101.18,27.33 100.27,25.43 99.36,23.52 C98.45,21.62 97.51,19.68 96.54,17.73 L96.49,17.73 C96.21,19.67 96.01,21.61 95.87,23.51 Z" id="Path"></path>
            <path d="M131.52,29.23 C131.11,29.2 130.72,29.18 130.36,29.18 C129.99,29.18 129.63,29.18 129.28,29.18 C128.92,29.18 128.56,29.18 128.2,29.18 C127.83,29.18 127.47,29.2 127.12,29.23 C126.85,28.4 126.57,27.55 126.28,26.68 C125.99,25.81 125.68,24.94 125.36,24.08 C124.82,24.06 124.27,24.05 123.73,24.04 C123.19,24.03 122.64,24.03 122.1,24.03 C121.66,24.03 121.22,24.03 120.77,24.04 C120.33,24.05 119.88,24.06 119.44,24.08 C119.1,24.95 118.78,25.82 118.5,26.68 C118.21,27.55 117.95,28.4 117.71,29.23 C117.51,29.2 117.31,29.18 117.11,29.18 C116.91,29.18 116.71,29.18 116.51,29.18 C116.31,29.18 116.1,29.18 115.9,29.18 C115.7,29.18 115.47,29.2 115.24,29.23 C115.44,28.79 115.72,28.18 116.06,27.39 C116.4,26.61 116.77,25.72 117.18,24.74 C117.59,23.75 118.03,22.69 118.49,21.56 C118.96,20.43 119.43,19.29 119.89,18.13 C120.36,16.97 120.82,15.83 121.27,14.71 C121.72,13.59 122.13,12.54 122.51,11.57 C122.68,11.6 122.84,11.63 123,11.66 C123.15,11.69 123.31,11.7 123.48,11.7 C123.65,11.7 123.81,11.69 123.96,11.66 C124.11,11.63 124.27,11.6 124.45,11.57 C124.99,13.02 125.58,14.56 126.2,16.21 C126.82,17.86 127.45,19.48 128.08,21.07 C128.71,22.66 129.32,24.17 129.92,25.6 C130.52,27.03 131.03,28.24 131.52,29.23 Z M122.49,16.49 C122.05,17.51 121.63,18.52 121.24,19.51 C120.85,20.51 120.47,21.52 120.09,22.56 L124.76,22.56 C124.39,21.52 124.02,20.51 123.65,19.51 C123.28,18.52 122.9,17.51 122.49,16.49 Z" id="Shape"></path>
            <path d="M135.26,14.5 C135.25,14.09 135.23,13.79 135.2,13.61 C134.94,13.61 134.63,13.62 134.26,13.64 C133.89,13.66 133.49,13.68 133.06,13.7 C132.63,13.73 132.2,13.76 131.76,13.8 C131.32,13.84 130.91,13.89 130.53,13.94 C130.56,13.75 130.59,13.57 130.62,13.38 C130.65,13.19 130.66,13.01 130.66,12.82 C130.66,12.63 130.65,12.45 130.62,12.26 C130.59,12.07 130.56,11.89 130.53,11.7 C131.11,11.72 131.63,11.73 132.1,11.75 C132.57,11.77 133.04,11.78 133.53,11.79 C134.01,11.8 134.54,11.81 135.11,11.82 C135.68,11.83 136.36,11.83 137.16,11.83 C137.96,11.83 138.64,11.83 139.21,11.82 C139.78,11.81 140.3,11.8 140.78,11.79 C141.26,11.78 141.72,11.77 142.17,11.75 C142.62,11.73 143.11,11.72 143.64,11.7 C143.61,11.89 143.58,12.07 143.55,12.26 C143.52,12.45 143.51,12.63 143.51,12.82 C143.51,13.01 143.52,13.19 143.55,13.38 C143.58,13.57 143.61,13.75 143.64,13.94 C143.3,13.89 142.92,13.84 142.49,13.8 C142.06,13.76 141.64,13.72 141.23,13.7 C140.81,13.67 140.42,13.65 140.04,13.64 C139.67,13.62 139.35,13.61 139.1,13.61 C139.08,13.7 139.07,13.81 139.06,13.97 C139.05,14.12 139.05,14.3 139.05,14.51 L139.05,15.86 L139.05,22.24 C139.05,23.65 139.07,24.91 139.1,26 C139.13,27.1 139.19,28.17 139.25,29.23 C138.96,29.2 138.65,29.18 138.31,29.18 C137.97,29.18 137.59,29.18 137.16,29.18 C136.73,29.18 136.35,29.18 136.01,29.18 C135.67,29.18 135.35,29.2 135.07,29.23 C135.14,28.18 135.19,27.1 135.22,26 C135.25,24.9 135.27,23.65 135.27,22.24 L135.27,15.86 C135.27,15.36 135.27,14.91 135.26,14.5 Z" id="Path"></path>
            <path d="M149.45,14.5 C149.44,14.09 149.42,13.79 149.39,13.61 C149.13,13.61 148.82,13.62 148.45,13.64 C148.08,13.66 147.68,13.68 147.25,13.7 C146.82,13.73 146.39,13.76 145.95,13.8 C145.51,13.84 145.1,13.89 144.72,13.94 C144.75,13.75 144.78,13.57 144.81,13.38 C144.84,13.19 144.85,13.01 144.85,12.82 C144.85,12.63 144.84,12.45 144.81,12.26 C144.78,12.07 144.75,11.89 144.72,11.7 C145.3,11.72 145.82,11.73 146.29,11.75 C146.76,11.77 147.23,11.78 147.72,11.79 C148.2,11.8 148.73,11.81 149.3,11.82 C149.87,11.83 150.55,11.83 151.35,11.83 C152.15,11.83 152.83,11.83 153.4,11.82 C153.97,11.81 154.49,11.8 154.97,11.79 C155.45,11.78 155.91,11.77 156.36,11.75 C156.81,11.73 157.3,11.72 157.83,11.7 C157.8,11.89 157.77,12.07 157.74,12.26 C157.71,12.45 157.7,12.63 157.7,12.82 C157.7,13.01 157.71,13.19 157.74,13.38 C157.77,13.57 157.8,13.75 157.83,13.94 C157.49,13.89 157.11,13.84 156.68,13.8 C156.25,13.76 155.83,13.72 155.42,13.7 C155,13.67 154.61,13.65 154.23,13.64 C153.86,13.62 153.54,13.61 153.29,13.61 C153.27,13.7 153.26,13.81 153.25,13.97 C153.24,14.12 153.24,14.3 153.24,14.51 L153.24,15.86 L153.24,22.24 C153.24,23.65 153.26,24.91 153.29,26 C153.32,27.1 153.38,28.17 153.44,29.23 C153.15,29.2 152.84,29.18 152.5,29.18 C152.16,29.18 151.78,29.18 151.35,29.18 C150.92,29.18 150.54,29.18 150.2,29.18 C149.86,29.18 149.54,29.2 149.26,29.23 C149.33,28.18 149.38,27.1 149.41,26 C149.44,24.9 149.46,23.65 149.46,22.24 L149.46,15.86 C149.46,15.36 149.46,14.91 149.45,14.5 Z" id="Path"></path>
            <path d="M170.23,20.72 C169.58,20.69 168.94,20.68 168.29,20.68 C167.64,20.68 167,20.69 166.35,20.71 C165.7,20.73 165.06,20.75 164.41,20.79 L164.41,22.24 C164.41,23.65 164.43,24.91 164.46,26 C164.49,27.1 164.54,28.17 164.61,29.23 C164.32,29.2 164.01,29.18 163.67,29.18 C163.33,29.18 162.95,29.18 162.52,29.18 C162.09,29.18 161.71,29.18 161.37,29.18 C161.03,29.18 160.71,29.2 160.43,29.23 C160.5,28.18 160.55,27.1 160.58,26 C160.61,24.9 160.63,23.65 160.63,22.24 L160.63,18.77 C160.63,17.36 160.61,16.1 160.58,15.01 C160.55,13.91 160.49,12.81 160.43,11.71 C160.72,11.74 161.03,11.77 161.37,11.8 C161.71,11.83 162.09,11.84 162.52,11.84 C162.95,11.84 163.33,11.83 163.67,11.8 C164.01,11.77 164.32,11.74 164.61,11.71 C164.52,12.82 164.47,13.91 164.44,14.99 C164.41,16.07 164.4,17.32 164.4,18.73 C164.84,18.75 165.37,18.76 165.99,18.77 C166.61,18.78 167.38,18.78 168.3,18.78 C169.22,18.78 169.97,18.78 170.55,18.77 C171.13,18.76 171.66,18.75 172.16,18.73 C172.16,17.32 172.14,16.07 172.11,14.99 C172.08,13.91 172.02,12.82 171.96,11.71 C172.25,11.74 172.56,11.77 172.9,11.8 C173.24,11.83 173.62,11.84 174.05,11.84 C174.48,11.84 174.86,11.83 175.2,11.8 C175.54,11.77 175.85,11.74 176.14,11.71 C176.07,12.82 176.02,13.92 175.99,15.01 C175.96,16.11 175.94,17.36 175.94,18.77 L175.94,22.24 C175.94,23.65 175.96,24.91 175.99,26 C176.02,27.1 176.08,28.17 176.14,29.23 C175.85,29.2 175.54,29.18 175.2,29.18 C174.86,29.18 174.48,29.18 174.05,29.18 C173.62,29.18 173.24,29.18 172.9,29.18 C172.56,29.18 172.24,29.2 171.96,29.23 C172.03,28.18 172.08,27.1 172.11,26 C172.14,24.9 172.16,23.65 172.16,22.24 L172.16,20.79 C171.52,20.76 170.88,20.74 170.23,20.72 Z" id="Path"></path>
            <path d="M180.21,15 C180.18,13.9 180.12,12.8 180.06,11.7 C180.83,11.72 181.58,11.74 182.33,11.78 C183.08,11.81 183.84,11.83 184.6,11.83 C185.86,11.83 186.98,11.82 187.96,11.79 C188.94,11.76 189.6,11.73 189.94,11.7 C189.87,11.97 189.84,12.33 189.84,12.77 C189.84,13.04 189.85,13.25 189.87,13.41 C189.89,13.56 189.91,13.73 189.95,13.92 C189.46,13.89 188.92,13.85 188.33,13.82 C187.74,13.79 187.17,13.75 186.62,13.72 C186.07,13.69 185.57,13.66 185.13,13.64 C184.69,13.62 184.37,13.61 184.19,13.61 C184.12,14.55 184.08,15.47 184.07,16.39 C184.06,17.31 184.06,18.24 184.06,19.17 C185.17,19.15 186.17,19.13 187.06,19.09 C187.95,19.06 188.88,19.01 189.85,18.96 C189.8,19.25 189.76,19.47 189.75,19.62 C189.73,19.77 189.72,19.93 189.72,20.1 C189.72,20.24 189.73,20.38 189.76,20.52 C189.79,20.66 189.82,20.87 189.85,21.15 C187.91,21 185.98,20.92 184.06,20.92 C184.06,21.46 184.06,22.01 184.05,22.55 C184.04,23.09 184.04,23.64 184.04,24.18 C184.04,25.29 184.07,26.35 184.12,27.37 C185.09,27.37 186.06,27.34 187.03,27.29 C188,27.24 188.98,27.15 189.96,27.03 C189.93,27.22 189.9,27.39 189.88,27.54 C189.86,27.69 189.85,27.91 189.85,28.18 C189.85,28.45 189.86,28.66 189.88,28.82 C189.9,28.97 189.92,29.1 189.96,29.2 C189.5,29.18 188.93,29.17 188.26,29.16 C187.59,29.15 186.67,29.15 185.49,29.15 C184.45,29.15 183.61,29.15 182.96,29.15 C182.33,29.15 181.82,29.15 181.44,29.15 C181.06,29.15 180.77,29.15 180.57,29.16 C180.37,29.17 180.21,29.18 180.07,29.2 C180.14,28.15 180.19,27.07 180.22,25.97 C180.25,24.87 180.27,23.62 180.27,22.21 L180.27,18.74 C180.26,17.35 180.24,16.1 180.21,15 Z" id="Path"></path>
            <path d="M202.59,19.7 C202.2,20.78 201.8,21.88 201.4,23 C201,24.12 200.61,25.23 200.24,26.32 C199.87,27.41 199.54,28.38 199.27,29.23 C198.88,29.2 198.44,29.18 197.97,29.18 C197.75,29.18 197.53,29.18 197.31,29.18 C197.09,29.18 196.87,29.2 196.65,29.23 C196.46,28.53 196.22,27.63 195.91,26.53 C195.6,25.42 195.27,24.25 194.92,23.01 C194.56,21.77 194.2,20.51 193.82,19.25 C193.45,17.98 193.1,16.82 192.77,15.77 C192.45,14.72 192.17,13.82 191.95,13.08 C191.73,12.34 191.58,11.89 191.52,11.71 C191.89,11.74 192.26,11.77 192.62,11.8 C192.98,11.83 193.33,11.84 193.67,11.84 C194.01,11.84 194.35,11.83 194.7,11.8 C195.05,11.77 195.39,11.74 195.73,11.71 C195.99,12.8 196.26,13.92 196.55,15.07 C196.84,16.22 197.13,17.35 197.43,18.46 C197.73,19.57 198.02,20.65 198.3,21.7 C198.58,22.75 198.84,23.71 199.08,24.6 L199.13,24.6 C199.5,23.53 199.91,22.37 200.34,21.12 C200.77,19.87 201.19,18.64 201.6,17.45 C202.01,16.25 202.38,15.14 202.72,14.13 C203.06,13.12 203.32,12.31 203.51,11.72 C203.73,11.75 203.94,11.78 204.15,11.81 C204.35,11.84 204.57,11.85 204.79,11.85 C205.01,11.85 205.22,11.84 205.43,11.81 C205.63,11.78 205.85,11.75 206.07,11.72 C206.14,12.09 206.27,12.6 206.45,13.23 C206.64,13.86 206.85,14.56 207.1,15.32 C207.35,16.09 207.61,16.89 207.89,17.74 C208.17,18.59 208.45,19.43 208.73,20.27 C209.01,21.1 209.27,21.89 209.51,22.64 C209.75,23.39 209.94,24.04 210.1,24.6 L210.15,24.6 C210.49,23.53 210.85,22.35 211.23,21.05 C211.61,19.76 211.98,18.51 212.34,17.3 C212.7,16.09 213.02,14.99 213.31,13.98 C213.6,12.98 213.8,12.22 213.92,11.71 C214.35,11.8 214.7,11.84 214.99,11.84 C215.18,11.84 215.37,11.83 215.56,11.8 C215.76,11.77 215.96,11.74 216.16,11.71 C216.04,12.03 215.85,12.56 215.6,13.29 C215.34,14.02 215.05,14.88 214.71,15.88 C214.37,16.88 214,17.96 213.61,19.13 C213.22,20.3 212.83,21.49 212.44,22.68 C212.05,23.87 211.67,25.04 211.3,26.18 C210.93,27.32 210.61,28.34 210.34,29.24 C209.95,29.21 209.51,29.19 209.04,29.19 C208.82,29.19 208.6,29.19 208.38,29.19 C208.16,29.19 207.94,29.21 207.72,29.24 C207.18,27.16 206.56,25.1 205.87,23.05 C205.18,21 204.45,18.91 203.69,16.79 L203.64,16.79 C203.33,17.64 202.98,18.62 202.59,19.7 Z" id="Path"></path>
            <path d="M93.24,40.39 C93.2,39.18 93.15,37.97 93.07,36.75 C93.91,36.77 94.75,36.8 95.57,36.83 C96.39,36.87 97.23,36.89 98.07,36.89 C99.46,36.89 100.69,36.88 101.76,36.85 C102.84,36.82 103.56,36.79 103.94,36.75 C103.87,37.05 103.83,37.44 103.83,37.93 C103.83,38.23 103.84,38.46 103.86,38.63 C103.88,38.8 103.91,38.99 103.94,39.19 C103.4,39.15 102.8,39.12 102.16,39.08 C101.51,39.04 100.89,39.01 100.28,38.97 C99.67,38.93 99.12,38.9 98.64,38.89 C98.15,38.87 97.81,38.86 97.6,38.86 C97.53,39.89 97.48,40.91 97.47,41.92 C97.46,42.93 97.46,43.95 97.46,44.98 C98.68,44.96 99.78,44.93 100.76,44.9 C101.74,44.86 102.77,44.82 103.84,44.76 C103.78,45.08 103.75,45.32 103.73,45.49 C103.71,45.66 103.7,45.84 103.7,46.02 C103.7,46.17 103.71,46.32 103.74,46.48 C103.77,46.64 103.8,46.87 103.84,47.17 C101.71,47 99.58,46.92 97.46,46.92 L97.46,48.35 C97.46,49.9 97.48,51.29 97.52,52.49 C97.56,53.7 97.61,54.88 97.69,56.04 C97.37,56 97.03,55.98 96.65,55.98 C96.28,55.98 95.85,55.98 95.39,55.98 C94.92,55.98 94.5,55.98 94.13,55.98 C93.76,55.98 93.41,56 93.09,56.04 C93.16,54.88 93.22,53.69 93.26,52.49 C93.3,51.28 93.32,49.9 93.32,48.35 L93.32,44.53 C93.3,42.97 93.28,41.59 93.24,40.39 Z" id="Path"></path>
            <path d="M107.54,40.39 C107.5,39.18 107.45,37.97 107.37,36.75 C107.69,36.79 108.03,36.82 108.41,36.85 C108.78,36.88 109.21,36.89 109.67,36.89 C110.14,36.89 110.56,36.88 110.93,36.85 C111.3,36.82 111.65,36.79 111.97,36.75 C111.9,37.97 111.84,39.18 111.8,40.39 C111.76,41.6 111.74,42.98 111.74,44.53 L111.74,48.35 C111.74,49.42 111.74,50.45 111.75,51.44 C111.76,52.43 111.77,53.29 111.79,54.02 C112.86,54.02 113.92,53.99 114.99,53.94 C116.06,53.88 117.13,53.79 118.22,53.66 C118.18,53.87 118.15,54.05 118.14,54.22 C118.12,54.39 118.11,54.62 118.11,54.92 C118.11,55.22 118.12,55.45 118.14,55.62 C118.16,55.79 118.19,55.93 118.22,56.04 C117.71,56.02 117.09,56.01 116.35,56 C115.61,55.99 114.59,55.99 113.3,55.99 C112.16,55.99 111.23,55.99 110.52,55.99 C109.83,55.99 109.27,55.99 108.85,55.99 C108.43,55.99 108.11,55.99 107.89,56 C107.67,56.01 107.49,56.02 107.34,56.04 C107.41,54.88 107.47,53.69 107.51,52.49 C107.55,51.28 107.57,49.9 107.57,48.35 L107.57,44.53 C107.6,42.97 107.58,41.59 107.54,40.39 Z" id="Path"></path>
            <path d="M121.7,40.39 C121.66,39.18 121.61,37.97 121.53,36.75 C121.85,36.79 122.19,36.82 122.57,36.85 C122.94,36.88 123.37,36.89 123.83,36.89 C124.3,36.89 124.72,36.88 125.09,36.85 C125.46,36.82 125.81,36.79 126.13,36.75 C126.06,37.97 126,39.18 125.96,40.39 C125.92,41.6 125.9,42.98 125.9,44.53 L125.9,48.35 C125.9,49.9 125.92,51.29 125.96,52.49 C126,53.7 126.05,54.88 126.13,56.04 C125.81,56 125.47,55.98 125.09,55.98 C124.72,55.98 124.29,55.98 123.83,55.98 C123.36,55.98 122.94,55.98 122.57,55.98 C122.2,55.98 121.85,56 121.53,56.04 C121.6,54.88 121.66,53.69 121.7,52.49 C121.74,51.28 121.76,49.9 121.76,48.35 L121.76,44.53 C121.75,42.97 121.73,41.59 121.7,40.39 Z" id="Path"></path>
            <path d="M131.25,42.34 C131.25,41.05 131.23,39.96 131.19,39.08 C131.15,38.2 131.12,37.42 131.11,36.75 C131.63,36.84 132.06,36.89 132.37,36.89 C132.69,36.89 133.11,36.84 133.63,36.75 C135.67,39.02 137.69,41.24 139.68,43.44 C141.67,45.63 143.72,47.86 145.82,50.12 L145.82,47.68 L145.82,44.96 C145.82,44.04 145.82,43.14 145.81,42.25 C145.8,41.36 145.79,40.54 145.78,39.79 C145.77,39.04 145.75,38.4 145.72,37.85 C145.69,37.31 145.66,36.94 145.62,36.75 C146.14,36.84 146.57,36.89 146.88,36.89 C147.2,36.89 147.62,36.84 148.14,36.75 C148.05,38.45 147.97,39.99 147.92,41.37 C147.86,42.75 147.82,44.04 147.78,45.26 C147.74,46.48 147.72,47.68 147.71,48.87 C147.7,50.06 147.7,51.33 147.7,52.68 L147.7,56.05 C147.33,56.01 146.94,55.99 146.55,55.99 C146.14,55.99 145.77,56.01 145.45,56.05 C141.59,51.56 137.5,47.03 133.18,42.48 C133.16,43.02 133.15,43.57 133.14,44.11 C133.13,44.65 133.13,45.21 133.13,45.77 L133.13,49.03 C133.13,50.15 133.13,51.11 133.14,51.89 C133.15,52.68 133.16,53.34 133.18,53.88 C133.2,54.42 133.22,54.87 133.24,55.21 C133.26,55.56 133.28,55.83 133.3,56.04 C133.08,56 132.85,55.98 132.63,55.98 C132.41,55.98 132.19,55.98 131.98,55.98 C131.55,55.98 131.12,56 130.69,56.04 C130.73,55.89 130.77,55.36 130.83,54.44 C130.89,53.52 130.95,52.4 131.01,51.08 C131.08,49.76 131.13,48.33 131.18,46.78 C131.22,45.24 131.25,43.76 131.25,42.34 Z" id="Path"></path>
            <path d="M152.85,44.53 C152.85,42.98 152.83,41.6 152.79,40.39 C152.75,39.18 152.7,37.97 152.62,36.75 C152.94,36.79 153.28,36.82 153.66,36.85 C154.03,36.88 154.46,36.89 154.92,36.89 C155.54,36.89 156.23,36.87 157,36.82 C157.77,36.77 158.77,36.75 160.01,36.75 C161.62,36.75 163.09,36.9 164.41,37.19 C165.73,37.48 166.87,37.97 167.82,38.66 C168.78,39.35 169.51,40.28 170.04,41.45 C170.56,42.62 170.83,44.1 170.83,45.87 C170.83,47.42 170.57,48.83 170.06,50.08 C169.54,51.33 168.84,52.41 167.95,53.3 C167.06,54.19 166.03,54.87 164.86,55.34 C163.69,55.81 162.44,56.04 161.11,56.04 C159.71,56.04 158.51,56.03 157.51,56.01 C156.52,55.99 155.66,55.98 154.93,55.98 C154.46,55.98 154.04,55.98 153.67,55.98 C153.3,55.98 152.95,56 152.63,56.04 C152.7,54.88 152.76,53.69 152.8,52.49 C152.84,51.28 152.86,49.9 152.86,48.35 L152.86,44.53 L152.85,44.53 Z M157,50.4 L157,52.09 C157,52.63 157,53.13 157.01,53.58 C157.02,54.03 157.02,54.32 157.02,54.45 C157.3,54.47 157.64,54.49 158.03,54.51 C158.42,54.53 158.91,54.54 159.49,54.54 C161.61,54.54 163.28,53.82 164.52,52.38 C165.76,50.94 166.37,48.76 166.37,45.84 C166.37,44.68 166.22,43.64 165.91,42.72 C165.6,41.8 165.17,41.02 164.6,40.37 C164.04,39.72 163.36,39.23 162.58,38.88 C161.79,38.53 160.91,38.36 159.94,38.36 C159.27,38.36 158.72,38.37 158.3,38.4 C157.88,38.43 157.45,38.46 157.02,38.5 C157.02,38.63 157.02,38.92 157.01,39.37 C157,39.82 157,40.33 157,40.89 L157,42.58 L157,43.98 L157,48.98 L157,50.4 Z" id="Shape"></path>
            <path d="M174.39,40.39 C174.35,39.18 174.3,37.97 174.22,36.75 C175.06,36.77 175.9,36.8 176.72,36.83 C177.54,36.87 178.38,36.89 179.22,36.89 C180.61,36.89 181.84,36.88 182.91,36.85 C183.99,36.82 184.71,36.79 185.09,36.75 C185.01,37.05 184.98,37.44 184.98,37.93 C184.98,38.23 184.99,38.46 185.01,38.63 C185.03,38.8 185.06,38.99 185.09,39.19 C184.55,39.15 183.95,39.12 183.31,39.08 C182.66,39.04 182.04,39.01 181.43,38.97 C180.82,38.93 180.27,38.9 179.79,38.89 C179.3,38.87 178.96,38.86 178.75,38.86 C178.68,39.89 178.63,40.91 178.62,41.92 C178.61,42.93 178.61,43.95 178.61,44.98 C179.83,44.96 180.93,44.93 181.91,44.9 C182.89,44.86 183.92,44.82 184.99,44.76 C184.93,45.08 184.9,45.32 184.88,45.49 C184.86,45.66 184.85,45.84 184.85,46.02 C184.85,46.17 184.86,46.32 184.89,46.48 C184.92,46.64 184.95,46.87 184.99,47.17 C182.86,47 180.73,46.92 178.61,46.92 C178.61,47.52 178.61,48.12 178.6,48.72 C178.59,49.32 178.59,49.92 178.59,50.52 C178.59,51.74 178.62,52.91 178.67,54.03 C179.74,54.03 180.8,54 181.87,53.95 C182.94,53.89 184.01,53.8 185.1,53.67 C185.06,53.88 185.03,54.06 185.02,54.23 C185,54.4 184.99,54.63 184.99,54.93 C184.99,55.23 185,55.46 185.02,55.63 C185.04,55.8 185.07,55.94 185.1,56.05 C184.59,56.03 183.97,56.02 183.23,56.01 C182.49,56 181.47,56 180.18,56 C179.04,56 178.11,56 177.4,56 C176.71,56 176.15,56 175.73,56 C175.31,56 174.99,56 174.77,56.01 C174.55,56.02 174.37,56.03 174.22,56.05 C174.29,54.89 174.35,53.7 174.39,52.5 C174.43,51.29 174.45,49.91 174.45,48.36 L174.45,44.54 C174.45,42.97 174.43,41.59 174.39,40.39 Z" id="Path"></path>
            <path d="M192.9,47.2 L192.9,48.35 C192.9,49.9 192.92,51.29 192.96,52.49 C193,53.69 193.05,54.88 193.13,56.04 C192.81,56 192.47,55.98 192.09,55.98 C191.72,55.98 191.29,55.98 190.83,55.98 C190.37,55.98 189.94,55.98 189.57,55.98 C189.2,55.98 188.85,56 188.53,56.04 C188.6,54.88 188.66,53.69 188.7,52.49 C188.74,51.28 188.76,49.9 188.76,48.35 L188.76,44.53 C188.76,42.98 188.74,41.6 188.7,40.39 C188.66,39.18 188.61,37.97 188.53,36.75 C188.85,36.79 189.19,36.82 189.57,36.85 C189.94,36.88 190.37,36.89 190.83,36.89 C191.34,36.89 191.91,36.87 192.56,36.82 C193.21,36.77 194.01,36.75 194.96,36.75 C195.67,36.75 196.28,36.77 196.79,36.81 C197.3,36.85 197.73,36.9 198.1,36.98 C198.46,37.06 198.78,37.15 199.06,37.27 C199.33,37.39 199.59,37.54 199.83,37.71 C200.39,38.12 200.84,38.63 201.16,39.24 C201.49,39.85 201.65,40.57 201.65,41.42 C201.65,42.79 201.28,43.9 200.53,44.76 C199.78,45.62 198.7,46.23 197.3,46.59 C198.2,48.18 199.16,49.77 200.19,51.35 C201.22,52.93 202.25,54.5 203.28,56.05 C202.85,56.01 202.43,55.99 202.02,55.99 C201.61,55.99 201.19,55.99 200.76,55.99 C200.33,55.99 199.9,55.99 199.48,55.99 C199.06,55.99 198.63,56.01 198.2,56.05 L193.17,47.2 L192.9,47.2 L192.9,47.2 Z M197.34,42.03 C197.34,41.21 197.26,40.55 197.09,40.06 C196.92,39.57 196.66,39.2 196.32,38.95 C195.97,38.7 195.52,38.53 194.97,38.46 C194.42,38.39 193.76,38.35 192.99,38.35 C192.93,40.9 192.91,43.44 192.91,45.99 C193.02,46.01 193.13,46.02 193.23,46.03 C193.33,46.04 193.43,46.04 193.52,46.04 C194.76,46.04 195.7,45.71 196.36,45.04 C197.01,44.38 197.34,43.38 197.34,42.03 Z" id="Shape"></path>
            <path d="M210.79,38.12 C209.93,38.12 209.23,38.37 208.68,38.88 C208.14,39.39 207.87,39.98 207.87,40.65 C207.87,41.34 208.08,41.91 208.5,42.35 C208.92,42.79 209.45,43.19 210.09,43.54 C210.73,43.9 211.41,44.24 212.14,44.57 C212.87,44.9 213.55,45.3 214.19,45.78 C214.83,46.26 215.36,46.84 215.78,47.52 C216.2,48.2 216.41,49.08 216.41,50.15 C216.41,51.09 216.23,51.94 215.88,52.72 C215.52,53.5 215.02,54.16 214.36,54.71 C213.7,55.26 212.92,55.68 212.01,55.97 C211.1,56.26 210.09,56.41 208.96,56.41 C207.95,56.41 207.04,56.3 206.25,56.09 C205.45,55.87 204.85,55.61 204.44,55.29 C204.63,54.63 204.79,54.04 204.92,53.49 C205.05,52.95 205.16,52.36 205.26,51.72 L205.79,51.72 C205.86,52.13 206,52.52 206.21,52.89 C206.42,53.26 206.68,53.58 207,53.86 C207.32,54.14 207.7,54.36 208.15,54.52 C208.6,54.68 209.11,54.76 209.67,54.76 C210.79,54.76 211.62,54.48 212.16,53.92 C212.69,53.36 212.96,52.68 212.96,51.9 C212.96,51.19 212.75,50.61 212.34,50.16 C211.93,49.71 211.41,49.31 210.8,48.97 C210.18,48.62 209.51,48.29 208.78,47.96 C208.05,47.63 207.38,47.23 206.76,46.77 C206.14,46.3 205.63,45.73 205.21,45.04 C204.8,44.36 204.59,43.48 204.59,42.41 C204.59,41.44 204.76,40.57 205.11,39.83 C205.46,39.08 205.92,38.45 206.5,37.95 C207.08,37.44 207.75,37.06 208.51,36.8 C209.27,36.54 210.07,36.41 210.91,36.41 C211.92,36.41 212.81,36.53 213.56,36.77 C214.32,37.01 214.97,37.35 215.51,37.78 C215.34,38.21 215.2,38.63 215.08,39.03 C214.96,39.43 214.8,39.94 214.62,40.56 L214.2,40.56 C213.59,38.93 212.46,38.12 210.79,38.12 Z" id="Path"></path>
            <path d="M96.91,64.83 L98.57,64.83 L103.04,75.07 L101.15,75.07 L100.12,72.61 L95.31,72.61 L94.27,75.07 L92.44,75.07 L96.91,64.83 Z M99.47,71.03 L97.71,66.96 L95.97,71.03 L99.47,71.03 Z" id="Shape"></path>
            <path d="M104.58,67.4 L106.34,67.4 L106.34,68.59 C106.83,67.86 107.55,67.24 108.74,67.24 C110.47,67.24 111.47,68.4 111.47,70.19 L111.47,75.07 L109.71,75.07 L109.71,70.71 C109.71,69.52 109.12,68.84 108.07,68.84 C107.05,68.84 106.34,69.55 106.34,70.74 L106.34,75.07 L104.58,75.07 L104.58,67.4 Z" id="Path"></path>
            <path d="M113.57,76.51 L114.22,75.19 C115.03,75.7 115.9,76 116.95,76 C118.52,76 119.38,75.19 119.38,73.65 L119.38,73.05 C118.74,73.88 117.94,74.46 116.68,74.46 C114.88,74.46 113.19,73.12 113.19,70.87 L113.19,70.84 C113.19,68.57 114.89,67.24 116.68,67.24 C117.97,67.24 118.77,67.84 119.37,68.55 L119.37,67.4 L121.13,67.4 L121.13,73.5 C121.13,74.79 120.8,75.75 120.16,76.39 C119.46,77.09 118.39,77.42 117.01,77.42 C115.73,77.42 114.56,77.1 113.57,76.51 Z M119.39,70.87 L119.39,70.84 C119.39,69.58 118.36,68.72 117.14,68.72 C115.92,68.72 114.96,69.56 114.96,70.83 L114.96,70.86 C114.96,72.12 115.93,72.98 117.14,72.98 C118.36,72.98 119.39,72.11 119.39,70.87 Z" id="Shape"></path>
            <polygon id="Path" points="123.41 64.46 125.17 64.46 125.17 75.06 123.41 75.06"></polygon>
            <path d="M127.49,64.55 L129.38,64.55 L129.38,66.22 L127.49,66.22 L127.49,64.55 Z M127.57,67.4 L129.33,67.4 L129.33,75.07 L127.57,75.07 L127.57,67.4 Z" id="Shape"></path>
            <path d="M131.2,71.28 L131.2,71.25 C131.2,69.07 132.89,67.24 135.18,67.24 C136.63,67.24 137.53,67.78 138.25,68.56 L137.16,69.74 C136.62,69.17 136.06,68.78 135.17,68.78 C133.89,68.78 132.96,69.88 132.96,71.22 L132.96,71.25 C132.96,72.62 133.9,73.72 135.25,73.72 C136.08,73.72 136.69,73.33 137.24,72.76 L138.3,73.81 C137.55,74.65 136.66,75.25 135.16,75.25 C132.88,75.24 131.2,73.46 131.2,71.28 Z" id="Path"></path>
            <path d="M144.6,75.07 L144.6,74.13 C144.08,74.75 143.28,75.23 142.12,75.23 C140.67,75.23 139.39,74.4 139.39,72.86 L139.39,72.83 C139.39,71.13 140.71,70.32 142.5,70.32 C143.43,70.32 144.03,70.45 144.62,70.64 L144.62,70.49 C144.62,69.43 143.95,68.85 142.73,68.85 C141.87,68.85 141.23,69.04 140.54,69.33 L140.06,67.92 C140.9,67.54 141.73,67.28 142.98,67.28 C145.25,67.28 146.35,68.47 146.35,70.52 L146.35,75.07 L144.6,75.07 L144.6,75.07 Z M144.65,71.86 C144.2,71.69 143.57,71.55 142.89,71.55 C141.79,71.55 141.13,72 141.13,72.74 L141.13,72.77 C141.13,73.5 141.78,73.9 142.61,73.9 C143.77,73.9 144.64,73.25 144.64,72.29 L144.64,71.86 L144.65,71.86 Z" id="Shape"></path>
            <path d="M148.43,67.4 L150.19,67.4 L150.19,68.59 C150.68,67.86 151.4,67.24 152.59,67.24 C154.32,67.24 155.32,68.4 155.32,70.19 L155.32,75.07 L153.56,75.07 L153.56,70.71 C153.56,69.52 152.97,68.84 151.92,68.84 C150.9,68.84 150.19,69.55 150.19,70.74 L150.19,75.07 L148.43,75.07 L148.43,67.4 L148.43,67.4 Z" id="Path"></path>
            <path d="M161.55,70.01 L161.55,69.98 C161.55,67.09 163.71,64.72 166.79,64.72 C168.66,64.72 169.8,65.37 170.77,66.3 L169.62,67.62 C168.81,66.87 167.94,66.36 166.77,66.36 C164.82,66.36 163.41,67.96 163.41,69.95 L163.41,69.98 C163.41,71.97 164.82,73.6 166.77,73.6 C168.02,73.6 168.82,73.09 169.69,72.28 L170.84,73.44 C169.78,74.54 168.62,75.24 166.71,75.24 C163.75,75.24 161.55,72.93 161.55,70.01 Z" id="Path"></path>
            <path d="M171.94,71.28 L171.94,71.25 C171.94,69.06 173.68,67.24 176.04,67.24 C178.39,67.24 180.12,69.03 180.12,71.22 L180.12,71.25 C180.12,73.43 178.38,75.25 176.01,75.25 C173.67,75.24 171.94,73.46 171.94,71.28 Z M178.37,71.28 L178.37,71.25 C178.37,69.9 177.4,68.78 176.02,68.78 C174.61,68.78 173.71,69.88 173.71,71.22 L173.71,71.25 C173.71,72.59 174.68,73.72 176.05,73.72 C177.46,73.72 178.37,72.6 178.37,71.28 Z" id="Shape"></path>
            <polygon id="Path" points="182.01 64.46 183.77 64.46 183.77 75.06 182.01 75.06"></polygon>
            <polygon id="Path" points="186.16 64.46 187.92 64.46 187.92 75.06 186.16 75.06"></polygon>
            <path d="M189.79,71.26 L189.79,71.23 C189.79,69.04 191.34,67.23 193.54,67.23 C195.98,67.23 197.21,69.15 197.21,71.36 C197.21,71.52 197.2,71.68 197.18,71.85 L191.54,71.85 C191.73,73.1 192.62,73.8 193.75,73.8 C194.61,73.8 195.22,73.48 195.83,72.88 L196.86,73.8 C196.13,74.67 195.13,75.24 193.72,75.24 C191.5,75.24 189.79,73.63 189.79,71.26 Z M195.47,70.7 C195.35,69.57 194.69,68.68 193.52,68.68 C192.44,68.68 191.69,69.51 191.53,70.7 L195.47,70.7 Z" id="Shape"></path>
            <path d="M198.97,76.51 L199.62,75.19 C200.43,75.7 201.31,76 202.35,76 C203.92,76 204.78,75.19 204.78,73.65 L204.78,73.05 C204.14,73.88 203.34,74.46 202.08,74.46 C200.28,74.46 198.59,73.12 198.59,70.87 L198.59,70.84 C198.59,68.57 200.29,67.24 202.08,67.24 C203.37,67.24 204.17,67.84 204.77,68.55 L204.77,67.4 L206.53,67.4 L206.53,73.5 C206.53,74.79 206.2,75.75 205.56,76.39 C204.86,77.09 203.79,77.42 202.41,77.42 C201.13,77.42 199.96,77.1 198.97,76.51 Z M204.79,70.87 L204.79,70.84 C204.79,69.58 203.76,68.72 202.54,68.72 C201.32,68.72 200.36,69.56 200.36,70.83 L200.36,70.86 C200.36,72.12 201.33,72.98 202.54,72.98 C203.76,72.98 204.79,72.11 204.79,70.87 Z" id="Shape"></path>
            <path d="M208.29,71.26 L208.29,71.23 C208.29,69.04 209.84,67.23 212.04,67.23 C214.48,67.23 215.71,69.15 215.71,71.36 C215.71,71.52 215.7,71.68 215.68,71.85 L210.04,71.85 C210.23,73.1 211.12,73.8 212.25,73.8 C213.11,73.8 213.72,73.48 214.33,72.88 L215.36,73.8 C214.63,74.67 213.63,75.24 212.22,75.24 C210.01,75.24 208.29,73.63 208.29,71.26 Z M213.97,70.7 C213.85,69.57 213.19,68.68 212.02,68.68 C210.94,68.68 210.19,69.51 210.03,70.7 L213.97,70.7 Z" id="Shape"></path>
            <path d="M13.03,39.09 C13.03,39.09 15.77,34.3 15.26,31.78 C14.74,29.27 13.82,27.68 10.84,22.7 C9.08,19.76 10.42,16.21 10.42,16.21 C10.42,16.21 3.21,19.43 5.47,27.43 C5.47,27.43 5.99,29.64 10.74,34.69 C13.37,37.48 13.03,39.09 13.03,39.09" id="Path"></path>
            <path d="M15.99,31.39 C15.99,31.39 19.74,27.36 19.8,24.79 C19.86,22.22 18.88,20.59 17.54,14.92 C16.66,11.21 18.59,8.5 18.59,8.5 C18.59,8.5 10.85,9.96 11.26,18.28 C11.26,18.28 11.27,20.56 14.76,26.58 C16.68,29.89 15.99,31.39 15.99,31.39" id="Path"></path>
            <path d="M20.27,24.72 C20.27,24.72 24.87,22 25.94,19.67 C27.14,17.06 26.83,14.8 26.6,8.97 C26.47,5.71 29.19,3.64 29.19,3.64 C29.19,3.64 21.5,2.38 19.29,10.4 C19.29,10.4 18.4,12.88 20.59,19.76 C21.77,23.42 20.27,24.72 20.27,24.72" id="Path"></path>
            <path d="M26.65,18.71 C26.65,18.71 32.07,17.95 33.71,15.99 C35.35,14.03 36.06,11.68 38.04,6.2 C39.12,3.21 42.31,2.12 42.31,2.12 C42.31,2.12 35.54,-1.79 30.69,4.94 C30.69,4.94 28.71,7.57 28.66,14.17 C28.65,18.03 26.65,18.71 26.65,18.71" id="Path"></path>
            <path d="M34.43,15.53 C34.43,15.53 39.82,16.45 41.97,15.07 C44.12,13.7 45.41,11.61 48.99,7.04 C51.22,4.19 54.27,4.44 54.27,4.44 C54.27,4.44 48.97,-1.34 42.35,3.62 C42.35,3.62 39.96,5.66 37.69,11.81 C36.37,15.42 34.43,15.53 34.43,15.53" id="Path"></path>
            <path d="M42.71,14.88 C42.71,14.88 47.54,17.48 50,16.87 C52.47,16.26 54.12,14.33 59.18,11.52 C62.84,9.48 65,10.76 65,10.76 C65,10.76 61.78,3.57 53.95,6.15 C53.95,6.15 51.23,6.77 46.97,12.42 C44.67,15.46 42.71,14.88 42.71,14.88" id="Path"></path>
            <path d="M51.94,16.32 C51.94,16.32 55.6,19.96 57.98,20.07 C60.36,20.18 61.88,19.21 67.19,18.12 C70.62,17.42 73.12,19.25 73.12,19.25 C73.12,19.25 71.93,11.87 64.2,12.09 C64.2,12.09 61.31,12 56.43,15.24 C53.45,17.22 51.94,16.32 51.94,16.32" id="Path"></path>
            <path d="M58.54,20.32 C58.54,20.32 60.86,24.95 63.09,25.82 C65.31,26.69 67.04,26.42 72.43,26.95 C76.23,27.32 77.69,29.94 77.69,29.94 C77.69,29.94 78.89,22.56 71.5,20.27 C71.5,20.27 68.68,19.43 63.14,20.75 C59.66,21.57 58.54,20.32 58.54,20.32" id="Path"></path>
            <path d="M64.56,26.41 C64.56,26.41 65.27,31.55 67.1,33.11 C68.92,34.67 70.6,35.07 75.58,37.24 C79.12,38.78 79.6,41.79 79.6,41.79 C79.6,41.79 83.1,35.2 76.84,30.62 C76.84,30.62 74.89,29.24 68.48,28.28 C64.94,27.75 64.56,26.41 64.56,26.41" id="Path"></path>
            <path d="M67.97,33.86 C67.97,33.86 66.86,38.93 68.03,41.03 C69.2,43.13 70.86,44.72 75.14,48.08 C77.45,49.9 77.29,53.21 77.29,53.21 C77.29,53.21 82.9,48.46 78.62,41.95 C78.62,41.95 77.36,39.83 71.25,37.14 C67.98,35.7 67.97,33.86 67.97,33.86" id="Path"></path>
            <path d="M65.3,44.24 C65.3,44.24 61.19,45.19 58.72,49.53 C56.25,53.87 52.76,61.02 46.8,63.46 C46.8,63.46 55.3,62.41 59.14,56.72 C62.97,51.02 63.79,45.19 65.3,44.24" id="Path"></path>
            <path d="M26.65,60.78 C26.65,60.78 32.68,64.71 46.8,51.43 C46.8,51.43 55.13,41.4 63.66,43.43 C63.66,43.43 60.37,44.38 57.9,48.31 C55.43,52.24 47.62,70.81 31.59,63.49 L26.65,60.78 Z" id="Path"></path>
            <path d="M20.62,56.03 C20.62,56.03 24.12,58.15 30.7,53.67 C37.28,49.2 43.78,41.12 54.75,43.69 C54.75,43.69 52.38,43.89 42.98,53.23 C29.47,66.67 20.62,56.03 20.62,56.03" id="Path"></path>
            <path d="M17.33,51.56 C17.33,51.56 21.43,54.76 31.55,45.22 C35.37,41.62 44.33,43.38 44.33,43.38 C44.33,43.38 42.62,43.27 39.08,45.64 C37.29,46.84 34.6,49.08 31.46,51.58 C25.98,55.96 19.8,56.71 17.33,51.56" id="Path"></path>
            <path d="M31.63,43.93 C33.24,43 34.04,43.05 34.04,43.05 C34.04,43.05 26.23,41.27 21.1,46.14 C17.67,49.39 15.24,48.68 15.24,48.68 C15.24,48.68 19.44,53.38 26.81,47.69 C28.89,46.08 30.43,44.62 31.63,43.93" id="Path"></path>
            <path d="M49.29,26.86 L42.66,26.86 L42.66,20.08 L42.66,19.87 L38.27,19.87 L38.97,20.8 L38.97,26.87 L31.44,26.87 L31.44,30.46 L32.74,29.47 L39.07,29.47 L39.09,40.26 L38.12,41.18 L43.56,41.18 L42.66,40.24 L42.66,29.45 L48.24,29.45 L49.5,30.74 L49.5,26.86 L49.29,26.86 Z M42.45,27.28 L49.08,27.28 L49.07,27.98 L41.25,27.98 L41.25,20.28 L42.24,20.28 L42.24,27.06 L42.24,27.27 L42.45,27.27 L42.45,27.28 Z M39.28,27.28 L39.28,27.95 L31.86,27.95 L31.86,27.28 L39.28,27.28 Z M41.25,40.75 L41.25,29.08 L42.24,29.08 L42.24,40.43 L42.32,40.49 L42.65,40.74 L41.25,40.74 L41.25,40.75 Z" id="Shape"></path>
            <path d="M68.06,41.58 C68.06,41.58 65.52,46.49 66.15,48.98 C66.77,51.47 67.76,53.02 70.96,57.87 C72.85,60.73 71.65,64.33 71.65,64.33 C71.65,64.33 78.72,60.81 76.11,52.91 C76.11,52.91 75.5,50.72 70.53,45.88 C67.79,43.2 68.06,41.58 68.06,41.58" id="Path"></path>
            <path d="M65.93,49.85 C65.93,49.85 62.2,53.9 62.15,56.47 C62.1,59.04 63.09,60.67 64.45,66.34 C65.34,70.05 63.42,72.76 63.42,72.76 C63.42,72.76 71.16,71.27 70.71,62.95 C70.71,62.95 70.69,60.67 67.18,54.67 C65.25,51.35 65.93,49.85 65.93,49.85" id="Path"></path>
            <path d="M61.82,57.4 C61.82,57.4 57.14,59.97 55.99,62.27 C54.7,64.84 54.95,67.11 54.98,72.95 C55,76.22 52.22,78.2 52.22,78.2 C52.22,78.2 59.87,79.71 62.33,71.75 C62.33,71.75 63.3,69.3 61.33,62.36 C60.29,58.64 61.82,57.4 61.82,57.4" id="Path"></path>
            <path d="M54.99,63.9 C54.99,63.9 49.55,64.48 47.85,66.39 C46.14,68.3 45.37,70.62 43.2,76.04 C42.02,79 38.8,79.98 38.8,79.98 C38.8,79.98 45.44,84.11 50.5,77.53 C50.5,77.53 52.56,74.96 52.82,68.37 C52.97,64.52 54.99,63.9 54.99,63.9" id="Path"></path>
            <path d="M46.94,66.98 C46.94,66.98 41.58,65.89 39.39,67.2 C37.2,68.51 35.84,70.55 32.11,75 C29.79,77.77 26.75,77.43 26.75,77.43 C26.75,77.43 31.87,83.38 38.64,78.63 C38.64,78.63 41.09,76.67 43.56,70.59 C45,67.03 46.94,66.98 46.94,66.98" id="Path"></path>
            <path d="M37.9,67.64 C37.9,67.64 33.16,64.88 30.67,65.42 C28.19,65.95 26.47,67.82 21.32,70.48 C17.6,72.4 15.47,71.06 15.47,71.06 C15.47,71.06 18.46,78.35 26.37,76.02 C26.37,76.02 29.1,75.49 33.55,69.98 C35.96,66.99 37.9,67.64 37.9,67.64" id="Path"></path>
            <path d="M29.22,65.55 C29.22,65.55 25.48,61.99 23.1,61.93 C20.72,61.87 19.22,62.87 13.94,64.07 C10.53,64.85 7.99,63.06 7.99,63.06 C7.99,63.06 9.34,70.41 17.06,70.03 C17.06,70.03 19.95,70.06 24.76,66.72 C27.69,64.68 29.22,65.55 29.22,65.55" id="Path"></path>
            <path d="M21.98,61.67 C21.98,61.67 19.63,57.05 17.4,56.2 C15.17,55.34 13.45,55.62 8.05,55.14 C4.25,54.8 2.77,52.19 2.77,52.19 C2.77,52.19 1.62,59.58 9.03,61.81 C9.03,61.81 11.86,62.63 17.38,61.28 C20.85,60.43 21.98,61.67 21.98,61.67" id="Path"></path>
            <path d="M16.32,55.68 C16.32,55.68 15.56,50.22 13.72,48.59 C11.88,46.95 10.2,46.53 5.21,44.28 C1.66,42.68 1.15,39.48 1.15,39.48 C1.15,39.48 -2.29,46.51 4.02,51.32 C4.02,51.32 5.99,52.77 12.4,53.73 C15.93,54.27 16.32,55.68 16.32,55.68" id="Path"></path>
            <path d="M13.37,47.98 C13.37,47.98 14.58,42.59 13.34,40.34 C12.1,38.09 10.76,36.84 6.44,32.96 C3.89,30.67 4.13,26.88 4.13,26.88 C4.13,26.88 -1.82,32.08 2.71,39.06 C2.71,39.06 3.86,41.02 9.89,44.45 C13.21,46.34 13.37,47.98 13.37,47.98" id="Path"></path>
        </g>
    </g>
</svg>