<?xml version="1.0" encoding="UTF-8"?>
<svg width="217px" height="81px" viewBox="0 0 217 81" version="1.1" xmlns="http://www.w3.org/2000/svg" xmlns:xlink="http://www.w3.org/1999/xlink">
    <!-- Generator: Sketch 64 (93537) - https://sketch.com -->
    <title>Group</title>
    <desc>Created with Sketch.</desc>
    <g id="Page-1" stroke="none" stroke-width="1" fill="none" fill-rule="evenodd">
        <g id="MFAC-Logo-RGB_LANDSCAPE_White" transform="translate(-12.000000, -12.000000)" fill="#FFFFFE">
            <g id="Group" transform="translate(12.207059, 12.749954)">
                <path d="M95.6649409,22.5110463 C95.5289409,24.4160463 95.3929409,26.3210463 95.2569409,28.2270463 C95.0529409,28.1920463 94.8489409,28.1760463 94.6449409,28.1760463 C94.4399409,28.1760463 94.2449409,28.1760463 94.0579409,28.1760463 C93.8539409,28.1760463 93.6529409,28.1760463 93.4579409,28.1760463 C93.2629409,28.1760463 93.0629409,28.1920463 92.8579409,28.2270463 C93.4019409,25.3010463 93.8879409,22.3920463 94.3129409,19.4990463 C94.7369409,16.6070463 95.1299409,13.6730463 95.4869409,10.6950463 C95.6739409,10.7290463 95.8479409,10.7590463 96.0099409,10.7850463 C96.1719409,10.8110463 96.3459409,10.8230463 96.5329409,10.8230463 C96.6869409,10.8230463 96.8479409,10.8110463 97.0179409,10.7850463 C97.1879409,10.7590463 97.3659409,10.7290463 97.5539409,10.6950463 C98.0129409,11.7160463 98.4929409,12.7540463 98.9949409,13.8090463 C99.4969409,14.8630463 99.9989409,15.9140463 100.500941,16.9600463 C101.002941,18.0070463 101.504941,19.0310463 102.005941,20.0350463 C102.507941,21.0390463 102.987941,21.9910463 103.447941,22.8940463 C104.468941,20.9880463 105.484941,18.9930463 106.497941,16.9090463 C107.509941,14.8250463 108.475941,12.7540463 109.394941,10.6950463 C109.818941,10.7800463 110.185941,10.8230463 110.490941,10.8230463 C110.779941,10.8230463 111.137941,10.7800463 111.563941,10.6950463 C111.731941,12.1590463 111.915941,13.7320463 112.111941,15.4160463 C112.306941,17.1010463 112.498941,18.7460463 112.686941,20.3550463 C112.872941,21.9620463 113.059941,23.4630463 113.246941,24.8580463 C113.434941,26.2530463 113.604941,27.3760463 113.757941,28.2270463 C113.416941,28.1920463 113.071941,28.1760463 112.724941,28.1760463 C112.374941,28.1760463 112.030941,28.1760463 111.689941,28.1760463 C111.350941,28.1760463 111.001941,28.1760463 110.644941,28.1760463 C110.286941,28.1760463 109.929941,28.1920463 109.572941,28.2270463 C109.486941,26.4750463 109.346941,24.5770463 109.150941,22.5360463 C108.955941,20.4940463 108.755941,18.4700463 108.551941,16.4630463 L108.500941,16.4630463 C107.530941,18.4700463 106.577941,20.4430463 105.643941,22.3830463 C104.706941,24.3220463 103.779941,26.2710463 102.860941,28.2270463 C102.775941,28.2090463 102.694941,28.1960463 102.618941,28.1890463 C102.541941,28.1800463 102.461941,28.1760463 102.376941,28.1760463 C102.290941,28.1760463 102.210941,28.1800463 102.133941,28.1890463 C102.057941,28.1960463 101.976941,28.2090463 101.891941,28.2270463 C100.972941,26.3210463 100.058941,24.4160463 99.1479409,22.5110463 C98.2379409,20.6060463 97.2989409,18.6740463 96.3289409,16.7180463 L96.2779409,16.7180463 C96.0049409,18.6740463 95.8019409,20.6060463 95.6649409,22.5110463" id="Fill-1"></path>
                <path d="M122.279941,15.4930463 C121.837941,16.5140463 121.420941,17.5210463 121.029941,18.5170463 C120.638941,19.5120463 120.255941,20.5280463 119.881941,21.5660463 L124.551941,21.5660463 C124.176941,20.5280463 123.807941,19.5120463 123.440941,18.5170463 C123.075941,17.5210463 122.688941,16.5140463 122.279941,15.4930463 Z M131.313941,28.2270463 C130.904941,28.1920463 130.518941,28.1760463 130.151941,28.1760463 C129.785941,28.1760463 129.425941,28.1760463 129.067941,28.1760463 C128.710941,28.1760463 128.349941,28.1760463 127.983941,28.1760463 C127.617941,28.1760463 127.256941,28.1920463 126.898941,28.2270463 C126.626941,27.3940463 126.346941,26.5420463 126.056941,25.6750463 C125.767941,24.8070463 125.460941,23.9400463 125.138941,23.0710463 C124.593941,23.0550463 124.049941,23.0420463 123.504941,23.0330463 C122.959941,23.0250463 122.415941,23.0210463 121.871941,23.0210463 C121.429941,23.0210463 120.986941,23.0250463 120.544941,23.0330463 C120.102941,23.0420463 119.659941,23.0550463 119.217941,23.0710463 C118.877941,23.9400463 118.563941,24.8070463 118.273941,25.6750463 C117.983941,26.5420463 117.720941,27.3940463 117.481941,28.2270463 C117.278941,28.1920463 117.077941,28.1760463 116.883941,28.1760463 C116.687941,28.1760463 116.487941,28.1760463 116.282941,28.1760463 C116.079941,28.1760463 115.874941,28.1760463 115.670941,28.1760463 C115.466941,28.1760463 115.245941,28.1920463 115.007941,28.2270463 C115.211941,27.7840463 115.482941,27.1720463 115.823941,26.3900463 C116.163941,25.6060463 116.538941,24.7220463 116.946941,23.7350463 C117.355941,22.7490463 117.792941,21.6890463 118.261941,20.5580463 C118.729941,19.4270463 119.196941,18.2830463 119.664941,17.1260463 C120.131941,15.9690463 120.591941,14.8290463 121.042941,13.7070463 C121.492941,12.5840463 121.905941,11.5370463 122.279941,10.5680463 C122.449941,10.6020463 122.611941,10.6320463 122.765941,10.6570463 C122.917941,10.6830463 123.079941,10.6950463 123.249941,10.6950463 C123.419941,10.6950463 123.581941,10.6830463 123.733941,10.6570463 C123.888941,10.6320463 124.049941,10.6020463 124.219941,10.5680463 C124.763941,12.0140463 125.346941,13.5620463 125.967941,15.2120463 C126.588941,16.8620463 127.213941,18.4820463 127.843941,20.0730463 C128.472941,21.6640463 129.084941,23.1740463 129.680941,24.6030463 C130.275941,26.0320463 130.819941,27.2400463 131.313941,28.2270463 L131.313941,28.2270463 Z" id="Fill-2"></path>
                <path d="M135.051941,13.5030463 C135.042941,13.0940463 135.021941,12.7970463 134.987941,12.6090463 C134.732941,12.6090463 134.417941,12.6180463 134.044941,12.6350463 C133.669941,12.6520463 133.269941,12.6730463 132.844941,12.6980463 C132.419941,12.7250463 131.984941,12.7590463 131.543941,12.8010463 C131.101941,12.8440463 130.692941,12.8900463 130.317941,12.9410463 C130.352941,12.7540463 130.382941,12.5670463 130.407941,12.3800463 C130.433941,12.1920463 130.445941,12.0060463 130.445941,11.8180463 C130.445941,11.6310463 130.433941,11.4440463 130.407941,11.2570463 C130.382941,11.0690463 130.352941,10.8830463 130.317941,10.6950463 C130.896941,10.7130463 131.419941,10.7290463 131.887941,10.7460463 C132.355941,10.7640463 132.831941,10.7760463 133.316941,10.7850463 C133.801941,10.7940463 134.328941,10.8020463 134.898941,10.8110463 C135.468941,10.8190463 136.152941,10.8230463 136.952941,10.8230463 C137.752941,10.8230463 138.437941,10.8190463 139.007941,10.8110463 C139.576941,10.8020463 140.100941,10.7940463 140.576941,10.7850463 C141.052941,10.7760463 141.516941,10.7640463 141.967941,10.7460463 C142.418941,10.7290463 142.906941,10.7130463 143.434941,10.6950463 C143.400941,10.8830463 143.370941,11.0690463 143.345941,11.2570463 C143.319941,11.4440463 143.307941,11.6310463 143.307941,11.8180463 C143.307941,12.0060463 143.319941,12.1920463 143.345941,12.3800463 C143.370941,12.5670463 143.400941,12.7540463 143.434941,12.9410463 C143.094941,12.8900463 142.711941,12.8440463 142.286941,12.8010463 C141.860941,12.7590463 141.438941,12.7250463 141.022941,12.6980463 C140.605941,12.6730463 140.210941,12.6520463 139.836941,12.6350463 C139.462941,12.6180463 139.146941,12.6090463 138.892941,12.6090463 C138.875941,12.6940463 138.861941,12.8130463 138.854941,12.9670463 C138.845941,13.1200463 138.841941,13.2980463 138.841941,13.5030463 L138.841941,21.2340463 C138.841941,22.6460463 138.857941,23.9010463 138.892941,24.9980463 C138.926941,26.0960463 138.977941,27.1720463 139.045941,28.2270463 C138.756941,28.1920463 138.440941,28.1760463 138.101941,28.1760463 C137.760941,28.1760463 137.378941,28.1760463 136.952941,28.1760463 C136.527941,28.1760463 136.145941,28.1760463 135.804941,28.1760463 C135.464941,28.1760463 135.148941,28.1920463 134.859941,28.2270463 C134.928941,27.1720463 134.979941,26.0960463 135.013941,24.9980463 C135.047941,23.9010463 135.064941,22.6460463 135.064941,21.2340463 L135.064941,14.8540463 C135.064941,14.3610463 135.060941,13.9110463 135.051941,13.5030463" id="Fill-3"></path>
                <path d="M149.239941,13.5030463 C149.230941,13.0940463 149.210941,12.7970463 149.176941,12.6090463 C148.921941,12.6090463 148.605941,12.6180463 148.231941,12.6350463 C147.856941,12.6520463 147.457941,12.6730463 147.032941,12.6980463 C146.606941,12.7250463 146.173941,12.7590463 145.730941,12.8010463 C145.288941,12.8440463 144.880941,12.8900463 144.506941,12.9410463 C144.540941,12.7540463 144.569941,12.5670463 144.595941,12.3800463 C144.620941,12.1920463 144.634941,12.0060463 144.634941,11.8180463 C144.634941,11.6310463 144.620941,11.4440463 144.595941,11.2570463 C144.569941,11.0690463 144.540941,10.8830463 144.506941,10.6950463 C145.084941,10.7130463 145.607941,10.7290463 146.075941,10.7460463 C146.543941,10.7640463 147.020941,10.7760463 147.504941,10.7850463 C147.989941,10.7940463 148.517941,10.8020463 149.086941,10.8110463 C149.656941,10.8190463 150.341941,10.8230463 151.141941,10.8230463 C151.940941,10.8230463 152.625941,10.8190463 153.194941,10.8110463 C153.765941,10.8020463 154.288941,10.7940463 154.765941,10.7850463 C155.240941,10.7760463 155.704941,10.7640463 156.155941,10.7460463 C156.605941,10.7290463 157.095941,10.7130463 157.622941,10.6950463 C157.588941,10.8830463 157.559941,11.0690463 157.533941,11.2570463 C157.507941,11.4440463 157.494941,11.6310463 157.494941,11.8180463 C157.494941,12.0060463 157.507941,12.1920463 157.533941,12.3800463 C157.559941,12.5670463 157.588941,12.7540463 157.622941,12.9410463 C157.281941,12.8900463 156.899941,12.8440463 156.474941,12.8010463 C156.048941,12.7590463 155.627941,12.7250463 155.211941,12.6980463 C154.794941,12.6730463 154.398941,12.6520463 154.023941,12.6350463 C153.649941,12.6180463 153.335941,12.6090463 153.080941,12.6090463 C153.063941,12.6940463 153.050941,12.8130463 153.042941,12.9670463 C153.033941,13.1200463 153.029941,13.2980463 153.029941,13.5030463 L153.029941,21.2340463 C153.029941,22.6460463 153.045941,23.9010463 153.080941,24.9980463 C153.113941,26.0960463 153.165941,27.1720463 153.232941,28.2270463 C152.943941,28.1920463 152.629941,28.1760463 152.289941,28.1760463 C151.948941,28.1760463 151.565941,28.1760463 151.141941,28.1760463 C150.715941,28.1760463 150.332941,28.1760463 149.992941,28.1760463 C149.651941,28.1760463 149.337941,28.1920463 149.048941,28.2270463 C149.115941,27.1720463 149.167941,26.0960463 149.201941,24.9980463 C149.234941,23.9010463 149.252941,22.6460463 149.252941,21.2340463 L149.252941,14.8540463 C149.252941,14.3610463 149.248941,13.9110463 149.239941,13.5030463" id="Fill-4"></path>
                <path d="M170.023941,19.7160463 C169.377941,19.6900463 168.730941,19.6780463 168.084941,19.6780463 C167.438941,19.6780463 166.791941,19.6870463 166.146941,19.7030463 C165.498941,19.7210463 164.852941,19.7460463 164.205941,19.7790463 L164.205941,21.2340463 C164.205941,22.6460463 164.223941,23.9010463 164.257941,24.9980463 C164.291941,26.0960463 164.342941,27.1720463 164.410941,28.2270463 C164.120941,28.1920463 163.806941,28.1760463 163.466941,28.1760463 C163.125941,28.1760463 162.742941,28.1760463 162.317941,28.1760463 C161.892941,28.1760463 161.509941,28.1760463 161.169941,28.1760463 C160.829941,28.1760463 160.514941,28.1920463 160.225941,28.2270463 C160.293941,27.1720463 160.344941,26.0960463 160.378941,24.9980463 C160.412941,23.9010463 160.429941,22.6460463 160.429941,21.2340463 L160.429941,17.7640463 C160.429941,16.3520463 160.412941,15.0980463 160.378941,14.0000463 C160.344941,12.9030463 160.293941,11.8020463 160.225941,10.6950463 C160.514941,10.7290463 160.829941,10.7590463 161.169941,10.7850463 C161.509941,10.8110463 161.892941,10.8230463 162.317941,10.8230463 C162.742941,10.8230463 163.125941,10.8110463 163.466941,10.7850463 C163.806941,10.7590463 164.120941,10.7290463 164.410941,10.6950463 C164.324941,11.8020463 164.270941,12.8950463 164.243941,13.9750463 C164.219941,15.0550463 164.205941,16.3010463 164.205941,17.7130463 C164.647941,17.7300463 165.179941,17.7430463 165.800941,17.7510463 C166.421941,17.7600463 167.191941,17.7640463 168.110941,17.7640463 C169.028941,17.7640463 169.777941,17.7600463 170.355941,17.7510463 C170.934941,17.7430463 171.470941,17.7300463 171.963941,17.7130463 C171.963941,16.3010463 171.946941,15.0550463 171.912941,13.9750463 C171.878941,12.8950463 171.826941,11.8020463 171.759941,10.6950463 C172.048941,10.7290463 172.362941,10.7590463 172.703941,10.7850463 C173.043941,10.8110463 173.426941,10.8230463 173.852941,10.8230463 C174.276941,10.8230463 174.659941,10.8110463 175.000941,10.7850463 C175.340941,10.7590463 175.654941,10.7290463 175.944941,10.6950463 C175.876941,11.8020463 175.825941,12.9030463 175.790941,14.0000463 C175.757941,15.0980463 175.739941,16.3520463 175.739941,17.7640463 L175.739941,21.2340463 C175.739941,22.6460463 175.757941,23.9010463 175.790941,24.9980463 C175.825941,26.0960463 175.876941,27.1720463 175.944941,28.2270463 C175.654941,28.1920463 175.340941,28.1760463 175.000941,28.1760463 C174.659941,28.1760463 174.276941,28.1760463 173.852941,28.1760463 C173.426941,28.1760463 173.043941,28.1760463 172.703941,28.1760463 C172.362941,28.1760463 172.048941,28.1920463 171.759941,28.2270463 C171.826941,27.1720463 171.878941,26.0960463 171.912941,24.9980463 C171.946941,23.9010463 171.963941,22.6460463 171.963941,21.2340463 L171.963941,19.7790463 C171.316941,19.7630463 170.670941,19.7410463 170.023941,19.7160463" id="Fill-5"></path>
                <path d="M180.002941,14.0000463 C179.967941,12.9030463 179.916941,11.8020463 179.848941,10.6950463 C180.613941,10.7130463 181.370941,10.7380463 182.119941,10.7710463 C182.868941,10.8070463 183.625941,10.8230463 184.390941,10.8230463 C185.649941,10.8230463 186.768941,10.8110463 187.746941,10.7850463 C188.724941,10.7590463 189.383941,10.7290463 189.724941,10.6950463 C189.655941,10.9680463 189.622941,11.3250463 189.622941,11.7680463 C189.622941,12.0400463 189.630941,12.2520463 189.646941,12.4050463 C189.664941,12.5590463 189.689941,12.7290463 189.724941,12.9150463 C189.230941,12.8820463 188.690941,12.8480463 188.104941,12.8130463 C187.517941,12.7790463 186.946941,12.7460463 186.394941,12.7110463 C185.841941,12.6780463 185.343941,12.6520463 184.901941,12.6350463 C184.458941,12.6180463 184.144941,12.6090463 183.957941,12.6090463 C183.889941,13.5450463 183.851941,14.4720463 183.842941,15.3910463 C183.833941,16.3100463 183.829941,17.2370463 183.829941,18.1720463 C184.935941,18.1550463 185.935941,18.1300463 186.827941,18.0960463 C187.721941,18.0620463 188.652941,18.0190463 189.622941,17.9680463 C189.570941,18.2580463 189.536941,18.4790463 189.520941,18.6320463 C189.502941,18.7850463 189.494941,18.9460463 189.494941,19.1160463 C189.494941,19.2530463 189.507941,19.3940463 189.532941,19.5370463 C189.558941,19.6830463 189.587941,19.8910463 189.622941,20.1630463 C187.682941,20.0100463 185.751941,19.9330463 183.829941,19.9330463 C183.829941,20.4780463 183.824941,21.0220463 183.816941,21.5660463 C183.808941,22.1110463 183.804941,22.6550463 183.804941,23.1990463 C183.804941,24.3060463 183.829941,25.3680463 183.880941,26.3900463 C184.850941,26.3900463 185.819941,26.3630463 186.789941,26.3130463 C187.759941,26.2620463 188.736941,26.1770463 189.724941,26.0580463 C189.689941,26.2450463 189.664941,26.4150463 189.646941,26.5670463 C189.630941,26.7210463 189.622941,26.9340463 189.622941,27.2060463 C189.622941,27.4780463 189.630941,27.6900463 189.646941,27.8440463 C189.664941,27.9970463 189.689941,28.1240463 189.724941,28.2270463 C189.265941,28.2090463 188.698941,28.1960463 188.027941,28.1890463 C187.355941,28.1800463 186.432941,28.1760463 185.258941,28.1760463 C184.220941,28.1760463 183.378941,28.1760463 182.731941,28.1760463 C182.103941,28.1760463 181.597941,28.1760463 181.214941,28.1760463 C180.830941,28.1760463 180.541941,28.1800463 180.346941,28.1890463 C180.150941,28.1960463 179.984941,28.2090463 179.848941,28.2270463 C179.916941,27.1720463 179.967941,26.0960463 180.002941,24.9980463 C180.035941,23.9010463 180.053941,22.6460463 180.053941,21.2340463 L180.053941,17.7640463 C180.053941,16.3520463 180.035941,15.0980463 180.002941,14.0000463" id="Fill-6"></path>
                <path d="M202.381941,18.6950463 C201.989941,19.7760463 201.594941,20.8770463 201.193941,22.0000463 C200.794941,23.1230463 200.407941,24.2290463 200.033941,25.3170463 C199.658941,26.4060463 199.335941,27.3760463 199.063941,28.2270463 C198.672941,28.1920463 198.238941,28.1760463 197.762941,28.1760463 C197.541941,28.1760463 197.319941,28.1760463 197.099941,28.1760463 C196.877941,28.1760463 196.656941,28.1920463 196.435941,28.2270463 C196.247941,27.5290463 196.001941,26.6270463 195.695941,25.5210463 C195.389941,24.4160463 195.057941,23.2420463 194.700941,22.0000463 C194.343941,20.7590463 193.977941,19.5040463 193.603941,18.2360463 C193.228941,16.9690463 192.879941,15.8080463 192.556941,14.7530463 C192.233941,13.6980463 191.960941,12.8010463 191.739941,12.0610463 C191.519941,11.3200463 191.373941,10.8650463 191.306941,10.6950463 C191.680941,10.7290463 192.046941,10.7590463 192.403941,10.7850463 C192.761941,10.8110463 193.108941,10.8230463 193.449941,10.8230463 C193.790941,10.8230463 194.134941,10.8110463 194.483941,10.7850463 C194.831941,10.7590463 195.176941,10.7290463 195.517941,10.6950463 C195.771941,11.7840463 196.044941,12.9030463 196.333941,14.0510463 C196.622941,15.1990463 196.916941,16.3310463 197.213941,17.4450463 C197.511941,18.5600463 197.800941,19.6400463 198.081941,20.6860463 C198.361941,21.7320463 198.621941,22.6980463 198.859941,23.5820463 L198.910941,23.5820463 C199.284941,22.5110463 199.688941,21.3500463 200.122941,20.0990463 C200.557941,18.8490463 200.977941,17.6240463 201.386941,16.4250463 C201.794941,15.2250463 202.167941,14.1190463 202.509941,13.1070463 C202.849941,12.0950463 203.111941,11.2910463 203.299941,10.6950463 C203.521941,10.7290463 203.732941,10.7590463 203.938941,10.7850463 C204.142941,10.8110463 204.355941,10.8230463 204.575941,10.8230463 C204.796941,10.8230463 205.009941,10.8110463 205.213941,10.7850463 C205.417941,10.7590463 205.630941,10.7290463 205.852941,10.6950463 C205.919941,11.0690463 206.046941,11.5720463 206.233941,12.2010463 C206.421941,12.8300463 206.638941,13.5280463 206.885941,14.2930463 C207.131941,15.0590463 207.395941,15.8670463 207.676941,16.7180463 C207.956941,17.5680463 208.236941,18.4110463 208.518941,19.2440463 C208.799941,20.0780463 209.058941,20.8690463 209.296941,21.6170463 C209.534941,22.3660463 209.730941,23.0210463 209.883941,23.5820463 L209.934941,23.5820463 C210.274941,22.5110463 210.636941,21.3280463 211.019941,20.0350463 C211.401941,18.7420463 211.771941,17.4920463 212.129941,16.2840463 C212.485941,15.0760463 212.809941,13.9710463 213.098941,12.9670463 C213.387941,11.9630463 213.592941,11.2060463 213.711941,10.6950463 C214.136941,10.7800463 214.493941,10.8230463 214.782941,10.8230463 C214.970941,10.8230463 215.160941,10.8110463 215.356941,10.7850463 C215.552941,10.7590463 215.752941,10.7290463 215.956941,10.6950463 C215.837941,11.0190463 215.650941,11.5460463 215.396941,12.2770463 C215.140941,13.0090463 214.842941,13.8720463 214.502941,14.8680463 C214.161941,15.8630463 213.796941,16.9470463 213.404941,18.1210463 C213.013941,19.2950463 212.621941,20.4780463 212.230941,21.6680463 C211.839941,22.8590463 211.461941,24.0240463 211.095941,25.1640463 C210.729941,26.3050463 210.410941,27.3250463 210.139941,28.2270463 C209.746941,28.1920463 209.313941,28.1760463 208.837941,28.1760463 C208.615941,28.1760463 208.395941,28.1760463 208.174941,28.1760463 C207.952941,28.1760463 207.730941,28.1920463 207.510941,28.2270463 C206.965941,26.1510463 206.349941,24.0880463 205.659941,22.0380463 C204.971941,19.9880463 204.243941,17.9000463 203.478941,15.7730463 L203.427941,15.7730463 C203.120941,16.6420463 202.771941,17.6150463 202.381941,18.6950463" id="Fill-7"></path>
                <path d="M93.0359409,39.3860463 C92.9989409,38.1780463 92.9419409,36.9660463 92.8679409,35.7480463 C93.7109409,35.7670463 94.5439409,35.7950463 95.3679409,35.8320463 C96.1909409,35.8700463 97.0249409,35.8880463 97.8669409,35.8880463 C99.2529409,35.8880463 100.483941,35.8740463 101.561941,35.8460463 C102.637941,35.8180463 103.362941,35.7860463 103.737941,35.7480463 C103.662941,36.0480463 103.625941,36.4400463 103.625941,36.9280463 C103.625941,37.2280463 103.634941,37.4610463 103.652941,37.6300463 C103.671941,37.7990463 103.699941,37.9850463 103.737941,38.1910463 C103.193941,38.1540463 102.600941,38.1170463 101.953941,38.0790463 C101.308941,38.0420463 100.680941,38.0050463 100.071941,37.9670463 C99.4639409,37.9300463 98.9159409,37.9010463 98.4289409,37.8830463 C97.9419409,37.8640463 97.5959409,37.8550463 97.3899409,37.8550463 C97.3149409,38.8850463 97.2729409,39.9050463 97.2639409,40.9160463 C97.2539409,41.9270463 97.2489409,42.9480463 97.2489409,43.9780463 C98.4669409,43.9590463 99.5659409,43.9310463 100.549941,43.8940463 C101.532941,43.8560463 102.558941,43.8100463 103.625941,43.7530463 C103.568941,44.0710463 103.531941,44.3150463 103.513941,44.4830463 C103.493941,44.6510463 103.484941,44.8300463 103.484941,45.0170463 C103.484941,45.1670463 103.498941,45.3210463 103.526941,45.4810463 C103.555941,45.6400463 103.587941,45.8690463 103.625941,46.1690463 C101.490941,46.0000463 99.3649409,45.9160463 97.2489409,45.9160463 L97.2489409,47.3490463 C97.2489409,48.9020463 97.2679409,50.2830463 97.3059409,51.4910463 C97.3429409,52.6990463 97.3989409,53.8840463 97.4749409,55.0440463 C97.1549409,55.0070463 96.8099409,54.9880463 96.4359409,54.9880463 C96.0609409,54.9880463 95.6399409,54.9880463 95.1709409,54.9880463 C94.7029409,54.9880463 94.2809409,54.9880463 93.9069409,54.9880463 C93.5319409,54.9880463 93.1859409,55.0070463 92.8679409,55.0440463 C92.9419409,53.8840463 92.9989409,52.6990463 93.0359409,51.4910463 C93.0739409,50.2830463 93.0929409,48.9020463 93.0929409,47.3490463 L93.0929409,43.5280463 C93.0929409,41.9750463 93.0739409,40.5930463 93.0359409,39.3860463" id="Fill-8"></path>
                <path d="M107.332941,39.3860463 C107.294941,38.1780463 107.238941,36.9660463 107.164941,35.7480463 C107.481941,35.7860463 107.828941,35.8180463 108.203941,35.8460463 C108.577941,35.8740463 108.999941,35.8880463 109.467941,35.8880463 C109.935941,35.8880463 110.355941,35.8740463 110.730941,35.8460463 C111.105941,35.8180463 111.451941,35.7860463 111.770941,35.7480463 C111.695941,36.9660463 111.639941,38.1780463 111.602941,39.3860463 C111.563941,40.5930463 111.545941,41.9750463 111.545941,43.5280463 L111.545941,47.3490463 C111.545941,48.4160463 111.550941,49.4450463 111.560941,50.4380463 C111.568941,51.4310463 111.582941,52.2920463 111.602941,53.0220463 C112.669941,53.0220463 113.736941,52.9940463 114.804941,52.9380463 C115.871941,52.8820463 116.947941,52.7880463 118.034941,52.6570463 C117.996941,52.8630463 117.968941,53.0500463 117.949941,53.2190463 C117.931941,53.3870463 117.921941,53.6210463 117.921941,53.9210463 C117.921941,54.2210463 117.931941,54.4540463 117.949941,54.6230463 C117.968941,54.7910463 117.996941,54.9320463 118.034941,55.0440463 C117.528941,55.0250463 116.905941,55.0120463 116.166941,55.0020463 C115.426941,54.9920463 114.410941,54.9880463 113.118941,54.9880463 C111.976941,54.9880463 111.049941,54.9880463 110.338941,54.9880463 C109.645941,54.9880463 109.088941,54.9880463 108.666941,54.9880463 C108.245941,54.9880463 107.927941,54.9920463 107.711941,55.0020463 C107.496941,55.0120463 107.313941,55.0250463 107.164941,55.0440463 C107.238941,53.8840463 107.294941,52.6990463 107.332941,51.4910463 C107.369941,50.2830463 107.389941,48.9020463 107.389941,47.3490463 L107.389941,43.5280463 C107.389941,41.9750463 107.369941,40.5930463 107.332941,39.3860463" id="Fill-9"></path>
                <path d="M121.488941,39.3860463 C121.451941,38.1780463 121.395941,36.9660463 121.320941,35.7480463 C121.639941,35.7860463 121.984941,35.8180463 122.359941,35.8460463 C122.733941,35.8740463 123.155941,35.8880463 123.623941,35.8880463 C124.091941,35.8880463 124.513941,35.8740463 124.887941,35.8460463 C125.262941,35.8180463 125.607941,35.7860463 125.927941,35.7480463 C125.852941,36.9660463 125.795941,38.1780463 125.758941,39.3860463 C125.721941,40.5930463 125.702941,41.9750463 125.702941,43.5280463 L125.702941,47.3490463 C125.702941,48.9020463 125.721941,50.2830463 125.758941,51.4910463 C125.795941,52.6990463 125.852941,53.8840463 125.927941,55.0440463 C125.607941,55.0070463 125.262941,54.9880463 124.887941,54.9880463 C124.513941,54.9880463 124.091941,54.9880463 123.623941,54.9880463 C123.155941,54.9880463 122.733941,54.9880463 122.359941,54.9880463 C121.984941,54.9880463 121.639941,55.0070463 121.320941,55.0440463 C121.395941,53.8840463 121.451941,52.6990463 121.488941,51.4910463 C121.525941,50.2830463 121.545941,48.9020463 121.545941,47.3490463 L121.545941,43.5280463 C121.545941,41.9750463 121.525941,40.5930463 121.488941,39.3860463" id="Fill-10"></path>
                <path d="M131.038941,41.3370463 C131.038941,40.0450463 131.020941,38.9590463 130.982941,38.0790463 C130.944941,37.1990463 130.916941,36.4220463 130.898941,35.7480463 C131.422941,35.8420463 131.843941,35.8880463 132.162941,35.8880463 C132.480941,35.8880463 132.901941,35.8420463 133.426941,35.7480463 C135.467941,38.0140463 137.484941,40.2420463 139.479941,42.4330463 C141.473941,44.6240463 143.519941,46.8530463 145.615941,49.1170463 L145.615941,43.9490463 C145.615941,43.0320463 145.611941,42.1290463 145.602941,41.2390463 C145.592941,40.3500463 145.583941,39.5300463 145.573941,38.7810463 C145.564941,38.0330463 145.546941,37.3870463 145.518941,36.8430463 C145.489941,36.3010463 145.456941,35.9360463 145.419941,35.7480463 C145.943941,35.8420463 146.364941,35.8880463 146.684941,35.8880463 C147.001941,35.8880463 147.423941,35.8420463 147.947941,35.7480463 C147.853941,37.4520463 147.778941,38.9920463 147.723941,40.3680463 C147.666941,41.7450463 147.619941,43.0420463 147.582941,44.2590463 C147.544941,45.4760463 147.521941,46.6790463 147.512941,47.8680463 C147.502941,49.0570463 147.498941,50.3250463 147.498941,51.6740463 L147.498941,55.0440463 C147.123941,55.0070463 146.739941,54.9880463 146.346941,54.9880463 C145.934941,54.9880463 145.568941,55.0070463 145.251941,55.0440463 C141.393941,50.5500463 137.302941,46.0280463 132.977941,41.4780463 C132.957941,42.0220463 132.943941,42.5650463 132.934941,43.1060463 C132.925941,43.6500463 132.920941,44.2020463 132.920941,44.7640463 L132.920941,48.0230463 C132.920941,49.1460463 132.925941,50.1010463 132.934941,50.8870463 C132.943941,51.6740463 132.957941,52.3390463 132.977941,52.8820463 C132.994941,53.4250463 133.014941,53.8690463 133.032941,54.2160463 C133.051941,54.5630463 133.070941,54.8380463 133.089941,55.0440463 C132.864941,55.0070463 132.640941,54.9880463 132.414941,54.9880463 C132.189941,54.9880463 131.975941,54.9880463 131.769941,54.9880463 C131.337941,54.9880463 130.906941,55.0070463 130.477941,55.0440463 C130.514941,54.8950463 130.561941,54.3600463 130.616941,53.4430463 C130.673941,52.5260463 130.733941,51.4070463 130.800941,50.0870463 C130.864941,48.7670463 130.921941,47.3340463 130.968941,45.7890463 C131.015941,44.2440463 131.038941,42.7610463 131.038941,41.3370463" id="Fill-11"></path>
                <path d="M156.795941,49.3980463 L156.795941,51.0840463 C156.795941,51.6270463 156.800941,52.1230463 156.809941,52.5720463 C156.818941,53.0220463 156.823941,53.3130463 156.823941,53.4430463 C157.104941,53.4620463 157.441941,53.4800463 157.834941,53.4990463 C158.228941,53.5190463 158.714941,53.5270463 159.295941,53.5270463 C161.410941,53.5270463 163.087941,52.8070463 164.322941,51.3640463 C165.559941,49.9230463 166.176941,47.7410463 166.176941,44.8200463 C166.176941,43.6590463 166.022941,42.6200463 165.713941,41.7020463 C165.404941,40.7850463 164.969941,40.0030463 164.407941,39.3570463 C163.846941,38.7110463 163.171941,38.2150463 162.384941,37.8680463 C161.598941,37.5230463 160.718941,37.3490463 159.744941,37.3490463 C159.070941,37.3490463 158.522941,37.3630463 158.102941,37.3910463 C157.680941,37.4190463 157.254941,37.4520463 156.823941,37.4890463 C156.823941,37.6200463 156.818941,37.9100463 156.809941,38.3600463 C156.800941,38.8100463 156.795941,39.3150463 156.795941,39.8770463 L156.795941,49.3980463 Z M152.638941,43.5280463 C152.638941,41.9750463 152.619941,40.5930463 152.582941,39.3860463 C152.544941,38.1780463 152.488941,36.9660463 152.413941,35.7480463 C152.731941,35.7860463 153.077941,35.8180463 153.452941,35.8460463 C153.827941,35.8740463 154.248941,35.8880463 154.716941,35.8880463 C155.334941,35.8880463 156.027941,35.8650463 156.795941,35.8180463 C157.563941,35.7720463 158.564941,35.7480463 159.801941,35.7480463 C161.410941,35.7480463 162.876941,35.8940463 164.196941,36.1840463 C165.517941,36.4740463 166.653941,36.9660463 167.608941,37.6580463 C168.563941,38.3510463 169.303941,39.2820463 169.828941,40.4520463 C170.352941,41.6230463 170.614941,43.0980463 170.614941,44.8760463 C170.614941,46.4310463 170.356941,47.8350463 169.842941,49.0900463 C169.327941,50.3450463 168.625941,51.4170463 167.735941,52.3060463 C166.846941,53.1950463 165.815941,53.8740463 164.646941,54.3420463 C163.475941,54.8110463 162.226941,55.0440463 160.896941,55.0440463 C159.491941,55.0440463 158.293941,55.0340463 157.301941,55.0170463 C156.308941,54.9970463 155.446941,54.9880463 154.716941,54.9880463 C154.248941,54.9880463 153.827941,54.9880463 153.452941,54.9880463 C153.077941,54.9880463 152.731941,55.0070463 152.413941,55.0440463 C152.488941,53.8840463 152.544941,52.6990463 152.582941,51.4910463 C152.619941,50.2830463 152.638941,48.9020463 152.638941,47.3490463 L152.638941,43.5280463 L152.638941,43.5280463 Z" id="Fill-12"></path>
                <path d="M174.182941,39.3860463 C174.144941,38.1780463 174.087941,36.9660463 174.013941,35.7480463 C174.855941,35.7670463 175.688941,35.7950463 176.513941,35.8320463 C177.336941,35.8700463 178.170941,35.8880463 179.013941,35.8880463 C180.398941,35.8880463 181.629941,35.8740463 182.706941,35.8460463 C183.782941,35.8180463 184.508941,35.7860463 184.883941,35.7480463 C184.808941,36.0480463 184.771941,36.4400463 184.771941,36.9280463 C184.771941,37.2280463 184.779941,37.4610463 184.799941,37.6300463 C184.816941,37.7990463 184.846941,37.9850463 184.883941,38.1910463 C184.339941,38.1540463 183.745941,38.1170463 183.099941,38.0790463 C182.453941,38.0420463 181.825941,38.0050463 181.217941,37.9670463 C180.608941,37.9300463 180.062941,37.9010463 179.574941,37.8830463 C179.087941,37.8640463 178.741941,37.8550463 178.535941,37.8550463 C178.460941,38.8850463 178.418941,39.9050463 178.409941,40.9160463 C178.399941,41.9270463 178.395941,42.9480463 178.395941,43.9780463 C179.611941,43.9590463 180.712941,43.9310463 181.694941,43.8940463 C182.678941,43.8560463 183.703941,43.8100463 184.771941,43.7530463 C184.714941,44.0710463 184.677941,44.3150463 184.658941,44.4830463 C184.640941,44.6510463 184.630941,44.8300463 184.630941,45.0170463 C184.630941,45.1670463 184.645941,45.3210463 184.672941,45.4810463 C184.700941,45.6400463 184.732941,45.8690463 184.771941,46.1690463 C182.636941,46.0000463 180.510941,45.9160463 178.395941,45.9160463 C178.395941,46.5160463 178.390941,47.1140463 178.380941,47.7140463 C178.371941,48.3130463 178.366941,48.9120463 178.366941,49.5110463 C178.366941,50.7290463 178.395941,51.8980463 178.451941,53.0220463 C179.518941,53.0220463 180.586941,52.9940463 181.652941,52.9380463 C182.720941,52.8820463 183.797941,52.7880463 184.883941,52.6570463 C184.846941,52.8630463 184.816941,53.0500463 184.799941,53.2190463 C184.779941,53.3870463 184.771941,53.6210463 184.771941,53.9210463 C184.771941,54.2210463 184.779941,54.4540463 184.799941,54.6230463 C184.816941,54.7910463 184.846941,54.9320463 184.883941,55.0440463 C184.377941,55.0250463 183.755941,55.0120463 183.015941,55.0020463 C182.275941,54.9920463 181.260941,54.9880463 179.968941,54.9880463 C178.825941,54.9880463 177.897941,54.9880463 177.187941,54.9880463 C176.494941,54.9880463 175.937941,54.9880463 175.516941,54.9880463 C175.095941,54.9880463 174.775941,54.9920463 174.561941,55.0020463 C174.346941,55.0120463 174.162941,55.0250463 174.013941,55.0440463 C174.087941,53.8840463 174.144941,52.6990463 174.182941,51.4910463 C174.219941,50.2830463 174.237941,48.9020463 174.237941,47.3490463 L174.237941,43.5280463 C174.237941,41.9750463 174.219941,40.5930463 174.182941,39.3860463" id="Fill-13"></path>
                <path d="M197.129941,41.0280463 C197.129941,40.2050463 197.045941,39.5490463 196.876941,39.0630463 C196.708941,38.5750463 196.450941,38.2050463 196.104941,37.9530463 C195.757941,37.7000463 195.308941,37.5360463 194.756941,37.4610463 C194.203941,37.3870463 193.543941,37.3490463 192.775941,37.3490463 C192.720941,39.8960463 192.691941,42.4420463 192.691941,44.9890463 C192.804941,45.0080463 192.911941,45.0220463 193.015941,45.0310463 C193.117941,45.0400463 193.216941,45.0450463 193.309941,45.0450463 C194.545941,45.0450463 195.490941,44.7130463 196.146941,44.0480463 C196.802941,43.3830463 197.129941,42.3770463 197.129941,41.0280463 Z M192.691941,46.1960463 L192.691941,47.3490463 C192.691941,48.9020463 192.709941,50.2830463 192.747941,51.4910463 C192.785941,52.6990463 192.841941,53.8840463 192.916941,55.0440463 C192.598941,55.0070463 192.251941,54.9880463 191.877941,54.9880463 C191.502941,54.9880463 191.081941,54.9880463 190.612941,54.9880463 C190.145941,54.9880463 189.723941,54.9880463 189.349941,54.9880463 C188.974941,54.9880463 188.627941,55.0070463 188.310941,55.0440463 C188.384941,53.8840463 188.440941,52.6990463 188.479941,51.4910463 C188.516941,50.2830463 188.534941,48.9020463 188.534941,47.3490463 L188.534941,43.5280463 C188.534941,41.9750463 188.516941,40.5930463 188.479941,39.3860463 C188.440941,38.1780463 188.384941,36.9660463 188.310941,35.7480463 C188.627941,35.7860463 188.974941,35.8180463 189.349941,35.8460463 C189.723941,35.8740463 190.145941,35.8880463 190.612941,35.8880463 C191.118941,35.8880463 191.694941,35.8650463 192.340941,35.8180463 C192.986941,35.7720463 193.786941,35.7480463 194.741941,35.7480463 C195.453941,35.7480463 196.062941,35.7670463 196.567941,35.8040463 C197.073941,35.8420463 197.509941,35.8980463 197.873941,35.9730463 C198.238941,36.0480463 198.557941,36.1460463 198.828941,36.2680463 C199.100941,36.3900463 199.357941,36.5340463 199.601941,36.7030463 C200.163941,37.1150463 200.607941,37.6250463 200.935941,38.2330463 C201.262941,38.8420463 201.427941,39.5670463 201.427941,40.4100463 C201.427941,41.7770463 201.052941,42.8920463 200.303941,43.7530463 C199.554941,44.6140463 198.478941,45.2240463 197.073941,45.5790463 C197.972941,47.1700463 198.937941,48.7570463 199.966941,50.3400463 C200.995941,51.9220463 202.025941,53.4900463 203.056941,55.0440463 C202.625941,55.0070463 202.203941,54.9880463 201.792941,54.9880463 C201.380941,54.9880463 200.958941,54.9880463 200.527941,54.9880463 C200.097941,54.9880463 199.671941,54.9880463 199.250941,54.9880463 C198.828941,54.9880463 198.402941,55.0070463 197.972941,55.0440463 L192.944941,46.1960463 L192.691941,46.1960463 L192.691941,46.1960463 Z" id="Fill-14"></path>
                <path d="M210.583941,37.1240463 C209.722941,37.1240463 209.020941,37.3770463 208.477941,37.8830463 C207.933941,38.3880463 207.662941,38.9780463 207.662941,39.6520463 C207.662941,40.3450463 207.872941,40.9120463 208.294941,41.3520463 C208.716941,41.7920463 209.244941,42.1900463 209.881941,42.5450463 C210.518941,42.9010463 211.201941,43.2430463 211.932941,43.5700463 C212.661941,43.8980463 213.345941,44.3010463 213.981941,44.7780463 C214.618941,45.2560463 215.147941,45.8360463 215.568941,46.5200463 C215.990941,47.2030463 216.200941,48.0780463 216.200941,49.1460463 C216.200941,50.0820463 216.022941,50.9390463 215.667941,51.7160463 C215.311941,52.4930463 214.806941,53.1580463 214.150941,53.7100463 C213.495941,54.2630463 212.713941,54.6840463 211.805941,54.9750463 C210.896941,55.2640463 209.881941,55.4090463 208.758941,55.4090463 C207.746941,55.4090463 206.843941,55.3020463 206.047941,55.0860463 C205.251941,54.8710463 204.647941,54.6050463 204.235941,54.2860463 C204.422941,53.6310463 204.581941,53.0310463 204.713941,52.4880463 C204.844941,51.9450463 204.956941,51.3560463 205.050941,50.7190463 L205.584941,50.7190463 C205.658941,51.1310463 205.798941,51.5200463 206.005941,51.8850463 C206.211941,52.2500463 206.473941,52.5720463 206.791941,52.8540463 C207.109941,53.1340463 207.493941,53.3540463 207.942941,53.5140463 C208.392941,53.6730463 208.897941,53.7520463 209.460941,53.7520463 C210.583941,53.7520463 211.412941,53.4720463 211.945941,52.9090463 C212.479941,52.3480463 212.745941,51.6740463 212.745941,50.8870463 C212.745941,50.1760463 212.540941,49.5950463 212.128941,49.1460463 C211.716941,48.6960463 211.201941,48.2990463 210.583941,47.9520463 C209.965941,47.6060463 209.291941,47.2690463 208.561941,46.9400463 C207.830941,46.6130463 207.156941,46.2160463 206.539941,45.7470463 C205.921941,45.2790463 205.405941,44.7040463 204.993941,44.0200463 C204.581941,43.3360463 204.375941,42.4610463 204.375941,41.3940463 C204.375941,40.4200463 204.549941,39.5590463 204.896941,38.8100463 C205.241941,38.0610463 205.705941,37.4330463 206.285941,36.9280463 C206.866941,36.4220463 207.536941,36.0380463 208.294941,35.7760463 C209.052941,35.5140463 209.853941,35.3830463 210.695941,35.3830463 C211.706941,35.3830463 212.592941,35.5050463 213.350941,35.7480463 C214.108941,35.9910463 214.759941,36.3280463 215.302941,36.7590463 C215.134941,37.1900463 214.988941,37.6060463 214.866941,38.0090463 C214.744941,38.4120463 214.590941,38.9220463 214.402941,39.5400463 L213.981941,39.5400463 C213.382941,37.9300463 212.249941,37.1240463 210.583941,37.1240463" id="Fill-15"></path>
                <path d="M99.2629409,70.0310463 L97.5049409,65.9640463 L95.7619409,70.0310463 L99.2629409,70.0310463 Z M96.7059409,63.8280463 L98.3609409,63.8280463 L102.835941,74.0690463 L100.946941,74.0690463 L99.9159409,71.6140463 L95.1069409,71.6140463 L94.0629409,74.0690463 L92.2309409,74.0690463 L96.7059409,63.8280463 L96.7059409,63.8280463 Z" id="Fill-16"></path>
                <path d="M104.370941,66.3990463 L106.128941,66.3990463 L106.128941,67.5910463 C106.622941,66.8640463 107.334941,66.2390463 108.525941,66.2390463 C110.254941,66.2390463 111.256941,67.4010463 111.256941,69.1890463 L111.256941,74.0690463 L109.498941,74.0690463 L109.498941,69.7110463 C109.498941,68.5210463 108.903941,67.8380463 107.856941,67.8380463 C106.840941,67.8380463 106.128941,68.5490463 106.128941,69.7400463 L106.128941,74.0690463 L104.370941,74.0690463 L104.370941,66.3990463" id="Fill-17"></path>
                <path d="M119.185941,69.8710463 L119.185941,69.8420463 C119.185941,68.5780463 118.153941,67.7220463 116.934941,67.7220463 C115.713941,67.7220463 114.755941,68.5640463 114.755941,69.8280463 L114.755941,69.8560463 C114.755941,71.1200463 115.728941,71.9780463 116.934941,71.9780463 C118.153941,71.9780463 119.185941,71.1060463 119.185941,69.8710463 Z M113.360941,75.5080463 L114.014941,74.1860463 C114.827941,74.6940463 115.698941,74.9990463 116.745941,74.9990463 C118.313941,74.9990463 119.171941,74.1860463 119.171941,72.6460463 L119.171941,72.0500463 C118.531941,72.8780463 117.732941,73.4590463 116.469941,73.4590463 C114.667941,73.4590463 112.982941,72.1230463 112.982941,69.8710463 L112.982941,69.8420463 C112.982941,67.5760463 114.682941,66.2390463 116.469941,66.2390463 C117.762941,66.2390463 118.561941,66.8350463 119.156941,67.5470463 L119.156941,66.3990463 L120.914941,66.3990463 L120.914941,72.5000463 C120.914941,73.7930463 120.579941,74.7520463 119.940941,75.3920463 C119.243941,76.0890463 118.168941,76.4230463 116.788941,76.4230463 C115.524941,76.4230463 114.348941,76.1040463 113.360941,75.5080463 L113.360941,75.5080463 Z" id="Fill-18"></path>
                <polygon id="Fill-19" points="123.206941 74.0700463 124.964941 74.0700463 124.964941 63.4650463 123.206941 63.4650463"></polygon>
                <path d="M127.359941,74.0690463 L129.116941,74.0690463 L129.116941,66.3990463 L127.359941,66.3990463 L127.359941,74.0690463 Z M127.286941,65.2230463 L129.175941,65.2230463 L129.175941,63.5530463 L127.286941,63.5530463 L127.286941,65.2230463 Z" id="Fill-20"></path>
                <path d="M130.988941,70.2780463 L130.988941,70.2490463 C130.988941,68.0700463 132.674941,66.2390463 134.969941,66.2390463 C136.421941,66.2390463 137.322941,66.7770463 138.034941,67.5620463 L136.944941,68.7380463 C136.407941,68.1720463 135.840941,67.7790463 134.954941,67.7790463 C133.676941,67.7790463 132.746941,68.8840463 132.746941,70.2200463 L132.746941,70.2490463 C132.746941,71.6140463 133.690941,72.7190463 135.041941,72.7190463 C135.869941,72.7190463 136.480941,72.3260463 137.031941,71.7600463 L138.092941,72.8060463 C137.337941,73.6480463 136.450941,74.2440463 134.954941,74.2440463 C132.674941,74.2440463 130.988941,72.4570463 130.988941,70.2780463" id="Fill-21"></path>
                <path d="M144.438941,70.8590463 C143.987941,70.6850463 143.362941,70.5540463 142.680941,70.5540463 C141.575941,70.5540463 140.922941,71.0040463 140.922941,71.7450463 L140.922941,71.7740463 C140.922941,72.5000463 141.575941,72.9070463 142.403941,72.9070463 C143.565941,72.9070463 144.438941,72.2540463 144.438941,71.2950463 L144.438941,70.8590463 Z M144.394941,74.0690463 L144.394941,73.1250463 C143.871941,73.7500463 143.071941,74.2300463 141.909941,74.2300463 C140.457941,74.2300463 139.179941,73.4010463 139.179941,71.8610463 L139.179941,71.8320463 C139.179941,70.1330463 140.501941,69.3190463 142.287941,69.3190463 C143.217941,69.3190463 143.813941,69.4500463 144.408941,69.6390463 L144.408941,69.4930463 C144.408941,68.4340463 143.740941,67.8520463 142.520941,67.8520463 C141.663941,67.8520463 141.023941,68.0410463 140.326941,68.3310463 L139.847941,66.9220463 C140.689941,66.5450463 141.518941,66.2830463 142.767941,66.2830463 C145.033941,66.2830463 146.137941,67.4750463 146.137941,69.5230463 L146.137941,74.0690463 L144.394941,74.0690463 L144.394941,74.0690463 Z" id="Fill-22"></path>
                <path d="M148.226941,66.3990463 L149.983941,66.3990463 L149.983941,67.5910463 C150.478941,66.8640463 151.189941,66.2390463 152.381941,66.2390463 C154.109941,66.2390463 155.111941,67.4010463 155.111941,69.1890463 L155.111941,74.0690463 L153.354941,74.0690463 L153.354941,69.7110463 C153.354941,68.5210463 152.759941,67.8380463 151.712941,67.8380463 C150.695941,67.8380463 149.983941,68.5490463 149.983941,69.7400463 L149.983941,74.0690463 L148.226941,74.0690463 L148.226941,66.3990463" id="Fill-23"></path>
                <path d="M161.339941,69.0140463 L161.339941,68.9850463 C161.339941,66.0950463 163.503941,63.7270463 166.583941,63.7270463 C168.456941,63.7270463 169.590941,64.3800463 170.563941,65.3100463 L169.415941,66.6320463 C168.602941,65.8770463 167.730941,65.3680463 166.568941,65.3680463 C164.621941,65.3680463 163.212941,66.9660463 163.212941,68.9560463 L163.212941,68.9850463 C163.212941,70.9760463 164.621941,72.6030463 166.568941,72.6030463 C167.817941,72.6030463 168.616941,72.0940463 169.487941,71.2800463 L170.636941,72.4420463 C169.575941,73.5470463 168.413941,74.2440463 166.510941,74.2440463 C163.547941,74.2440463 161.339941,71.9340463 161.339941,69.0140463" id="Fill-24"></path>
                <path d="M178.157941,70.2780463 L178.157941,70.2490463 C178.157941,68.8980463 177.184941,67.7790463 175.804941,67.7790463 C174.395941,67.7790463 173.494941,68.8840463 173.494941,70.2200463 L173.494941,70.2490463 C173.494941,71.5850463 174.468941,72.7190463 175.833941,72.7190463 C177.257941,72.7190463 178.157941,71.6000463 178.157941,70.2780463 Z M171.736941,70.2780463 L171.736941,70.2490463 C171.736941,68.0560463 173.480941,66.2390463 175.833941,66.2390463 C178.187941,66.2390463 179.915941,68.0260463 179.915941,70.2200463 L179.915941,70.2490463 C179.915941,72.4280463 178.172941,74.2440463 175.804941,74.2440463 C173.465941,74.2440463 171.736941,72.4570463 171.736941,70.2780463 L171.736941,70.2780463 Z" id="Fill-25"></path>
                <polygon id="Fill-26" points="181.801941 74.0700463 183.558941 74.0700463 183.558941 63.4650463 181.801941 63.4650463"></polygon>
                <polygon id="Fill-27" points="185.953941 74.0700463 187.710941 74.0700463 187.710941 63.4650463 185.953941 63.4650463"></polygon>
                <path d="M195.263941,69.6970463 C195.146941,68.5640463 194.479941,67.6780463 193.316941,67.6780463 C192.241941,67.6780463 191.486941,68.5060463 191.326941,69.6970463 L195.263941,69.6970463 Z M189.583941,70.2640463 L189.583941,70.2340463 C189.583941,68.0410463 191.138941,66.2390463 193.331941,66.2390463 C195.771941,66.2390463 197.006941,68.1570463 197.006941,70.3650463 C197.006941,70.5250463 196.991941,70.6850463 196.978941,70.8590463 L191.341941,70.8590463 C191.529941,72.1080463 192.416941,72.8060463 193.549941,72.8060463 C194.406941,72.8060463 195.016941,72.4860463 195.626941,71.8910463 L196.657941,72.8060463 C195.931941,73.6770463 194.929941,74.2440463 193.520941,74.2440463 C191.297941,74.2440463 189.583941,72.6310463 189.583941,70.2640463 L189.583941,70.2640463 Z" id="Fill-28"></path>
                <path d="M204.587941,69.8710463 L204.587941,69.8420463 C204.587941,68.5780463 203.555941,67.7220463 202.335941,67.7220463 C201.114941,67.7220463 200.156941,68.5640463 200.156941,69.8280463 L200.156941,69.8560463 C200.156941,71.1200463 201.129941,71.9780463 202.335941,71.9780463 C203.555941,71.9780463 204.587941,71.1060463 204.587941,69.8710463 Z M198.762941,75.5080463 L199.415941,74.1860463 C200.229941,74.6940463 201.101941,74.9990463 202.146941,74.9990463 C203.715941,74.9990463 204.572941,74.1860463 204.572941,72.6460463 L204.572941,72.0500463 C203.933941,72.8780463 203.134941,73.4590463 201.870941,73.4590463 C200.068941,73.4590463 198.384941,72.1230463 198.384941,69.8710463 L198.384941,69.8420463 C198.384941,67.5760463 200.083941,66.2390463 201.870941,66.2390463 C203.163941,66.2390463 203.962941,66.8350463 204.558941,67.5470463 L204.558941,66.3990463 L206.315941,66.3990463 L206.315941,72.5000463 C206.315941,73.7930463 205.981941,74.7520463 205.342941,75.3920463 C204.645941,76.0890463 203.569941,76.4230463 202.189941,76.4230463 C200.926941,76.4230463 199.749941,76.1040463 198.762941,75.5080463 L198.762941,75.5080463 Z" id="Fill-29"></path>
                <path d="M213.764941,69.6970463 C213.647941,68.5640463 212.980941,67.6780463 211.817941,67.6780463 C210.742941,67.6780463 209.987941,68.5060463 209.827941,69.6970463 L213.764941,69.6970463 Z M208.084941,70.2640463 L208.084941,70.2340463 C208.084941,68.0410463 209.639941,66.2390463 211.832941,66.2390463 C214.272941,66.2390463 215.507941,68.1570463 215.507941,70.3650463 C215.507941,70.5250463 215.492941,70.6850463 215.478941,70.8590463 L209.842941,70.8590463 C210.030941,72.1080463 210.917941,72.8060463 212.050941,72.8060463 C212.907941,72.8060463 213.517941,72.4860463 214.127941,71.8910463 L215.158941,72.8060463 C214.433941,73.6770463 213.430941,74.2440463 212.021941,74.2440463 C209.798941,74.2440463 208.084941,72.6310463 208.084941,70.2640463 L208.084941,70.2640463 Z" id="Fill-30"></path>
                <path d="M12.8279409,38.0950463 C12.8279409,38.0950463 15.5709409,33.3010463 15.0529409,30.7870463 C14.5359409,28.2730463 13.6179409,26.6870463 10.6289409,21.7040463 C8.86794086,18.7680463 10.2139409,15.2180463 10.2139409,15.2180463 C10.2139409,15.2180463 2.99894086,18.4380463 5.26794086,26.4390463 C5.26794086,26.4390463 5.78694086,28.6510463 10.5399409,33.7000463 C13.1609409,36.4830463 12.8279409,38.0950463 12.8279409,38.0950463" id="Fill-31"></path>
                <path d="M15.7849409,30.3870463 C15.7849409,30.3870463 19.5299409,26.3520463 19.5909409,23.7820463 C19.6519409,21.2120463 18.6659409,19.5820463 17.3269409,13.9080463 C16.4519409,10.1980463 18.3799409,7.49304635 18.3799409,7.49304635 C18.3799409,7.49304635 10.6389409,8.95304635 11.0489409,17.2750463 C11.0489409,17.2750463 11.0549409,19.5530463 14.5459409,25.5720463 C16.4699409,28.8940463 15.7849409,30.3870463 15.7849409,30.3870463" id="Fill-32"></path>
                <path d="M20.0649409,23.7150463 C20.0649409,23.7150463 24.6629409,20.9990463 25.7359409,18.6660463 C26.9389409,16.0520463 26.6249409,13.7950463 26.3999409,7.96204635 C26.2729409,4.69704635 28.9899409,2.62704635 28.9899409,2.62704635 C28.9899409,2.62704635 21.2949409,1.36404635 19.0899409,9.39304635 C19.0899409,9.39304635 18.1979409,11.8710463 20.3899409,18.7510463 C21.5589409,22.4180463 20.0649409,23.7150463 20.0649409,23.7150463" id="Fill-33"></path>
                <path d="M26.4429409,17.7110463 C26.4429409,17.7110463 31.8589409,16.9550463 33.5029409,14.9950463 C35.1469409,13.0350463 35.8519409,10.6880463 37.8379409,5.20604635 C38.9209409,2.21504635 42.1109409,1.13104635 42.1109409,1.13104635 C42.1109409,1.13104635 35.3439409,-2.78295365 30.4959409,3.95104635 C30.4959409,3.95104635 28.5169409,6.58504635 28.4679409,13.1780463 C28.4399409,17.0270463 26.4429409,17.7110463 26.4429409,17.7110463" id="Fill-34"></path>
                <path d="M34.2189409,14.5250463 C34.2189409,14.5250463 39.6109409,15.4420463 41.7589409,14.0680463 C43.9049409,12.6930463 45.1979409,10.6100463 48.7829409,6.03604635 C51.0149409,3.18904635 54.0649409,3.43804635 54.0649409,3.43804635 C54.0649409,3.43804635 48.7619409,-2.34395365 42.1469409,2.62004635 C42.1469409,2.62004635 39.7569409,4.66204635 37.4899409,10.8120463 C36.1599409,14.4170463 34.2189409,14.5250463 34.2189409,14.5250463" id="Fill-35"></path>
                <path d="M42.4989409,13.8780463 C42.4989409,13.8780463 47.3249409,16.4820463 49.7929409,15.8700463 C52.2589409,15.2590463 53.9169409,13.3340463 58.9719409,10.5170463 C62.6289409,8.47904635 64.7959409,9.75404635 64.7959409,9.75404635 C64.7959409,9.75404635 61.5759409,2.56604635 53.7479409,5.14304635 C53.7479409,5.14304635 51.0319409,5.75804635 46.7649409,11.4090463 C44.4579409,14.4640463 42.4989409,13.8780463 42.4989409,13.8780463" id="Fill-36"></path>
                <path d="M51.7339409,15.3180463 C51.7339409,15.3180463 55.3949409,18.9570463 57.7769409,19.0670463 C60.1589409,19.1790463 61.6739409,18.2100463 66.9829409,17.1200463 C70.4109409,16.4160463 72.9109409,18.2510463 72.9109409,18.2510463 C72.9109409,18.2510463 71.7199409,10.8720463 63.9929409,11.0900463 C63.9929409,11.0900463 61.0999409,11.0010463 56.2249409,14.2410463 C53.2399409,16.2230463 51.7339409,15.3180463 51.7339409,15.3180463" id="Fill-37"></path>
                <path d="M58.3289409,19.3160463 C58.3289409,19.3160463 60.6519409,23.9470463 62.8739409,24.8210463 C65.0969409,25.6950463 66.8229409,25.4250463 72.2129409,25.9470463 C76.0099409,26.3160463 77.4749409,28.9330463 77.4749409,28.9330463 C77.4749409,28.9330463 78.6739409,21.5540463 71.2809409,19.2680463 C71.2809409,19.2680463 68.4569409,18.4300463 62.9249409,19.7450463 C59.4479409,20.5710463 58.3289409,19.3160463 58.3289409,19.3160463" id="Fill-38"></path>
                <path d="M64.3549409,25.4100463 C64.3549409,25.4100463 65.0699409,30.5530463 66.8939409,32.1070463 C68.7159409,33.6620463 70.3949409,34.0710463 75.3679409,36.2330463 C78.9049409,37.7730463 79.3899409,40.7830463 79.3899409,40.7830463 C79.3899409,40.7830463 82.8859409,34.1940463 76.6249409,29.6080463 C76.6249409,29.6080463 74.6729409,28.2280463 68.2649409,27.2730463 C64.7299409,26.7460463 64.3549409,25.4100463 64.3549409,25.4100463" id="Fill-39"></path>
                <path d="M67.7639409,32.8630463 C67.7639409,32.8630463 66.6569409,37.9340463 67.8269409,40.0350463 C68.9979409,42.1370463 70.6539409,43.7210463 74.9329409,47.0830463 C77.2479409,48.9020463 77.0869409,52.2170463 77.0869409,52.2170463 C77.0869409,52.2170463 82.6949409,47.4640463 78.4149409,40.9520463 C78.4149409,40.9520463 77.1529409,38.8300463 71.0479409,36.1430463 C67.7699409,34.6990463 67.7639409,32.8630463 67.7639409,32.8630463" id="Fill-40"></path>
                <path d="M65.0919409,43.2420463 C65.0919409,43.2420463 60.9799409,44.1920463 58.5139409,48.5300463 C56.0469409,52.8670463 52.5509409,60.0180463 46.5899409,62.4570463 C46.5899409,62.4570463 55.0869409,61.4070463 58.9249409,55.7130463 C62.7629409,50.0210463 63.5849409,44.1920463 65.0919409,43.2420463" id="Fill-41"></path>
                <path d="M26.4419409,59.7800463 C26.4419409,59.7800463 32.4739409,63.7110463 46.5899409,50.4270463 C46.5899409,50.4270463 54.9149409,40.3960463 63.4469409,42.4300463 C63.4469409,42.4300463 60.1579409,43.3780463 57.6899409,47.3090463 C55.2249409,51.2400463 47.4119409,69.8110463 31.3759409,62.4900463 L26.4419409,59.7800463" id="Fill-42"></path>
                <path d="M20.4129409,55.0340463 C20.4129409,55.0340463 23.9129409,57.1500463 30.4919409,52.6780463 C37.0709409,48.2050463 43.5739409,40.1250463 54.5389409,42.7000463 C54.5389409,42.7000463 52.1639409,42.8970463 42.7699409,52.2390463 C29.2679409,65.6670463 20.4129409,55.0340463 20.4129409,55.0340463" id="Fill-43"></path>
                <path d="M17.1229409,50.5620463 C17.1229409,50.5620463 21.2249409,53.7660463 31.3389409,44.2240463 C35.1569409,40.6200463 44.1189409,42.3810463 44.1189409,42.3810463 C44.1189409,42.3810463 42.4099409,42.2730463 38.8719409,44.6420463 C37.0859409,45.8370463 34.3909409,48.0850463 31.2539409,50.5840463 C25.7689409,54.9560463 19.5899409,55.7120463 17.1229409,50.5620463" id="Fill-44"></path>
                <path d="M31.4239409,42.9260463 C33.0359409,41.9950463 33.8359409,42.0470463 33.8359409,42.0470463 C33.8359409,42.0470463 26.0209409,40.2720463 20.8919409,45.1410463 C17.4649409,48.3940463 15.0329409,47.6830463 15.0329409,47.6830463 C15.0329409,47.6830463 19.2359409,52.3840463 26.5989409,46.6920463 C28.6829409,45.0810463 30.2199409,43.6190463 31.4239409,42.9260463" id="Fill-45"></path>
                <path d="M41.0419409,39.7550463 L41.0439409,28.0890463 L42.0339409,28.0910463 L42.0339409,39.4410463 L42.1149409,39.5040463 L42.4399409,39.7550463 L41.0419409,39.7550463 Z M39.0739409,26.2780463 L39.0709409,26.9440463 L31.6469409,26.9440463 L31.6469409,26.2780463 L39.0739409,26.2780463 Z M42.2439409,26.2780463 L48.8779409,26.2790463 L48.8629409,26.9840463 L41.0439409,26.9840463 L41.0439409,19.2860463 L42.0349409,19.2860463 L42.0339409,26.0690463 L42.0339409,26.2780463 L42.2439409,26.2780463 Z M49.0869409,25.8590463 L42.4539409,25.8590463 L42.4549409,19.0770463 L42.4549409,18.8660463 L38.0629409,18.8660463 L38.7589409,19.7920463 L38.7589409,25.8590463 L31.2289409,25.8590463 L31.2289409,29.4540463 L32.5259409,28.4590463 L38.8589409,28.4590463 L38.8829409,39.2540463 L37.9159409,40.1750463 L43.3519409,40.1750463 L42.4539409,39.2350463 L42.4539409,28.4480463 L48.0359409,28.4480463 L49.2969409,29.7390463 L49.2969409,25.8590463 L49.0869409,25.8590463 L49.0869409,25.8590463 Z" id="Fill-46"></path>
                <path d="M67.8489409,40.5790463 C67.8489409,40.5790463 65.3129409,45.4850463 65.9369409,47.9750463 C66.5609409,50.4650463 67.5449409,52.0100463 70.7419409,56.8600463 C72.6279409,59.7200463 71.4339409,63.3230463 71.4339409,63.3230463 C71.4339409,63.3230463 78.5039409,59.8000463 75.8969409,51.9020463 C75.8969409,51.9020463 75.2849409,49.7140463 70.3219409,44.8730463 C67.5849409,42.2020463 67.8489409,40.5790463 67.8489409,40.5790463" id="Fill-47"></path>
                <path d="M65.7249409,48.8510463 C65.7249409,48.8510463 61.9949409,52.9000463 61.9439409,55.4690463 C61.8939409,58.0400463 62.8849409,59.6670463 64.2459409,65.3350463 C65.1369409,69.0410463 63.2189409,71.7540463 63.2189409,71.7540463 C63.2189409,71.7540463 70.9549409,70.2640463 70.5119409,61.9430463 C70.5119409,61.9430463 70.4969409,59.6660463 66.9819409,53.6600463 C65.0459409,50.3460463 65.7249409,48.8510463 65.7249409,48.8510463" id="Fill-48"></path>
                <path d="M61.6159409,56.3960463 C61.6159409,56.3960463 56.9349409,58.9640463 55.7869409,61.2620463 C54.5009409,63.8360463 54.7419409,66.1020463 54.7799409,71.9390463 C54.8039409,75.2060463 52.0219409,77.1880463 52.0219409,77.1880463 C52.0219409,77.1880463 59.6729409,78.6950463 62.1329409,70.7420463 C62.1329409,70.7420463 63.1049409,68.2940463 61.1329409,61.3480463 C60.0809409,57.6450463 61.6159409,56.3960463 61.6159409,56.3960463" id="Fill-49"></path>
                <path d="M54.7829409,62.8990463 C54.7829409,62.8990463 49.3459409,63.4820463 47.6409409,65.3890463 C45.9349409,67.2960463 45.1559409,69.6190463 42.9949409,75.0340463 C41.8159409,77.9890463 38.5929409,78.9710463 38.5929409,78.9710463 C38.5929409,78.9710463 45.2319409,83.1000463 50.2929409,76.5220463 C50.2929409,76.5220463 52.3549409,73.9540463 52.6139409,67.3660463 C52.7659409,63.5200463 54.7829409,62.8990463 54.7829409,62.8990463" id="Fill-50"></path>
                <path d="M46.7359409,65.9800463 C46.7359409,65.9800463 41.3769409,64.8920463 39.1869409,66.1960463 C36.9969409,67.5020463 35.6379409,69.5430463 31.9089409,74.0000463 C29.5879409,76.7740463 26.5459409,76.4290463 26.5459409,76.4290463 C26.5459409,76.4290463 31.6619409,82.3760463 38.4329409,77.6260463 C38.4329409,77.6260463 40.8869409,75.6610463 43.3489409,69.5880463 C44.7929409,66.0260463 46.7359409,65.9800463 46.7359409,65.9800463" id="Fill-51"></path>
                <path d="M37.6969409,66.6360463 C37.6969409,66.6360463 32.9569409,63.8790463 30.4709409,64.4120463 C27.9859409,64.9440463 26.2679409,66.8150463 21.1259409,69.4700463 C17.4049409,71.3890463 15.2799409,70.0460463 15.2799409,70.0460463 C15.2799409,70.0460463 18.2689409,77.3320463 26.1759409,75.0080463 C26.1759409,75.0080463 28.9089409,74.4800463 33.3559409,68.9670463 C35.7579409,65.9880463 37.6969409,66.6360463 37.6969409,66.6360463" id="Fill-52"></path>
                <path d="M29.0109409,64.5510463 C29.0109409,64.5510463 25.2739409,60.9890463 22.8899409,60.9300463 C20.5059409,60.8680463 19.0129409,61.8680463 13.7269409,63.0690463 C10.3139409,63.8450463 7.77694086,62.0630463 7.77694086,62.0630463 C7.77694086,62.0630463 9.12294086,69.4160463 16.8419409,69.0350463 C16.8419409,69.0350463 19.7369409,69.0640463 24.5439409,65.7230463 C27.4859409,63.6790463 29.0109409,64.5510463 29.0109409,64.5510463" id="Fill-53"></path>
                <path d="M21.7729409,60.6730463 C21.7729409,60.6730463 19.4189409,56.0580463 17.1909409,55.1980463 C14.9629409,54.3390463 13.2379409,54.6210463 7.84494086,54.1340463 C4.04594086,53.7910463 2.56394086,51.1850463 2.56394086,51.1850463 C2.56394086,51.1850463 1.41494086,58.5700463 8.82194086,60.8080463 C8.82194086,60.8080463 11.6519409,61.6260463 17.1749409,60.2740463 C20.6459409,59.4250463 21.7729409,60.6730463 21.7729409,60.6730463" id="Fill-54"></path>
                <path d="M16.1079409,54.6830463 C16.1079409,54.6830463 15.3469409,49.2270463 13.5099409,47.5920463 C11.6739409,45.9550463 9.99094086,45.5360463 4.99794086,43.2820463 C1.44694086,41.6790463 0.934940856,38.4850463 0.934940856,38.4850463 C0.934940856,38.4850463 -2.50105914,45.5120463 3.80094086,50.3290463 C3.80094086,50.3290463 5.76594086,51.7780463 12.1829409,52.7380463 C15.7209409,53.2670463 16.1079409,54.6830463 16.1079409,54.6830463" id="Fill-55"></path>
                <path d="M13.1609409,46.9810463 C13.1609409,46.9810463 14.3699409,41.5910463 13.1349409,39.3410463 C11.8999409,37.0910463 10.5559409,35.8460463 6.23194086,31.9650463 C3.68294086,29.6780463 3.92394086,25.8890463 3.92394086,25.8890463 C3.92394086,25.8890463 -2.02205914,31.0910463 2.50294086,38.0680463 C2.50294086,38.0680463 3.65094086,40.0300463 9.67994086,43.4540463 C13.0049409,45.3430463 13.1609409,46.9810463 13.1609409,46.9810463" id="Fill-56"></path>
            </g>
        </g>
    </g>
</svg>