<?xml version="1.0" encoding="utf-8"?>
<!-- Generator: Adobe Illustrator 23.0.3, SVG Export Plug-In . SVG Version: 6.00 Build 0)  -->
<svg version="1.1" xmlns="http://www.w3.org/2000/svg" xmlns:xlink="http://www.w3.org/1999/xlink" x="0px" y="0px"
	 viewBox="0 0 157.31 100.17" style="enable-background:new 0 0 157.31 100.17;" xml:space="preserve">
<style type="text/css">
	.st0{fill:#FFFFFF;}
	.st1{fill:#E1D3C4;}
	.st2{fill:#183028;}
	.st3{fill:#FFC84D;}
	.st4{display:none;}
</style>
<g id="Layer_1">
	<g>
		<path class="st0" d="M127.08,56.13c-4.18,2.87-9.9,1.81-12.77-2.37s-1.81-9.9,2.37-12.77c3.95-2.71,9.27-1.91,12.27,1.71
			l10.55-5.58c-0.1-0.15-0.2-0.3-0.3-0.45c-6.57-9.57-19.65-12-29.21-5.43c-9.57,6.57-12,19.65-5.43,29.21
			c6.57,9.57,19.65,12,29.21,5.43c2.39-1.64,4.33-3.69,5.8-5.98l-10.54-5.57C128.48,55,127.83,55.61,127.08,56.13z"/>
		<rect x="83.47" y="27.55" class="st0" width="11.83" height="42.02"/>
		<path class="st0" d="M47.32,32.01c3.14-2.81,7.29-4.52,11.83-4.52c9.8,0,17.75,7.94,17.75,17.75h0v24.33H65.07V45.23h0
			c0-3.27-2.65-5.92-5.92-5.92s-5.92,2.65-5.92,5.92h0v24.33H41.41V45.23c0-3.27-2.65-5.92-5.92-5.92s-5.92,2.65-5.92,5.92v24.33
			H17.75V45.23c0-9.8,7.94-17.75,17.75-17.75C40.04,27.49,44.18,29.2,47.32,32.01L47.32,32.01z"/>
		<circle class="st0" cx="89.38" cy="17.75" r="5.92"/>
		<g>
			<path class="st0" d="M23.33,80.88l-0.6-3.72l-1.67,3.65h-0.22l-1.67-3.64l-0.6,3.72h-0.86l0.84-5.14h0.83l1.57,3.49l1.57-3.49
				h0.84l0.83,5.14H23.33z"/>
			<path class="st0" d="M24.74,78.9c0-1.2,0.91-2.08,2.12-2.08c1.21,0,2.12,0.89,2.12,2.08c0,1.19-0.91,2.08-2.12,2.08
				C25.65,80.98,24.74,80.09,24.74,78.9z M28.15,78.9c0-0.76-0.54-1.3-1.29-1.3c-0.75,0-1.29,0.54-1.29,1.3
				c0,0.76,0.54,1.3,1.29,1.3C27.61,80.2,28.15,79.66,28.15,78.9z"/>
			<path class="st0" d="M31.94,76.83c0.93,0,1.51,0.69,1.51,1.67v2.39h-0.81v-2.22c0-0.72-0.31-1.1-0.91-1.1
				c-0.62,0-1.06,0.5-1.06,1.2v2.12h-0.81v-3.96h0.57l0.16,0.55C30.87,77.07,31.36,76.83,31.94,76.83L31.94,76.83z"/>
			<path class="st0" d="M36.74,80.14v0.74h-0.61c-0.87,0-1.4-0.54-1.4-1.41v-1.85h-0.71v-0.16l1.38-1.47h0.14v0.93h1.18v0.7h-1.17
				v1.79c0,0.47,0.26,0.74,0.74,0.74H36.74z"/>
			<path class="st0" d="M41.25,78.91c0,0.09-0.01,0.18-0.02,0.27h-3.22c0.1,0.64,0.56,1.04,1.21,1.04c0.47,0,0.86-0.22,1.07-0.58
				h0.86c-0.32,0.84-1.04,1.34-1.92,1.34c-1.16,0-2.04-0.89-2.04-2.08c0-1.19,0.88-2.08,2.04-2.08
				C40.45,76.82,41.25,77.76,41.25,78.91L41.25,78.91z M38.04,78.51h2.4c-0.15-0.6-0.6-0.96-1.2-0.96
				C38.62,77.56,38.17,77.93,38.04,78.51z"/>
			<path class="st0" d="M41.82,79.62h0.8c0.02,0.42,0.37,0.64,0.85,0.64c0.44,0,0.77-0.19,0.77-0.52c0-0.38-0.43-0.46-0.91-0.54
				c-0.66-0.11-1.44-0.26-1.44-1.18c0-0.71,0.61-1.2,1.54-1.2s1.52,0.5,1.53,1.27h-0.77c-0.02-0.38-0.3-0.58-0.78-0.58
				c-0.45,0-0.73,0.19-0.73,0.48c0,0.35,0.4,0.42,0.88,0.5c0.67,0.11,1.48,0.24,1.48,1.22c0,0.77-0.64,1.27-1.61,1.27
				C42.47,80.98,41.84,80.45,41.82,79.62z"/>
			<path class="st0" d="M45.62,79.62h0.8c0.02,0.42,0.37,0.64,0.85,0.64c0.44,0,0.77-0.19,0.77-0.52c0-0.38-0.43-0.46-0.91-0.54
				c-0.66-0.11-1.44-0.26-1.44-1.18c0-0.71,0.61-1.2,1.54-1.2s1.52,0.5,1.53,1.27h-0.77c-0.02-0.38-0.3-0.58-0.78-0.58
				c-0.45,0-0.73,0.19-0.73,0.48c0,0.35,0.4,0.42,0.88,0.5c0.67,0.11,1.48,0.24,1.48,1.22c0,0.77-0.64,1.27-1.61,1.27
				C46.27,80.98,45.64,80.45,45.62,79.62z"/>
			<path class="st0" d="M49.43,78.9c0-1.2,0.91-2.08,2.12-2.08c1.21,0,2.12,0.89,2.12,2.08c0,1.19-0.91,2.08-2.12,2.08
				C50.34,80.98,49.43,80.09,49.43,78.9z M52.84,78.9c0-0.76-0.54-1.3-1.29-1.3c-0.75,0-1.29,0.54-1.29,1.3
				c0,0.76,0.54,1.3,1.29,1.3C52.3,80.2,52.84,79.66,52.84,78.9z"/>
			<path class="st0" d="M56.79,76.9v0.77h-0.43c-0.67,0-1.01,0.38-1.01,1.1v2.11h-0.81v-3.96h0.55l0.14,0.54
				c0.28-0.38,0.67-0.56,1.21-0.56H56.79z"/>
			<path class="st0" d="M57.41,75.46h0.84v0.84h-0.84V75.46z M57.43,76.92h0.81v3.96h-0.81V76.92z"/>
			<path class="st0" d="M61.33,75.74h0.84v5.14h-0.84V75.74z"/>
			<path class="st0" d="M65.49,76.83c0.93,0,1.51,0.69,1.51,1.67v2.39h-0.81v-2.22c0-0.72-0.31-1.1-0.91-1.1
				c-0.62,0-1.06,0.5-1.06,1.2v2.12h-0.81v-3.96h0.57l0.16,0.55C64.41,77.07,64.9,76.83,65.49,76.83L65.49,76.83z"/>
			<path class="st0" d="M70.28,80.14v0.74h-0.61c-0.87,0-1.4-0.54-1.4-1.41v-1.85h-0.71v-0.16l1.38-1.47h0.14v0.93h1.18v0.7h-1.17
				v1.79c0,0.47,0.26,0.74,0.74,0.74H70.28z"/>
			<path class="st0" d="M74.79,78.91c0,0.09-0.01,0.18-0.02,0.27h-3.22c0.1,0.64,0.56,1.04,1.21,1.04c0.47,0,0.86-0.22,1.07-0.58
				h0.86c-0.32,0.84-1.04,1.34-1.92,1.34c-1.16,0-2.04-0.89-2.04-2.08c0-1.19,0.88-2.08,2.04-2.08
				C73.99,76.82,74.79,77.76,74.79,78.91L74.79,78.91z M71.58,78.51h2.4c-0.15-0.6-0.6-0.96-1.2-0.96
				C72.16,77.56,71.71,77.93,71.58,78.51z"/>
			<path class="st0" d="M77.91,76.9v0.77h-0.43c-0.67,0-1.01,0.38-1.01,1.1v2.11h-0.81v-3.96h0.55l0.14,0.54
				c0.28-0.38,0.67-0.56,1.21-0.56H77.91z"/>
			<path class="st0" d="M80.65,76.83c0.93,0,1.51,0.69,1.51,1.67v2.39h-0.81v-2.22c0-0.72-0.31-1.1-0.91-1.1
				c-0.62,0-1.06,0.5-1.06,1.2v2.12h-0.81v-3.96h0.57l0.16,0.55C79.58,77.07,80.07,76.83,80.65,76.83L80.65,76.83z"/>
			<path class="st0" d="M87.21,76.92v3.96h-0.66l-0.08-0.48c-0.36,0.36-0.86,0.58-1.44,0.58c-1.18,0-2.06-0.89-2.06-2.08
				c0-1.19,0.88-2.08,2.06-2.08c0.58,0,1.09,0.22,1.45,0.59l0.1-0.5H87.21z M86.39,78.9c0-0.75-0.55-1.3-1.29-1.3s-1.3,0.56-1.3,1.3
				c0,0.74,0.55,1.3,1.3,1.3S86.39,79.64,86.39,78.9z"/>
			<path class="st0" d="M90.59,80.14v0.74h-0.61c-0.87,0-1.4-0.54-1.4-1.41v-1.85h-0.71v-0.16l1.38-1.47h0.14v0.93h1.18v0.7H89.4
				v1.79c0,0.47,0.26,0.74,0.74,0.74H90.59z"/>
			<path class="st0" d="M91.37,75.46h0.84v0.84h-0.84V75.46z M91.38,76.92h0.81v3.96h-0.81V76.92z"/>
			<path class="st0" d="M93.06,78.9c0-1.2,0.91-2.08,2.12-2.08c1.21,0,2.12,0.89,2.12,2.08c0,1.19-0.91,2.08-2.12,2.08
				C93.97,80.98,93.06,80.09,93.06,78.9z M96.47,78.9c0-0.76-0.54-1.3-1.29-1.3c-0.75,0-1.29,0.54-1.29,1.3
				c0,0.76,0.54,1.3,1.29,1.3C95.93,80.2,96.47,79.66,96.47,78.9z"/>
			<path class="st0" d="M100.27,76.83c0.93,0,1.51,0.69,1.51,1.67v2.39h-0.81v-2.22c0-0.72-0.31-1.1-0.91-1.1
				c-0.62,0-1.06,0.5-1.06,1.2v2.12h-0.81v-3.96h0.57l0.16,0.55C99.2,77.07,99.69,76.83,100.27,76.83L100.27,76.83z"/>
			<path class="st0" d="M106.83,76.92v3.96h-0.66l-0.08-0.48c-0.36,0.36-0.86,0.58-1.44,0.58c-1.18,0-2.06-0.89-2.06-2.08
				c0-1.19,0.88-2.08,2.06-2.08c0.58,0,1.09,0.22,1.45,0.59l0.1-0.5H106.83z M106.01,78.9c0-0.75-0.55-1.3-1.29-1.3
				s-1.3,0.56-1.3,1.3c0,0.74,0.55,1.3,1.3,1.3S106.01,79.64,106.01,78.9z"/>
			<path class="st0" d="M107.99,75.5h0.81v5.38h-0.81V75.5z"/>
			<path class="st0" d="M111.56,78.31c0-1.54,1.12-2.66,2.64-2.66c1.22,0,2.19,0.76,2.46,1.91h-0.85c-0.25-0.68-0.84-1.1-1.6-1.1
				c-1.03,0-1.78,0.77-1.78,1.85c0,1.07,0.75,1.84,1.78,1.84c0.78,0,1.39-0.44,1.62-1.17h0.86c-0.27,1.21-1.24,1.99-2.48,1.99
				C112.68,80.97,111.56,79.85,111.56,78.31z"/>
			<path class="st0" d="M117.2,78.9c0-1.2,0.91-2.08,2.12-2.08c1.21,0,2.12,0.89,2.12,2.08c0,1.19-0.91,2.08-2.12,2.08
				C118.11,80.98,117.2,80.09,117.2,78.9z M120.61,78.9c0-0.76-0.54-1.3-1.29-1.3c-0.75,0-1.29,0.54-1.29,1.3
				c0,0.76,0.54,1.3,1.29,1.3C120.07,80.2,120.61,79.66,120.61,78.9z"/>
			<path class="st0" d="M122.31,75.5h0.81v5.38h-0.81V75.5z"/>
			<path class="st0" d="M124.28,75.5h0.81v5.38h-0.81V75.5z"/>
			<path class="st0" d="M130.02,78.91c0,0.09-0.01,0.18-0.02,0.27h-3.22c0.1,0.64,0.56,1.04,1.21,1.04c0.47,0,0.86-0.22,1.07-0.58
				h0.86c-0.32,0.84-1.04,1.34-1.92,1.34c-1.16,0-2.04-0.89-2.04-2.08c0-1.19,0.88-2.08,2.04-2.08
				C129.22,76.82,130.02,77.76,130.02,78.91L130.02,78.91z M126.81,78.51h2.4c-0.15-0.6-0.6-0.96-1.2-0.96
				C127.39,77.56,126.94,77.93,126.81,78.51z"/>
			<path class="st0" d="M134.67,76.92v3.44c0,1.26-0.75,2.04-1.98,2.04c-1.02,0-1.74-0.53-1.94-1.4h0.81
				c0.15,0.44,0.62,0.67,1.12,0.67c0.69,0,1.19-0.45,1.19-1.2v-0.18c-0.34,0.3-0.8,0.47-1.31,0.47c-1.1,0-1.96-0.86-1.96-1.97
				c0-1.11,0.86-1.98,1.96-1.98c0.58,0,1.09,0.23,1.45,0.61l0.13-0.51H134.67z M133.87,78.8c0-0.7-0.51-1.22-1.22-1.22
				c-0.71,0-1.22,0.52-1.22,1.22c0,0.69,0.51,1.21,1.22,1.21C133.36,80.01,133.87,79.5,133.87,78.8z"/>
			<path class="st0" d="M139.59,78.91c0,0.09-0.01,0.18-0.02,0.27h-3.22c0.1,0.64,0.56,1.04,1.21,1.04c0.47,0,0.86-0.22,1.07-0.58
				h0.86c-0.32,0.84-1.04,1.34-1.92,1.34c-1.16,0-2.04-0.89-2.04-2.08c0-1.19,0.88-2.08,2.04-2.08
				C138.79,76.82,139.6,77.76,139.59,78.91L139.59,78.91z M136.38,78.51h2.4c-0.15-0.6-0.6-0.96-1.2-0.96
				C136.96,77.56,136.52,77.93,136.38,78.51z"/>
		</g>
	</g>
</g>
<g id="Layer_3">
</g>
<g id="guides" class="st4">
</g>
</svg>
