<svg width="232" height="62" viewBox="0 0 232 62" version="1.1" xmlns="http://www.w3.org/2000/svg"><title>MIC_Logo_RGB_Inline_RacingGreen</title><g id="Page-1" stroke="none" stroke-width="1" fill="none" fill-rule="evenodd"><g id="MIC_Logo_RGB_Inline_RacingGreen" fill="#183028" fill-rule="nonzero"><path d="M110.08 45.13c-4.18 2.87-9.9 1.81-12.77-2.37-2.87-4.18-1.81-9.9 2.37-12.77 3.95-2.71 9.27-1.91 12.27 1.71l10.55-5.58-.3-.45c-6.57-9.57-19.65-12-29.21-5.43-9.57 6.57-12 19.65-5.43 29.21 6.57 9.57 19.65 12 29.21 5.43a20.99 20.99 0 0 0 5.8-5.98l-10.54-5.57c-.55.67-1.2 1.28-1.95 1.8z" id="Shape"/><path id="Rectangle-path" d="M66.47 16.55H78.3v42.02H66.47z"/><path d="M30.32 21.01a17.69 17.69 0 0 1 11.83-4.52c9.8 0 17.75 7.94 17.75 17.75v24.33H48.07V34.23a5.92 5.92 0 0 0-5.92-5.92 5.92 5.92 0 0 0-5.92 5.92v24.33H24.41V34.23a5.92 5.92 0 0 0-5.92-5.92 5.92 5.92 0 0 0-5.92 5.92v24.33H.75V34.23c0-9.8 7.94-17.75 17.75-17.75 4.54.01 8.68 1.72 11.82 4.53z" id="Shape"/><circle id="Oval" cx="72.38" cy="6.75" r="5.92"/><g id="Group" transform="translate(134 16)"><path id="Shape" d="M12.13 11.06l-1.37-8.21-3.62 7.94h-.35L3.17 2.86l-1.38 8.2H.45L2.22.55h1.27l3.47 7.71L10.45.55h1.3l1.74 10.51zM14.72 7c0-2.45 1.84-4.23 4.3-4.23s4.3 1.8 4.3 4.23c0 2.43-1.84 4.23-4.3 4.23-2.45 0-4.3-1.8-4.3-4.23zm7.3 0c0-1.74-1.26-3-3-3s-3 1.26-3 3 1.26 3 3 3 3-1.26 3-3zm10.43-.8v4.86h-1.28V6.5c0-1.64-.77-2.56-2.18-2.56-1.39 0-2.45 1.17-2.45 2.69v4.42h-1.28V2.94h.91l.25 1.27c.61-.9 1.65-1.45 2.9-1.45 1.93.01 3.13 1.46 3.13 3.44zm6.62 3.68v1.18h-1.05c-1.74 0-2.82-1.08-2.82-2.83V4.1h-1.43v-.23l2.5-2.64h.2v1.72h2.54V4.1h-2.54v4.08c0 1.09.6 1.7 1.7 1.7h.9zm9.15-2.38h-6.91c.2 1.5 1.32 2.49 2.85 2.49 1.12 0 2.02-.52 2.52-1.4h1.35c-.69 1.67-2.11 2.65-3.87 2.65-2.35 0-4.13-1.82-4.13-4.23s1.78-4.23 4.13-4.23c2.46 0 4.09 1.9 4.09 4.26 0 .15-.01.3-.03.46zm-6.88-1.18h5.63c-.27-1.44-1.37-2.34-2.81-2.34-1.47 0-2.55.93-2.82 2.34zm8.15 2.25h1.25c.07.96.9 1.48 2.03 1.48 1.11 0 1.9-.47 1.9-1.26 0-.95-1-1.13-2.1-1.32-1.38-.24-2.93-.52-2.93-2.35 0-1.4 1.22-2.35 3.05-2.35 1.83 0 3.01.98 3.06 2.51h-1.21c-.05-.88-.74-1.37-1.88-1.37-1.1 0-1.79.46-1.79 1.17 0 .86.93 1.01 2.01 1.19 1.4.23 3.05.49 3.05 2.47 0 1.52-1.28 2.5-3.21 2.5-1.92-.01-3.16-1.04-3.23-2.67zm7.7 0h1.25c.07.96.9 1.48 2.03 1.48 1.11 0 1.9-.47 1.9-1.26 0-.95-1-1.13-2.1-1.32-1.38-.24-2.93-.52-2.93-2.35 0-1.4 1.22-2.35 3.05-2.35 1.83 0 3.01.98 3.06 2.51h-1.21c-.05-.88-.74-1.37-1.88-1.37-1.1 0-1.79.46-1.79 1.17 0 .86.93 1.01 2.02 1.19 1.4.23 3.05.49 3.05 2.47 0 1.52-1.28 2.5-3.21 2.5-1.92-.01-3.17-1.04-3.24-2.67zM64.93 7c0-2.45 1.84-4.23 4.3-4.23s4.3 1.8 4.3 4.23c0 2.43-1.84 4.23-4.3 4.23s-4.3-1.8-4.3-4.23zm7.29 0c0-1.74-1.26-3-3-3s-3 1.26-3 3 1.26 3 3 3 3-1.26 3-3zm7.67-4.09v1.21h-.83c-1.48 0-2.32.96-2.32 2.54v4.41h-1.28V2.96h.91l.21 1.23c.57-.83 1.42-1.28 2.59-1.28h.72zM81.21.08h1.38v1.46h-1.38V.08zm.05 2.87h1.28v8.11h-1.28V2.95zM1.21 16.27h1.32v10.51H1.21zm11.23 5.65v4.86h-1.28v-4.56c0-1.64-.77-2.56-2.18-2.56-1.39 0-2.45 1.17-2.45 2.69v4.42H5.25v-8.11h.91l.25 1.27c.61-.9 1.65-1.45 2.9-1.45 1.93.01 3.13 1.46 3.13 3.44zm6.63 3.68v1.18h-1.05c-1.74 0-2.82-1.08-2.82-2.83v-4.12h-1.43v-.23l2.5-2.64h.2v1.72h2.54v1.15h-2.54v4.08c0 1.09.6 1.7 1.7 1.7h.9v-.01zm9.15-2.38h-6.91c.2 1.5 1.32 2.49 2.85 2.49 1.12 0 2.02-.52 2.52-1.4h1.35c-.69 1.67-2.11 2.65-3.87 2.65-2.35 0-4.13-1.82-4.13-4.23s1.78-4.23 4.13-4.23c2.46 0 4.09 1.9 4.09 4.26 0 .15-.02.3-.03.46zm-6.88-1.18h5.63c-.27-1.44-1.37-2.34-2.81-2.34-1.47 0-2.56.93-2.82 2.34zm13.24-3.41v1.21h-.83c-1.48 0-2.32.96-2.32 2.54v4.41h-1.28v-8.11h.91l.21 1.23c.57-.83 1.42-1.28 2.59-1.28h.72zm8.56 3.29v4.86h-1.28v-4.56c0-1.64-.77-2.56-2.18-2.56-1.39 0-2.45 1.17-2.45 2.69v4.42h-1.28v-8.11h.91l.25 1.27c.61-.9 1.65-1.45 2.9-1.45 1.93.01 3.13 1.46 3.13 3.44zm10.38-3.25v8.11h-1.06l-.13-1.23c-.75.87-1.87 1.41-3.18 1.41-2.4 0-4.2-1.82-4.2-4.23 0-2.43 1.8-4.23 4.2-4.23 1.33 0 2.45.54 3.2 1.42l.16-1.24h1.01v-.01zm-1.3 4.05c0-1.72-1.25-3-2.97-3-1.72 0-2.99 1.29-2.99 3s1.27 3 2.99 3c1.72 0 2.97-1.27 2.97-3zm8.12 2.88v1.18h-1.05c-1.74 0-2.82-1.08-2.82-2.83v-4.12h-1.43v-.23l2.5-2.64h.2v1.72h2.54v1.15h-2.54v4.08c0 1.09.6 1.7 1.7 1.7h.9v-.01zm1.65-9.8h1.38v1.46h-1.38V15.8zm.05 2.87h1.28v8.11h-1.28v-8.11zm3.2 4.05c0-2.45 1.84-4.23 4.3-4.23s4.3 1.8 4.3 4.23c0 2.43-1.84 4.23-4.3 4.23-2.45 0-4.3-1.8-4.3-4.23zm7.3 0c0-1.74-1.26-3-3-3s-3 1.26-3 3 1.26 3 3 3 3-1.26 3-3zm10.43-.8v4.86h-1.28v-4.56c0-1.64-.77-2.56-2.18-2.56-1.39 0-2.45 1.17-2.45 2.69v4.42h-1.28v-8.11h.91l.25 1.27c.61-.9 1.65-1.45 2.9-1.45 1.93.01 3.13 1.46 3.13 3.44zm10.38-3.25v8.11h-1.06l-.13-1.23c-.75.87-1.87 1.41-3.18 1.41-2.4 0-4.2-1.82-4.2-4.23 0-2.43 1.8-4.23 4.2-4.23 1.33 0 2.45.54 3.2 1.42l.16-1.24h1.01v-.01zm-1.3 4.05c0-1.72-1.25-3-2.97-3-1.72 0-2.99 1.29-2.99 3s1.27 3 2.99 3c1.72 0 2.97-1.27 2.97-3zm3.87-6.94h1.28v11h-1.28zM.5 37.24c0-3.15 2.26-5.42 5.39-5.42 2.43 0 4.38 1.45 4.98 3.72H9.52c-.56-1.52-1.91-2.43-3.64-2.43-2.35 0-4.04 1.71-4.04 4.13s1.69 4.13 4.04 4.13c1.77 0 3.14-.97 3.69-2.58h1.34c-.6 2.38-2.55 3.87-5.03 3.87-3.12 0-5.38-2.27-5.38-5.42zm11.58 1.2c0-2.44 1.84-4.23 4.3-4.23s4.3 1.8 4.3 4.23c0 2.43-1.84 4.23-4.3 4.23s-4.3-1.8-4.3-4.23zm7.29 0c0-1.74-1.26-3-3-3s-3 1.26-3 3 1.26 3 3 3 3-1.26 3-3zm3.25-6.95h1.28v11h-1.28zm3.84 0h1.28v11h-1.28zm11.4 7.45h-6.91c.2 1.5 1.32 2.49 2.85 2.49 1.12 0 2.02-.52 2.52-1.4h1.35c-.69 1.67-2.11 2.65-3.87 2.65-2.35 0-4.13-1.82-4.13-4.23s1.78-4.23 4.13-4.23c2.46 0 4.09 1.9 4.09 4.26 0 .15-.02.3-.03.46zm-6.88-1.18h5.63c-.27-1.44-1.37-2.34-2.81-2.34-1.47 0-2.56.92-2.82 2.34zm16.37-3.37v6.97c0 2.61-1.51 4.21-3.98 4.21-1.99 0-3.4-1.04-3.84-2.76h1.28c.36 1.01 1.38 1.59 2.56 1.59 1.62 0 2.73-1.08 2.73-2.87v-.5c-.73.75-1.76 1.21-2.95 1.21-2.25 0-3.99-1.74-3.99-4.01 0-2.27 1.74-4.02 3.99-4.02 1.3 0 2.42.55 3.15 1.44l.2-1.26h.85zm-1.26 3.84c0-1.62-1.18-2.8-2.8-2.8-1.63 0-2.82 1.2-2.82 2.8 0 1.59 1.2 2.78 2.82 2.78 1.62.01 2.8-1.18 2.8-2.78zm11.38.71h-6.91c.2 1.5 1.32 2.49 2.85 2.49 1.12 0 2.02-.52 2.52-1.4h1.35c-.69 1.67-2.11 2.65-3.87 2.65-2.35 0-4.13-1.82-4.13-4.23s1.78-4.23 4.13-4.23c2.46 0 4.09 1.9 4.09 4.26 0 .15-.01.3-.03.46zm-6.88-1.18h5.63c-.27-1.44-1.37-2.34-2.81-2.34-1.47 0-2.55.92-2.82 2.34z"/></g></g></g></svg>