<?xml version="1.0" encoding="utf-8"?>
<!-- Generator: Adobe Illustrator 24.3.0, SVG Export Plug-In . SVG Version: 6.00 Build 0)  -->
<svg version="1.1" id="Layer_1" xmlns="http://www.w3.org/2000/svg" xmlns:xlink="http://www.w3.org/1999/xlink" x="0px" y="0px"
	 viewBox="0 0 1399 963" style="enable-background:new 0 0 1399 963;" xml:space="preserve">
<style type="text/css">
	.st0{fill:#FFFFFF;}
</style>
<g id="Backgrounds">
	<path class="st0" d="M563.9,360.02c0.22,0.24,0.46,0.45,0.68,0.69c0.24,0.21,0.38,0.48,0.6,0.72c0.24,0.21,0.46,0.45,0.67,0.63
		c0.22,0.24,0.49,0.42,0.7,0.6c0.22,0.24,0.39,0.54,0.63,0.75c0.19,0.21,0.5,0.33,0.75,0.55c0.22,0.24,0.36,0.51,0.58,0.75
		c0.24,0.21,0.48,0.36,0.73,0.63c0.21,0.18,0.46,0.39,0.67,0.63c0.21,0.18,0.43,0.42,0.67,0.63c0.09,0.08,0.29,0.09,0.36,0.01
		c0.28-0.32,0.25-0.34,0.52-0.66c0.28-0.32,0.34-0.27,0.61-0.59c0.07-0.09,0.17-0.2,0.27-0.12c0.39,0.34,0.32,0.43,0.69,0.74
		s0.34,0.34,0.7,0.66c0.37,0.31,0.47,0.2,0.83,0.51c0.37,0.31,0.34,0.34,0.71,0.66c0.36,0.31,0.36,0.31,0.73,0.63
		c0.09,0.08,0.11,0.25,0.04,0.33c-0.3,0.35-0.27,0.37-0.57,0.72s-0.39,0.27-0.69,0.62s-0.27,0.38-0.57,0.72
		c-0.3,0.35-0.27,0.37-0.57,0.72c-0.33,0.38-0.36,0.35-0.66,0.7s-0.33,0.32-0.63,0.67s-0.21,0.43-0.51,0.78s-0.39,0.27-0.69,0.62
		s-0.27,0.38-0.6,0.75c-0.3,0.35-0.24,0.4-0.54,0.75s-0.36,0.3-0.66,0.65c-0.08,0.09-0.21,0.12-0.3,0.04
		c-0.37-0.32-0.39-0.29-0.75-0.6c-0.37-0.31-0.37-0.31-0.73-0.63c-0.37-0.32-0.31-0.37-0.68-0.69c-0.37-0.31-0.32-0.37-0.68-0.69
		s-0.41-0.26-0.78-0.57c-0.09-0.08-0.19-0.27-0.12-0.35c0.25-0.29,0.34-0.21,0.62-0.53c0.25-0.29,0.22-0.32,0.47-0.61
		c0.08-0.09,0.09-0.23,0-0.31c-0.22-0.24-0.53-0.36-0.75-0.6c-0.24-0.21-0.44-0.48-0.68-0.69c-0.25-0.27-0.52-0.45-0.76-0.66
		c-0.22-0.24-0.41-0.51-0.63-0.75c-0.24-0.21-0.46-0.45-0.68-0.69c-0.24-0.21-0.46-0.45-0.74-0.69c-0.22-0.24-0.44-0.48-0.68-0.69
		c-0.22-0.24-0.49-0.42-0.73-0.63s-0.44-0.48-0.71-0.71c-0.24-0.21-0.49-0.42-0.73-0.63s-0.41-0.51-0.65-0.72
		c-0.22-0.24-0.51-0.39-0.78-0.63c-0.24-0.21-0.44-0.48-0.66-0.72c-0.24-0.21-0.51-0.39-0.75-0.6s-0.46-0.45-0.71-0.66
		c-0.25-0.27-0.47-0.5-0.71-0.71c-0.24-0.21-0.51-0.39-0.73-0.63c-0.24-0.21-0.44-0.48-0.68-0.69c-0.22-0.24-0.47-0.51-0.71-0.72
		c-0.09-0.08-0.2-0.07-0.28,0.02c-0.38,0.43-0.32,0.49-0.69,0.92c-0.35,0.4-0.41,0.35-0.79,0.79c-0.08,0.09-0.24,0.1-0.33,0.02
		c-0.36-0.32-0.39-0.29-0.75-0.6s-0.29-0.4-0.68-0.74c-0.36-0.31-0.44-0.23-0.81-0.54c-0.36-0.31-0.26-0.43-0.63-0.74
		c-0.37-0.32-0.44-0.23-0.84-0.57c-0.06-0.05-0.05-0.19,0.03-0.28c0.07-0.14,0.26-0.23,0.35-0.35c0.22-0.26,0.43-0.49,0.63-0.73
		c0.2-0.23,0.4-0.52,0.6-0.75c0.2-0.23,0.43-0.44,0.65-0.7c0.2-0.23,0.31-0.54,0.51-0.77c0.22-0.27,0.39-0.52,0.59-0.75
		s0.52-0.41,0.72-0.65c0.17-0.26,0.34-0.57,0.54-0.8c0.2-0.23,0.43-0.44,0.66-0.7c0.2-0.23,0.37-0.49,0.57-0.72
		c0.38-0.44,0.73-0.48,1.28-0.37c0.31,0.07,0.63,0.19,0.94,0.26c0.32,0.07,0.63,0.13,0.94,0.2c0.29,0.1,0.62,0.08,0.94,0.2
		c0.31,0.07,0.62,0.13,0.91,0.23c0.34,0.09,0.63,0.19,0.95,0.26c0.29,0.1,0.61,0.28,0.9,0.37c0.31,0.07,0.58,0.25,0.92,0.34
		c0.29,0.1,0.64,0.05,0.93,0.15c0.29,0.09,0.63,0.19,0.94,0.26c0.29,0.1,0.56,0.33,0.88,0.46c0.26,0.07,0.52,0.2,0.78,0.32
		c0.26,0.07,0.57,0.08,0.85,0.18c0.26,0.07,0.52,0.2,0.81,0.29c0.26,0.07,0.54,0.11,0.8,0.18s0.51,0.14,0.77,0.21
		c0.23,0.04,0.47,0.2,0.73,0.27c0.17,0.05,0.43,0.17,0.69,0.24c0.28,0.05,0.56,0.03,0.74-0.06c0.32-0.13,0.26-0.49,0.18-0.7
		c-0.11-0.3-0.36-0.57-0.47-0.87c-0.14-0.27-0.25-0.57-0.39-0.9c-0.14-0.27-0.17-0.6-0.31-0.93c-0.14-0.27-0.44-0.48-0.58-0.8
		c-0.14-0.27-0.17-0.6-0.34-0.9c-0.11-0.3-0.31-0.57-0.44-0.84c-0.17-0.3-0.36-0.57-0.47-0.86c-0.17-0.3-0.25-0.57-0.39-0.9
		c-0.14-0.27-0.3-0.57-0.44-0.84c-0.17-0.3-0.28-0.6-0.42-0.87c-0.17-0.3-0.26-0.62-0.39-0.9c-0.17-0.3-0.3-0.57-0.42-0.87
		c-0.17-0.29-0.39-0.54-0.53-0.86c-0.14-0.27-0.17-0.6-0.28-0.9c-0.17-0.3-0.34-0.59-0.48-0.87c-0.11-0.3-0.2-0.63-0.34-0.9
		c-0.19-0.52-0.2-0.88,0.16-1.28c0.2-0.23,0.46-0.41,0.64-0.62c0.2-0.23,0.31-0.54,0.51-0.77c0.18-0.2,0.44-0.38,0.64-0.62
		c0.2-0.23,0.38-0.44,0.58-0.67c0.2-0.24,0.49-0.39,0.69-0.62c0.18-0.2,0.28-0.51,0.49-0.75c0.2-0.23,0.38-0.43,0.58-0.66
		s0.4-0.46,0.57-0.67c0.2-0.23,0.43-0.44,0.63-0.67c0.1-0.11,0.26-0.23,0.38-0.38c0.08-0.09,0.21-0.18,0.3-0.1
		c0.37,0.31,0.37,0.31,0.73,0.63c0.36,0.31,0.29,0.4,0.65,0.72c0.36,0.31,0.46,0.2,0.86,0.54c0.37,0.31,0.31,0.37,0.68,0.69
		c0.36,0.31,0.39,0.28,0.75,0.6c0.09,0.08,0.14,0.32,0.07,0.41c-0.38,0.44-0.47,0.36-0.84,0.79c-0.38,0.44-0.35,0.46-0.72,0.9
		c-0.08,0.09-0.04,0.17,0.05,0.25c0.27,0.18,0.54,0.36,0.8,0.54c0.27,0.24,0.39,0.59,0.66,0.77c0.24,0.21,0.59,0.3,0.86,0.49
		c0.24,0.21,0.46,0.5,0.71,0.71c0.27,0.18,0.51,0.39,0.75,0.6c0.27,0.18,0.53,0.36,0.8,0.54c0.24,0.21,0.49,0.42,0.76,0.66
		c0.24,0.21,0.54,0.36,0.81,0.54c0.24,0.21,0.46,0.45,0.7,0.66s0.54,0.36,0.81,0.6c0.27,0.18,0.54,0.36,0.78,0.57
		c0.27,0.18,0.53,0.36,0.8,0.54c0.24,0.21,0.54,0.36,0.8,0.54c0.24,0.21,0.47,0.5,0.71,0.71c0.27,0.18,0.46,0.45,0.71,0.66
		c0.27,0.18,0.63,0.25,0.88,0.46c0.24,0.21,0.44,0.53,0.69,0.74c0.27,0.18,0.56,0.33,0.8,0.54c0.27,0.18,0.56,0.34,0.81,0.55
		c0.09,0.08,0.17,0.05,0.24-0.04c0.25-0.29,0.31-0.24,0.56-0.53c0.28-0.32,0.28-0.32,0.53-0.61c0.08-0.09,0.14-0.04,0.23,0.05
		c0.36,0.31,0.49,0.17,0.85,0.48c0.37,0.31,0.31,0.37,0.68,0.69c0.37,0.31,0.39,0.29,0.79,0.63c0.36,0.31,0.26,0.43,0.63,0.74
		s0.47,0.2,0.83,0.51c0.09,0.08,0.08,0.28,0.01,0.36c-0.3,0.34-0.33,0.32-0.63,0.67c-0.28,0.32-0.25,0.35-0.55,0.7
		s-0.27,0.38-0.54,0.69c-0.3,0.35-0.33,0.32-0.63,0.67c-0.28,0.32-0.28,0.32-0.58,0.67s-0.24,0.4-0.51,0.72
		c-0.3,0.35-0.3,0.35-0.6,0.69c-0.28,0.32-0.31,0.29-0.61,0.64s-0.36,0.29-0.64,0.61c-0.3,0.34-0.33,0.32-0.63,0.67
		c-0.28,0.32-0.25,0.34-0.55,0.69s-0.36,0.3-0.64,0.62c-0.1,0.12-0.15,0.17-0.24,0.1c-0.37-0.32-0.32-0.37-0.68-0.69
		c-0.37-0.31-0.37-0.31-0.73-0.63c-0.37-0.31-0.37-0.31-0.73-0.63c-0.37-0.32-0.37-0.32-0.73-0.63c-0.36-0.32-0.41-0.26-0.78-0.57
		c-0.09-0.08-0.19-0.27-0.09-0.38c0.25-0.29,0.34-0.21,0.62-0.53c0.28-0.32,0.34-0.27,0.61-0.59c0.07-0.09,0-0.3-0.12-0.35
		c-0.24-0.21-0.43-0.42-0.67-0.63s-0.56-0.28-0.8-0.49c-0.27-0.18-0.51-0.39-0.75-0.55c-0.24-0.21-0.46-0.45-0.67-0.64
		c-0.24-0.21-0.49-0.42-0.75-0.6c-0.18-0.15-0.37-0.37-0.61-0.58c-0.24-0.15-0.51-0.34-0.72-0.52c-0.27-0.18-0.46-0.39-0.69-0.55
		c-0.3-0.26-0.69-0.49-0.94-0.82c-0.19-0.21-0.54-0.36-0.6,0.09c-0.07,0.39,0.22,0.85,0.36,1.18c0.08,0.22,0.14,0.58,0.31,0.87
		c0.17,0.3,0.36,0.56,0.47,0.81c0.11,0.3,0.23,0.6,0.34,0.9c0.11,0.3,0.26,0.63,0.37,0.93c0.09,0.33,0.28,0.6,0.39,0.9
		c0.15,0.13,0.24,0.46,0.33,0.79c0.09,0.33,0.2,0.63,0.27,0.79c0.08,0.27,0.25,0.51,0.33,0.79c0.11,0.24,0.19,0.52,0.27,0.79
		c0.11,0.3,0.26,0.63,0.4,0.95c0.09,0.33,0.23,0.65,0.34,0.95c0.14,0.33,0.2,0.68,0.37,0.98c0.08,0.22,0.16,0.55,0.22,0.85
		c0.06,0.3,0.03,0.58-0.09,0.84c-0.12,0.2-0.21,0.43-0.43,0.49c-0.22,0.07-0.44,0.02-0.64,0.01c-0.34-0.04-0.63-0.19-0.97-0.23
		c-0.34-0.04-0.69,0.06-1.03,0.02s-0.63-0.14-0.99-0.2c-0.31-0.07-0.64-0.24-0.95-0.31s-0.66-0.16-0.97-0.23s-0.7,0.01-1.01-0.06
		c-0.34-0.04-0.66-0.16-1-0.26c-0.31-0.07-0.62-0.13-0.94-0.2c-0.31-0.07-0.63-0.19-0.94-0.26s-0.63-0.14-0.94-0.2
		c-0.31-0.07-0.63-0.19-0.94-0.26c-0.37-0.07-0.65-0.11-0.96-0.17c-0.34-0.04-0.69,0.01-1.01-0.06c-0.31-0.07-0.63-0.19-0.94-0.26
		c-0.11,0.01-0.23-0.04-0.37-0.06C563.81,359.69,563.74,359.88,563.9,360.02"/>
	<path class="st0" d="M585.48,336.35c-0.2-0.25-0.42-0.49-0.62-0.74c-0.19-0.31-0.27-0.6-0.44-0.88c-0.16-0.28-0.33-0.56-0.47-0.86
		c-0.17-0.28-0.27-0.6-0.41-0.9c-0.14-0.3-0.25-0.57-0.38-0.87c-0.1-0.32-0.27-0.6-0.35-0.9c-0.11-0.32-0.18-0.62-0.26-0.96
		c-0.08-0.29-0.1-0.63-0.15-0.95c-0.05-0.32,0.01-0.62-0.01-0.95c-0.05-0.32-0.05-0.62-0.04-0.93c-0.02-0.34-0.13-0.67-0.12-0.97
		c0.04-0.33,0.02-0.67,0.04-0.95c0.04-0.33,0.21-0.61,0.26-0.91c0.06-0.36,0.07-0.66,0.18-0.95c0.06-0.3,0.09-0.63,0.15-0.93
		c0.11-0.29,0.2-0.61,0.32-0.91c0.12-0.29,0.23-0.58,0.34-0.87c0.12-0.29,0.28-0.57,0.42-0.83c0.17-0.28,0.44-0.5,0.58-0.75
		c0.17-0.28,0.33-0.51,0.5-0.79c0.2-0.25,0.36-0.48,0.55-0.73s0.34-0.57,0.56-0.79c0.19-0.25,0.49-0.38,0.7-0.59
		c0.22-0.22,0.44-0.44,0.68-0.63c0.22-0.22,0.49-0.38,0.76-0.59c0.24-0.19,0.39-0.5,0.63-0.69c0.27-0.16,0.58-0.25,0.85-0.4
		c0.27-0.16,0.59-0.25,0.85-0.4c0.29-0.12,0.46-0.41,0.75-0.53c0.29-0.13,0.61-0.22,0.9-0.34c0.26-0.1,0.55-0.22,0.87-0.32
		c0.32-0.09,0.65-0.1,0.94-0.17s0.6-0.16,0.91-0.2c0.29-0.07,0.6-0.16,0.91-0.2s0.64,0.01,0.95-0.03c0.33,0,0.64,0.02,0.94,0.03
		c0.3,0.02,0.65-0.04,0.95-0.02c0.31,0.02,0.64,0.01,0.97,0.06c0.27,0.04,0.62,0.18,0.92,0.25s0.6,0.09,0.93,0.2
		c0.3,0.07,0.62,0.18,0.92,0.25c0.29,0.13,0.62,0.18,0.91,0.31s0.51,0.42,0.8,0.6c0.29,0.13,0.62,0.18,0.91,0.36
		c0.26,0.15,0.49,0.38,0.75,0.59c0.29,0.19,0.55,0.34,0.81,0.54c0.26,0.21,0.55,0.34,0.81,0.54c0.23,0.23,0.45,0.46,0.68,0.69
		s0.39,0.56,0.61,0.8c0.2,0.26,0.45,0.46,0.65,0.72s0.36,0.53,0.53,0.81c0.19,0.25,0.33,0.56,0.5,0.83c0.17,0.28,0.36,0.53,0.5,0.83
		c0.13,0.3,0.41,0.54,0.55,0.84c0.13,0.3,0.15,0.64,0.23,0.93c0.14,0.3,0.19,0.62,0.29,0.94c0.08,0.29,0.27,0.6,0.32,0.92
		c0.08,0.29,0.13,0.61,0.18,0.92c0.05,0.32,0.15,0.64,0.17,0.98c0.02,0.34,0.01,0.65,0.01,0.95c0.02,0.34-0.1,0.63-0.07,0.97
		c-0.04,0.33,0.04,0.62,0.01,0.96c-0.04,0.33-0.1,0.63-0.15,0.93c-0.04,0.33-0.26,0.6-0.32,0.9s-0.15,0.62-0.24,0.95
		c-0.08,0.27-0.09,0.63-0.21,0.92c-0.11,0.29-0.33,0.51-0.48,0.83c-0.14,0.26-0.15,0.62-0.29,0.88c-0.17,0.28-0.41,0.47-0.58,0.75
		c-0.19,0.25-0.31,0.54-0.5,0.8c-0.17,0.28-0.33,0.51-0.52,0.76c-0.22,0.22-0.36,0.53-0.56,0.78c-0.22,0.22-0.49,0.38-0.73,0.56
		c-0.22,0.22-0.46,0.41-0.68,0.62c-0.24,0.19-0.44,0.44-0.68,0.63c-0.27,0.21-0.47,0.46-0.73,0.62c-0.24,0.19-0.51,0.34-0.78,0.5
		s-0.63,0.18-0.9,0.34c-0.27,0.15-0.49,0.37-0.78,0.5c-0.29,0.12-0.63,0.13-0.92,0.25s-0.54,0.37-0.83,0.44
		c-0.32,0.09-0.61,0.21-0.92,0.25c-0.28,0.07-0.65,0.04-0.93,0.11c-0.31,0.04-0.6,0.16-0.91,0.2s-0.66-0.1-0.97-0.06
		c-0.34,0.01-0.63,0.13-0.94,0.17c-0.3-0.02-0.64-0.02-0.97-0.06c-0.3-0.02-0.62-0.18-0.92-0.25c-0.3-0.02-0.64,0.04-0.97-0.01
		c-0.3-0.07-0.59-0.26-0.91-0.37c-0.3-0.07-0.63-0.07-0.93-0.2c-0.3-0.07-0.56-0.28-0.85-0.41s-0.62-0.24-0.88-0.39
		c-0.32-0.16-0.62-0.23-0.9-0.42c-0.26-0.15-0.46-0.46-0.74-0.64c-0.29-0.18-0.62-0.24-0.87-0.44c-0.26-0.21-0.45-0.46-0.71-0.67
		c-0.23-0.23-0.42-0.54-0.64-0.77c-0.23-0.23-0.52-0.36-0.77-0.62C585.84,336.88,585.68,336.6,585.48,336.35 M603.33,322.58
		c-0.2-0.25-0.48-0.49-0.7-0.72c-0.23-0.23-0.39-0.56-0.65-0.77c-0.25-0.26-0.51-0.47-0.76-0.68c-0.26-0.15-0.55-0.39-0.83-0.58
		c-0.26-0.15-0.58-0.31-0.87-0.44c-0.32-0.11-0.65-0.16-0.95-0.28c-0.33-0.05-0.63-0.12-0.96-0.17c-0.3-0.02-0.63-0.07-0.94-0.09
		c-0.34,0.01-0.69-0.08-1-0.04c-0.29,0.07-0.63,0.13-0.94,0.22c-0.26,0.1-0.53,0.31-0.8,0.47c-0.29,0.13-0.56,0.28-0.83,0.44
		c-0.24,0.19-0.58,0.25-0.83,0.44c-0.27,0.21-0.47,0.46-0.71,0.65c-0.22,0.22-0.39,0.5-0.58,0.75c-0.2,0.25-0.33,0.51-0.53,0.76
		c-0.17,0.28-0.31,0.54-0.42,0.83c-0.11,0.29-0.2,0.61-0.32,0.9c-0.06,0.3-0.26,0.61-0.32,0.9c0,0.31-0.01,0.67-0.02,0.98
		c0.02,0.34,0.07,0.65,0.14,1c0.05,0.32,0.19,0.62,0.27,0.91c0.13,0.36,0.09,0.69,0.23,0.99c0.14,0.3,0.27,0.6,0.43,0.93
		c0.17,0.28,0.3,0.58,0.47,0.86c0.19,0.25,0.53,0.5,0.73,0.76c0.19,0.26,0.36,0.53,0.56,0.79c0.28,0.29,0.44,0.57,0.67,0.8
		c0.26,0.21,0.61,0.29,0.87,0.5c0.28,0.24,0.54,0.45,0.8,0.6c0.32,0.16,0.59,0.26,0.88,0.39c0.34,0.19,0.61,0.35,0.93,0.45
		c0.3,0.07,0.62,0.12,0.96,0.17c0.32,0.1,0.64,0.01,0.94,0.03c0.34-0.01,0.67,0.04,0.98,0.01c0.31-0.04,0.62-0.07,0.94-0.17
		c0.29-0.07,0.56-0.28,0.88-0.37c0.29-0.12,0.54-0.31,0.8-0.47c0.24-0.19,0.56-0.28,0.83-0.49c0.24-0.19,0.44-0.44,0.66-0.66
		c0.24-0.19,0.44-0.44,0.61-0.72c0.22-0.22,0.33-0.51,0.53-0.76c0.17-0.28,0.44-0.5,0.58-0.75c0.11-0.29,0.12-0.65,0.18-0.95
		c0.09-0.32,0.26-0.61,0.27-0.97c0.06-0.3,0.01-0.62-0.01-0.95c0.01-0.31-0.1-0.63-0.15-0.95c-0.07-0.35-0.09-0.69-0.2-1.01
		c-0.08-0.29-0.1-0.63-0.26-0.96c-0.14-0.3-0.3-0.58-0.47-0.86c-0.14-0.3-0.27-0.6-0.46-0.92
		C603.78,323.09,603.53,322.83,603.33,322.58"/>
	<path class="st0" d="M615.43,314.1c-0.14-0.29-0.32-0.56-0.46-0.85c-0.12-0.34-0.15-0.64-0.26-0.95c-0.11-0.3-0.22-0.61-0.29-0.93
		c-0.11-0.3-0.15-0.64-0.22-0.96c-0.07-0.32-0.13-0.61-0.2-0.93c-0.04-0.34-0.15-0.64-0.17-0.95c-0.04-0.34-0.06-0.64-0.07-1
		c-0.02-0.3,0.03-0.64,0.04-0.96c0.01-0.32,0.13-0.6,0.18-0.94c0.01-0.32,0.08-0.62,0.14-0.92c0.05-0.34,0.01-0.68,0.07-0.98
		c0.1-0.32,0.15-0.66,0.23-0.92c0.1-0.32,0.32-0.56,0.44-0.84c0.13-0.33,0.2-0.63,0.37-0.9c0.12-0.28,0.22-0.6,0.33-0.88
		c0.17-0.26,0.32-0.56,0.49-0.82s0.34-0.53,0.51-0.79s0.39-0.51,0.58-0.73c0.22-0.24,0.53-0.4,0.72-0.62
		c0.22-0.25,0.43-0.43,0.65-0.68c0.24-0.21,0.44-0.4,0.68-0.61s0.44-0.49,0.7-0.66c0.24-0.21,0.55-0.27,0.81-0.44
		s0.51-0.34,0.79-0.48c0.26-0.17,0.55-0.27,0.86-0.43c0.27-0.14,0.48-0.41,0.75-0.55c0.29-0.1,0.62-0.13,0.91-0.23
		s0.62-0.13,0.91-0.23c0.31-0.06,0.53-0.31,0.84-0.37s0.64-0.09,0.95-0.16c0.28-0.05,0.59-0.11,0.92-0.14
		c0.33-0.03,0.66,0.03,0.95,0.02c0.29-0.01,0.62-0.04,0.93-0.01c0.29-0.01,0.62-0.04,0.94-0.01c0.31,0.03,0.62,0.14,0.94,0.16
		c0.33,0.06,0.62,0.14,0.92,0.22c0.29,0.08,0.64,0.09,0.94,0.16c0.3,0.08,0.63,0.14,0.94,0.25c0.26,0.09,0.58,0.3,0.85,0.43
		c0.28,0.13,0.57,0.21,0.87,0.38c0.28,0.13,0.58,0.3,0.85,0.43c0.26,0.18,0.57,0.3,0.84,0.48c0.26,0.18,0.42,0.51,0.67,0.75
		c0.26,0.18,0.57,0.3,0.82,0.53c0.23,0.2,0.4,0.47,0.62,0.73c0.25,0.24,0.48,0.44,0.68,0.69c0.21,0.25,0.48,0.44,0.69,0.69
		c0.17,0.27,0.35,0.54,0.53,0.82c0.18,0.27,0.27,0.63,0.44,0.9c0.14,0.29,0.35,0.54,0.5,0.83c0.14,0.29,0.25,0.59,0.36,0.9
		c0.14,0.29,0.22,0.61,0.32,0.92c0.11,0.3,0.25,0.59,0.32,0.91s0.3,0.61,0.38,0.93c0.07,0.32,0.03,0.66,0.05,0.96
		c0.07,0.32,0.06,0.64,0.1,0.98c0.02,0.3,0.15,0.64,0.13,0.96c0.02,0.3,0.01,0.62,0,0.94s0.03,0.66-0.02,1
		c-0.05,0.33-0.11,0.64-0.18,0.94c-0.05,0.34-0.22,0.6-0.26,0.94c-0.1,0.32-0.08,0.62-0.18,0.94s-0.22,0.6-0.33,0.88
		c-0.1,0.32-0.38,0.54-0.49,0.83c-0.12,0.28-0.27,0.58-0.42,0.88c-0.13,0.25-0.22,0.6-0.39,0.86c-0.17,0.26-0.43,0.43-0.63,0.72
		c-0.18,0.22-0.27,0.58-0.46,0.81c-0.22,0.24-0.5,0.38-0.72,0.62c-0.24,0.21-0.41,0.47-0.65,0.68c-0.22,0.24-0.43,0.43-0.67,0.64
		c-0.26,0.17-0.46,0.45-0.7,0.66c-0.26,0.17-0.55,0.27-0.83,0.41c-0.26,0.17-0.53,0.31-0.79,0.48c-0.28,0.14-0.51,0.35-0.79,0.48
		c-0.31,0.15-0.55,0.36-0.84,0.46c-0.28,0.13-0.57,0.24-0.86,0.34s-0.66,0.06-0.95,0.16c-0.29,0.1-0.55,0.27-0.86,0.33
		c-0.31,0.07-0.64,0-0.95,0.07c-0.31,0.06-0.6,0.25-0.89,0.27c-0.33,0.03-0.64,0.09-0.95,0.06c-0.29,0.01-0.64-0.08-0.94-0.07
		c-0.31-0.03-0.62,0.04-0.93,0.01c-0.31-0.02-0.63-0.23-0.94-0.25c-0.33-0.06-0.64,0-0.95-0.02c-0.3-0.08-0.62-0.14-0.94-0.25
		c-0.29-0.08-0.57-0.3-0.85-0.43c-0.3-0.08-0.64-0.09-0.96-0.2c-0.28-0.13-0.52-0.37-0.82-0.54c-0.28-0.13-0.61-0.19-0.87-0.38
		c-0.28-0.13-0.49-0.39-0.75-0.57c-0.26-0.19-0.56-0.35-0.79-0.55c-0.28-0.22-0.56-0.35-0.8-0.59c-0.23-0.2-0.35-0.54-0.6-0.78
		c-0.25-0.23-0.56-0.35-0.77-0.61c-0.21-0.25-0.35-0.54-0.57-0.8c-0.17-0.27-0.3-0.61-0.48-0.88c-0.18-0.27-0.44-0.46-0.63-0.76
		C615.68,314.7,615.58,314.39,615.43,314.1 M635.64,304.12c-0.14-0.29-0.37-0.58-0.55-0.85c-0.18-0.27-0.27-0.63-0.48-0.88
		c-0.2-0.31-0.4-0.56-0.62-0.82c-0.23-0.2-0.46-0.49-0.7-0.73c-0.23-0.2-0.51-0.42-0.77-0.6c-0.3-0.17-0.61-0.28-0.87-0.47
		c-0.31-0.11-0.59-0.24-0.91-0.36c-0.29-0.08-0.61-0.19-0.9-0.27c-0.33-0.06-0.66-0.21-0.97-0.24c-0.29,0.01-0.64,0-0.97,0.03
		c-0.28,0.05-0.59,0.2-0.88,0.3c-0.31,0.06-0.6,0.16-0.9,0.26c-0.28,0.13-0.62,0.13-0.9,0.26c-0.31,0.15-0.55,0.36-0.82,0.5
		c-0.26,0.17-0.48,0.42-0.72,0.62c-0.24,0.21-0.42,0.44-0.67,0.64c-0.22,0.24-0.41,0.47-0.58,0.73c-0.17,0.26-0.32,0.56-0.49,0.82
		c-0.12,0.28-0.37,0.54-0.49,0.83c-0.07,0.3-0.15,0.65-0.21,0.96c-0.05,0.34-0.06,0.66-0.06,1.01c-0.01,0.32,0.06,0.64,0.08,0.95
		c0.06,0.38-0.05,0.69,0.03,1.01c0.07,0.32,0.15,0.64,0.24,1c0.11,0.3,0.18,0.63,0.29,0.93c0.14,0.29,0.42,0.59,0.57,0.88
		c0.14,0.29,0.25,0.59,0.39,0.88c0.21,0.34,0.32,0.65,0.5,0.92c0.21,0.25,0.54,0.41,0.75,0.66c0.23,0.29,0.44,0.54,0.67,0.74
		c0.28,0.22,0.52,0.37,0.79,0.55c0.3,0.26,0.52,0.46,0.82,0.62c0.28,0.13,0.59,0.25,0.9,0.36c0.29,0.17,0.62,0.14,0.92,0.22
		c0.33,0.06,0.64,0.18,0.95,0.2c0.31,0.03,0.62,0.05,0.95,0.02c0.29-0.01,0.6-0.16,0.93-0.19c0.31-0.06,0.59-0.2,0.88-0.3
		c0.27-0.14,0.6-0.16,0.91-0.32c0.28-0.14,0.51-0.34,0.77-0.52c0.28-0.14,0.51-0.34,0.74-0.59c0.26-0.17,0.43-0.43,0.67-0.64
		c0.22-0.24,0.53-0.39,0.72-0.62c0.17-0.26,0.25-0.62,0.37-0.9c0.15-0.3,0.37-0.54,0.45-0.9c0.12-0.28,0.13-0.6,0.18-0.94
		c0.06-0.3,0.02-0.64,0.04-0.96c-0.01-0.36,0.04-0.69,0-1.03c-0.02-0.3,0.03-0.64-0.07-1c-0.07-0.32-0.18-0.63-0.29-0.93
		c-0.07-0.32-0.15-0.64-0.27-0.98C635.98,304.71,635.79,304.4,635.64,304.12"/>
	<path class="st0" d="M644.83,284.52c0.48-0.15,0.49-0.11,0.93-0.24c0.48-0.14,0.47-0.18,0.91-0.3s0.44-0.12,0.92-0.26
		c0.44-0.13,0.45-0.09,0.93-0.23c0.44-0.13,0.44-0.13,0.88-0.26c0.48-0.14,0.48-0.14,0.92-0.27c0.48-0.14,0.5-0.06,0.94-0.19
		s0.41-0.24,0.89-0.38c0.44-0.13,0.44-0.13,0.92-0.27c0.44-0.13,0.48-0.01,0.92-0.14c0.48-0.14,0.43-0.29,0.87-0.42
		c0.48-0.14,0.51-0.02,0.95-0.15c0.11-0.03,0.17,0.03,0.2,0.15c0.13,0.46,0.21,0.44,0.34,0.9c0.14,0.46,0.17,0.45,0.31,0.91
		c0.13,0.46,0.02,0.5,0.16,0.96c0.14,0.46,0.14,0.46,0.27,0.92l0.27,0.93c0.03,0.12,0.01,0.17-0.1,0.2
		c-0.4,0.12-0.37,0.23-0.81,0.36c-0.4,0.12-0.42,0.08-0.82,0.2c-0.11,0.03-0.16,0.13-0.13,0.25c0.13,0.46,0.06,0.49,0.19,0.95
		c0.13,0.47,0.25,0.43,0.39,0.93c0.13,0.46-0.01,0.51,0.12,0.97s0.21,0.44,0.34,0.9c0.15,0.5,0.18,0.49,0.32,0.95
		c0.14,0.46,0.03,0.49,0.16,0.96c0.13,0.46,0.25,0.43,0.39,0.93c0.13,0.47,0.17,0.46,0.31,0.92s0.06,0.48,0.19,0.94
		c0.15,0.5,0.22,0.48,0.36,0.94c0.13,0.46,0.13,0.46,0.27,0.93c0.13,0.46,0.06,0.49,0.21,0.98c0.13,0.46,0.06,0.49,0.2,0.95
		c0.14,0.46,0.28,0.42,0.42,0.88c0.15,0.5,0,0.55,0.13,1.01c0.14,0.47,0.25,0.43,0.38,0.9c0.13,0.46,0.1,0.47,0.24,0.97
		c0.13,0.46,0.13,0.46,0.27,0.92c0.04,0.12,0.15,0.09,0.25,0.05c0.44-0.13,0.48-0.01,0.92-0.14s0.43-0.17,0.87-0.3
		c0.44-0.13,0.43-0.17,0.87-0.29c0.44-0.13,0.48-0.01,0.92-0.14s0.43-0.17,0.91-0.31c0.44-0.13,0.45-0.09,0.89-0.22
		c0.11-0.03,0.21-0.23,0.18-0.34c-0.13-0.46-0.21-0.44-0.35-0.94c-0.13-0.46-0.13-0.46-0.28-0.96c-0.13-0.46-0.06-0.48-0.21-0.99
		c-0.13-0.46-0.17-0.45-0.32-0.95c-0.04-0.11-0.01-0.29,0.1-0.32c0.44-0.13,0.46-0.05,0.91-0.18c0.44-0.13,0.43-0.17,0.87-0.3
		c0.44-0.13,0.44-0.13,0.88-0.26s0.45-0.09,0.89-0.22s0.44-0.13,0.88-0.26s0.45-0.09,0.89-0.22c0.11-0.03,0.12,0,0.16,0.12
		c0.14,0.46,0.28,0.42,0.4,0.85c0.14,0.46,0.1,0.47,0.23,0.94c0.12,0.42,0.05,0.45,0.19,0.91c0.12,0.42,0.23,0.39,0.37,0.85
		c0.12,0.42,0.01,0.45,0.15,0.92c0.12,0.43,0.2,0.4,0.33,0.87c0.12,0.42,0.12,0.42,0.26,0.89c0.14,0.46,0.17,0.45,0.3,0.88
		c0.13,0.46,0.06,0.49,0.18,0.91c0.13,0.46,0.1,0.47,0.22,0.9c0.14,0.46,0.25,0.43,0.37,0.85c0.03,0.12-0.07,0.31-0.18,0.34
		c-0.44,0.13-0.45,0.09-0.9,0.22c-0.44,0.13-0.46,0.05-0.91,0.18c-0.44,0.13-0.41,0.24-0.85,0.37s-0.43,0.17-0.87,0.3
		c-0.44,0.13-0.49-0.03-0.93,0.1s-0.41,0.24-0.85,0.37s-0.46,0.05-0.91,0.18c-0.44,0.13-0.44,0.13-0.88,0.26s-0.41,0.25-0.85,0.37
		c-0.44,0.13-0.48,0.01-0.91,0.14c-0.44,0.13-0.41,0.24-0.85,0.37s-0.48,0.01-0.92,0.14s-0.44,0.13-0.88,0.26s-0.45,0.09-0.89,0.22
		s-0.43,0.17-0.87,0.3c-0.48,0.14-0.48,0.14-0.92,0.27c-0.44,0.13-0.43,0.17-0.87,0.29c-0.44,0.13-0.45,0.09-0.9,0.22
		c-0.44,0.13-0.44,0.13-0.88,0.26s-0.45,0.09-0.89,0.22s-0.41,0.24-0.85,0.37s-0.46,0.05-0.9,0.18s-0.43,0.17-0.87,0.3
		c-0.11,0.03-0.25-0.05-0.29-0.17c-0.12-0.42-0.08-0.44-0.22-0.9c-0.13-0.46-0.21-0.44-0.34-0.9c-0.14-0.46-0.1-0.47-0.23-0.94
		c-0.13-0.46-0.1-0.48-0.23-0.94c-0.14-0.46-0.14-0.46-0.27-0.93c-0.03-0.12,0.03-0.17,0.14-0.21c0.41-0.12,0.37-0.23,0.74-0.34
		s0.39-0.03,0.76-0.14c0.11-0.03,0.19-0.18,0.15-0.3c-0.13-0.46-0.21-0.44-0.34-0.91c-0.13-0.46-0.02-0.49-0.16-0.96
		c-0.15-0.5-0.15-0.5-0.28-0.96s-0.17-0.45-0.3-0.92c-0.14-0.46-0.21-0.44-0.34-0.9c-0.15-0.5-0.11-0.51-0.25-0.97
		c-0.13-0.47-0.1-0.48-0.23-0.94c-0.14-0.46-0.14-0.46-0.27-0.92c-0.15-0.5-0.15-0.5-0.28-0.96c-0.13-0.47-0.1-0.48-0.23-0.94
		c-0.14-0.46-0.17-0.45-0.31-0.91c-0.15-0.5-0.15-0.5-0.28-0.96c-0.14-0.46-0.06-0.49-0.2-0.95c-0.13-0.46-0.21-0.44-0.34-0.91
		c-0.15-0.5-0.11-0.51-0.24-0.97c-0.13-0.47-0.1-0.48-0.23-0.94s-0.17-0.45-0.31-0.92c-0.15-0.5-0.18-0.49-0.32-0.95
		c-0.14-0.46-0.21-0.44-0.34-0.9c-0.03-0.11-0.08-0.14-0.19-0.11c-0.37,0.1-0.41-0.05-0.78,0.05c-0.37,0.11-0.32,0.26-0.73,0.38
		c-0.11,0.03-0.16-0.12-0.19-0.23c-0.13-0.46-0.21-0.44-0.34-0.91c-0.15-0.5-0.11-0.51-0.24-0.97s-0.21-0.44-0.34-0.9
		c-0.14-0.46-0.1-0.47-0.23-0.94c-0.13-0.46-0.1-0.47-0.23-0.93C644.72,284.71,644.72,284.55,644.83,284.52"/>
	<path class="st0" d="M676.65,290.87c-0.03-0.32-0.1-0.64-0.13-0.96c0-0.36,0.09-0.66,0.09-0.98c0.01-0.32,0.01-0.65,0.06-0.97
		c0-0.32,0.09-0.66,0.13-0.98c0.04-0.33,0.09-0.61,0.13-0.94c0.08-0.33,0.09-0.65,0.17-0.95c0.08-0.33,0.17-0.62,0.29-0.96
		c0.08-0.29,0.25-0.59,0.37-0.89c0.12-0.29,0.33-0.52,0.5-0.82c0.12-0.29,0.29-0.55,0.46-0.81c0.16-0.3,0.24-0.63,0.41-0.89
		c0.2-0.26,0.37-0.56,0.54-0.78c0.2-0.26,0.5-0.41,0.71-0.64c0.24-0.27,0.41-0.53,0.66-0.71c0.21-0.22,0.41-0.49,0.62-0.71
		c0.25-0.19,0.5-0.41,0.75-0.6s0.5-0.38,0.75-0.56c0.25-0.19,0.54-0.34,0.8-0.49c0.29-0.15,0.64-0.18,0.89-0.33
		c0.29-0.15,0.55-0.26,0.84-0.41c0.3-0.11,0.55-0.22,0.85-0.33s0.59-0.3,0.89-0.37c0.3-0.11,0.61-0.06,0.91-0.13s0.6-0.14,0.91-0.17
		c0.3-0.07,0.61-0.06,0.96-0.1c0.3-0.03,0.59-0.22,0.9-0.25c0.31,0.01,0.63,0.1,0.94,0.11c0.31,0.01,0.63,0.1,0.94,0.11
		c0.31,0.05,0.61-0.1,0.92-0.05c0.31,0.05,0.63,0.14,0.94,0.18c0.28,0.05,0.59,0.1,0.91,0.19c0.32,0.09,0.61,0.26,0.88,0.35
		c0.28,0.09,0.6,0.18,0.88,0.31c0.28,0.09,0.6,0.18,0.88,0.31s0.54,0.35,0.82,0.48c0.29,0.17,0.54,0.35,0.79,0.52
		c0.25,0.18,0.57,0.31,0.82,0.48c0.25,0.18,0.53,0.35,0.79,0.56c0.21,0.18,0.43,0.48,0.65,0.7c0.22,0.22,0.47,0.4,0.68,0.66
		c0.21,0.22,0.43,0.48,0.65,0.7c0.18,0.26,0.43,0.48,0.62,0.74c0.18,0.27,0.22,0.62,0.36,0.93c0.18,0.26,0.44,0.48,0.58,0.79
		c0.14,0.27,0.21,0.58,0.32,0.89c0.15,0.31,0.29,0.58,0.4,0.89c0.11,0.31,0.29,0.58,0.4,0.89c0.07,0.32,0.14,0.63,0.21,0.95
		c0.07,0.31,0.03,0.68,0.1,1c0.03,0.32,0.14,0.63,0.17,0.95c0.03,0.32,0.03,0.64,0.02,0.97c0.03,0.32-0.01,0.65-0.02,0.97
		s0.03,0.64-0.02,0.97c-0.05,0.33,0.07,0.68,0.03,1.01c-0.04,0.33-0.2,0.63-0.29,0.92c-0.04,0.33-0.17,0.62-0.25,0.95
		c-0.08,0.29-0.09,0.66-0.21,0.95c-0.09,0.29-0.21,0.59-0.34,0.88c-0.12,0.29-0.21,0.63-0.37,0.93s-0.33,0.56-0.49,0.82
		c-0.16,0.3-0.41,0.49-0.58,0.78c-0.2,0.26-0.29,0.55-0.49,0.82c-0.2,0.26-0.41,0.49-0.62,0.71c-0.2,0.26-0.54,0.38-0.75,0.6
		s-0.46,0.45-0.7,0.68c-0.21,0.18-0.41,0.49-0.66,0.67c-0.25,0.19-0.55,0.26-0.84,0.45c-0.25,0.15-0.45,0.45-0.71,0.6
		c-0.29,0.15-0.6,0.18-0.89,0.33c-0.3,0.11-0.55,0.3-0.84,0.41c-0.29,0.15-0.55,0.26-0.85,0.37c-0.3,0.07-0.59,0.26-0.89,0.37
		c-0.3,0.07-0.61,0.06-0.91,0.09c-0.3,0.07-0.61,0.1-0.91,0.17c-0.31,0.03-0.6,0.14-0.91,0.17c-0.34,0.03-0.64,0.15-0.95,0.14
		c-0.31,0.03-0.61,0.02-0.92,0.01c-0.31-0.01-0.64-0.18-0.94-0.19c-0.31-0.01-0.61,0.06-0.92,0.02c-0.31-0.05-0.6-0.22-0.91-0.27
		s-0.65,0.03-0.93-0.06c-0.32-0.09-0.63-0.14-0.91-0.27c-0.28-0.09-0.57-0.3-0.85-0.4c-0.28-0.13-0.6-0.18-0.88-0.31
		s-0.51-0.43-0.79-0.57c-0.29-0.17-0.6-0.22-0.88-0.35c-0.25-0.18-0.54-0.35-0.79-0.56c-0.25-0.18-0.44-0.48-0.65-0.7
		c-0.25-0.18-0.57-0.31-0.82-0.52c-0.22-0.22-0.36-0.53-0.58-0.79c-0.22-0.22-0.5-0.39-0.68-0.66c-0.22-0.22-0.32-0.53-0.51-0.79
		c-0.18-0.26-0.4-0.53-0.54-0.79c-0.19-0.3-0.4-0.52-0.55-0.83c-0.14-0.27-0.14-0.63-0.29-0.94c-0.15-0.31-0.4-0.52-0.51-0.84
		c-0.11-0.31-0.14-0.63-0.25-0.94c-0.07-0.32-0.07-0.68-0.14-0.99c-0.07-0.32-0.25-0.58-0.33-0.94
		C676.68,291.51,676.69,291.19,676.65,290.87 M699.09,288.58c-0.03-0.32-0.15-0.67-0.22-0.99c-0.07-0.32-0.03-0.68-0.14-0.99
		c-0.07-0.36-0.18-0.67-0.29-0.98c-0.14-0.27-0.26-0.62-0.4-0.93c-0.14-0.27-0.33-0.57-0.51-0.84c-0.22-0.26-0.47-0.48-0.65-0.74
		c-0.26-0.22-0.47-0.44-0.72-0.65c-0.25-0.17-0.5-0.39-0.75-0.57c-0.29-0.17-0.55-0.43-0.83-0.56c-0.28-0.09-0.6-0.22-0.92-0.31
		c-0.28-0.05-0.62-0.02-0.93-0.03c-0.31-0.05-0.62-0.06-0.93-0.07c-0.31,0.03-0.63-0.1-0.93-0.07c-0.34,0.04-0.64,0.14-0.95,0.18
		c-0.3,0.07-0.59,0.22-0.89,0.33s-0.55,0.26-0.85,0.37c-0.29,0.15-0.55,0.3-0.8,0.48c-0.25,0.19-0.5,0.41-0.75,0.6
		c-0.21,0.22-0.54,0.38-0.75,0.6c-0.17,0.26-0.37,0.56-0.53,0.82c-0.16,0.3-0.28,0.6-0.4,0.93c-0.12,0.29-0.17,0.62-0.25,0.91
		c-0.08,0.37-0.28,0.63-0.33,0.96c-0.04,0.33-0.09,0.65-0.13,1.02c-0.01,0.32-0.05,0.65-0.05,0.97c0.03,0.32,0.19,0.71,0.22,1.03
		c0.03,0.32,0.03,0.64,0.06,0.96c0.08,0.39,0.07,0.72,0.15,1.03c0.11,0.31,0.37,0.57,0.48,0.88c0.11,0.35,0.22,0.66,0.36,0.93
		c0.18,0.31,0.36,0.53,0.54,0.79c0.19,0.34,0.33,0.61,0.55,0.87c0.22,0.22,0.47,0.44,0.72,0.65c0.22,0.26,0.54,0.35,0.79,0.53
		c0.29,0.17,0.54,0.39,0.82,0.52c0.28,0.13,0.57,0.27,0.89,0.35c0.28,0.09,0.62,0.06,0.94,0.15c0.31,0.05,0.62,0.02,0.93,0.03
		c0.3-0.03,0.62,0.06,0.96,0.02c0.31-0.03,0.6-0.14,0.9-0.21c0.31-0.03,0.6-0.14,0.9-0.29c0.3-0.07,0.55-0.26,0.85-0.37
		c0.29-0.15,0.64-0.19,0.89-0.33c0.25-0.19,0.45-0.49,0.66-0.71c0.25-0.23,0.54-0.38,0.74-0.68c0.21-0.23,0.33-0.52,0.5-0.82
		c0.17-0.26,0.25-0.59,0.37-0.88c0.12-0.34,0.28-0.64,0.36-0.97c0.09-0.29,0.25-0.59,0.29-0.96c0.04-0.33,0.05-0.65,0.06-0.97
		c0.04-0.33,0.09-0.65,0.09-1.02C699.19,289.26,699.12,288.9,699.09,288.58"/>
	<path class="st0" d="M713.86,287.78c0.03-0.32,0.03-0.64,0.06-0.96c0.08-0.36,0.22-0.62,0.29-0.94s0.14-0.63,0.25-0.94
		c0.07-0.32,0.22-0.62,0.32-0.94c0.11-0.31,0.21-0.59,0.32-0.9c0.15-0.31,0.22-0.62,0.36-0.89c0.15-0.31,0.29-0.58,0.48-0.88
		c0.14-0.27,0.36-0.53,0.54-0.79c0.18-0.27,0.43-0.44,0.65-0.71c0.18-0.26,0.4-0.48,0.61-0.7c0.22-0.26,0.36-0.57,0.58-0.79
		c0.25-0.22,0.47-0.48,0.68-0.66c0.25-0.22,0.57-0.31,0.82-0.48c0.29-0.21,0.51-0.43,0.79-0.57c0.25-0.17,0.5-0.39,0.75-0.57
		c0.28-0.13,0.57-0.31,0.85-0.44c0.28-0.13,0.56-0.27,0.85-0.4c0.28-0.14,0.6-0.23,0.88-0.32c0.32-0.09,0.66-0.06,0.94-0.15
		c0.32-0.09,0.59-0.14,0.91-0.23c0.31-0.05,0.59-0.1,0.9-0.15s0.63-0.18,0.94-0.19c0.31-0.05,0.61,0.06,0.92,0.05
		s0.62-0.02,0.92,0.01c0.31-0.01,0.61,0.06,0.95,0.1c0.31,0.03,0.63-0.1,0.93-0.07c0.3,0.07,0.59,0.22,0.89,0.29s0.6,0.22,0.9,0.29
		c0.3,0.11,0.61,0.02,0.91,0.13c0.3,0.11,0.59,0.26,0.89,0.37c0.26,0.11,0.56,0.22,0.85,0.37s0.54,0.38,0.79,0.52
		c0.26,0.15,0.55,0.3,0.8,0.49c0.25,0.15,0.55,0.3,0.8,0.48c0.25,0.19,0.46,0.45,0.71,0.64c0.25,0.23,0.46,0.45,0.66,0.67
		c0.21,0.22,0.5,0.41,0.71,0.64c0.21,0.22,0.46,0.45,0.66,0.71c0.17,0.22,0.33,0.56,0.5,0.82s0.38,0.48,0.54,0.78
		c0.17,0.26,0.33,0.56,0.49,0.82c0.13,0.29,0.33,0.56,0.45,0.85s0.09,0.65,0.17,0.99c0.12,0.29,0.33,0.56,0.41,0.89
		c0.08,0.29,0.09,0.62,0.14,0.94c0.08,0.33,0.17,0.62,0.21,0.95c0.04,0.33,0.17,0.62,0.21,0.95c0.01,0.32,0.01,0.65,0.02,0.97
		c0,0.32-0.1,0.68-0.1,1c-0.03,0.32,0.01,0.65-0.02,0.97s-0.1,0.63-0.17,0.95c-0.03,0.32-0.14,0.63-0.21,0.95s-0.1,0.64-0.21,0.95
		c-0.11,0.31-0.07,0.68-0.18,0.99s-0.33,0.57-0.47,0.84c-0.11,0.31-0.29,0.58-0.44,0.89c-0.14,0.27-0.22,0.62-0.4,0.89
		c-0.15,0.27-0.32,0.53-0.51,0.8c-0.18,0.27-0.33,0.57-0.55,0.83c-0.22,0.26-0.43,0.48-0.65,0.7c-0.22,0.26-0.5,0.39-0.72,0.65
		c-0.25,0.22-0.4,0.49-0.65,0.7c-0.25,0.22-0.5,0.39-0.75,0.57c-0.25,0.22-0.6,0.26-0.85,0.44s-0.54,0.35-0.82,0.52
		c-0.25,0.14-0.5,0.39-0.79,0.53c-0.28,0.13-0.59,0.14-0.91,0.27c-0.28,0.1-0.54,0.35-0.81,0.44c-0.32,0.09-0.62,0.06-0.94,0.15
		c-0.31,0.05-0.6,0.18-0.91,0.23c-0.32,0.09-0.59,0.14-0.91,0.19c-0.31,0.01-0.63,0.14-0.94,0.19c-0.31,0.01-0.61-0.06-0.91-0.09
		c-0.31,0.01-0.62-0.02-0.92-0.01c-0.3-0.03-0.62,0.02-0.92-0.01c-0.34-0.04-0.66,0.02-0.96-0.06c-0.3-0.03-0.61-0.1-0.91-0.17
		s-0.59-0.3-0.89-0.37s-0.61-0.06-0.91-0.17c-0.3-0.11-0.54-0.34-0.84-0.45c-0.3-0.11-0.64-0.11-0.9-0.25
		c-0.29-0.15-0.59-0.26-0.84-0.45c-0.25-0.15-0.5-0.41-0.75-0.56c-0.25-0.19-0.55-0.3-0.8-0.49s-0.41-0.52-0.66-0.71
		c-0.25-0.23-0.54-0.34-0.79-0.52c-0.21-0.22-0.46-0.45-0.66-0.71c-0.21-0.22-0.33-0.56-0.5-0.82c-0.21-0.22-0.5-0.41-0.7-0.67
		c-0.17-0.26-0.25-0.59-0.41-0.89c-0.17-0.26-0.41-0.49-0.54-0.78c-0.17-0.26-0.21-0.58-0.34-0.88c-0.12-0.3-0.28-0.59-0.37-0.88
		c-0.12-0.33-0.29-0.6-0.37-0.93c-0.09-0.29-0.01-0.65-0.1-0.98c-0.08-0.33-0.28-0.59-0.33-0.92c-0.04-0.33-0.01-0.65-0.06-0.98
		c-0.01-0.32,0.07-0.68,0.06-1c0-0.32-0.13-0.62-0.13-0.98C713.76,288.42,713.83,288.1,713.86,287.78 M736.29,290.03
		c0.03-0.32-0.01-0.69-0.01-1.01c-0.01-0.32,0.11-0.68,0.06-1c0-0.36-0.05-0.69-0.09-1.02c-0.09-0.29-0.13-0.66-0.21-0.99
		c-0.09-0.29-0.21-0.63-0.33-0.92c-0.16-0.3-0.37-0.56-0.49-0.86c-0.2-0.26-0.37-0.52-0.58-0.78c-0.21-0.22-0.41-0.49-0.62-0.71
		c-0.25-0.23-0.45-0.53-0.7-0.72c-0.25-0.15-0.54-0.33-0.84-0.48c-0.26-0.11-0.6-0.14-0.9-0.21c-0.3-0.11-0.6-0.18-0.9-0.25
		c-0.3-0.03-0.6-0.22-0.9-0.25c-0.34-0.03-0.66,0.02-0.96-0.01c-0.31,0.01-0.63,0.1-0.94,0.15s-0.59,0.14-0.91,0.19
		c-0.32,0.09-0.6,0.18-0.88,0.32s-0.57,0.31-0.86,0.44c-0.25,0.18-0.6,0.26-0.85,0.44c-0.21,0.22-0.47,0.48-0.68,0.7
		c-0.22,0.26-0.4,0.53-0.59,0.83c-0.18,0.26-0.29,0.57-0.43,0.85c-0.15,0.35-0.4,0.56-0.51,0.87s-0.22,0.63-0.33,0.98
		c-0.07,0.32-0.18,0.63-0.25,0.95c-0.03,0.32,0.04,0.73,0.01,1.05c-0.03,0.32-0.1,0.63-0.13,0.96c0,0.4-0.07,0.72-0.07,1.04
		c0.05,0.33,0.24,0.63,0.29,0.96c0.04,0.37,0.08,0.7,0.17,0.99c0.12,0.34,0.25,0.59,0.37,0.89c0.12,0.37,0.21,0.67,0.37,0.96
		c0.17,0.26,0.37,0.52,0.57,0.79c0.16,0.3,0.46,0.45,0.67,0.67c0.25,0.23,0.45,0.49,0.7,0.68s0.5,0.37,0.8,0.52
		c0.26,0.15,0.6,0.18,0.89,0.33c0.3,0.11,0.6,0.14,0.9,0.21c0.31,0.03,0.6,0.18,0.94,0.22c0.31,0.03,0.62-0.02,0.93-0.03
		c0.3,0.03,0.62-0.02,0.94-0.11c0.31-0.01,0.59-0.14,0.9-0.19c0.32-0.09,0.66-0.05,0.94-0.15c0.28-0.13,0.54-0.39,0.79-0.57
		c0.29-0.17,0.61-0.26,0.86-0.52c0.25-0.18,0.43-0.44,0.65-0.7c0.22-0.22,0.36-0.53,0.54-0.79c0.18-0.3,0.4-0.57,0.55-0.87
		c0.14-0.27,0.36-0.53,0.47-0.88c0.11-0.31,0.18-0.63,0.25-0.94c0.11-0.31,0.22-0.62,0.29-0.98
		C736.26,290.71,736.26,290.35,736.29,290.03"/>
	<path class="st0" d="M754.52,278.33c0.48,0.14,0.47,0.18,0.91,0.31c0.48,0.14,0.49,0.1,0.93,0.23c0.44,0.12,0.44,0.12,0.92,0.26
		c0.44,0.13,0.43,0.17,0.91,0.3c0.44,0.13,0.44,0.13,0.89,0.25c0.48,0.14,0.48,0.14,0.92,0.26c0.48,0.14,0.46,0.21,0.9,0.34
		s0.48,0.01,0.96,0.15c0.44,0.13,0.44,0.13,0.92,0.26c0.44,0.12,0.41,0.24,0.85,0.37c0.48,0.13,0.52-0.02,0.97,0.11
		c0.48,0.14,0.45,0.25,0.89,0.38c0.11,0.03,0.13,0.12,0.09,0.23c-0.13,0.46-0.06,0.49-0.19,0.95c-0.13,0.46-0.1,0.48-0.23,0.94
		c-0.13,0.47-0.24,0.43-0.37,0.9s-0.13,0.47-0.26,0.93s-0.13,0.46-0.26,0.93c-0.04,0.12-0.08,0.15-0.19,0.11
		c-0.41-0.12-0.44,0-0.88-0.13c-0.41-0.12-0.4-0.15-0.8-0.27c-0.11-0.03-0.21,0.03-0.24,0.14c-0.13,0.47-0.2,0.44-0.34,0.9
		c-0.13,0.46-0.02,0.5-0.17,1c-0.13,0.46-0.28,0.42-0.41,0.89c-0.13,0.46-0.06,0.48-0.19,0.95c-0.14,0.5-0.11,0.51-0.24,0.98
		c-0.13,0.46-0.24,0.43-0.37,0.9c-0.13,0.46-0.02,0.5-0.16,1c-0.13,0.46-0.09,0.47-0.23,0.93c-0.13,0.47-0.21,0.45-0.34,0.91
		c-0.15,0.5-0.07,0.52-0.2,0.99c-0.13,0.46-0.13,0.46-0.26,0.92c-0.13,0.46-0.21,0.44-0.35,0.95c-0.13,0.46-0.2,0.44-0.34,0.91
		c-0.13,0.47,0.02,0.51-0.12,0.97c-0.14,0.5-0.29,0.46-0.42,0.92c-0.13,0.46-0.02,0.49-0.15,0.96c-0.13,0.46-0.17,0.45-0.31,0.96
		c-0.13,0.46-0.13,0.46-0.26,0.93c-0.03,0.12,0.08,0.15,0.19,0.18c0.44,0.12,0.41,0.24,0.85,0.37s0.45,0.09,0.9,0.21
		c0.44,0.13,0.45,0.09,0.9,0.21c0.44,0.13,0.41,0.24,0.85,0.37s0.45,0.09,0.93,0.23c0.44,0.12,0.43,0.16,0.88,0.29
		c0.11,0.03,0.3-0.08,0.33-0.2c0.13-0.46,0.06-0.49,0.2-0.99c0.13-0.47,0.13-0.47,0.27-0.97c0.13-0.46,0.21-0.44,0.35-0.94
		c0.13-0.46,0.09-0.47,0.24-0.98c0.03-0.12,0.15-0.25,0.26-0.22c0.44,0.13,0.42,0.2,0.86,0.33c0.44,0.13,0.45,0.09,0.9,0.21
		c0.44,0.13,0.44,0.13,0.89,0.25c0.44,0.12,0.43,0.16,0.87,0.29s0.44,0.13,0.89,0.25c0.44,0.13,0.43,0.17,0.88,0.29
		c0.11,0.03,0.1,0.07,0.07,0.19c-0.13,0.46,0.02,0.51-0.11,0.93c-0.13,0.46-0.17,0.45-0.3,0.92c-0.12,0.42-0.19,0.4-0.33,0.87
		c-0.12,0.43-0.01,0.46-0.14,0.92c-0.12,0.43-0.23,0.39-0.36,0.86c-0.12,0.42-0.05,0.44-0.18,0.91c-0.12,0.43-0.12,0.43-0.25,0.89
		c-0.13,0.46-0.1,0.47-0.22,0.9c-0.13,0.46-0.2,0.44-0.33,0.87c-0.13,0.46-0.17,0.45-0.29,0.88c-0.13,0.46-0.02,0.5-0.14,0.92
		c-0.03,0.12-0.22,0.23-0.33,0.2c-0.44-0.13-0.43-0.17-0.87-0.29s-0.42-0.2-0.87-0.33c-0.44-0.13-0.47-0.01-0.92-0.14
		c-0.44-0.13-0.45-0.09-0.89-0.21s-0.4-0.28-0.84-0.4c-0.44-0.13-0.48-0.01-0.92-0.14s-0.42-0.2-0.86-0.33
		c-0.44-0.13-0.44-0.13-0.88-0.25c-0.44-0.13-0.48-0.01-0.92-0.14c-0.44-0.12-0.41-0.24-0.85-0.37c-0.44-0.12-0.48-0.01-0.92-0.13
		c-0.44-0.13-0.41-0.24-0.85-0.37s-0.44-0.13-0.89-0.25c-0.44-0.13-0.43-0.17-0.87-0.29c-0.44-0.13-0.45-0.09-0.89-0.21
		c-0.48-0.14-0.48-0.14-0.92-0.26c-0.44-0.13-0.45-0.09-0.9-0.21c-0.44-0.12-0.43-0.16-0.87-0.29c-0.44-0.12-0.44-0.12-0.88-0.25
		s-0.43-0.17-0.87-0.29c-0.44-0.13-0.47-0.01-0.92-0.14c-0.44-0.12-0.42-0.2-0.86-0.33c-0.44-0.12-0.45-0.09-0.9-0.21
		c-0.11-0.03-0.19-0.18-0.16-0.29c0.12-0.42,0.16-0.41,0.29-0.88c0.13-0.46,0.06-0.48,0.19-0.95s0.17-0.45,0.3-0.92
		c0.13-0.46,0.17-0.45,0.3-0.92c0.13-0.46,0.13-0.46,0.26-0.93c0.03-0.12,0.12-0.13,0.23-0.1c0.41,0.11,0.44,0,0.81,0.1
		s0.35,0.18,0.72,0.29c0.11,0.03,0.25-0.05,0.29-0.17c0.13-0.46,0.06-0.48,0.19-0.95c0.13-0.46,0.24-0.43,0.38-0.89
		c0.14-0.5,0.14-0.5,0.27-0.96s0.09-0.47,0.23-0.94c0.13-0.47,0.06-0.49,0.19-0.95c0.14-0.5,0.18-0.49,0.31-0.96
		c0.13-0.46,0.17-0.45,0.3-0.92c0.13-0.46,0.13-0.46,0.26-0.93c0.14-0.5,0.14-0.5,0.28-0.96c0.13-0.46,0.17-0.45,0.3-0.91
		s0.09-0.47,0.23-0.94c0.14-0.51,0.14-0.51,0.28-0.97c0.13-0.46,0.21-0.44,0.34-0.9c0.13-0.47,0.06-0.48,0.19-0.95
		c0.14-0.51,0.18-0.5,0.31-0.96s0.17-0.45,0.3-0.91s0.09-0.47,0.23-0.94c0.14-0.51,0.11-0.52,0.24-0.98
		c0.13-0.46,0.06-0.48,0.19-0.95c0.03-0.12,0.01-0.17-0.1-0.2c-0.37-0.1-0.32-0.26-0.69-0.36c-0.37-0.1-0.41,0.05-0.82-0.07
		c-0.11-0.04-0.07-0.19-0.04-0.31c0.13-0.46,0.06-0.49,0.19-0.95c0.14-0.5,0.18-0.49,0.31-0.96c0.13-0.46,0.06-0.48,0.19-0.95
		c0.13-0.46,0.17-0.45,0.3-0.91s0.17-0.45,0.3-0.92C754.33,278.44,754.41,278.3,754.52,278.33"/>
	<path class="st0" d="M806.35,298.6c-0.19,0.39-0.19,0.39-0.39,0.79s-0.2,0.4-0.39,0.79c-0.2,0.4-0.2,0.4-0.39,0.79
		c-0.2,0.4-0.13,0.43-0.33,0.83c-0.21,0.43-0.21,0.43-0.41,0.83c-0.09,0.18-0.39,0.26-0.59,0.15c-0.48-0.24-0.5-0.2-1.01-0.46
		c-0.24-0.12-0.47-0.01-0.52,0.28c-0.07,0.32-0.18,0.63-0.26,0.95c-0.04,0.34-0.11,0.66-0.19,0.98c-0.07,0.32-0.12,0.66-0.19,0.98
		c-0.04,0.34-0.06,0.64-0.13,0.96c-0.06,0.29-0.06,0.64-0.12,0.93c-0.07,0.32-0.15,0.64-0.2,0.93c-0.08,0.32-0.03,0.66-0.1,0.98
		c-0.06,0.28-0.1,0.62-0.15,0.91c-0.04,0.34-0.12,0.66-0.17,0.95c-0.04,0.34-0.22,0.61-0.29,0.93c-0.02,0.3-0.09,0.62-0.17,0.95
		c-0.02,0.3-0.05,0.61-0.08,0.94c-0.07,0.32-0.1,0.63-0.17,0.95c-0.05,0.29-0.22,0.61-0.27,0.9c-0.04,0.34-0.1,0.62-0.17,0.95
		c-0.07,0.32-0.03,0.66-0.08,0.95c-0.07,0.32-0.09,0.62-0.13,0.96c-0.08,0.32-0.1,0.62-0.17,0.95c-0.06,0.29-0.13,0.61-0.21,0.93
		c-0.06,0.38-0.17,0.68-0.07,0.91s0.32,0.47,0.7,0.57c0.19,0.05,0.42,0.03,0.62,0.13c0.19,0.14,0.2,0.37,0.1,0.59
		c-0.2,0.39-0.2,0.39-0.39,0.79c-0.2,0.4-0.23,0.38-0.43,0.77c-0.19,0.39-0.16,0.41-0.36,0.81s-0.1,0.45-0.31,0.88
		c-0.2,0.4-0.34,0.33-0.53,0.73c-0.09,0.18-0.26,0.27-0.43,0.19c-0.45-0.22-0.45-0.22-0.86-0.43c-0.41-0.2-0.39-0.24-0.81-0.45
		c-0.41-0.2-0.47-0.1-0.88-0.3c-0.41-0.2-0.43-0.17-0.84-0.37c-0.41-0.21-0.36-0.31-0.77-0.52c-0.45-0.22-0.46-0.18-0.87-0.39
		c-0.41-0.21-0.45-0.13-0.86-0.34c-0.41-0.2-0.38-0.28-0.79-0.48s-0.41-0.2-0.82-0.41c-0.41-0.2-0.45-0.13-0.89-0.35
		c-0.41-0.21-0.36-0.31-0.77-0.52c-0.41-0.2-0.41-0.2-0.82-0.41c-0.21-0.1-0.34-0.35-0.25-0.53c0.23-0.47,0.33-0.42,0.59-0.92
		c0.23-0.47,0.23-0.47,0.46-0.93c0.23-0.47,0.2-0.49,0.43-0.95c0.23-0.47,0.2-0.49,0.43-0.95c0.11-0.22,0.37-0.31,0.57-0.21
		c0.31,0.16,0.29,0.19,0.64,0.36c0.31,0.15,0.29,0.19,0.63,0.36c0.24,0.12,0.59-0.06,0.64-0.35c0.07-0.32,0.08-0.68,0.16-1
		c0.06-0.37,0.13-0.7,0.17-1.04c0.04-0.16,0-0.36-0.17-0.44c-0.27-0.14-0.56-0.33-0.87-0.48c-0.28-0.14-0.58-0.29-0.89-0.44
		c-0.27-0.13-0.63-0.18-0.95-0.33c-0.27-0.14-0.53-0.31-0.81-0.44c-0.27-0.14-0.57-0.24-0.84-0.38c-0.28-0.14-0.5-0.38-0.77-0.52
		c-0.27-0.14-0.6-0.17-0.88-0.3c-0.28-0.14-0.55-0.27-0.82-0.41c-0.38-0.19-0.6-0.25-0.87,0.11c-0.19,0.22-0.35,0.45-0.55,0.67
		c-0.19,0.22-0.4,0.38-0.6,0.6c-0.2,0.22-0.11,0.57,0.13,0.69c0.31,0.15,0.29,0.19,0.63,0.36c0.31,0.15,0.35,0.08,0.65,0.23
		c0.2,0.1,0.22,0.33,0.11,0.55c-0.23,0.47-0.16,0.5-0.41,1c-0.23,0.47-0.3,0.44-0.53,0.9c-0.25,0.5-0.15,0.55-0.38,1.02
		s-0.23,0.47-0.46,0.94c-0.11,0.21-0.4,0.29-0.61,0.19c-0.38-0.19-0.4-0.15-0.81-0.36c-0.41-0.2-0.36-0.31-0.77-0.52
		c-0.41-0.2-0.41-0.2-0.79-0.39c-0.41-0.21-0.45-0.14-0.86-0.34c-0.41-0.2-0.39-0.24-0.81-0.45c-0.38-0.19-0.41-0.12-0.82-0.32
		c-0.41-0.2-0.34-0.35-0.75-0.55c-0.41-0.2-0.45-0.13-0.83-0.32c-0.41-0.2-0.45-0.13-0.86-0.34s-0.38-0.28-0.79-0.48
		c-0.38-0.19-0.43-0.08-0.84-0.28c-0.2-0.1-0.25-0.44-0.14-0.66c0.19-0.4,0.27-0.36,0.46-0.76c0.2-0.39,0.16-0.41,0.36-0.81
		s0.2-0.4,0.39-0.79s0.13-0.43,0.32-0.83s0.3-0.34,0.5-0.74c0.11-0.21,0.3-0.34,0.47-0.26c0.26,0.08,0.5,0.2,0.72,0.36
		c0.48,0.33,0.76,0.2,1.15-0.24c0.24-0.24,0.51-0.42,0.7-0.64c0.25-0.24,0.37-0.58,0.57-0.8c0.25-0.23,0.54-0.4,0.77-0.6
		c0.21-0.25,0.39-0.52,0.6-0.78c0.25-0.24,0.42-0.51,0.61-0.73c0.25-0.24,0.42-0.51,0.67-0.74c0.19-0.22,0.44-0.45,0.68-0.69
		c0.2-0.22,0.49-0.39,0.74-0.62c0.2-0.22,0.36-0.54,0.55-0.76c0.24-0.24,0.45-0.49,0.68-0.69c0.21-0.25,0.42-0.51,0.67-0.74
		c0.19-0.22,0.4-0.47,0.62-0.73c0.25-0.24,0.51-0.42,0.74-0.62c0.21-0.25,0.35-0.54,0.57-0.79c0.25-0.24,0.54-0.4,0.74-0.62
		c0.21-0.26,0.47-0.44,0.68-0.69c0.25-0.24,0.39-0.52,0.6-0.78c0.25-0.24,0.53-0.46,0.77-0.69c0.21-0.25,0.42-0.51,0.69-0.78
		c0.19-0.22,0.1-0.53-0.15-0.65c-0.48-0.24-0.46-0.28-0.98-0.53c-0.17-0.09-0.2-0.28-0.1-0.5c0.2-0.4,0.06-0.46,0.26-0.86
		c0.19-0.4,0.27-0.36,0.46-0.76c0.2-0.39,0.2-0.39,0.39-0.79c0.2-0.4,0.23-0.38,0.45-0.81c0.19-0.39,0.13-0.43,0.32-0.82
		c0.09-0.18,0.37-0.22,0.54-0.14c0.41,0.21,0.45,0.14,0.86,0.34c0.41,0.2,0.38,0.28,0.75,0.47c0.41,0.2,0.47,0.09,0.88,0.3
		c0.38,0.19,0.32,0.29,0.74,0.5c0.41,0.2,0.47,0.09,0.88,0.3c0.38,0.19,0.38,0.19,0.79,0.39c0.41,0.21,0.38,0.28,0.75,0.46
		c0.41,0.21,0.4,0.24,0.81,0.45c0.41,0.2,0.45,0.13,0.83,0.32c0.41,0.2,0.39,0.24,0.81,0.45c0.38,0.19,0.41,0.11,0.82,0.32
		c0.41,0.2,0.34,0.35,0.75,0.55c0.38,0.18,0.38,0.18,0.79,0.39c0.41,0.2,0.48,0.06,0.89,0.27c0.38,0.19,0.36,0.23,0.77,0.43
		c0.41,0.2,0.43,0.17,0.81,0.36c0.41,0.2,0.41,0.2,0.83,0.41c0.41,0.2,0.38,0.28,0.75,0.47C806.4,298.17,806.44,298.42,806.35,298.6
		 M795.48,301.36c-0.45-0.22-0.41-0.2-0.86-0.43c-0.2,0.22-0.44,0.46-0.63,0.67c-0.21,0.25-0.4,0.47-0.62,0.73
		c-0.23,0.2-0.39,0.52-0.58,0.74c-0.21,0.25-0.44,0.46-0.65,0.71c-0.19,0.22-0.44,0.45-0.63,0.67c-0.21,0.25-0.39,0.53-0.62,0.73
		c-0.21,0.25-0.41,0.47-0.65,0.71c-0.19,0.22-0.46,0.4-0.67,0.66c-0.19,0.22-0.41,0.47-0.63,0.67c-0.16,0.24-0.1,0.63,0.14,0.74
		c0.41,0.21,0.43,0.17,0.81,0.36c0.41,0.2,0.43,0.17,0.84,0.37c0.41,0.2,0.4,0.24,0.81,0.45c0.41,0.2,0.45,0.13,0.86,0.34
		c0.41,0.2,0.41,0.2,0.79,0.39c0.24,0.12,0.41,0.03,0.47-0.26s0.23-0.56,0.31-0.88s0.13-0.61,0.21-0.93
		c0.06-0.29,0.04-0.61,0.12-0.93c0.06-0.29,0.1-0.63,0.16-0.91c0.07-0.32,0.25-0.59,0.32-0.91c0.06-0.29,0.13-0.61,0.2-0.93
		c0.02-0.3,0.01-0.62,0.08-0.95c0.06-0.29,0.1-0.62,0.15-0.91C795.28,301.94,795.42,301.65,795.48,301.36"/>
	<path class="st0" d="M803.36,330.06c0.27-0.35,0.21-0.4,0.47-0.75c0.26-0.35,0.26-0.35,0.53-0.71c0.27-0.35,0.36-0.28,0.62-0.64
		c0.27-0.36,0.2-0.4,0.47-0.75c0.29-0.39,0.29-0.39,0.55-0.74c0.12-0.16,0.42-0.24,0.6-0.1c0.46,0.34,0.46,0.34,0.95,0.71
		c0.18,0.14,0.38,0.13,0.52-0.06c0.29-0.39,0.32-0.36,0.61-0.75s0.32-0.36,0.61-0.75s0.2-0.45,0.49-0.84
		c0.29-0.39,0.35-0.34,0.61-0.69c0.29-0.38,0.32-0.36,0.61-0.75s0.26-0.41,0.55-0.79c0.29-0.39,0.32-0.37,0.61-0.75
		c0.29-0.39,0.29-0.39,0.58-0.77c0.29-0.39,0.26-0.41,0.54-0.8c0.29-0.39,0.26-0.41,0.52-0.76c0.29-0.39,0.35-0.34,0.64-0.73
		c0.29-0.39,0.19-0.46,0.48-0.84c0.29-0.39,0.35-0.34,0.64-0.73c0.29-0.39,0.32-0.36,0.61-0.75c0.29-0.38,0.2-0.45,0.49-0.84
		c0.29-0.39,0.38-0.32,0.67-0.7c0.26-0.36,0.26-0.36,0.55-0.74c0.29-0.39,0.29-0.39,0.58-0.77s0.2-0.45,0.48-0.84
		c0.15-0.19,0.13-0.36-0.06-0.5c-0.49-0.37-0.49-0.37-0.95-0.71c-0.18-0.14-0.16-0.42-0.02-0.62c0.26-0.35,0.33-0.31,0.59-0.66
		s0.23-0.38,0.52-0.76c0.27-0.36,0.24-0.38,0.5-0.73c0.27-0.35,0.24-0.37,0.5-0.73c0.29-0.39,0.32-0.36,0.58-0.71
		c0.12-0.17,0.36-0.29,0.51-0.17c0.03,0.02,0.11,0.04,0.15,0.06c0.25,0.18,0.39,0.5,0.64,0.68c0.24,0.18,0.56,0.27,0.81,0.46
		c0.25,0.18,0.49,0.37,0.74,0.55s0.44,0.43,0.69,0.62c0.25,0.18,0.56,0.27,0.81,0.46c0.25,0.18,0.49,0.37,0.77,0.57
		c0.24,0.19,0.44,0.43,0.69,0.62c0.25,0.18,0.47,0.4,0.72,0.59c0.24,0.18,0.54,0.3,0.78,0.49c0.25,0.18,0.49,0.37,0.74,0.55
		s0.51,0.34,0.76,0.52s0.44,0.43,0.69,0.62c0.25,0.18,0.49,0.37,0.74,0.55c0.24,0.18,0.49,0.37,0.74,0.55s0.52,0.39,0.77,0.58
		c0.24,0.18,0.42,0.46,0.66,0.65c0.24,0.18,0.54,0.3,0.76,0.52c0.22,0.22,0.44,0.43,0.66,0.65c0.2,0.25,0.39,0.49,0.59,0.74
		s0.27,0.6,0.41,0.86c0.18,0.28,0.29,0.57,0.41,0.86c0.12,0.29,0.26,0.55,0.33,0.85c0.09,0.32,0.27,0.6,0.31,0.93
		c0.06,0.3,0.05,0.64,0.03,0.92c0.01,0.31,0.02,0.62-0.03,0.93c-0.04,0.32-0.21,0.6-0.28,0.89c-0.08,0.29-0.09,0.63-0.22,0.94
		c-0.1,0.27-0.38,0.51-0.55,0.74c-0.16,0.28-0.29,0.58-0.52,0.82c-0.17,0.23-0.33,0.51-0.55,0.74c-0.25,0.21-0.54,0.35-0.77,0.52
		c-0.28,0.19-0.45,0.47-0.74,0.6c-0.26,0.16-0.55,0.29-0.84,0.42c-0.3,0.08-0.6,0.1-0.9,0.18c-0.3,0.08-0.59,0.21-0.89,0.23
		c-0.3,0.02-0.62-0.01-0.95-0.01c-0.28-0.01-0.59-0.04-0.88-0.11c-0.12-0.04-0.2-0.05-0.29-0.06c-0.37-0.08-0.66,0.31-0.46,0.61
		c0.13,0.15,0.28,0.26,0.38,0.39c0.14,0.26,0.16,0.62,0.3,0.88s0.39,0.5,0.51,0.78c0.09,0.27,0.1,0.58,0.16,0.87
		c0.09,0.32,0.13,0.6,0.17,0.93c0.03,0.28,0.07,0.61,0.08,0.92c-0.05,0.32-0.04,0.62-0.08,0.94c-0.08,0.29-0.18,0.57-0.28,0.89
		c-0.13,0.3-0.3,0.53-0.49,0.84c-0.16,0.28-0.39,0.52-0.55,0.8c-0.19,0.26-0.39,0.51-0.61,0.75c-0.22,0.29-0.44,0.52-0.64,0.73
		c-0.28,0.24-0.41,0.55-0.66,0.76c-0.28,0.19-0.61,0.24-0.93,0.41c-0.26,0.16-0.55,0.29-0.84,0.42c-0.29,0.13-0.58,0.27-0.91,0.32
		c-0.3,0.08-0.62,0.13-0.93,0.16c-0.33,0.06-0.63,0.14-0.96,0.14c-0.31-0.03-0.64,0.02-0.95-0.01s-0.6-0.15-0.92-0.24
		c-0.29-0.06-0.58-0.18-0.85-0.28c-0.26-0.1-0.5-0.22-0.79-0.34c-0.26-0.1-0.58-0.13-0.82-0.26s-0.44-0.38-0.71-0.53
		c-0.24-0.13-0.5-0.22-0.77-0.38c-0.21-0.16-0.48-0.31-0.7-0.48c-0.24-0.13-0.51-0.28-0.73-0.44c-0.24-0.18-0.46-0.4-0.71-0.59
		c-0.21-0.16-0.44-0.38-0.68-0.56s-0.48-0.31-0.73-0.5c-0.24-0.18-0.49-0.37-0.74-0.55c-0.21-0.16-0.48-0.31-0.73-0.49
		s-0.51-0.28-0.76-0.47c-0.24-0.18-0.47-0.4-0.68-0.56c-0.24-0.18-0.42-0.46-0.66-0.65c-0.22-0.16-0.46-0.34-0.71-0.53
		c-0.25-0.18-0.51-0.28-0.75-0.46c-0.25-0.18-0.49-0.37-0.71-0.53c-0.24-0.18-0.47-0.4-0.71-0.59c-0.21-0.16-0.44-0.38-0.68-0.56
		c-0.25-0.18-0.56-0.22-0.8-0.4c-0.25-0.19-0.44-0.43-0.66-0.6l-0.01-0.05C803.25,330.48,803.22,330.26,803.36,330.06
		 M818.05,326.06c-0.26,0.35-0.2,0.4-0.47,0.75c-0.27,0.35-0.27,0.35-0.53,0.71c-0.29,0.39-0.38,0.32-0.65,0.67s-0.2,0.4-0.47,0.75
		c-0.27,0.36-0.27,0.36-0.55,0.74c-0.27,0.35-0.2,0.4-0.47,0.75c-0.27,0.35-0.29,0.33-0.56,0.69c-0.15,0.19-0.12,0.41,0.04,0.53
		c0.21,0.16,0.41,0.41,0.63,0.57c0.21,0.16,0.44,0.38,0.65,0.54s0.48,0.26,0.72,0.44c0.21,0.16,0.4,0.35,0.65,0.54
		c0.21,0.16,0.43,0.32,0.67,0.45c0.3,0.17,0.59,0.24,0.85,0.34c0.34,0.05,0.66,0.14,0.96,0.12c0.27-0.05,0.62-0.13,0.92-0.27
		c0.27-0.1,0.52-0.31,0.77-0.52c0.26-0.21,0.45-0.47,0.64-0.73c0.22-0.29,0.47-0.5,0.63-0.78c0.13-0.3,0.15-0.64,0.22-0.94
		c0.07-0.35,0.15-0.64,0.11-0.97c-0.04-0.33-0.1-0.63-0.22-0.92c-0.14-0.26-0.42-0.47-0.67-0.7c-0.19-0.19-0.31-0.48-0.53-0.7
		c-0.21-0.16-0.43-0.38-0.65-0.54c-0.25-0.18-0.49-0.37-0.68-0.56c-0.24-0.18-0.53-0.25-0.78-0.43c-0.21-0.16-0.44-0.38-0.65-0.54
		C818.45,325.91,818.19,325.87,818.05,326.06 M821.41,321.56c-0.14,0.19-0.06,0.4,0.1,0.58c0.24,0.18,0.51,0.33,0.76,0.52
		c0.25,0.18,0.45,0.49,0.7,0.67c0.24,0.18,0.54,0.3,0.78,0.49c0.18,0.14,0.42,0.27,0.66,0.34c0.29,0.12,0.61,0.15,0.91,0.19
		c0.31,0.03,0.59,0.04,0.92-0.02c0.3-0.08,0.62-0.19,0.88-0.34c0.26-0.16,0.58-0.32,0.77-0.58c0.25-0.27,0.46-0.56,0.59-0.86
		c0.15-0.34,0.19-0.71,0.24-1.02c0.07-0.35,0.14-0.7,0.07-1.05c-0.1-0.32-0.24-0.63-0.47-0.9c-0.2-0.25-0.47-0.46-0.69-0.67
		c-0.25-0.24-0.45-0.49-0.7-0.73c-0.25-0.18-0.52-0.39-0.74-0.61c-0.28-0.21-0.55-0.36-0.8-0.6c-0.18-0.14-0.45-0.04-0.57,0.12
		c-0.29,0.39-0.35,0.34-0.64,0.73c-0.27,0.35-0.17,0.42-0.46,0.81c-0.29,0.39-0.35,0.34-0.62,0.69c-0.29,0.39-0.32,0.37-0.61,0.75
		c-0.27,0.35-0.17,0.42-0.46,0.81C821.71,321.23,821.68,321.2,821.41,321.56"/>
	<path class="st0" d="M863.32,344.8l-0.65,0.6c-0.32,0.3-0.32,0.3-0.64,0.61c-0.32,0.3-0.32,0.3-0.65,0.6
		c-0.32,0.3-0.27,0.36-0.59,0.66c-0.35,0.33-0.35,0.33-0.67,0.63c-0.15,0.14-0.45,0.11-0.61-0.06c-0.37-0.39-0.39-0.36-0.79-0.78
		c-0.18-0.2-0.43-0.17-0.59,0.08c-0.18,0.28-0.39,0.52-0.57,0.8c-0.16,0.3-0.34,0.58-0.52,0.85c-0.18,0.28-0.34,0.58-0.52,0.85
		c-0.15,0.3-0.28,0.58-0.46,0.86c-0.15,0.25-0.28,0.58-0.43,0.83c-0.18,0.28-0.36,0.55-0.51,0.8c-0.18,0.28-0.26,0.61-0.44,0.88
		c-0.15,0.25-0.31,0.55-0.46,0.8c-0.16,0.3-0.34,0.58-0.49,0.83c-0.15,0.3-0.41,0.5-0.6,0.77c-0.13,0.28-0.31,0.55-0.49,0.83
		c-0.13,0.28-0.25,0.55-0.41,0.85c-0.18,0.28-0.31,0.55-0.49,0.83c-0.15,0.25-0.42,0.5-0.57,0.74c-0.16,0.3-0.31,0.55-0.49,0.83
		s-0.25,0.61-0.41,0.86c-0.18,0.28-0.31,0.55-0.46,0.86c-0.18,0.28-0.31,0.55-0.49,0.83c-0.16,0.25-0.34,0.52-0.52,0.8
		c-0.19,0.33-0.39,0.58-0.38,0.83s0.14,0.56,0.46,0.78c0.16,0.11,0.38,0.17,0.54,0.34c0.13,0.19,0.06,0.41-0.11,0.58
		c-0.32,0.3-0.32,0.3-0.65,0.61c-0.32,0.3-0.35,0.27-0.67,0.58c-0.32,0.3-0.3,0.33-0.62,0.63c-0.32,0.3-0.24,0.39-0.6,0.72
		c-0.32,0.3-0.42,0.19-0.75,0.49c-0.15,0.14-0.34,0.16-0.47,0.03c-0.34-0.36-0.34-0.36-0.66-0.7c-0.31-0.33-0.28-0.36-0.6-0.7
		c-0.31-0.34-0.4-0.25-0.72-0.59c-0.31-0.34-0.34-0.31-0.66-0.64c-0.32-0.34-0.23-0.42-0.54-0.75c-0.34-0.36-0.37-0.34-0.68-0.67
		c-0.32-0.34-0.38-0.28-0.69-0.62s-0.26-0.39-0.57-0.73c-0.31-0.33-0.31-0.33-0.63-0.67c-0.31-0.33-0.37-0.28-0.71-0.64
		c-0.31-0.34-0.23-0.42-0.54-0.75s-0.31-0.33-0.63-0.67c-0.16-0.17-0.2-0.44-0.05-0.58c0.38-0.36,0.46-0.27,0.87-0.66
		c0.38-0.36,0.38-0.36,0.76-0.72c0.38-0.36,0.35-0.38,0.74-0.74c0.38-0.36,0.35-0.39,0.73-0.74c0.18-0.16,0.45-0.16,0.61,0.01
		c0.23,0.25,0.21,0.28,0.47,0.56c0.24,0.25,0.21,0.28,0.47,0.56c0.18,0.2,0.57,0.14,0.73-0.1c0.18-0.28,0.31-0.61,0.49-0.88
		c0.18-0.33,0.37-0.61,0.52-0.91c0.09-0.14,0.13-0.33,0-0.47c-0.21-0.23-0.42-0.5-0.65-0.75c-0.21-0.22-0.45-0.48-0.68-0.73
		c-0.21-0.22-0.53-0.39-0.77-0.64c-0.21-0.22-0.39-0.48-0.6-0.7c-0.21-0.22-0.45-0.42-0.66-0.64c-0.21-0.22-0.33-0.53-0.54-0.75
		c-0.21-0.22-0.51-0.37-0.72-0.59c-0.21-0.22-0.42-0.45-0.63-0.67c-0.29-0.31-0.47-0.45-0.85-0.2c-0.26,0.14-0.49,0.3-0.75,0.44
		c-0.26,0.13-0.51,0.22-0.77,0.35c-0.26,0.14-0.3,0.5-0.12,0.69c0.24,0.25,0.21,0.28,0.47,0.56c0.24,0.25,0.3,0.2,0.53,0.45
		c0.16,0.17,0.09,0.39-0.09,0.55c-0.38,0.36-0.33,0.41-0.74,0.8c-0.38,0.36-0.43,0.3-0.82,0.66c-0.41,0.39-0.33,0.47-0.71,0.83
		s-0.38,0.36-0.76,0.71c-0.17,0.17-0.48,0.14-0.64-0.03c-0.29-0.31-0.32-0.28-0.63-0.62c-0.31-0.33-0.23-0.42-0.54-0.75
		c-0.31-0.34-0.31-0.34-0.6-0.64c-0.31-0.34-0.37-0.28-0.69-0.62c-0.31-0.34-0.29-0.36-0.6-0.7c-0.29-0.31-0.35-0.25-0.66-0.59
		c-0.31-0.33-0.2-0.45-0.51-0.78c-0.31-0.34-0.37-0.28-0.66-0.59c-0.31-0.34-0.37-0.28-0.69-0.62c-0.31-0.34-0.26-0.39-0.57-0.73
		c-0.29-0.3-0.38-0.22-0.69-0.56c-0.16-0.17-0.09-0.5,0.09-0.67c0.32-0.3,0.37-0.25,0.7-0.55c0.32-0.3,0.29-0.33,0.62-0.63
		c0.32-0.3,0.32-0.3,0.64-0.61c0.32-0.3,0.27-0.36,0.59-0.66c0.32-0.3,0.4-0.22,0.72-0.52c0.18-0.17,0.4-0.22,0.53-0.08
		c0.21,0.17,0.4,0.37,0.55,0.59c0.34,0.47,0.64,0.45,1.16,0.18c0.31-0.14,0.62-0.22,0.88-0.35c0.31-0.14,0.55-0.41,0.81-0.55
		c0.31-0.14,0.65-0.19,0.93-0.3c0.29-0.16,0.55-0.36,0.83-0.52c0.31-0.14,0.58-0.33,0.83-0.47c0.31-0.14,0.57-0.33,0.89-0.46
		c0.26-0.14,0.57-0.27,0.88-0.41c0.26-0.13,0.59-0.19,0.91-0.32c0.26-0.14,0.52-0.39,0.78-0.52c0.31-0.14,0.6-0.3,0.88-0.41
		c0.29-0.17,0.58-0.33,0.89-0.46c0.26-0.14,0.54-0.3,0.83-0.46c0.31-0.14,0.62-0.22,0.91-0.33c0.28-0.16,0.52-0.38,0.81-0.55
		c0.31-0.14,0.65-0.19,0.91-0.32c0.28-0.17,0.6-0.24,0.88-0.41c0.31-0.14,0.55-0.36,0.83-0.52c0.32-0.14,0.65-0.24,0.97-0.38
		c0.29-0.16,0.57-0.33,0.92-0.49c0.26-0.14,0.28-0.47,0.09-0.66c-0.37-0.39-0.34-0.42-0.73-0.84c-0.13-0.14-0.09-0.33,0.08-0.5
		c0.32-0.3,0.22-0.41,0.54-0.72c0.32-0.3,0.38-0.24,0.7-0.55c0.32-0.3,0.32-0.3,0.64-0.6c0.32-0.3,0.35-0.28,0.7-0.6
		c0.32-0.3,0.27-0.36,0.59-0.66c0.15-0.14,0.42-0.08,0.55,0.06c0.32,0.33,0.38,0.28,0.69,0.62s0.26,0.39,0.55,0.7
		c0.32,0.34,0.4,0.26,0.72,0.59c0.29,0.31,0.2,0.39,0.51,0.72c0.31,0.34,0.4,0.25,0.72,0.59c0.29,0.31,0.29,0.31,0.6,0.64
		c0.31,0.34,0.26,0.39,0.54,0.7c0.31,0.33,0.29,0.36,0.6,0.7c0.31,0.34,0.37,0.28,0.66,0.59c0.32,0.34,0.28,0.36,0.6,0.7
		c0.29,0.31,0.35,0.25,0.66,0.59c0.32,0.34,0.2,0.45,0.51,0.78c0.29,0.31,0.29,0.31,0.6,0.64c0.31,0.34,0.43,0.23,0.75,0.56
		c0.29,0.31,0.26,0.33,0.58,0.67c0.32,0.34,0.34,0.31,0.63,0.62c0.31,0.34,0.31,0.34,0.63,0.67c0.31,0.34,0.26,0.39,0.55,0.7
		C863.5,344.41,863.46,344.66,863.32,344.8 M852.16,343.59c-0.34-0.36-0.31-0.33-0.65-0.7c-0.26,0.14-0.57,0.27-0.83,0.41
		c-0.29,0.17-0.55,0.3-0.83,0.46c-0.28,0.11-0.55,0.36-0.8,0.49c-0.29,0.17-0.57,0.27-0.86,0.44c-0.26,0.14-0.57,0.27-0.83,0.41
		c-0.28,0.17-0.54,0.36-0.83,0.46c-0.29,0.16-0.54,0.3-0.85,0.44c-0.26,0.14-0.57,0.21-0.85,0.38c-0.26,0.14-0.54,0.3-0.83,0.41
		c-0.23,0.17-0.31,0.55-0.12,0.75c0.31,0.33,0.34,0.31,0.63,0.62c0.31,0.33,0.34,0.31,0.66,0.64c0.32,0.34,0.28,0.36,0.6,0.7
		c0.31,0.34,0.37,0.28,0.69,0.62s0.32,0.34,0.61,0.64c0.18,0.19,0.38,0.17,0.53-0.08s0.41-0.44,0.6-0.72
		c0.18-0.28,0.33-0.52,0.52-0.8c0.15-0.25,0.25-0.55,0.43-0.83c0.15-0.25,0.31-0.55,0.46-0.8c0.18-0.28,0.44-0.47,0.62-0.74
		c0.15-0.25,0.33-0.52,0.51-0.8c0.13-0.28,0.23-0.58,0.41-0.86c0.16-0.25,0.31-0.55,0.46-0.8
		C851.77,344.06,852.01,343.84,852.16,343.59"/>
	<path class="st0" d="M632.66,414.23c-6.25,5.35-12.82,10.47-18.71,16.08c-17.97,17.12-31.04,36.64-41.69,57.24
		c-10.38,20.07-18.43,40.67-22.26,62.16c-0.35,1.96-0.52,3.94-0.78,5.92c-19.13-4.49-32.02-22.74-27.88-39.6
		c4.03-16.41,12.02-31.8,19.81-47.26c6.01-11.92,11.5-24.01,16.93-36.11c1.53-3.41,2.42-7.09,0.52-11.45
		c-4.28,3.35-8.27,6.24-11.92,9.38c-18.2,15.66-31.34,33.98-42.35,53.37c-10.29,18.13-18.55,36.84-24.48,56.12
		c-1.61,5.25-1.7,10.79-2.31,16.21c-0.24,2.14,0.03,4.31,0.08,7.37c-9.63-2.49-18.92-4.29-27.55-7.28
		c-8.84-3.07-12.15-10.4-9.4-18.26c13.43-38.36,27-76.68,40.36-115.06c1.83-5.25,2.94-10.67,4.03-16.04
		c0.81-3.99-1.82-6.25-6.76-6.25c-6.49-0.01-12.04,2.44-16.91,5.7c-11.01,7.36-20.68,15.79-27.69,26.03
		c-7.81,11.4-10.67,23.13-3.53,35.61c-10.92-2.97-20.98-6.18-30.29-10.88c-6.68-3.37-8.39-8.49-6.8-14.22
		c1.32-4.76,3.46-9.72,6.76-13.78c13.95-17.22,32.72-29.68,56.65-35.94c15.6-4.08,29.9-2.06,42,7.17c3.4,2.59,7.98,4.12,11.9,6.26
		c8.29,4.53,9.65,9.19,6.49,17.29c-4.48,11.47-8.38,23.08-11.92,34.84c4.05-4.73,7.89-9.59,12.2-14.15
		c9.02-9.55,18.13-19.05,27.51-28.36c5-4.97,11.12-8.91,19.1-9.95c17.83-2.32,32.24,10.34,29.21,25.59
		c-0.35,1.75-0.87,3.49-1.53,6.11c2.45-2.74,4.2-4.91,6.22-6.91c8.35-8.3,16.37-16.88,25.31-24.73c8.69-7.64,19.48-9.08,29.02-6.01
		c18.25,5.86,18.71,19.36,14.6,29.92c-5.85,15.02-12.11,29.98-16.98,45.19c-6.89,21.52-10.46,43.37-8.27,65.44
		c1.17,11.77,3.92,23.19,10.85,33.55c0.91,1.36,1.99,2.64,3.03,3.94c1.52,1.91,0.76,3.81-2.08,4.03c-2.67,0.21-5.65,0.11-8.07-0.66
		c-18.75-6.01-34.3-15.54-46.3-28.79c-3.78-4.17-4.33-9.22-4.73-14.26c-1.28-16.01,2.29-31.7,8.67-46.87
		c6.67-15.85,14.93-31.29,22.18-47c3.45-7.46,6.35-15.1,9.11-22.73c0.84-2.32,0.42-4.92,0.57-7.39
		C633.93,414.59,633.29,414.41,632.66,414.23"/>
	<path class="st0" d="M791.13,491.02c-5.51,6.76-10.33,12.66-15.12,18.57c-0.26,0.32-0.52,0.72-0.55,1.09
		c-0.28,3.43-0.38,6.91,3.5,9.03c3.87,2.12,8.36,2.65,12.65,0.88c4.25-1.75,4.68-5.34,4.09-8.62
		C794.47,505.2,792.79,498.49,791.13,491.02 M837,507.92c4.79-13.58,9.65-26.84,14.11-40.19c2.95-8.83,5.64-17.73,7.82-26.68
		c1.19-4.89,0.78-9.9-3.28-15.06c5.22,0.67,9.63,0.93,13.78,1.87c4.09,0.93,7.91,2.59,11.87,3.87c6.3,2.03,8.93,6.22,8.24,11.44
		c-0.96,7.26-2.64,14.5-4.38,21.7c-3.46,14.34-7.17,28.65-10.76,42.98c-0.24,0.95-0.3,1.93-0.57,3.71c2.73-2.09,4.92-3.52,6.74-5.22
		c4.06-3.77,7.78-7.8,11.95-11.49c3.3-2.93,3.86-6.16,3.84-9.86c-0.04-12.81,2.73-25.28,9.78-37.04
		c10.58-17.63,28.16-27.9,50.64-32.93c7.82-1.75,15.69-2.44,23.62-1.62c11.84,1.23,17.08,7.08,15.83,16.94
		c-0.86,6.81-3.79,12.83-9.87,17.63c-5.9,4.66-12.07,9.11-18.38,13.38c-1.87,1.27-4.59,2.14-6.95,2.25
		c-1.5,0.07-3.45-1.36-4.39-2.56c-0.43-0.54,0.78-2.46,1.81-3.25c7.33-5.64,14.85-11.11,22.18-16.75c1.48-1.14,2.6-2.69,3.51-4.2
		c1.32-2.2,0.42-3.45-2.46-3.65c-1.16-0.08-2.49-0.07-3.54,0.32c-17.39,6.36-32.8,14.91-42.58,28.87
		c-10.48,14.95-11.62,30.71-6.24,46.64c2.49,7.37,9.41,9.64,18.31,6.63c7.95-2.69,14.35-7.25,20.32-12.2
		c7.77-6.44,15.08-13.45,21.73-21.05c3.24-3.7,6.32-7.54,9.22-11.5c1.87-2.56,4.81-9.57,7.99-10.48c5.25-1.51,1.4,11.9,0.18,13.74
		c-9.34,13.96-20.1,27.19-34.65,38.06c-9.82,7.33-20.93,12.17-34.28,12.5c-16,0.4-35.67-4.15-40.44-21.85
		c-0.94,0.87-1.66,1.48-2.31,2.13c-4.15,4.17-8.12,8.52-12.17,12.78c-2.35,2.47-4.22,5.53-7.01,7.55
		c-5.84,4.24-15.73-0.68-21.85-2.83c-7.12-2.5-13.87-6.28-17.66-13.08c-0.19,2.15-0.22,3.42-0.42,4.68
		c-2.08,13.4-14.19,23.65-31.22,26.36c-6.81,1.08-13.63,1.68-20.38,0.21c-9.97-2.17-16.41-7.39-19.6-15.4
		c-0.26-0.65-0.48-1.31-0.75-1.95c-0.07-0.17-0.28-0.3-0.9-0.93c-4.92,5.03-9.79,9.94-14.56,14.9c-1.37,1.42-2.66,1.9-4.92,1.47
		c-9.76-1.86-18.89-4.68-26.4-10.21c-1.23-0.9-2.32-1.93-3.45-2.92c-3.42-2.95-4.9-6.19-2.7-10.42c1.26-2.43,1.77-5.11,2.07-7.8
		c-2.1,4.28-3.95,8.66-6.36,12.83c-3.55,6.15-7.47,12.17-11.29,18.23c-0.56,0.88-1.38,1.66-2.12,2.47
		c-2.94,3.22-6.14,4.9-11.43,3.63c-8.38-2.02-16.65-4.07-23.56-8.54c-2.03-1.31-3.86-2.85-5.65-4.39c-3.48-3.01-4.4-6.14-2.68-10.65
		c6.81-17.91,13.08-35.95,19.23-54.01c1.49-4.38,2.28-9.01,2.44-13.52c0.15-4.15-0.97-8.28-1.59-12.88
		c3.65,0.48,8.2,0.72,12.45,1.73c3.95,0.94,7.59,2.68,11.36,4.09c8.62,3.23,11.26,9.28,9.85,16.55c-1.42,7.33-3.9,14.56-5.77,21.85
		c-3.59,14.02-7.07,28.05-10.58,42.08c-0.14,0.56-0.07,1.16,0.47,1.93c1.75-2.47,3.74-4.86,5.21-7.43
		c12.93-22.71,25.99-45.37,38.47-68.24c3.09-5.67,2-11.87-0.68-17.6c11.81-1.26,28.52,2.35,32.73,13.46
		c2.29,6.04,1.25,12.03-0.47,18.14c-4.94,17.45-9.69,34.93-14.5,52.41c-0.21,0.75-0.22,1.54-0.43,3.2c2.72-2.24,4.86-3.82,6.76-5.58
		c11.88-10.99,21.32-23.36,30.28-35.97c0.62-0.88,0.64-2.25,0.4-3.29c-1.55-6.73-4.14-13.27-3.54-20.37
		c1-11.72,10.78-21.8,20.42-27.47c7.45-4.38,16.08-6.66,24.72-6.4c4.38,0.13,8.74,0.91,12.9,2.3c4.82,1.62,7.12,2.76,9.2,7.39
		c-1.43,0-2.93,0.21-4.29-0.04c-14.42-2.62-25.15,4.99-24.04,17.96c0.7,8.11,2.77,16.16,5.03,24.06
		C829.53,486.16,833.37,496.82,837,507.92"/>
	<path class="st0" d="M894.53,422.94c-9.97,0.28-19.46,0.69-27.53-3.47c-4.9-2.52-5.62-4.15-3.94-8.5
		c2.33-6.05,1.37-11.98,0.11-17.88c-0.29-1.35-0.66-2.7-1.05-4.26c2.24-0.22,4.3-0.71,6.19-0.55c9.12,0.81,17.44,2.99,24.52,7.11
		c3.55,2.06,4.7,4.54,3.79,8.17c-1.34,5.33-1.52,10.77-2.14,16.16C894.37,420.66,894.5,421.61,894.53,422.94"/>
	<path class="st0" d="M592.97,596.54c2.3-2.3,5.56-2.15,7.81,0.09c2.21,2.21,2.35,5.48,0.05,7.78c-2.3,2.3-5.53,2.13-7.75-0.09
		C590.84,602.08,590.67,598.84,592.97,596.54"/>
	<path class="st0" d="M644.34,615.91c-0.26,0.41-0.26,0.41-0.54,0.85c-0.26,0.41-0.29,0.39-0.57,0.83
		c-0.26,0.41-0.19,0.45-0.45,0.86c-0.28,0.44-0.28,0.44-0.54,0.85c-0.28,0.44-0.31,0.42-0.57,0.83c-0.26,0.41-0.32,0.36-0.61,0.8
		c-0.26,0.41-0.22,0.44-0.51,0.88c-0.26,0.4-0.29,0.38-0.55,0.79c-0.28,0.43-0.24,0.46-0.5,0.86c-0.15,0.24-0.41,0.26-0.64,0.11
		c-0.44-0.27-0.42-0.3-0.86-0.58s-0.46-0.25-0.9-0.52c-0.44-0.29-0.5-0.19-0.95-0.47c-0.44-0.28-0.42-0.31-0.9-0.61
		c-0.44-0.28-0.4-0.35-0.84-0.63c-0.2-0.13-0.25-0.35-0.1-0.59c0.26-0.41,0.19-0.45,0.47-0.89c0.26-0.41,0.29-0.38,0.57-0.83
		c0.26-0.41,0.19-0.45,0.47-0.89c0.15-0.24,0.14-0.52-0.1-0.68c-0.37-0.24-0.37-0.24-0.78-0.5c-0.41-0.26-0.41-0.26-0.78-0.49
		c-0.41-0.26-0.75-0.47-1.12-0.71c-0.41-0.26-0.41-0.26-0.82-0.52c-0.37-0.23-0.42-0.17-0.82-0.43c-0.41-0.26-0.41-0.26-0.78-0.49
		c-0.24-0.15-0.46-0.1-0.61,0.13c-0.28,0.44-0.35,0.4-0.6,0.81c-0.28,0.45-0.31,0.43-0.57,0.83c-0.28,0.44-0.25,0.46-0.5,0.87
		c-0.28,0.43-0.35,0.39-0.61,0.8c-0.28,0.44-0.24,0.46-0.52,0.9c-0.13,0.2-0.02,0.56,0.22,0.71c0.41,0.26,0.41,0.26,0.85,0.54
		c0.44,0.28,0.44,0.28,0.88,0.56c0.44,0.28,0.42,0.31,0.82,0.57c0.44,0.28,0.44,0.28,0.89,0.56c0.44,0.28,0.5,0.18,0.94,0.46
		c0.41,0.26,0.34,0.36,0.79,0.64c0.24,0.14,0.36,0.41,0.21,0.65c-0.24,0.37-0.24,0.37-0.48,0.75c-0.21,0.34-0.18,0.36-0.42,0.73
		c-0.24,0.38-0.3,0.33-0.54,0.7s-0.24,0.37-0.48,0.75c-0.24,0.37-0.2,0.39-0.44,0.77c-0.15,0.24-0.46,0.28-0.7,0.13
		c-0.44-0.28-0.44-0.28-0.88-0.56c-0.41-0.26-0.43-0.22-0.87-0.5s-0.44-0.28-0.88-0.56c-0.44-0.28-0.46-0.25-0.87-0.5
		c-0.44-0.28-0.44-0.28-0.88-0.56c-0.44-0.28-0.44-0.28-0.88-0.56c-0.21-0.13-0.46-0.1-0.59,0.1c-0.28,0.44-0.35,0.4-0.63,0.84
		s-0.15,0.53-0.42,0.97c-0.28,0.44-0.45,0.33-0.73,0.77c-0.28,0.44-0.28,0.44-0.56,0.88c-0.28,0.44-0.21,0.48-0.49,0.92
		c-0.15,0.24-0.01,0.47,0.19,0.6c0.44,0.28,0.4,0.35,0.84,0.63s0.46,0.25,0.91,0.52c0.44,0.28,0.44,0.28,0.88,0.56
		c0.44,0.28,0.46,0.25,0.9,0.53s0.59,0.42,1.03,0.7s0.42,0.31,0.86,0.59c0.24,0.15,0.58,0.13,0.73-0.11
		c0.28-0.44,0.21-0.48,0.51-0.95c0.28-0.44,0.35-0.4,0.63-0.84c0.3-0.48,0.2-0.54,0.48-0.98c0.13-0.2,0.45-0.19,0.65-0.06
		c0.44,0.28,0.46,0.25,0.9,0.53s0.42,0.31,0.86,0.59s0.46,0.24,0.94,0.54c0.44,0.28,0.48,0.21,0.92,0.49
		c0.44,0.28,0.38,0.38,0.82,0.66c0.2,0.13,0.25,0.35,0.13,0.55c-0.26,0.41-0.26,0.41-0.5,0.78c-0.26,0.41-0.26,0.41-0.5,0.78
		c-0.26,0.41-0.16,0.47-0.39,0.84c-0.26,0.4-0.22,0.43-0.46,0.8c-0.26,0.41-0.26,0.41-0.5,0.78c-0.26,0.41-0.36,0.35-0.62,0.75
		c-0.24,0.37-0.2,0.39-0.46,0.8c-0.24,0.37-0.27,0.35-0.53,0.76c-0.23,0.37-0.17,0.42-0.42,0.82c-0.24,0.37-0.2,0.39-0.46,0.8
		c-0.13,0.21-0.55,0.27-0.75,0.14c-0.41-0.26-0.39-0.29-0.83-0.57c-0.41-0.26-0.36-0.32-0.77-0.58c-0.41-0.26-0.41-0.26-0.81-0.52
		c-0.44-0.28-0.46-0.24-0.87-0.5s-0.39-0.29-0.79-0.55c-0.41-0.26-0.41-0.26-0.85-0.54c-0.41-0.26-0.49-0.12-0.9-0.38
		c-0.41-0.26-0.34-0.36-0.75-0.62c-0.44-0.28-0.62-0.44-1.03-0.7c-0.41-0.26-0.45-0.19-0.86-0.45s-0.41-0.26-0.85-0.54
		c-0.41-0.26-0.38-0.29-0.79-0.55s-0.45-0.19-0.86-0.45c-0.44-0.28-0.44-0.28-0.85-0.54c-0.41-0.26-0.38-0.29-0.79-0.55
		s-0.39-0.29-0.83-0.57c-0.41-0.26-0.42-0.22-0.84-0.48c-0.41-0.26-0.39-0.29-0.79-0.55c-0.44-0.28-0.48-0.21-0.89-0.47
		c-0.41-0.26-0.36-0.33-0.77-0.59c-0.41-0.26-0.39-0.29-0.83-0.57c-0.41-0.26-0.49-0.12-0.9-0.38c-0.41-0.26-0.32-0.4-0.73-0.65
		c-0.24-0.15-0.35-0.41-0.23-0.62c0.3-0.48,0.27-0.5,0.55-0.94c0.28-0.44,0.31-0.42,0.59-0.86c0.3-0.47,0.4-0.41,0.68-0.85
		c0.28-0.44,0.18-0.5,0.48-0.98c0.13-0.21,0.49-0.31,0.72-0.17c0.44,0.28,0.42,0.31,0.89,0.62c0.21,0.13,0.48,0.07,0.63-0.17
		c0.26-0.41,0.33-0.37,0.56-0.74c0.26-0.41,0.16-0.47,0.42-0.88c0.26-0.41,0.29-0.39,0.55-0.79c0.26-0.41,0.29-0.39,0.53-0.76
		c0.26-0.41,0.19-0.45,0.45-0.85c0.26-0.41,0.36-0.35,0.62-0.75c0.26-0.41,0.23-0.43,0.46-0.8c0.26-0.41,0.26-0.41,0.52-0.82
		c0.26-0.4,0.29-0.38,0.55-0.78c0.24-0.38,0.2-0.39,0.46-0.8s0.23-0.43,0.48-0.84c0.26-0.41,0.26-0.41,0.52-0.81
		c0.24-0.37,0.31-0.33,0.56-0.74c0.26-0.41,0.16-0.47,0.41-0.88c0.26-0.41,0.33-0.36,0.59-0.77c0.23-0.37,0.23-0.37,0.49-0.78
		c0.26-0.41,0.26-0.41,0.52-0.81s0.29-0.38,0.52-0.75c0.26-0.41,0.23-0.43,0.48-0.84c0.15-0.24,0.08-0.58-0.13-0.71
		c-0.47-0.3-0.47-0.3-0.92-0.58c-0.24-0.15-0.3-0.43-0.17-0.63c0.3-0.48,0.33-0.45,0.61-0.9c0.3-0.47,0.33-0.44,0.62-0.88
		c0.3-0.48,0.27-0.5,0.55-0.94c0.28-0.45,0.25-0.47,0.55-0.95c0.15-0.24,0.39-0.23,0.62-0.08c0.41,0.26,0.45,0.19,0.86,0.45
		c0.37,0.24,0.37,0.24,0.78,0.49c0.41,0.27,0.43,0.23,0.84,0.49c0.41,0.26,0.38,0.29,0.79,0.55c0.41,0.25,0.41,0.25,0.82,0.51
		c0.38,0.23,0.38,0.23,0.78,0.49c0.41,0.26,0.38,0.29,0.79,0.55c0.4,0.26,0.45,0.19,0.86,0.45s0.41,0.26,0.82,0.52
		c0.37,0.24,0.39,0.2,0.8,0.46s0.32,0.39,0.73,0.65s0.43,0.22,0.83,0.48s0.43,0.22,0.84,0.48c0.37,0.24,0.39,0.2,0.8,0.46
		s0.75,0.47,1.16,0.73s0.34,0.36,0.75,0.62c0.37,0.24,0.46,0.1,0.86,0.36c0.41,0.26,0.36,0.33,0.77,0.59
		c0.41,0.26,0.39,0.29,0.79,0.55c0.41,0.26,0.45,0.19,0.86,0.45c0.37,0.24,0.37,0.24,0.78,0.5c0.41,0.26,0.39,0.29,0.79,0.55
		c0.41,0.26,0.41,0.26,0.82,0.52C644.4,615.37,644.49,615.67,644.34,615.91"/>
	<path class="st0" d="M666.14,625.27c0.02-0.04,0.02-0.04,0.03-0.07c0.1-0.26,0.47-0.34,0.73-0.24c0.45,0.17,0.49,0.06,0.98,0.24
		s0.43,0.34,0.88,0.51c0.49,0.19,0.51,0.11,1,0.3c0.45,0.17,0.48,0.1,0.96,0.28c0.26,0.1,0.41,0.5,0.31,0.76
		c-0.17,0.44-0.21,0.42-0.4,0.91c-0.18,0.49-0.15,0.5-0.32,0.95c-0.18,0.5-0.18,0.5-0.37,0.99c-0.17,0.45-0.21,0.44-0.39,0.93
		c-0.17,0.45-0.17,0.45-0.36,0.94c-0.18,0.49-0.26,0.46-0.43,0.91c-0.19,0.49-0.07,0.53-0.26,1.02c-0.17,0.45-0.17,0.45-0.36,0.94
		c-0.1,0.26-0.42,0.31-0.68,0.21c-0.34-0.13-0.73-0.1-1.07-0.23s-0.65-0.33-0.98-0.46c-0.34-0.14-0.65-0.34-0.99-0.47
		c-0.34-0.13-0.7-0.18-1.04-0.31c-0.15-0.05-0.29-0.36-0.26-0.56c0-0.34-0.01-0.65-0.06-0.97c-0.09-0.34-0.08-0.68-0.22-0.99
		c-0.14-0.31-0.34-0.56-0.54-0.85c-0.2-0.25-0.39-0.54-0.61-0.75c-0.26-0.23-0.62-0.28-0.9-0.47c-0.28-0.15-0.53-0.42-0.83-0.53
		c-0.34-0.13-0.64-0.24-0.95-0.32c-0.33-0.04-0.69,0.12-0.97,0.19c-0.32,0.05-0.63,0.19-0.9,0.34c-0.29,0.19-0.63,0.31-0.79,0.6
		c-0.15,0.28-0.12,0.64-0.14,0.93c0,0.34-0.03,0.63,0.11,0.95c0.1,0.3,0.29,0.58,0.55,0.81c0.22,0.21,0.51,0.36,0.73,0.58
		c0.23,0.17,0.45,0.39,0.71,0.61c0.23,0.18,0.42,0.46,0.66,0.64c0.22,0.21,0.44,0.43,0.7,0.65c0.24,0.17,0.47,0.35,0.73,0.57
		c0.23,0.18,0.47,0.35,0.69,0.56c0.23,0.17,0.4,0.41,0.62,0.62s0.4,0.41,0.62,0.63c0.18,0.2,0.42,0.37,0.63,0.59
		c0.22,0.21,0.39,0.45,0.61,0.66c0.2,0.25,0.48,0.44,0.68,0.69c0.21,0.25,0.2,0.6,0.36,0.87c0.18,0.33,0.29,0.59,0.45,0.86
		c0.1,0.29,0.24,0.61,0.31,0.89c0.1,0.3,0.11,0.6,0.16,0.92s0.19,0.63,0.19,0.97c-0.03,0.29-0.1,0.61-0.14,0.93
		c-0.04,0.33-0.07,0.62-0.14,0.93c-0.08,0.31-0.19,0.62-0.31,0.92c-0.11,0.3-0.27,0.58-0.42,0.87c-0.1,0.26-0.11,0.64-0.27,0.93
		c-0.15,0.29-0.34,0.56-0.53,0.83c-0.15,0.28-0.4,0.49-0.63,0.75c-0.19,0.27-0.38,0.54-0.59,0.76c-0.22,0.26-0.47,0.46-0.72,0.67
		c-0.25,0.2-0.6,0.33-0.87,0.48c-0.27,0.16-0.56,0.35-0.82,0.46c-0.31,0.14-0.65,0.23-0.94,0.33c-0.34,0.09-0.62,0.15-0.94,0.2
		c-0.33,0.09-0.64,0.1-1,0.13c-0.31,0.01-0.63,0.06-0.97,0.06c-0.29-0.03-0.62-0.06-0.95-0.1s-0.66-0.08-0.97-0.16
		c-0.31-0.08-0.62-0.19-0.97-0.28c-0.26-0.1-0.56-0.21-0.82-0.31c-0.3-0.12-0.62-0.06-0.91-0.22c-0.26-0.1-0.56-0.21-0.87-0.33
		c-0.25-0.14-0.52-0.33-0.76-0.47c-0.32-0.16-0.57-0.43-0.82-0.66c-0.31-0.2-0.66-0.29-0.92-0.52c-0.26-0.23-0.42-0.59-0.66-0.85
		c-0.19-0.29-0.45-0.51-0.63-0.84c-0.2-0.38-0.68-0.34-0.84,0.07c-0.07,0.19-0.07,0.19-0.16,0.41c-0.1,0.26-0.43,0.35-0.7,0.25
		c-0.49-0.18-0.52-0.11-0.97-0.28c-0.49-0.18-0.46-0.26-0.95-0.45c-0.49-0.18-0.49-0.18-0.94-0.36c-0.49-0.19-0.51-0.11-1-0.3
		c-0.27-0.1-0.39-0.45-0.29-0.71c0.17-0.45,0.14-0.47,0.3-0.92c0.17-0.45,0.25-0.42,0.42-0.87s0.13-0.46,0.31-0.92
		c0.17-0.45,0.28-0.41,0.45-0.86s0.02-0.51,0.19-0.96s0.32-0.39,0.49-0.84c0.19-0.48,0.07-0.53,0.25-0.98
		c0.17-0.45,0.25-0.42,0.42-0.87s0.02-0.51,0.19-0.96c0.1-0.26,0.5-0.41,0.76-0.31c0.41,0.16,0.4,0.19,0.81,0.35
		c0.41,0.15,0.39,0.23,0.8,0.39c0.41,0.16,0.44,0.08,0.82,0.22c0.41,0.16,0.41,0.16,0.82,0.32c0.41,0.16,0.39,0.23,0.8,0.39
		c0.19,0.07,0.35,0.22,0.35,0.43c-0.02,0.29,0.04,0.57,0.06,0.88c0.01,0.3,0.03,0.61,0.07,0.93c0.06,0.28,0.1,0.64,0.22,0.9
		c0.14,0.31,0.28,0.62,0.45,0.86c0.21,0.25,0.41,0.5,0.63,0.71c0.22,0.21,0.51,0.37,0.78,0.55c0.23,0.18,0.55,0.25,0.84,0.4
		c0.28,0.15,0.59,0.27,0.85,0.37c0.31,0.08,0.61,0.32,0.89,0.38c0.33,0.04,0.64-0.1,0.94-0.11c0.35,0,0.64,0.03,0.93-0.07
		c0.32-0.05,0.57-0.26,0.78-0.48c0.23-0.17,0.41-0.4,0.54-0.74c0.15-0.28,0.19-0.62,0.22-0.91c0-0.34-0.02-0.61-0.16-0.92
		c-0.12-0.26-0.26-0.57-0.48-0.78c-0.24-0.26-0.51-0.45-0.74-0.66c-0.26-0.23-0.53-0.42-0.75-0.63c-0.26-0.23-0.53-0.42-0.75-0.63
		c-0.26-0.23-0.53-0.41-0.75-0.63c-0.26-0.23-0.4-0.54-0.66-0.76c-0.22-0.21-0.58-0.39-0.8-0.61c-0.26-0.23-0.57-0.43-0.77-0.68
		c-0.26-0.23-0.5-0.49-0.71-0.74c-0.26-0.23-0.43-0.55-0.64-0.8c-0.2-0.25-0.4-0.54-0.59-0.82c-0.19-0.29-0.33-0.6-0.48-0.87
		c-0.14-0.31-0.4-0.54-0.54-0.85c-0.1-0.3-0.1-0.64-0.18-0.97c-0.05-0.32-0.23-0.65-0.24-0.95c-0.05-0.32-0.01-0.65-0.01-0.99
		c0-0.34,0.08-0.66,0.12-0.99s0.04-0.67,0.12-0.99s0.27-0.59,0.38-0.9c0.11-0.3,0.17-0.67,0.32-0.95s0.27-0.58,0.41-0.86
		c0.19-0.27,0.51-0.45,0.74-0.71c0.19-0.27,0.34-0.56,0.61-0.8c0.21-0.22,0.44-0.48,0.69-0.68c0.29-0.19,0.56-0.35,0.84-0.5
		c0.29-0.19,0.6-0.33,0.87-0.48c0.29-0.1,0.63-0.19,0.93-0.29c0.33-0.09,0.63-0.19,0.96-0.28c0.32-0.05,0.64-0.1,0.95-0.11
		c0.34,0,0.64-0.1,0.94-0.11c0.33,0.04,0.61,0.1,0.94,0.14c0.29,0.02,0.63-0.06,0.94,0.01c0.29,0.02,0.58,0.17,0.89,0.25
		c0.32,0.08,0.62,0.06,0.92,0.18s0.6,0.23,0.86,0.33c0.29,0.15,0.57,0.3,0.86,0.46c0.25,0.14,0.53,0.29,0.81,0.48
		c0.27,0.19,0.45,0.39,0.69,0.56c0.22,0.21,0.4,0.41,0.57,0.65c0.17,0.23,0.28,0.5,0.44,0.77
		C665.47,625.79,665.99,625.69,666.14,625.27"/>
	<path class="st0" d="M704.41,633.24c-0.08,0.48-0.12,0.47-0.19,0.95c-0.07,0.48-0.07,0.48-0.14,0.91
		c-0.07,0.48-0.19,0.46-0.27,0.93c-0.07,0.48,0,0.49-0.07,0.96c-0.07,0.48-0.03,0.48-0.11,0.96c-0.08,0.48-0.16,0.46-0.23,0.94
		s-0.03,0.49-0.11,0.96c-0.07,0.44-0.03,0.44-0.11,0.92c-0.07,0.47-0.07,0.47-0.15,0.95c-0.07,0.48-0.11,0.47-0.19,0.95
		c-0.03,0.16-0.21,0.33-0.37,0.3c-0.51-0.08-0.51-0.12-1.02-0.2c-0.48-0.08-0.47-0.12-0.98-0.2c-0.52-0.08-0.52-0.04-1-0.12
		c-0.51-0.07-0.51-0.07-0.99-0.15c-0.52-0.08-0.52-0.08-1.03-0.16c-0.16-0.02-0.21-0.2-0.19-0.35c0.07-0.44-0.05-0.45,0.01-0.85
		c0.07-0.44,0.11-0.43,0.18-0.86c0.07-0.44,0.07-0.44,0.13-0.83c0.07-0.44,0.03-0.44,0.1-0.88c0.03-0.16-0.02-0.41-0.21-0.44
		c-0.36-0.05-0.78,0.04-1.14-0.01c-0.39-0.06-0.74-0.2-1.14-0.22c-0.12-0.02-0.34,0.35-0.37,0.55c-0.05,0.32-0.1,0.63-0.15,0.95
		c-0.05,0.32-0.26,0.61-0.31,0.93s-0.02,0.65-0.06,0.92c-0.05,0.32-0.02,0.65-0.07,0.96c-0.05,0.32-0.14,0.63-0.19,0.95
		s-0.1,0.63-0.15,0.95c-0.05,0.31-0.06,0.64-0.11,0.96c-0.05,0.36-0.15,0.67-0.19,0.98c-0.05,0.32-0.1,0.64-0.15,0.96
		c-0.05,0.32-0.11,0.68-0.16,0.99c-0.05,0.32-0.22,0.61-0.27,0.93c-0.05,0.32-0.02,0.65-0.07,0.96c-0.06,0.36-0.11,0.68-0.16,0.99
		s-0.14,0.62-0.19,0.94s-0.06,0.64-0.11,1c-0.05,0.32-0.02,0.65-0.07,0.96c-0.05,0.32-0.1,0.63-0.15,0.95
		c-0.06,0.36-0.17,0.34-0.22,0.66c-0.03,0.16,0.15,0.31,0.31,0.33c0.4,0.06,0.38,0.18,0.73,0.24c0.36,0.06,0.38-0.06,0.73-0.01
		c0.2,0.03,0.25,0.24,0.22,0.4c-0.08,0.48-0.04,0.48-0.11,0.92c-0.07,0.48-0.11,0.47-0.18,0.91c-0.08,0.48,0.04,0.5-0.03,0.93
		c-0.08,0.47-0.08,0.47-0.14,0.91c-0.07,0.48-0.16,0.46-0.23,0.94c-0.03,0.16-0.17,0.3-0.37,0.27c-0.47-0.08-0.46-0.16-0.94-0.23
		c-0.43-0.07-0.44-0.03-0.92-0.11c-0.48-0.07-0.46-0.16-0.94-0.23s-0.49,0-0.96-0.07c-0.48-0.07-0.47-0.12-0.95-0.19
		c-0.47-0.07-0.49,0.01-0.96-0.07c-0.47-0.08-0.47-0.11-0.95-0.19c-0.47-0.07-0.48,0-0.96-0.07c-0.48-0.07-0.47-0.11-0.95-0.19
		c-0.48-0.07-0.47-0.11-0.95-0.19c-0.48-0.08-0.48-0.04-0.96-0.11c-0.47-0.07-0.47-0.11-0.94-0.19c-0.2-0.03-0.3-0.17-0.27-0.33
		c0.08-0.48-0.01-0.49,0.06-0.93c0.07-0.47,0.24-0.45,0.3-0.89c0.08-0.48,0-0.49,0.07-0.92c0.07-0.48,0.07-0.48,0.14-0.91
		c0.08-0.48,0.08-0.48,0.15-0.91c0.03-0.2,0.16-0.22,0.35-0.19c0.71,0.11,0.74-0.05,1.41,0.06c0.2,0.03,0.29-0.04,0.31-0.19
		c0.08-0.48,0.11-0.47,0.19-0.95c0.07-0.48,0.04-0.48,0.12-1c0.07-0.48,0.15-0.46,0.23-0.94c0.07-0.48,0.07-0.48,0.15-0.95
		c0.07-0.47,0.07-0.47,0.15-0.95c0.07-0.48,0.04-0.48,0.11-0.96c0.07-0.48,0.03-0.48,0.11-1c0.07-0.48,0.16-0.46,0.23-0.94
		s0.11-0.47,0.18-0.95c0.08-0.48-0.08-0.51-0.01-0.98c0.08-0.48,0.24-0.45,0.31-0.93c0.08-0.47,0.08-0.47,0.16-0.99
		c0.08-0.48-0.04-0.5,0.03-0.97c0.08-0.48,0.15-0.46,0.23-0.94c0.08-0.47,0.04-0.48,0.11-0.96c0.07-0.47,0.07-0.47,0.15-0.95
		c0.07-0.48,0.04-0.48,0.11-1c0.08-0.48,0.03-0.48,0.11-0.96c0.03-0.16,0.01-0.32-0.19-0.35c-0.51-0.09-0.51-0.13-1.06-0.21
		c-0.51-0.08-0.52-0.04-1.07-0.13c-0.16-0.02-0.35,0.11-0.37,0.27c-0.07,0.44-0.11,0.43-0.17,0.83c-0.07,0.44-0.07,0.44-0.14,0.87
		c-0.06,0.4,0.02,0.41-0.05,0.84c-0.07,0.44-0.11,0.43-0.17,0.83c-0.03,0.2-0.16,0.26-0.36,0.23c-0.48-0.07-0.48-0.03-1-0.12
		c-0.51-0.08-0.52-0.04-1.04-0.12c-0.51-0.09-0.5-0.16-1.02-0.25c-0.51-0.08-0.53,0-1-0.07c-0.51-0.08-0.51-0.12-1.02-0.2
		c-0.16-0.02-0.26-0.16-0.23-0.36c0.07-0.47,0.03-0.48,0.1-0.92c0.07-0.48,0-0.49,0.07-0.96c0.07-0.48,0.07-0.48,0.15-0.95
		c0.08-0.48,0.08-0.48,0.15-0.95c0.07-0.47,0.16-0.46,0.23-0.94s0.07-0.48,0.15-0.95c0.07-0.47,0.11-0.47,0.19-0.95
		c0.08-0.48,0.08-0.48,0.14-0.91c0.08-0.48,0.12-0.47,0.19-0.94c0.07-0.48,0.07-0.48,0.15-0.95c0.03-0.2,0.14-0.35,0.29-0.32
		c0.48,0.07,0.46,0.19,0.93,0.26c0.43,0.07,0.46-0.05,0.93,0.02c0.47,0.08,0.46,0.16,0.94,0.23c0.47,0.07,0.49-0.01,0.92,0.06
		c0.48,0.08,0.46,0.16,0.93,0.24c0.48,0.08,0.5-0.04,0.97,0.03c0.44,0.07,0.41,0.23,0.89,0.3c0.47,0.07,0.49-0.05,0.97,0.03
		c0.47,0.07,0.48,0.03,0.92,0.1c0.48,0.08,0.46,0.16,0.94,0.23s0.47,0.11,0.95,0.19c0.44,0.07,0.46-0.05,0.93,0.03
		s0.45,0.23,0.92,0.31c0.48,0.07,0.5-0.04,0.93,0.02c0.48,0.07,0.47,0.11,0.95,0.18c0.48,0.08,0.49,0.04,0.96,0.11
		c0.43,0.07,0.43,0.07,0.91,0.15c0.48,0.07,0.48,0.07,0.95,0.15c0.47,0.08,0.47,0.11,0.91,0.18c0.48,0.07,0.48,0.07,0.95,0.15
		c0.48,0.07,0.48,0.07,0.95,0.15c0.48,0.07,0.48,0.04,0.92,0.1c0.48,0.07,0.46,0.15,0.94,0.23c0.48,0.07,0.5-0.05,0.97,0.02
		c0.43,0.07,0.42,0.19,0.89,0.26c0.48,0.08,0.49-0.04,0.96,0.04C704.24,632.8,704.44,633.04,704.41,633.24"/>
	<path class="st0" d="M738.74,631.74c0.06,0.48,0.02,0.48,0.08,0.96c0.06,0.48,0.06,0.48,0.12,0.96c0.06,0.48,0.18,0.46,0.23,0.94
		c0.06,0.48-0.02,0.49,0.04,0.97c0.06,0.52,0.06,0.52,0.12,1s0.02,0.49,0.08,0.97s0.1,0.47,0.16,0.95c0.06,0.48,0.14,0.47,0.2,0.95
		c0.06,0.48-0.02,0.49,0.04,0.97c0.06,0.47,0.02,0.48,0.08,0.99c0.06,0.48,0.18,0.46,0.24,0.94s0.02,0.48,0.08,0.96
		c0.06,0.48-0.02,0.49,0.04,0.97s0.18,0.46,0.24,0.94s-0.02,0.49,0.04,0.97c0.06,0.52,0.14,0.51,0.2,0.99s-0.1,0.5-0.04,0.98
		s0.22,0.46,0.27,0.94c0.06,0.47-0.06,0.49,0,0.97s0.14,0.47,0.2,0.95c0.06,0.52,0.06,0.52,0.12,1s0.1,0.47,0.16,0.95
		c0.06,0.48-0.06,0.49,0,0.97s0.02,0.48,0.07,0.96c0.03,0.28,0.38,0.48,0.62,0.45c0.4-0.05,0.39-0.13,0.83-0.18
		c0.4-0.05,0.4-0.01,0.8-0.06c0.4-0.05,0.4-0.05,0.8-0.1c0.28-0.04,0.47,0.18,0.5,0.42c0.07,0.56,0.03,0.56,0.09,1.08
		c0.07,0.56,0.11,0.55,0.17,1.07c0.06,0.51,0.1,0.51,0.17,1.07c0.07,0.52,0.03,0.52,0.09,1.08c0.03,0.24-0.11,0.42-0.39,0.45
		c-0.48,0.06-0.47,0.14-0.95,0.2c-0.52,0.06-0.51,0.1-0.99,0.16s-0.5-0.06-1.01,0c-0.48,0.06-0.46,0.22-0.94,0.27
		c-0.52,0.07-0.52,0.03-1,0.08c-0.48,0.06-0.49-0.02-1.01,0.04c-0.48,0.06-0.48,0.02-0.96,0.08c-0.51,0.06-0.51,0.06-0.99,0.12
		s-0.46,0.22-0.98,0.28c-0.48,0.06-0.48,0.02-0.96,0.07c-0.52,0.06-0.51,0.1-0.99,0.16s-0.49-0.06-1.01,0
		c-0.48,0.06-0.47,0.14-0.95,0.2c-0.52,0.06-0.52,0.06-1,0.12c-0.28,0.03-0.47-0.22-0.5-0.46c-0.07-0.56-0.15-0.55-0.21-1.07
		s-0.06-0.52-0.13-1.07c-0.06-0.52,0.02-0.53-0.05-1.05c-0.07-0.56-0.19-0.54-0.25-1.06c-0.03-0.28,0.22-0.51,0.5-0.55
		c0.4-0.05,0.41,0.03,0.81-0.02c0.4-0.05,0.38-0.17,0.82-0.22c0.4-0.05,0.4-0.01,0.8-0.06c0.24-0.03,0.41-0.25,0.38-0.53
		c-0.06-0.48-0.06-0.48-0.12-0.96c-0.06-0.48,0.02-0.49-0.04-0.96c-0.06-0.48-0.18-0.46-0.24-0.94s-0.06-0.48-0.12-0.96
		c-0.06-0.48,0.06-0.49,0-0.97s-0.18-0.46-0.24-0.94s-0.06-0.48-0.11-0.96c-0.06-0.48-0.02-0.48-0.07-0.96
		c-0.06-0.48-0.06-0.48-0.12-0.96c-0.06-0.48-0.1-0.47-0.16-0.95c-0.06-0.48-0.06-0.48-0.12-0.96c-0.06-0.48,0.03-0.49-0.04-0.97
		c-0.06-0.48-0.1-0.47-0.16-0.95c-0.06-0.48,0.06-0.49,0-0.97s-0.22-0.46-0.28-0.94c-0.06-0.48,0.02-0.49-0.04-0.96
		c-0.06-0.48,0.02-0.49-0.04-0.97s-0.06-0.48-0.12-0.96c-0.03-0.28-0.37-0.4-0.61-0.37c-0.44,0.06-0.45-0.06-0.85-0.01
		c-0.4,0.05-0.39,0.17-0.82,0.22c-0.4,0.04-0.39,0.08-0.79,0.13c-0.28,0.03-0.44-0.27-0.47-0.51c-0.06-0.52-0.14-0.51-0.2-0.99
		c-0.06-0.52-0.14-0.51-0.2-0.99c-0.06-0.52-0.06-0.52-0.12-0.99c-0.06-0.52,0.1-0.54,0.04-1.02c-0.06-0.52-0.18-0.51-0.24-0.98
		c-0.03-0.28,0.18-0.55,0.45-0.58c0.48-0.05,0.47-0.09,0.95-0.15c0.44-0.06,0.44-0.01,0.92-0.07c0.48-0.07,0.49,0.01,0.96-0.05
		c0.48-0.05,0.48-0.01,0.96-0.07c0.48-0.06,0.47-0.1,0.95-0.16c0.44-0.06,0.43-0.18,0.9-0.24c0.48-0.06,0.48-0.06,0.96-0.12
		s0.48-0.06,0.96-0.12c0.48-0.06,0.49,0.06,0.97,0c0.48-0.05,0.47-0.13,0.91-0.18c0.48-0.06,0.49,0.02,0.97-0.04
		C738.49,631.33,738.71,631.46,738.74,631.74"/>
	<path class="st0" d="M759.46,637.48c0.1,0.31,0.24,0.64,0.45,0.91c0.13,0.29,0.24,0.64,0.45,0.91c0.21,0.27,0.49,0.48,0.76,0.69
		s0.6,0.32,0.93,0.43s0.6,0.32,0.94,0.34c0.35,0.06,0.71,0.12,1.03,0.06c0.33-0.02,0.69-0.08,1.03-0.19s0.66-0.33,0.91-0.45
		c0.32-0.18,0.61-0.35,0.88-0.56c0.26-0.25,0.43-0.51,0.63-0.82c0.21-0.27,0.37-0.58,0.48-0.9c0.12-0.29,0.09-0.66,0.15-1.01
		c0.02-0.34,0.09-0.66,0.06-1.03c-0.02-0.33-0.15-0.63-0.26-0.97c-0.11-0.34-0.2-0.65-0.41-0.92c-0.18-0.32-0.32-0.62-0.52-0.89
		c-0.24-0.22-0.54-0.38-0.82-0.59c-0.27-0.21-0.48-0.48-0.82-0.63c-0.29-0.12-0.66-0.09-0.96-0.12c-0.39-0.05-0.7-0.08-1.02-0.02
		c-0.33,0.02-0.71,0.01-1.02,0.1c-0.35,0.11-0.68,0.25-0.92,0.41c-0.32,0.18-0.56,0.38-0.83,0.59c-0.26,0.25-0.48,0.48-0.64,0.78
		c-0.21,0.27-0.37,0.58-0.44,0.89c-0.11,0.33-0.31,0.64-0.33,0.98c-0.03,0.3,0.12,0.68,0.14,1.01
		C759.3,636.81,759.36,637.13,759.46,637.48 M751.9,639.8c-0.09-0.31-0.2-0.65-0.28-0.92c-0.07-0.36,0-0.67-0.06-0.99
		c-0.02-0.33-0.07-0.65-0.09-0.98c0-0.29-0.07-0.65,0-0.97c-0.02-0.33,0.1-0.62,0.17-0.93c0.02-0.34,0.14-0.63,0.21-0.95
		s0.19-0.61,0.3-0.93c0.12-0.29,0.15-0.59,0.31-0.89c0.12-0.29,0.33-0.56,0.49-0.87c0.13-0.25,0.29-0.55,0.48-0.78
		c0.21-0.27,0.43-0.51,0.6-0.77c0.22-0.23,0.34-0.52,0.6-0.77c0.22-0.24,0.47-0.39,0.74-0.61c0.27-0.21,0.45-0.43,0.73-0.64
		c0.23-0.2,0.55-0.38,0.8-0.54s0.54-0.29,0.87-0.44c0.25-0.16,0.5-0.41,0.76-0.53c0.33-0.14,0.69-0.08,0.98-0.22
		c0.31-0.09,0.57-0.34,0.87-0.44s0.57-0.18,0.93-0.24c0.27-0.08,0.61-0.06,0.89-0.11c0.36-0.07,0.64-0.11,0.96-0.17
		c0.29-0.01,0.65-0.07,0.94-0.08c0.33-0.02,0.63,0.02,0.97,0.03c0.29,0,0.6,0.03,0.9,0.06c0.34,0.02,0.64,0.18,0.95,0.21
		c0.28,0.08,0.67,0,0.95,0.08c0.33,0.11,0.62,0.23,0.91,0.35c0.33,0.11,0.58,0.24,0.84,0.41c0.29,0.12,0.59,0.28,0.88,0.4
		c0.26,0.17,0.5,0.39,0.72,0.57c0.28,0.21,0.56,0.33,0.8,0.55c0.26,0.17,0.47,0.44,0.71,0.66c0.2,0.23,0.37,0.52,0.53,0.76
		c0.21,0.27,0.43,0.46,0.61,0.74c0.17,0.28,0.34,0.57,0.5,0.81c0.13,0.29,0.34,0.57,0.44,0.87c0.12,0.26,0.22,0.56,0.32,0.91
		c0.1,0.31,0.19,0.61,0.28,0.92c0.07,0.36,0.05,0.7,0.1,1.02c0.02,0.33,0.15,0.63,0.13,0.97c0.02,0.33-0.05,0.65-0.07,0.99
		c-0.02,0.34-0.05,0.65-0.08,0.99c-0.07,0.31-0.14,0.63-0.24,1c-0.03,0.3-0.07,0.61-0.13,0.92c-0.07,0.31-0.18,0.65-0.25,0.96
		c-0.11,0.33-0.17,0.68-0.29,0.97c-0.15,0.47-0.15,0.47-0.31,0.89c-0.15,0.47-0.15,0.47-0.34,0.95c-0.16,0.43-0.16,0.43-0.31,0.89
		c-0.15,0.47-0.2,0.44-0.4,0.88c-0.15,0.47-0.14,0.51-0.3,0.93c-0.15,0.47-0.01,0.51-0.21,0.95c-0.15,0.47-0.15,0.47-0.3,0.93
		c-0.15,0.47-0.2,0.44-0.37,0.87c-0.19,0.48-0.24,0.45-0.39,0.92s-0.06,0.48-0.21,0.95c-0.19,0.48-0.24,0.45-0.39,0.92
		s-0.25,0.41-0.41,0.84c-0.19,0.48-0.09,0.53-0.25,0.96c-0.15,0.47-0.1,0.49-0.25,0.96c-0.06,0.1-0.22,0.11-0.38,0.16
		c-0.46,0.14-0.45,0.18-0.95,0.33s-0.48,0.23-0.94,0.37c-0.5,0.15-0.5,0.15-0.99,0.31c-0.46,0.14-0.46,0.14-0.96,0.29
		c-0.5,0.15-0.5,0.15-0.99,0.3c-0.46,0.14-0.48,0.07-1.02,0.23c-0.46,0.14-0.43,0.26-0.89,0.4c-0.35,0.11-0.68-0.29-0.57-0.62
		c0.2-0.44,0.21-0.4,0.36-0.87c0.16-0.43,0.2-0.44,0.33-0.86c0.2-0.44,0.19-0.48,0.35-0.91c0.17-0.43,0.17-0.43,0.28-0.88
		c0.16-0.43,0.2-0.44,0.4-0.88c0.13-0.42,0.02-0.47,0.19-0.9c0.15-0.47,0.25-0.41,0.4-0.88c0.16-0.43,0.06-0.48,0.22-0.91
		c0.15-0.47,0.15-0.47,0.28-0.88c0.2-0.44,0.34-0.4,0.49-0.87c0.08-0.28-0.23-0.6-0.53-0.51c-0.34,0.11-0.66,0.16-0.94,0.21
		c-0.31,0.09-0.66,0.2-0.98,0.22c-0.28,0.04-0.63-0.02-0.96,0s-0.61,0.06-0.95,0.04c-0.33,0.02-0.63-0.02-0.94-0.05
		c-0.35-0.06-0.68-0.17-0.96-0.25c-0.31-0.07-0.66-0.09-0.93-0.18c-0.33-0.11-0.62-0.23-0.92-0.39c-0.29-0.12-0.55-0.29-0.89-0.44
		c-0.26-0.17-0.55-0.29-0.82-0.46c-0.27-0.21-0.47-0.44-0.75-0.65c-0.23-0.22-0.5-0.39-0.71-0.66c-0.24-0.22-0.51-0.43-0.67-0.68
		c-0.21-0.27-0.41-0.5-0.58-0.79c-0.21-0.27-0.42-0.54-0.55-0.84c-0.17-0.28-0.19-0.61-0.32-0.91
		C752.2,640.38,752,640.11,751.9,639.8"/>
	<path class="st0" d="M790.79,625.13c0.16,0.28,0.37,0.58,0.62,0.8c0.19,0.26,0.37,0.58,0.63,0.8s0.57,0.37,0.88,0.52
		s0.66,0.19,1,0.23s0.65,0.19,0.99,0.14c0.36-0.01,0.72-0.03,1.02-0.15c0.32-0.08,0.66-0.22,0.97-0.4c0.32-0.17,0.57-0.45,0.8-0.63
		c0.28-0.24,0.52-0.47,0.74-0.73c0.2-0.3,0.32-0.59,0.45-0.94c0.15-0.31,0.24-0.64,0.28-0.98c0.06-0.31-0.05-0.66-0.06-1.02
		c-0.05-0.34-0.05-0.66-0.15-1.02c-0.08-0.32-0.27-0.58-0.45-0.9s-0.33-0.6-0.59-0.82c-0.24-0.28-0.43-0.54-0.7-0.76
		c-0.28-0.17-0.6-0.26-0.92-0.41c-0.31-0.15-0.57-0.37-0.93-0.44c-0.31-0.06-0.66,0.05-0.97,0.08c-0.39,0.03-0.7,0.06-1,0.18
		c-0.32,0.08-0.69,0.16-0.97,0.31c-0.32,0.17-0.61,0.39-0.82,0.59c-0.28,0.24-0.46,0.49-0.69,0.75c-0.2,0.29-0.37,0.57-0.46,0.9
		c-0.15,0.31-0.24,0.64-0.25,0.96c-0.04,0.35-0.17,0.69-0.12,1.03c0.03,0.3,0.26,0.64,0.35,0.96
		C790.49,624.51,790.61,624.81,790.79,625.13 M783.87,628.96c-0.16-0.28-0.33-0.6-0.47-0.84c-0.14-0.34-0.13-0.66-0.25-0.96
		c-0.09-0.32-0.21-0.62-0.29-0.94c-0.06-0.29-0.2-0.62-0.2-0.94c-0.09-0.32-0.03-0.63-0.02-0.95c-0.05-0.34,0.01-0.65,0.01-0.97
		c0.01-0.32,0.06-0.63,0.1-0.97c0.06-0.31,0.03-0.61,0.12-0.94c0.06-0.31,0.21-0.62,0.3-0.95c0.08-0.27,0.17-0.6,0.31-0.86
		c0.15-0.31,0.32-0.59,0.43-0.88c0.17-0.28,0.23-0.58,0.43-0.88c0.17-0.28,0.38-0.48,0.6-0.74s0.36-0.52,0.58-0.78
		c0.19-0.24,0.46-0.49,0.67-0.69c0.21-0.21,0.47-0.39,0.76-0.61c0.21-0.21,0.41-0.5,0.64-0.67c0.3-0.21,0.65-0.23,0.92-0.42
		c0.28-0.16,0.49-0.45,0.77-0.61s0.52-0.29,0.86-0.43c0.25-0.13,0.59-0.18,0.85-0.28c0.34-0.14,0.6-0.24,0.9-0.36
		c0.28-0.06,0.62-0.2,0.91-0.27c0.32-0.09,0.62-0.12,0.96-0.17c0.28-0.07,0.59-0.1,0.9-0.13c0.34-0.05,0.66,0.04,0.97,0.01
		c0.29,0.02,0.66-0.14,0.95-0.11c0.34,0.04,0.65,0.1,0.96,0.16c0.34,0.04,0.62,0.12,0.91,0.23c0.31,0.06,0.64,0.15,0.94,0.21
		c0.29,0.11,0.57,0.28,0.83,0.42c0.31,0.15,0.62,0.2,0.9,0.37c0.29,0.11,0.55,0.34,0.83,0.51c0.25,0.19,0.47,0.43,0.68,0.64
		c0.26,0.22,0.52,0.36,0.74,0.6c0.23,0.24,0.45,0.48,0.66,0.69c0.19,0.26,0.45,0.48,0.61,0.76c0.17,0.23,0.33,0.51,0.5,0.82
		c0.16,0.28,0.31,0.56,0.47,0.84c0.14,0.34,0.19,0.67,0.31,0.97c0.08,0.32,0.27,0.58,0.33,0.92c0.09,0.32,0.08,0.64,0.13,0.98
		c0.05,0.34,0.08,0.64,0.13,0.98c0,0.32-0.01,0.65-0.03,1.03c0.03,0.31,0.06,0.61,0.06,0.93c-0.01,0.32-0.05,0.67-0.05,0.99
		c-0.04,0.34-0.03,0.7-0.08,1.01c-0.05,0.49-0.05,0.49-0.12,0.94c-0.05,0.49-0.05,0.49-0.14,0.99c-0.07,0.45-0.07,0.45-0.12,0.94
		s-0.11,0.47-0.21,0.94c-0.05,0.49-0.03,0.52-0.11,0.98c-0.05,0.49,0.09,0.5-0.01,0.97c-0.05,0.49-0.05,0.49-0.1,0.97
		c-0.05,0.49-0.11,0.47-0.18,0.92c-0.09,0.51-0.14,0.49-0.19,0.98s0.04,0.48-0.01,0.97c-0.08,0.51-0.14,0.49-0.19,0.98
		s-0.16,0.46-0.23,0.91c-0.08,0.51,0.02,0.54-0.05,0.99c-0.05,0.49,0,0.51-0.05,0.99c-0.03,0.11-0.19,0.15-0.33,0.23
		c-0.42,0.24-0.4,0.27-0.86,0.52c-0.46,0.25-0.42,0.32-0.84,0.55c-0.46,0.25-0.46,0.25-0.91,0.51c-0.42,0.23-0.42,0.23-0.88,0.49
		c-0.45,0.25-0.45,0.25-0.91,0.51c-0.42,0.23-0.46,0.16-0.95,0.44c-0.42,0.24-0.36,0.34-0.79,0.57c-0.32,0.17-0.73-0.15-0.68-0.49
		c0.1-0.47,0.12-0.44,0.17-0.93c0.07-0.45,0.11-0.47,0.14-0.9c0.11-0.47,0.09-0.51,0.16-0.96c0.07-0.45,0.07-0.45,0.09-0.92
		c0.07-0.45,0.11-0.47,0.21-0.95c0.04-0.43-0.07-0.46,0-0.92c0.05-0.49,0.16-0.46,0.21-0.95c0.07-0.45-0.04-0.48,0.03-0.94
		c0.05-0.49,0.05-0.49,0.08-0.92c0.11-0.47,0.25-0.46,0.3-0.95c0.03-0.29-0.35-0.54-0.62-0.39c-0.32,0.17-0.62,0.29-0.88,0.39
		c-0.28,0.16-0.6,0.33-0.92,0.42c-0.27,0.1-0.62,0.12-0.95,0.2c-0.32,0.08-0.58,0.18-0.92,0.24c-0.32,0.09-0.62,0.12-0.93,0.15
		c-0.36,0.01-0.7-0.03-0.99-0.05c-0.32,0-0.66,0.05-0.95,0.02c-0.34-0.04-0.65-0.1-0.98-0.19c-0.31-0.06-0.6-0.17-0.96-0.25
		c-0.29-0.11-0.6-0.17-0.89-0.28c-0.31-0.15-0.55-0.34-0.86-0.49c-0.28-0.17-0.57-0.28-0.83-0.5c-0.28-0.17-0.59-0.32-0.8-0.52
		c-0.26-0.22-0.5-0.41-0.73-0.65c-0.26-0.22-0.52-0.45-0.71-0.71c-0.22-0.24-0.31-0.56-0.5-0.82
		C784.28,629.46,784.02,629.24,783.87,628.96"/>
	<path class="st0" d="M830.22,602.62c-0.21-0.24-0.36-0.54-0.61-0.75c-0.24-0.27-0.48-0.43-0.7-0.67c-0.27-0.24-0.51-0.46-0.72-0.64
		c-0.24-0.21-0.54-0.43-0.79-0.59c-0.27-0.19-0.54-0.38-0.82-0.57c-0.3-0.16-0.64-0.18-0.92-0.26c-0.36-0.17-0.63-0.3-0.91-0.38
		c-0.28-0.07-0.59-0.12-0.96-0.17c-0.28-0.02-0.6-0.01-0.88,0.03c-0.37,0.06-0.63,0.13-0.92,0.23c-0.32,0.06-0.58,0.19-0.88,0.34
		c-0.24,0.16-0.53,0.36-0.75,0.55c-0.24,0.21-0.4,0.46-0.61,0.7c-0.16,0.24-0.35,0.51-0.45,0.82c-0.13,0.28-0.35,0.52-0.42,0.8
		c-0.05,0.31-0.01,0.65-0.06,0.96c0.03,0.34,0.02,0.63,0.05,0.97c0.04,0.29,0.07,0.58,0.19,0.95c0.07,0.26,0.1,0.61,0.2,0.89
		c0.15,0.29,0.33,0.56,0.48,0.86c0.13,0.27,0.24,0.64,0.42,0.91c0.13,0.27,0.36,0.48,0.58,0.78c0.21,0.24,0.24,0.59,0.48,0.86
		c0.21,0.24,0.45,0.46,0.66,0.7c0.24,0.27,0.51,0.46,0.73,0.7c0.24,0.21,0.39,0.57,0.6,0.75c0.24,0.21,0.48,0.43,0.75,0.67
		c0.24,0.22,0.61,0.27,0.85,0.43c0.3,0.22,0.57,0.41,0.85,0.54c0.27,0.19,0.54,0.38,0.85,0.48c0.28,0.13,0.61,0.15,0.92,0.26
		c0.31,0.05,0.62,0.16,0.9,0.17c0.34,0.02,0.68-0.01,0.97-0.05c0.28-0.04,0.6-0.05,0.89-0.14c0.29-0.09,0.59-0.3,0.83-0.46
		c0.29-0.15,0.56-0.28,0.8-0.49c0.21-0.19,0.43-0.48,0.62-0.7c0.19-0.27,0.45-0.45,0.59-0.73c0.13-0.28,0.12-0.59,0.26-0.92
		c0.05-0.31,0.18-0.58,0.15-0.93c0.02-0.28-0.1-0.6-0.14-0.95c-0.06-0.31-0.1-0.6-0.17-0.92s-0.16-0.61-0.31-0.96
		c-0.12-0.26-0.16-0.61-0.28-0.87c-0.18-0.32-0.39-0.56-0.57-0.83s-0.27-0.61-0.45-0.88c-0.16-0.24-0.39-0.51-0.61-0.75
		C830.7,603.1,830.46,602.89,830.22,602.62 M815.86,615.16c-0.21-0.24-0.37-0.53-0.55-0.8c-0.21-0.24-0.42-0.48-0.63-0.72
		c-0.18-0.27-0.34-0.56-0.51-0.83c-0.18-0.27-0.34-0.51-0.52-0.77c-0.16-0.29-0.3-0.59-0.43-0.85c-0.15-0.3-0.39-0.57-0.51-0.83
		c-0.12-0.32-0.22-0.61-0.31-0.9c-0.16-0.29-0.25-0.58-0.37-0.91c-0.06-0.32-0.16-0.61-0.25-0.9c-0.06-0.32-0.13-0.63-0.19-0.95
		c-0.04-0.28-0.04-0.66-0.08-0.95c-0.03-0.34-0.04-0.66-0.05-0.97s-0.08-0.63-0.05-0.91c0.02-0.34,0.1-0.68,0.09-0.99
		c0.05-0.31,0.21-0.61,0.28-0.89c0.05-0.31,0.02-0.66,0.12-0.96c0.1-0.3,0.21-0.61,0.34-0.88c0.11-0.31,0.24-0.58,0.37-0.86
		c0.13-0.28,0.38-0.54,0.51-0.82c0.16-0.25,0.27-0.55,0.45-0.82c0.16-0.25,0.4-0.51,0.59-0.73c0.19-0.27,0.32-0.55,0.53-0.79
		c0.19-0.21,0.54-0.36,0.78-0.57c0.19-0.21,0.4-0.46,0.64-0.67c0.21-0.19,0.43-0.49,0.67-0.7c0.24-0.16,0.59-0.25,0.82-0.4
		c0.27-0.18,0.51-0.34,0.83-0.52c0.24-0.16,0.45-0.4,0.75-0.55c0.27-0.12,0.56-0.27,0.88-0.4c0.27-0.12,0.58-0.19,0.87-0.28
		c0.32-0.06,0.58-0.25,0.87-0.28c0.32-0.12,0.63-0.13,0.95-0.19c0.34-0.04,0.63-0.13,0.92-0.17c0.31-0.01,0.65,0.01,0.97,0.01
		c0.34,0.02,0.65-0.04,0.94-0.02c0.34,0.02,0.62,0.16,0.96,0.17c0.28,0.08,0.65,0.07,0.96,0.12c0.28,0.08,0.58,0.29,0.89,0.34
		c0.31,0.1,0.65,0.13,0.92,0.26c0.31,0.1,0.55,0.27,0.85,0.43c0.28,0.13,0.65,0.13,0.95,0.29c0.25,0.16,0.52,0.35,0.82,0.51
		c0.25,0.16,0.52,0.35,0.79,0.53c0.24,0.22,0.46,0.46,0.7,0.67c0.27,0.19,0.55,0.32,0.79,0.53s0.39,0.51,0.61,0.75
		c0.24,0.22,0.51,0.4,0.73,0.64c0.21,0.24,0.45,0.46,0.67,0.7c0.21,0.24,0.39,0.51,0.61,0.75c0.18,0.27,0.36,0.54,0.58,0.78
		c0.18,0.27,0.39,0.51,0.58,0.78c0.18,0.27,0.27,0.56,0.46,0.83c0.15,0.29,0.44,0.51,0.57,0.78c0.15,0.29,0.3,0.59,0.43,0.85
		c0.15,0.29,0.27,0.62,0.37,0.9c0.15,0.29,0.15,0.66,0.25,0.96c0.1,0.29,0.22,0.61,0.31,0.9c0.07,0.32,0.1,0.61,0.17,0.92
		c0.04,0.34,0.07,0.63,0.14,0.95c0.01,0.32,0.04,0.66,0.05,0.97s0.07,0.63,0.08,0.95c-0.02,0.34-0.07,0.65-0.12,0.96
		c0.01,0.32-0.21,0.61-0.26,0.92c-0.08,0.34-0.07,0.65-0.18,0.96c-0.07,0.28-0.26,0.55-0.37,0.86c-0.1,0.31-0.23,0.58-0.36,0.86
		c-0.13,0.28-0.27,0.55-0.45,0.82c-0.16,0.3-0.27,0.61-0.43,0.85c-0.19,0.27-0.4,0.46-0.59,0.73c-0.21,0.24-0.4,0.51-0.59,0.73
		c-0.21,0.24-0.43,0.48-0.64,0.67c-0.22,0.24-0.52,0.45-0.72,0.63c-0.24,0.21-0.46,0.45-0.67,0.64c-0.27,0.18-0.57,0.39-0.8,0.54
		c-0.27,0.18-0.51,0.4-0.75,0.55c-0.29,0.15-0.64,0.24-0.91,0.37c-0.26,0.12-0.5,0.34-0.82,0.46c-0.29,0.1-0.59,0.3-0.88,0.4
		c-0.29,0.1-0.63,0.07-0.92,0.11c-0.29,0.1-0.6,0.1-0.95,0.19c-0.32,0.06-0.61,0.16-0.92,0.17c-0.29,0.04-0.6,0.1-0.94,0.08
		c-0.31,0.01-0.65-0.13-0.99-0.15c-0.28-0.02-0.63,0.07-0.94,0.03c-0.31-0.05-0.62-0.16-0.92-0.2c-0.31-0.11-0.64-0.18-0.95-0.29
		c-0.28-0.07-0.58-0.18-0.89-0.28c-0.31-0.11-0.58-0.24-0.86-0.37c-0.3-0.16-0.58-0.29-0.85-0.48c-0.28-0.13-0.58-0.29-0.85-0.48
		c-0.24-0.16-0.46-0.4-0.76-0.56c-0.27-0.19-0.52-0.4-0.79-0.59c-0.24-0.22-0.49-0.37-0.73-0.59c-0.24-0.21-0.55-0.38-0.79-0.59
		s-0.42-0.48-0.67-0.7C816.32,615.62,816.07,615.4,815.86,615.16"/>
	<path class="st0" d="M849.18,585.03c-2.63-1.92-2.99-5.16-1.12-7.73c1.85-2.53,5.05-3.17,7.67-1.25c2.63,1.92,2.96,5.14,1.11,7.67
		C854.98,586.28,851.8,586.94,849.18,585.03"/>
	<path class="st0" d="M800.33,570.83c-27.51,23.85-62.67,35.55-98.98,32.96c-14.58-1.04-28.46-4.36-41.34-9.57
		c-1.52,0.68-3.18,1.13-4.98,1.29c-1.28,0.11-2.52,0.17-3.71,0.17c-2.03,0-3.93-0.18-5.72-0.51c16.7,8.61,35.36,14.06,55.26,15.48
		c3.49,0.25,6.96,0.37,10.42,0.37c34.41,0,67.3-12.23,93.57-34.99c12.67-10.98,23.13-23.83,31.11-38.02
		c-3.94,3.75-8.69,6.9-14.1,9.28C815.7,555.85,808.5,563.75,800.33,570.83"/>
	<path class="st0" d="M920.03,533.81c-0.02,0-0.04-0.01-0.07-0.01c-1.12-0.24-2.22-0.5-3.31-0.8l0,0
		c-11.84,37.59-33.83,71.3-64.37,97.77C808.76,668.49,753.16,687,695.7,682.9c-76.25-5.44-140.48-50.14-174.39-112.86
		c-3.47-1.11-7.07-3.12-10.6-5.62c33.59,69.37,102.27,119.48,184.5,125.35c5.42,0.39,10.81,0.58,16.18,0.58
		c53.47,0,104.59-19.01,145.4-54.38c31.69-27.46,54.46-62.48,66.63-101.53C922.27,534.26,921.14,534.05,920.03,533.81"/>
	<path class="st0" d="M505.02,391.97c0.82,0.63,2.05,1.26,3.42,1.92c12.37-34.07,33.25-64.62,61.39-89.02
		c39.55-34.28,89.08-52.7,140.9-52.7c5.21,0,10.44,0.19,15.69,0.56c57.45,4.1,109.86,30.33,147.59,73.86
		c22.74,26.24,38.49,56.88,46.53,89.66c1.98-1.31,4.04-2.55,6.18-3.72c-8.44-33.05-24.51-63.93-47.5-90.45
		c-38.93-44.91-93.01-71.98-152.3-76.21c-100.72-7.18-190.74,54.18-224.35,144.34C503.39,390.78,504.21,391.36,505.02,391.97"/>
	<path class="st0" d="M591.23,402.8c7.72-14.21,17.97-27.07,30.56-37.98c25-21.67,56.31-33.31,89.07-33.31
		c3.29,0,6.6,0.12,9.92,0.35c51.58,3.68,94.49,35.77,114.49,79.85l1.33,0.16c2.2,0.2,4.39,0.45,6.57,0.76
		C822.93,364.4,776.9,328.97,721.26,325c-38.16-2.72-75.08,9.57-103.98,34.62c-13.13,11.38-23.85,24.8-31.94,39.6
		C587.42,400.23,589.39,401.42,591.23,402.8"/>
</g>
<g id="Logos">
</g>
</svg>
