<?xml version="1.0" encoding="utf-8"?>
<!-- Generator: Adobe Illustrator 24.2.1, SVG Export Plug-In . SVG Version: 6.00 Build 0)  -->
<svg version="1.1" id="Layer_1" xmlns="http://www.w3.org/2000/svg" xmlns:xlink="http://www.w3.org/1999/xlink" x="0px" y="0px"
	 viewBox="0 0 1092.3 841.89" style="enable-background:new 0 0 1092.3 841.89;" xml:space="preserve">
<style type="text/css">
	.st0{fill:#FFFFFF;}
	.st1{fill:#E43D30;}
</style>
<path class="st1" d="M317.41,245.02c0.35,0.38,0.73,0.71,1.07,1.09c0.38,0.33,0.6,0.75,0.95,1.14c0.38,0.33,0.73,0.71,1.06,1
	c0.35,0.38,0.77,0.67,1.1,0.95c0.35,0.38,0.61,0.85,1,1.18c0.29,0.34,0.79,0.53,1.18,0.86c0.35,0.38,0.56,0.8,0.91,1.18
	c0.38,0.33,0.76,0.57,1.15,0.99c0.34,0.29,0.72,0.62,1.06,1c0.34,0.29,0.68,0.67,1.06,1c0.15,0.12,0.46,0.15,0.57,0.02
	c0.44-0.5,0.39-0.54,0.82-1.05c0.44-0.51,0.53-0.42,0.96-0.93c0.12-0.14,0.28-0.32,0.42-0.2c0.62,0.54,0.51,0.67,1.08,1.17
	c0.58,0.5,0.54,0.54,1.11,1.04c0.58,0.5,0.73,0.31,1.31,0.81c0.58,0.5,0.54,0.54,1.12,1.04c0.57,0.49,0.57,0.49,1.15,0.99
	c0.15,0.13,0.17,0.39,0.06,0.53c-0.48,0.55-0.43,0.59-0.9,1.14c-0.47,0.55-0.62,0.43-1.09,0.98c-0.47,0.55-0.43,0.59-0.9,1.14
	c-0.47,0.55-0.43,0.59-0.9,1.14c-0.52,0.59-0.56,0.55-1.04,1.1c-0.47,0.55-0.52,0.51-1,1.06c-0.47,0.55-0.33,0.67-0.8,1.23
	c-0.47,0.55-0.62,0.43-1.09,0.97c-0.47,0.55-0.43,0.59-0.94,1.19c-0.47,0.55-0.38,0.63-0.85,1.18c-0.48,0.55-0.57,0.47-1.04,1.02
	c-0.12,0.14-0.33,0.19-0.48,0.07c-0.58-0.5-0.61-0.45-1.19-0.95c-0.58-0.5-0.58-0.5-1.15-0.99c-0.58-0.5-0.5-0.59-1.07-1.09
	c-0.58-0.49-0.5-0.59-1.07-1.08c-0.57-0.5-0.65-0.4-1.23-0.9c-0.14-0.12-0.3-0.42-0.19-0.56c0.39-0.46,0.54-0.33,0.98-0.84
	c0.4-0.46,0.35-0.5,0.74-0.96c0.12-0.14,0.14-0.36,0-0.49c-0.34-0.37-0.84-0.57-1.19-0.95c-0.38-0.33-0.69-0.75-1.07-1.08
	c-0.39-0.42-0.81-0.7-1.2-1.04c-0.35-0.38-0.65-0.8-1-1.18c-0.38-0.33-0.73-0.71-1.07-1.08c-0.39-0.33-0.73-0.71-1.16-1.08
	c-0.34-0.38-0.69-0.75-1.07-1.09c-0.35-0.38-0.77-0.66-1.15-1c-0.39-0.33-0.69-0.75-1.12-1.12c-0.38-0.33-0.77-0.66-1.15-1
	c-0.38-0.33-0.65-0.8-1.03-1.13c-0.35-0.38-0.81-0.61-1.24-0.99c-0.39-0.33-0.69-0.75-1.04-1.13c-0.39-0.33-0.8-0.62-1.19-0.95
	s-0.73-0.71-1.11-1.04c-0.39-0.42-0.74-0.79-1.12-1.12c-0.39-0.33-0.81-0.62-1.15-1c-0.39-0.33-0.69-0.75-1.07-1.08
	c-0.34-0.38-0.74-0.8-1.12-1.13c-0.14-0.12-0.32-0.11-0.44,0.02c-0.59,0.68-0.5,0.77-1.09,1.46c-0.55,0.64-0.65,0.55-1.24,1.24
	c-0.12,0.14-0.38,0.15-0.53,0.03c-0.57-0.5-0.61-0.45-1.19-0.95c-0.58-0.5-0.46-0.63-1.08-1.17c-0.57-0.5-0.69-0.36-1.27-0.86
	c-0.57-0.5-0.42-0.68-0.99-1.18c-0.58-0.5-0.69-0.36-1.32-0.9c-0.1-0.08-0.07-0.31,0.05-0.44c0.11-0.22,0.4-0.37,0.56-0.55
	c0.35-0.41,0.67-0.78,0.99-1.14c0.32-0.37,0.62-0.82,0.94-1.19c0.32-0.37,0.68-0.69,1.03-1.11c0.32-0.37,0.49-0.86,0.81-1.22
	c0.35-0.42,0.62-0.82,0.94-1.19c0.32-0.37,0.82-0.65,1.13-1.02c0.27-0.41,0.53-0.9,0.85-1.27c0.32-0.37,0.68-0.69,1.04-1.1
	c0.32-0.37,0.59-0.77,0.9-1.14c0.59-0.69,1.16-0.76,2.01-0.58c0.49,0.1,0.99,0.3,1.48,0.41c0.5,0.11,0.99,0.21,1.48,0.32
	c0.45,0.15,0.98,0.12,1.48,0.32c0.49,0.11,0.99,0.21,1.44,0.36c0.54,0.15,1,0.3,1.49,0.41c0.46,0.15,0.96,0.44,1.42,0.59
	c0.49,0.11,0.92,0.39,1.46,0.54c0.45,0.15,1.02,0.08,1.47,0.23c0.45,0.15,1,0.3,1.49,0.4c0.45,0.15,0.89,0.53,1.39,0.72
	c0.41,0.11,0.82,0.31,1.24,0.51c0.41,0.11,0.89,0.13,1.35,0.28c0.41,0.11,0.82,0.31,1.28,0.46c0.41,0.11,0.85,0.18,1.26,0.29
	c0.41,0.11,0.81,0.22,1.22,0.33c0.36,0.07,0.73,0.31,1.14,0.42c0.27,0.08,0.68,0.28,1.09,0.38c0.45,0.07,0.88,0.05,1.18-0.1
	c0.51-0.2,0.41-0.77,0.29-1.11c-0.18-0.48-0.57-0.89-0.75-1.37c-0.22-0.43-0.4-0.9-0.62-1.41c-0.22-0.43-0.27-0.95-0.49-1.47
	c-0.22-0.43-0.69-0.75-0.91-1.27c-0.22-0.42-0.27-0.95-0.53-1.42c-0.18-0.48-0.48-0.9-0.7-1.32c-0.26-0.47-0.57-0.9-0.75-1.36
	c-0.26-0.47-0.39-0.9-0.62-1.42c-0.22-0.43-0.48-0.9-0.7-1.32c-0.26-0.47-0.44-0.94-0.66-1.37c-0.27-0.47-0.4-0.99-0.62-1.42
	c-0.26-0.47-0.48-0.89-0.66-1.37c-0.27-0.47-0.61-0.85-0.83-1.36c-0.22-0.43-0.27-0.95-0.45-1.42c-0.27-0.47-0.53-0.94-0.75-1.37
	c-0.17-0.47-0.31-0.99-0.53-1.42c-0.3-0.82-0.31-1.39,0.24-2.03c0.31-0.37,0.73-0.65,1-0.97c0.32-0.37,0.49-0.86,0.8-1.22
	c0.28-0.32,0.69-0.6,1.01-0.97c0.32-0.37,0.59-0.69,0.91-1.05c0.32-0.37,0.77-0.61,1.09-0.98c0.28-0.32,0.45-0.81,0.77-1.18
	c0.32-0.36,0.59-0.68,0.91-1.05c0.32-0.37,0.63-0.73,0.91-1.05c0.32-0.37,0.68-0.69,1-1.06c0.16-0.18,0.4-0.37,0.6-0.6
	c0.12-0.14,0.33-0.28,0.47-0.16c0.58,0.5,0.58,0.5,1.15,1c0.57,0.5,0.45,0.63,1.03,1.13c0.57,0.5,0.73,0.31,1.36,0.85
	c0.58,0.49,0.5,0.59,1.07,1.09c0.57,0.5,0.61,0.45,1.19,0.95c0.14,0.12,0.22,0.51,0.11,0.65c-0.59,0.69-0.74,0.56-1.33,1.25
	c-0.59,0.69-0.55,0.73-1.14,1.41c-0.12,0.14-0.06,0.27,0.08,0.39c0.42,0.28,0.85,0.57,1.27,0.85c0.43,0.37,0.62,0.93,1.04,1.22
	c0.38,0.33,0.93,0.48,1.35,0.77c0.38,0.33,0.73,0.79,1.12,1.13c0.42,0.29,0.81,0.62,1.19,0.95c0.42,0.28,0.84,0.57,1.27,0.85
	c0.39,0.33,0.77,0.66,1.2,1.04c0.38,0.33,0.85,0.57,1.27,0.85c0.39,0.33,0.73,0.71,1.11,1.04c0.39,0.33,0.85,0.57,1.28,0.94
	c0.42,0.29,0.85,0.57,1.23,0.9c0.42,0.28,0.84,0.57,1.27,0.86c0.39,0.33,0.85,0.57,1.27,0.86c0.38,0.33,0.74,0.79,1.12,1.12
	c0.43,0.29,0.73,0.71,1.12,1.04c0.42,0.28,1,0.39,1.38,0.72c0.38,0.33,0.7,0.83,1.08,1.17c0.42,0.29,0.88,0.53,1.27,0.85
	c0.43,0.29,0.89,0.53,1.27,0.86c0.14,0.12,0.27,0.07,0.39-0.06c0.39-0.46,0.49-0.37,0.89-0.83c0.44-0.5,0.44-0.5,0.83-0.96
	c0.12-0.14,0.22-0.06,0.36,0.07c0.57,0.5,0.77,0.26,1.35,0.76s0.5,0.59,1.07,1.09c0.58,0.5,0.61,0.45,1.24,0.99
	c0.57,0.49,0.42,0.67,0.99,1.17c0.58,0.5,0.73,0.31,1.31,0.81c0.14,0.13,0.13,0.44,0.01,0.57c-0.48,0.54-0.52,0.5-1,1.05
	c-0.44,0.51-0.39,0.55-0.86,1.1c-0.47,0.55-0.43,0.59-0.86,1.1c-0.47,0.55-0.52,0.51-1,1.06c-0.44,0.51-0.44,0.51-0.91,1.06
	c-0.48,0.55-0.38,0.63-0.81,1.14c-0.47,0.55-0.47,0.55-0.95,1.1c-0.44,0.51-0.49,0.46-0.96,1.02c-0.47,0.55-0.57,0.47-1.01,0.97
	c-0.47,0.54-0.52,0.5-1,1.05c-0.43,0.5-0.39,0.54-0.86,1.1c-0.47,0.55-0.57,0.47-1,0.97c-0.16,0.18-0.24,0.28-0.38,0.15
	c-0.58-0.5-0.5-0.59-1.07-1.09c-0.58-0.49-0.58-0.49-1.15-0.99c-0.58-0.5-0.58-0.5-1.15-0.99c-0.58-0.5-0.58-0.5-1.15-1
	c-0.57-0.5-0.65-0.41-1.23-0.9c-0.14-0.13-0.31-0.42-0.15-0.61c0.39-0.46,0.54-0.33,0.97-0.84c0.44-0.51,0.53-0.42,0.97-0.93
	c0.12-0.14,0-0.48-0.19-0.56c-0.39-0.33-0.68-0.67-1.06-1c-0.38-0.33-0.88-0.44-1.26-0.77c-0.43-0.28-0.81-0.62-1.18-0.86
	c-0.39-0.34-0.73-0.71-1.06-1c-0.38-0.33-0.77-0.66-1.19-0.95c-0.29-0.24-0.59-0.58-0.97-0.91c-0.38-0.24-0.8-0.53-1.14-0.82
	c-0.43-0.29-0.72-0.62-1.09-0.86c-0.48-0.42-1.09-0.78-1.49-1.29c-0.3-0.34-0.85-0.57-0.95,0.14c-0.12,0.62,0.35,1.34,0.57,1.85
	c0.12,0.35,0.22,0.91,0.49,1.38c0.26,0.47,0.57,0.89,0.74,1.28c0.18,0.47,0.36,0.95,0.53,1.42c0.18,0.48,0.4,0.99,0.58,1.46
	c0.14,0.52,0.44,0.94,0.62,1.42c0.24,0.2,0.38,0.73,0.52,1.24c0.14,0.52,0.32,0.99,0.43,1.25c0.13,0.43,0.39,0.81,0.52,1.25
	c0.17,0.39,0.3,0.81,0.43,1.25c0.18,0.47,0.4,0.99,0.63,1.51c0.14,0.52,0.36,1.03,0.54,1.51c0.22,0.51,0.32,1.08,0.59,1.55
	c0.12,0.35,0.26,0.86,0.35,1.34s0.04,0.92-0.14,1.32c-0.19,0.31-0.33,0.67-0.67,0.78c-0.34,0.11-0.7,0.04-1.01,0.01
	c-0.53-0.06-0.99-0.3-1.53-0.36c-0.53-0.06-1.09,0.1-1.62,0.04c-0.53-0.06-0.99-0.21-1.57-0.31c-0.49-0.11-1-0.39-1.5-0.49
	c-0.49-0.11-1.04-0.26-1.53-0.36c-0.5-0.11-1.1,0.01-1.6-0.1c-0.53-0.06-1.04-0.26-1.58-0.4c-0.49-0.11-0.99-0.21-1.48-0.32
	c-0.49-0.11-1-0.3-1.49-0.41c-0.49-0.11-0.99-0.21-1.48-0.32c-0.49-0.11-1-0.3-1.49-0.41c-0.58-0.1-1.03-0.17-1.52-0.28
	c-0.53-0.06-1.1,0.01-1.59-0.1c-0.49-0.11-1-0.3-1.49-0.41c-0.18,0.01-0.36-0.07-0.58-0.1C317.27,244.5,317.17,244.81,317.41,245.02
	"/>
<path class="st1" d="M351.48,207.67c-0.31-0.4-0.67-0.77-0.98-1.17c-0.3-0.49-0.43-0.95-0.69-1.39c-0.26-0.44-0.52-0.88-0.73-1.35
	c-0.26-0.44-0.43-0.95-0.64-1.43c-0.21-0.47-0.39-0.9-0.61-1.38c-0.16-0.51-0.43-0.95-0.55-1.41c-0.17-0.51-0.29-0.97-0.41-1.52
	c-0.13-0.46-0.16-1-0.24-1.5c-0.08-0.5,0.01-0.97-0.02-1.51c-0.08-0.5-0.07-0.99-0.06-1.47c-0.03-0.54-0.2-1.05-0.19-1.53
	c0.06-0.53,0.02-1.06,0.07-1.5c0.06-0.52,0.33-0.97,0.41-1.44c0.1-0.56,0.11-1.05,0.29-1.5c0.1-0.47,0.15-1,0.24-1.47
	c0.18-0.46,0.32-0.97,0.5-1.43c0.18-0.46,0.36-0.92,0.54-1.38c0.18-0.46,0.45-0.9,0.67-1.31c0.26-0.45,0.7-0.78,0.92-1.19
	c0.27-0.45,0.53-0.8,0.79-1.25c0.31-0.4,0.57-0.76,0.87-1.15c0.3-0.4,0.53-0.89,0.88-1.24c0.31-0.39,0.77-0.59,1.11-0.94
	c0.35-0.35,0.69-0.69,1.07-0.99c0.35-0.35,0.77-0.59,1.2-0.93c0.39-0.29,0.61-0.79,1-1.09c0.42-0.24,0.92-0.39,1.34-0.63
	c0.42-0.25,0.92-0.39,1.34-0.64c0.46-0.2,0.73-0.64,1.19-0.84c0.46-0.2,0.96-0.34,1.42-0.54c0.41-0.16,0.87-0.35,1.37-0.5
	c0.5-0.14,1.03-0.15,1.48-0.26c0.45-0.11,0.95-0.25,1.44-0.31c0.45-0.11,0.95-0.25,1.44-0.31c0.49-0.06,1.01,0.02,1.5-0.04
	c0.53,0,1.01,0.02,1.49,0.05c0.48,0.03,1.02-0.06,1.5-0.04c0.49,0.03,1.02,0.02,1.53,0.1c0.43,0.07,0.98,0.28,1.45,0.4
	c0.47,0.11,0.95,0.14,1.46,0.31c0.47,0.12,0.98,0.28,1.45,0.4c0.46,0.2,0.98,0.28,1.44,0.49c0.46,0.2,0.81,0.66,1.27,0.95
	c0.46,0.2,0.98,0.28,1.43,0.57c0.42,0.24,0.77,0.6,1.18,0.93c0.45,0.29,0.87,0.53,1.27,0.86c0.41,0.33,0.87,0.53,1.27,0.86
	c0.36,0.37,0.72,0.73,1.07,1.09c0.36,0.37,0.61,0.89,0.97,1.26c0.31,0.4,0.72,0.73,1.02,1.13c0.31,0.4,0.57,0.84,0.84,1.28
	c0.31,0.4,0.52,0.88,0.79,1.32c0.26,0.44,0.57,0.84,0.79,1.31c0.21,0.48,0.65,0.86,0.87,1.33c0.21,0.47,0.24,1.01,0.37,1.47
	c0.22,0.48,0.3,0.98,0.46,1.49c0.13,0.46,0.43,0.95,0.51,1.45c0.12,0.46,0.21,0.96,0.29,1.46c0.08,0.5,0.24,1.01,0.28,1.55
	c0.03,0.53,0.02,1.02,0.02,1.51c0.03,0.54-0.15,1-0.12,1.53c-0.06,0.52,0.07,0.98,0.02,1.51c-0.06,0.52-0.15,1-0.24,1.47
	c-0.06,0.52-0.41,0.95-0.51,1.43c-0.09,0.47-0.24,0.98-0.38,1.49c-0.13,0.42-0.15,1-0.33,1.45c-0.18,0.46-0.52,0.81-0.75,1.3
	c-0.22,0.41-0.24,0.98-0.46,1.39c-0.27,0.45-0.65,0.74-0.92,1.19c-0.31,0.4-0.49,0.86-0.79,1.26c-0.26,0.44-0.52,0.8-0.83,1.2
	c-0.35,0.35-0.57,0.84-0.88,1.24c-0.35,0.35-0.77,0.59-1.15,0.89c-0.34,0.35-0.73,0.64-1.07,0.99c-0.38,0.3-0.69,0.69-1.07,0.99
	c-0.43,0.33-0.74,0.73-1.16,0.97c-0.38,0.3-0.8,0.54-1.23,0.79c-0.42,0.24-1,0.29-1.42,0.54c-0.42,0.24-0.77,0.59-1.22,0.79
	c-0.46,0.19-0.99,0.2-1.45,0.39c-0.46,0.2-0.85,0.58-1.3,0.69c-0.5,0.14-0.96,0.34-1.45,0.4c-0.45,0.11-1.02,0.06-1.47,0.17
	c-0.49,0.06-0.95,0.25-1.44,0.31c-0.49,0.06-1.04-0.16-1.53-0.1c-0.53,0.01-0.99,0.2-1.48,0.26c-0.48-0.03-1.01-0.02-1.53-0.1
	c-0.48-0.03-0.98-0.28-1.46-0.4c-0.48-0.03-1.02,0.06-1.53-0.01c-0.47-0.12-0.93-0.41-1.44-0.58c-0.47-0.12-1-0.11-1.46-0.31
	c-0.47-0.12-0.88-0.44-1.34-0.65c-0.46-0.2-0.97-0.37-1.39-0.61c-0.5-0.25-0.97-0.37-1.42-0.66c-0.42-0.24-0.72-0.73-1.17-1.02
	c-0.45-0.29-0.97-0.37-1.38-0.7c-0.41-0.33-0.72-0.73-1.12-1.06c-0.36-0.37-0.66-0.85-1.02-1.22c-0.36-0.37-0.82-0.57-1.22-0.98
	C352.05,208.51,351.79,208.07,351.48,207.67 M379.65,185.93c-0.31-0.4-0.75-0.78-1.11-1.14c-0.36-0.37-0.61-0.89-1.02-1.22
	c-0.39-0.42-0.8-0.74-1.2-1.07c-0.42-0.24-0.86-0.62-1.31-0.91c-0.42-0.24-0.92-0.5-1.38-0.7c-0.51-0.17-1.03-0.24-1.5-0.45
	c-0.52-0.08-0.99-0.2-1.51-0.28c-0.48-0.02-1-0.1-1.48-0.14c-0.53,0.01-1.09-0.12-1.58-0.06c-0.45,0.11-0.99,0.2-1.49,0.35
	c-0.41,0.16-0.84,0.49-1.26,0.74c-0.46,0.2-0.89,0.44-1.31,0.69c-0.38,0.3-0.92,0.39-1.3,0.69c-0.43,0.33-0.73,0.73-1.12,1.02
	c-0.34,0.35-0.61,0.79-0.92,1.19c-0.31,0.39-0.53,0.8-0.83,1.2c-0.26,0.44-0.48,0.85-0.66,1.32c-0.18,0.45-0.32,0.97-0.51,1.43
	c-0.09,0.47-0.41,0.96-0.5,1.43c-0.01,0.49-0.02,1.06-0.03,1.55c0.03,0.53,0.11,1.03,0.23,1.58c0.08,0.5,0.3,0.98,0.42,1.44
	c0.21,0.56,0.15,1.09,0.36,1.56c0.22,0.47,0.43,0.95,0.68,1.47c0.26,0.44,0.48,0.92,0.74,1.35c0.31,0.4,0.84,0.79,1.15,1.19
	c0.31,0.41,0.57,0.84,0.88,1.24c0.43,0.46,0.7,0.9,1.06,1.27c0.41,0.33,0.96,0.45,1.37,0.78c0.44,0.38,0.85,0.71,1.26,0.95
	c0.5,0.25,0.92,0.41,1.39,0.61c0.54,0.3,0.96,0.55,1.47,0.71c0.47,0.12,0.99,0.2,1.51,0.28c0.51,0.16,1.01,0.02,1.49,0.05
	c0.53-0.01,1.05,0.07,1.54,0.01c0.49-0.06,0.98-0.11,1.48-0.26c0.45-0.1,0.88-0.44,1.38-0.59c0.46-0.19,0.85-0.49,1.27-0.73
	c0.38-0.3,0.88-0.44,1.31-0.77c0.39-0.3,0.69-0.69,1.04-1.04c0.39-0.3,0.69-0.69,0.96-1.14c0.35-0.35,0.53-0.81,0.83-1.2
	c0.27-0.45,0.7-0.78,0.92-1.19c0.18-0.46,0.19-1.03,0.29-1.5c0.14-0.51,0.41-0.96,0.42-1.53c0.09-0.47,0.01-0.97-0.02-1.5
	c0.01-0.49-0.16-1-0.24-1.5c-0.12-0.55-0.15-1.09-0.31-1.6c-0.13-0.46-0.16-1-0.41-1.52c-0.22-0.48-0.48-0.92-0.74-1.35
	c-0.22-0.48-0.43-0.95-0.73-1.44C380.35,186.75,379.96,186.33,379.65,185.93"/>
<path class="st1" d="M398.75,172.56c-0.23-0.46-0.5-0.88-0.73-1.34c-0.2-0.54-0.23-1.02-0.4-1.5c-0.17-0.48-0.34-0.96-0.46-1.47
	c-0.17-0.48-0.23-1.02-0.35-1.52c-0.12-0.51-0.2-0.96-0.32-1.47c-0.06-0.54-0.23-1.02-0.27-1.49c-0.06-0.54-0.1-1.02-0.1-1.58
	c-0.03-0.48,0.04-1.01,0.06-1.51c0.02-0.51,0.21-0.95,0.28-1.48c0.02-0.51,0.12-0.98,0.22-1.46c0.08-0.53,0.01-1.07,0.11-1.54
	c0.16-0.5,0.23-1.04,0.36-1.45c0.16-0.5,0.51-0.89,0.69-1.33c0.21-0.53,0.32-1,0.58-1.42c0.18-0.45,0.35-0.95,0.53-1.39
	c0.27-0.41,0.51-0.88,0.77-1.3c0.26-0.42,0.53-0.83,0.8-1.25c0.27-0.41,0.62-0.8,0.91-1.16c0.35-0.39,0.84-0.63,1.13-0.98
	c0.35-0.39,0.67-0.69,1.02-1.07c0.38-0.33,0.7-0.63,1.08-0.96c0.38-0.33,0.7-0.77,1.11-1.04c0.38-0.33,0.87-0.43,1.28-0.7
	c0.41-0.27,0.81-0.54,1.25-0.76c0.41-0.27,0.86-0.43,1.36-0.67c0.43-0.22,0.75-0.65,1.19-0.87c0.46-0.16,0.98-0.2,1.44-0.36
	c0.46-0.16,0.98-0.2,1.44-0.36c0.49-0.1,0.84-0.49,1.33-0.59c0.49-0.1,1.01-0.14,1.5-0.25c0.43-0.07,0.93-0.18,1.44-0.22
	c0.52-0.04,1.04,0.05,1.5,0.03c0.46-0.02,0.98-0.06,1.47-0.02c0.47-0.02,0.98-0.06,1.48-0.02c0.49,0.04,0.98,0.22,1.48,0.26
	c0.52,0.1,0.99,0.22,1.45,0.35c0.46,0.12,1.01,0.14,1.48,0.26c0.47,0.12,0.99,0.22,1.48,0.4c0.41,0.15,0.91,0.47,1.35,0.67
	c0.44,0.21,0.9,0.33,1.37,0.59c0.44,0.21,0.91,0.47,1.35,0.68c0.41,0.29,0.91,0.47,1.32,0.76c0.41,0.29,0.67,0.8,1.06,1.18
	c0.41,0.29,0.9,0.47,1.29,0.84c0.36,0.32,0.64,0.75,0.97,1.15c0.39,0.37,0.75,0.69,1.08,1.09c0.34,0.4,0.75,0.69,1.08,1.09
	c0.28,0.43,0.56,0.86,0.84,1.29c0.28,0.42,0.42,0.99,0.7,1.42c0.22,0.46,0.56,0.86,0.78,1.31c0.22,0.45,0.4,0.94,0.57,1.42
	c0.23,0.46,0.34,0.96,0.51,1.44c0.17,0.48,0.4,0.94,0.51,1.44c0.12,0.51,0.48,0.97,0.6,1.47c0.12,0.51,0.04,1.04,0.07,1.52
	c0.12,0.51,0.1,1.01,0.16,1.55c0.03,0.48,0.23,1.02,0.21,1.52c0.04,0.48,0.02,0.98,0,1.49c-0.02,0.51,0.04,1.04-0.03,1.57
	c-0.08,0.53-0.18,1.01-0.28,1.48c-0.07,0.53-0.34,0.94-0.41,1.48c-0.16,0.5-0.12,0.98-0.28,1.48c-0.16,0.51-0.34,0.95-0.53,1.39
	c-0.16,0.5-0.59,0.86-0.77,1.3c-0.18,0.44-0.43,0.92-0.66,1.39c-0.21,0.39-0.34,0.95-0.61,1.36c-0.26,0.41-0.67,0.69-1,1.13
	c-0.29,0.35-0.42,0.92-0.72,1.27c-0.35,0.39-0.78,0.6-1.13,0.98c-0.38,0.33-0.64,0.74-1.02,1.07c-0.35,0.39-0.67,0.69-1.05,1.01
	c-0.41,0.27-0.73,0.71-1.11,1.04c-0.4,0.27-0.87,0.43-1.3,0.65c-0.4,0.27-0.84,0.48-1.24,0.75c-0.43,0.22-0.81,0.55-1.25,0.76
	c-0.49,0.24-0.87,0.57-1.33,0.73c-0.43,0.21-0.9,0.37-1.36,0.53c-0.46,0.16-1.04,0.09-1.5,0.25c-0.46,0.16-0.87,0.43-1.35,0.53
	c-0.49,0.1-1.01,0-1.5,0.11c-0.49,0.1-0.95,0.4-1.41,0.42c-0.52,0.04-1.01,0.14-1.5,0.1c-0.46,0.02-1.01-0.13-1.48-0.12
	c-0.49-0.04-0.98,0.06-1.47,0.02c-0.49-0.04-0.99-0.36-1.48-0.4c-0.52-0.1-1.01,0.01-1.5-0.04c-0.47-0.12-0.98-0.22-1.48-0.4
	c-0.46-0.12-0.91-0.47-1.34-0.68c-0.47-0.12-1.01-0.14-1.51-0.32c-0.44-0.21-0.83-0.58-1.3-0.85c-0.44-0.21-0.96-0.3-1.37-0.59
	c-0.44-0.21-0.77-0.61-1.19-0.9c-0.42-0.29-0.88-0.56-1.24-0.87c-0.44-0.35-0.88-0.55-1.27-0.93c-0.36-0.32-0.56-0.86-0.94-1.23
	c-0.39-0.37-0.88-0.55-1.22-0.96c-0.34-0.4-0.56-0.85-0.89-1.26c-0.28-0.43-0.48-0.97-0.75-1.39c-0.28-0.43-0.69-0.72-1-1.2
	C399.14,173.5,398.97,173.02,398.75,172.56 M430.64,156.8c-0.22-0.46-0.59-0.91-0.86-1.34c-0.28-0.43-0.43-0.99-0.76-1.39
	c-0.31-0.49-0.64-0.89-0.97-1.29c-0.36-0.32-0.72-0.78-1.11-1.15c-0.36-0.31-0.8-0.66-1.21-0.95c-0.47-0.26-0.96-0.44-1.38-0.74
	c-0.5-0.18-0.93-0.39-1.43-0.57c-0.47-0.12-0.96-0.3-1.42-0.43c-0.52-0.09-1.04-0.33-1.54-0.37c-0.46,0.02-1.01,0-1.53,0.05
	c-0.44,0.08-0.93,0.32-1.39,0.47c-0.49,0.1-0.95,0.26-1.41,0.42c-0.43,0.21-0.98,0.2-1.41,0.42c-0.49,0.24-0.86,0.57-1.3,0.78
	c-0.41,0.27-0.75,0.66-1.14,0.98c-0.38,0.33-0.67,0.69-1.05,1.02c-0.35,0.39-0.65,0.74-0.91,1.16c-0.26,0.41-0.5,0.88-0.77,1.3
	c-0.18,0.45-0.59,0.86-0.77,1.3c-0.1,0.47-0.23,1.03-0.33,1.51c-0.08,0.53-0.1,1.04-0.09,1.6c-0.02,0.5,0.1,1.01,0.13,1.49
	c0.09,0.59-0.07,1.09,0.05,1.6c0.11,0.51,0.23,1.02,0.37,1.58c0.17,0.48,0.29,0.99,0.46,1.47c0.22,0.45,0.67,0.94,0.89,1.39
	c0.22,0.45,0.39,0.94,0.62,1.39c0.34,0.54,0.51,1.02,0.79,1.45c0.33,0.4,0.86,0.64,1.19,1.04c0.36,0.46,0.69,0.86,1.05,1.17
	c0.44,0.35,0.83,0.58,1.24,0.87c0.47,0.4,0.83,0.72,1.3,0.98c0.44,0.21,0.93,0.39,1.43,0.57c0.47,0.26,0.99,0.22,1.45,0.34
	c0.52,0.1,1.01,0.28,1.51,0.32c0.49,0.04,0.99,0.08,1.5,0.03c0.47-0.02,0.95-0.26,1.47-0.3c0.49-0.1,0.93-0.32,1.38-0.47
	c0.43-0.22,0.95-0.26,1.44-0.5c0.44-0.22,0.81-0.54,1.22-0.81c0.43-0.21,0.81-0.54,1.16-0.93c0.41-0.27,0.67-0.69,1.05-1.02
	c0.35-0.38,0.84-0.62,1.13-0.98c0.27-0.41,0.4-0.98,0.58-1.42c0.24-0.47,0.59-0.85,0.71-1.41c0.19-0.45,0.2-0.95,0.28-1.48
	c0.1-0.47,0.04-1.01,0.06-1.51c-0.01-0.56,0.07-1.1,0-1.63c-0.03-0.48,0.04-1.01-0.1-1.57c-0.12-0.51-0.28-0.99-0.46-1.47
	c-0.12-0.51-0.23-1.02-0.43-1.55C431.17,157.74,430.87,157.25,430.64,156.8"/>
<path class="st1" d="M445.14,125.87c0.75-0.23,0.77-0.17,1.47-0.37c0.75-0.22,0.73-0.28,1.44-0.48c0.7-0.2,0.7-0.2,1.45-0.41
	c0.7-0.2,0.71-0.14,1.47-0.36c0.7-0.2,0.7-0.2,1.39-0.4c0.75-0.22,0.75-0.22,1.45-0.43c0.75-0.22,0.79-0.1,1.49-0.3
	c0.7-0.2,0.64-0.38,1.4-0.61c0.7-0.2,0.7-0.2,1.45-0.42c0.7-0.2,0.75-0.02,1.45-0.22c0.75-0.22,0.68-0.46,1.38-0.67
	c0.75-0.22,0.81-0.04,1.51-0.24c0.18-0.05,0.27,0.05,0.32,0.24c0.21,0.73,0.33,0.69,0.54,1.42c0.21,0.73,0.27,0.72,0.48,1.44
	c0.21,0.73,0.04,0.78,0.25,1.52c0.21,0.73,0.21,0.73,0.43,1.46l0.43,1.46c0.05,0.18,0.01,0.26-0.16,0.31
	c-0.64,0.19-0.58,0.37-1.28,0.57c-0.64,0.18-0.66,0.12-1.3,0.31c-0.17,0.05-0.25,0.21-0.2,0.39c0.21,0.73,0.09,0.77,0.31,1.49
	c0.21,0.73,0.39,0.68,0.62,1.47c0.21,0.73-0.02,0.8,0.19,1.53c0.21,0.73,0.33,0.69,0.54,1.42c0.23,0.79,0.29,0.77,0.5,1.51
	c0.22,0.72,0.04,0.77,0.25,1.51c0.21,0.73,0.39,0.68,0.62,1.47c0.21,0.73,0.27,0.72,0.48,1.45c0.21,0.73,0.1,0.76,0.31,1.49
	c0.23,0.79,0.35,0.76,0.56,1.49c0.21,0.73,0.21,0.73,0.42,1.46c0.21,0.73,0.1,0.77,0.33,1.55c0.21,0.73,0.1,0.77,0.31,1.5
	c0.21,0.73,0.45,0.66,0.66,1.39c0.23,0.79,0,0.86,0.21,1.59c0.21,0.73,0.39,0.69,0.6,1.42c0.21,0.73,0.15,0.74,0.38,1.54
	c0.21,0.73,0.21,0.73,0.42,1.46c0.06,0.19,0.23,0.14,0.4,0.08c0.7-0.2,0.75-0.02,1.45-0.22c0.7-0.2,0.68-0.26,1.38-0.47
	c0.69-0.2,0.68-0.26,1.38-0.47c0.69-0.2,0.75-0.02,1.45-0.22c0.69-0.21,0.68-0.26,1.43-0.49c0.7-0.2,0.71-0.14,1.41-0.35
	c0.17-0.05,0.33-0.36,0.28-0.54c-0.21-0.73-0.33-0.69-0.56-1.49c-0.21-0.73-0.21-0.73-0.44-1.52c-0.21-0.73-0.1-0.76-0.33-1.56
	c-0.21-0.73-0.27-0.71-0.5-1.5c-0.06-0.18-0.01-0.46,0.16-0.51c0.7-0.2,0.73-0.08,1.43-0.28c0.7-0.2,0.68-0.26,1.38-0.47
	c0.69-0.2,0.69-0.2,1.39-0.41c0.69-0.2,0.71-0.14,1.41-0.34c0.7-0.2,0.7-0.2,1.39-0.41c0.69-0.2,0.71-0.14,1.41-0.34
	c0.17-0.05,0.19,0.01,0.24,0.19c0.21,0.73,0.45,0.66,0.64,1.33c0.21,0.73,0.16,0.75,0.37,1.48c0.19,0.67,0.08,0.7,0.29,1.44
	c0.19,0.67,0.37,0.62,0.58,1.35c0.2,0.67,0.02,0.72,0.23,1.45c0.19,0.67,0.31,0.64,0.52,1.37c0.19,0.67,0.19,0.67,0.41,1.4
	c0.21,0.73,0.27,0.71,0.47,1.38c0.21,0.73,0.09,0.77,0.29,1.44c0.21,0.73,0.15,0.75,0.35,1.42c0.21,0.73,0.39,0.68,0.58,1.35
	c0.05,0.18-0.11,0.49-0.28,0.54c-0.7,0.2-0.72,0.14-1.41,0.35c-0.7,0.2-0.73,0.08-1.43,0.29c-0.7,0.2-0.64,0.39-1.34,0.59
	c-0.7,0.21-0.68,0.26-1.38,0.47c-0.7,0.2-0.77-0.04-1.46,0.16c-0.7,0.2-0.64,0.39-1.34,0.59c-0.69,0.2-0.73,0.08-1.43,0.28
	c-0.7,0.2-0.7,0.2-1.4,0.4c-0.69,0.2-0.64,0.39-1.34,0.59c-0.69,0.2-0.75,0.02-1.44,0.22c-0.7,0.2-0.65,0.39-1.34,0.59
	c-0.7,0.2-0.75,0.02-1.45,0.22c-0.7,0.2-0.7,0.2-1.4,0.4c-0.69,0.2-0.71,0.14-1.41,0.35c-0.7,0.2-0.68,0.26-1.38,0.47
	c-0.76,0.22-0.76,0.22-1.45,0.42c-0.69,0.2-0.68,0.26-1.38,0.47c-0.7,0.2-0.71,0.14-1.41,0.35c-0.7,0.2-0.7,0.2-1.39,0.41
	c-0.7,0.2-0.71,0.14-1.41,0.34c-0.7,0.2-0.65,0.39-1.34,0.59c-0.7,0.2-0.73,0.08-1.43,0.28c-0.7,0.2-0.68,0.26-1.38,0.47
	c-0.18,0.05-0.4-0.08-0.46-0.26c-0.19-0.67-0.13-0.69-0.35-1.42c-0.21-0.73-0.33-0.69-0.54-1.43c-0.22-0.73-0.15-0.75-0.37-1.48
	c-0.21-0.73-0.16-0.75-0.37-1.48c-0.22-0.73-0.22-0.73-0.43-1.46c-0.05-0.18,0.05-0.28,0.22-0.33c0.64-0.19,0.59-0.37,1.17-0.54
	c0.58-0.17,0.61-0.05,1.2-0.21c0.17-0.05,0.29-0.28,0.24-0.47c-0.21-0.73-0.33-0.7-0.54-1.43c-0.21-0.73-0.04-0.78-0.25-1.51
	c-0.23-0.79-0.23-0.79-0.44-1.52c-0.21-0.73-0.27-0.72-0.48-1.44c-0.21-0.73-0.33-0.7-0.54-1.43c-0.23-0.79-0.17-0.81-0.39-1.54
	c-0.21-0.73-0.15-0.75-0.36-1.48c-0.21-0.73-0.21-0.73-0.43-1.46c-0.23-0.79-0.23-0.79-0.44-1.52c-0.21-0.73-0.16-0.75-0.37-1.48
	c-0.21-0.73-0.27-0.71-0.48-1.44c-0.23-0.79-0.23-0.79-0.44-1.52c-0.21-0.73-0.1-0.77-0.31-1.5c-0.21-0.73-0.33-0.7-0.54-1.43
	c-0.23-0.78-0.17-0.8-0.39-1.53c-0.21-0.74-0.16-0.75-0.37-1.48c-0.21-0.73-0.27-0.71-0.48-1.44c-0.23-0.78-0.29-0.77-0.5-1.5
	c-0.21-0.73-0.33-0.69-0.54-1.42c-0.05-0.18-0.13-0.23-0.3-0.18c-0.58,0.16-0.65-0.08-1.23,0.08c-0.58,0.17-0.51,0.41-1.15,0.6
	c-0.18,0.05-0.24-0.19-0.3-0.37c-0.21-0.73-0.33-0.7-0.54-1.43c-0.23-0.79-0.17-0.81-0.39-1.54c-0.21-0.73-0.33-0.69-0.54-1.42
	c-0.21-0.73-0.16-0.75-0.37-1.48c-0.21-0.73-0.16-0.75-0.37-1.47C444.98,126.18,444.97,125.92,445.14,125.87"/>
<path class="st1" d="M495.37,135.9c-0.05-0.51-0.16-1-0.21-1.51c0-0.57,0.14-1.04,0.14-1.55c0.01-0.51,0.02-1.02,0.09-1.54
	c0-0.51,0.14-1.04,0.21-1.55c0.07-0.51,0.14-0.97,0.21-1.49c0.13-0.52,0.14-1.03,0.27-1.49c0.13-0.52,0.26-0.98,0.45-1.51
	c0.13-0.46,0.39-0.93,0.59-1.4c0.2-0.47,0.53-0.82,0.78-1.29c0.2-0.47,0.46-0.87,0.72-1.28c0.25-0.47,0.38-1,0.65-1.4
	c0.32-0.41,0.58-0.89,0.85-1.23c0.32-0.42,0.78-0.65,1.12-1c0.38-0.42,0.64-0.83,1.04-1.13c0.33-0.35,0.65-0.77,0.98-1.12
	c0.39-0.29,0.78-0.65,1.18-0.95c0.39-0.3,0.79-0.59,1.19-0.89c0.39-0.29,0.85-0.53,1.26-0.77c0.46-0.24,1.01-0.29,1.41-0.53
	c0.46-0.24,0.87-0.41,1.33-0.65c0.47-0.18,0.87-0.34,1.35-0.52c0.47-0.17,0.93-0.48,1.4-0.59c0.47-0.18,0.96-0.1,1.44-0.21
	c0.48-0.11,0.95-0.22,1.43-0.27c0.48-0.11,0.97-0.1,1.51-0.15c0.48-0.05,0.94-0.35,1.42-0.4c0.49,0.01,0.99,0.16,1.48,0.17
	c0.49,0.01,0.99,0.15,1.48,0.17c0.49,0.08,0.96-0.16,1.45-0.08c0.49,0.08,1,0.22,1.49,0.29c0.44,0.08,0.93,0.16,1.43,0.3
	c0.5,0.14,0.96,0.41,1.4,0.56c0.44,0.15,0.94,0.29,1.39,0.49c0.44,0.15,0.94,0.29,1.38,0.49c0.45,0.21,0.85,0.55,1.3,0.76
	c0.45,0.27,0.85,0.55,1.24,0.83c0.39,0.28,0.9,0.48,1.3,0.76c0.39,0.28,0.84,0.55,1.25,0.89c0.33,0.28,0.68,0.76,1.02,1.11
	c0.34,0.35,0.73,0.63,1.08,1.04c0.34,0.35,0.69,0.76,1.03,1.11c0.28,0.42,0.69,0.76,0.97,1.17c0.28,0.42,0.34,0.99,0.57,1.47
	c0.29,0.42,0.69,0.76,0.92,1.24c0.22,0.43,0.34,0.92,0.51,1.41c0.23,0.49,0.46,0.91,0.63,1.4c0.17,0.49,0.46,0.91,0.63,1.4
	c0.11,0.5,0.22,1,0.34,1.5c0.11,0.5,0.05,1.08,0.16,1.57c0.05,0.51,0.22,1,0.28,1.5c0.05,0.51,0.04,1.01,0.03,1.53
	c0.05,0.51-0.02,1.02-0.02,1.53c-0.01,0.51,0.04,1.02-0.03,1.53c-0.07,0.52,0.11,1.07,0.04,1.59c-0.07,0.51-0.32,0.99-0.46,1.45
	c-0.07,0.52-0.26,0.98-0.39,1.51c-0.13,0.46-0.14,1.04-0.33,1.5c-0.14,0.46-0.34,0.93-0.53,1.39c-0.2,0.47-0.33,0.99-0.58,1.46
	c-0.25,0.47-0.52,0.88-0.78,1.29c-0.26,0.47-0.65,0.77-0.91,1.24c-0.32,0.41-0.46,0.87-0.78,1.29c-0.32,0.41-0.65,0.77-0.98,1.12
	c-0.32,0.41-0.85,0.59-1.18,0.95c-0.33,0.35-0.72,0.71-1.11,1.07c-0.33,0.29-0.65,0.77-1.05,1.06c-0.4,0.29-0.87,0.41-1.33,0.71
	c-0.4,0.23-0.72,0.71-1.12,0.94c-0.47,0.24-0.94,0.29-1.41,0.53c-0.47,0.17-0.86,0.47-1.33,0.64c-0.46,0.24-0.87,0.41-1.34,0.59
	c-0.48,0.11-0.93,0.41-1.4,0.59c-0.47,0.12-0.96,0.1-1.44,0.15c-0.47,0.11-0.96,0.16-1.43,0.27c-0.48,0.05-0.95,0.22-1.43,0.27
	c-0.54,0.05-1.01,0.23-1.5,0.22c-0.48,0.05-0.97,0.04-1.46,0.02c-0.49-0.01-1-0.28-1.49-0.3c-0.49-0.01-0.96,0.1-1.46,0.02
	c-0.49-0.08-0.95-0.35-1.44-0.43c-0.49-0.08-1.03,0.04-1.47-0.1c-0.5-0.14-1-0.22-1.44-0.43c-0.44-0.15-0.9-0.48-1.34-0.63
	c-0.45-0.21-0.94-0.28-1.39-0.49c-0.45-0.21-0.8-0.68-1.25-0.89c-0.45-0.27-0.95-0.35-1.39-0.56c-0.4-0.28-0.85-0.55-1.25-0.89
	c-0.39-0.28-0.69-0.76-1.03-1.11c-0.39-0.28-0.9-0.48-1.3-0.82c-0.34-0.35-0.57-0.83-0.92-1.24c-0.34-0.35-0.79-0.62-1.08-1.04
	c-0.34-0.35-0.51-0.84-0.8-1.25c-0.29-0.42-0.63-0.83-0.86-1.25c-0.3-0.48-0.63-0.83-0.87-1.31c-0.22-0.42-0.22-1-0.46-1.48
	c-0.23-0.49-0.63-0.83-0.8-1.32c-0.17-0.49-0.22-1-0.39-1.49c-0.11-0.5-0.11-1.07-0.22-1.57c-0.11-0.5-0.4-0.92-0.51-1.48
	C495.41,136.91,495.42,136.4,495.37,135.9 M530.77,132.28c-0.05-0.5-0.23-1.06-0.35-1.56c-0.11-0.5-0.05-1.08-0.22-1.57
	c-0.12-0.56-0.29-1.06-0.46-1.55c-0.23-0.42-0.41-0.98-0.64-1.46c-0.23-0.43-0.52-0.9-0.81-1.32c-0.35-0.41-0.75-0.75-1.03-1.17
	c-0.4-0.34-0.74-0.69-1.14-1.03c-0.39-0.28-0.79-0.62-1.19-0.9c-0.45-0.27-0.86-0.67-1.31-0.89c-0.44-0.14-0.95-0.35-1.45-0.49
	c-0.43-0.08-0.98-0.03-1.47-0.04c-0.49-0.08-0.98-0.09-1.47-0.1c-0.49,0.05-0.99-0.16-1.47-0.1c-0.54,0.06-1.01,0.23-1.49,0.28
	c-0.47,0.11-0.94,0.35-1.4,0.52c-0.47,0.18-0.87,0.41-1.34,0.59c-0.46,0.24-0.86,0.47-1.26,0.76c-0.39,0.29-0.79,0.65-1.18,0.95
	c-0.33,0.35-0.85,0.6-1.18,0.95c-0.26,0.41-0.58,0.89-0.84,1.3c-0.25,0.47-0.45,0.94-0.64,1.47c-0.19,0.47-0.26,0.98-0.4,1.44
	c-0.12,0.58-0.45,1-0.51,1.52c-0.07,0.52-0.14,1.03-0.2,1.61c-0.01,0.51-0.08,1.03-0.09,1.53c0.05,0.51,0.3,1.12,0.35,1.62
	c0.05,0.51,0.04,1.02,0.09,1.52c0.12,0.62,0.12,1.13,0.23,1.63c0.17,0.49,0.58,0.9,0.75,1.39c0.18,0.55,0.35,1.05,0.57,1.47
	c0.29,0.48,0.57,0.83,0.86,1.25c0.3,0.54,0.53,0.97,0.87,1.38c0.34,0.35,0.74,0.69,1.14,1.03c0.35,0.41,0.85,0.55,1.24,0.83
	c0.45,0.27,0.85,0.61,1.3,0.82c0.45,0.21,0.89,0.42,1.4,0.56c0.44,0.15,0.98,0.09,1.48,0.23c0.49,0.08,0.98,0.03,1.46,0.04
	c0.48-0.05,0.98,0.09,1.52,0.04c0.48-0.05,0.95-0.22,1.42-0.34c0.48-0.05,0.95-0.22,1.42-0.46c0.47-0.11,0.87-0.41,1.34-0.58
	c0.47-0.24,1.01-0.29,1.41-0.53c0.4-0.3,0.71-0.77,1.04-1.12c0.39-0.36,0.85-0.6,1.17-1.07c0.33-0.36,0.53-0.82,0.78-1.29
	c0.26-0.41,0.39-0.94,0.59-1.4c0.19-0.53,0.44-1,0.57-1.53c0.14-0.46,0.39-0.93,0.45-1.51c0.07-0.51,0.08-1.03,0.09-1.54
	c0.07-0.51,0.14-1.03,0.14-1.61C530.94,133.35,530.82,132.79,530.77,132.28"/>
<path class="st1" d="M554.09,131.02c0.05-0.51,0.04-1.02,0.09-1.52c0.12-0.56,0.34-0.99,0.46-1.48c0.11-0.5,0.22-1,0.39-1.49
	c0.11-0.5,0.34-0.98,0.51-1.48c0.17-0.49,0.34-0.92,0.51-1.41c0.23-0.49,0.34-0.99,0.57-1.41c0.23-0.49,0.46-0.91,0.75-1.39
	c0.22-0.42,0.57-0.83,0.85-1.25c0.28-0.42,0.68-0.7,1.02-1.11c0.29-0.41,0.62-0.76,0.96-1.11c0.35-0.41,0.57-0.9,0.91-1.25
	c0.4-0.35,0.74-0.75,1.08-1.04c0.4-0.34,0.9-0.48,1.29-0.76c0.46-0.34,0.8-0.69,1.25-0.9c0.39-0.28,0.79-0.62,1.18-0.9
	c0.45-0.21,0.9-0.48,1.35-0.69c0.45-0.21,0.89-0.42,1.34-0.63c0.45-0.21,0.95-0.36,1.39-0.5c0.5-0.14,1.04-0.09,1.49-0.23
	c0.5-0.14,0.93-0.23,1.43-0.37c0.49-0.08,0.93-0.16,1.42-0.24c0.49-0.08,1-0.29,1.49-0.3c0.5-0.08,0.97,0.1,1.45,0.08
	c0.49-0.01,0.98-0.03,1.46,0.02c0.49-0.02,0.96,0.1,1.51,0.15c0.48,0.04,0.99-0.16,1.47-0.11c0.47,0.11,0.93,0.35,1.41,0.46
	c0.48,0.11,0.94,0.35,1.42,0.46c0.47,0.17,0.97,0.03,1.44,0.21c0.47,0.17,0.93,0.41,1.4,0.59c0.41,0.17,0.88,0.34,1.34,0.58
	c0.46,0.24,0.85,0.6,1.25,0.83c0.4,0.23,0.87,0.47,1.26,0.77c0.4,0.23,0.87,0.47,1.26,0.76c0.39,0.3,0.72,0.71,1.12,1.01
	c0.39,0.36,0.72,0.71,1.05,1.06c0.33,0.35,0.78,0.65,1.11,1c0.33,0.35,0.72,0.71,1.04,1.12c0.27,0.35,0.52,0.88,0.78,1.29
	c0.26,0.41,0.6,0.76,0.85,1.23c0.26,0.41,0.52,0.88,0.78,1.29c0.2,0.47,0.52,0.88,0.72,1.34c0.2,0.47,0.14,1.03,0.27,1.56
	c0.2,0.47,0.52,0.88,0.65,1.4c0.13,0.46,0.14,0.97,0.22,1.49c0.13,0.52,0.26,0.98,0.33,1.5c0.07,0.52,0.27,0.98,0.33,1.5
	c0.01,0.51,0.02,1.02,0.03,1.53c0.01,0.51-0.16,1.07-0.16,1.58c-0.05,0.51,0.02,1.02-0.03,1.53c-0.05,0.51-0.16,1-0.27,1.5
	c-0.05,0.5-0.22,1-0.33,1.5c-0.11,0.5-0.16,1-0.33,1.49c-0.17,0.49-0.1,1.07-0.28,1.57c-0.17,0.49-0.52,0.9-0.74,1.32
	c-0.17,0.49-0.46,0.91-0.69,1.4c-0.23,0.42-0.34,0.98-0.63,1.4c-0.23,0.42-0.51,0.84-0.8,1.26c-0.28,0.42-0.51,0.9-0.86,1.32
	c-0.34,0.41-0.68,0.76-1.02,1.11c-0.34,0.41-0.79,0.62-1.14,1.03c-0.4,0.35-0.63,0.77-1.02,1.11c-0.4,0.34-0.79,0.62-1.18,0.9
	c-0.4,0.34-0.95,0.41-1.35,0.69c-0.39,0.28-0.85,0.55-1.3,0.83c-0.39,0.21-0.79,0.62-1.24,0.83c-0.44,0.21-0.93,0.22-1.44,0.43
	c-0.44,0.15-0.85,0.55-1.28,0.7c-0.5,0.14-0.98,0.09-1.48,0.23c-0.49,0.08-0.94,0.29-1.43,0.37c-0.51,0.14-0.94,0.22-1.43,0.3
	c-0.49,0.01-0.99,0.22-1.49,0.29c-0.49,0.02-0.96-0.1-1.44-0.14c-0.49,0.02-0.97-0.03-1.46-0.02c-0.48-0.05-0.98,0.03-1.46-0.02
	c-0.54-0.06-1.04,0.02-1.51-0.09c-0.48-0.05-0.96-0.16-1.43-0.27c-0.48-0.11-0.93-0.47-1.4-0.58c-0.47-0.11-0.97-0.1-1.43-0.27
	c-0.47-0.18-0.85-0.53-1.33-0.71c-0.47-0.17-1.02-0.17-1.42-0.4c-0.46-0.24-0.93-0.41-1.33-0.71c-0.4-0.23-0.78-0.65-1.19-0.88
	c-0.39-0.3-0.86-0.47-1.26-0.77c-0.4-0.3-0.65-0.83-1.05-1.12c-0.39-0.36-0.85-0.53-1.25-0.83c-0.33-0.35-0.72-0.71-1.04-1.12
	c-0.33-0.35-0.52-0.88-0.78-1.29c-0.33-0.35-0.79-0.65-1.11-1.06c-0.26-0.41-0.39-0.93-0.65-1.4c-0.26-0.41-0.65-0.77-0.85-1.23
	c-0.26-0.41-0.33-0.92-0.53-1.39c-0.19-0.47-0.45-0.94-0.59-1.4c-0.19-0.53-0.45-0.94-0.58-1.46c-0.14-0.46-0.02-1.02-0.15-1.54
	c-0.13-0.52-0.45-0.94-0.52-1.45c-0.07-0.51-0.02-1.02-0.09-1.54c-0.01-0.51,0.11-1.07,0.1-1.58c-0.01-0.51-0.2-0.98-0.21-1.55
	C553.93,132.02,554.04,131.53,554.09,131.02 M589.49,134.56c0.05-0.5-0.01-1.08-0.02-1.59c-0.01-0.51,0.17-1.07,0.1-1.58
	c0-0.57-0.07-1.09-0.14-1.61c-0.14-0.46-0.2-1.04-0.33-1.56c-0.14-0.46-0.33-0.99-0.52-1.46c-0.26-0.47-0.58-0.89-0.78-1.35
	c-0.32-0.41-0.59-0.82-0.91-1.24c-0.33-0.35-0.65-0.77-0.98-1.12c-0.39-0.36-0.71-0.84-1.1-1.13c-0.4-0.23-0.86-0.53-1.32-0.76
	c-0.41-0.17-0.95-0.22-1.42-0.34c-0.47-0.17-0.95-0.28-1.42-0.4c-0.48-0.05-0.94-0.35-1.42-0.4c-0.54-0.05-1.04,0.02-1.52-0.02
	c-0.49,0.01-0.99,0.15-1.48,0.23c-0.49,0.08-0.94,0.22-1.43,0.3c-0.5,0.14-0.94,0.29-1.38,0.5c-0.45,0.21-0.9,0.49-1.35,0.69
	c-0.39,0.28-0.95,0.41-1.35,0.69c-0.34,0.35-0.74,0.75-1.08,1.1c-0.35,0.41-0.63,0.83-0.93,1.31c-0.28,0.42-0.46,0.91-0.68,1.33
	c-0.23,0.55-0.63,0.89-0.81,1.38c-0.17,0.49-0.34,0.99-0.52,1.54c-0.11,0.5-0.28,0.99-0.39,1.49c-0.05,0.5,0.07,1.15,0.02,1.65
	c-0.05,0.5-0.16,1-0.21,1.51c0,0.63-0.11,1.13-0.1,1.65c0.07,0.52,0.39,1,0.46,1.51c0.06,0.58,0.13,1.1,0.27,1.56
	c0.19,0.53,0.39,0.93,0.59,1.4c0.18,0.59,0.33,1.05,0.58,1.52c0.26,0.41,0.59,0.83,0.91,1.24c0.26,0.47,0.72,0.71,1.05,1.06
	c0.39,0.36,0.71,0.77,1.11,1.07c0.4,0.3,0.79,0.59,1.26,0.83c0.4,0.23,0.95,0.29,1.41,0.52c0.47,0.17,0.95,0.22,1.43,0.33
	c0.48,0.05,0.94,0.29,1.48,0.34c0.48,0.05,0.98-0.03,1.47-0.04c0.48,0.05,0.97-0.03,1.48-0.17c0.49-0.01,0.93-0.22,1.42-0.3
	c0.5-0.14,1.04-0.08,1.49-0.23c0.45-0.21,0.85-0.62,1.24-0.9c0.45-0.27,0.96-0.41,1.36-0.82c0.39-0.28,0.68-0.7,1.02-1.11
	c0.34-0.35,0.57-0.83,0.86-1.25c0.29-0.48,0.64-0.89,0.87-1.38c0.22-0.42,0.57-0.83,0.75-1.39c0.17-0.5,0.28-0.99,0.39-1.49
	c0.17-0.49,0.35-0.98,0.46-1.55C589.44,135.65,589.44,135.07,589.49,134.56"/>
<path class="st1" d="M618.26,116.1c0.76,0.23,0.74,0.29,1.44,0.48c0.76,0.22,0.77,0.16,1.47,0.36c0.7,0.19,0.7,0.19,1.45,0.4
	c0.7,0.2,0.68,0.26,1.44,0.47c0.7,0.2,0.7,0.2,1.4,0.4c0.75,0.22,0.75,0.22,1.45,0.42c0.75,0.21,0.72,0.33,1.42,0.53
	c0.7,0.2,0.75,0.02,1.51,0.23c0.7,0.2,0.7,0.2,1.45,0.41c0.7,0.2,0.65,0.38,1.35,0.58c0.76,0.21,0.83-0.03,1.53,0.17
	c0.75,0.21,0.7,0.39,1.4,0.6c0.18,0.05,0.2,0.19,0.15,0.37c-0.21,0.73-0.09,0.77-0.3,1.49c-0.21,0.73-0.15,0.75-0.36,1.48
	c-0.21,0.73-0.38,0.68-0.59,1.41c-0.21,0.73-0.21,0.73-0.42,1.46c-0.21,0.73-0.21,0.73-0.42,1.46c-0.06,0.18-0.13,0.23-0.3,0.18
	c-0.64-0.18-0.69,0-1.39-0.2c-0.64-0.18-0.62-0.24-1.26-0.43c-0.18-0.05-0.33,0.04-0.38,0.22c-0.21,0.73-0.32,0.7-0.53,1.43
	c-0.21,0.73-0.03,0.78-0.26,1.58c-0.21,0.73-0.44,0.66-0.65,1.4c-0.21,0.73-0.09,0.76-0.3,1.49c-0.22,0.79-0.17,0.81-0.38,1.55
	c-0.2,0.73-0.38,0.68-0.59,1.42c-0.21,0.73-0.03,0.78-0.26,1.57c-0.21,0.73-0.15,0.74-0.36,1.47c-0.21,0.74-0.33,0.71-0.53,1.44
	c-0.23,0.79-0.11,0.83-0.32,1.56c-0.21,0.73-0.21,0.73-0.41,1.46c-0.21,0.73-0.33,0.7-0.55,1.49c-0.21,0.73-0.32,0.7-0.53,1.43
	c-0.21,0.73,0.02,0.8-0.18,1.53c-0.22,0.79-0.46,0.72-0.67,1.45c-0.21,0.73-0.03,0.78-0.24,1.51s-0.27,0.71-0.49,1.51
	c-0.21,0.73-0.21,0.73-0.42,1.46c-0.05,0.18,0.12,0.23,0.3,0.28c0.7,0.2,0.65,0.38,1.34,0.58c0.7,0.2,0.71,0.14,1.42,0.34
	c0.7,0.2,0.72,0.14,1.41,0.34c0.7,0.2,0.65,0.38,1.35,0.58c0.69,0.2,0.71,0.14,1.47,0.36c0.7,0.2,0.68,0.26,1.38,0.46
	c0.17,0.04,0.48-0.13,0.53-0.31c0.21-0.73,0.09-0.77,0.32-1.56c0.21-0.73,0.21-0.73,0.43-1.53c0.21-0.73,0.33-0.7,0.55-1.49
	c0.21-0.73,0.15-0.75,0.37-1.54c0.05-0.18,0.24-0.39,0.41-0.34c0.7,0.2,0.66,0.32,1.36,0.52c0.7,0.2,0.71,0.14,1.41,0.34
	c0.7,0.2,0.7,0.2,1.4,0.4c0.69,0.2,0.68,0.26,1.38,0.45c0.7,0.2,0.7,0.2,1.4,0.4c0.7,0.2,0.68,0.26,1.38,0.46
	c0.17,0.05,0.15,0.11,0.1,0.29c-0.21,0.73,0.02,0.8-0.17,1.47c-0.21,0.73-0.27,0.72-0.47,1.44c-0.19,0.67-0.31,0.64-0.52,1.37
	c-0.19,0.67-0.02,0.72-0.22,1.45c-0.19,0.67-0.37,0.62-0.57,1.35c-0.19,0.67-0.07,0.7-0.28,1.43c-0.19,0.67-0.19,0.67-0.4,1.4
	c-0.21,0.73-0.15,0.75-0.34,1.42c-0.21,0.73-0.32,0.7-0.51,1.37c-0.21,0.73-0.26,0.71-0.45,1.38c-0.21,0.73-0.03,0.78-0.22,1.45
	c-0.05,0.18-0.35,0.36-0.53,0.31c-0.7-0.2-0.69-0.26-1.38-0.46c-0.7-0.2-0.67-0.32-1.37-0.52c-0.7-0.2-0.75-0.02-1.45-0.22
	c-0.7-0.2-0.71-0.14-1.41-0.34c-0.7-0.2-0.63-0.44-1.33-0.64c-0.7-0.2-0.75-0.02-1.45-0.22c-0.69-0.2-0.66-0.32-1.36-0.52
	c-0.7-0.2-0.7-0.2-1.4-0.4c-0.7-0.2-0.75-0.01-1.45-0.21c-0.7-0.2-0.65-0.38-1.34-0.58c-0.7-0.2-0.75-0.01-1.45-0.21
	c-0.7-0.2-0.65-0.38-1.34-0.58c-0.7-0.2-0.7-0.2-1.4-0.4c-0.7-0.2-0.68-0.26-1.38-0.46c-0.7-0.2-0.72-0.14-1.41-0.33
	c-0.76-0.22-0.76-0.22-1.46-0.42c-0.7-0.2-0.71-0.14-1.41-0.34c-0.7-0.2-0.68-0.26-1.38-0.46c-0.7-0.2-0.7-0.2-1.4-0.39
	c-0.7-0.2-0.68-0.26-1.38-0.46s-0.75-0.02-1.45-0.22c-0.7-0.2-0.66-0.32-1.36-0.52c-0.7-0.2-0.71-0.14-1.41-0.34
	c-0.18-0.05-0.3-0.28-0.24-0.47c0.19-0.67,0.24-0.65,0.45-1.39c0.21-0.73,0.09-0.76,0.3-1.49c0.21-0.73,0.27-0.72,0.47-1.44
	c0.21-0.73,0.27-0.72,0.48-1.45c0.2-0.73,0.2-0.73,0.41-1.46c0.05-0.18,0.19-0.21,0.36-0.16c0.64,0.18,0.69,0,1.28,0.16
	c0.58,0.16,0.55,0.29,1.13,0.45c0.18,0.05,0.4-0.08,0.45-0.26c0.21-0.73,0.09-0.76,0.3-1.5c0.21-0.73,0.38-0.68,0.59-1.41
	c0.22-0.79,0.22-0.79,0.43-1.52c0.21-0.73,0.15-0.75,0.36-1.48c0.21-0.73,0.09-0.77,0.3-1.5c0.22-0.79,0.28-0.78,0.49-1.51
	c0.2-0.73,0.26-0.72,0.47-1.45c0.21-0.73,0.21-0.73,0.41-1.46c0.23-0.79,0.23-0.79,0.43-1.52c0.21-0.73,0.27-0.71,0.48-1.44
	c0.21-0.73,0.15-0.75,0.36-1.48c0.22-0.8,0.22-0.8,0.43-1.53c0.21-0.73,0.33-0.69,0.53-1.42c0.21-0.73,0.09-0.76,0.3-1.5
	c0.23-0.8,0.28-0.78,0.49-1.51c0.21-0.72,0.27-0.71,0.48-1.44c0.21-0.73,0.15-0.75,0.36-1.48c0.23-0.8,0.17-0.81,0.37-1.55
	s0.09-0.76,0.3-1.49c0.05-0.18,0.01-0.26-0.16-0.31c-0.58-0.16-0.51-0.4-1.09-0.57c-0.58-0.16-0.65,0.08-1.29-0.11
	c-0.17-0.06-0.11-0.3-0.06-0.48c0.21-0.73,0.09-0.77,0.3-1.49c0.22-0.79,0.29-0.78,0.49-1.51c0.21-0.73,0.09-0.76,0.3-1.5
	c0.21-0.73,0.26-0.71,0.47-1.44c0.21-0.73,0.27-0.72,0.47-1.45C617.95,116.28,618.08,116.05,618.26,116.1"/>
<path class="st1" d="M700.07,148.1c-0.31,0.62-0.31,0.62-0.62,1.25c-0.31,0.63-0.31,0.63-0.62,1.25c-0.31,0.63-0.31,0.63-0.62,1.25
	c-0.31,0.63-0.2,0.68-0.51,1.3c-0.34,0.68-0.34,0.68-0.65,1.31c-0.14,0.28-0.61,0.4-0.93,0.24c-0.76-0.38-0.79-0.32-1.6-0.72
	c-0.38-0.19-0.74-0.01-0.83,0.44c-0.12,0.51-0.29,0.99-0.41,1.5c-0.06,0.54-0.18,1.04-0.29,1.55c-0.12,0.51-0.18,1.04-0.3,1.55
	c-0.06,0.53-0.1,1.02-0.21,1.52c-0.09,0.45-0.1,1.02-0.19,1.46c-0.12,0.51-0.24,1.02-0.32,1.47c-0.12,0.51-0.04,1.04-0.16,1.55
	c-0.09,0.45-0.16,0.98-0.24,1.43c-0.06,0.54-0.18,1.04-0.27,1.5c-0.06,0.53-0.34,0.96-0.46,1.47c-0.03,0.47-0.15,0.98-0.27,1.49
	c-0.04,0.48-0.07,0.96-0.13,1.49c-0.12,0.51-0.15,0.99-0.27,1.49c-0.09,0.45-0.34,0.96-0.43,1.42c-0.06,0.53-0.15,0.99-0.27,1.49
	c-0.12,0.51-0.04,1.04-0.13,1.49c-0.12,0.51-0.15,0.99-0.21,1.52c-0.12,0.51-0.15,0.99-0.27,1.5c-0.09,0.45-0.21,0.96-0.33,1.46
	c-0.09,0.59-0.26,1.07-0.1,1.44c0.16,0.36,0.51,0.75,1.1,0.9c0.3,0.08,0.66,0.04,0.98,0.2c0.3,0.22,0.32,0.58,0.15,0.92
	c-0.31,0.62-0.31,0.62-0.62,1.25c-0.31,0.63-0.36,0.6-0.67,1.22c-0.31,0.62-0.26,0.65-0.56,1.28c-0.31,0.63-0.15,0.7-0.49,1.38
	c-0.31,0.63-0.53,0.51-0.84,1.14c-0.14,0.28-0.41,0.43-0.69,0.29c-0.71-0.35-0.71-0.35-1.36-0.67c-0.65-0.32-0.62-0.38-1.27-0.7
	c-0.65-0.32-0.73-0.15-1.39-0.48c-0.65-0.32-0.67-0.26-1.33-0.59c-0.65-0.33-0.57-0.49-1.22-0.82c-0.7-0.35-0.73-0.29-1.38-0.61
	c-0.65-0.33-0.71-0.21-1.36-0.53c-0.65-0.32-0.59-0.44-1.24-0.76c-0.65-0.32-0.65-0.32-1.3-0.64c-0.65-0.32-0.71-0.21-1.41-0.56
	c-0.65-0.33-0.57-0.49-1.22-0.82c-0.65-0.32-0.65-0.32-1.3-0.64c-0.33-0.16-0.54-0.55-0.4-0.83c0.37-0.74,0.53-0.66,0.93-1.46
	c0.37-0.73,0.37-0.73,0.73-1.47c0.37-0.74,0.31-0.77,0.68-1.5c0.37-0.74,0.31-0.77,0.68-1.5c0.17-0.34,0.58-0.49,0.91-0.33
	c0.49,0.25,0.46,0.3,1,0.57c0.49,0.24,0.46,0.3,1,0.57c0.38,0.19,0.93-0.1,1.02-0.55c0.12-0.51,0.13-1.07,0.24-1.58
	c0.09-0.59,0.21-1.1,0.27-1.63c0.06-0.25,0.01-0.56-0.26-0.69c-0.43-0.22-0.89-0.52-1.38-0.76c-0.44-0.21-0.92-0.46-1.41-0.7
	c-0.43-0.21-1-0.28-1.49-0.53c-0.43-0.21-0.84-0.49-1.27-0.7c-0.43-0.22-0.89-0.38-1.32-0.59c-0.44-0.22-0.78-0.6-1.22-0.81
	c-0.43-0.22-0.95-0.26-1.39-0.48c-0.43-0.21-0.87-0.43-1.3-0.65c-0.6-0.3-0.95-0.4-1.37,0.17c-0.3,0.35-0.55,0.72-0.86,1.06
	c-0.3,0.35-0.63,0.6-0.94,0.95c-0.31,0.34-0.18,0.9,0.2,1.09c0.49,0.24,0.46,0.3,1,0.57c0.49,0.24,0.55,0.13,1.03,0.37
	c0.32,0.16,0.35,0.53,0.18,0.87c-0.37,0.74-0.26,0.79-0.65,1.58c-0.37,0.74-0.47,0.69-0.84,1.43c-0.4,0.79-0.23,0.87-0.6,1.61
	c-0.37,0.74-0.37,0.74-0.73,1.48c-0.17,0.34-0.63,0.46-0.96,0.3c-0.6-0.29-0.63-0.24-1.28-0.56c-0.65-0.32-0.57-0.49-1.21-0.82
	c-0.65-0.32-0.65-0.32-1.25-0.62c-0.65-0.33-0.71-0.21-1.35-0.53c-0.65-0.32-0.62-0.38-1.28-0.7c-0.59-0.3-0.65-0.18-1.3-0.51
	c-0.65-0.32-0.54-0.55-1.19-0.87c-0.65-0.32-0.71-0.21-1.3-0.5c-0.65-0.32-0.71-0.21-1.36-0.53c-0.65-0.33-0.59-0.44-1.24-0.76
	c-0.6-0.3-0.68-0.12-1.33-0.45c-0.32-0.16-0.39-0.69-0.23-1.04c0.31-0.63,0.42-0.57,0.73-1.19c0.31-0.62,0.26-0.65,0.57-1.28
	c0.31-0.63,0.31-0.63,0.62-1.25c0.31-0.62,0.2-0.68,0.51-1.3c0.31-0.63,0.47-0.54,0.78-1.17c0.17-0.34,0.47-0.54,0.74-0.41
	c0.41,0.13,0.79,0.32,1.14,0.57c0.76,0.52,1.2,0.31,1.81-0.37c0.39-0.37,0.8-0.66,1.11-1.01c0.39-0.37,0.59-0.91,0.89-1.26
	c0.39-0.37,0.86-0.63,1.22-0.95c0.34-0.4,0.61-0.83,0.95-1.23c0.39-0.37,0.67-0.8,0.97-1.14c0.39-0.37,0.67-0.8,1.06-1.18
	c0.3-0.34,0.7-0.71,1.08-1.09c0.31-0.35,0.77-0.61,1.16-0.98c0.31-0.34,0.56-0.85,0.87-1.2c0.39-0.37,0.72-0.77,1.08-1.09
	c0.34-0.4,0.67-0.8,1.06-1.17c0.3-0.35,0.64-0.74,0.97-1.15c0.39-0.37,0.8-0.66,1.16-0.98c0.34-0.4,0.56-0.85,0.89-1.25
	c0.39-0.37,0.86-0.64,1.16-0.98c0.33-0.4,0.74-0.69,1.08-1.09c0.39-0.38,0.62-0.83,0.95-1.23c0.39-0.38,0.83-0.72,1.22-1.09
	c0.33-0.4,0.67-0.8,1.08-1.23c0.3-0.34,0.15-0.84-0.23-1.03c-0.76-0.38-0.73-0.43-1.54-0.84c-0.27-0.14-0.32-0.44-0.15-0.78
	c0.31-0.63,0.09-0.73,0.41-1.36c0.31-0.63,0.42-0.57,0.73-1.2c0.31-0.62,0.31-0.62,0.62-1.25c0.31-0.63,0.37-0.6,0.7-1.28
	c0.31-0.62,0.2-0.68,0.51-1.3c0.14-0.28,0.58-0.35,0.85-0.22c0.65,0.33,0.71,0.21,1.36,0.54c0.65,0.32,0.59,0.44,1.19,0.73
	c0.65,0.32,0.74,0.15,1.38,0.47c0.6,0.3,0.51,0.47,1.16,0.79c0.65,0.32,0.73,0.15,1.38,0.47c0.59,0.3,0.59,0.3,1.25,0.62
	c0.65,0.33,0.59,0.43,1.19,0.73c0.65,0.33,0.63,0.38,1.27,0.71c0.65,0.32,0.71,0.21,1.3,0.5c0.65,0.32,0.62,0.38,1.27,0.7
	c0.59,0.29,0.65,0.18,1.3,0.51c0.65,0.32,0.54,0.55,1.19,0.87c0.6,0.29,0.6,0.29,1.25,0.62c0.65,0.32,0.76,0.1,1.41,0.42
	c0.6,0.3,0.57,0.36,1.22,0.68c0.65,0.32,0.68,0.26,1.27,0.56c0.65,0.32,0.65,0.32,1.3,0.64c0.65,0.32,0.59,0.43,1.19,0.73
	C700.13,147.42,700.21,147.81,700.07,148.1 M682.9,152.45c-0.7-0.35-0.65-0.32-1.35-0.67c-0.31,0.34-0.69,0.72-1,1.06
	c-0.33,0.4-0.64,0.74-0.98,1.14c-0.36,0.31-0.61,0.83-0.92,1.17c-0.33,0.4-0.69,0.72-1.03,1.12c-0.3,0.34-0.69,0.71-1,1.06
	c-0.33,0.4-0.61,0.83-0.97,1.14c-0.33,0.4-0.64,0.74-1.03,1.12c-0.3,0.35-0.72,0.63-1.05,1.04c-0.31,0.34-0.64,0.74-1,1.06
	c-0.25,0.37-0.15,0.99,0.23,1.17c0.65,0.33,0.68,0.27,1.28,0.57c0.65,0.32,0.68,0.26,1.32,0.59c0.65,0.32,0.62,0.38,1.28,0.7
	c0.65,0.32,0.7,0.21,1.36,0.53c0.65,0.32,0.65,0.32,1.25,0.62c0.38,0.19,0.65,0.04,0.74-0.41c0.09-0.45,0.37-0.88,0.49-1.39
	c0.12-0.51,0.21-0.96,0.33-1.47c0.09-0.45,0.07-0.96,0.18-1.46c0.09-0.45,0.15-0.99,0.24-1.44c0.11-0.51,0.39-0.93,0.51-1.44
	c0.09-0.45,0.2-0.96,0.32-1.47c0.04-0.48,0.02-0.98,0.13-1.49c0.09-0.45,0.15-0.99,0.24-1.44
	C682.59,153.36,682.82,152.91,682.9,152.45"/>
<path class="st1" d="M695.34,197.75c0.42-0.56,0.33-0.63,0.74-1.19c0.42-0.56,0.42-0.56,0.83-1.12c0.42-0.56,0.56-0.45,0.98-1.01
	c0.42-0.56,0.32-0.63,0.74-1.19c0.46-0.61,0.46-0.61,0.87-1.17c0.19-0.26,0.66-0.38,0.95-0.16c0.73,0.54,0.73,0.54,1.5,1.12
	c0.29,0.22,0.6,0.21,0.83-0.09c0.45-0.61,0.5-0.57,0.96-1.18c0.46-0.61,0.5-0.57,0.96-1.18c0.46-0.61,0.31-0.71,0.77-1.32
	c0.46-0.61,0.55-0.54,0.97-1.1c0.46-0.6,0.5-0.57,0.96-1.18c0.45-0.61,0.41-0.64,0.86-1.25c0.45-0.61,0.5-0.58,0.96-1.18
	c0.45-0.61,0.45-0.61,0.91-1.22c0.45-0.61,0.41-0.65,0.86-1.26c0.46-0.61,0.41-0.65,0.83-1.2c0.46-0.61,0.55-0.54,1.01-1.15
	c0.45-0.61,0.31-0.72,0.76-1.33c0.45-0.61,0.55-0.53,1.01-1.14c0.46-0.61,0.5-0.57,0.96-1.18c0.46-0.6,0.31-0.71,0.77-1.32
	c0.45-0.61,0.6-0.5,1.06-1.11c0.42-0.56,0.42-0.56,0.87-1.17c0.46-0.61,0.46-0.61,0.91-1.22c0.46-0.61,0.31-0.72,0.76-1.33
	c0.23-0.3,0.2-0.57-0.09-0.78c-0.77-0.58-0.77-0.58-1.5-1.12c-0.29-0.22-0.26-0.67-0.02-0.97c0.42-0.56,0.51-0.49,0.93-1.04
	c0.42-0.56,0.37-0.59,0.82-1.2c0.42-0.56,0.37-0.6,0.79-1.15c0.42-0.55,0.37-0.59,0.79-1.15c0.45-0.61,0.5-0.57,0.92-1.13
	c0.19-0.26,0.56-0.46,0.81-0.28c0.04,0.04,0.18,0.06,0.23,0.09c0.39,0.29,0.62,0.78,1.01,1.07c0.39,0.29,0.89,0.43,1.28,0.72
	c0.39,0.29,0.77,0.58,1.16,0.87c0.39,0.29,0.7,0.68,1.09,0.97c0.39,0.29,0.89,0.43,1.28,0.72c0.39,0.29,0.78,0.58,1.21,0.9
	c0.39,0.29,0.7,0.68,1.08,0.97c0.39,0.29,0.74,0.63,1.13,0.92c0.39,0.29,0.85,0.48,1.24,0.77c0.39,0.29,0.78,0.58,1.16,0.87
	c0.39,0.29,0.81,0.53,1.2,0.82c0.39,0.29,0.7,0.68,1.08,0.97c0.39,0.29,0.78,0.58,1.16,0.87c0.39,0.29,0.77,0.58,1.16,0.87
	c0.39,0.29,0.82,0.62,1.21,0.91c0.39,0.29,0.66,0.73,1.05,1.02c0.39,0.29,0.85,0.48,1.2,0.82c0.35,0.34,0.7,0.68,1.05,1.02
	c0.31,0.39,0.62,0.78,0.93,1.17c0.31,0.39,0.42,0.95,0.65,1.36c0.28,0.44,0.46,0.9,0.65,1.36c0.19,0.46,0.42,0.86,0.51,1.33
	c0.15,0.51,0.42,0.95,0.49,1.47c0.1,0.47,0.08,1.01,0.04,1.46c0.02,0.49,0.03,0.97-0.04,1.47c-0.07,0.5-0.33,0.94-0.45,1.4
	c-0.12,0.47-0.15,1-0.35,1.48c-0.16,0.43-0.61,0.81-0.87,1.17c-0.26,0.44-0.46,0.92-0.81,1.29c-0.27,0.36-0.52,0.8-0.87,1.17
	c-0.4,0.33-0.86,0.55-1.22,0.83c-0.45,0.3-0.71,0.74-1.16,0.95c-0.41,0.24-0.87,0.45-1.33,0.67c-0.47,0.12-0.95,0.16-1.42,0.28
	c-0.47,0.12-0.93,0.33-1.41,0.37c-0.48,0.04-0.97-0.01-1.5-0.02c-0.44-0.02-0.94-0.06-1.38-0.17c-0.18-0.06-0.32-0.08-0.45-0.1
	c-0.59-0.12-1.05,0.49-0.72,0.96c0.2,0.23,0.44,0.41,0.6,0.61c0.22,0.41,0.25,0.98,0.48,1.38c0.23,0.4,0.62,0.78,0.81,1.24
	c0.14,0.42,0.15,0.91,0.26,1.38c0.15,0.51,0.2,0.94,0.27,1.46c0.05,0.44,0.11,0.96,0.13,1.44c-0.07,0.5-0.06,0.99-0.13,1.49
	c-0.12,0.46-0.29,0.89-0.45,1.41c-0.2,0.48-0.47,0.84-0.77,1.33c-0.25,0.45-0.61,0.81-0.86,1.26c-0.3,0.41-0.61,0.81-0.96,1.18
	c-0.34,0.46-0.69,0.83-1.01,1.14c-0.44,0.39-0.65,0.86-1.05,1.2c-0.45,0.29-0.97,0.39-1.46,0.64c-0.41,0.24-0.87,0.46-1.33,0.67
	c-0.46,0.21-0.92,0.42-1.44,0.51c-0.47,0.12-0.99,0.21-1.46,0.24c-0.52,0.09-0.99,0.21-1.52,0.21c-0.49-0.05-1.01,0.03-1.5-0.02
	c-0.49-0.05-0.95-0.24-1.45-0.38c-0.45-0.1-0.92-0.29-1.33-0.44c-0.41-0.15-0.79-0.35-1.25-0.54c-0.42-0.15-0.91-0.2-1.29-0.41
	c-0.37-0.2-0.69-0.59-1.11-0.83c-0.38-0.2-0.79-0.35-1.22-0.59c-0.34-0.26-0.76-0.5-1.1-0.75c-0.37-0.2-0.8-0.44-1.14-0.69
	c-0.38-0.29-0.73-0.63-1.12-0.92c-0.34-0.25-0.69-0.59-1.08-0.88c-0.39-0.29-0.76-0.49-1.15-0.78c-0.39-0.29-0.77-0.58-1.16-0.87
	c-0.34-0.25-0.76-0.49-1.15-0.78c-0.39-0.29-0.81-0.44-1.19-0.73c-0.39-0.29-0.74-0.63-1.08-0.88c-0.39-0.29-0.66-0.73-1.05-1.02
	c-0.34-0.25-0.73-0.54-1.12-0.84c-0.39-0.29-0.8-0.44-1.19-0.73c-0.39-0.29-0.78-0.58-1.12-0.83c-0.39-0.29-0.73-0.63-1.12-0.92
	c-0.34-0.25-0.69-0.59-1.08-0.88c-0.39-0.29-0.88-0.34-1.26-0.63c-0.39-0.29-0.7-0.69-1.04-0.94l-0.01-0.08
	C695.16,198.4,695.12,198.06,695.34,197.75 M718.52,191.43c-0.42,0.56-0.32,0.63-0.74,1.19c-0.42,0.56-0.42,0.56-0.83,1.12
	c-0.46,0.61-0.6,0.5-1.02,1.06c-0.42,0.56-0.32,0.63-0.74,1.19c-0.42,0.56-0.42,0.56-0.87,1.17c-0.42,0.56-0.32,0.63-0.74,1.19
	c-0.42,0.56-0.47,0.52-0.88,1.08c-0.23,0.3-0.19,0.65,0.06,0.83c0.34,0.25,0.65,0.65,0.99,0.9c0.34,0.25,0.69,0.6,1.03,0.85
	c0.34,0.25,0.75,0.4,1.14,0.69c0.34,0.25,0.64,0.56,1.03,0.85c0.34,0.25,0.68,0.51,1.06,0.71c0.47,0.27,0.93,0.37,1.34,0.53
	c0.54,0.08,1.04,0.22,1.52,0.19c0.43-0.08,0.99-0.21,1.45-0.42c0.42-0.16,0.82-0.49,1.22-0.82c0.4-0.33,0.71-0.74,1.01-1.15
	c0.34-0.45,0.74-0.79,1-1.23c0.21-0.48,0.23-1.02,0.35-1.48c0.11-0.55,0.23-1.02,0.17-1.54c-0.06-0.52-0.16-0.99-0.35-1.45
	c-0.22-0.41-0.66-0.73-1.06-1.11c-0.3-0.3-0.49-0.76-0.84-1.1c-0.34-0.26-0.69-0.6-1.02-0.85c-0.39-0.29-0.78-0.58-1.08-0.88
	c-0.39-0.29-0.84-0.39-1.22-0.68c-0.34-0.25-0.69-0.6-1.03-0.85C719.15,191.19,718.75,191.12,718.52,191.43 M723.83,184.32
	c-0.23,0.31-0.1,0.64,0.16,0.91c0.39,0.28,0.81,0.52,1.2,0.82c0.39,0.29,0.71,0.77,1.1,1.06c0.39,0.29,0.85,0.48,1.24,0.77
	c0.29,0.22,0.67,0.42,1.04,0.53c0.46,0.19,0.96,0.24,1.44,0.29c0.49,0.05,0.93,0.06,1.45-0.02c0.47-0.12,0.98-0.3,1.39-0.54
	c0.41-0.24,0.91-0.51,1.21-0.91c0.39-0.42,0.73-0.88,0.94-1.36c0.24-0.53,0.31-1.11,0.38-1.61c0.11-0.55,0.22-1.1,0.11-1.66
	c-0.15-0.51-0.39-1-0.75-1.42c-0.31-0.39-0.75-0.72-1.1-1.06c-0.4-0.38-0.71-0.77-1.11-1.14c-0.39-0.29-0.82-0.61-1.17-0.96
	c-0.43-0.33-0.86-0.56-1.26-0.94c-0.29-0.22-0.71-0.06-0.9,0.19c-0.45,0.61-0.55,0.54-1.01,1.14c-0.42,0.56-0.27,0.67-0.73,1.28
	c-0.45,0.61-0.55,0.54-0.97,1.09c-0.45,0.61-0.5,0.58-0.96,1.18c-0.42,0.56-0.27,0.67-0.73,1.27
	C724.3,183.8,724.25,183.77,723.83,184.32"/>
<path class="st1" d="M789.96,221l-1.02,0.95c-0.51,0.48-0.51,0.48-1.01,0.96c-0.51,0.47-0.51,0.47-1.02,0.95
	c-0.51,0.48-0.43,0.57-0.93,1.04c-0.56,0.52-0.56,0.52-1.06,1c-0.23,0.21-0.71,0.17-0.96-0.1c-0.58-0.62-0.62-0.57-1.24-1.24
	c-0.29-0.31-0.69-0.27-0.93,0.12c-0.29,0.43-0.61,0.83-0.9,1.26c-0.24,0.48-0.53,0.91-0.82,1.35c-0.29,0.44-0.53,0.92-0.82,1.35
	c-0.24,0.48-0.44,0.92-0.73,1.35c-0.24,0.39-0.44,0.91-0.69,1.3c-0.29,0.44-0.57,0.87-0.81,1.26c-0.28,0.44-0.4,0.96-0.69,1.39
	c-0.24,0.39-0.49,0.87-0.73,1.26c-0.24,0.48-0.53,0.91-0.78,1.3c-0.24,0.48-0.65,0.78-0.94,1.22c-0.2,0.44-0.49,0.87-0.78,1.31
	c-0.2,0.43-0.4,0.87-0.64,1.35c-0.29,0.44-0.49,0.87-0.77,1.31c-0.24,0.39-0.66,0.78-0.9,1.17c-0.24,0.48-0.49,0.87-0.77,1.31
	c-0.28,0.44-0.4,0.96-0.65,1.35c-0.28,0.43-0.49,0.87-0.73,1.35c-0.28,0.44-0.49,0.87-0.77,1.3c-0.24,0.39-0.53,0.83-0.81,1.26
	c-0.29,0.53-0.62,0.92-0.6,1.31c0.02,0.39,0.22,0.88,0.72,1.23c0.25,0.18,0.6,0.27,0.85,0.53c0.2,0.3,0.1,0.65-0.18,0.92
	c-0.51,0.48-0.51,0.48-1.02,0.96c-0.51,0.48-0.55,0.43-1.06,0.91c-0.51,0.48-0.47,0.52-0.98,1c-0.51,0.48-0.39,0.61-0.94,1.13
	c-0.5,0.47-0.67,0.3-1.18,0.77c-0.23,0.22-0.54,0.26-0.75,0.04c-0.54-0.57-0.54-0.57-1.04-1.1c-0.5-0.53-0.45-0.57-0.95-1.1
	c-0.5-0.53-0.64-0.4-1.13-0.93c-0.5-0.53-0.54-0.49-1.04-1.01c-0.5-0.53-0.36-0.66-0.85-1.19c-0.54-0.57-0.59-0.53-1.08-1.06
	c-0.5-0.53-0.59-0.45-1.09-0.97c-0.5-0.53-0.41-0.61-0.9-1.14c-0.49-0.53-0.49-0.53-0.99-1.06c-0.5-0.53-0.59-0.44-1.13-1.02
	c-0.5-0.53-0.36-0.66-0.86-1.19c-0.5-0.53-0.5-0.53-0.99-1.06c-0.25-0.26-0.31-0.7-0.08-0.92c0.6-0.56,0.73-0.43,1.37-1.04
	c0.6-0.57,0.6-0.57,1.2-1.13c0.6-0.56,0.56-0.61,1.16-1.17c0.6-0.56,0.56-0.61,1.16-1.18c0.28-0.26,0.72-0.26,0.97,0.01
	c0.37,0.4,0.33,0.44,0.74,0.88c0.37,0.4,0.33,0.44,0.74,0.88c0.29,0.31,0.91,0.22,1.15-0.16c0.29-0.44,0.49-0.96,0.78-1.39
	c0.29-0.52,0.58-0.96,0.83-1.44c0.14-0.22,0.2-0.52,0-0.74c-0.33-0.36-0.66-0.79-1.03-1.19c-0.33-0.35-0.7-0.75-1.08-1.15
	c-0.33-0.35-0.84-0.62-1.22-1.02c-0.33-0.35-0.62-0.75-0.95-1.1c-0.33-0.35-0.71-0.66-1.04-1.02c-0.33-0.35-0.53-0.83-0.86-1.19
	c-0.33-0.35-0.8-0.58-1.13-0.93c-0.33-0.35-0.67-0.71-1-1.06c-0.45-0.48-0.75-0.71-1.34-0.32c-0.41,0.22-0.77,0.48-1.18,0.69
	c-0.41,0.21-0.81,0.34-1.21,0.56c-0.41,0.21-0.48,0.78-0.19,1.09c0.37,0.4,0.33,0.44,0.74,0.88c0.37,0.4,0.47,0.31,0.84,0.71
	c0.25,0.26,0.14,0.61-0.14,0.87c-0.6,0.56-0.52,0.65-1.16,1.26c-0.6,0.57-0.68,0.48-1.29,1.04c-0.65,0.61-0.52,0.74-1.12,1.3
	c-0.6,0.56-0.6,0.56-1.2,1.13c-0.28,0.26-0.75,0.21-1-0.05c-0.46-0.48-0.5-0.44-1-0.97c-0.5-0.53-0.36-0.66-0.86-1.19
	c-0.5-0.53-0.5-0.53-0.95-1.01c-0.5-0.53-0.59-0.45-1.09-0.97c-0.5-0.53-0.45-0.57-0.95-1.1c-0.45-0.49-0.55-0.4-1.05-0.93
	c-0.5-0.53-0.31-0.7-0.81-1.23c-0.5-0.53-0.59-0.45-1.04-0.93c-0.5-0.53-0.59-0.44-1.09-0.97c-0.5-0.53-0.41-0.62-0.9-1.15
	c-0.46-0.48-0.59-0.35-1.09-0.88c-0.25-0.26-0.14-0.79,0.14-1.05c0.51-0.48,0.59-0.39,1.1-0.86c0.51-0.48,0.47-0.52,0.98-1
	c0.51-0.48,0.51-0.48,1.02-0.96c0.51-0.48,0.42-0.57,0.93-1.04c0.51-0.48,0.63-0.35,1.14-0.82c0.28-0.26,0.63-0.35,0.84-0.13
	c0.34,0.26,0.63,0.58,0.87,0.93c0.53,0.75,1.01,0.71,1.83,0.28c0.5-0.22,0.98-0.34,1.39-0.56c0.49-0.21,0.87-0.65,1.28-0.87
	c0.49-0.21,1.02-0.3,1.47-0.47c0.45-0.26,0.86-0.56,1.32-0.82c0.49-0.21,0.91-0.52,1.31-0.73c0.49-0.21,0.9-0.52,1.4-0.73
	c0.41-0.21,0.9-0.43,1.39-0.65c0.41-0.21,0.94-0.29,1.43-0.51c0.4-0.21,0.82-0.61,1.23-0.82c0.49-0.22,0.95-0.47,1.39-0.65
	c0.46-0.26,0.91-0.52,1.4-0.73c0.41-0.22,0.86-0.47,1.31-0.73c0.49-0.22,0.98-0.35,1.43-0.51c0.45-0.26,0.82-0.61,1.28-0.87
	c0.49-0.21,1.02-0.3,1.43-0.51c0.45-0.26,0.94-0.39,1.39-0.65c0.49-0.22,0.86-0.57,1.31-0.82c0.5-0.21,1.03-0.39,1.53-0.6
	c0.45-0.26,0.9-0.52,1.44-0.77c0.41-0.21,0.43-0.74,0.14-1.05c-0.58-0.62-0.53-0.66-1.16-1.32c-0.2-0.22-0.14-0.53,0.13-0.79
	c0.51-0.48,0.34-0.65,0.85-1.13c0.51-0.47,0.59-0.39,1.1-0.86c0.51-0.47,0.51-0.47,1.02-0.95c0.51-0.48,0.55-0.43,1.1-0.95
	c0.51-0.48,0.43-0.57,0.94-1.04c0.23-0.22,0.66-0.13,0.87,0.1c0.5,0.53,0.59,0.44,1.09,0.97c0.5,0.53,0.41,0.61,0.86,1.1
	c0.5,0.53,0.64,0.4,1.13,0.93c0.45,0.48,0.31,0.61,0.81,1.14c0.5,0.53,0.64,0.4,1.13,0.93c0.46,0.49,0.46,0.49,0.95,1.01
	c0.5,0.53,0.4,0.62,0.86,1.1c0.5,0.53,0.45,0.57,0.95,1.1c0.5,0.53,0.59,0.44,1.04,0.93c0.5,0.53,0.45,0.57,0.95,1.1
	c0.46,0.49,0.55,0.4,1.04,0.93c0.5,0.53,0.31,0.7,0.81,1.23c0.45,0.48,0.45,0.48,0.95,1.01c0.5,0.53,0.68,0.36,1.18,0.88
	c0.45,0.49,0.41,0.53,0.91,1.06c0.5,0.53,0.54,0.49,1,0.97c0.5,0.53,0.5,0.53,0.99,1.06c0.5,0.53,0.41,0.62,0.86,1.1
	C790.26,220.39,790.19,220.79,789.96,221 M772.36,219.1c-0.54-0.57-0.5-0.53-1.03-1.1c-0.41,0.22-0.9,0.43-1.31,0.65
	c-0.45,0.26-0.86,0.47-1.31,0.73c-0.45,0.17-0.86,0.56-1.27,0.78c-0.45,0.26-0.9,0.43-1.35,0.69c-0.41,0.21-0.9,0.43-1.31,0.65
	c-0.45,0.26-0.86,0.56-1.31,0.73c-0.45,0.26-0.86,0.48-1.35,0.69c-0.41,0.21-0.9,0.34-1.35,0.6c-0.41,0.21-0.86,0.47-1.31,0.64
	c-0.37,0.26-0.49,0.87-0.2,1.18c0.5,0.53,0.54,0.49,1,0.97c0.5,0.53,0.54,0.48,1.04,1.02c0.5,0.53,0.45,0.57,0.95,1.1
	c0.49,0.53,0.59,0.45,1.08,0.97c0.5,0.53,0.5,0.53,0.96,1.02c0.29,0.31,0.6,0.26,0.84-0.13c0.24-0.39,0.65-0.7,0.94-1.13
	c0.29-0.43,0.53-0.82,0.81-1.26c0.24-0.39,0.4-0.87,0.69-1.3c0.24-0.39,0.49-0.87,0.73-1.26c0.29-0.44,0.7-0.74,0.99-1.18
	c0.24-0.39,0.52-0.83,0.81-1.26c0.2-0.44,0.36-0.92,0.64-1.35c0.24-0.39,0.49-0.87,0.73-1.26
	C771.74,219.84,772.12,219.49,772.36,219.1"/>
<path class="st1" d="M425.93,330.58c-9.87,8.44-20.23,16.53-29.52,25.38c-28.36,27.02-48.98,57.83-65.8,90.34
	c-16.38,31.68-29.09,64.19-35.14,98.1c-0.55,3.09-0.83,6.22-1.24,9.34c-30.19-7.08-50.53-35.89-44.01-62.49
	c6.36-25.9,18.98-50.19,31.27-74.59c9.48-18.82,18.14-37.9,26.71-56.99c2.41-5.37,3.82-11.2,0.82-18.07
	c-6.75,5.29-13.04,9.84-18.81,14.81c-28.72,24.71-49.46,53.63-66.84,84.23c-16.25,28.61-29.28,58.14-38.63,88.57
	c-2.55,8.29-2.69,17.03-3.64,25.58c-0.38,3.38,0.04,6.8,0.12,11.63c-15.19-3.92-29.86-6.76-43.49-11.49
	c-13.95-4.84-19.18-16.42-14.84-28.81c21.19-60.53,42.61-121.02,63.69-181.58c2.88-8.29,4.64-16.84,6.36-25.32
	c1.28-6.3-2.87-9.87-10.66-9.87c-10.24-0.01-19,3.86-26.69,8.99c-17.37,11.62-32.64,24.93-43.69,41.07
	c-12.32,18-16.84,36.5-5.56,56.21c-17.24-4.68-33.11-9.76-47.8-17.17c-10.55-5.32-13.24-13.4-10.74-22.45
	c2.08-7.51,5.47-15.34,10.66-21.75c22.02-27.18,51.64-46.84,89.41-56.73c24.63-6.44,47.18-3.24,66.29,11.32
	c5.36,4.09,12.59,6.5,18.79,9.89c13.08,7.14,15.23,14.5,10.24,27.28c-7.07,18.1-13.22,36.42-18.81,54.98
	c6.39-7.46,12.45-15.13,19.25-22.33c14.23-15.07,28.62-30.06,43.41-44.76c7.88-7.84,17.56-14.06,30.14-15.7
	c28.15-3.67,50.88,16.32,46.1,40.39c-0.55,2.77-1.37,5.51-2.41,9.64c3.86-4.32,6.63-7.75,9.81-10.9
	c13.18-13.1,25.83-26.64,39.94-39.03c13.72-12.06,30.74-14.33,45.81-9.49c28.8,9.25,29.53,30.55,23.04,47.23
	c-9.23,23.7-19.11,47.31-26.8,71.31c-10.88,33.96-16.51,68.44-13.05,103.28c1.84,18.58,6.18,36.6,17.12,52.94
	c1.44,2.15,3.15,4.17,4.78,6.22c2.41,3.02,1.2,6.02-3.29,6.37c-4.22,0.33-8.91,0.18-12.73-1.05c-29.59-9.49-54.13-24.52-73.08-45.44
	c-5.96-6.58-6.83-14.55-7.46-22.51c-2.01-25.27,3.61-50.03,13.68-73.97c10.53-25.02,23.56-49.38,35.01-74.18
	c5.44-11.78,10.02-23.82,14.38-35.88c1.33-3.67,0.66-7.77,0.9-11.67C427.94,331.16,426.93,330.87,425.93,330.58"/>
<path class="st1" d="M676.05,451.78c-8.7,10.67-16.3,19.98-23.87,29.3c-0.41,0.51-0.81,1.14-0.86,1.73
	c-0.44,5.41-0.6,10.9,5.53,14.26c6.1,3.34,13.19,4.19,19.97,1.39c6.7-2.77,7.39-8.43,6.45-13.6
	C681.31,474.16,678.66,463.57,676.05,451.78 M748.44,478.45c7.56-21.43,15.23-42.37,22.27-63.43c4.65-13.93,8.91-27.97,12.35-42.1
	c1.88-7.71,1.22-15.63-5.18-23.77c8.23,1.06,15.2,1.46,21.75,2.95c6.46,1.46,12.48,4.09,18.74,6.1c9.94,3.2,14.1,9.82,13.01,18.06
	c-1.52,11.47-4.17,22.89-6.91,34.25c-5.46,22.64-11.32,45.22-16.98,67.83c-0.38,1.5-0.48,3.04-0.9,5.86
	c4.3-3.3,7.76-5.56,10.64-8.23c6.41-5.95,12.29-12.3,18.85-18.13c5.2-4.62,6.08-9.72,6.06-15.56c-0.06-20.22,4.3-39.9,15.43-58.46
	c16.69-27.83,44.44-44.03,79.93-51.98c12.34-2.76,24.76-3.85,37.27-2.55c18.68,1.95,26.95,11.17,24.99,26.74
	c-1.36,10.75-5.98,20.25-15.57,27.82c-9.31,7.35-19.05,14.37-29,21.12c-2.95,2-7.25,3.37-10.96,3.55c-2.37,0.11-5.45-2.15-6.93-4.05
	c-0.67-0.86,1.24-3.88,2.86-5.13c11.56-8.9,23.43-17.53,35-26.43c2.33-1.79,4.11-4.25,5.54-6.63c2.09-3.47,0.66-5.44-3.88-5.77
	c-1.83-0.13-3.94-0.1-5.59,0.5c-27.45,10.04-51.76,23.53-67.2,45.57c-16.53,23.6-18.34,48.46-9.85,73.61
	c3.93,11.62,14.85,15.21,28.9,10.46c12.55-4.25,22.65-11.44,32.07-19.25c12.27-10.16,23.8-21.23,34.29-33.22
	c5.11-5.84,9.97-11.89,14.55-18.16c2.95-4.04,7.59-15.1,12.61-16.54c8.29-2.38,2.21,18.79,0.28,21.68
	c-14.73,22.03-31.73,42.92-54.68,60.06c-15.49,11.57-33.04,19.2-54.11,19.73c-25.24,0.63-56.3-6.55-63.82-34.48
	c-1.49,1.37-2.61,2.33-3.64,3.36c-6.55,6.58-12.81,13.45-19.21,20.18c-3.71,3.9-6.66,8.72-11.06,11.92
	c-9.22,6.69-24.83-1.07-34.48-4.46c-11.24-3.94-21.89-9.91-27.86-20.64c-0.3,3.39-0.35,5.4-0.66,7.38
	c-3.29,21.15-22.39,37.33-49.27,41.6c-10.74,1.71-21.51,2.64-32.16,0.33c-15.74-3.43-25.9-11.66-30.93-24.3
	c-0.41-1.02-0.76-2.07-1.19-3.08c-0.12-0.27-0.44-0.48-1.42-1.47c-7.77,7.93-15.45,15.68-22.98,23.52c-2.16,2.24-4.19,3-7.76,2.32
	c-15.41-2.93-29.81-7.39-41.67-16.11c-1.94-1.42-3.66-3.05-5.45-4.6c-5.39-4.66-7.73-9.77-4.25-16.44
	c1.99-3.83,2.79-8.06,3.27-12.32c-3.32,6.76-6.24,13.67-10.04,20.25c-5.6,9.71-11.79,19.21-17.82,28.76
	c-0.88,1.39-2.18,2.62-3.34,3.89c-4.64,5.08-9.7,7.74-18.03,5.73c-13.23-3.19-26.27-6.43-37.19-13.48c-3.2-2.07-6.1-4.49-8.91-6.93
	c-5.49-4.74-6.94-9.68-4.23-16.81c10.75-28.27,20.64-56.74,30.35-85.24c2.35-6.91,3.6-14.22,3.86-21.34
	c0.24-6.54-1.53-13.07-2.51-20.32c5.76,0.75,12.94,1.14,19.65,2.73c6.24,1.48,11.98,4.23,17.92,6.45
	c13.61,5.09,17.77,14.65,15.55,26.12c-2.24,11.57-6.16,22.97-9.1,34.48c-5.66,22.12-11.16,44.27-16.7,66.41
	c-0.22,0.89-0.12,1.82,0.73,3.05c2.76-3.91,5.9-7.67,8.22-11.73c20.41-35.84,41.02-71.61,60.71-107.7
	c4.88-8.95,3.16-18.73-1.07-27.77c18.64-1.99,45.01,3.71,51.65,21.24c3.61,9.53,1.98,18.99-0.75,28.63
	c-7.79,27.54-15.3,55.13-22.89,82.71c-0.33,1.19-0.34,2.43-0.68,5.04c4.29-3.53,7.67-6.03,10.67-8.81
	c18.74-17.35,33.64-36.86,47.78-56.76c0.99-1.39,1.02-3.55,0.64-5.19c-2.45-10.63-6.53-20.94-5.58-32.14
	c1.58-18.5,17.01-34.4,32.23-43.35c11.75-6.91,25.37-10.51,39.01-10.1c6.92,0.21,13.79,1.43,20.35,3.64
	c7.6,2.55,11.23,4.35,14.52,11.66c-2.26,0-4.63,0.33-6.77-0.06c-22.76-4.13-39.7,7.87-37.94,28.35c1.1,12.8,4.38,25.5,7.93,37.97
	C736.64,444.11,742.7,460.92,748.44,478.45"/>
<path class="st1" d="M839.22,344.33c-15.73,0.44-30.72,1.09-43.46-5.47c-7.73-3.98-8.87-6.55-6.22-13.42
	c3.68-9.55,2.17-18.9,0.18-28.21c-0.46-2.14-1.05-4.25-1.66-6.73c3.54-0.34,6.79-1.12,9.77-0.86c14.39,1.27,27.53,4.72,38.71,11.22
	c5.59,3.25,7.42,7.17,5.98,12.9c-2.11,8.42-2.39,17-3.38,25.51C838.97,340.73,839.18,342.22,839.22,344.33"/>
<path class="st1" d="M363.29,618.31c3.63-3.62,8.78-3.4,12.32,0.14c3.49,3.5,3.72,8.65,0.08,12.27c-3.63,3.63-8.73,3.36-12.23-0.14
	C359.93,627.05,359.66,621.94,363.29,618.31"/>
<path class="st1" d="M444.37,648.88c-0.41,0.64-0.41,0.64-0.85,1.34c-0.41,0.64-0.46,0.61-0.9,1.3c-0.41,0.64-0.3,0.71-0.71,1.35
	c-0.44,0.7-0.44,0.7-0.85,1.34c-0.44,0.7-0.49,0.66-0.9,1.31c-0.41,0.64-0.51,0.57-0.96,1.27c-0.41,0.65-0.35,0.69-0.8,1.39
	c-0.41,0.64-0.46,0.61-0.87,1.25c-0.44,0.68-0.39,0.72-0.79,1.36c-0.24,0.37-0.64,0.42-1.02,0.18c-0.7-0.43-0.66-0.48-1.36-0.92
	c-0.69-0.44-0.73-0.39-1.42-0.83c-0.69-0.45-0.79-0.3-1.49-0.73c-0.69-0.44-0.66-0.49-1.41-0.97c-0.69-0.45-0.63-0.55-1.32-0.99
	c-0.32-0.2-0.4-0.55-0.16-0.92c0.41-0.65,0.3-0.71,0.74-1.41c0.41-0.64,0.46-0.61,0.9-1.3c0.41-0.64,0.3-0.71,0.74-1.4
	c0.23-0.38,0.23-0.83-0.15-1.07c-0.59-0.37-0.59-0.37-1.23-0.78c-0.64-0.4-0.64-0.4-1.23-0.78c-0.64-0.41-1.18-0.75-1.77-1.12
	c-0.65-0.4-0.65-0.4-1.29-0.81c-0.58-0.37-0.66-0.26-1.3-0.67c-0.64-0.41-0.64-0.41-1.23-0.78c-0.37-0.24-0.72-0.16-0.96,0.21
	c-0.44,0.7-0.55,0.63-0.95,1.27c-0.45,0.71-0.5,0.67-0.9,1.32c-0.45,0.69-0.39,0.73-0.79,1.37c-0.44,0.69-0.55,0.62-0.96,1.26
	c-0.44,0.69-0.39,0.73-0.83,1.43c-0.2,0.32-0.03,0.88,0.34,1.12c0.64,0.41,0.64,0.41,1.34,0.85c0.69,0.44,0.69,0.44,1.39,0.88
	c0.69,0.44,0.66,0.49,1.3,0.9c0.7,0.44,0.7,0.44,1.4,0.88c0.69,0.45,0.79,0.29,1.48,0.73c0.64,0.41,0.54,0.57,1.24,1.01
	c0.37,0.23,0.56,0.64,0.33,1.02c-0.37,0.59-0.37,0.59-0.75,1.18c-0.34,0.54-0.28,0.57-0.66,1.16c-0.37,0.59-0.48,0.52-0.85,1.11
	c-0.37,0.59-0.37,0.59-0.75,1.18c-0.37,0.59-0.32,0.62-0.69,1.21c-0.24,0.37-0.73,0.44-1.1,0.2c-0.69-0.44-0.69-0.44-1.39-0.88
	c-0.64-0.41-0.68-0.35-1.37-0.79c-0.7-0.44-0.7-0.44-1.4-0.88c-0.69-0.44-0.72-0.39-1.37-0.79c-0.69-0.44-0.69-0.44-1.39-0.88
	c-0.7-0.44-0.7-0.44-1.39-0.88c-0.33-0.2-0.72-0.16-0.93,0.16c-0.44,0.69-0.55,0.63-0.99,1.32c-0.44,0.69-0.23,0.83-0.67,1.53
	c-0.44,0.7-0.71,0.53-1.15,1.22c-0.44,0.69-0.44,0.69-0.88,1.39c-0.44,0.69-0.33,0.76-0.77,1.46c-0.23,0.37-0.02,0.74,0.3,0.94
	c0.7,0.45,0.63,0.55,1.32,0.99c0.7,0.44,0.73,0.39,1.43,0.83c0.69,0.44,0.69,0.44,1.39,0.88c0.69,0.44,0.73,0.39,1.42,0.83
	c0.7,0.44,0.93,0.66,1.63,1.11c0.69,0.44,0.66,0.49,1.35,0.93c0.38,0.24,0.92,0.21,1.16-0.17c0.44-0.69,0.33-0.76,0.81-1.51
	c0.44-0.7,0.55-0.63,0.99-1.33c0.47-0.75,0.31-0.85,0.75-1.55c0.2-0.32,0.72-0.3,1.03-0.09c0.7,0.45,0.73,0.39,1.43,0.83
	c0.7,0.44,0.66,0.49,1.36,0.94c0.7,0.43,0.73,0.38,1.48,0.86c0.69,0.44,0.76,0.33,1.46,0.77c0.7,0.44,0.59,0.6,1.29,1.04
	c0.32,0.2,0.4,0.55,0.2,0.87c-0.41,0.64-0.41,0.64-0.78,1.23c-0.41,0.64-0.41,0.64-0.78,1.23c-0.41,0.64-0.24,0.74-0.62,1.33
	c-0.41,0.64-0.35,0.67-0.73,1.26c-0.41,0.64-0.41,0.64-0.78,1.23c-0.41,0.65-0.57,0.55-0.97,1.19c-0.38,0.59-0.32,0.62-0.73,1.26
	c-0.37,0.59-0.42,0.55-0.83,1.2c-0.37,0.59-0.26,0.66-0.67,1.3c-0.37,0.59-0.32,0.62-0.73,1.26c-0.2,0.33-0.87,0.43-1.19,0.22
	c-0.64-0.41-0.61-0.46-1.3-0.9c-0.64-0.4-0.57-0.51-1.22-0.92c-0.64-0.41-0.64-0.41-1.28-0.82c-0.7-0.44-0.73-0.39-1.37-0.79
	c-0.64-0.41-0.61-0.46-1.25-0.87c-0.64-0.41-0.64-0.41-1.34-0.85c-0.64-0.41-0.78-0.19-1.42-0.6c-0.64-0.41-0.54-0.57-1.18-0.97
	c-0.69-0.44-0.98-0.7-1.63-1.1c-0.64-0.41-0.71-0.3-1.35-0.71c-0.64-0.41-0.64-0.41-1.34-0.85c-0.64-0.41-0.61-0.46-1.25-0.87
	c-0.64-0.41-0.71-0.3-1.36-0.71c-0.69-0.44-0.69-0.44-1.34-0.85c-0.64-0.41-0.61-0.46-1.25-0.87c-0.64-0.41-0.61-0.46-1.31-0.9
	c-0.64-0.4-0.67-0.35-1.32-0.76c-0.64-0.4-0.61-0.46-1.25-0.87c-0.69-0.44-0.76-0.33-1.4-0.74c-0.64-0.41-0.57-0.52-1.21-0.92
	c-0.65-0.41-0.61-0.46-1.3-0.9c-0.64-0.4-0.78-0.19-1.42-0.6c-0.64-0.41-0.51-0.63-1.15-1.03c-0.37-0.24-0.56-0.65-0.36-0.97
	c0.48-0.75,0.42-0.79,0.87-1.48c0.44-0.69,0.49-0.66,0.94-1.36c0.47-0.75,0.63-0.64,1.08-1.34c0.44-0.69,0.28-0.79,0.75-1.55
	c0.21-0.33,0.77-0.5,1.14-0.26c0.69,0.44,0.66,0.49,1.41,0.97c0.33,0.2,0.76,0.11,1-0.27c0.41-0.65,0.51-0.58,0.89-1.16
	c0.41-0.64,0.25-0.75,0.66-1.39c0.41-0.64,0.46-0.61,0.87-1.25c0.41-0.64,0.46-0.61,0.83-1.2c0.4-0.64,0.3-0.71,0.71-1.35
	c0.41-0.65,0.57-0.55,0.97-1.19c0.41-0.64,0.36-0.67,0.73-1.26c0.41-0.64,0.41-0.64,0.82-1.29c0.41-0.63,0.46-0.6,0.86-1.24
	c0.37-0.59,0.32-0.62,0.72-1.27c0.41-0.65,0.36-0.68,0.76-1.33c0.41-0.64,0.41-0.64,0.81-1.28c0.38-0.59,0.48-0.52,0.89-1.16
	c0.41-0.64,0.25-0.74,0.65-1.39c0.41-0.64,0.52-0.57,0.93-1.22c0.37-0.59,0.37-0.59,0.78-1.23c0.41-0.64,0.41-0.64,0.81-1.28
	c0.41-0.63,0.45-0.6,0.83-1.19c0.41-0.64,0.36-0.67,0.76-1.32c0.24-0.39,0.12-0.91-0.2-1.11c-0.75-0.48-0.75-0.48-1.44-0.92
	c-0.37-0.23-0.47-0.67-0.27-0.99c0.48-0.75,0.53-0.71,0.97-1.41c0.48-0.73,0.53-0.7,0.97-1.39c0.47-0.75,0.42-0.79,0.86-1.48
	c0.44-0.71,0.39-0.75,0.86-1.49c0.24-0.38,0.61-0.37,0.98-0.13c0.65,0.41,0.71,0.3,1.36,0.71c0.59,0.37,0.59,0.37,1.23,0.78
	c0.64,0.43,0.68,0.37,1.32,0.78s0.61,0.46,1.25,0.87c0.65,0.39,0.65,0.39,1.29,0.8c0.59,0.37,0.59,0.37,1.23,0.78
	c0.64,0.41,0.6,0.46,1.25,0.87c0.64,0.41,0.71,0.3,1.35,0.71c0.65,0.41,0.65,0.41,1.29,0.82c0.59,0.37,0.62,0.32,1.26,0.72
	c0.64,0.41,0.51,0.62,1.15,1.03c0.64,0.41,0.67,0.35,1.32,0.76c0.64,0.41,0.68,0.35,1.32,0.76c0.59,0.37,0.62,0.32,1.26,0.73
	c0.64,0.41,1.18,0.75,1.82,1.15c0.64,0.41,0.54,0.57,1.19,0.98c0.59,0.38,0.72,0.16,1.36,0.57c0.64,0.41,0.57,0.52,1.21,0.92
	c0.64,0.41,0.61,0.46,1.25,0.87c0.65,0.41,0.71,0.3,1.35,0.71c0.59,0.37,0.59,0.37,1.23,0.78c0.64,0.41,0.61,0.46,1.25,0.87
	c0.64,0.41,0.64,0.41,1.29,0.81C444.46,648.03,444.61,648.5,444.37,648.88"/>
<path class="st1" d="M478.77,663.66c0.02-0.06,0.02-0.06,0.05-0.12c0.16-0.41,0.74-0.53,1.16-0.37c0.71,0.27,0.78,0.09,1.55,0.39
	c0.77,0.29,0.68,0.53,1.39,0.8c0.77,0.3,0.81,0.18,1.59,0.47c0.71,0.27,0.76,0.15,1.52,0.44c0.41,0.16,0.65,0.79,0.49,1.21
	c-0.27,0.69-0.33,0.67-0.62,1.44c-0.29,0.77-0.23,0.79-0.51,1.5c-0.29,0.79-0.29,0.79-0.58,1.56c-0.27,0.71-0.33,0.69-0.62,1.46
	c-0.27,0.71-0.27,0.71-0.57,1.48c-0.29,0.77-0.41,0.73-0.68,1.44c-0.29,0.77-0.12,0.83-0.41,1.61c-0.27,0.71-0.27,0.71-0.56,1.48
	c-0.16,0.41-0.66,0.49-1.08,0.33c-0.53-0.2-1.15-0.16-1.69-0.37c-0.53-0.2-1.02-0.53-1.55-0.73c-0.54-0.22-1.02-0.53-1.56-0.74
	c-0.53-0.2-1.11-0.29-1.64-0.49c-0.24-0.08-0.46-0.57-0.41-0.89c0-0.54-0.02-1.02-0.1-1.53c-0.14-0.53-0.13-1.07-0.35-1.56
	c-0.22-0.49-0.54-0.88-0.85-1.34c-0.32-0.4-0.62-0.85-0.97-1.19c-0.41-0.36-0.99-0.44-1.42-0.74c-0.45-0.24-0.83-0.66-1.31-0.84
	c-0.54-0.2-1.01-0.38-1.5-0.5c-0.52-0.06-1.09,0.19-1.54,0.3c-0.51,0.08-1,0.3-1.43,0.54c-0.45,0.3-1,0.5-1.24,0.95
	c-0.24,0.45-0.18,1.02-0.22,1.47c0,0.54-0.04,1,0.18,1.49c0.16,0.47,0.47,0.92,0.87,1.28c0.35,0.33,0.8,0.57,1.15,0.91
	c0.37,0.27,0.71,0.61,1.12,0.97c0.37,0.28,0.67,0.73,1.04,1.01c0.35,0.33,0.69,0.67,1.1,1.03c0.37,0.27,0.74,0.55,1.15,0.91
	c0.37,0.28,0.74,0.55,1.08,0.89c0.37,0.27,0.63,0.65,0.98,0.98c0.35,0.34,0.63,0.65,0.98,0.99c0.29,0.31,0.66,0.59,1,0.93
	c0.35,0.33,0.61,0.71,0.96,1.04c0.32,0.39,0.76,0.7,1.08,1.09c0.33,0.4,0.32,0.94,0.57,1.37c0.28,0.52,0.46,0.92,0.71,1.36
	c0.16,0.47,0.38,0.96,0.48,1.4c0.16,0.47,0.18,0.95,0.26,1.46c0.08,0.51,0.3,1,0.3,1.54c-0.04,0.46-0.16,0.96-0.22,1.47
	c-0.06,0.52-0.1,0.98-0.22,1.47c-0.12,0.5-0.3,0.97-0.48,1.44c-0.18,0.47-0.42,0.92-0.66,1.37c-0.15,0.41-0.18,1.02-0.42,1.47
	c-0.24,0.45-0.54,0.88-0.84,1.32c-0.24,0.45-0.64,0.77-0.99,1.18c-0.3,0.43-0.6,0.85-0.94,1.2c-0.35,0.41-0.75,0.73-1.14,1.06
	c-0.4,0.32-0.95,0.52-1.38,0.76c-0.43,0.24-0.88,0.55-1.29,0.73c-0.49,0.22-1.02,0.36-1.48,0.52c-0.53,0.14-0.97,0.24-1.48,0.32
	c-0.53,0.14-1.01,0.16-1.57,0.21c-0.48,0.02-0.99,0.1-1.53,0.1c-0.46-0.04-0.98-0.1-1.5-0.16c-0.52-0.06-1.04-0.12-1.53-0.24
	c-0.49-0.12-0.97-0.3-1.53-0.45c-0.41-0.15-0.89-0.34-1.3-0.49c-0.48-0.18-0.98-0.1-1.43-0.34c-0.41-0.16-0.89-0.34-1.37-0.52
	c-0.39-0.22-0.82-0.51-1.21-0.73c-0.51-0.26-0.9-0.68-1.3-1.04c-0.49-0.32-1.04-0.46-1.45-0.82c-0.41-0.36-0.66-0.93-1.05-1.35
	c-0.3-0.45-0.71-0.81-0.99-1.33c-0.31-0.59-1.08-0.54-1.32,0.11c-0.11,0.3-0.11,0.3-0.25,0.65c-0.15,0.41-0.68,0.56-1.1,0.4
	c-0.77-0.29-0.81-0.17-1.53-0.45c-0.77-0.29-0.73-0.41-1.5-0.7c-0.77-0.29-0.77-0.29-1.48-0.56c-0.77-0.3-0.81-0.18-1.58-0.47
	c-0.42-0.16-0.61-0.71-0.46-1.12c0.27-0.71,0.21-0.73,0.48-1.44c0.27-0.71,0.39-0.67,0.66-1.38c0.27-0.71,0.21-0.73,0.48-1.44
	c0.27-0.71,0.45-0.64,0.72-1.36c0.27-0.71,0.03-0.8,0.3-1.51c0.27-0.71,0.51-0.62,0.77-1.33c0.3-0.76,0.12-0.83,0.39-1.55
	c0.27-0.71,0.39-0.66,0.66-1.37c0.27-0.71,0.04-0.8,0.3-1.51c0.16-0.41,0.79-0.65,1.2-0.49c0.65,0.25,0.63,0.31,1.28,0.55
	c0.65,0.24,0.61,0.36,1.26,0.61c0.65,0.24,0.7,0.13,1.29,0.35c0.65,0.26,0.65,0.26,1.3,0.51c0.65,0.24,0.61,0.36,1.26,0.61
	c0.29,0.11,0.55,0.35,0.55,0.69c-0.04,0.46,0.07,0.91,0.09,1.39c0.02,0.48,0.04,0.96,0.12,1.47c0.1,0.44,0.16,1.01,0.34,1.42
	c0.22,0.49,0.44,0.98,0.71,1.35c0.33,0.39,0.65,0.79,1,1.12c0.35,0.34,0.8,0.58,1.23,0.87c0.37,0.28,0.86,0.4,1.32,0.64
	c0.45,0.24,0.93,0.42,1.34,0.58c0.49,0.12,0.96,0.5,1.4,0.6c0.52,0.06,1.01-0.16,1.49-0.18c0.55,0,1.01,0.04,1.47-0.12
	c0.51-0.08,0.9-0.41,1.24-0.75c0.37-0.27,0.65-0.63,0.85-1.17c0.24-0.45,0.3-0.97,0.34-1.43c0-0.54-0.04-0.97-0.26-1.46
	c-0.19-0.41-0.4-0.9-0.75-1.24c-0.39-0.41-0.81-0.71-1.16-1.05c-0.41-0.36-0.84-0.66-1.18-0.99c-0.41-0.36-0.84-0.66-1.18-1
	c-0.4-0.36-0.83-0.65-1.18-0.99c-0.41-0.36-0.63-0.85-1.04-1.21c-0.35-0.33-0.92-0.62-1.26-0.96c-0.41-0.36-0.9-0.68-1.22-1.07
	c-0.41-0.36-0.79-0.77-1.11-1.17c-0.41-0.36-0.68-0.87-1.01-1.26c-0.32-0.39-0.63-0.85-0.93-1.3c-0.3-0.45-0.52-0.95-0.76-1.38
	c-0.22-0.49-0.63-0.85-0.85-1.34c-0.16-0.47-0.16-1.01-0.29-1.53c-0.08-0.5-0.36-1.02-0.38-1.5c-0.08-0.5-0.02-1.02-0.02-1.56
	c0.01-0.54,0.13-1.04,0.19-1.56c0.06-0.52,0.06-1.06,0.18-1.56c0.12-0.51,0.42-0.94,0.6-1.41c0.18-0.47,0.26-1.05,0.51-1.5
	c0.23-0.44,0.42-0.91,0.65-1.36c0.3-0.43,0.81-0.71,1.17-1.12c0.3-0.43,0.54-0.88,0.96-1.26c0.34-0.35,0.7-0.75,1.08-1.08
	c0.46-0.3,0.89-0.55,1.32-0.79c0.45-0.3,0.94-0.52,1.38-0.76c0.47-0.16,0.99-0.3,1.46-0.46c0.53-0.14,1-0.3,1.52-0.44
	c0.5-0.08,1.01-0.16,1.49-0.18c0.54,0,1.01-0.16,1.49-0.18c0.52,0.06,0.96,0.16,1.48,0.22c0.46,0.04,0.99-0.1,1.48,0.02
	c0.46,0.04,0.91,0.28,1.41,0.4c0.5,0.12,0.98,0.1,1.45,0.28c0.48,0.18,0.95,0.37,1.36,0.52c0.45,0.24,0.9,0.48,1.36,0.72
	c0.4,0.22,0.84,0.45,1.28,0.75c0.43,0.3,0.71,0.61,1.08,0.89c0.35,0.34,0.63,0.65,0.9,1.02c0.27,0.37,0.45,0.78,0.69,1.21
	C477.72,664.48,478.53,664.31,478.77,663.66"/>
<path class="st1" d="M539.18,676.23c-0.12,0.75-0.19,0.74-0.3,1.49c-0.12,0.75-0.12,0.75-0.23,1.44c-0.12,0.75-0.3,0.72-0.42,1.47
	c-0.12,0.75,0.01,0.77-0.12,1.52c-0.12,0.75-0.05,0.76-0.17,1.51c-0.12,0.75-0.24,0.73-0.37,1.48c-0.12,0.75-0.05,0.77-0.17,1.51
	c-0.11,0.69-0.05,0.7-0.17,1.45c-0.12,0.75-0.12,0.75-0.24,1.5c-0.11,0.75-0.18,0.74-0.3,1.49c-0.04,0.25-0.34,0.52-0.59,0.48
	c-0.81-0.12-0.8-0.19-1.61-0.32c-0.75-0.13-0.74-0.19-1.55-0.32c-0.81-0.13-0.82-0.06-1.57-0.18c-0.81-0.12-0.81-0.12-1.56-0.24
	c-0.81-0.13-0.81-0.13-1.63-0.26c-0.25-0.04-0.33-0.31-0.3-0.56c0.11-0.69-0.08-0.72,0.02-1.34c0.11-0.69,0.17-0.68,0.28-1.36
	c0.11-0.69,0.11-0.69,0.21-1.31c0.11-0.69,0.04-0.7,0.15-1.39c0.04-0.25-0.02-0.65-0.34-0.7c-0.57-0.09-1.23,0.06-1.79-0.02
	c-0.62-0.1-1.17-0.31-1.8-0.35c-0.19-0.03-0.54,0.55-0.59,0.87c-0.08,0.5-0.16,1-0.24,1.5c-0.08,0.5-0.41,0.96-0.49,1.46
	c-0.08,0.5-0.03,1.02-0.1,1.46c-0.08,0.51-0.03,1.02-0.11,1.52c-0.08,0.5-0.22,0.99-0.3,1.49c-0.08,0.5-0.16,1-0.24,1.5
	c-0.08,0.49-0.09,1.01-0.17,1.51c-0.09,0.56-0.23,1.05-0.31,1.55c-0.08,0.51-0.16,1.01-0.24,1.51c-0.08,0.5-0.17,1.07-0.24,1.57
	c-0.08,0.5-0.34,0.97-0.42,1.47c-0.08,0.5-0.03,1.02-0.11,1.52c-0.09,0.57-0.17,1.07-0.25,1.57c-0.08,0.5-0.22,0.99-0.3,1.49
	c-0.08,0.5-0.09,1.01-0.18,1.58c-0.08,0.5-0.04,1.02-0.11,1.52c-0.08,0.5-0.16,1-0.24,1.5c-0.09,0.56-0.27,0.53-0.35,1.04
	c-0.04,0.25,0.24,0.49,0.49,0.53c0.63,0.1,0.6,0.28,1.16,0.37c0.57,0.09,0.59-0.1,1.16-0.01c0.31,0.05,0.39,0.38,0.35,0.63
	c-0.12,0.75-0.06,0.76-0.17,1.44c-0.12,0.75-0.18,0.74-0.29,1.43c-0.12,0.75,0.06,0.78-0.04,1.47c-0.12,0.75-0.12,0.75-0.22,1.44
	c-0.12,0.75-0.24,0.73-0.36,1.48c-0.04,0.25-0.27,0.47-0.58,0.42c-0.75-0.12-0.73-0.24-1.48-0.36c-0.69-0.11-0.7-0.05-1.45-0.17
	c-0.75-0.12-0.73-0.24-1.48-0.36c-0.75-0.12-0.77,0.01-1.52-0.11c-0.75-0.12-0.75-0.18-1.5-0.3c-0.75-0.11-0.77,0.01-1.52-0.11
	c-0.75-0.12-0.74-0.18-1.49-0.3c-0.75-0.12-0.76,0.01-1.52-0.11c-0.75-0.12-0.75-0.18-1.49-0.3c-0.75-0.12-0.74-0.18-1.49-0.3
	c-0.75-0.12-0.76-0.06-1.51-0.17c-0.75-0.12-0.73-0.18-1.49-0.3c-0.31-0.05-0.47-0.26-0.43-0.51c0.12-0.75-0.01-0.77,0.1-1.46
	c0.12-0.75,0.37-0.71,0.48-1.4c0.12-0.75,0-0.77,0.1-1.46c0.12-0.75,0.12-0.75,0.22-1.44c0.12-0.75,0.12-0.75,0.23-1.44
	c0.04-0.31,0.25-0.35,0.56-0.3c1.13,0.18,1.17-0.08,2.23,0.09c0.31,0.05,0.45-0.06,0.49-0.3c0.12-0.75,0.18-0.74,0.3-1.5
	c0.12-0.75,0.06-0.76,0.18-1.57c0.12-0.75,0.24-0.73,0.36-1.48c0.11-0.75,0.11-0.75,0.24-1.5c0.12-0.75,0.12-0.75,0.24-1.5
	c0.12-0.75,0.06-0.76,0.18-1.51c0.12-0.75,0.05-0.76,0.18-1.57c0.12-0.75,0.24-0.73,0.37-1.48c0.12-0.75,0.18-0.74,0.29-1.49
	c0.12-0.76-0.13-0.8-0.01-1.55c0.12-0.75,0.37-0.71,0.49-1.46c0.12-0.75,0.12-0.75,0.24-1.56c0.12-0.75-0.07-0.78,0.05-1.53
	c0.12-0.75,0.24-0.73,0.36-1.48c0.12-0.75,0.06-0.76,0.18-1.51c0.12-0.75,0.12-0.75,0.23-1.5c0.12-0.75,0.06-0.76,0.18-1.58
	c0.12-0.75,0.05-0.76,0.17-1.51c0.04-0.25,0.02-0.51-0.3-0.56c-0.81-0.14-0.8-0.2-1.68-0.34c-0.81-0.13-0.82-0.07-1.7-0.2
	c-0.25-0.03-0.55,0.18-0.58,0.43c-0.11,0.69-0.17,0.68-0.27,1.3c-0.11,0.69-0.11,0.69-0.22,1.38c-0.1,0.63,0.03,0.64-0.08,1.33
	c-0.11,0.69-0.17,0.68-0.27,1.31c-0.05,0.31-0.26,0.41-0.57,0.36c-0.75-0.12-0.76-0.05-1.58-0.18c-0.81-0.12-0.82-0.06-1.64-0.19
	c-0.81-0.14-0.79-0.26-1.61-0.39c-0.81-0.12-0.83,0-1.59-0.12c-0.81-0.12-0.8-0.18-1.62-0.31c-0.25-0.04-0.41-0.26-0.36-0.57
	c0.11-0.75,0.05-0.75,0.16-1.45c0.12-0.75-0.01-0.77,0.11-1.52c0.12-0.75,0.12-0.75,0.23-1.5c0.12-0.75,0.12-0.75,0.24-1.5
	c0.12-0.75,0.25-0.73,0.37-1.48c0.12-0.75,0.12-0.75,0.23-1.5c0.12-0.75,0.18-0.74,0.3-1.49c0.12-0.75,0.12-0.75,0.23-1.44
	c0.12-0.75,0.18-0.74,0.3-1.49c0.12-0.75,0.12-0.75,0.23-1.5c0.05-0.31,0.22-0.55,0.47-0.51c0.75,0.1,0.72,0.3,1.47,0.41
	c0.69,0.11,0.72-0.08,1.47,0.04c0.75,0.12,0.73,0.24,1.48,0.37c0.75,0.12,0.77-0.01,1.46,0.1c0.75,0.13,0.73,0.26,1.47,0.37
	c0.75,0.12,0.78-0.07,1.53,0.05c0.69,0.1,0.65,0.36,1.4,0.48c0.75,0.11,0.78-0.07,1.53,0.05c0.75,0.12,0.75,0.05,1.45,0.16
	c0.75,0.12,0.73,0.25,1.48,0.37c0.75,0.12,0.74,0.18,1.49,0.3c0.69,0.11,0.72-0.08,1.47,0.04c0.75,0.12,0.71,0.37,1.46,0.49
	c0.75,0.12,0.78-0.07,1.47,0.04c0.75,0.11,0.74,0.17,1.49,0.28c0.75,0.12,0.77,0.06,1.51,0.18c0.69,0.12,0.69,0.12,1.44,0.24
	c0.75,0.12,0.75,0.12,1.5,0.24c0.75,0.12,0.74,0.18,1.43,0.29c0.75,0.12,0.75,0.12,1.5,0.23c0.75,0.12,0.75,0.12,1.51,0.24
	c0.75,0.12,0.76,0.06,1.45,0.16c0.75,0.12,0.73,0.24,1.48,0.36c0.75,0.11,0.78-0.08,1.53,0.04c0.69,0.11,0.66,0.3,1.41,0.41
	c0.75,0.13,0.78-0.06,1.52,0.06C538.9,675.54,539.23,675.91,539.18,676.23"/>
<path class="st1" d="M593.36,673.87c0.09,0.76,0.03,0.76,0.12,1.52c0.09,0.76,0.09,0.76,0.18,1.51c0.09,0.76,0.28,0.73,0.37,1.48
	c0.09,0.76-0.03,0.77,0.06,1.53c0.1,0.82,0.1,0.82,0.19,1.57c0.09,0.76,0.03,0.77,0.12,1.53c0.09,0.75,0.15,0.75,0.25,1.51
	c0.09,0.75,0.21,0.73,0.31,1.49c0.09,0.75-0.04,0.77,0.06,1.53c0.09,0.75,0.03,0.75,0.13,1.57c0.09,0.75,0.28,0.73,0.37,1.48
	c0.09,0.75,0.03,0.76,0.12,1.52c0.09,0.76-0.04,0.77,0.06,1.53c0.09,0.75,0.28,0.73,0.37,1.49c0.09,0.76-0.03,0.77,0.06,1.53
	c0.1,0.82,0.23,0.8,0.32,1.56c0.09,0.75-0.16,0.79-0.06,1.54c0.09,0.75,0.34,0.72,0.43,1.48c0.1,0.75-0.09,0.77,0,1.53
	c0.09,0.75,0.22,0.74,0.31,1.49c0.1,0.82,0.1,0.82,0.19,1.57c0.09,0.75,0.15,0.75,0.24,1.5c0.09,0.76-0.09,0.78,0,1.54
	c0.09,0.75,0.02,0.76,0.12,1.52c0.05,0.44,0.6,0.75,0.98,0.71c0.63-0.08,0.61-0.2,1.3-0.28c0.63-0.08,0.64-0.02,1.26-0.09
	c0.63-0.08,0.63-0.08,1.26-0.15c0.44-0.06,0.74,0.29,0.79,0.67c0.11,0.88,0.04,0.89,0.15,1.71c0.1,0.88,0.17,0.87,0.27,1.69
	c0.1,0.81,0.16,0.81,0.27,1.69c0.1,0.82,0.04,0.83,0.15,1.71c0.05,0.38-0.17,0.66-0.61,0.71c-0.76,0.09-0.74,0.22-1.49,0.31
	c-0.82,0.1-0.81,0.16-1.57,0.26c-0.75,0.09-0.78-0.1-1.6,0c-0.75,0.09-0.72,0.34-1.48,0.43c-0.82,0.1-0.83,0.04-1.59,0.13
	c-0.75,0.09-0.77-0.03-1.59,0.07c-0.75,0.1-0.76,0.03-1.51,0.12c-0.81,0.1-0.81,0.1-1.57,0.19s-0.73,0.35-1.55,0.45
	c-0.75,0.09-0.76,0.02-1.52,0.12c-0.81,0.1-0.81,0.16-1.57,0.26c-0.75,0.09-0.77-0.1-1.59,0c-0.75,0.09-0.74,0.22-1.5,0.31
	c-0.82,0.1-0.82,0.1-1.57,0.19c-0.44,0.05-0.74-0.35-0.79-0.73c-0.1-0.88-0.23-0.86-0.33-1.68c-0.1-0.82-0.1-0.82-0.21-1.7
	c-0.1-0.82,0.03-0.83-0.07-1.65c-0.11-0.88-0.3-0.86-0.4-1.68c-0.05-0.44,0.35-0.81,0.79-0.86c0.63-0.07,0.65,0.05,1.28-0.02
	c0.63-0.08,0.61-0.27,1.3-0.35c0.63-0.08,0.64-0.02,1.27-0.09c0.38-0.05,0.65-0.4,0.6-0.84c-0.09-0.76-0.09-0.76-0.19-1.51
	c-0.09-0.75,0.03-0.77-0.06-1.52c-0.09-0.76-0.28-0.73-0.37-1.49c-0.09-0.75-0.09-0.75-0.18-1.51c-0.09-0.75,0.09-0.77,0-1.53
	c-0.09-0.75-0.28-0.73-0.37-1.48c-0.09-0.76-0.09-0.76-0.18-1.51c-0.09-0.75-0.03-0.76-0.12-1.52c-0.1-0.76-0.1-0.76-0.19-1.51
	c-0.1-0.76-0.16-0.75-0.25-1.5c-0.09-0.76-0.09-0.76-0.19-1.51c-0.09-0.76,0.04-0.77-0.06-1.53c-0.09-0.75-0.16-0.75-0.24-1.5
	c-0.09-0.76,0.1-0.78,0.01-1.53c-0.1-0.75-0.35-0.73-0.44-1.48c-0.09-0.76,0.04-0.77-0.06-1.52c-0.09-0.75,0.03-0.77-0.06-1.53
	c-0.09-0.75-0.09-0.75-0.18-1.51c-0.05-0.44-0.59-0.63-0.97-0.58c-0.69,0.09-0.72-0.09-1.34-0.02c-0.63,0.08-0.61,0.27-1.3,0.35
	c-0.63,0.07-0.62,0.13-1.25,0.21c-0.44,0.05-0.69-0.43-0.74-0.8c-0.1-0.82-0.23-0.8-0.32-1.56c-0.1-0.81-0.23-0.8-0.32-1.56
	c-0.1-0.81-0.1-0.81-0.19-1.57c-0.1-0.82,0.15-0.85,0.06-1.6c-0.1-0.82-0.29-0.8-0.39-1.55c-0.05-0.44,0.28-0.87,0.72-0.92
	c0.75-0.08,0.75-0.14,1.5-0.23c0.69-0.09,0.7-0.02,1.46-0.12c0.76-0.1,0.77,0.02,1.52-0.07c0.75-0.08,0.76-0.02,1.52-0.11
	c0.75-0.09,0.75-0.15,1.5-0.25c0.69-0.09,0.67-0.28,1.43-0.38c0.76-0.09,0.76-0.09,1.51-0.19s0.75-0.09,1.51-0.18
	c0.76-0.1,0.78,0.1,1.53,0c0.75-0.08,0.74-0.2,1.43-0.29c0.75-0.09,0.77,0.03,1.53-0.06C592.96,673.21,593.31,673.43,593.36,673.87"
	/>
<path class="st1" d="M626.05,682.92c0.15,0.49,0.38,1.01,0.71,1.44c0.21,0.47,0.38,1.01,0.71,1.44c0.33,0.43,0.77,0.76,1.2,1.09
	c0.43,0.33,0.95,0.5,1.46,0.68c0.52,0.17,0.95,0.5,1.49,0.53c0.56,0.09,1.12,0.19,1.63,0.1c0.52-0.03,1.08-0.13,1.63-0.3
	c0.54-0.17,1.04-0.52,1.44-0.71c0.51-0.29,0.96-0.56,1.38-0.89c0.41-0.39,0.68-0.81,1-1.3c0.33-0.43,0.58-0.91,0.76-1.42
	c0.19-0.46,0.14-1.04,0.24-1.6c0.03-0.54,0.14-1.04,0.1-1.62c-0.03-0.52-0.23-0.99-0.4-1.53c-0.17-0.54-0.32-1.03-0.65-1.46
	c-0.29-0.51-0.5-0.97-0.83-1.4c-0.38-0.35-0.85-0.6-1.29-0.93c-0.43-0.33-0.76-0.76-1.3-1c-0.46-0.19-1.04-0.14-1.52-0.2
	c-0.62-0.08-1.1-0.12-1.6-0.04c-0.52,0.03-1.12,0.01-1.6,0.16c-0.55,0.17-1.07,0.39-1.46,0.65c-0.51,0.29-0.88,0.6-1.31,0.93
	c-0.41,0.39-0.76,0.76-1.01,1.24c-0.33,0.43-0.58,0.91-0.69,1.41c-0.17,0.51-0.49,1.01-0.52,1.55c-0.05,0.48,0.19,1.07,0.23,1.59
	C625.8,681.87,625.89,682.37,626.05,682.92 M614.13,686.58c-0.15-0.49-0.32-1.03-0.44-1.45c-0.11-0.56,0-1.06-0.09-1.57
	c-0.02-0.52-0.12-1.02-0.14-1.55c-0.01-0.46-0.11-1.02,0-1.53c-0.03-0.52,0.16-0.98,0.28-1.47c0.03-0.54,0.22-1,0.34-1.49
	c0.11-0.5,0.3-0.96,0.48-1.47c0.19-0.46,0.24-0.94,0.49-1.41c0.19-0.46,0.52-0.89,0.77-1.37c0.21-0.39,0.46-0.87,0.75-1.22
	c0.33-0.43,0.68-0.8,0.95-1.22c0.35-0.37,0.54-0.83,0.95-1.22c0.35-0.37,0.74-0.62,1.16-0.96c0.43-0.33,0.72-0.69,1.15-1.01
	c0.37-0.31,0.88-0.6,1.26-0.85c0.39-0.25,0.85-0.46,1.38-0.69c0.39-0.25,0.79-0.64,1.2-0.83c0.53-0.22,1.09-0.13,1.55-0.34
	c0.48-0.15,0.9-0.54,1.38-0.69c0.48-0.15,0.9-0.28,1.47-0.39c0.43-0.13,0.96-0.1,1.41-0.17c0.56-0.1,1.01-0.18,1.51-0.26
	c0.46-0.01,1.02-0.12,1.48-0.13c0.52-0.03,1,0.02,1.54,0.05c0.47-0.01,0.95,0.04,1.42,0.1c0.54,0.03,1.01,0.28,1.49,0.34
	c0.44,0.13,1.06,0,1.5,0.13c0.52,0.17,0.98,0.37,1.43,0.56c0.51,0.17,0.91,0.38,1.32,0.65c0.45,0.19,0.93,0.44,1.39,0.63
	c0.42,0.27,0.79,0.62,1.14,0.9c0.43,0.33,0.89,0.52,1.26,0.87c0.41,0.27,0.75,0.7,1.12,1.05c0.31,0.37,0.58,0.81,0.83,1.2
	c0.33,0.43,0.68,0.72,0.96,1.16c0.27,0.45,0.54,0.89,0.79,1.28c0.21,0.47,0.54,0.9,0.69,1.38c0.19,0.41,0.34,0.89,0.51,1.44
	c0.15,0.48,0.29,0.97,0.45,1.45c0.1,0.57,0.07,1.11,0.16,1.61c0.02,0.52,0.24,0.99,0.2,1.53c0.03,0.52-0.08,1.02-0.11,1.56
	c-0.04,0.54-0.09,1.02-0.12,1.56c-0.11,0.5-0.22,0.99-0.38,1.57c-0.05,0.48-0.1,0.96-0.21,1.46c-0.12,0.5-0.29,1.02-0.4,1.51
	c-0.17,0.52-0.27,1.08-0.45,1.54c-0.24,0.73-0.24,0.73-0.49,1.41c-0.24,0.74-0.24,0.74-0.54,1.49c-0.26,0.67-0.26,0.67-0.5,1.41
	c-0.24,0.74-0.32,0.69-0.63,1.39c-0.24,0.74-0.22,0.8-0.48,1.47c-0.24,0.73-0.02,0.8-0.33,1.49c-0.24,0.73-0.24,0.73-0.48,1.47
	c-0.24,0.74-0.32,0.7-0.58,1.37c-0.3,0.76-0.37,0.71-0.62,1.45c-0.23,0.73-0.1,0.75-0.33,1.49c-0.3,0.75-0.37,0.71-0.62,1.45
	c-0.23,0.74-0.39,0.65-0.65,1.33c-0.3,0.75-0.14,0.84-0.4,1.51c-0.24,0.74-0.15,0.78-0.39,1.52c-0.09,0.15-0.35,0.17-0.59,0.24
	c-0.72,0.22-0.71,0.28-1.49,0.53c-0.79,0.24-0.75,0.37-1.48,0.59c-0.79,0.24-0.79,0.24-1.57,0.48c-0.73,0.22-0.73,0.22-1.52,0.47
	c-0.79,0.24-0.79,0.24-1.57,0.48c-0.73,0.23-0.76,0.1-1.61,0.37c-0.73,0.22-0.67,0.4-1.4,0.63c-0.55,0.17-1.07-0.47-0.9-0.98
	c0.32-0.69,0.33-0.63,0.57-1.37c0.26-0.68,0.32-0.69,0.51-1.35c0.32-0.69,0.3-0.75,0.55-1.43c0.26-0.67,0.26-0.67,0.44-1.39
	c0.26-0.68,0.32-0.69,0.63-1.39c0.2-0.66,0.04-0.74,0.3-1.41c0.23-0.74,0.4-0.65,0.63-1.39c0.26-0.68,0.1-0.76,0.35-1.43
	c0.24-0.74,0.24-0.74,0.44-1.39c0.31-0.7,0.53-0.63,0.77-1.37c0.13-0.44-0.36-0.95-0.84-0.8c-0.54,0.17-1.05,0.26-1.49,0.33
	c-0.49,0.15-1.04,0.32-1.55,0.35c-0.45,0.07-1-0.02-1.52,0c-0.52,0.02-0.96,0.1-1.5,0.06c-0.53,0.03-1-0.03-1.49-0.08
	c-0.56-0.09-1.08-0.27-1.51-0.4c-0.5-0.11-1.04-0.14-1.47-0.28c-0.52-0.17-0.97-0.36-1.45-0.61c-0.46-0.19-0.87-0.46-1.4-0.69
	c-0.41-0.27-0.87-0.46-1.29-0.73c-0.43-0.33-0.74-0.69-1.18-1.03c-0.37-0.35-0.78-0.62-1.12-1.04c-0.37-0.35-0.81-0.68-1.06-1.07
	c-0.33-0.43-0.64-0.79-0.91-1.24c-0.33-0.43-0.66-0.86-0.87-1.32c-0.26-0.45-0.3-0.97-0.5-1.43
	C614.6,687.5,614.28,687.07,614.13,686.58"/>
<path class="st1" d="M675.5,663.42c0.24,0.44,0.58,0.91,0.99,1.26c0.3,0.41,0.58,0.91,1,1.26c0.41,0.35,0.9,0.59,1.39,0.82
	c0.49,0.23,1.04,0.3,1.58,0.36c0.54,0.06,1.03,0.29,1.57,0.22c0.57-0.02,1.14-0.05,1.61-0.24c0.51-0.13,1.04-0.35,1.54-0.63
	c0.5-0.27,0.9-0.72,1.26-0.99c0.44-0.39,0.82-0.74,1.17-1.15c0.32-0.47,0.5-0.93,0.71-1.48c0.23-0.49,0.38-1.01,0.44-1.55
	c0.09-0.49-0.07-1.05-0.09-1.61c-0.08-0.54-0.08-1.05-0.24-1.61c-0.13-0.5-0.43-0.91-0.71-1.41c-0.28-0.5-0.52-0.94-0.94-1.3
	c-0.39-0.44-0.69-0.85-1.1-1.2c-0.44-0.26-0.95-0.41-1.44-0.65c-0.49-0.23-0.9-0.58-1.47-0.7c-0.49-0.1-1.05,0.07-1.53,0.12
	c-0.62,0.05-1.1,0.1-1.58,0.29c-0.5,0.13-1.1,0.24-1.54,0.49c-0.5,0.28-0.97,0.61-1.3,0.94c-0.43,0.39-0.73,0.77-1.08,1.18
	c-0.32,0.46-0.59,0.9-0.73,1.42c-0.24,0.49-0.39,1.01-0.39,1.52c-0.07,0.55-0.26,1.09-0.18,1.63c0.04,0.48,0.41,1.01,0.55,1.51
	C675.03,662.45,675.22,662.92,675.5,663.42 M664.57,669.47c-0.24-0.44-0.52-0.94-0.74-1.33c-0.22-0.53-0.21-1.04-0.4-1.52
	c-0.14-0.5-0.33-0.98-0.46-1.48c-0.1-0.45-0.32-0.98-0.32-1.49c-0.14-0.5-0.04-0.99-0.04-1.5c-0.08-0.54,0.01-1.02,0.02-1.53
	c0.01-0.51,0.1-1,0.16-1.54c0.09-0.49,0.04-0.97,0.19-1.48c0.1-0.48,0.33-0.98,0.48-1.49c0.12-0.43,0.28-0.95,0.49-1.35
	c0.23-0.49,0.5-0.93,0.67-1.39c0.27-0.44,0.36-0.92,0.68-1.39c0.27-0.43,0.59-0.76,0.94-1.17c0.35-0.41,0.56-0.82,0.91-1.23
	c0.3-0.38,0.73-0.77,1.06-1.1c0.33-0.33,0.74-0.62,1.21-0.96c0.33-0.33,0.65-0.79,1.01-1.06c0.47-0.33,1.03-0.36,1.44-0.66
	c0.45-0.24,0.77-0.71,1.21-0.96c0.44-0.24,0.83-0.46,1.36-0.69c0.39-0.21,0.92-0.29,1.34-0.45c0.53-0.22,0.95-0.38,1.42-0.57
	c0.45-0.1,0.98-0.32,1.43-0.43c0.51-0.14,0.98-0.18,1.52-0.26c0.45-0.1,0.93-0.16,1.41-0.2c0.54-0.08,1.05,0.07,1.53,0.02
	c0.46,0.04,1.04-0.22,1.5-0.18c0.54,0.06,1.03,0.15,1.51,0.25c0.54,0.06,0.97,0.18,1.43,0.37c0.49,0.1,1,0.24,1.49,0.33
	c0.47,0.18,0.9,0.45,1.3,0.66c0.49,0.23,0.98,0.32,1.42,0.59c0.47,0.18,0.87,0.53,1.31,0.8c0.39,0.3,0.74,0.68,1.07,1
	c0.41,0.35,0.81,0.56,1.18,0.94c0.36,0.39,0.71,0.76,1.04,1.09c0.3,0.41,0.71,0.76,0.96,1.21c0.27,0.36,0.52,0.8,0.79,1.3
	c0.25,0.44,0.49,0.89,0.74,1.33c0.22,0.53,0.3,1.06,0.49,1.54c0.13,0.5,0.43,0.92,0.51,1.46c0.14,0.5,0.13,1.01,0.2,1.55
	c0.08,0.53,0.13,1.02,0.21,1.55c-0.01,0.51-0.02,1.02-0.05,1.62c0.04,0.48,0.09,0.96,0.09,1.47c-0.01,0.51-0.07,1.05-0.08,1.56
	c-0.06,0.54-0.04,1.11-0.13,1.59c-0.08,0.77-0.08,0.77-0.19,1.48c-0.08,0.77-0.08,0.77-0.22,1.57c-0.11,0.71-0.11,0.71-0.19,1.48
	c-0.08,0.77-0.17,0.75-0.33,1.49c-0.08,0.77-0.05,0.83-0.17,1.54c-0.08,0.77,0.15,0.79-0.02,1.53c-0.08,0.77-0.08,0.77-0.16,1.54
	c-0.08,0.77-0.17,0.74-0.28,1.46c-0.14,0.8-0.22,0.77-0.3,1.54c-0.08,0.77,0.06,0.76-0.02,1.53c-0.13,0.8-0.22,0.77-0.3,1.55
	c-0.08,0.77-0.25,0.72-0.36,1.43c-0.13,0.8,0.04,0.85-0.08,1.56c-0.08,0.77,0,0.8-0.08,1.57c-0.05,0.17-0.3,0.24-0.52,0.36
	c-0.66,0.37-0.63,0.43-1.35,0.83c-0.72,0.4-0.66,0.51-1.32,0.87c-0.72,0.4-0.72,0.4-1.44,0.8c-0.67,0.37-0.67,0.37-1.39,0.77
	c-0.72,0.4-0.72,0.4-1.44,0.8c-0.66,0.37-0.73,0.26-1.5,0.69c-0.67,0.37-0.57,0.53-1.24,0.9c-0.5,0.27-1.15-0.23-1.08-0.78
	c0.16-0.75,0.2-0.69,0.28-1.46c0.11-0.71,0.17-0.74,0.22-1.43c0.17-0.75,0.14-0.8,0.25-1.51c0.12-0.71,0.12-0.71,0.14-1.45
	c0.11-0.71,0.17-0.75,0.33-1.49c0.06-0.68-0.12-0.73,0-1.44c0.08-0.77,0.25-0.72,0.33-1.49c0.12-0.71-0.06-0.76,0.05-1.48
	c0.08-0.77,0.08-0.77,0.13-1.45c0.17-0.74,0.4-0.73,0.48-1.5c0.04-0.46-0.55-0.86-0.99-0.61c-0.5,0.27-0.97,0.46-1.39,0.62
	c-0.44,0.24-0.94,0.52-1.45,0.66c-0.42,0.16-0.99,0.18-1.49,0.32c-0.51,0.13-0.92,0.29-1.46,0.37c-0.5,0.14-0.98,0.18-1.46,0.23
	c-0.57,0.02-1.11-0.04-1.57-0.08c-0.51,0-1.05,0.07-1.5,0.04c-0.54-0.06-1.02-0.16-1.54-0.3c-0.49-0.09-0.95-0.27-1.52-0.39
	c-0.46-0.18-0.95-0.27-1.41-0.45c-0.49-0.23-0.87-0.53-1.36-0.77c-0.44-0.26-0.9-0.44-1.31-0.79c-0.44-0.27-0.93-0.5-1.26-0.83
	c-0.41-0.35-0.79-0.65-1.15-1.03c-0.41-0.35-0.82-0.7-1.13-1.11c-0.35-0.39-0.49-0.89-0.79-1.3
	C665.23,670.27,664.82,669.91,664.57,669.47"/>
<path class="st1" d="M737.73,627.9c-0.33-0.38-0.57-0.85-0.96-1.19c-0.38-0.43-0.76-0.68-1.1-1.06c-0.42-0.39-0.8-0.72-1.14-1.02
	c-0.38-0.34-0.85-0.69-1.24-0.93c-0.43-0.3-0.86-0.59-1.29-0.89c-0.48-0.26-1.01-0.29-1.45-0.41c-0.57-0.26-1-0.47-1.44-0.59
	c-0.45-0.12-0.94-0.19-1.51-0.28c-0.45-0.03-0.94-0.02-1.39,0.04c-0.59,0.1-1,0.2-1.46,0.36c-0.5,0.1-0.92,0.3-1.38,0.54
	c-0.37,0.24-0.84,0.57-1.18,0.87c-0.38,0.33-0.63,0.72-0.97,1.11c-0.25,0.39-0.55,0.81-0.71,1.3c-0.21,0.44-0.55,0.82-0.67,1.26
	c-0.07,0.49-0.02,1.03-0.1,1.52c0.05,0.54,0.02,0.99,0.08,1.53c0.06,0.45,0.12,0.91,0.3,1.5c0.11,0.41,0.16,0.96,0.32,1.41
	c0.24,0.46,0.52,0.89,0.76,1.35c0.2,0.42,0.39,1.01,0.67,1.43c0.2,0.42,0.57,0.76,0.91,1.22c0.33,0.38,0.38,0.93,0.76,1.35
	c0.33,0.38,0.71,0.72,1.04,1.1c0.38,0.43,0.81,0.73,1.14,1.11c0.38,0.34,0.61,0.89,0.95,1.19c0.38,0.34,0.76,0.68,1.19,1.06
	c0.38,0.34,0.96,0.42,1.35,0.67c0.47,0.34,0.9,0.64,1.34,0.85c0.43,0.29,0.86,0.59,1.34,0.76c0.44,0.21,0.97,0.24,1.45,0.41
	c0.49,0.08,0.97,0.24,1.42,0.27c0.54,0.04,1.08-0.02,1.53-0.08c0.45-0.06,0.94-0.07,1.4-0.22c0.47-0.15,0.93-0.48,1.31-0.72
	c0.46-0.24,0.88-0.43,1.26-0.77c0.34-0.3,0.68-0.76,0.97-1.1c0.3-0.43,0.71-0.72,0.93-1.15c0.21-0.44,0.2-0.93,0.41-1.46
	c0.08-0.49,0.28-0.92,0.23-1.47c0.03-0.45-0.16-0.95-0.22-1.49c-0.1-0.5-0.16-0.95-0.26-1.45c-0.1-0.5-0.25-0.96-0.49-1.51
	c-0.19-0.41-0.25-0.96-0.45-1.38c-0.28-0.51-0.61-0.89-0.9-1.32c-0.29-0.42-0.43-0.97-0.71-1.39c-0.25-0.38-0.62-0.81-0.96-1.18
	C738.48,628.67,738.1,628.33,737.73,627.9 M715.07,647.7c-0.34-0.38-0.58-0.84-0.86-1.27c-0.33-0.38-0.67-0.76-1-1.14
	c-0.29-0.42-0.53-0.89-0.81-1.31c-0.28-0.43-0.53-0.8-0.81-1.22c-0.24-0.47-0.48-0.93-0.68-1.34c-0.24-0.47-0.61-0.89-0.81-1.31
	c-0.19-0.51-0.35-0.96-0.49-1.42c-0.24-0.47-0.39-0.92-0.58-1.43c-0.1-0.5-0.25-0.96-0.4-1.42c-0.1-0.5-0.21-1-0.31-1.5
	c-0.06-0.45-0.07-1.04-0.13-1.49c-0.05-0.54-0.06-1.04-0.08-1.53c-0.02-0.49-0.12-1-0.09-1.44c0.04-0.54,0.16-1.07,0.15-1.56
	c0.07-0.49,0.33-0.97,0.45-1.4c0.08-0.49,0.02-1.04,0.19-1.52c0.16-0.48,0.33-0.96,0.54-1.4c0.17-0.48,0.37-0.92,0.58-1.36
	c0.21-0.44,0.59-0.86,0.8-1.29c0.26-0.39,0.42-0.87,0.72-1.3c0.25-0.39,0.63-0.81,0.93-1.15c0.29-0.43,0.5-0.86,0.84-1.25
	c0.29-0.34,0.85-0.57,1.23-0.9c0.29-0.34,0.63-0.72,1.01-1.06c0.33-0.3,0.68-0.77,1.06-1.1c0.38-0.24,0.92-0.39,1.3-0.63
	c0.42-0.29,0.8-0.53,1.31-0.81c0.38-0.24,0.72-0.63,1.18-0.87c0.42-0.19,0.89-0.43,1.39-0.63c0.42-0.19,0.92-0.3,1.38-0.45
	c0.5-0.1,0.92-0.39,1.38-0.45c0.51-0.19,1-0.2,1.5-0.31c0.54-0.06,1-0.2,1.45-0.26c0.49-0.01,1.03,0.02,1.53,0.01
	c0.53,0.03,1.03-0.07,1.48-0.04c0.54,0.04,0.97,0.24,1.51,0.28c0.45,0.12,1.03,0.11,1.51,0.19c0.44,0.12,0.92,0.47,1.4,0.54
	c0.48,0.16,1.02,0.2,1.46,0.41c0.48,0.16,0.87,0.42,1.35,0.67c0.44,0.21,1.02,0.2,1.49,0.45c0.39,0.25,0.82,0.55,1.29,0.8
	c0.39,0.25,0.82,0.55,1.25,0.84c0.38,0.34,0.72,0.72,1.1,1.06c0.43,0.3,0.86,0.51,1.25,0.84c0.39,0.34,0.62,0.8,0.96,1.18
	c0.38,0.34,0.81,0.64,1.14,1.02c0.33,0.38,0.72,0.72,1.05,1.1c0.33,0.38,0.62,0.8,0.96,1.18c0.28,0.43,0.57,0.85,0.91,1.22
	c0.28,0.43,0.61,0.8,0.91,1.23c0.28,0.42,0.43,0.88,0.72,1.3c0.23,0.46,0.7,0.81,0.9,1.22c0.24,0.47,0.48,0.93,0.68,1.35
	c0.24,0.46,0.43,0.97,0.58,1.43c0.24,0.47,0.24,1.05,0.39,1.51c0.15,0.45,0.34,0.96,0.49,1.42c0.1,0.5,0.16,0.96,0.27,1.46
	c0.06,0.54,0.11,0.99,0.22,1.49c0.01,0.5,0.06,1.04,0.08,1.53c0.02,0.5,0.12,1,0.13,1.49c-0.04,0.53-0.11,1.02-0.19,1.51
	c0.01,0.5-0.33,0.97-0.41,1.46c-0.12,0.53-0.11,1.02-0.28,1.51c-0.12,0.44-0.42,0.87-0.59,1.35c-0.16,0.48-0.37,0.92-0.57,1.36
	c-0.21,0.43-0.42,0.87-0.71,1.3c-0.26,0.48-0.42,0.96-0.67,1.35c-0.3,0.43-0.63,0.72-0.93,1.15c-0.34,0.38-0.63,0.81-0.93,1.15
	c-0.34,0.38-0.68,0.76-1.01,1.06c-0.34,0.38-0.81,0.71-1.14,1c-0.38,0.34-0.72,0.71-1.06,1.01c-0.42,0.28-0.89,0.61-1.27,0.86
	c-0.43,0.29-0.8,0.62-1.18,0.87c-0.47,0.24-1.01,0.38-1.43,0.58c-0.41,0.2-0.79,0.53-1.3,0.72c-0.46,0.15-0.93,0.48-1.39,0.63
	c-0.46,0.15-0.99,0.12-1.44,0.18c-0.46,0.15-0.95,0.16-1.5,0.3c-0.5,0.1-0.97,0.25-1.46,0.27c-0.45,0.06-0.95,0.16-1.49,0.12
	c-0.5,0.02-1.02-0.2-1.56-0.23c-0.45-0.03-0.99,0.12-1.48,0.04c-0.49-0.08-0.97-0.24-1.46-0.32c-0.48-0.17-1.02-0.29-1.5-0.46
	c-0.44-0.12-0.92-0.28-1.4-0.45c-0.48-0.17-0.92-0.37-1.35-0.58c-0.48-0.26-0.92-0.46-1.34-0.76c-0.44-0.2-0.91-0.46-1.34-0.76
	c-0.39-0.25-0.72-0.63-1.2-0.89c-0.43-0.3-0.81-0.64-1.24-0.93c-0.38-0.34-0.77-0.59-1.15-0.93c-0.39-0.34-0.86-0.59-1.24-0.93
	c-0.38-0.34-0.66-0.76-1.05-1.1C715.78,648.42,715.4,648.08,715.07,647.7"/>
<path class="st1" d="M767.65,600.14c-4.14-3.03-4.72-8.15-1.76-12.19c2.91-3.99,7.97-5.01,12.11-1.98c4.14,3.02,4.67,8.11,1.75,12.1
	C776.8,602.11,771.79,603.16,767.65,600.14"/>
<path class="st1" d="M690.56,577.73c-43.42,37.63-98.91,56.1-156.22,52.01c-23.02-1.64-44.92-6.88-65.24-15.11
	c-2.4,1.07-5.02,1.79-7.85,2.04c-2.01,0.18-3.97,0.27-5.86,0.27c-3.2,0-6.2-0.29-9.03-0.8c26.35,13.59,55.81,22.19,87.21,24.43
	c5.5,0.39,10.98,0.59,16.44,0.59c54.31,0,106.22-19.3,147.67-55.23c19.99-17.33,36.5-37.62,49.1-60.01
	c-6.22,5.92-13.72,10.88-22.25,14.64C714.81,554.08,703.45,566.56,690.56,577.73"/>
<path class="st1" d="M879.47,519.31c-0.04-0.01-0.07-0.01-0.1-0.02c-1.76-0.38-3.51-0.79-5.22-1.26c0,0,0,0,0,0
	c-18.69,59.33-53.4,112.53-101.59,154.3c-68.69,59.53-156.44,88.75-247.13,82.28c-120.34-8.59-221.7-79.13-275.23-178.13
	c-5.47-1.76-11.16-4.93-16.73-8.87c53,109.47,161.4,188.57,291.19,197.83c8.55,0.61,17.06,0.92,25.54,0.92
	c84.39,0,165.06-30,229.47-85.82c50.01-43.34,85.95-98.6,105.16-160.23C883.01,520.01,881.23,519.68,879.47,519.31"/>
<path class="st1" d="M224.49,295.46c1.3,0.99,3.23,1.99,5.4,3.03c19.53-53.77,52.47-101.99,96.89-140.49
	c62.42-54.1,140.59-83.17,222.37-83.17c8.22,0,16.47,0.3,24.75,0.89c90.67,6.47,173.39,47.87,232.92,116.56
	c35.9,41.42,60.75,89.77,73.43,141.51c3.12-2.06,6.37-4.02,9.75-5.87c-13.32-52.16-38.68-100.89-74.96-142.75
	c-61.44-70.88-146.8-113.6-240.36-120.28c-158.95-11.33-301.03,85.51-354.07,227.8C221.91,293.57,223.21,294.49,224.49,295.46"/>
<path class="st1" d="M360.54,312.54c12.18-22.42,28.37-42.73,48.22-59.94c39.46-34.2,88.87-52.57,140.57-52.57
	c5.19,0,10.42,0.18,15.65,0.56c81.41,5.81,149.12,56.46,180.69,126.02l2.11,0.25c3.47,0.31,6.92,0.71,10.37,1.2
	c-31.95-76.11-104.58-132.04-192.39-138.31c-60.22-4.29-118.49,15.1-164.11,54.64c-20.73,17.96-37.65,39.14-50.41,62.5
	C354.53,308.48,357.65,310.37,360.54,312.54"/>
</svg>
