<?xml version="1.0" encoding="utf-8"?>
<!-- Generator: Adobe Illustrator 24.3.0, SVG Export Plug-In . SVG Version: 6.00 Build 0)  -->
<svg version="1.1" id="Layer_1" xmlns="http://www.w3.org/2000/svg" xmlns:xlink="http://www.w3.org/1999/xlink" x="0px" y="0px"
	 viewBox="0 0 1399 963" style="enable-background:new 0 0 1399 963;" xml:space="preserve">
<style type="text/css">
	.st0{fill:#FFFFFF;}
</style>
<g id="Backgrounds">
	<path class="st0" d="M469.9,307.5c0.3,0.4,0.7,0.7,1.1,1.1c0.4,0.3,0.6,0.8,0.9,1.1c0.4,0.3,0.7,0.7,1.1,1c0.3,0.4,0.8,0.7,1.1,0.9
		c0.3,0.4,0.6,0.9,1,1.2c0.3,0.3,0.8,0.5,1.2,0.9c0.3,0.4,0.6,0.8,0.9,1.2c0.4,0.3,0.8,0.6,1.2,1c0.3,0.3,0.7,0.6,1.1,1
		c0.3,0.3,0.7,0.7,1.1,1c0.1,0.1,0.5,0.1,0.6,0c0.4-0.5,0.4-0.5,0.8-1c0.4-0.5,0.5-0.4,1-0.9c0.1-0.1,0.3-0.3,0.4-0.2
		c0.6,0.5,0.5,0.7,1.1,1.2s0.5,0.5,1.1,1c0.6,0.5,0.7,0.3,1.3,0.8c0.6,0.5,0.5,0.5,1.1,1c0.6,0.5,0.6,0.5,1.2,1
		c0.1,0.1,0.2,0.4,0.1,0.5c-0.5,0.6-0.4,0.6-0.9,1.1c-0.5,0.6-0.6,0.4-1.1,1c-0.5,0.6-0.4,0.6-0.9,1.1c-0.5,0.6-0.4,0.6-0.9,1.1
		c-0.5,0.6-0.6,0.6-1,1.1s-0.5,0.5-1,1.1c-0.5,0.6-0.3,0.7-0.8,1.2c-0.5,0.6-0.6,0.4-1.1,1c-0.5,0.6-0.4,0.6-0.9,1.2
		c-0.5,0.6-0.4,0.6-0.9,1.2c-0.5,0.6-0.6,0.5-1,1c-0.1,0.1-0.3,0.2-0.5,0.1c-0.6-0.5-0.6-0.5-1.2-0.9c-0.6-0.5-0.6-0.5-1.2-1
		c-0.6-0.5-0.5-0.6-1.1-1.1c-0.6-0.5-0.5-0.6-1.1-1.1c-0.6-0.5-0.6-0.4-1.2-0.9c-0.1-0.1-0.3-0.4-0.2-0.6c0.4-0.5,0.5-0.3,1-0.8
		c0.4-0.5,0.3-0.5,0.7-1c0.1-0.1,0.1-0.4,0-0.5c-0.3-0.4-0.8-0.6-1.2-0.9c-0.4-0.3-0.7-0.8-1.1-1.1c-0.4-0.4-0.8-0.7-1.2-1
		c-0.3-0.4-0.6-0.8-1-1.2c-0.4-0.3-0.7-0.7-1.1-1.1c-0.4-0.3-0.7-0.7-1.2-1.1c-0.3-0.4-0.7-0.8-1.1-1.1c-0.3-0.4-0.8-0.7-1.2-1
		c-0.4-0.3-0.7-0.8-1.1-1.1c-0.4-0.3-0.8-0.7-1.2-1c-0.4-0.3-0.6-0.8-1-1.1c-0.3-0.4-0.8-0.6-1.2-1c-0.4-0.3-0.7-0.8-1-1.1
		c-0.4-0.3-0.8-0.6-1.2-0.9c-0.4-0.3-0.7-0.7-1.1-1c-0.4-0.4-0.7-0.8-1.1-1.1c-0.4-0.3-0.8-0.6-1.2-1c-0.4-0.3-0.7-0.8-1.1-1.1
		c-0.3-0.4-0.7-0.8-1.1-1.1c-0.1-0.1-0.3-0.1-0.4,0c-0.6,0.7-0.5,0.8-1.1,1.5c-0.6,0.6-0.6,0.6-1.2,1.2c-0.1,0.1-0.4,0.2-0.5,0
		c-0.6-0.5-0.6-0.5-1.2-0.9s-0.5-0.6-1.1-1.2c-0.6-0.5-0.7-0.4-1.3-0.9c-0.6-0.5-0.4-0.7-1-1.2c-0.6-0.5-0.7-0.4-1.3-0.9
		c-0.1-0.1-0.1-0.3,0-0.4c0.1-0.2,0.4-0.4,0.6-0.6c0.3-0.4,0.7-0.8,1-1.2c0.3-0.4,0.6-0.8,0.9-1.2c0.3-0.4,0.7-0.7,1-1.1
		c0.3-0.4,0.5-0.9,0.8-1.2c0.3-0.4,0.6-0.8,0.9-1.2c0.3-0.4,0.8-0.6,1.1-1c0.3-0.4,0.5-0.9,0.9-1.3c0.3-0.4,0.7-0.7,1-1.1
		c0.3-0.4,0.6-0.8,0.9-1.1c0.6-0.7,1.2-0.8,2-0.6c0.5,0.1,1,0.3,1.5,0.4c0.5,0.1,1,0.2,1.5,0.3c0.5,0.2,1,0.1,1.5,0.3
		c0.5,0.1,1,0.2,1.4,0.4c0.5,0.1,1,0.3,1.5,0.4c0.5,0.2,1,0.4,1.4,0.6c0.5,0.1,0.9,0.4,1.5,0.5c0.5,0.2,1,0.1,1.5,0.2
		c0.5,0.1,1,0.3,1.5,0.4c0.5,0.2,0.9,0.5,1.4,0.7c0.4,0.1,0.8,0.3,1.2,0.5c0.4,0.1,0.9,0.1,1.3,0.3c0.4,0.1,0.8,0.3,1.3,0.5
		c0.4,0.1,0.9,0.2,1.3,0.3s0.8,0.2,1.2,0.3c0.4,0.1,0.7,0.3,1.2,0.4c0.3,0.1,0.7,0.3,1.1,0.4c0.4,0.1,0.9,0,1.2-0.1
		c0.5-0.2,0.4-0.8,0.3-1.1c-0.2-0.5-0.6-0.9-0.7-1.4c-0.2-0.4-0.4-0.9-0.6-1.4c-0.2-0.4-0.3-0.9-0.5-1.5c-0.2-0.4-0.7-0.8-0.9-1.3
		c-0.2-0.4-0.3-0.9-0.5-1.4c-0.2-0.5-0.5-0.9-0.7-1.3c-0.3-0.5-0.6-0.9-0.7-1.4c-0.3-0.5-0.4-0.9-0.6-1.4c-0.2-0.4-0.5-0.9-0.7-1.3
		c-0.3-0.5-0.4-0.9-0.7-1.4c-0.3-0.5-0.4-1-0.6-1.4c-0.3-0.5-0.5-0.9-0.7-1.4c-0.3-0.5-0.6-0.9-0.8-1.4c-0.2-0.4-0.3-0.9-0.4-1.4
		c-0.3-0.5-0.5-0.9-0.8-1.4c-0.2-0.5-0.3-1-0.5-1.4c-0.3-0.8-0.3-1.4,0.3-2c0.3-0.4,0.7-0.6,1-1c0.3-0.4,0.5-0.9,0.8-1.2
		c0.3-0.3,0.7-0.6,1-1c0.3-0.4,0.6-0.7,0.9-1.1c0.3-0.4,0.8-0.6,1.1-1c0.3-0.3,0.4-0.8,0.8-1.2c0.3-0.4,0.6-0.7,0.9-1
		c0.3-0.4,0.6-0.7,0.9-1.1c0.3-0.4,0.7-0.7,1-1.1c0.2-0.2,0.4-0.4,0.6-0.6c0.1-0.1,0.3-0.3,0.5-0.2c0.6,0.5,0.6,0.5,1.2,1
		c0.6,0.5,0.5,0.6,1,1.1c0.6,0.5,0.7,0.3,1.4,0.9c0.6,0.5,0.5,0.6,1.1,1.1c0.6,0.5,0.6,0.4,1.2,0.9c0.1,0.1,0.2,0.5,0.1,0.6
		c-0.6,0.7-0.7,0.6-1.3,1.2c-0.6,0.7-0.6,0.7-1.1,1.4c-0.1,0.1-0.1,0.3,0.1,0.4c0.4,0.3,0.9,0.6,1.3,0.9c0.4,0.4,0.6,0.9,1,1.2
		c0.4,0.3,0.9,0.5,1.4,0.8c0.4,0.3,0.7,0.8,1.1,1.1c0.4,0.3,0.8,0.6,1.2,0.9c0.4,0.3,0.8,0.6,1.3,0.9c0.4,0.3,0.8,0.7,1.2,1
		c0.4,0.3,0.9,0.6,1.3,0.9c0.4,0.3,0.7,0.7,1.1,1c0.4,0.3,0.9,0.6,1.3,0.9c0.4,0.3,0.9,0.6,1.2,0.9c0.4,0.3,0.8,0.6,1.3,0.9
		c0.4,0.3,0.9,0.6,1.3,0.9c0.4,0.3,0.7,0.8,1.1,1.1c0.4,0.3,0.7,0.7,1.1,1c0.4,0.3,1,0.4,1.4,0.7c0.4,0.3,0.7,0.8,1.1,1.2
		c0.4,0.3,0.9,0.5,1.3,0.9c0.4,0.3,0.9,0.5,1.3,0.9c0.1,0.1,0.3,0.1,0.4-0.1c0.4-0.5,0.5-0.4,0.9-0.8c0.4-0.5,0.4-0.5,0.8-1
		c0.1-0.1,0.2-0.1,0.4,0.1c0.6,0.5,0.8,0.3,1.3,0.8c0.6,0.5,0.5,0.6,1.1,1.1c0.6,0.5,0.6,0.5,1.2,1c0.6,0.5,0.4,0.7,1,1.2
		s0.7,0.3,1.3,0.8c0.1,0.1,0.1,0.4,0,0.6c-0.5,0.5-0.5,0.5-1,1.1c-0.4,0.5-0.4,0.6-0.9,1.1c-0.5,0.6-0.4,0.6-0.9,1.1
		c-0.5,0.6-0.5,0.5-1,1.1c-0.4,0.5-0.4,0.5-0.9,1.1c-0.5,0.6-0.4,0.6-0.8,1.1c-0.5,0.6-0.5,0.6-0.9,1.1c-0.4,0.5-0.5,0.5-1,1
		c-0.5,0.6-0.6,0.5-1,1c-0.5,0.5-0.5,0.5-1,1.1c-0.4,0.5-0.4,0.5-0.9,1.1c-0.5,0.6-0.6,0.5-1,1c-0.2,0.2-0.2,0.3-0.4,0.2
		c-0.6-0.5-0.5-0.6-1.1-1.1c-0.6-0.5-0.6-0.5-1.2-1c-0.6-0.5-0.6-0.5-1.2-1c-0.6-0.5-0.6-0.5-1.2-1c-0.6-0.5-0.6-0.4-1.2-0.9
		c-0.1-0.1-0.3-0.4-0.1-0.6c0.4-0.5,0.5-0.3,1-0.8c0.4-0.5,0.5-0.4,1-0.9c0.1-0.1,0-0.5-0.2-0.6c-0.4-0.3-0.7-0.7-1.1-1
		s-0.9-0.4-1.3-0.8c-0.4-0.3-0.8-0.6-1.2-0.9c-0.4-0.3-0.7-0.7-1.1-1c-0.4-0.3-0.8-0.7-1.2-0.9c-0.3-0.2-0.6-0.6-1-0.9
		c-0.4-0.2-0.8-0.5-1.1-0.8c-0.4-0.3-0.7-0.6-1.1-0.9c-0.5-0.4-1.1-0.8-1.5-1.3c-0.3-0.3-0.9-0.6-0.9,0.1c-0.1,0.6,0.3,1.3,0.6,1.9
		c0.1,0.3,0.2,0.9,0.5,1.4c0.3,0.5,0.6,0.9,0.7,1.3c0.2,0.5,0.4,0.9,0.5,1.4c0.2,0.5,0.4,1,0.6,1.5c0.1,0.5,0.4,0.9,0.6,1.4
		c0.2,0.2,0.4,0.7,0.5,1.2c0.1,0.5,0.3,1,0.4,1.2c0.1,0.4,0.4,0.8,0.5,1.2c0.2,0.4,0.3,0.8,0.4,1.2c0.2,0.5,0.4,1,0.6,1.5
		c0.1,0.5,0.4,1,0.5,1.5c0.2,0.5,0.3,1.1,0.6,1.6c0.1,0.3,0.3,0.9,0.3,1.3c0.1,0.5,0,0.9-0.1,1.3c-0.2,0.3-0.3,0.7-0.7,0.8
		c-0.3,0.1-0.7,0-1,0c-0.5-0.1-1-0.3-1.5-0.4c-0.5-0.1-1.1,0.1-1.6,0c-0.5-0.1-1-0.2-1.6-0.3c-0.5-0.1-1-0.4-1.5-0.5
		c-0.5-0.1-1-0.3-1.5-0.4c-0.5-0.1-1.1,0-1.6-0.1c-0.5-0.1-1-0.3-1.6-0.4c-0.5-0.1-1-0.2-1.5-0.3c-0.5-0.1-1-0.3-1.5-0.4
		c-0.5-0.1-1-0.2-1.5-0.3c-0.5-0.1-1-0.3-1.5-0.4c-0.6-0.1-1-0.2-1.5-0.3c-0.5-0.1-1.1,0-1.6-0.1c-0.5-0.1-1-0.3-1.5-0.4
		c-0.2,0-0.4-0.1-0.6-0.1C469.7,307,469.6,307.3,469.9,307.5"/>
	<path class="st0" d="M504,270.1c-0.3-0.4-0.7-0.8-1-1.2c-0.3-0.5-0.4-0.9-0.7-1.4c-0.3-0.4-0.5-0.9-0.7-1.4
		c-0.3-0.4-0.4-0.9-0.6-1.4c-0.2-0.5-0.4-0.9-0.6-1.4c-0.2-0.5-0.4-0.9-0.6-1.4c-0.2-0.5-0.3-1-0.4-1.5c-0.1-0.5-0.2-1-0.2-1.5
		c-0.1-0.5,0-1,0-1.5c-0.1-0.5-0.1-1-0.1-1.5c0-0.5-0.2-1.1-0.2-1.5c0.1-0.5,0-1.1,0.1-1.5c0.1-0.5,0.3-1,0.4-1.4
		c0.1-0.6,0.1-1,0.3-1.5c0.1-0.5,0.1-1,0.2-1.5c0.2-0.5,0.3-1,0.5-1.4c0.2-0.5,0.4-0.9,0.5-1.4c0.2-0.5,0.4-0.9,0.7-1.3
		c0.3-0.4,0.7-0.8,0.9-1.2c0.3-0.4,0.5-0.8,0.8-1.2c0.3-0.4,0.6-0.8,0.9-1.2c0.3-0.4,0.5-0.9,0.9-1.2c0.3-0.4,0.8-0.6,1.1-0.9
		c0.3-0.3,0.7-0.7,1.1-1c0.3-0.3,0.8-0.6,1.2-0.9c0.4-0.3,0.6-0.8,1-1.1c0.4-0.3,0.9-0.4,1.3-0.6c0.4-0.3,0.9-0.4,1.3-0.6
		c0.5-0.2,0.7-0.6,1.2-0.8c0.5-0.2,1-0.3,1.4-0.5c0.4-0.2,0.9-0.3,1.4-0.5c0.5-0.1,1-0.2,1.5-0.3c0.5-0.1,0.9-0.3,1.4-0.3
		c0.5-0.1,0.9-0.3,1.4-0.3c0.5-0.1,1,0,1.5,0c0.5,0,1,0,1.5,0c0.5,0,1-0.1,1.5,0c0.5,0,1,0,1.5,0.1c0.4,0.1,1,0.3,1.5,0.4
		s0.9,0.1,1.5,0.3c0.5,0.1,1,0.3,1.5,0.4c0.5,0.2,1,0.3,1.4,0.5c0.5,0.2,0.8,0.7,1.3,0.9c0.5,0.2,1,0.3,1.4,0.6
		c0.4,0.2,0.8,0.6,1.2,0.9c0.5,0.3,0.9,0.5,1.3,0.9c0.4,0.3,0.9,0.5,1.3,0.9c0.4,0.4,0.7,0.7,1.1,1.1c0.4,0.4,0.6,0.9,1,1.3
		c0.3,0.4,0.7,0.7,1,1.1c0.3,0.4,0.6,0.8,0.8,1.3c0.3,0.4,0.5,0.9,0.8,1.3c0.3,0.4,0.6,0.8,0.8,1.3c0.2,0.5,0.6,0.9,0.9,1.3
		c0.2,0.5,0.2,1,0.4,1.5c0.2,0.5,0.3,1,0.5,1.5c0.1,0.5,0.4,0.9,0.5,1.5c0.1,0.5,0.2,1,0.3,1.5c0.1,0.5,0.2,1,0.3,1.6
		c0,0.5,0,1,0,1.5c0,0.5-0.2,1-0.1,1.5c-0.1,0.5,0.1,1,0,1.5c-0.1,0.5-0.2,1-0.2,1.5c-0.1,0.5-0.4,0.9-0.5,1.4s-0.2,1-0.4,1.5
		c-0.1,0.4-0.1,1-0.3,1.5c-0.2,0.5-0.5,0.8-0.8,1.3c-0.2,0.4-0.2,1-0.5,1.4c-0.3,0.4-0.6,0.7-0.9,1.2c-0.3,0.4-0.5,0.9-0.8,1.3
		c-0.3,0.4-0.5,0.8-0.8,1.2c-0.3,0.3-0.6,0.8-0.9,1.2c-0.3,0.3-0.8,0.6-1.2,0.9c-0.3,0.3-0.7,0.6-1.1,1c-0.4,0.3-0.7,0.7-1.1,1
		c-0.4,0.3-0.7,0.7-1.2,1c-0.4,0.3-0.8,0.5-1.2,0.8c-0.4,0.3-1,0.3-1.4,0.5c-0.4,0.2-0.8,0.6-1.2,0.8c-0.5,0.2-1,0.2-1.5,0.4
		c-0.5,0.2-0.9,0.6-1.3,0.7c-0.5,0.1-1,0.3-1.5,0.4c-0.4,0.1-1,0.1-1.5,0.2c-0.5,0.1-0.9,0.3-1.4,0.3c-0.5,0.1-1-0.2-1.5-0.1
		c-0.5,0-1,0.2-1.5,0.3c-0.5,0-1,0-1.5-0.1c-0.5,0-1-0.3-1.5-0.4c-0.5,0-1,0.1-1.5,0c-0.5-0.1-0.9-0.4-1.4-0.6
		c-0.5-0.1-1-0.1-1.5-0.3c-0.5-0.1-0.9-0.4-1.3-0.6s-1-0.4-1.4-0.6c-0.5-0.3-1-0.4-1.4-0.7c-0.4-0.2-0.7-0.7-1.2-1
		c-0.5-0.3-1-0.4-1.4-0.7c-0.4-0.3-0.7-0.7-1.1-1.1c-0.4-0.4-0.7-0.9-1-1.2c-0.4-0.4-0.8-0.6-1.2-1
		C504.6,270.9,504.3,270.5,504,270.1 M532.3,248.3c-0.3-0.4-0.8-0.8-1.1-1.1c-0.4-0.4-0.6-0.9-1-1.2c-0.4-0.4-0.8-0.7-1.2-1.1
		c-0.4-0.2-0.9-0.6-1.3-0.9c-0.4-0.2-0.9-0.5-1.4-0.7c-0.5-0.2-1-0.3-1.5-0.4c-0.5-0.1-1-0.2-1.5-0.3c-0.5,0-1-0.1-1.5-0.1
		c-0.5,0-1.1-0.1-1.6-0.1c-0.5,0.1-1,0.2-1.5,0.3c-0.4,0.2-0.8,0.5-1.3,0.7c-0.5,0.2-0.9,0.4-1.3,0.7c-0.4,0.3-0.9,0.4-1.3,0.7
		c-0.4,0.3-0.7,0.7-1.1,1c-0.3,0.3-0.6,0.8-0.9,1.2c-0.3,0.4-0.5,0.8-0.8,1.2c-0.3,0.4-0.5,0.9-0.7,1.3c-0.2,0.5-0.3,1-0.5,1.4
		c-0.1,0.5-0.4,1-0.5,1.4c0,0.5,0,1.1,0,1.6c0,0.5,0.1,1,0.2,1.6c0.1,0.5,0.3,1,0.4,1.4c0.2,0.6,0.1,1.1,0.4,1.6
		c0.2,0.5,0.4,0.9,0.7,1.5c0.3,0.4,0.5,0.9,0.7,1.4c0.3,0.4,0.8,0.8,1.2,1.2c0.3,0.4,0.6,0.8,0.9,1.2c0.4,0.5,0.7,0.9,1.1,1.3
		c0.4,0.3,1,0.5,1.4,0.8c0.4,0.4,0.9,0.7,1.3,0.9c0.5,0.3,0.9,0.4,1.4,0.6c0.5,0.3,1,0.6,1.5,0.7c0.5,0.1,1,0.2,1.5,0.3
		c0.5,0.2,1,0,1.5,0c0.5,0,1.1,0.1,1.5,0c0.5-0.1,1-0.1,1.5-0.3c0.5-0.1,0.9-0.4,1.4-0.6c0.5-0.2,0.9-0.5,1.3-0.7
		c0.4-0.3,0.9-0.4,1.3-0.8c0.4-0.3,0.7-0.7,1-1c0.4-0.3,0.7-0.7,1-1.1c0.3-0.3,0.5-0.8,0.8-1.2c0.3-0.4,0.7-0.8,0.9-1.2
		c0.2-0.5,0.2-1,0.3-1.5c0.1-0.5,0.4-1,0.4-1.5c0.1-0.5,0-1,0-1.5c0-0.5-0.2-1-0.2-1.5c-0.1-0.6-0.1-1.1-0.3-1.6
		c-0.1-0.5-0.2-1-0.4-1.5c-0.2-0.5-0.5-0.9-0.7-1.4c-0.2-0.5-0.4-0.9-0.7-1.5C533,249.1,532.6,248.7,532.3,248.3"/>
	<path class="st0" d="M551.4,234.9c-0.2-0.5-0.5-0.9-0.7-1.3c-0.2-0.5-0.2-1-0.4-1.5c-0.2-0.5-0.3-1-0.5-1.5c-0.2-0.5-0.2-1-0.3-1.5
		c-0.1-0.5-0.2-1-0.3-1.5c-0.1-0.5-0.2-1-0.3-1.5c-0.1-0.5-0.1-1-0.1-1.6c0-0.5,0-1,0.1-1.5c0-0.5,0.2-0.9,0.3-1.5
		c0-0.5,0.1-1,0.2-1.5c0.1-0.5,0-1.1,0.1-1.6c0.2-0.5,0.2-1,0.4-1.5c0.2-0.5,0.5-0.9,0.7-1.3c0.2-0.5,0.3-1,0.6-1.4
		c0.2-0.4,0.3-0.9,0.5-1.4c0.3-0.4,0.5-0.9,0.8-1.3c0.3-0.4,0.5-0.8,0.8-1.2s0.6-0.8,0.9-1.2c0.3-0.4,0.8-0.6,1.1-1
		c0.3-0.4,0.7-0.7,1-1.1c0.4-0.3,0.7-0.6,1.1-1c0.4-0.3,0.7-0.8,1.1-1c0.4-0.3,0.9-0.4,1.3-0.7c0.4-0.3,0.8-0.5,1.2-0.8
		c0.4-0.3,0.9-0.4,1.4-0.7c0.4-0.2,0.8-0.6,1.2-0.9c0.5-0.2,1-0.2,1.4-0.4c0.5-0.2,1-0.2,1.4-0.4c0.5-0.1,0.8-0.5,1.3-0.6
		c0.5-0.1,1-0.1,1.5-0.3c0.4-0.1,0.9-0.2,1.5-0.2c0.5,0,1,0,1.5,0c0.5,0,1-0.1,1.5,0c0.5,0,1-0.1,1.5,0c0.5,0,1,0.2,1.5,0.3
		c0.5,0.1,1,0.2,1.5,0.3c0.5,0.1,1,0.1,1.5,0.3c0.5,0.1,1,0.2,1.5,0.4c0.4,0.1,0.9,0.5,1.3,0.7c0.4,0.2,0.9,0.3,1.4,0.6
		c0.4,0.2,0.9,0.5,1.3,0.7c0.4,0.3,0.9,0.5,1.3,0.8c0.4,0.3,0.7,0.8,1.1,1.2c0.4,0.3,0.9,0.5,1.3,0.8c0.4,0.3,0.6,0.7,1,1.2
		c0.4,0.4,0.8,0.7,1.1,1.1c0.3,0.4,0.8,0.7,1.1,1.1c0.3,0.4,0.6,0.9,0.8,1.3c0.3,0.4,0.4,1,0.7,1.4c0.2,0.5,0.6,0.9,0.8,1.3
		c0.2,0.5,0.4,0.9,0.6,1.4c0.2,0.5,0.3,1,0.5,1.5c0.2,0.5,0.4,0.9,0.5,1.4c0.1,0.5,0.5,1,0.6,1.5c0.1,0.5,0,1,0.1,1.5
		c0.1,0.5,0.1,1,0.2,1.6c0,0.5,0.2,1,0.2,1.5c0,0.5,0,1,0,1.5c0,0.5,0,1,0,1.6c-0.1,0.5-0.2,1-0.3,1.5c-0.1,0.5-0.3,0.9-0.4,1.5
		c-0.2,0.5-0.1,1-0.3,1.5c-0.2,0.5-0.3,0.9-0.5,1.4c-0.2,0.5-0.6,0.9-0.8,1.3c-0.2,0.4-0.4,0.9-0.7,1.4c-0.2,0.4-0.3,0.9-0.6,1.4
		c-0.3,0.4-0.7,0.7-1,1.1c-0.3,0.3-0.4,0.9-0.7,1.3c-0.3,0.4-0.8,0.6-1.1,1c-0.4,0.3-0.6,0.7-1,1.1c-0.3,0.4-0.7,0.7-1.1,1
		c-0.4,0.3-0.7,0.7-1.1,1c-0.4,0.3-0.9,0.4-1.3,0.6c-0.4,0.3-0.8,0.5-1.2,0.8c-0.4,0.2-0.8,0.6-1.2,0.8c-0.5,0.2-0.9,0.6-1.3,0.7
		c-0.4,0.2-0.9,0.4-1.4,0.5c-0.5,0.2-1,0.1-1.5,0.3c-0.5,0.2-0.9,0.4-1.4,0.5c-0.5,0.1-1,0-1.5,0.1c-0.5,0.1-0.9,0.4-1.4,0.4
		c-0.5,0-1,0.1-1.5,0.1c-0.5,0-1-0.1-1.5-0.1c-0.5,0-1,0.1-1.5,0c-0.5,0-1-0.4-1.5-0.4c-0.5-0.1-1,0-1.5,0c-0.5-0.1-1-0.2-1.5-0.4
		c-0.5-0.1-0.9-0.5-1.3-0.7c-0.5-0.1-1-0.1-1.5-0.3c-0.4-0.2-0.8-0.6-1.3-0.9c-0.4-0.2-1-0.3-1.4-0.6c-0.4-0.2-0.8-0.6-1.2-0.9
		c-0.4-0.3-0.9-0.6-1.2-0.9c-0.4-0.3-0.9-0.6-1.3-0.9c-0.4-0.3-0.6-0.9-0.9-1.2c-0.4-0.4-0.9-0.6-1.2-1c-0.3-0.4-0.6-0.9-0.9-1.3
		c-0.3-0.4-0.5-1-0.8-1.4c-0.3-0.4-0.7-0.7-1-1.2C551.8,235.9,551.6,235.4,551.4,234.9 M583.4,219.1c-0.2-0.5-0.6-0.9-0.9-1.3
		c-0.3-0.4-0.4-1-0.8-1.4c-0.3-0.5-0.6-0.9-1-1.3c-0.4-0.3-0.7-0.8-1.1-1.2c-0.4-0.3-0.8-0.7-1.2-0.9c-0.5-0.3-1-0.4-1.4-0.7
		c-0.5-0.2-0.9-0.4-1.4-0.6c-0.5-0.1-1-0.3-1.4-0.4c-0.5-0.1-1-0.3-1.5-0.4c-0.5,0-1,0-1.5,0c-0.4,0.1-0.9,0.3-1.4,0.5
		c-0.5,0.1-0.9,0.3-1.4,0.4c-0.4,0.2-1,0.2-1.4,0.4c-0.5,0.2-0.9,0.6-1.3,0.8c-0.4,0.3-0.8,0.7-1.1,1c-0.4,0.3-0.7,0.7-1.1,1
		c-0.3,0.4-0.6,0.7-0.9,1.2c-0.3,0.4-0.5,0.9-0.8,1.3c-0.2,0.4-0.6,0.9-0.8,1.3c-0.1,0.5-0.2,1-0.3,1.5c-0.1,0.5-0.1,1-0.1,1.6
		c0,0.5,0.1,1,0.1,1.5c0.1,0.6-0.1,1.1,0,1.6c0.1,0.5,0.2,1,0.4,1.6c0.2,0.5,0.3,1,0.5,1.5c0.2,0.5,0.7,0.9,0.9,1.4
		c0.2,0.5,0.4,0.9,0.6,1.4c0.3,0.5,0.5,1,0.8,1.5c0.3,0.4,0.9,0.6,1.2,1c0.4,0.5,0.7,0.9,1.1,1.2c0.4,0.3,0.8,0.6,1.2,0.9
		c0.5,0.4,0.8,0.7,1.3,1c0.4,0.2,0.9,0.4,1.4,0.6c0.5,0.3,1,0.2,1.5,0.3c0.5,0.1,1,0.3,1.5,0.3c0.5,0,1,0.1,1.5,0
		c0.5,0,0.9-0.3,1.5-0.3c0.5-0.1,0.9-0.3,1.4-0.5c0.4-0.2,0.9-0.3,1.4-0.5c0.4-0.2,0.8-0.5,1.2-0.8c0.4-0.2,0.8-0.5,1.2-0.9
		c0.4-0.3,0.7-0.7,1.1-1c0.3-0.4,0.8-0.6,1.1-1c0.3-0.4,0.4-1,0.6-1.4c0.2-0.5,0.6-0.9,0.7-1.4c0.2-0.4,0.2-0.9,0.3-1.5
		c0.1-0.5,0-1,0.1-1.5c0-0.6,0.1-1.1,0-1.6c0-0.5,0-1-0.1-1.6c-0.1-0.5-0.3-1-0.5-1.5c-0.1-0.5-0.2-1-0.4-1.6
		C583.9,220.1,583.6,219.6,583.4,219.1"/>
	<path class="st0" d="M597.9,188.1c0.8-0.2,0.8-0.2,1.5-0.4c0.8-0.2,0.7-0.3,1.4-0.5c0.7-0.2,0.7-0.2,1.5-0.4
		c0.7-0.2,0.7-0.1,1.5-0.4c0.7-0.2,0.7-0.2,1.4-0.4c0.8-0.2,0.8-0.2,1.5-0.4c0.8-0.2,0.8-0.1,1.5-0.3c0.7-0.2,0.6-0.4,1.4-0.6
		c0.7-0.2,0.7-0.2,1.5-0.4c0.7-0.2,0.8,0,1.5-0.2c0.8-0.2,0.7-0.5,1.4-0.7c0.8-0.2,0.8,0,1.5-0.2c0.2,0,0.3,0,0.3,0.2
		c0.2,0.7,0.3,0.7,0.5,1.4c0.2,0.7,0.3,0.7,0.5,1.4c0.2,0.7,0,0.8,0.3,1.5c0.2,0.7,0.2,0.7,0.4,1.5l0.4,1.5c0,0.2,0,0.3-0.2,0.3
		c-0.6,0.2-0.6,0.4-1.3,0.6c-0.6,0.2-0.7,0.1-1.3,0.3c-0.2,0-0.3,0.2-0.2,0.4c0.2,0.7,0.1,0.8,0.3,1.5c0.2,0.7,0.4,0.7,0.6,1.5
		c0.2,0.7,0,0.8,0.2,1.5c0.2,0.7,0.3,0.7,0.5,1.4c0.2,0.8,0.3,0.8,0.5,1.5c0.2,0.7,0,0.8,0.3,1.5c0.2,0.7,0.4,0.7,0.6,1.5
		c0.2,0.7,0.3,0.7,0.5,1.5c0.2,0.7,0.1,0.8,0.3,1.5c0.2,0.8,0.3,0.8,0.6,1.5c0.2,0.7,0.2,0.7,0.4,1.5c0.2,0.7,0.1,0.8,0.3,1.6
		c0.2,0.7,0.1,0.8,0.3,1.5c0.2,0.7,0.4,0.7,0.7,1.4c0.2,0.8,0,0.9,0.2,1.6c0.2,0.7,0.4,0.7,0.6,1.4c0.2,0.7,0.2,0.7,0.4,1.5
		c0.2,0.7,0.2,0.7,0.4,1.5c0.1,0.2,0.2,0.1,0.4,0.1c0.7-0.2,0.8,0,1.5-0.2c0.7-0.2,0.7-0.3,1.4-0.5c0.7-0.2,0.7-0.3,1.4-0.5
		c0.7-0.2,0.8,0,1.5-0.2c0.7-0.2,0.7-0.3,1.4-0.5c0.7-0.2,0.7-0.1,1.4-0.3c0.2,0,0.3-0.4,0.3-0.5c-0.2-0.7-0.3-0.7-0.6-1.5
		c-0.2-0.7-0.2-0.7-0.4-1.5c-0.2-0.7-0.1-0.8-0.3-1.6c-0.2-0.7-0.3-0.7-0.5-1.5c-0.1-0.2,0-0.5,0.2-0.5c0.7-0.2,0.7-0.1,1.4-0.3
		c0.7-0.2,0.7-0.3,1.4-0.5c0.7-0.2,0.7-0.2,1.4-0.4c0.7-0.2,0.7-0.1,1.4-0.3c0.7-0.2,0.7-0.2,1.4-0.4c0.7-0.2,0.7-0.1,1.4-0.3
		c0.2,0,0.2,0,0.3,0.2c0.2,0.7,0.4,0.7,0.6,1.3c0.2,0.7,0.2,0.7,0.4,1.5c0.2,0.7,0.1,0.7,0.3,1.4c0.2,0.7,0.4,0.6,0.6,1.3
		c0.2,0.7,0,0.7,0.2,1.5c0.2,0.7,0.3,0.6,0.5,1.4c0.2,0.7,0.2,0.7,0.4,1.4c0.2,0.7,0.3,0.7,0.5,1.4c0.2,0.7,0.1,0.8,0.3,1.4
		c0.2,0.7,0.2,0.7,0.3,1.4c0.2,0.7,0.4,0.7,0.6,1.3c0,0.2-0.1,0.5-0.3,0.5c-0.7,0.2-0.7,0.1-1.4,0.3c-0.7,0.2-0.7,0.1-1.4,0.3
		c-0.7,0.2-0.6,0.4-1.3,0.6c-0.7,0.2-0.7,0.3-1.4,0.5c-0.7,0.2-0.8,0-1.5,0.2c-0.7,0.2-0.6,0.4-1.3,0.6c-0.7,0.2-0.7,0.1-1.4,0.3
		c-0.7,0.2-0.7,0.2-1.4,0.4c-0.7,0.2-0.6,0.4-1.3,0.6c-0.7,0.2-0.8,0-1.4,0.2c-0.7,0.2-0.6,0.4-1.3,0.6c-0.7,0.2-0.8,0-1.5,0.2
		c-0.7,0.2-0.7,0.2-1.4,0.4c-0.7,0.2-0.7,0.1-1.4,0.3c-0.7,0.2-0.7,0.3-1.4,0.5c-0.8,0.2-0.8,0.2-1.5,0.4c-0.7,0.2-0.7,0.3-1.4,0.5
		c-0.7,0.2-0.7,0.1-1.4,0.3c-0.7,0.2-0.7,0.2-1.4,0.4c-0.7,0.2-0.7,0.1-1.4,0.3c-0.7,0.2-0.6,0.4-1.3,0.6c-0.7,0.2-0.7,0.1-1.4,0.3
		c-0.7,0.2-0.7,0.3-1.4,0.5c-0.2,0-0.4-0.1-0.5-0.3c-0.2-0.7-0.1-0.7-0.3-1.4c-0.2-0.7-0.3-0.7-0.5-1.4c-0.2-0.7-0.2-0.7-0.4-1.5
		c-0.2-0.7-0.2-0.8-0.4-1.5c-0.2-0.7-0.2-0.7-0.4-1.5c0-0.2,0-0.3,0.2-0.3c0.6-0.2,0.6-0.4,1.2-0.5s0.6,0,1.2-0.2
		c0.2,0,0.3-0.3,0.2-0.5c-0.2-0.7-0.3-0.7-0.5-1.4c-0.2-0.7,0-0.8-0.3-1.5c-0.2-0.8-0.2-0.8-0.4-1.5s-0.3-0.7-0.5-1.5
		c-0.2-0.7-0.3-0.7-0.5-1.4c-0.2-0.8-0.2-0.8-0.4-1.5c-0.2-0.7-0.2-0.8-0.4-1.5c-0.2-0.7-0.2-0.7-0.4-1.5c-0.2-0.8-0.2-0.8-0.4-1.5
		c-0.2-0.7-0.2-0.8-0.4-1.5c-0.2-0.7-0.3-0.7-0.5-1.4c-0.2-0.8-0.2-0.8-0.4-1.5c-0.2-0.7-0.1-0.8-0.3-1.5c-0.2-0.7-0.3-0.7-0.5-1.4
		c-0.2-0.8-0.2-0.8-0.4-1.5c-0.2-0.7-0.2-0.8-0.4-1.5s-0.3-0.7-0.5-1.5c-0.2-0.8-0.3-0.8-0.5-1.5c-0.2-0.7-0.3-0.7-0.5-1.4
		c0-0.2-0.1-0.2-0.3-0.2c-0.6,0.2-0.6-0.1-1.2,0.1c-0.6,0.2-0.5,0.4-1.2,0.6c-0.2,0-0.3-0.2-0.3-0.4c-0.2-0.7-0.3-0.7-0.5-1.4
		c-0.2-0.8-0.2-0.8-0.4-1.5s-0.3-0.7-0.5-1.4c-0.2-0.7-0.2-0.7-0.4-1.5c-0.2-0.7-0.2-0.7-0.4-1.5
		C597.7,188.4,597.7,188.2,597.9,188.1"/>
	<path class="st0" d="M648.2,198.2c0-0.5-0.2-1-0.2-1.5c0-0.6,0.1-1,0.1-1.6c0-0.5,0-1,0.1-1.5c0-0.5,0.1-1,0.2-1.6
		c0.1-0.5,0.1-1,0.2-1.5c0.1-0.5,0.1-1,0.3-1.5c0.1-0.5,0.3-1,0.5-1.5c0.1-0.5,0.4-0.9,0.6-1.4c0.2-0.5,0.5-0.8,0.8-1.3
		c0.2-0.5,0.5-0.9,0.7-1.3c0.3-0.5,0.4-1,0.6-1.4c0.3-0.4,0.6-0.9,0.9-1.2c0.3-0.4,0.8-0.6,1.1-1c0.4-0.4,0.6-0.8,1-1.1
		c0.3-0.3,0.6-0.8,1-1.1c0.4-0.3,0.8-0.6,1.2-0.9c0.4-0.3,0.8-0.6,1.2-0.9c0.4-0.3,0.9-0.5,1.3-0.8c0.5-0.2,1-0.3,1.4-0.5
		c0.5-0.2,0.9-0.4,1.3-0.6c0.5-0.2,0.9-0.3,1.3-0.5c0.5-0.2,0.9-0.5,1.4-0.6c0.5-0.2,1-0.1,1.4-0.2s0.9-0.2,1.4-0.3
		c0.5-0.1,1-0.1,1.5-0.2c0.5,0,0.9-0.3,1.4-0.4c0.5,0,1,0.2,1.5,0.2c0.5,0,1,0.2,1.5,0.2c0.5,0.1,1-0.2,1.5-0.1
		c0.5,0.1,1,0.2,1.5,0.3c0.4,0.1,0.9,0.2,1.4,0.3c0.5,0.1,1,0.4,1.4,0.6c0.4,0.1,0.9,0.3,1.4,0.5c0.4,0.1,0.9,0.3,1.4,0.5
		s0.9,0.6,1.3,0.8c0.5,0.3,0.9,0.6,1.2,0.8c0.4,0.3,0.9,0.5,1.3,0.8c0.4,0.3,0.8,0.6,1.2,0.9c0.3,0.3,0.7,0.8,1,1.1
		c0.3,0.3,0.7,0.6,1.1,1c0.3,0.3,0.7,0.8,1,1.1c0.3,0.4,0.7,0.8,1,1.2c0.3,0.4,0.3,1,0.6,1.5c0.3,0.4,0.7,0.8,0.9,1.2
		c0.2,0.4,0.3,0.9,0.5,1.4c0.2,0.5,0.5,0.9,0.6,1.4c0.2,0.5,0.5,0.9,0.6,1.4c0.1,0.5,0.2,1,0.3,1.5c0.1,0.5,0,1.1,0.2,1.6
		c0,0.5,0.2,1,0.3,1.5c0,0.5,0,1,0,1.5c0,0.5,0,1,0,1.5c0,0.5,0,1,0,1.5c-0.1,0.5,0.1,1.1,0,1.6c-0.1,0.5-0.3,1-0.5,1.5
		c-0.1,0.5-0.3,1-0.4,1.5c-0.1,0.5-0.1,1-0.3,1.5c-0.1,0.5-0.3,0.9-0.5,1.4c-0.2,0.5-0.3,1-0.6,1.5c-0.3,0.5-0.5,0.9-0.8,1.3
		c-0.3,0.5-0.6,0.8-0.9,1.2c-0.3,0.4-0.5,0.9-0.8,1.3c-0.3,0.4-0.6,0.8-1,1.1c-0.3,0.4-0.9,0.6-1.2,0.9s-0.7,0.7-1.1,1.1
		c-0.3,0.3-0.6,0.8-1,1.1c-0.4,0.3-0.9,0.4-1.3,0.7c-0.4,0.2-0.7,0.7-1.1,0.9c-0.5,0.2-0.9,0.3-1.4,0.5c-0.5,0.2-0.9,0.5-1.3,0.6
		c-0.5,0.2-0.9,0.4-1.3,0.6c-0.5,0.1-0.9,0.4-1.4,0.6c-0.5,0.1-1,0.1-1.4,0.1c-0.5,0.1-1,0.2-1.4,0.3c-0.5,0-0.9,0.2-1.4,0.3
		c-0.5,0-1,0.2-1.5,0.2c-0.5,0-1,0-1.5,0c-0.5,0-1-0.3-1.5-0.3c-0.5,0-1,0.1-1.5,0c-0.5-0.1-0.9-0.3-1.4-0.4c-0.5-0.1-1,0-1.5-0.1
		c-0.5-0.1-1-0.2-1.4-0.4c-0.4-0.1-0.9-0.5-1.3-0.6c-0.4-0.2-0.9-0.3-1.4-0.5c-0.4-0.2-0.8-0.7-1.2-0.9c-0.5-0.3-0.9-0.3-1.4-0.6
		c-0.4-0.3-0.9-0.6-1.2-0.9c-0.4-0.3-0.7-0.8-1-1.1c-0.4-0.3-0.9-0.5-1.3-0.8c-0.3-0.3-0.6-0.8-0.9-1.2c-0.3-0.3-0.8-0.6-1.1-1
		c-0.3-0.3-0.5-0.8-0.8-1.2c-0.3-0.4-0.6-0.8-0.9-1.2c-0.3-0.5-0.6-0.8-0.9-1.3c-0.2-0.4-0.2-1-0.5-1.5c-0.2-0.5-0.6-0.8-0.8-1.3
		c-0.2-0.5-0.2-1-0.4-1.5c-0.1-0.5-0.1-1.1-0.2-1.6c-0.1-0.5-0.4-0.9-0.5-1.5C648.3,199.2,648.3,198.7,648.2,198.2 M683.7,194.5
		c0-0.5-0.2-1.1-0.3-1.6c-0.1-0.5,0-1.1-0.2-1.6c-0.1-0.6-0.3-1.1-0.5-1.6c-0.2-0.4-0.4-1-0.6-1.5c-0.2-0.4-0.5-0.9-0.8-1.3
		c-0.3-0.4-0.7-0.8-1-1.2c-0.4-0.3-0.7-0.7-1.1-1c-0.4-0.3-0.8-0.6-1.2-0.9c-0.5-0.3-0.9-0.7-1.3-0.9c-0.4-0.1-0.9-0.3-1.5-0.5
		c-0.4-0.1-1,0-1.5,0c-0.5-0.1-1-0.1-1.5-0.1c-0.5,0-1-0.2-1.5-0.1c-0.5,0.1-1,0.2-1.5,0.3c-0.5,0.1-0.9,0.3-1.4,0.5
		s-0.9,0.4-1.3,0.6c-0.5,0.2-0.9,0.5-1.3,0.8c-0.4,0.3-0.8,0.6-1.2,0.9c-0.3,0.3-0.9,0.6-1.2,0.9c-0.3,0.4-0.6,0.9-0.8,1.3
		c-0.3,0.5-0.4,0.9-0.6,1.5c-0.2,0.5-0.3,1-0.4,1.4c-0.1,0.6-0.4,1-0.5,1.5c-0.1,0.5-0.1,1-0.2,1.6c0,0.5-0.1,1-0.1,1.5
		c0,0.5,0.3,1.1,0.3,1.6c0,0.5,0,1,0.1,1.5c0.1,0.6,0.1,1.1,0.2,1.6c0.2,0.5,0.6,0.9,0.8,1.4c0.2,0.6,0.3,1,0.6,1.5
		c0.3,0.5,0.6,0.8,0.9,1.2c0.3,0.5,0.5,1,0.9,1.4c0.3,0.3,0.7,0.7,1.1,1c0.3,0.4,0.9,0.6,1.2,0.8c0.5,0.3,0.9,0.6,1.3,0.8
		c0.4,0.2,0.9,0.4,1.4,0.6c0.4,0.1,1,0.1,1.5,0.2c0.5,0.1,1,0,1.5,0c0.5,0,1,0.1,1.5,0c0.5,0,0.9-0.2,1.4-0.3c0.5,0,0.9-0.2,1.4-0.5
		c0.5-0.1,0.9-0.4,1.3-0.6c0.5-0.2,1-0.3,1.4-0.5c0.4-0.3,0.7-0.8,1-1.1c0.4-0.4,0.9-0.6,1.2-1.1c0.3-0.4,0.5-0.8,0.8-1.3
		c0.3-0.4,0.4-0.9,0.6-1.4c0.2-0.5,0.4-1,0.6-1.5c0.1-0.5,0.4-0.9,0.5-1.5c0.1-0.5,0.1-1,0.1-1.5c0.1-0.5,0.1-1,0.1-1.6
		C683.9,195.6,683.8,195.1,683.7,194.5"/>
	<path class="st0" d="M707.1,193.3c0-0.5,0-1,0.1-1.5c0.1-0.6,0.3-1,0.5-1.5c0.1-0.5,0.2-1,0.4-1.5c0.1-0.5,0.3-1,0.5-1.5
		c0.2-0.5,0.3-0.9,0.5-1.4c0.2-0.5,0.3-1,0.6-1.4c0.2-0.5,0.5-0.9,0.8-1.4c0.2-0.4,0.6-0.8,0.9-1.2c0.3-0.4,0.7-0.7,1-1.1
		c0.3-0.4,0.6-0.8,1-1.1c0.3-0.4,0.6-0.9,0.9-1.2c0.4-0.3,0.7-0.8,1.1-1c0.4-0.3,0.9-0.5,1.3-0.8c0.5-0.3,0.8-0.7,1.2-0.9
		c0.4-0.3,0.8-0.6,1.2-0.9c0.4-0.2,0.9-0.5,1.3-0.7c0.4-0.2,0.9-0.4,1.3-0.6c0.4-0.2,0.9-0.4,1.4-0.5c0.5-0.1,1-0.1,1.5-0.2
		c0.5-0.1,0.9-0.2,1.4-0.4c0.5-0.1,0.9-0.2,1.4-0.2c0.5-0.1,1-0.3,1.5-0.3c0.5-0.1,1,0.1,1.5,0.1c0.5,0,1,0,1.5,0
		c0.5,0,1,0.1,1.5,0.2c0.5,0,1-0.2,1.5-0.1c0.5,0.1,0.9,0.3,1.4,0.5c0.5,0.1,0.9,0.3,1.4,0.5c0.5,0.2,1,0,1.4,0.2
		c0.5,0.2,0.9,0.4,1.4,0.6c0.4,0.2,0.9,0.3,1.3,0.6c0.5,0.2,0.9,0.6,1.2,0.8c0.4,0.2,0.9,0.5,1.3,0.8c0.4,0.2,0.9,0.5,1.3,0.8
		c0.4,0.3,0.7,0.7,1.1,1c0.4,0.4,0.7,0.7,1,1.1c0.3,0.3,0.8,0.6,1.1,1c0.3,0.3,0.7,0.7,1,1.1c0.3,0.3,0.5,0.9,0.8,1.3
		s0.6,0.8,0.9,1.2c0.3,0.4,0.5,0.9,0.8,1.3c0.2,0.5,0.5,0.9,0.7,1.3c0.2,0.5,0.1,1,0.3,1.6c0.2,0.5,0.5,0.9,0.6,1.4
		c0.1,0.5,0.1,1,0.2,1.5c0.1,0.5,0.3,1,0.3,1.5c0.1,0.5,0.3,1,0.3,1.5c0,0.5,0,1,0,1.5c0,0.5-0.2,1.1-0.2,1.6c0,0.5,0,1,0,1.5
		c0,0.5-0.2,1-0.3,1.5c0,0.5-0.2,1-0.3,1.5s-0.2,1-0.3,1.5c-0.2,0.5-0.1,1.1-0.3,1.6c-0.2,0.5-0.5,0.9-0.7,1.3
		c-0.2,0.5-0.5,0.9-0.7,1.4c-0.2,0.4-0.3,1-0.6,1.4c-0.2,0.4-0.5,0.8-0.8,1.3c-0.3,0.4-0.5,0.9-0.9,1.3c-0.3,0.4-0.7,0.8-1,1.1
		c-0.3,0.4-0.8,0.6-1.1,1c-0.4,0.3-0.6,0.8-1,1.1c-0.4,0.3-0.8,0.6-1.2,0.9c-0.4,0.3-0.9,0.4-1.3,0.7c-0.4,0.3-0.9,0.6-1.3,0.8
		c-0.4,0.2-0.8,0.6-1.2,0.8c-0.4,0.2-0.9,0.2-1.4,0.4c-0.4,0.2-0.9,0.6-1.3,0.7c-0.5,0.1-1,0.1-1.5,0.2c-0.5,0.1-0.9,0.3-1.4,0.4
		c-0.5,0.1-0.9,0.2-1.4,0.3c-0.5,0-1,0.2-1.5,0.3c-0.5,0-1-0.1-1.4-0.1c-0.5,0-1,0-1.5,0c-0.5,0-1,0-1.5,0c-0.5-0.1-1,0-1.5-0.1
		c-0.5,0-1-0.2-1.4-0.3c-0.5-0.1-0.9-0.5-1.4-0.6c-0.5-0.1-1-0.1-1.4-0.3c-0.5-0.2-0.9-0.5-1.3-0.7c-0.5-0.2-1-0.2-1.4-0.4
		c-0.5-0.2-0.9-0.4-1.3-0.7c-0.4-0.2-0.8-0.6-1.2-0.9c-0.4-0.3-0.9-0.5-1.3-0.8c-0.4-0.3-0.6-0.8-1-1.1c-0.4-0.4-0.9-0.5-1.2-0.8
		c-0.3-0.3-0.7-0.7-1-1.1c-0.3-0.3-0.5-0.9-0.8-1.3c-0.3-0.3-0.8-0.6-1.1-1.1c-0.3-0.4-0.4-0.9-0.6-1.4c-0.3-0.4-0.6-0.8-0.9-1.2
		c-0.3-0.4-0.3-0.9-0.5-1.4c-0.2-0.5-0.4-0.9-0.6-1.4c-0.2-0.5-0.5-0.9-0.6-1.5c-0.1-0.5,0-1-0.2-1.6c-0.1-0.5-0.4-0.9-0.5-1.5
		c-0.1-0.5,0-1-0.1-1.6c0-0.5,0.1-1.1,0.1-1.6c0-0.5-0.2-1-0.2-1.6C706.9,194.3,707,193.8,707.1,193.3 M742.6,196.8
		c0-0.5,0-1.1,0-1.6c0-0.5,0.2-1.1,0.1-1.6c0-0.6-0.1-1.1-0.1-1.6c-0.1-0.5-0.2-1-0.3-1.6c-0.1-0.5-0.3-1-0.5-1.5
		c-0.3-0.5-0.6-0.9-0.8-1.4c-0.3-0.4-0.6-0.8-0.9-1.2c-0.3-0.3-0.6-0.8-1-1.1c-0.4-0.4-0.7-0.8-1.1-1.1c-0.4-0.2-0.9-0.5-1.3-0.8
		c-0.4-0.2-0.9-0.2-1.4-0.3c-0.5-0.2-0.9-0.3-1.4-0.4c-0.5,0-0.9-0.3-1.4-0.4c-0.5,0-1,0-1.5,0c-0.5,0-1,0.2-1.5,0.2
		c-0.5,0.1-0.9,0.2-1.4,0.3c-0.5,0.1-0.9,0.3-1.4,0.5c-0.4,0.2-0.9,0.5-1.4,0.7c-0.4,0.3-0.9,0.4-1.3,0.7c-0.3,0.3-0.7,0.8-1.1,1.1
		c-0.3,0.4-0.6,0.8-0.9,1.3c-0.3,0.4-0.5,0.9-0.7,1.3c-0.2,0.6-0.6,0.9-0.8,1.4c-0.2,0.5-0.3,1-0.5,1.6c-0.1,0.5-0.3,1-0.4,1.5
		c0,0.5,0.1,1.2,0,1.7c0,0.5-0.2,1-0.2,1.5c0,0.6-0.1,1.1-0.1,1.6c0.1,0.5,0.4,1,0.5,1.5c0.1,0.6,0.1,1.1,0.3,1.6
		c0.2,0.5,0.4,0.9,0.6,1.4c0.2,0.6,0.3,1.1,0.6,1.5c0.3,0.4,0.6,0.8,0.9,1.2c0.3,0.5,0.7,0.7,1.1,1.1c0.4,0.4,0.7,0.8,1.1,1.1
		c0.4,0.3,0.8,0.6,1.3,0.8c0.4,0.2,0.9,0.3,1.4,0.5c0.5,0.2,0.9,0.2,1.4,0.3c0.5,0,0.9,0.3,1.5,0.3c0.5,0,1,0,1.5,0
		c0.5,0,1,0,1.5-0.2c0.5,0,0.9-0.2,1.4-0.3c0.5-0.1,1-0.1,1.5-0.2c0.4-0.2,0.9-0.6,1.2-0.9c0.5-0.3,1-0.4,1.4-0.8
		c0.4-0.3,0.7-0.7,1-1.1c0.3-0.3,0.6-0.8,0.9-1.2c0.3-0.5,0.6-0.9,0.9-1.4c0.2-0.4,0.6-0.8,0.7-1.4c0.2-0.5,0.3-1,0.4-1.5
		c0.2-0.5,0.3-1,0.5-1.6C742.5,197.9,742.5,197.3,742.6,196.8"/>
	<path class="st0" d="M771.4,178.3c0.8,0.2,0.7,0.3,1.4,0.5c0.8,0.2,0.8,0.2,1.5,0.4c0.7,0.2,0.7,0.2,1.5,0.4
		c0.7,0.2,0.7,0.3,1.4,0.5c0.7,0.2,0.7,0.2,1.4,0.4c0.8,0.2,0.8,0.2,1.5,0.4c0.8,0.2,0.7,0.3,1.4,0.5c0.7,0.2,0.8,0,1.5,0.2
		c0.7,0.2,0.7,0.2,1.5,0.4c0.7,0.2,0.6,0.4,1.3,0.6c0.8,0.2,0.8,0,1.5,0.2c0.8,0.2,0.7,0.4,1.4,0.6c0.2,0,0.2,0.2,0.1,0.4
		c-0.2,0.7-0.1,0.8-0.3,1.5c-0.2,0.7-0.2,0.8-0.4,1.5c-0.2,0.7-0.4,0.7-0.6,1.4s-0.2,0.7-0.4,1.5s-0.2,0.7-0.4,1.5
		c-0.1,0.2-0.1,0.2-0.3,0.2c-0.6-0.2-0.7,0-1.4-0.2c-0.6-0.2-0.6-0.2-1.3-0.4c-0.2,0-0.3,0-0.4,0.2c-0.2,0.7-0.3,0.7-0.5,1.4
		c-0.2,0.7,0,0.8-0.3,1.6c-0.2,0.7-0.4,0.7-0.6,1.4c-0.2,0.7-0.1,0.8-0.3,1.5c-0.2,0.8-0.2,0.8-0.4,1.6c-0.2,0.7-0.4,0.7-0.6,1.4
		c-0.2,0.7,0,0.8-0.3,1.6c-0.2,0.7-0.1,0.7-0.4,1.5c-0.2,0.7-0.3,0.7-0.5,1.4c-0.2,0.8-0.1,0.8-0.3,1.6c-0.2,0.7-0.2,0.7-0.4,1.5
		c-0.2,0.7-0.3,0.7-0.6,1.5c-0.2,0.7-0.3,0.7-0.5,1.4c-0.2,0.7,0,0.8-0.2,1.5c-0.2,0.8-0.5,0.7-0.7,1.5c-0.2,0.7,0,0.8-0.2,1.5
		c-0.2,0.7-0.3,0.7-0.5,1.5c-0.2,0.7-0.2,0.7-0.4,1.5c0,0.2,0.1,0.2,0.3,0.3c0.7,0.2,0.6,0.4,1.3,0.6c0.7,0.2,0.7,0.1,1.4,0.3
		c0.7,0.2,0.7,0.1,1.4,0.3c0.7,0.2,0.6,0.4,1.3,0.6c0.7,0.2,0.7,0.1,1.5,0.4c0.7,0.2,0.7,0.3,1.4,0.5c0.2,0,0.5-0.1,0.5-0.3
		c0.2-0.7,0.1-0.8,0.3-1.6c0.2-0.7,0.2-0.7,0.4-1.5c0.2-0.7,0.3-0.7,0.6-1.5c0.2-0.7,0.1-0.7,0.4-1.6c0-0.2,0.2-0.4,0.4-0.3
		c0.7,0.2,0.7,0.3,1.4,0.5c0.7,0.2,0.7,0.1,1.4,0.3c0.7,0.2,0.7,0.2,1.4,0.4c0.7,0.2,0.7,0.3,1.4,0.5c0.7,0.2,0.7,0.2,1.4,0.4
		c0.7,0.2,0.7,0.3,1.4,0.5c0.2,0,0.2,0.1,0.1,0.3c-0.2,0.7,0,0.8-0.2,1.5c-0.2,0.7-0.3,0.7-0.5,1.5c-0.2,0.7-0.3,0.6-0.5,1.4
		c-0.2,0.7,0,0.7-0.2,1.5c-0.2,0.7-0.4,0.6-0.6,1.4c-0.2,0.7-0.1,0.7-0.3,1.4c-0.2,0.7-0.2,0.7-0.4,1.4c-0.2,0.7-0.2,0.7-0.3,1.4
		c-0.2,0.7-0.3,0.7-0.5,1.4c-0.2,0.7-0.3,0.7-0.5,1.4c-0.2,0.7,0,0.8-0.2,1.5c0,0.2-0.3,0.4-0.5,0.3c-0.7-0.2-0.7-0.3-1.4-0.5
		c-0.7-0.2-0.7-0.3-1.4-0.5c-0.7-0.2-0.7,0-1.5-0.2c-0.7-0.2-0.7-0.1-1.4-0.3c-0.7-0.2-0.6-0.4-1.3-0.6c-0.7-0.2-0.8,0-1.5-0.2
		c-0.7-0.2-0.7-0.3-1.4-0.5c-0.7-0.2-0.7-0.2-1.4-0.4c-0.7-0.2-0.8,0-1.5-0.2c-0.7-0.2-0.6-0.4-1.3-0.6c-0.7-0.2-0.8,0-1.5-0.2
		c-0.7-0.2-0.6-0.4-1.3-0.6c-0.7-0.2-0.7-0.2-1.4-0.4c-0.7-0.2-0.7-0.3-1.4-0.5c-0.7-0.2-0.7-0.1-1.4-0.3c-0.8-0.2-0.8-0.2-1.5-0.4
		c-0.7-0.2-0.7-0.1-1.4-0.3c-0.7-0.2-0.7-0.3-1.4-0.5c-0.7-0.2-0.7-0.2-1.4-0.4c-0.7-0.2-0.7-0.3-1.4-0.5c-0.7-0.2-0.7,0-1.5-0.2
		c-0.7-0.2-0.7-0.3-1.4-0.5c-0.7-0.2-0.7-0.1-1.4-0.3c-0.2,0-0.3-0.3-0.3-0.5c0.2-0.7,0.3-0.6,0.5-1.4c0.2-0.7,0.1-0.8,0.3-1.5
		s0.3-0.7,0.5-1.5c0.2-0.7,0.3-0.7,0.5-1.5c0.2-0.7,0.2-0.7,0.4-1.5c0-0.2,0.2-0.2,0.4-0.2c0.6,0.2,0.7,0,1.3,0.2
		c0.6,0.2,0.6,0.3,1.1,0.5c0.2,0,0.4-0.1,0.5-0.3c0.2-0.7,0.1-0.8,0.3-1.5c0.2-0.7,0.4-0.7,0.6-1.4c0.2-0.8,0.2-0.8,0.4-1.5
		s0.1-0.7,0.4-1.5c0.2-0.7,0.1-0.8,0.3-1.5c0.2-0.8,0.3-0.8,0.5-1.5c0.2-0.7,0.3-0.7,0.5-1.5c0.2-0.7,0.2-0.7,0.4-1.5
		c0.2-0.8,0.2-0.8,0.4-1.5c0.2-0.7,0.3-0.7,0.5-1.4c0.2-0.7,0.1-0.7,0.4-1.5c0.2-0.8,0.2-0.8,0.4-1.5c0.2-0.7,0.3-0.7,0.5-1.4
		c0.2-0.7,0.1-0.8,0.3-1.5c0.2-0.8,0.3-0.8,0.5-1.5c0.2-0.7,0.3-0.7,0.5-1.4c0.2-0.7,0.1-0.7,0.4-1.5c0.2-0.8,0.2-0.8,0.4-1.6
		c0.2-0.7,0.1-0.8,0.3-1.5c0-0.2,0-0.3-0.2-0.3c-0.6-0.2-0.5-0.4-1.1-0.6c-0.6-0.2-0.6,0.1-1.3-0.1c-0.2-0.1-0.1-0.3-0.1-0.5
		c0.2-0.7,0.1-0.8,0.3-1.5c0.2-0.8,0.3-0.8,0.5-1.5c0.2-0.7,0.1-0.8,0.3-1.5c0.2-0.7,0.3-0.7,0.5-1.4c0.2-0.7,0.3-0.7,0.5-1.5
		C771.1,178.5,771.2,178.3,771.4,178.3"/>
	<path class="st0" d="M853.4,210.4c-0.3,0.6-0.3,0.6-0.6,1.2c-0.3,0.6-0.3,0.6-0.6,1.2c-0.3,0.6-0.3,0.6-0.6,1.2
		c-0.3,0.6-0.2,0.7-0.5,1.3c-0.3,0.7-0.3,0.7-0.6,1.3c-0.1,0.3-0.6,0.4-0.9,0.2c-0.8-0.4-0.8-0.3-1.6-0.7c-0.4-0.2-0.7,0-0.8,0.4
		c-0.1,0.5-0.3,1-0.4,1.5c-0.1,0.5-0.2,1-0.3,1.6c-0.1,0.5-0.2,1-0.3,1.6c-0.1,0.5-0.1,1-0.2,1.5c-0.1,0.5-0.1,1-0.2,1.5
		c-0.1,0.5-0.2,1-0.3,1.5c-0.1,0.5,0,1-0.2,1.6c-0.1,0.4-0.2,1-0.2,1.4c-0.1,0.5-0.2,1-0.3,1.5c-0.1,0.5-0.3,1-0.5,1.5
		c0,0.5-0.1,1-0.3,1.5c0,0.5-0.1,1-0.1,1.5c-0.1,0.5-0.2,1-0.3,1.5c-0.1,0.5-0.3,1-0.4,1.4c-0.1,0.5-0.2,1-0.3,1.5
		c-0.1,0.5,0,1-0.1,1.5c-0.1,0.5-0.1,1-0.2,1.5c-0.1,0.5-0.2,1-0.3,1.5c-0.1,0.5-0.2,1-0.3,1.5c-0.1,0.6-0.3,1.1-0.1,1.4
		s0.5,0.7,1.1,0.9c0.3,0.1,0.7,0,1,0.2c0.3,0.2,0.3,0.6,0.2,0.9c-0.3,0.6-0.3,0.6-0.6,1.2c-0.3,0.6-0.4,0.6-0.7,1.2
		c-0.3,0.6-0.3,0.6-0.6,1.3c-0.3,0.6-0.2,0.7-0.5,1.4c-0.3,0.6-0.5,0.5-0.8,1.2c-0.1,0.3-0.4,0.4-0.7,0.3c-0.7-0.3-0.7-0.3-1.4-0.7
		c-0.6-0.3-0.6-0.4-1.3-0.7c-0.6-0.3-0.7-0.2-1.4-0.5c-0.6-0.3-0.7-0.3-1.3-0.6c-0.6-0.3-0.6-0.5-1.2-0.8c-0.7-0.3-0.7-0.3-1.4-0.6
		c-0.6-0.3-0.7-0.2-1.4-0.5c-0.6-0.3-0.6-0.4-1.2-0.8s-0.6-0.3-1.3-0.6c-0.6-0.3-0.7-0.2-1.4-0.6c-0.6-0.3-0.6-0.5-1.2-0.8
		c-0.6-0.3-0.6-0.3-1.3-0.6c-0.3-0.2-0.5-0.6-0.4-0.8c0.4-0.7,0.5-0.7,0.9-1.5c0.4-0.7,0.4-0.7,0.7-1.5c0.4-0.7,0.3-0.8,0.7-1.5
		c0.4-0.7,0.3-0.8,0.7-1.5c0.2-0.3,0.6-0.5,0.9-0.3c0.5,0.3,0.5,0.3,1,0.6c0.5,0.2,0.5,0.3,1,0.6c0.4,0.2,0.9-0.1,1-0.6
		c0.1-0.5,0.1-1.1,0.3-1.6c0.1-0.6,0.2-1.1,0.3-1.6c0.1-0.3,0-0.6-0.3-0.7c-0.4-0.2-0.9-0.5-1.4-0.8c-0.4-0.2-0.9-0.5-1.4-0.7
		c-0.4-0.2-1-0.3-1.5-0.5c-0.4-0.2-0.8-0.5-1.3-0.7c-0.4-0.2-0.9-0.4-1.3-0.6c-0.4-0.2-0.8-0.6-1.2-0.8c-0.4-0.2-0.9-0.3-1.4-0.5
		c-0.4-0.2-0.9-0.4-1.3-0.6c-0.6-0.3-0.9-0.4-1.4,0.2c-0.3,0.3-0.6,0.7-0.9,1.1c-0.3,0.3-0.6,0.6-0.9,0.9c-0.3,0.3-0.2,0.9,0.2,1.1
		c0.5,0.2,0.5,0.3,1,0.6c0.5,0.2,0.6,0.1,1,0.4c0.3,0.2,0.3,0.5,0.2,0.9c-0.4,0.7-0.3,0.8-0.6,1.6c-0.4,0.7-0.5,0.7-0.8,1.4
		c-0.4,0.8-0.2,0.9-0.6,1.6s-0.4,0.7-0.7,1.5c-0.2,0.3-0.6,0.5-1,0.3c-0.6-0.3-0.6-0.2-1.3-0.6c-0.6-0.3-0.6-0.5-1.2-0.8
		c-0.6-0.3-0.6-0.3-1.2-0.6c-0.6-0.3-0.7-0.2-1.4-0.5c-0.6-0.3-0.6-0.4-1.3-0.7c-0.6-0.3-0.6-0.2-1.3-0.5c-0.6-0.3-0.5-0.6-1.2-0.9
		c-0.6-0.3-0.7-0.2-1.3-0.5c-0.6-0.3-0.7-0.2-1.4-0.5c-0.6-0.3-0.6-0.4-1.2-0.8c-0.6-0.3-0.7-0.1-1.3-0.4c-0.3-0.2-0.4-0.7-0.2-1
		c0.3-0.6,0.4-0.6,0.7-1.2c0.3-0.6,0.3-0.6,0.6-1.3c0.3-0.6,0.3-0.6,0.6-1.2c0.3-0.6,0.2-0.7,0.5-1.3c0.3-0.6,0.5-0.5,0.8-1.2
		c0.2-0.3,0.5-0.5,0.7-0.4c0.4,0.1,0.8,0.3,1.1,0.6c0.8,0.5,1.2,0.3,1.8-0.4c0.4-0.4,0.8-0.7,1.1-1c0.4-0.4,0.6-0.9,0.9-1.3
		c0.4-0.4,0.9-0.6,1.2-0.9c0.3-0.4,0.6-0.8,0.9-1.2c0.4-0.4,0.7-0.8,1-1.2c0.4-0.4,0.7-0.8,1.1-1.2c0.3-0.3,0.7-0.7,1.1-1.1
		c0.3-0.3,0.8-0.6,1.2-1c0.3-0.3,0.6-0.9,0.9-1.2c0.4-0.4,0.7-0.8,1.1-1.1c0.3-0.4,0.7-0.8,1.1-1.2c0.3-0.3,0.6-0.7,1-1.2
		c0.4-0.4,0.8-0.7,1.2-1c0.3-0.4,0.6-0.9,0.9-1.2c0.4-0.4,0.9-0.6,1.2-1c0.3-0.4,0.7-0.7,1.1-1.1c0.4-0.4,0.6-0.8,0.9-1.2
		c0.4-0.4,0.8-0.7,1.2-1.1c0.3-0.4,0.7-0.8,1.1-1.2c0.3-0.3,0.2-0.8-0.2-1c-0.8-0.4-0.7-0.4-1.6-0.8c-0.3-0.1-0.3-0.4-0.2-0.8
		c0.3-0.6,0.1-0.7,0.4-1.4c0.3-0.6,0.4-0.6,0.7-1.2c0.3-0.6,0.3-0.6,0.6-1.2c0.3-0.6,0.4-0.6,0.7-1.3c0.3-0.6,0.2-0.7,0.5-1.3
		c0.1-0.3,0.6-0.3,0.9-0.2c0.6,0.3,0.7,0.2,1.4,0.5c0.6,0.3,0.6,0.4,1.2,0.7c0.6,0.3,0.7,0.1,1.4,0.5c0.6,0.3,0.5,0.5,1.2,0.8
		c0.6,0.3,0.7,0.1,1.4,0.5c0.6,0.3,0.6,0.3,1.2,0.6c0.6,0.3,0.6,0.4,1.2,0.7c0.6,0.3,0.6,0.4,1.3,0.7c0.6,0.3,0.7,0.2,1.3,0.5
		c0.6,0.3,0.6,0.4,1.3,0.7c0.6,0.3,0.6,0.2,1.3,0.5c0.6,0.3,0.5,0.6,1.2,0.9c0.6,0.3,0.6,0.3,1.2,0.6c0.6,0.3,0.8,0.1,1.4,0.4
		c0.6,0.3,0.6,0.4,1.2,0.7c0.6,0.3,0.7,0.3,1.3,0.6c0.6,0.3,0.6,0.3,1.3,0.6c0.6,0.3,0.6,0.4,1.2,0.7
		C853.4,209.7,853.5,210.1,853.4,210.4 M836.2,214.8c-0.7-0.3-0.6-0.3-1.4-0.7c-0.3,0.3-0.7,0.7-1,1.1c-0.3,0.4-0.6,0.7-1,1.2
		c-0.4,0.3-0.6,0.8-0.9,1.2c-0.3,0.4-0.7,0.7-1,1.1c-0.3,0.3-0.7,0.7-1,1.1c-0.3,0.4-0.6,0.8-1,1.2c-0.3,0.4-0.6,0.7-1,1.1
		c-0.3,0.3-0.7,0.6-1.1,1c-0.3,0.3-0.6,0.7-1,1.1c-0.3,0.4-0.2,1,0.2,1.2c0.6,0.3,0.7,0.3,1.3,0.6c0.6,0.3,0.7,0.3,1.3,0.6
		c0.6,0.3,0.6,0.4,1.3,0.7c0.6,0.3,0.7,0.2,1.4,0.5c0.6,0.3,0.6,0.3,1.2,0.6c0.4,0.2,0.6,0,0.7-0.4c0.1-0.5,0.4-0.9,0.5-1.4
		c0.1-0.5,0.2-1,0.3-1.5c0.1-0.5,0.1-1,0.2-1.5c0.1-0.5,0.2-1,0.3-1.4c0.1-0.5,0.4-0.9,0.5-1.4c0.1-0.5,0.2-1,0.3-1.5
		c0-0.5,0-1,0.1-1.5c0.1-0.5,0.2-1,0.2-1.4C835.9,215.7,836.1,215.2,836.2,214.8"/>
	<path class="st0" d="M848.6,260.2c0.4-0.6,0.3-0.6,0.7-1.2c0.4-0.6,0.4-0.6,0.8-1.1c0.4-0.6,0.6-0.4,1-1c0.4-0.6,0.3-0.6,0.7-1.2
		c0.5-0.6,0.5-0.6,0.9-1.2c0.2-0.3,0.7-0.4,0.9-0.2c0.7,0.5,0.7,0.5,1.5,1.1c0.3,0.2,0.6,0.2,0.8-0.1c0.5-0.6,0.5-0.6,1-1.2
		c0.5-0.6,0.5-0.6,1-1.2c0.5-0.6,0.3-0.7,0.8-1.3c0.5-0.6,0.6-0.5,1-1.1c0.5-0.6,0.5-0.6,1-1.2c0.5-0.6,0.4-0.6,0.9-1.2
		c0.5-0.6,0.5-0.6,1-1.2c0.5-0.6,0.5-0.6,0.9-1.2c0.5-0.6,0.4-0.6,0.9-1.3c0.5-0.6,0.4-0.6,0.8-1.2c0.5-0.6,0.6-0.5,1-1.2
		c0.5-0.6,0.3-0.7,0.8-1.3c0.5-0.6,0.6-0.5,1-1.2c0.5-0.6,0.5-0.6,1-1.2c0.5-0.6,0.3-0.7,0.8-1.3c0.5-0.6,0.6-0.5,1.1-1.1
		c0.4-0.6,0.4-0.6,0.9-1.2c0.5-0.6,0.5-0.6,0.9-1.2c0.5-0.6,0.3-0.7,0.8-1.3c0.2-0.3,0.2-0.6-0.1-0.8c-0.8-0.6-0.8-0.6-1.5-1.1
		c-0.3-0.2-0.3-0.7,0-1c0.4-0.6,0.5-0.5,0.9-1s0.4-0.6,0.8-1.2c0.4-0.6,0.4-0.6,0.8-1.2c0.4-0.6,0.4-0.6,0.8-1.2
		c0.5-0.6,0.5-0.6,0.9-1.1c0.2-0.3,0.6-0.5,0.8-0.3c0,0,0.2,0.1,0.2,0.1c0.4,0.3,0.6,0.8,1,1.1c0.4,0.3,0.9,0.4,1.3,0.7
		c0.4,0.3,0.8,0.6,1.2,0.9s0.7,0.7,1.1,1c0.4,0.3,0.9,0.4,1.3,0.7c0.4,0.3,0.8,0.6,1.2,0.9c0.4,0.3,0.7,0.7,1.1,1
		c0.4,0.3,0.7,0.6,1.1,0.9c0.4,0.3,0.9,0.5,1.2,0.8c0.4,0.3,0.8,0.6,1.2,0.9c0.4,0.3,0.8,0.5,1.2,0.8c0.4,0.3,0.7,0.7,1.1,1
		c0.4,0.3,0.8,0.6,1.2,0.9c0.4,0.3,0.8,0.6,1.2,0.9c0.4,0.3,0.8,0.6,1.2,0.9c0.4,0.3,0.7,0.7,1,1c0.4,0.3,0.9,0.5,1.2,0.8
		c0.3,0.3,0.7,0.7,1,1c0.3,0.4,0.6,0.8,0.9,1.2c0.3,0.4,0.4,0.9,0.6,1.4c0.3,0.4,0.5,0.9,0.6,1.4c0.2,0.5,0.4,0.9,0.5,1.3
		c0.1,0.5,0.4,0.9,0.5,1.5c0.1,0.5,0.1,1,0,1.5c0,0.5,0,1,0,1.5c-0.1,0.5-0.3,0.9-0.4,1.4c-0.1,0.5-0.1,1-0.3,1.5
		c-0.2,0.4-0.6,0.8-0.9,1.2c-0.3,0.4-0.5,0.9-0.8,1.3c-0.3,0.4-0.5,0.8-0.9,1.2c-0.4,0.3-0.9,0.6-1.2,0.8c-0.4,0.3-0.7,0.7-1.2,0.9
		c-0.4,0.3-0.9,0.5-1.3,0.7c-0.5,0.1-0.9,0.2-1.4,0.3c-0.5,0.1-0.9,0.3-1.4,0.4s-1,0-1.5,0c-0.4,0-0.9-0.1-1.4-0.2
		c-0.2-0.1-0.3-0.1-0.5-0.1c-0.6-0.1-1,0.5-0.7,1c0.2,0.2,0.4,0.4,0.6,0.6c0.2,0.4,0.3,1,0.5,1.4c0.2,0.4,0.6,0.8,0.8,1.2
		c0.1,0.4,0.2,0.9,0.3,1.4c0.1,0.5,0.2,0.9,0.3,1.5c0,0.4,0.1,1,0.1,1.5c-0.1,0.5-0.1,1-0.1,1.5c-0.1,0.5-0.3,0.9-0.4,1.4
		c-0.2,0.5-0.5,0.8-0.8,1.3c-0.3,0.4-0.6,0.8-0.9,1.3c-0.3,0.4-0.6,0.8-1,1.2c-0.3,0.5-0.7,0.8-1,1.2c-0.4,0.4-0.6,0.9-1,1.2
		c-0.4,0.3-1,0.4-1.5,0.6c-0.4,0.3-0.9,0.5-1.3,0.7c-0.5,0.2-0.9,0.4-1.4,0.5c-0.5,0.1-1,0.2-1.5,0.3c-0.5,0.1-1,0.2-1.5,0.2
		c-0.5,0-1,0-1.5,0c-0.5,0-0.9-0.2-1.5-0.4c-0.5-0.1-0.9-0.3-1.3-0.4c-0.4-0.2-0.8-0.3-1.2-0.5c-0.4-0.2-0.9-0.2-1.3-0.4
		s-0.7-0.6-1.1-0.8c-0.4-0.2-0.8-0.3-1.2-0.6c-0.3-0.3-0.8-0.5-1.1-0.8c-0.4-0.2-0.8-0.4-1.2-0.7c-0.4-0.3-0.7-0.6-1.1-0.9
		c-0.3-0.3-0.7-0.6-1.1-0.9c-0.4-0.3-0.8-0.5-1.2-0.8c-0.4-0.3-0.8-0.6-1.2-0.9c-0.3-0.3-0.8-0.5-1.2-0.8c-0.4-0.3-0.8-0.4-1.2-0.7
		c-0.4-0.3-0.7-0.6-1.1-0.9c-0.4-0.3-0.7-0.7-1-1c-0.3-0.3-0.7-0.5-1.1-0.8c-0.4-0.3-0.8-0.4-1.2-0.7c-0.4-0.3-0.8-0.6-1.1-0.8
		c-0.4-0.3-0.7-0.6-1.1-0.9c-0.3-0.3-0.7-0.6-1.1-0.9c-0.4-0.3-0.9-0.3-1.3-0.6c-0.4-0.3-0.7-0.7-1-0.9l0-0.1
		C848.5,260.8,848.4,260.5,848.6,260.2 M871.9,253.8c-0.4,0.6-0.3,0.6-0.7,1.2c-0.4,0.6-0.4,0.6-0.8,1.1c-0.5,0.6-0.6,0.5-1,1.1
		c-0.4,0.6-0.3,0.6-0.7,1.2c-0.4,0.6-0.4,0.6-0.9,1.2c-0.4,0.6-0.3,0.6-0.7,1.2c-0.4,0.6-0.5,0.5-0.9,1.1c-0.2,0.3-0.2,0.6,0.1,0.8
		c0.3,0.3,0.6,0.6,1,0.9c0.3,0.3,0.7,0.6,1,0.9c0.3,0.3,0.8,0.4,1.1,0.7c0.3,0.3,0.6,0.6,1,0.9c0.3,0.3,0.7,0.5,1.1,0.7
		c0.5,0.3,0.9,0.4,1.3,0.5c0.5,0.1,1,0.2,1.5,0.2c0.4-0.1,1-0.2,1.5-0.4c0.4-0.2,0.8-0.5,1.2-0.8c0.4-0.3,0.7-0.7,1-1.2
		c0.3-0.5,0.7-0.8,1-1.2c0.2-0.5,0.2-1,0.3-1.5c0.1-0.6,0.2-1,0.2-1.5c-0.1-0.5-0.2-1-0.3-1.5c-0.2-0.4-0.7-0.7-1.1-1.1
		c-0.3-0.3-0.5-0.8-0.8-1.1c-0.3-0.3-0.7-0.6-1-0.9c-0.4-0.3-0.8-0.6-1.1-0.9c-0.4-0.3-0.8-0.4-1.2-0.7c-0.3-0.3-0.7-0.6-1-0.9
		C872.5,253.6,872.1,253.5,871.9,253.8 M877.2,246.7c-0.2,0.3-0.1,0.6,0.2,0.9c0.4,0.3,0.8,0.5,1.2,0.8c0.4,0.3,0.7,0.8,1.1,1.1
		c0.4,0.3,0.9,0.5,1.2,0.8c0.3,0.2,0.7,0.4,1,0.5c0.5,0.2,1,0.2,1.4,0.3c0.5,0,0.9,0.1,1.5,0c0.5-0.1,1-0.3,1.4-0.5
		c0.4-0.3,0.9-0.5,1.2-0.9c0.4-0.4,0.7-0.9,0.9-1.4c0.2-0.5,0.3-1.1,0.4-1.6c0.1-0.6,0.2-1.1,0.1-1.7c-0.2-0.5-0.4-1-0.7-1.4
		c-0.3-0.4-0.7-0.7-1.1-1.1c-0.4-0.4-0.7-0.8-1.1-1.2c-0.4-0.3-0.8-0.6-1.2-1c-0.4-0.3-0.9-0.6-1.3-0.9c-0.3-0.2-0.7-0.1-0.9,0.2
		c-0.5,0.6-0.6,0.5-1,1.2c-0.4,0.6-0.3,0.7-0.7,1.3c-0.5,0.6-0.6,0.5-1,1.1c-0.5,0.6-0.5,0.6-1,1.2c-0.4,0.6-0.3,0.7-0.7,1.3
		C877.7,246.2,877.6,246.1,877.2,246.7"/>
	<path class="st0" d="M943.5,283.5l-1,0.9c-0.5,0.5-0.5,0.5-1,1c-0.5,0.5-0.5,0.5-1,0.9c-0.5,0.5-0.4,0.6-0.9,1
		c-0.6,0.5-0.6,0.5-1.1,1c-0.2,0.2-0.7,0.2-1-0.1c-0.6-0.6-0.6-0.6-1.2-1.2c-0.3-0.3-0.7-0.3-0.9,0.1c-0.3,0.4-0.6,0.8-0.9,1.3
		c-0.3,0.5-0.5,0.9-0.8,1.3c-0.3,0.4-0.5,0.9-0.8,1.3c-0.2,0.5-0.4,0.9-0.7,1.4c-0.2,0.4-0.4,0.9-0.7,1.3c-0.3,0.4-0.6,0.9-0.8,1.3
		c-0.3,0.4-0.4,1-0.7,1.4c-0.2,0.4-0.5,0.9-0.7,1.3c-0.3,0.5-0.5,0.9-0.8,1.3c-0.2,0.5-0.6,0.8-0.9,1.2c-0.2,0.4-0.5,0.9-0.8,1.3
		c-0.2,0.4-0.4,0.9-0.6,1.3c-0.3,0.4-0.5,0.9-0.8,1.3c-0.2,0.4-0.7,0.8-0.9,1.2c-0.3,0.5-0.5,0.9-0.8,1.3c-0.3,0.4-0.4,1-0.6,1.4
		c-0.3,0.4-0.5,0.9-0.7,1.4c-0.3,0.4-0.5,0.9-0.8,1.3c-0.3,0.4-0.5,0.8-0.8,1.3c-0.3,0.5-0.6,0.9-0.6,1.3c0,0.4,0.2,0.9,0.7,1.2
		c0.3,0.2,0.6,0.3,0.9,0.5c0.2,0.3,0.1,0.6-0.2,0.9c-0.5,0.5-0.5,0.5-1,1c-0.5,0.5-0.6,0.4-1.1,0.9c-0.5,0.5-0.5,0.5-1,1
		c-0.5,0.5-0.4,0.6-0.9,1.1c-0.5,0.5-0.7,0.3-1.2,0.8c-0.2,0.2-0.5,0.3-0.7,0c-0.5-0.6-0.5-0.6-1-1.1c-0.5-0.5-0.4-0.6-0.9-1.1
		c-0.5-0.5-0.6-0.4-1.1-0.9c-0.5-0.5-0.5-0.5-1-1c-0.5-0.5-0.4-0.7-0.9-1.2c-0.5-0.6-0.6-0.5-1.1-1.1c-0.5-0.5-0.6-0.4-1.1-1
		c-0.5-0.5-0.4-0.6-0.9-1.2c-0.5-0.5-0.5-0.5-1-1.1c-0.5-0.5-0.6-0.4-1.1-1c-0.5-0.5-0.4-0.7-0.9-1.2c-0.5-0.5-0.5-0.5-1-1.1
		c-0.3-0.3-0.3-0.7-0.1-0.9c0.6-0.6,0.7-0.4,1.4-1c0.6-0.6,0.6-0.6,1.2-1.1c0.6-0.6,0.6-0.6,1.2-1.2c0.6-0.6,0.6-0.6,1.2-1.2
		c0.3-0.3,0.7-0.3,1,0c0.4,0.4,0.3,0.4,0.7,0.9c0.4,0.4,0.3,0.4,0.7,0.9c0.3,0.3,0.9,0.2,1.2-0.2c0.3-0.4,0.5-1,0.8-1.4
		c0.3-0.5,0.6-1,0.8-1.4c0.1-0.2,0.2-0.5,0-0.7c-0.3-0.4-0.7-0.8-1-1.2c-0.3-0.3-0.7-0.8-1.1-1.2c-0.3-0.3-0.8-0.6-1.2-1
		c-0.3-0.3-0.6-0.8-0.9-1.1c-0.3-0.3-0.7-0.7-1-1c-0.3-0.3-0.5-0.8-0.9-1.2c-0.3-0.3-0.8-0.6-1.1-0.9c-0.3-0.3-0.7-0.7-1-1.1
		c-0.5-0.5-0.7-0.7-1.3-0.3c-0.4,0.2-0.8,0.5-1.2,0.7c-0.4,0.2-0.8,0.3-1.2,0.6c-0.4,0.2-0.5,0.8-0.2,1.1c0.4,0.4,0.3,0.4,0.7,0.9
		c0.4,0.4,0.5,0.3,0.8,0.7c0.3,0.3,0.1,0.6-0.1,0.9c-0.6,0.6-0.5,0.6-1.2,1.3c-0.6,0.6-0.7,0.5-1.3,1c-0.6,0.6-0.5,0.7-1.1,1.3
		c-0.6,0.6-0.6,0.6-1.2,1.1c-0.3,0.3-0.8,0.2-1,0c-0.5-0.5-0.5-0.4-1-1c-0.5-0.5-0.4-0.7-0.9-1.2c-0.5-0.5-0.5-0.5-0.9-1
		c-0.5-0.5-0.6-0.4-1.1-1c-0.5-0.5-0.5-0.6-0.9-1.1c-0.5-0.5-0.6-0.4-1-0.9c-0.5-0.5-0.3-0.7-0.8-1.2c-0.5-0.5-0.6-0.4-1-0.9
		c-0.5-0.5-0.6-0.4-1.1-1c-0.5-0.5-0.4-0.6-0.9-1.2c-0.5-0.5-0.6-0.3-1.1-0.9c-0.3-0.3-0.1-0.8,0.1-1.1c0.5-0.5,0.6-0.4,1.1-0.9
		c0.5-0.5,0.5-0.5,1-1c0.5-0.5,0.5-0.5,1-1c0.5-0.5,0.4-0.6,0.9-1c0.5-0.5,0.6-0.3,1.1-0.8c0.3-0.3,0.6-0.3,0.8-0.1
		c0.3,0.3,0.6,0.6,0.9,0.9c0.5,0.7,1,0.7,1.8,0.3c0.5-0.2,1-0.3,1.4-0.6c0.5-0.2,0.9-0.6,1.3-0.9c0.5-0.2,1-0.3,1.5-0.5
		c0.5-0.3,0.9-0.6,1.3-0.8c0.5-0.2,0.9-0.5,1.3-0.7c0.5-0.2,0.9-0.5,1.4-0.7c0.4-0.2,0.9-0.4,1.4-0.6c0.4-0.2,0.9-0.3,1.4-0.5
		c0.4-0.2,0.8-0.6,1.2-0.8c0.5-0.2,0.9-0.5,1.4-0.6c0.5-0.3,0.9-0.5,1.4-0.7c0.4-0.2,0.9-0.5,1.3-0.7c0.5-0.2,1-0.3,1.4-0.5
		c0.4-0.3,0.8-0.6,1.3-0.9c0.5-0.2,1-0.3,1.4-0.5c0.4-0.3,0.9-0.4,1.4-0.6c0.5-0.2,0.9-0.6,1.3-0.8c0.5-0.2,1-0.4,1.5-0.6
		c0.5-0.3,0.9-0.5,1.5-0.8c0.4-0.2,0.4-0.7,0.1-1c-0.6-0.6-0.5-0.7-1.2-1.3c-0.2-0.2-0.1-0.5,0.1-0.8c0.5-0.5,0.3-0.6,0.9-1.1
		c0.5-0.5,0.6-0.4,1.1-0.9c0.5-0.5,0.5-0.5,1-0.9c0.5-0.5,0.6-0.4,1.1-0.9c0.5-0.5,0.4-0.6,0.9-1c0.2-0.2,0.7-0.1,0.9,0.1
		c0.5,0.5,0.6,0.4,1.1,1c0.5,0.5,0.4,0.6,0.9,1.1c0.5,0.5,0.6,0.4,1.1,0.9c0.5,0.5,0.3,0.6,0.8,1.1c0.5,0.5,0.6,0.4,1.1,0.9
		c0.5,0.5,0.5,0.5,0.9,1c0.5,0.5,0.4,0.6,0.9,1.1c0.5,0.5,0.5,0.6,0.9,1.1c0.5,0.5,0.6,0.4,1,0.9c0.5,0.5,0.4,0.6,0.9,1.1
		c0.5,0.5,0.6,0.4,1,0.9c0.5,0.5,0.3,0.7,0.8,1.2c0.5,0.5,0.5,0.5,0.9,1c0.5,0.5,0.7,0.4,1.2,0.9c0.5,0.5,0.4,0.5,0.9,1.1
		c0.5,0.5,0.5,0.5,1,1c0.5,0.5,0.5,0.5,1,1.1c0.5,0.5,0.4,0.6,0.9,1.1C943.8,282.9,943.7,283.2,943.5,283.5 M925.8,281.6
		c-0.5-0.6-0.5-0.5-1-1.1c-0.4,0.2-0.9,0.4-1.3,0.6c-0.5,0.3-0.9,0.5-1.3,0.7c-0.4,0.2-0.9,0.6-1.3,0.8c-0.5,0.3-0.9,0.4-1.4,0.7
		c-0.4,0.2-0.9,0.4-1.3,0.6c-0.4,0.3-0.9,0.6-1.3,0.7c-0.5,0.3-0.9,0.5-1.3,0.7c-0.4,0.2-0.9,0.3-1.3,0.6c-0.4,0.2-0.9,0.5-1.3,0.6
		c-0.4,0.3-0.5,0.9-0.2,1.2c0.5,0.5,0.5,0.5,1,1c0.5,0.5,0.5,0.5,1,1c0.5,0.5,0.4,0.6,0.9,1.1c0.5,0.5,0.6,0.4,1.1,1s0.5,0.5,1,1
		c0.3,0.3,0.6,0.3,0.8-0.1s0.6-0.7,0.9-1.1c0.3-0.4,0.5-0.8,0.8-1.3c0.2-0.4,0.4-0.9,0.7-1.3c0.2-0.4,0.5-0.9,0.7-1.3
		c0.3-0.4,0.7-0.7,1-1.2c0.2-0.4,0.5-0.8,0.8-1.3c0.2-0.4,0.4-0.9,0.6-1.4c0.3-0.4,0.5-0.9,0.7-1.3
		C925.2,282.3,925.6,282,925.8,281.6"/>
	<path class="st0" d="M578.6,393.3c-9.9,8.5-20.3,16.6-29.6,25.4c-28.4,27.1-49.1,58-65.9,90.5c-16.4,31.7-29.2,64.3-35.2,98.3
		c-0.6,3.1-0.8,6.2-1.2,9.4c-30.3-7.1-50.6-36-44.1-62.6c6.4-26,19-50.3,31.3-74.8c9.5-18.9,18.2-38,26.8-57.1
		c2.4-5.4,3.8-11.2,0.8-18.1c-6.8,5.3-13.1,9.9-18.9,14.8c-28.8,24.8-49.6,53.7-67,84.4c-16.3,28.7-29.3,58.3-38.7,88.8
		c-2.5,8.3-2.7,17.1-3.7,25.6c-0.4,3.4,0,6.8,0.1,11.7c-15.2-3.9-29.9-6.8-43.6-11.5c-14-4.9-19.2-16.4-14.9-28.9
		c21.2-60.7,42.7-121.3,63.8-182c2.9-8.3,4.7-16.9,6.4-25.4c1.3-6.3-2.9-9.9-10.7-9.9c-10.3,0-19,3.9-26.7,9
		c-17.4,11.6-32.7,25-43.8,41.2c-12.4,18-16.9,36.6-5.6,56.3c-17.3-4.7-33.2-9.8-47.9-17.2c-10.6-5.3-13.3-13.4-10.8-22.5
		c2.1-7.5,5.5-15.4,10.7-21.8c22.1-27.2,51.8-46.9,89.6-56.8c24.7-6.5,47.3-3.3,66.4,11.3c5.4,4.1,12.6,6.5,18.8,9.9
		c13.1,7.2,15.3,14.5,10.3,27.3c-7.1,18.1-13.3,36.5-18.9,55.1c6.4-7.5,12.5-15.2,19.3-22.4c14.3-15.1,28.7-30.1,43.5-44.9
		c7.9-7.9,17.6-14.1,30.2-15.7c28.2-3.7,51,16.4,46.2,40.5c-0.6,2.8-1.4,5.5-2.4,9.7c3.9-4.3,6.6-7.8,9.8-10.9
		c13.2-13.1,25.9-26.7,40-39.1c13.7-12.1,30.8-14.4,45.9-9.5c28.9,9.3,29.6,30.6,23.1,47.3c-9.3,23.8-19.2,47.4-26.9,71.5
		c-10.9,34-16.5,68.6-13.1,103.5c1.9,18.6,6.2,36.7,17.2,53.1c1.4,2.2,3.1,4.2,4.8,6.2c2.4,3,1.2,6-3.3,6.4c-4.2,0.3-8.9,0.2-12.8-1
		c-29.7-9.5-54.3-24.6-73.2-45.5c-6-6.6-6.8-14.6-7.5-22.6c-2-25.3,3.6-50.1,13.7-74.1c10.5-25.1,23.6-49.5,35.1-74.3
		c5.5-11.8,10-23.9,14.4-36c1.3-3.7,0.7-7.8,0.9-11.7C580.7,393.9,579.6,393.6,578.6,393.3"/>
	<path class="st0" d="M829.3,514.7c-8.7,10.7-16.3,20-23.9,29.4c-0.4,0.5-0.8,1.1-0.9,1.7c-0.4,5.4-0.6,10.9,5.5,14.3
		c6.1,3.4,13.2,4.2,20,1.4c6.7-2.8,7.4-8.4,6.5-13.6C834.6,537.2,831.9,526.6,829.3,514.7 M901.8,541.5
		c7.6-21.5,15.3-42.5,22.3-63.6c4.7-14,8.9-28,12.4-42.2c1.9-7.7,1.2-15.7-5.2-23.8c8.3,1.1,15.2,1.5,21.8,3
		c6.5,1.5,12.5,4.1,18.8,6.1c10,3.2,14.1,9.8,13,18.1c-1.5,11.5-4.2,22.9-6.9,34.3c-5.5,22.7-11.3,45.3-17,68
		c-0.4,1.5-0.5,3.1-0.9,5.9c4.3-3.3,7.8-5.6,10.7-8.3c6.4-6,12.3-12.3,18.9-18.2c5.2-4.6,6.1-9.7,6.1-15.6
		c-0.1-20.3,4.3-40,15.5-58.6c16.7-27.9,44.5-44.1,80.1-52.1c12.4-2.8,24.8-3.9,37.4-2.6c18.7,1.9,27,11.2,25,26.8
		c-1.4,10.8-6,20.3-15.6,27.9c-9.3,7.4-19.1,14.4-29.1,21.2c-3,2-7.3,3.4-11,3.6c-2.4,0.1-5.5-2.2-6.9-4c-0.7-0.9,1.2-3.9,2.9-5.1
		c11.6-8.9,23.5-17.6,35.1-26.5c2.3-1.8,4.1-4.3,5.6-6.6c2.1-3.5,0.7-5.5-3.9-5.8c-1.8-0.1-3.9-0.1-5.6,0.5
		c-27.5,10.1-51.9,23.6-67.3,45.7c-16.6,23.6-18.4,48.6-9.9,73.8c3.9,11.7,14.9,15.2,29,10.5c12.6-4.3,22.7-11.5,32.1-19.3
		c12.3-10.2,23.9-21.3,34.4-33.3c5.1-5.9,10-11.9,14.6-18.2c3-4,7.6-15.1,12.6-16.6c8.3-2.4,2.2,18.8,0.3,21.7
		c-14.8,22.1-31.8,43-54.8,60.2c-15.5,11.6-33.1,19.2-54.2,19.8c-25.3,0.6-56.4-6.6-64-34.6c-1.5,1.4-2.6,2.3-3.7,3.4
		c-6.6,6.6-12.8,13.5-19.2,20.2c-3.7,3.9-6.7,8.7-11.1,11.9c-9.2,6.7-24.9-1.1-34.6-4.5c-11.3-4-21.9-9.9-27.9-20.7
		c-0.3,3.4-0.3,5.4-0.7,7.4c-3.3,21.2-22.4,37.4-49.4,41.7c-10.8,1.7-21.6,2.7-32.2,0.3c-15.8-3.4-26-11.7-31-24.4
		c-0.4-1-0.8-2.1-1.2-3.1c-0.1-0.3-0.4-0.5-1.4-1.5c-7.8,8-15.5,15.7-23,23.6c-2.2,2.2-4.2,3-7.8,2.3c-15.4-2.9-29.9-7.4-41.8-16.1
		c-1.9-1.4-3.7-3.1-5.5-4.6c-5.4-4.7-7.8-9.8-4.3-16.5c2-3.8,2.8-8.1,3.3-12.3c-3.3,6.8-6.2,13.7-10.1,20.3
		c-5.6,9.7-11.8,19.2-17.9,28.8c-0.9,1.4-2.2,2.6-3.4,3.9c-4.7,5.1-9.7,7.8-18.1,5.7c-13.3-3.2-26.3-6.4-37.3-13.5
		c-3.2-2.1-6.1-4.5-8.9-6.9c-5.5-4.8-7-9.7-4.2-16.8c10.8-28.3,20.7-56.9,30.4-85.4c2.4-6.9,3.6-14.3,3.9-21.4
		c0.2-6.6-1.5-13.1-2.5-20.4c5.8,0.8,13,1.1,19.7,2.7c6.2,1.5,12,4.2,18,6.5c13.6,5.1,17.8,14.7,15.6,26.2
		c-2.2,11.6-6.2,23-9.1,34.6c-5.7,22.2-11.2,44.4-16.7,66.6c-0.2,0.9-0.1,1.8,0.7,3.1c2.8-3.9,5.9-7.7,8.2-11.8
		c20.5-35.9,41.1-71.8,60.8-107.9c4.9-9,3.2-18.8-1.1-27.8c18.7-2,45.1,3.7,51.8,21.3c3.6,9.6,2,19-0.7,28.7
		c-7.8,27.6-15.3,55.2-22.9,82.9c-0.3,1.2-0.3,2.4-0.7,5.1c4.3-3.5,7.7-6,10.7-8.8c18.8-17.4,33.7-36.9,47.9-56.9
		c1-1.4,1-3.6,0.6-5.2c-2.5-10.6-6.5-21-5.6-32.2c1.6-18.5,17.1-34.5,32.3-43.4c11.8-6.9,25.4-10.5,39.1-10.1
		c6.9,0.2,13.8,1.4,20.4,3.6c7.6,2.6,11.3,4.4,14.6,11.7c-2.3,0-4.6,0.3-6.8-0.1c-22.8-4.1-39.8,7.9-38,28.4
		c1.1,12.8,4.4,25.6,8,38.1C890,507.1,896.1,523.9,901.8,541.5"/>
	<path class="st0" d="M992.8,407.1c-15.8,0.4-30.8,1.1-43.5-5.5c-7.8-4-8.9-6.6-6.2-13.4c3.7-9.6,2.2-18.9,0.2-28.3
		c-0.5-2.1-1-4.3-1.7-6.7c3.5-0.3,6.8-1.1,9.8-0.9c14.4,1.3,27.6,4.7,38.8,11.2c5.6,3.3,7.4,7.2,6,12.9c-2.1,8.4-2.4,17-3.4,25.6
		C992.6,403.5,992.8,405,992.8,407.1"/>
	<path class="st0" d="M515.9,681.6c3.6-3.6,8.8-3.4,12.4,0.1c3.5,3.5,3.7,8.7,0.1,12.3c-3.6,3.6-8.7,3.4-12.3-0.1
		C512.5,690.4,512.2,685.3,515.9,681.6"/>
	<path class="st0" d="M597.1,712.3c-0.4,0.6-0.4,0.6-0.9,1.3c-0.4,0.6-0.5,0.6-0.9,1.3c-0.4,0.6-0.3,0.7-0.7,1.4
		c-0.4,0.7-0.4,0.7-0.9,1.3c-0.4,0.7-0.5,0.7-0.9,1.3c-0.4,0.6-0.5,0.6-1,1.3c-0.4,0.6-0.3,0.7-0.8,1.4c-0.4,0.6-0.5,0.6-0.9,1.2
		c-0.4,0.7-0.4,0.7-0.8,1.4c-0.2,0.4-0.6,0.4-1,0.2c-0.7-0.4-0.7-0.5-1.4-0.9c-0.7-0.4-0.7-0.4-1.4-0.8c-0.7-0.5-0.8-0.3-1.5-0.7
		c-0.7-0.4-0.7-0.5-1.4-1c-0.7-0.4-0.6-0.6-1.3-1c-0.3-0.2-0.4-0.6-0.2-0.9c0.4-0.6,0.3-0.7,0.7-1.4c0.4-0.6,0.5-0.6,0.9-1.3
		c0.4-0.6,0.3-0.7,0.7-1.4c0.2-0.4,0.2-0.8-0.2-1.1c-0.6-0.4-0.6-0.4-1.2-0.8c-0.6-0.4-0.6-0.4-1.2-0.8c-0.6-0.4-1.2-0.7-1.8-1.1
		c-0.6-0.4-0.6-0.4-1.3-0.8c-0.6-0.4-0.7-0.3-1.3-0.7c-0.6-0.4-0.6-0.4-1.2-0.8c-0.4-0.2-0.7-0.2-1,0.2c-0.4,0.7-0.6,0.6-0.9,1.3
		c-0.4,0.7-0.5,0.7-0.9,1.3c-0.4,0.7-0.4,0.7-0.8,1.4c-0.4,0.7-0.6,0.6-1,1.3c-0.4,0.7-0.4,0.7-0.8,1.4c-0.2,0.3,0,0.9,0.3,1.1
		c0.6,0.4,0.6,0.4,1.3,0.9c0.7,0.4,0.7,0.4,1.4,0.9c0.7,0.4,0.7,0.5,1.3,0.9c0.7,0.4,0.7,0.4,1.4,0.9c0.7,0.4,0.8,0.3,1.5,0.7
		c0.6,0.4,0.5,0.6,1.2,1c0.4,0.2,0.6,0.6,0.3,1c-0.4,0.6-0.4,0.6-0.8,1.2c-0.3,0.5-0.3,0.6-0.7,1.2c-0.4,0.6-0.5,0.5-0.9,1.1
		c-0.4,0.6-0.4,0.6-0.8,1.2c-0.4,0.6-0.3,0.6-0.7,1.2c-0.2,0.4-0.7,0.4-1.1,0.2c-0.7-0.4-0.7-0.4-1.4-0.9c-0.6-0.4-0.7-0.3-1.4-0.8
		c-0.7-0.4-0.7-0.4-1.4-0.9c-0.7-0.4-0.7-0.4-1.4-0.8c-0.7-0.4-0.7-0.4-1.4-0.9c-0.7-0.4-0.7-0.4-1.4-0.9c-0.3-0.2-0.7-0.2-0.9,0.2
		c-0.4,0.7-0.6,0.6-1,1.3c-0.4,0.7-0.2,0.8-0.7,1.5c-0.4,0.7-0.7,0.5-1.2,1.2c-0.4,0.7-0.4,0.7-0.9,1.4c-0.4,0.7-0.3,0.8-0.8,1.5
		c-0.2,0.4,0,0.7,0.3,0.9c0.7,0.4,0.6,0.6,1.3,1c0.7,0.4,0.7,0.4,1.4,0.8c0.7,0.4,0.7,0.4,1.4,0.9c0.7,0.4,0.7,0.4,1.4,0.8
		c0.7,0.4,0.9,0.7,1.6,1.1c0.7,0.4,0.7,0.5,1.4,0.9c0.4,0.2,0.9,0.2,1.2-0.2c0.4-0.7,0.3-0.8,0.8-1.5c0.4-0.7,0.6-0.6,1-1.3
		c0.5-0.8,0.3-0.9,0.8-1.6c0.2-0.3,0.7-0.3,1-0.1c0.7,0.4,0.7,0.4,1.4,0.8c0.7,0.4,0.7,0.5,1.4,0.9c0.7,0.4,0.7,0.4,1.5,0.9
		c0.7,0.4,0.8,0.3,1.5,0.8c0.7,0.4,0.6,0.6,1.3,1c0.3,0.2,0.4,0.6,0.2,0.9c-0.4,0.6-0.4,0.6-0.8,1.2c-0.4,0.6-0.4,0.6-0.8,1.2
		c-0.4,0.6-0.3,0.7-0.6,1.3c-0.4,0.6-0.3,0.7-0.7,1.3c-0.4,0.6-0.4,0.6-0.8,1.2c-0.4,0.6-0.6,0.6-1,1.2c-0.4,0.6-0.3,0.6-0.7,1.3
		c-0.4,0.6-0.4,0.6-0.8,1.2c-0.4,0.6-0.3,0.7-0.7,1.3c-0.4,0.6-0.3,0.6-0.7,1.3c-0.2,0.3-0.9,0.4-1.2,0.2c-0.6-0.4-0.6-0.5-1.3-0.9
		c-0.6-0.4-0.6-0.5-1.2-0.9c-0.6-0.4-0.6-0.4-1.3-0.8c-0.7-0.4-0.7-0.4-1.4-0.8s-0.6-0.5-1.2-0.9c-0.6-0.4-0.6-0.4-1.3-0.9
		c-0.6-0.4-0.8-0.2-1.4-0.6c-0.6-0.4-0.5-0.6-1.2-1c-0.7-0.4-1-0.7-1.6-1.1c-0.6-0.4-0.7-0.3-1.4-0.7s-0.6-0.4-1.3-0.9
		c-0.6-0.4-0.6-0.5-1.2-0.9s-0.7-0.3-1.4-0.7c-0.7-0.4-0.7-0.4-1.3-0.9c-0.6-0.4-0.6-0.5-1.2-0.9c-0.6-0.4-0.6-0.5-1.3-0.9
		c-0.6-0.4-0.7-0.3-1.3-0.8c-0.6-0.4-0.6-0.5-1.2-0.9c-0.7-0.4-0.8-0.3-1.4-0.7c-0.6-0.4-0.6-0.5-1.2-0.9c-0.6-0.4-0.6-0.5-1.3-0.9
		c-0.6-0.4-0.8-0.2-1.4-0.6c-0.6-0.4-0.5-0.6-1.2-1c-0.4-0.2-0.6-0.6-0.4-1c0.5-0.8,0.4-0.8,0.9-1.5c0.4-0.7,0.5-0.7,0.9-1.4
		c0.5-0.7,0.6-0.6,1.1-1.3c0.4-0.7,0.3-0.8,0.8-1.6c0.2-0.3,0.8-0.5,1.1-0.3c0.7,0.4,0.7,0.5,1.4,1c0.3,0.2,0.8,0.1,1-0.3
		c0.4-0.6,0.5-0.6,0.9-1.2c0.4-0.6,0.3-0.7,0.7-1.4c0.4-0.6,0.5-0.6,0.9-1.2c0.4-0.6,0.5-0.6,0.8-1.2c0.4-0.6,0.3-0.7,0.7-1.3
		c0.4-0.6,0.6-0.6,1-1.2c0.4-0.6,0.4-0.7,0.7-1.3c0.4-0.6,0.4-0.6,0.8-1.3c0.4-0.6,0.5-0.6,0.9-1.2c0.4-0.6,0.3-0.6,0.7-1.3
		c0.4-0.6,0.4-0.7,0.8-1.3c0.4-0.6,0.4-0.6,0.8-1.3c0.4-0.6,0.5-0.5,0.9-1.2c0.4-0.6,0.3-0.7,0.6-1.4c0.4-0.6,0.5-0.6,0.9-1.2
		c0.4-0.6,0.4-0.6,0.8-1.2c0.4-0.6,0.4-0.6,0.8-1.3c0.4-0.6,0.5-0.6,0.8-1.2c0.4-0.6,0.4-0.7,0.8-1.3c0.2-0.4,0.1-0.9-0.2-1.1
		c-0.7-0.5-0.7-0.5-1.5-0.9c-0.4-0.2-0.5-0.7-0.3-1c0.5-0.8,0.5-0.7,1-1.4c0.5-0.7,0.5-0.7,1-1.4c0.5-0.8,0.4-0.8,0.9-1.5
		c0.4-0.7,0.4-0.7,0.9-1.5c0.2-0.4,0.6-0.4,1-0.1c0.6,0.4,0.7,0.3,1.4,0.7c0.6,0.4,0.6,0.4,1.2,0.8c0.6,0.4,0.7,0.4,1.3,0.8
		c0.6,0.4,0.6,0.5,1.2,0.9c0.6,0.4,0.6,0.4,1.3,0.8c0.6,0.4,0.6,0.4,1.2,0.8c0.6,0.4,0.6,0.5,1.2,0.9c0.6,0.4,0.7,0.3,1.4,0.7
		s0.6,0.4,1.3,0.8c0.6,0.4,0.6,0.3,1.3,0.7c0.6,0.4,0.5,0.6,1.2,1c0.6,0.4,0.7,0.3,1.3,0.8c0.6,0.4,0.7,0.3,1.3,0.8
		c0.6,0.4,0.6,0.3,1.3,0.7s1.2,0.7,1.8,1.2c0.6,0.4,0.5,0.6,1.2,1c0.6,0.4,0.7,0.2,1.4,0.6c0.6,0.4,0.6,0.5,1.2,0.9
		c0.6,0.4,0.6,0.5,1.2,0.9c0.6,0.4,0.7,0.3,1.4,0.7c0.6,0.4,0.6,0.4,1.2,0.8c0.6,0.4,0.6,0.5,1.2,0.9c0.6,0.4,0.6,0.4,1.3,0.8
		C597.2,711.4,597.4,711.9,597.1,712.3"/>
	<path class="st0" d="M631.6,727.1c0-0.1,0-0.1,0-0.1c0.2-0.4,0.7-0.5,1.2-0.4c0.7,0.3,0.8,0.1,1.6,0.4c0.8,0.3,0.7,0.5,1.4,0.8
		c0.8,0.3,0.8,0.2,1.6,0.5c0.7,0.3,0.8,0.2,1.5,0.4c0.4,0.2,0.6,0.8,0.5,1.2c-0.3,0.7-0.3,0.7-0.6,1.4c-0.3,0.8-0.2,0.8-0.5,1.5
		c-0.3,0.8-0.3,0.8-0.6,1.6c-0.3,0.7-0.3,0.7-0.6,1.5c-0.3,0.7-0.3,0.7-0.6,1.5c-0.3,0.8-0.4,0.7-0.7,1.4c-0.3,0.8-0.1,0.8-0.4,1.6
		c-0.3,0.7-0.3,0.7-0.6,1.5c-0.2,0.4-0.7,0.5-1.1,0.3c-0.5-0.2-1.2-0.2-1.7-0.4c-0.5-0.2-1-0.5-1.6-0.7c-0.5-0.2-1-0.5-1.6-0.7
		c-0.5-0.2-1.1-0.3-1.6-0.5c-0.2-0.1-0.5-0.6-0.4-0.9c0-0.5,0-1-0.1-1.5c-0.1-0.5-0.1-1.1-0.3-1.6c-0.2-0.5-0.5-0.9-0.9-1.3
		c-0.3-0.4-0.6-0.9-1-1.2c-0.4-0.4-1-0.4-1.4-0.7c-0.4-0.2-0.8-0.7-1.3-0.8c-0.5-0.2-1-0.4-1.5-0.5c-0.5-0.1-1.1,0.2-1.5,0.3
		c-0.5,0.1-1,0.3-1.4,0.5c-0.5,0.3-1,0.5-1.2,0.9c-0.2,0.4-0.2,1-0.2,1.5c0,0.5,0,1,0.2,1.5c0.2,0.5,0.5,0.9,0.9,1.3
		c0.3,0.3,0.8,0.6,1.2,0.9c0.4,0.3,0.7,0.6,1.1,1c0.4,0.3,0.7,0.7,1,1c0.3,0.3,0.7,0.7,1.1,1c0.4,0.3,0.7,0.6,1.2,0.9
		c0.4,0.3,0.7,0.6,1.1,0.9c0.4,0.3,0.6,0.6,1,1c0.3,0.3,0.6,0.6,1,1c0.3,0.3,0.7,0.6,1,0.9c0.3,0.3,0.6,0.7,1,1
		c0.3,0.4,0.8,0.7,1.1,1.1c0.3,0.4,0.3,0.9,0.6,1.4c0.3,0.5,0.5,0.9,0.7,1.4c0.2,0.5,0.4,1,0.5,1.4c0.2,0.5,0.2,0.9,0.3,1.5
		c0.1,0.5,0.3,1,0.3,1.5c0,0.5-0.2,1-0.2,1.5c-0.1,0.5-0.1,1-0.2,1.5c-0.1,0.5-0.3,1-0.5,1.5c-0.2,0.5-0.4,0.9-0.7,1.4
		c-0.2,0.4-0.2,1-0.4,1.5c-0.2,0.5-0.5,0.9-0.8,1.3c-0.2,0.4-0.6,0.8-1,1.2c-0.3,0.4-0.6,0.9-0.9,1.2c-0.3,0.4-0.7,0.7-1.1,1.1
		c-0.4,0.3-0.9,0.5-1.4,0.8c-0.4,0.3-0.9,0.6-1.3,0.7c-0.5,0.2-1,0.4-1.5,0.5c-0.5,0.1-1,0.2-1.5,0.3c-0.5,0.1-1,0.2-1.6,0.2
		c-0.5,0-1,0.1-1.5,0.1c-0.5,0-1-0.1-1.5-0.2c-0.5-0.1-1-0.1-1.5-0.3c-0.5-0.1-1-0.3-1.5-0.4c-0.4-0.2-0.9-0.3-1.3-0.5
		c-0.5-0.2-1-0.1-1.4-0.3c-0.4-0.2-0.9-0.3-1.4-0.5c-0.4-0.2-0.8-0.5-1.2-0.7c-0.5-0.3-0.9-0.7-1.3-1c-0.5-0.3-1-0.5-1.5-0.8
		c-0.4-0.4-0.7-0.9-1-1.3c-0.3-0.5-0.7-0.8-1-1.3c-0.3-0.6-1.1-0.5-1.3,0.1c-0.1,0.3-0.1,0.3-0.3,0.6c-0.2,0.4-0.7,0.6-1.1,0.4
		c-0.8-0.3-0.8-0.2-1.5-0.4c-0.8-0.3-0.7-0.4-1.5-0.7c-0.8-0.3-0.8-0.3-1.5-0.6c-0.8-0.3-0.8-0.2-1.6-0.5c-0.4-0.2-0.6-0.7-0.5-1.1
		c0.3-0.7,0.2-0.7,0.5-1.5c0.3-0.7,0.4-0.7,0.7-1.4s0.2-0.7,0.5-1.5c0.3-0.7,0.4-0.6,0.7-1.4s0-0.8,0.3-1.5s0.5-0.6,0.8-1.3
		c0.3-0.8,0.1-0.8,0.4-1.6c0.3-0.7,0.4-0.7,0.7-1.4s0-0.8,0.3-1.5c0.2-0.4,0.8-0.6,1.2-0.5c0.6,0.3,0.6,0.3,1.3,0.6
		c0.6,0.2,0.6,0.4,1.3,0.6c0.6,0.3,0.7,0.1,1.3,0.3c0.6,0.3,0.6,0.3,1.3,0.5c0.6,0.3,0.6,0.4,1.3,0.6c0.3,0.1,0.6,0.3,0.6,0.7
		c0,0.5,0.1,0.9,0.1,1.4c0,0.5,0,1,0.1,1.5c0.1,0.4,0.2,1,0.3,1.4c0.2,0.5,0.4,1,0.7,1.4c0.3,0.4,0.6,0.8,1,1.1
		c0.3,0.3,0.8,0.6,1.2,0.9c0.4,0.3,0.9,0.4,1.3,0.6c0.4,0.2,0.9,0.4,1.3,0.6c0.5,0.1,1,0.5,1.4,0.6c0.5,0.1,1-0.2,1.5-0.2
		c0.6,0,1,0,1.5-0.1c0.5-0.1,0.9-0.4,1.2-0.8c0.4-0.3,0.6-0.6,0.9-1.2c0.2-0.4,0.3-1,0.3-1.4c0-0.5,0-1-0.3-1.5
		c-0.2-0.4-0.4-0.9-0.8-1.2c-0.4-0.4-0.8-0.7-1.2-1c-0.4-0.4-0.8-0.7-1.2-1c-0.4-0.4-0.8-0.7-1.2-1c-0.4-0.4-0.8-0.6-1.2-1
		c-0.4-0.4-0.6-0.9-1-1.2c-0.3-0.3-0.9-0.6-1.3-1c-0.4-0.4-0.9-0.7-1.2-1.1c-0.4-0.4-0.8-0.8-1.1-1.2c-0.4-0.4-0.7-0.9-1-1.3
		c-0.3-0.4-0.6-0.9-0.9-1.3c-0.3-0.5-0.5-0.9-0.8-1.4c-0.2-0.5-0.6-0.9-0.9-1.3c-0.2-0.5-0.2-1-0.3-1.5c-0.1-0.5-0.4-1-0.4-1.5
		c-0.1-0.5,0-1,0-1.6c0-0.5,0.1-1,0.2-1.6c0.1-0.5,0.1-1.1,0.2-1.6c0.1-0.5,0.4-0.9,0.6-1.4c0.2-0.5,0.3-1.1,0.5-1.5
		c0.2-0.4,0.4-0.9,0.6-1.4c0.3-0.4,0.8-0.7,1.2-1.1c0.3-0.4,0.5-0.9,1-1.3c0.3-0.3,0.7-0.8,1.1-1.1c0.5-0.3,0.9-0.6,1.3-0.8
		c0.5-0.3,0.9-0.5,1.4-0.8c0.5-0.2,1-0.3,1.5-0.5c0.5-0.1,1-0.3,1.5-0.4c0.5-0.1,1-0.2,1.5-0.2c0.5,0,1-0.2,1.5-0.2
		c0.5,0.1,1,0.2,1.5,0.2c0.5,0,1-0.1,1.5,0c0.5,0,0.9,0.3,1.4,0.4c0.5,0.1,1,0.1,1.5,0.3c0.5,0.2,0.9,0.4,1.4,0.5
		c0.5,0.2,0.9,0.5,1.4,0.7c0.4,0.2,0.8,0.5,1.3,0.8c0.4,0.3,0.7,0.6,1.1,0.9c0.3,0.3,0.6,0.6,0.9,1c0.3,0.4,0.4,0.8,0.7,1.2
		C630.5,727.9,631.4,727.8,631.6,727.1"/>
	<path class="st0" d="M692.1,739.7c-0.1,0.8-0.2,0.7-0.3,1.5c-0.1,0.8-0.1,0.8-0.2,1.4c-0.1,0.8-0.3,0.7-0.4,1.5
		c-0.1,0.8,0,0.8-0.1,1.5c-0.1,0.8,0,0.8-0.2,1.5c-0.1,0.8-0.3,0.7-0.4,1.5c-0.1,0.8,0,0.8-0.2,1.5c-0.1,0.7,0,0.7-0.2,1.5
		c-0.1,0.7-0.1,0.7-0.2,1.5c-0.1,0.8-0.2,0.7-0.3,1.5c0,0.3-0.3,0.5-0.6,0.5c-0.8-0.1-0.8-0.2-1.6-0.3c-0.8-0.1-0.7-0.2-1.6-0.3
		c-0.8-0.1-0.8-0.1-1.6-0.2c-0.8-0.1-0.8-0.1-1.6-0.2c-0.8-0.1-0.8-0.1-1.6-0.3c-0.3,0-0.3-0.3-0.3-0.6c0.1-0.7-0.1-0.7,0-1.3
		c0.1-0.7,0.2-0.7,0.3-1.4c0.1-0.7,0.1-0.7,0.2-1.3c0.1-0.7,0-0.7,0.2-1.4c0-0.3,0-0.6-0.3-0.7c-0.6-0.1-1.2,0.1-1.8,0
		c-0.6-0.1-1.2-0.3-1.8-0.3c-0.2,0-0.5,0.6-0.6,0.9c-0.1,0.5-0.2,1-0.2,1.5c-0.1,0.5-0.4,1-0.5,1.5c-0.1,0.5,0,1-0.1,1.5
		c-0.1,0.5,0,1-0.1,1.5c-0.1,0.5-0.2,1-0.3,1.5c-0.1,0.5-0.2,1-0.2,1.5c-0.1,0.5-0.1,1-0.2,1.5c-0.1,0.6-0.2,1.1-0.3,1.6
		c-0.1,0.5-0.2,1-0.2,1.5c-0.1,0.5-0.2,1.1-0.3,1.6c-0.1,0.5-0.3,1-0.4,1.5c-0.1,0.5,0,1-0.1,1.5c-0.1,0.6-0.2,1.1-0.3,1.6
		c-0.1,0.5-0.2,1-0.3,1.5c-0.1,0.5-0.1,1-0.2,1.6c-0.1,0.5,0,1-0.1,1.5c-0.1,0.5-0.2,1-0.2,1.5c-0.1,0.6-0.3,0.5-0.3,1
		c0,0.3,0.2,0.5,0.5,0.5c0.6,0.1,0.6,0.3,1.2,0.4c0.6,0.1,0.6-0.1,1.2,0c0.3,0,0.4,0.4,0.3,0.6c-0.1,0.8-0.1,0.8-0.2,1.5
		c-0.1,0.8-0.2,0.7-0.3,1.4c-0.1,0.8,0.1,0.8,0,1.5c-0.1,0.7-0.1,0.7-0.2,1.4c-0.1,0.8-0.3,0.7-0.4,1.5c0,0.3-0.3,0.5-0.6,0.4
		c-0.7-0.1-0.7-0.3-1.5-0.4c-0.7-0.1-0.7,0-1.5-0.2c-0.8-0.1-0.7-0.3-1.5-0.4c-0.8-0.1-0.8,0-1.5-0.1c-0.8-0.1-0.7-0.2-1.5-0.3
		c-0.7-0.1-0.8,0-1.5-0.1c-0.7-0.1-0.7-0.2-1.5-0.3c-0.7-0.1-0.8,0-1.5-0.1c-0.8-0.1-0.7-0.2-1.5-0.3c-0.8-0.1-0.7-0.2-1.5-0.3
		c-0.8-0.1-0.8-0.1-1.5-0.2c-0.7-0.1-0.7-0.2-1.5-0.3c-0.3,0-0.5-0.3-0.4-0.5c0.1-0.8,0-0.8,0.1-1.5c0.1-0.7,0.4-0.7,0.5-1.4
		c0.1-0.8,0-0.8,0.1-1.5c0.1-0.8,0.1-0.8,0.2-1.4c0.1-0.8,0.1-0.8,0.2-1.4c0-0.3,0.3-0.3,0.6-0.3c1.1,0.2,1.2-0.1,2.2,0.1
		c0.3,0,0.5-0.1,0.5-0.3c0.1-0.8,0.2-0.7,0.3-1.5c0.1-0.8,0.1-0.8,0.2-1.6c0.1-0.8,0.2-0.7,0.4-1.5c0.1-0.8,0.1-0.8,0.2-1.5
		c0.1-0.7,0.1-0.7,0.2-1.5c0.1-0.8,0.1-0.8,0.2-1.5c0.1-0.8,0-0.8,0.2-1.6c0.1-0.8,0.3-0.7,0.4-1.5c0.1-0.8,0.2-0.7,0.3-1.5
		c0.1-0.8-0.1-0.8,0-1.5c0.1-0.8,0.4-0.7,0.5-1.5c0.1-0.7,0.1-0.7,0.3-1.6c0.1-0.8-0.1-0.8,0-1.5c0.1-0.8,0.2-0.7,0.4-1.5
		c0.1-0.7,0.1-0.8,0.2-1.5c0.1-0.7,0.1-0.7,0.2-1.5c0.1-0.8,0.1-0.8,0.2-1.6c0.1-0.8,0-0.8,0.2-1.5c0-0.3,0-0.5-0.3-0.6
		c-0.8-0.1-0.8-0.2-1.7-0.3c-0.8-0.1-0.8-0.1-1.7-0.2c-0.3,0-0.6,0.2-0.6,0.4c-0.1,0.7-0.2,0.7-0.3,1.3c-0.1,0.7-0.1,0.7-0.2,1.4
		c-0.1,0.6,0,0.6-0.1,1.3c-0.1,0.7-0.2,0.7-0.3,1.3c0,0.3-0.3,0.4-0.6,0.4c-0.8-0.1-0.8,0-1.6-0.2c-0.8-0.1-0.8-0.1-1.6-0.2
		c-0.8-0.1-0.8-0.3-1.6-0.4c-0.8-0.1-0.8,0-1.6-0.1c-0.8-0.1-0.8-0.2-1.6-0.3c-0.3,0-0.4-0.3-0.4-0.6c0.1-0.7,0-0.8,0.2-1.5
		c0.1-0.8,0-0.8,0.1-1.5c0.1-0.8,0.1-0.8,0.2-1.5c0.1-0.8,0.1-0.8,0.2-1.5c0.1-0.7,0.3-0.7,0.4-1.5c0.1-0.8,0.1-0.8,0.2-1.5
		c0.1-0.7,0.2-0.7,0.3-1.5c0.1-0.8,0.1-0.8,0.2-1.4c0.1-0.8,0.2-0.7,0.3-1.5c0.1-0.8,0.1-0.8,0.2-1.5c0-0.3,0.2-0.6,0.5-0.5
		c0.8,0.1,0.7,0.3,1.5,0.4c0.7,0.1,0.7-0.1,1.5,0c0.7,0.1,0.7,0.3,1.5,0.4c0.7,0.1,0.8,0,1.5,0.1c0.8,0.1,0.7,0.3,1.5,0.4
		c0.8,0.1,0.8-0.1,1.5,0c0.7,0.1,0.6,0.4,1.4,0.5c0.7,0.1,0.8-0.1,1.5,0c0.7,0.1,0.8,0,1.5,0.2c0.8,0.1,0.7,0.3,1.5,0.4
		c0.8,0.1,0.7,0.2,1.5,0.3c0.7,0.1,0.7-0.1,1.5,0c0.7,0.1,0.7,0.4,1.5,0.5c0.8,0.1,0.8-0.1,1.5,0c0.8,0.1,0.7,0.2,1.5,0.3
		c0.8,0.1,0.8,0.1,1.5,0.2c0.7,0.1,0.7,0.1,1.4,0.2c0.8,0.1,0.8,0.1,1.5,0.2c0.7,0.1,0.7,0.2,1.4,0.3c0.8,0.1,0.8,0.1,1.5,0.2
		c0.8,0.1,0.8,0.1,1.5,0.2c0.8,0.1,0.8,0.1,1.5,0.2c0.8,0.1,0.7,0.2,1.5,0.4c0.8,0.1,0.8-0.1,1.5,0c0.7,0.1,0.7,0.3,1.4,0.4
		c0.8,0.1,0.8-0.1,1.5,0.1C691.9,739,692.2,739.4,692.1,739.7"/>
	<path class="st0" d="M746.4,737.3c0.1,0.8,0,0.8,0.1,1.5c0.1,0.8,0.1,0.8,0.2,1.5c0.1,0.8,0.3,0.7,0.4,1.5c0.1,0.8,0,0.8,0.1,1.5
		c0.1,0.8,0.1,0.8,0.2,1.6c0.1,0.8,0,0.8,0.1,1.5c0.1,0.8,0.2,0.7,0.3,1.5c0.1,0.8,0.2,0.7,0.3,1.5c0.1,0.8,0,0.8,0.1,1.5
		c0.1,0.7,0,0.8,0.1,1.6c0.1,0.8,0.3,0.7,0.4,1.5c0.1,0.8,0,0.8,0.1,1.5c0.1,0.8,0,0.8,0.1,1.5c0.1,0.8,0.3,0.7,0.4,1.5
		c0.1,0.8,0,0.8,0.1,1.5c0.1,0.8,0.2,0.8,0.3,1.6c0.1,0.8-0.2,0.8-0.1,1.6s0.3,0.7,0.4,1.5c0.1,0.7-0.1,0.8,0,1.5
		c0.1,0.8,0.2,0.7,0.3,1.5c0.1,0.8,0.1,0.8,0.2,1.6c0.1,0.8,0.2,0.7,0.3,1.5c0.1,0.8-0.1,0.8,0,1.5c0.1,0.8,0,0.8,0.1,1.5
		c0,0.4,0.6,0.8,1,0.7c0.6-0.1,0.6-0.2,1.3-0.3c0.6-0.1,0.6,0,1.3-0.1c0.6-0.1,0.6-0.1,1.3-0.2c0.4-0.1,0.7,0.3,0.8,0.7
		c0.1,0.9,0,0.9,0.1,1.7c0.1,0.9,0.2,0.9,0.3,1.7c0.1,0.8,0.2,0.8,0.3,1.7c0.1,0.8,0,0.8,0.1,1.7c0,0.4-0.2,0.7-0.6,0.7
		c-0.8,0.1-0.7,0.2-1.5,0.3c-0.8,0.1-0.8,0.2-1.6,0.3c-0.8,0.1-0.8-0.1-1.6,0c-0.8,0.1-0.7,0.3-1.5,0.4c-0.8,0.1-0.8,0-1.6,0.1
		c-0.8,0.1-0.8,0-1.6,0.1c-0.8,0.1-0.8,0-1.5,0.1c-0.8,0.1-0.8,0.1-1.6,0.2c-0.8,0.1-0.7,0.3-1.6,0.4c-0.8,0.1-0.8,0-1.5,0.1
		c-0.8,0.1-0.8,0.2-1.6,0.3c-0.8,0.1-0.8-0.1-1.6,0c-0.8,0.1-0.7,0.2-1.5,0.3c-0.8,0.1-0.8,0.1-1.6,0.2c-0.4,0-0.7-0.3-0.8-0.7
		c-0.1-0.9-0.2-0.9-0.3-1.7c-0.1-0.8-0.1-0.8-0.2-1.7c-0.1-0.8,0-0.8-0.1-1.7c-0.1-0.9-0.3-0.9-0.4-1.7c0-0.4,0.3-0.8,0.8-0.9
		c0.6-0.1,0.6,0,1.3,0c0.6-0.1,0.6-0.3,1.3-0.3c0.6-0.1,0.6,0,1.3-0.1c0.4,0,0.6-0.4,0.6-0.8c-0.1-0.8-0.1-0.8-0.2-1.5
		c-0.1-0.8,0-0.8-0.1-1.5c-0.1-0.8-0.3-0.7-0.4-1.5c-0.1-0.8-0.1-0.8-0.2-1.5c-0.1-0.8,0.1-0.8,0-1.5c-0.1-0.8-0.3-0.7-0.4-1.5
		c-0.1-0.8-0.1-0.8-0.2-1.5c-0.1-0.8,0-0.8-0.1-1.5c-0.1-0.8-0.1-0.8-0.2-1.5c-0.1-0.8-0.2-0.7-0.3-1.5c-0.1-0.8-0.1-0.8-0.2-1.5
		c-0.1-0.8,0-0.8-0.1-1.5c-0.1-0.8-0.2-0.7-0.3-1.5c-0.1-0.8,0.1-0.8,0-1.5c-0.1-0.8-0.3-0.7-0.4-1.5c-0.1-0.8,0-0.8-0.1-1.5
		c-0.1-0.8,0-0.8-0.1-1.5c-0.1-0.8-0.1-0.8-0.2-1.5c0-0.4-0.6-0.6-1-0.6c-0.7,0.1-0.7-0.1-1.3,0c-0.6,0.1-0.6,0.3-1.3,0.3
		c-0.6,0.1-0.6,0.1-1.2,0.2c-0.4,0-0.7-0.4-0.7-0.8c-0.1-0.8-0.2-0.8-0.3-1.6c-0.1-0.8-0.2-0.8-0.3-1.6c-0.1-0.8-0.1-0.8-0.2-1.6
		c-0.1-0.8,0.2-0.9,0.1-1.6c-0.1-0.8-0.3-0.8-0.4-1.6c0-0.4,0.3-0.9,0.7-0.9c0.8-0.1,0.7-0.1,1.5-0.2c0.7-0.1,0.7,0,1.5-0.1
		c0.8-0.1,0.8,0,1.5-0.1c0.8-0.1,0.8,0,1.5-0.1c0.8-0.1,0.7-0.2,1.5-0.3c0.7-0.1,0.7-0.3,1.4-0.4c0.8-0.1,0.8-0.1,1.5-0.2
		c0.8-0.1,0.8-0.1,1.5-0.2c0.8-0.1,0.8,0.1,1.5,0c0.8-0.1,0.7-0.2,1.4-0.3c0.8-0.1,0.8,0,1.5-0.1C746,736.7,746.4,736.9,746.4,737.3
		"/>
	<path class="st0" d="M779.2,746.4c0.2,0.5,0.4,1,0.7,1.4c0.2,0.5,0.4,1,0.7,1.4c0.3,0.4,0.8,0.8,1.2,1.1c0.4,0.3,0.9,0.5,1.5,0.7
		s0.9,0.5,1.5,0.5c0.6,0.1,1.1,0.2,1.6,0.1c0.5,0,1.1-0.1,1.6-0.3c0.5-0.2,1-0.5,1.4-0.7c0.5-0.3,1-0.6,1.4-0.9
		c0.4-0.4,0.7-0.8,1-1.3c0.3-0.4,0.6-0.9,0.8-1.4c0.2-0.5,0.1-1,0.2-1.6c0-0.5,0.1-1,0.1-1.6c0-0.5-0.2-1-0.4-1.5
		c-0.2-0.5-0.3-1-0.6-1.5c-0.3-0.5-0.5-1-0.8-1.4c-0.4-0.3-0.9-0.6-1.3-0.9c-0.4-0.3-0.8-0.8-1.3-1c-0.5-0.2-1-0.1-1.5-0.2
		c-0.6-0.1-1.1-0.1-1.6,0c-0.5,0-1.1,0-1.6,0.2c-0.6,0.2-1.1,0.4-1.5,0.6c-0.5,0.3-0.9,0.6-1.3,0.9c-0.4,0.4-0.8,0.8-1,1.2
		c-0.3,0.4-0.6,0.9-0.7,1.4c-0.2,0.5-0.5,1-0.5,1.6c0,0.5,0.2,1.1,0.2,1.6C779,745.3,779,745.8,779.2,746.4 M767.2,750.1
		c-0.1-0.5-0.3-1-0.4-1.5c-0.1-0.6,0-1.1-0.1-1.6c0-0.5-0.1-1-0.1-1.6c0-0.5-0.1-1,0-1.5c0-0.5,0.2-1,0.3-1.5c0-0.5,0.2-1,0.3-1.5
		s0.3-1,0.5-1.5c0.2-0.5,0.2-0.9,0.5-1.4c0.2-0.5,0.5-0.9,0.8-1.4c0.2-0.4,0.5-0.9,0.8-1.2c0.3-0.4,0.7-0.8,0.9-1.2
		c0.3-0.4,0.5-0.8,0.9-1.2c0.3-0.4,0.7-0.6,1.2-1c0.4-0.3,0.7-0.7,1.2-1c0.4-0.3,0.9-0.6,1.3-0.9c0.4-0.3,0.9-0.5,1.4-0.7
		c0.4-0.3,0.8-0.6,1.2-0.8c0.5-0.2,1.1-0.1,1.6-0.3c0.5-0.1,0.9-0.5,1.4-0.7c0.5-0.2,0.9-0.3,1.5-0.4c0.4-0.1,1-0.1,1.4-0.2
		c0.6-0.1,1-0.2,1.5-0.3c0.5,0,1-0.1,1.5-0.1c0.5,0,1,0,1.5,0c0.5,0,0.9,0,1.4,0.1c0.5,0,1,0.3,1.5,0.3c0.4,0.1,1.1,0,1.5,0.1
		c0.5,0.2,1,0.4,1.4,0.6c0.5,0.2,0.9,0.4,1.3,0.6c0.5,0.2,0.9,0.4,1.4,0.6c0.4,0.3,0.8,0.6,1.1,0.9c0.4,0.3,0.9,0.5,1.3,0.9
		c0.4,0.3,0.7,0.7,1.1,1c0.3,0.4,0.6,0.8,0.8,1.2c0.3,0.4,0.7,0.7,1,1.2c0.3,0.4,0.5,0.9,0.8,1.3c0.2,0.5,0.5,0.9,0.7,1.4
		c0.2,0.4,0.3,0.9,0.5,1.4c0.2,0.5,0.3,1,0.4,1.5c0.1,0.6,0.1,1.1,0.2,1.6c0,0.5,0.2,1,0.2,1.5c0,0.5-0.1,1-0.1,1.6
		c0,0.5-0.1,1-0.1,1.6c-0.1,0.5-0.2,1-0.4,1.6c0,0.5-0.1,1-0.2,1.5c-0.1,0.5-0.3,1-0.4,1.5c-0.2,0.5-0.3,1.1-0.5,1.5
		c-0.2,0.7-0.2,0.7-0.5,1.4c-0.2,0.7-0.2,0.7-0.5,1.5c-0.3,0.7-0.3,0.7-0.5,1.4c-0.2,0.7-0.3,0.7-0.6,1.4c-0.2,0.7-0.2,0.8-0.5,1.5
		c-0.2,0.7,0,0.8-0.3,1.5c-0.2,0.7-0.2,0.7-0.5,1.5c-0.2,0.7-0.3,0.7-0.6,1.4c-0.3,0.8-0.4,0.7-0.6,1.5c-0.2,0.7-0.1,0.8-0.3,1.5
		c-0.3,0.8-0.4,0.7-0.6,1.5s-0.4,0.6-0.6,1.3c-0.3,0.8-0.1,0.8-0.4,1.5c-0.2,0.7-0.2,0.8-0.4,1.5c-0.1,0.2-0.3,0.2-0.6,0.3
		c-0.7,0.2-0.7,0.3-1.5,0.5c-0.8,0.2-0.8,0.4-1.5,0.6c-0.8,0.2-0.8,0.2-1.6,0.5c-0.7,0.2-0.7,0.2-1.5,0.5c-0.8,0.2-0.8,0.2-1.6,0.5
		c-0.7,0.2-0.8,0.1-1.6,0.4c-0.7,0.2-0.7,0.4-1.4,0.6c-0.6,0.2-1.1-0.5-0.9-1c0.3-0.7,0.3-0.6,0.6-1.4c0.3-0.7,0.3-0.7,0.5-1.4
		c0.3-0.7,0.3-0.8,0.6-1.4c0.3-0.7,0.3-0.7,0.4-1.4c0.3-0.7,0.3-0.7,0.6-1.4c0.2-0.7,0-0.7,0.3-1.4c0.2-0.7,0.4-0.6,0.6-1.4
		c0.3-0.7,0.1-0.8,0.3-1.4c0.2-0.7,0.2-0.7,0.4-1.4c0.3-0.7,0.5-0.6,0.8-1.4c0.1-0.4-0.4-0.9-0.8-0.8c-0.5,0.2-1,0.3-1.5,0.3
		c-0.5,0.1-1,0.3-1.6,0.3c-0.4,0.1-1,0-1.5,0c-0.5,0-1,0.1-1.5,0.1c-0.5,0-1,0-1.5-0.1c-0.6-0.1-1.1-0.3-1.5-0.4
		c-0.5-0.1-1-0.1-1.5-0.3c-0.5-0.2-1-0.4-1.5-0.6c-0.5-0.2-0.9-0.5-1.4-0.7c-0.4-0.3-0.9-0.5-1.3-0.7c-0.4-0.3-0.7-0.7-1.2-1
		c-0.4-0.3-0.8-0.6-1.1-1c-0.4-0.3-0.8-0.7-1.1-1.1c-0.3-0.4-0.6-0.8-0.9-1.2c-0.3-0.4-0.7-0.9-0.9-1.3c-0.3-0.4-0.3-1-0.5-1.4
		C767.7,751,767.4,750.6,767.2,750.1"/>
	<path class="st0" d="M828.8,726.9c0.3,0.4,0.6,0.9,1,1.3c0.3,0.4,0.6,0.9,1,1.3c0.4,0.3,0.9,0.6,1.4,0.8c0.5,0.2,1,0.3,1.6,0.4
		s1,0.3,1.6,0.2c0.6,0,1.1,0,1.6-0.2c0.5-0.1,1-0.3,1.5-0.6c0.5-0.3,0.9-0.7,1.3-1c0.4-0.4,0.8-0.7,1.2-1.2c0.3-0.5,0.5-0.9,0.7-1.5
		c0.2-0.5,0.4-1,0.4-1.6c0.1-0.5-0.1-1-0.1-1.6c-0.1-0.5-0.1-1-0.2-1.6c-0.1-0.5-0.4-0.9-0.7-1.4c-0.3-0.5-0.5-0.9-0.9-1.3
		c-0.4-0.4-0.7-0.9-1.1-1.2c-0.4-0.3-0.9-0.4-1.5-0.6c-0.5-0.2-0.9-0.6-1.5-0.7c-0.5-0.1-1,0.1-1.5,0.1c-0.6,0-1.1,0.1-1.6,0.3
		c-0.5,0.1-1.1,0.3-1.5,0.5c-0.5,0.3-1,0.6-1.3,0.9c-0.4,0.4-0.7,0.8-1.1,1.2c-0.3,0.5-0.6,0.9-0.7,1.4c-0.2,0.5-0.4,1-0.4,1.5
		c-0.1,0.6-0.3,1.1-0.2,1.6c0,0.5,0.4,1,0.6,1.5C828.3,725.9,828.5,726.4,828.8,726.9 M817.8,732.9c-0.3-0.4-0.5-0.9-0.7-1.3
		c-0.2-0.5-0.2-1-0.4-1.5c-0.1-0.5-0.3-1-0.5-1.5c-0.1-0.5-0.3-1-0.3-1.5c-0.1-0.5,0-1,0-1.5c-0.1-0.5,0-1,0-1.5
		c0-0.5,0.1-1,0.2-1.5c0.1-0.5,0-1,0.2-1.5c0.1-0.5,0.3-1,0.5-1.5c0.1-0.4,0.3-0.9,0.5-1.4c0.2-0.5,0.5-0.9,0.7-1.4
		c0.3-0.4,0.4-0.9,0.7-1.4c0.3-0.4,0.6-0.8,0.9-1.2c0.3-0.4,0.6-0.8,0.9-1.2c0.3-0.4,0.7-0.8,1.1-1.1c0.3-0.3,0.7-0.6,1.2-1
		c0.3-0.3,0.6-0.8,1-1.1c0.5-0.3,1-0.4,1.5-0.7c0.4-0.3,0.8-0.7,1.2-1c0.4-0.3,0.8-0.5,1.4-0.7c0.4-0.2,0.9-0.3,1.3-0.4
		c0.5-0.2,0.9-0.4,1.4-0.6c0.4-0.1,1-0.3,1.4-0.4c0.5-0.1,1-0.2,1.5-0.3c0.4-0.1,0.9-0.2,1.4-0.2c0.5-0.1,1,0.1,1.5,0
		c0.5,0,1-0.2,1.5-0.2c0.5,0.1,1,0.2,1.5,0.3c0.5,0.1,1,0.2,1.4,0.4c0.5,0.1,1,0.2,1.5,0.3c0.5,0.2,0.9,0.4,1.3,0.7
		c0.5,0.2,1,0.3,1.4,0.6c0.5,0.2,0.9,0.5,1.3,0.8c0.4,0.3,0.7,0.7,1.1,1c0.4,0.3,0.8,0.6,1.2,0.9c0.4,0.4,0.7,0.8,1,1.1
		c0.3,0.4,0.7,0.8,1,1.2c0.3,0.4,0.5,0.8,0.8,1.3c0.3,0.4,0.5,0.9,0.7,1.3c0.2,0.5,0.3,1.1,0.5,1.5c0.1,0.5,0.4,0.9,0.5,1.5
		c0.1,0.5,0.1,1,0.2,1.6c0.1,0.5,0.1,1,0.2,1.6c0,0.5,0,1,0,1.6c0,0.5,0.1,1,0.1,1.5c0,0.5-0.1,1.1-0.1,1.6c-0.1,0.5,0,1.1-0.1,1.6
		c-0.1,0.8-0.1,0.8-0.2,1.5c-0.1,0.8-0.1,0.8-0.2,1.6c-0.1,0.7-0.1,0.7-0.2,1.5c-0.1,0.8-0.2,0.7-0.3,1.5c-0.1,0.8,0,0.8-0.2,1.6
		c-0.1,0.8,0.1,0.8,0,1.5c-0.1,0.8-0.1,0.8-0.2,1.5c-0.1,0.8-0.2,0.7-0.3,1.5c-0.1,0.8-0.2,0.8-0.3,1.6c-0.1,0.8,0.1,0.8,0,1.5
		c-0.1,0.8-0.2,0.8-0.3,1.6c-0.1,0.8-0.3,0.7-0.4,1.4c-0.1,0.8,0,0.9-0.1,1.6c-0.1,0.8,0,0.8-0.1,1.6c0,0.2-0.3,0.2-0.5,0.4
		c-0.7,0.4-0.6,0.4-1.4,0.8c-0.7,0.4-0.7,0.5-1.3,0.9c-0.7,0.4-0.7,0.4-1.4,0.8c-0.7,0.4-0.7,0.4-1.4,0.8c-0.7,0.4-0.7,0.4-1.4,0.8
		c-0.7,0.4-0.7,0.3-1.5,0.7c-0.7,0.4-0.6,0.5-1.2,0.9c-0.5,0.3-1.2-0.2-1.1-0.8c0.2-0.7,0.2-0.7,0.3-1.5c0.1-0.7,0.2-0.7,0.2-1.4
		c0.2-0.7,0.1-0.8,0.3-1.5c0.1-0.7,0.1-0.7,0.1-1.5c0.1-0.7,0.2-0.7,0.3-1.5c0.1-0.7-0.1-0.7,0-1.5c0.1-0.8,0.3-0.7,0.3-1.5
		c0.1-0.7-0.1-0.8,0-1.5c0.1-0.8,0.1-0.8,0.1-1.5c0.2-0.7,0.4-0.7,0.5-1.5c0-0.5-0.6-0.9-1-0.6c-0.5,0.3-1,0.5-1.4,0.6
		c-0.4,0.3-0.9,0.5-1.5,0.7c-0.4,0.2-1,0.2-1.5,0.3c-0.5,0.1-0.9,0.3-1.5,0.4c-0.5,0.1-1,0.2-1.5,0.2c-0.6,0-1.1,0-1.6-0.1
		c-0.5,0-1,0.1-1.5,0c-0.5-0.1-1-0.2-1.6-0.3c-0.5-0.1-0.9-0.3-1.5-0.4c-0.5-0.2-0.9-0.3-1.4-0.4c-0.5-0.2-0.9-0.5-1.4-0.8
		c-0.4-0.3-0.9-0.4-1.3-0.8c-0.4-0.3-0.9-0.5-1.3-0.8c-0.4-0.3-0.8-0.6-1.2-1c-0.4-0.3-0.8-0.7-1.1-1.1c-0.3-0.4-0.5-0.9-0.8-1.3
		C818.5,733.7,818.1,733.4,817.8,732.9"/>
	<path class="st0" d="M891.1,691.3c-0.3-0.4-0.6-0.9-1-1.2c-0.4-0.4-0.8-0.7-1.1-1.1c-0.4-0.4-0.8-0.7-1.1-1
		c-0.4-0.3-0.9-0.7-1.2-0.9c-0.4-0.3-0.9-0.6-1.3-0.9c-0.5-0.3-1-0.3-1.5-0.4c-0.6-0.3-1-0.5-1.4-0.6c-0.4-0.1-0.9-0.2-1.5-0.3
		c-0.4,0-0.9,0-1.4,0c-0.6,0.1-1,0.2-1.5,0.4c-0.5,0.1-0.9,0.3-1.4,0.5c-0.4,0.3-0.8,0.6-1.2,0.9c-0.4,0.3-0.6,0.7-1,1.1
		c-0.3,0.4-0.6,0.8-0.7,1.3c-0.2,0.4-0.6,0.8-0.7,1.3c-0.1,0.5,0,1-0.1,1.5c0,0.5,0,1,0.1,1.5c0.1,0.5,0.1,0.9,0.3,1.5
		c0.1,0.4,0.2,1,0.3,1.4c0.2,0.5,0.5,0.9,0.8,1.4c0.2,0.4,0.4,1,0.7,1.4c0.2,0.4,0.6,0.8,0.9,1.2c0.3,0.4,0.4,0.9,0.8,1.4
		c0.3,0.4,0.7,0.7,1,1.1c0.4,0.4,0.8,0.7,1.2,1.1c0.4,0.3,0.6,0.9,0.9,1.2c0.4,0.3,0.8,0.7,1.2,1.1c0.4,0.3,1,0.4,1.3,0.7
		c0.5,0.3,0.9,0.6,1.3,0.9c0.4,0.3,0.9,0.6,1.3,0.8c0.4,0.2,1,0.2,1.5,0.4c0.5,0.1,1,0.3,1.4,0.3c0.5,0,1.1,0,1.5-0.1
		c0.4-0.1,0.9-0.1,1.4-0.2c0.5-0.1,0.9-0.5,1.3-0.7c0.5-0.2,0.9-0.4,1.3-0.8c0.3-0.3,0.7-0.8,1-1.1c0.3-0.4,0.7-0.7,0.9-1.2
		c0.2-0.4,0.2-0.9,0.4-1.5c0.1-0.5,0.3-0.9,0.2-1.5c0-0.4-0.2-0.9-0.2-1.5c-0.1-0.5-0.2-0.9-0.3-1.5s-0.3-1-0.5-1.5
		c-0.2-0.4-0.3-1-0.4-1.4c-0.3-0.5-0.6-0.9-0.9-1.3c-0.3-0.4-0.4-1-0.7-1.4c-0.3-0.4-0.6-0.8-1-1.2
		C891.9,692,891.5,691.7,891.1,691.3 M868.4,711.1c-0.3-0.4-0.6-0.8-0.9-1.3c-0.3-0.4-0.7-0.8-1-1.1c-0.3-0.4-0.5-0.9-0.8-1.3
		c-0.3-0.4-0.5-0.8-0.8-1.2c-0.3-0.5-0.5-0.9-0.7-1.3c-0.2-0.5-0.6-0.9-0.8-1.3c-0.2-0.5-0.3-1-0.5-1.4c-0.3-0.5-0.4-0.9-0.6-1.4
		c-0.1-0.5-0.3-1-0.4-1.4c-0.1-0.5-0.2-1-0.3-1.5c-0.1-0.4-0.1-1-0.1-1.5c0-0.5-0.1-1-0.1-1.5c0-0.5-0.1-1-0.1-1.4
		c0-0.5,0.2-1.1,0.1-1.6c0.1-0.5,0.3-1,0.4-1.4c0.1-0.5,0-1,0.2-1.5c0.2-0.5,0.3-1,0.5-1.4c0.2-0.5,0.4-0.9,0.6-1.4
		c0.2-0.4,0.6-0.9,0.8-1.3c0.3-0.4,0.4-0.9,0.7-1.3c0.3-0.4,0.6-0.8,0.9-1.2c0.3-0.4,0.5-0.9,0.8-1.2c0.3-0.3,0.9-0.6,1.2-0.9
		c0.3-0.3,0.6-0.7,1-1.1c0.3-0.3,0.7-0.8,1.1-1.1c0.4-0.3,0.9-0.4,1.3-0.6c0.4-0.3,0.8-0.5,1.3-0.8c0.4-0.3,0.7-0.6,1.2-0.9
		c0.4-0.2,0.9-0.4,1.4-0.6c0.4-0.2,0.9-0.3,1.4-0.4c0.5-0.1,0.9-0.4,1.4-0.4c0.5-0.2,1-0.2,1.5-0.3c0.5-0.1,1-0.2,1.5-0.3
		c0.5,0,1,0,1.5,0c0.5,0,1-0.1,1.5,0c0.5,0,1,0.3,1.5,0.3c0.4,0.1,1,0.1,1.5,0.2c0.4,0.1,0.9,0.5,1.4,0.5c0.5,0.2,1,0.2,1.5,0.4
		c0.5,0.2,0.9,0.4,1.3,0.7c0.4,0.2,1,0.2,1.5,0.5c0.4,0.3,0.8,0.6,1.3,0.8c0.4,0.3,0.8,0.6,1.2,0.8c0.4,0.3,0.7,0.7,1.1,1.1
		c0.4,0.3,0.9,0.5,1.2,0.8c0.4,0.3,0.6,0.8,1,1.2c0.4,0.3,0.8,0.6,1.2,1c0.3,0.4,0.7,0.7,1.1,1.1c0.3,0.4,0.6,0.8,1,1.2
		c0.3,0.4,0.6,0.9,0.9,1.2c0.3,0.4,0.6,0.8,0.9,1.2c0.3,0.4,0.4,0.9,0.7,1.3c0.2,0.5,0.7,0.8,0.9,1.2c0.2,0.5,0.5,0.9,0.7,1.3
		c0.2,0.5,0.4,1,0.6,1.4c0.2,0.5,0.2,1,0.4,1.5c0.2,0.5,0.3,1,0.5,1.4c0.1,0.5,0.2,1,0.3,1.5c0.1,0.5,0.1,1,0.2,1.5
		c0,0.5,0.1,1,0.1,1.5c0,0.5,0.1,1,0.1,1.5c0,0.5-0.1,1-0.2,1.5c0,0.5-0.3,1-0.4,1.5c-0.1,0.5-0.1,1-0.3,1.5
		c-0.1,0.4-0.4,0.9-0.6,1.4c-0.2,0.5-0.4,0.9-0.6,1.4c-0.2,0.4-0.4,0.9-0.7,1.3c-0.3,0.5-0.4,1-0.7,1.3c-0.3,0.4-0.6,0.7-0.9,1.2
		c-0.3,0.4-0.6,0.8-0.9,1.2c-0.3,0.4-0.7,0.8-1,1.1c-0.3,0.4-0.8,0.7-1.1,1c-0.4,0.3-0.7,0.7-1.1,1c-0.4,0.3-0.9,0.6-1.3,0.9
		c-0.4,0.3-0.8,0.6-1.2,0.9c-0.5,0.2-1,0.4-1.4,0.6c-0.4,0.2-0.8,0.5-1.3,0.7c-0.5,0.2-0.9,0.5-1.4,0.6c-0.5,0.2-1,0.1-1.5,0.2
		c-0.5,0.2-0.9,0.2-1.5,0.3c-0.5,0.1-1,0.3-1.5,0.3c-0.5,0.1-0.9,0.2-1.5,0.1c-0.5,0-1-0.2-1.6-0.2c-0.4,0-1,0.1-1.5,0
		c-0.5-0.1-1-0.3-1.5-0.3c-0.5-0.2-1-0.3-1.5-0.5c-0.4-0.1-0.9-0.3-1.4-0.4c-0.5-0.2-0.9-0.4-1.4-0.6c-0.5-0.3-0.9-0.5-1.3-0.8
		c-0.4-0.2-0.9-0.5-1.3-0.8c-0.4-0.3-0.7-0.6-1.2-0.9c-0.4-0.3-0.8-0.6-1.2-0.9c-0.4-0.3-0.8-0.6-1.2-0.9c-0.4-0.3-0.9-0.6-1.2-0.9
		c-0.4-0.3-0.7-0.8-1.1-1.1C869.1,711.8,868.7,711.5,868.4,711.1"/>
	<path class="st0" d="M921.1,663.4c-4.2-3-4.7-8.2-1.8-12.2c2.9-4,8-5,12.1-2c4.2,3,4.7,8.1,1.8,12.1
		C930.3,665.4,925.3,666.5,921.1,663.4"/>
	<path class="st0" d="M843.8,641c-43.5,37.7-99.1,56.2-156.6,52.1c-23.1-1.6-45-6.9-65.4-15.1c-2.4,1.1-5,1.8-7.9,2
		c-2,0.2-4,0.3-5.9,0.3c-3.2,0-6.2-0.3-9-0.8c26.4,13.6,55.9,22.2,87.4,24.5c5.5,0.4,11,0.6,16.5,0.6c54.4,0,106.4-19.3,148-55.3
		c20-17.4,36.6-37.7,49.2-60.1c-6.2,5.9-13.7,10.9-22.3,14.7C868.2,617.3,856.8,629.8,843.8,641"/>
	<path class="st0" d="M1033.2,582.4c0,0-0.1,0-0.1,0c-1.8-0.4-3.5-0.8-5.2-1.3l0,0c-18.7,59.5-53.5,112.8-101.8,154.6
		c-68.8,59.7-156.8,88.9-247.7,82.5c-120.6-8.6-222.2-79.3-275.8-178.5c-5.5-1.8-11.2-4.9-16.8-8.9
		c53.1,109.7,161.8,189,291.8,198.3c8.6,0.6,17.1,0.9,25.6,0.9c84.6,0,165.4-30.1,230-86c50.1-43.4,86.1-98.8,105.4-160.6
		C1036.7,583.1,1034.9,582.8,1033.2,582.4"/>
	<path class="st0" d="M376.8,358.1c1.3,1,3.2,2,5.4,3c19.6-53.9,52.6-102.2,97.1-140.8c62.6-54.2,140.9-83.4,222.9-83.4
		c8.2,0,16.5,0.3,24.8,0.9c90.9,6.5,173.8,48,233.4,116.8c36,41.5,60.9,90,73.6,141.8c3.1-2.1,6.4-4,9.8-5.9
		c-13.3-52.3-38.8-101.1-75.1-143.1c-61.6-71-147.1-113.9-240.9-120.5C568.4,115.6,426,212.7,372.9,355.3
		C374.2,356.2,375.5,357.1,376.8,358.1"/>
	<path class="st0" d="M513.1,375.2c12.2-22.5,28.4-42.8,48.3-60.1c39.5-34.3,89.1-52.7,140.9-52.7c5.2,0,10.4,0.2,15.7,0.6
		c81.6,5.8,149.5,56.6,181.1,126.3l2.1,0.3c3.5,0.3,6.9,0.7,10.4,1.2c-32-76.3-104.8-132.3-192.8-138.6
		c-60.4-4.3-118.8,15.1-164.5,54.8c-20.8,18-37.7,39.2-50.5,62.6C507.1,371.1,510.2,373,513.1,375.2"/>
</g>
<g id="Logos">
</g>
</svg>
