<?xml version="1.0" encoding="UTF-8"?>
<svg width="301px" height="116px" viewBox="0 0 301 116" version="1.1" xmlns="http://www.w3.org/2000/svg" xmlns:xlink="http://www.w3.org/1999/xlink">
    <!-- Generator: Sketch 64 (93537) - https://sketch.com -->
    <title>Fill 1</title>
    <desc>Created with Sketch.</desc>
    <g id="Page-1" stroke="none" stroke-width="1" fill="none" fill-rule="evenodd">
        <g id="NFOS_Logo_Generic_White" transform="translate(-30.000000, -48.000000)" fill="#FFFFFE">
            <path d="M330.6,128.319 C329.995,127.34 329.441,126.453 328.942,125.66 C328.439,124.869 328.016,124.051 327.67,123.198 C327.323,122.349 327.068,121.405 326.901,120.369 C326.733,119.337 326.684,118.083 326.747,116.614 C327.443,113.69 328.216,110.878 329.061,108.177 C329.905,105.477 330.368,102.46 330.448,99.121 C328.97,96.948 327.244,95.736 325.272,95.49 C323.298,95.243 321.225,95.517 319.057,96.308 C316.885,97.1 314.749,98.17 312.647,99.522 C310.544,100.874 308.63,102.101 306.903,103.204 C307.385,105.174 308.322,106.559 309.716,107.366 C311.109,108.17 312.642,108.795 314.315,109.24 C314.935,109.004 315.394,108.622 315.695,108.099 C315.994,107.575 316.592,107.341 317.489,107.393 C315.921,111.805 313.389,115.603 309.89,118.787 C306.392,121.972 302.354,124.047 297.776,125.009 C297.489,124.64 297.064,124.486 296.507,124.555 C295.482,123.462 294.823,122.183 294.522,120.718 C294.223,119.253 294.13,117.66 294.245,115.942 C294.454,112.347 295.322,108.671 296.851,104.914 C298.377,101.157 300.141,97.533 302.146,94.043 C304.42,90.115 306.823,86.414 309.357,82.94 C311.887,79.467 314.492,76.758 317.169,74.807 C318.137,74.772 318.964,74.589 319.653,74.262 C320.342,73.934 320.716,73.363 320.779,72.542 C320.214,71.232 319.422,70.212 318.404,69.484 C317.385,68.756 316.273,68.1 315.068,67.516 C313.691,67.521 312.609,67.753 311.814,68.216 C311.021,68.678 310.16,69.087 309.232,69.443 C303.592,74.998 298.887,81.231 295.113,88.141 C291.34,95.054 288.294,102.626 285.976,110.862 C286.373,112.113 286.393,113.123 286.044,113.896 C285.691,114.67 285.515,115.708 285.512,117.005 C285.633,119.346 286.215,121.466 287.257,123.366 C288.296,125.269 289.647,126.891 291.309,128.231 C292.967,129.571 294.914,130.591 297.146,131.293 C299.374,131.997 301.697,132.282 304.111,132.15 C307.312,131.195 310.124,129.857 312.546,128.142 C314.968,126.429 317.224,124.511 319.314,122.389 C320.104,124.891 321.389,126.967 323.169,128.615 C324.947,130.265 327.217,130.8 329.982,130.221 C330.191,129.952 330.247,129.58 330.15,129.104 C330.051,128.63 330.201,128.368 330.6,128.319 Z M281.657,82.066 C281.218,81.589 280.635,81.129 279.899,80.687 C279.165,80.246 278.371,79.961 277.523,79.837 C276.674,79.714 275.865,79.753 275.095,79.961 C274.325,80.168 273.72,80.643 273.28,81.379 C273.383,84.099 273.527,86.835 273.711,89.583 C273.893,92.334 273.803,94.717 273.444,96.733 C273.512,99.156 273.538,101.716 273.526,104.412 C273.513,107.11 273.487,109.846 273.445,112.623 C273.403,115.4 273.323,118.161 273.203,120.909 C273.084,123.656 272.945,126.257 272.789,128.703 C270.761,126.371 269.138,123.606 267.918,120.413 C266.696,117.222 265.573,113.903 264.549,110.458 C263.522,107.015 262.445,103.596 261.312,100.202 C260.179,96.811 258.694,93.784 256.856,91.121 C256.193,91.278 255.553,91.299 254.933,91.184 C254.311,91.07 253.693,90.956 253.073,90.841 C252.452,90.728 251.806,90.692 251.129,90.735 C250.452,90.779 249.727,91.039 248.952,91.513 C248.698,91.924 248.486,92.349 248.31,92.786 C248.137,93.226 247.882,93.618 247.546,93.961 C247.181,97.194 246.784,100.774 246.352,104.699 C245.92,108.624 245.684,112.601 245.645,116.63 C245.605,120.661 245.875,124.594 246.457,128.434 C247.037,132.274 248.19,135.683 249.915,138.663 C250.549,138.889 251.284,139.027 252.124,139.076 C252.964,139.127 253.789,139.065 254.602,138.89 C255.412,138.716 256.154,138.435 256.828,138.05 C257.5,137.665 257.949,137.154 258.175,136.518 C257.915,135.639 257.514,134.986 256.971,134.557 C256.425,134.131 255.997,133.556 255.683,132.836 C255.362,130.823 255.047,128.699 254.737,126.458 C254.425,124.218 254.188,121.952 254.022,119.654 C253.856,117.359 253.812,115.125 253.888,112.951 C253.965,110.779 254.272,108.787 254.808,106.974 C255.63,109.987 256.461,112.942 257.306,115.838 C258.152,118.736 259.129,121.482 260.242,124.08 C261.352,126.679 262.668,129.081 264.186,131.289 C265.703,133.495 267.575,135.338 269.798,136.812 C271.112,137.034 272.59,137.193 274.232,137.298 C275.873,137.402 277.524,137.126 279.186,136.47 C279.289,136.077 279.535,135.762 279.924,135.524 C280.309,135.288 280.632,134.965 280.884,134.554 C281.251,133.219 281.534,131.817 281.737,130.35 C281.937,128.884 281.87,127.411 281.539,125.932 C281.596,122.052 281.675,118.323 281.77,114.741 C281.863,111.163 281.924,107.604 281.948,104.07 C281.972,100.536 281.954,96.972 281.896,93.371 C281.837,89.773 281.757,86.004 281.657,82.066 Z M238.252,120.684 C238.122,117.133 238.075,113.627 238.109,110.166 C238.142,106.709 238.015,103.174 237.728,99.563 C237.951,98.929 238.084,98.287 238.118,97.637 C238.153,96.989 238.246,96.35 238.397,95.725 C237.27,94.57 235.886,93.619 234.244,92.87 C232.599,92.12 230.829,92.05 228.935,92.661 C228.773,96.325 228.67,99.811 228.617,103.12 C228.566,106.43 228.611,109.767 228.756,113.127 C228.899,116.489 229.111,119.937 229.388,123.471 C229.666,127.007 230.089,130.789 230.656,134.82 C231.109,136.058 231.58,137.441 232.07,138.976 C232.558,140.511 233.25,141.833 234.142,142.939 C234.841,143.081 235.528,143.282 236.204,143.542 C236.879,143.802 237.526,143.987 238.147,144.103 C238.766,144.216 239.408,144.194 240.07,144.041 C240.734,143.882 241.404,143.496 242.088,142.883 C240.701,138.95 239.746,135.158 239.227,131.5 C238.706,127.844 238.381,124.238 238.252,120.684 Z M221.808,114.864 C219.372,115.39 217.105,116.045 215.004,116.831 C212.903,117.618 210.906,118.488 209.016,119.439 C207.124,120.392 205.275,121.374 203.467,122.392 C201.659,123.41 199.746,124.345 197.73,125.196 C197.945,121.981 198.174,119.031 198.415,116.343 C198.656,113.656 198.776,110.758 198.777,107.643 C200.541,106.594 202.414,105.645 204.395,104.796 C206.373,103.948 208.398,103.152 210.466,102.405 C212.533,101.661 214.618,100.895 216.718,100.107 C218.819,99.322 220.841,98.507 222.783,97.661 C222.56,97.082 222.529,96.667 222.688,96.42 C222.847,96.174 222.9,95.824 222.846,95.376 C222.398,94.823 221.883,94.336 221.304,93.912 C220.721,93.49 220.176,93.043 219.664,92.573 C217.705,92.66 215.841,92.888 214.067,93.254 C212.294,93.623 210.528,94.046 208.768,94.526 C207.01,95.007 205.294,95.538 203.623,96.121 C201.952,96.704 200.313,97.245 198.709,97.743 C198.989,96.95 199.081,96.144 198.98,95.318 C198.881,94.495 198.78,93.673 198.68,92.849 C197.526,92.077 196.17,91.351 194.61,90.668 C193.05,89.984 191.299,90.064 189.356,90.907 C189.224,91.683 189.197,92.561 189.279,93.537 C189.358,94.515 189.478,95.507 189.64,96.511 C189.8,97.516 189.903,98.529 189.954,99.548 C190.001,100.567 189.893,101.548 189.629,102.492 C188.109,103.058 186.8,103.519 185.708,103.88 C184.617,104.24 183.356,104.471 181.929,104.566 C181.719,105.96 181.87,107.043 182.382,107.815 C182.891,108.59 183.554,109.21 184.369,109.681 C185.183,110.151 186.082,110.536 187.066,110.832 C188.048,111.132 188.907,111.503 189.643,111.943 C189.391,114.861 189.18,117.638 189.01,120.277 C188.838,122.919 188.651,125.581 188.446,128.262 C187.393,128.315 186.81,128.671 186.703,129.328 C186.593,129.987 186.346,130.606 185.962,131.184 C186.381,131.514 186.763,131.866 187.112,132.239 C187.461,132.616 187.737,133.017 187.943,133.448 C187.795,135.366 187.765,137.457 187.853,139.724 C187.94,141.991 188.266,144.059 188.835,145.925 C189.403,147.793 190.267,149.301 191.43,150.45 C192.593,151.6 194.254,152.043 196.42,151.78 C197.129,151.389 197.821,150.85 198.495,150.16 C197.597,147.765 197.07,145.305 196.915,142.778 C196.759,140.255 196.882,137.827 197.279,135.501 C201.388,133.179 205.479,130.843 209.549,128.485 C213.616,126.131 217.873,123.924 222.319,121.864 C222.694,121.211 223.231,120.653 223.932,120.187 C224.632,119.722 225.002,119.032 225.043,118.114 C224.369,116.3 223.289,115.217 221.808,114.864 Z M162.662,119.131 C161.494,121.058 160.545,123.054 159.811,125.115 C159.675,123.993 159.636,122.898 159.696,121.826 C159.753,120.757 159.803,119.763 159.844,118.847 C159.881,118.539 159.996,118.392 160.188,118.405 C160.379,118.423 160.531,118.27 160.643,117.952 C160.625,117.803 160.491,117.63 160.24,117.432 C159.988,117.235 159.891,117.059 159.947,116.898 C159.92,116.674 159.976,116.193 160.113,115.454 C160.25,114.716 160.439,113.934 160.679,113.107 C160.921,112.281 161.189,111.546 161.49,110.9 C161.791,110.259 162.123,109.876 162.487,109.756 C162.451,109.458 162.37,109.257 162.244,109.158 C162.119,109.059 162.043,108.898 162.016,108.675 C162.331,108.788 162.638,108.826 162.938,108.789 C162.651,108.295 162.457,107.958 162.36,107.778 C162.262,107.601 162.252,107.203 162.328,106.586 C162.581,106.176 162.843,105.992 163.113,106.035 C163.384,106.079 163.659,106.008 163.94,105.821 C164.034,105.353 163.963,105.077 163.726,104.992 C163.487,104.907 163.505,104.734 163.777,104.473 C164.513,104.309 165.084,104.013 165.486,103.583 C165.887,103.154 166.246,102.691 166.567,102.197 C166.884,101.703 167.225,101.226 167.585,100.764 C167.944,100.303 168.493,99.989 169.231,99.824 C169.4,102.463 169.166,104.882 168.525,107.085 C167.883,109.289 167.037,111.365 165.987,113.316 C164.935,115.265 163.828,117.205 162.662,119.131 Z M183.299,134.216 C181.768,134.1 180.231,134.059 178.684,134.095 C177.135,134.133 175.656,134.122 174.249,134.064 C172.84,134.009 171.507,133.792 170.25,133.413 C168.991,133.035 167.852,132.377 166.828,131.436 C167.18,129.345 167.866,127.211 168.891,125.036 C169.913,122.862 171.029,120.676 172.239,118.477 C173.45,116.281 174.598,114.055 175.687,111.795 C176.776,109.537 177.561,107.277 178.043,105.016 C178.382,103.456 178.32,102.002 177.853,100.654 C177.385,99.306 176.848,97.986 176.236,96.692 C174.994,96.466 174.167,95.883 173.751,94.946 C172.277,94.671 171.053,94.42 170.081,94.196 C169.106,93.974 167.886,93.761 166.424,93.558 C166.095,93.978 165.838,94.182 165.646,94.166 C165.455,94.152 165.093,94.139 164.563,94.127 C162.945,95.161 161.599,96.387 160.523,97.808 C159.445,99.23 158.35,100.654 157.237,102.08 C157.182,101.023 157.032,100.094 156.784,99.286 C156.533,98.483 156.284,97.679 156.035,96.873 C155.607,96.471 154.951,96.057 154.066,95.632 C153.181,95.209 152.252,94.886 151.279,94.66 C150.303,94.438 149.397,94.453 148.558,94.707 C147.717,94.963 147.165,95.56 146.901,96.503 C146.908,97.186 147.129,97.597 147.563,97.733 C147.994,97.871 148.178,98.284 148.111,98.975 C148.766,104.363 149.359,109.701 149.889,114.989 C150.418,120.278 150.749,125.647 150.883,131.099 C150.86,132.165 150.912,133.373 151.04,134.725 C151.166,136.075 151.245,137.511 151.279,139.023 C151.284,140.315 151.25,141.589 151.177,142.851 C151.103,144.113 151.045,145.355 151.004,146.573 C150.962,147.794 150.987,148.929 151.078,149.981 C151.168,151.033 151.417,151.991 151.825,152.852 C153.183,153.445 154.552,153.79 155.927,153.892 C157.303,153.988 158.69,153.877 160.089,153.554 C160.28,152.013 160.327,150.375 160.231,148.64 C160.133,146.906 159.989,145.102 159.799,143.226 C159.609,141.351 159.434,139.454 159.278,137.538 C159.119,135.62 159.076,133.709 159.147,131.802 C160.335,133.478 161.994,134.969 164.123,136.265 C166.248,137.563 168.502,138.505 170.884,139.088 C173.263,139.671 175.636,139.858 177.994,139.644 C180.354,139.436 182.436,138.649 184.242,137.29 C184.054,137.012 183.959,136.528 183.952,135.847 C183.944,135.164 183.727,134.62 183.299,134.216 Z M145.711,111.291 C145.42,108.51 145.195,105.75 145.035,103.006 C144.467,102.227 143.933,101.363 143.428,100.406 C142.923,99.449 142.424,98.45 141.933,97.41 C141.44,96.37 140.919,95.358 140.368,94.378 C139.815,93.396 139.195,92.578 138.507,91.917 C137.81,91.981 137.241,91.945 136.798,91.805 C136.355,91.667 135.896,91.536 135.417,91.407 C134.938,91.282 134.446,91.238 133.943,91.279 C133.438,91.321 132.837,91.495 132.137,91.798 C132.662,94.186 133.357,96.617 134.229,99.092 C135.099,101.569 135.725,103.904 136.109,106.097 C136.076,108.741 136.201,111.497 136.48,114.36 C136.757,117.226 136.869,120.065 136.811,122.878 C136.754,125.691 136.427,128.47 135.832,131.214 C135.235,133.961 134.034,136.499 132.232,138.829 C131.113,138.072 130.091,137.12 129.17,135.976 C128.247,134.835 127.446,133.635 126.765,132.374 C126.083,131.115 125.498,129.845 125.01,128.564 C124.52,127.282 124.175,126.075 123.973,124.942 C122.121,121.144 120.712,116.924 119.748,112.28 C118.783,107.64 118.324,103.275 118.373,99.188 C118.133,99.186 117.836,98.881 117.484,98.274 C116.788,98.338 116.008,98.327 115.146,98.244 C114.28,98.159 113.423,98.155 112.571,98.227 C111.718,98.302 110.925,98.495 110.189,98.81 C109.453,99.123 108.84,99.64 108.353,100.353 C108.792,103.726 109.299,107.117 109.87,110.527 C110.441,113.936 111.2,117.367 112.144,120.818 C113.086,124.271 114.263,127.707 115.674,131.126 C117.087,134.549 118.9,137.981 121.115,141.425 C122.828,142.553 124.732,143.523 126.822,144.332 C128.912,145.142 131.17,145.357 133.6,144.98 C136.339,144.583 138.552,143.599 140.239,142.02 C141.925,140.445 143.404,138.655 144.675,136.651 C145.453,133.849 145.929,131.041 146.107,128.231 C146.284,125.421 146.336,122.59 146.26,119.738 C146.185,116.889 146.003,114.072 145.711,111.291 Z M111.151,131.002 C108.312,129.26 105.579,128.187 102.948,127.778 C100.318,127.374 97.651,127.221 94.945,127.323 C92.243,127.425 89.447,127.538 86.565,127.661 C83.682,127.785 80.62,127.546 77.376,126.94 C78.973,122.206 81.156,117.993 83.922,114.296 C86.686,110.602 89.818,107.134 93.318,103.892 C93.739,104.387 93.762,104.746 93.382,104.974 C93.003,105.202 93.063,105.512 93.563,105.906 C93.977,105.582 94.324,105.451 94.603,105.507 C94.88,105.564 95.146,105.713 95.402,105.954 C95.658,106.194 95.914,106.435 96.171,106.677 C96.424,106.919 96.737,107.063 97.106,107.108 C97.473,107.155 97.782,107.073 98.027,106.86 C98.274,106.65 98.519,106.438 98.763,106.226 C99.01,106.016 99.261,105.849 99.518,105.725 C99.775,105.604 100.148,105.695 100.638,105.997 C101.278,104.559 101.924,103.165 102.573,101.813 C103.225,100.464 103.369,99.04 103.007,97.539 C102.817,96.745 102.377,96.118 101.691,95.656 C100.999,95.195 100.397,94.724 99.888,94.241 C99.175,93.603 98.547,92.906 98.005,92.155 C97.457,91.403 96.746,91.129 95.866,91.325 C94.773,91.278 93.906,91.407 93.263,91.711 C92.622,92.016 91.803,92.185 90.811,92.213 C85.625,96.475 81.03,101.142 77.029,106.214 C73.027,111.287 69.829,117.011 67.435,123.383 C68.15,127.019 69.547,129.756 71.626,131.588 C73.705,133.426 76.166,134.67 79.008,135.321 C81.848,135.976 84.908,136.191 88.188,135.975 C91.466,135.759 94.661,135.415 97.776,134.945 C98.252,135.159 98.855,135.268 99.58,135.27 C100.305,135.273 101.055,135.295 101.83,135.336 C102.604,135.379 103.34,135.473 104.037,135.613 C104.735,135.755 105.297,136.119 105.732,136.699 C103.209,141.276 99.826,144.932 95.587,147.672 C91.347,150.413 86.537,152.745 81.158,154.67 C81.259,154.023 81.358,153.35 81.456,152.659 C81.552,151.967 81.601,151.259 81.605,150.529 C81.158,150.584 80.924,150.524 80.902,150.343 C80.882,150.165 80.856,149.963 80.829,149.739 C80.802,149.517 80.751,149.295 80.68,149.076 C80.609,148.86 80.388,148.727 80.021,148.68 C79.363,148.487 78.837,148.823 78.447,149.687 C78.052,150.554 77.455,151.034 76.652,151.132 C76.697,150.766 76.874,150.357 77.182,149.911 C77.489,149.465 77.319,149.191 76.675,149.086 C75.925,150.36 75.148,151.611 74.346,152.844 C73.545,154.077 72.971,155.486 72.62,157.071 C73.107,158.828 73.918,160.114 75.058,160.928 C76.197,161.742 77.442,162.476 78.791,163.129 C81.511,163.161 84.256,162.827 87.023,162.128 C89.789,161.427 92.603,160.177 95.465,158.377 C97.807,157.546 100.026,156.437 102.123,155.048 C104.216,153.659 106.337,152.107 108.484,150.392 C110.373,148.802 112.05,147.146 113.517,145.421 C114.983,143.702 115.795,141.651 115.961,139.268 C115.595,137.771 114.929,136.377 113.958,135.088 C112.985,133.799 112.05,132.438 111.151,131.002 Z M53.581,89.948 C53.213,89.948 52.897,89.894 52.634,89.894 C53.424,91.161 53.581,92.639 53.581,93.747 L53.581,117.179 C53.581,118.34 53.424,119.87 52.634,121.084 C53.318,121.032 54.16,121.032 55.214,121.032 L56.477,121.032 C57.477,121.032 58.32,121.032 59.004,121.084 C58.214,119.87 58.109,118.34 58.109,117.179 L58.109,106.044 C58.109,105.674 58.32,105.41 58.74,105.41 C60.215,105.41 61.267,105.41 62.162,105.463 C63.005,105.516 64.057,105.727 65.005,106.36 C64.9,105.674 64.9,101.821 65.005,101.136 C64.11,101.768 63.215,101.98 62.373,102.033 C61.478,102.085 60.372,102.085 58.74,102.085 C58.32,102.085 58.109,101.821 58.109,101.452 L58.109,94.328 C58.109,93.958 58.372,93.694 58.74,93.694 L62.847,93.694 C64.321,93.694 65.584,94.223 66.216,95.383 L66.163,89.948 L53.581,89.948 Z M40.422,117.971 C36.316,117.971 35.527,110.476 35.527,105.516 C35.527,100.767 36.263,93.008 40.422,93.008 C44.529,93.008 45.108,100.767 45.108,105.516 C45.108,110.476 44.476,117.971 40.422,117.971 Z M40.317,89.525 C33.684,89.525 30.946,95.7 30.946,105.516 C30.946,115.332 33.684,121.507 40.317,121.507 C47.003,121.507 49.74,115.332 49.74,105.569 C49.74,95.753 47.003,89.525 40.317,89.525 Z M61.147,76.707 C57.041,76.707 56.251,69.213 56.251,64.252 C56.251,59.502 56.988,51.745 61.147,51.745 C65.253,51.745 65.832,59.502 65.832,64.252 C65.832,69.213 65.2,76.707 61.147,76.707 Z M61.042,48.262 C54.409,48.262 51.671,54.436 51.671,64.252 C51.671,74.068 54.409,80.243 61.042,80.243 C67.728,80.243 70.465,74.068 70.465,64.305 C70.465,54.489 67.728,48.262 61.042,48.262 Z M249.596,52.483 L249.596,75.915 C249.596,76.812 249.49,77.921 249.069,78.976 C248.859,79.504 249.016,79.768 249.596,79.768 L261.546,79.768 C261.914,79.768 262.125,79.557 262.177,79.187 L262.546,75.071 C262.599,74.174 262.388,74.174 261.756,74.754 C260.598,75.863 258.914,76.074 257.018,76.074 L254.755,76.074 C254.386,76.074 254.123,75.81 254.123,75.44 L254.123,52.483 C254.123,51.586 254.175,50.425 254.65,49.37 C254.807,48.948 254.65,48.631 254.175,48.684 L249.543,48.684 C249.016,48.631 248.859,48.948 249.069,49.423 C249.49,50.478 249.596,51.586 249.596,52.483 Z M239.227,69.266 L235.594,69.266 C235.226,69.266 235.015,69.002 235.068,68.58 C236.226,62.563 236.858,59.766 237.174,58.025 C237.279,57.497 237.595,57.497 237.7,58.025 C237.964,59.714 238.595,62.458 239.753,68.58 C239.806,69.002 239.595,69.266 239.227,69.266 Z M247.018,79.187 C246.492,78.449 246.229,77.604 245.965,76.707 L240.385,52.167 C240.28,51.323 240.174,50.689 240.174,50.161 C240.174,49.845 240.227,49.528 240.28,49.317 C240.438,48.842 240.333,48.631 239.859,48.684 L235.331,48.684 C234.91,48.631 234.805,48.842 234.963,49.317 C235.015,49.528 235.068,49.845 235.068,50.161 C235.068,50.742 234.963,51.428 234.752,52.378 L229.487,76.179 C229.224,77.182 228.908,78.29 228.277,79.135 C228.014,79.557 228.119,79.821 228.593,79.821 C229.383,79.821 230.172,79.768 230.962,79.768 C231.752,79.768 232.593,79.821 233.436,79.821 C233.91,79.821 233.91,79.663 233.699,79.293 C233.489,78.976 233.383,78.554 233.383,78.079 C233.383,77.71 233.436,77.287 233.541,76.707 L234.173,73.488 C234.226,73.171 234.489,72.96 234.805,72.96 L240.07,72.96 C240.385,72.96 240.648,73.171 240.701,73.488 L241.28,76.707 C241.385,77.287 241.438,77.763 241.438,78.132 C241.438,78.554 241.385,78.87 241.227,79.187 C241.07,79.61 241.122,79.821 241.596,79.821 C242.438,79.821 243.28,79.768 244.123,79.768 C245.018,79.768 245.86,79.821 246.702,79.821 C247.176,79.821 247.281,79.61 247.018,79.187 Z M120.104,58.025 C120.209,57.497 120.525,57.497 120.63,58.025 C120.894,59.714 121.526,62.458 122.683,68.58 C122.736,69.002 122.526,69.266 122.157,69.266 L118.525,69.266 C118.156,69.266 117.945,69.002 117.998,68.58 C119.156,62.563 119.788,59.766 120.104,58.025 Z M111.523,79.821 C112.313,79.821 113.102,79.768 113.892,79.768 C114.682,79.768 115.524,79.821 116.366,79.821 C116.84,79.821 116.84,79.663 116.63,79.293 C116.419,78.976 116.314,78.554 116.314,78.079 C116.314,77.71 116.366,77.287 116.471,76.707 L117.103,73.488 C117.155,73.171 117.419,72.96 117.735,72.96 L122.999,72.96 C123.315,72.96 123.578,73.171 123.631,73.488 L124.21,76.707 C124.316,77.287 124.368,77.763 124.368,78.132 C124.368,78.554 124.316,78.87 124.157,79.187 C123.999,79.61 124.052,79.821 124.526,79.821 C125.368,79.821 126.211,79.768 127.053,79.768 C127.948,79.768 128.79,79.821 129.633,79.821 C130.107,79.821 130.212,79.61 129.948,79.187 C129.422,78.449 129.158,77.604 128.895,76.707 L123.315,52.167 C123.21,51.323 123.105,50.689 123.105,50.161 C123.105,49.845 123.157,49.528 123.21,49.317 C123.368,48.842 123.263,48.631 122.789,48.684 L118.261,48.684 C117.84,48.631 117.735,48.842 117.893,49.317 C117.945,49.528 117.998,49.845 117.998,50.161 C117.998,50.742 117.893,51.428 117.682,52.378 L112.418,76.179 C112.154,77.182 111.839,78.29 111.207,79.135 C110.944,79.557 111.049,79.821 111.523,79.821 Z M137.685,79.821 C138.369,79.768 139.211,79.768 140.264,79.768 L141.528,79.768 C142.528,79.768 143.37,79.768 144.054,79.821 C143.265,78.607 143.16,77.076 143.16,75.915 L143.16,64.78 C143.16,64.411 143.37,64.147 143.791,64.147 C145.266,64.147 146.319,64.147 147.213,64.2 C148.056,64.252 149.109,64.463 150.056,65.097 C149.951,64.411 149.951,60.558 150.056,59.872 C149.161,60.505 148.266,60.716 147.424,60.77 C146.529,60.822 145.423,60.822 143.791,60.822 C143.37,60.822 143.16,60.558 143.16,60.188 L143.16,53.064 C143.16,52.695 143.423,52.431 143.791,52.431 L147.898,52.431 C149.372,52.431 150.635,52.959 151.267,54.12 L151.214,48.684 L138.632,48.684 C138.264,48.684 137.948,48.631 137.685,48.631 C138.474,49.897 138.632,51.375 138.632,52.483 L138.632,75.915 C138.632,77.076 138.474,78.607 137.685,79.821 Z M35.406,79.768 C35.932,79.768 36.037,79.557 35.88,79.082 C35.406,78.026 35.353,76.866 35.353,75.915 L35.353,59.027 C35.353,58.553 35.721,58.5 35.88,58.922 L42.039,76.021 L42.039,75.968 C42.302,76.654 42.671,78.079 42.671,79.082 C42.671,79.557 42.828,79.821 43.302,79.768 L47.935,79.768 C48.461,79.768 48.514,79.61 48.356,79.135 C48.093,78.343 47.988,77.182 47.988,75.915 L47.988,52.536 C47.988,51.692 48.093,50.637 48.461,49.581 C48.672,49 48.514,48.684 47.988,48.684 L43.829,48.684 C43.302,48.684 43.197,48.895 43.355,49.37 C43.776,50.372 43.881,51.481 43.934,52.483 C43.934,57.233 43.987,64.675 43.987,68.263 C43.987,68.791 43.566,68.844 43.355,68.316 C42.249,65.149 39.722,58.447 37.459,52.483 C37.09,51.481 36.564,50.003 36.564,49.106 C36.564,48.789 36.511,48.631 36.143,48.684 L31.142,48.684 C30.615,48.684 30.51,48.895 30.668,49.37 C31.142,50.478 31.246,51.639 31.246,52.536 L31.246,75.915 C31.246,76.812 31.142,77.974 30.72,79.029 C30.51,79.504 30.668,79.768 31.194,79.768 L35.406,79.768 Z M174.585,65.255 C177.375,67.735 180.271,69.899 180.271,72.696 C180.271,74.965 178.481,76.496 176.27,76.496 C174.48,76.496 172.479,75.493 170.9,73.593 C170.531,73.119 170.163,73.224 170.163,73.857 L170.216,78.29 C170.216,78.607 170.321,78.818 170.637,78.976 C172.374,79.926 174.585,80.243 176.217,80.243 C180.903,80.243 184.956,77.552 184.956,72.274 C184.956,66.838 180.639,64.2 177.743,61.403 C175.691,59.555 174.216,57.55 174.216,55.386 C174.216,52.853 176.217,52.009 177.954,52.009 C179.849,52.009 181.692,53.011 183.113,54.806 C183.482,55.281 183.85,55.175 183.85,54.595 L183.85,50.267 C183.85,49.95 183.745,49.739 183.429,49.581 C181.903,48.842 180.008,48.262 178.007,48.262 C173.69,48.262 169.636,50.9 169.636,56.283 C169.636,60.4 172.058,62.986 174.585,65.255 Z M205.01,52.483 L205.01,75.915 C205.01,76.812 204.905,77.974 204.484,79.029 C204.273,79.504 204.431,79.768 204.958,79.768 L209.59,79.768 C210.116,79.768 210.222,79.557 210.064,79.082 C209.59,78.026 209.538,76.866 209.538,75.915 L209.538,52.483 C209.538,51.639 209.59,50.637 209.959,49.634 C210.169,49 210.064,48.631 209.538,48.684 L204.905,48.684 C204.379,48.631 204.273,48.895 204.431,49.37 C204.905,50.478 205.01,51.586 205.01,52.483 Z M187.324,53.064 C188.324,52.325 189.693,52.22 190.904,52.22 L191.009,52.22 C191.325,52.22 191.535,52.431 191.535,52.747 L191.535,75.915 C191.535,76.812 191.483,77.974 191.062,79.029 C190.851,79.504 191.009,79.768 191.535,79.768 L196.168,79.768 C196.695,79.768 196.799,79.557 196.642,79.082 C196.168,78.026 196.115,76.866 196.115,75.915 L196.115,52.8 C196.115,52.483 196.326,52.272 196.642,52.272 L196.747,52.272 C198.221,52.272 199.485,52.378 200.432,53.117 C201.275,53.803 201.538,53.803 201.485,52.695 L201.38,49.212 C201.38,48.789 201.169,48.631 200.801,48.631 C198.905,48.684 196.379,48.684 193.852,48.684 C191.325,48.684 188.798,48.684 186.903,48.631 C186.534,48.631 186.323,48.789 186.323,49.212 L186.218,52.642 C186.166,53.697 186.429,53.75 187.324,53.064 Z M154.477,52.483 L154.477,75.915 C154.477,76.812 154.371,77.974 153.95,79.029 C153.739,79.504 153.898,79.768 154.424,79.768 L166.321,79.768 C166.742,79.768 167.006,79.504 167.058,79.082 L167.427,74.754 C167.48,74.068 167.269,74.068 166.848,74.543 C165.637,75.863 163.9,76.074 161.899,76.074 L159.636,76.074 C159.267,76.074 159.004,75.81 159.004,75.44 L159.004,63.725 C159.004,63.355 159.215,63.091 159.636,63.091 C161.005,63.091 162.005,63.091 162.847,63.144 C163.426,63.197 164.163,63.302 164.847,63.566 C165.374,63.83 165.637,63.672 165.637,63.091 C165.585,62.141 165.585,60.716 165.637,59.714 C165.637,59.186 165.374,59.027 164.9,59.291 C164.268,59.555 163.636,59.661 163.057,59.714 C162.162,59.766 161.162,59.766 159.636,59.766 C159.215,59.766 159.004,59.502 159.004,59.133 L159.004,53.064 C159.004,52.695 159.267,52.431 159.636,52.431 L163.742,52.431 C164.795,52.431 165.742,52.695 166.426,53.275 C166.901,53.697 167.111,53.592 167.111,53.011 L167.058,49.423 C167.058,48.948 166.795,48.684 166.321,48.684 L154.266,48.684 C153.792,48.684 153.687,48.895 153.898,49.37 C154.371,50.425 154.477,51.586 154.477,52.483 Z M212.959,52.431 L212.959,52.378 L218.328,76.021 C218.591,77.182 218.697,77.974 218.697,78.29 C218.697,78.607 218.644,78.87 218.591,79.082 C218.434,79.557 218.697,79.768 219.118,79.768 L223.33,79.768 C223.856,79.768 223.962,79.557 223.856,79.029 C223.803,78.818 223.803,78.607 223.803,78.29 C223.803,77.868 223.909,77.182 224.119,76.285 L229.437,52.483 C229.699,51.323 230.121,50.214 230.7,49.423 C231.069,49 230.963,48.684 230.384,48.684 L225.699,48.684 C225.225,48.684 225.172,48.895 225.383,49.37 C225.435,49.581 225.488,49.897 225.488,50.214 C225.488,50.9 225.33,51.692 225.172,52.695 C223.962,59.133 222.329,67.577 221.75,71.008 C221.645,71.43 221.329,71.482 221.224,71.008 C220.592,67.63 218.96,59.344 217.696,52.959 C217.434,51.534 217.065,50.267 217.434,49.37 C217.644,48.895 217.591,48.684 217.118,48.684 L212.011,48.684 C211.432,48.684 211.327,49 211.695,49.423 C212.275,50.214 212.695,51.27 212.959,52.431 Z M82.94,51.745 C87.046,51.745 87.625,59.502 87.625,64.252 C87.625,69.213 86.993,76.707 82.94,76.707 C78.833,76.707 78.044,69.213 78.044,64.252 C78.044,59.502 78.781,51.745 82.94,51.745 Z M82.835,80.243 C89.52,80.243 92.257,74.068 92.257,64.305 C92.257,54.489 89.52,48.262 82.835,48.262 C76.201,48.262 73.464,54.436 73.464,64.252 C73.464,74.068 76.201,80.243 82.835,80.243 Z M99.573,65.255 C102.364,67.735 105.259,69.899 105.259,72.696 C105.259,74.965 103.469,76.496 101.258,76.496 C99.468,76.496 97.468,75.493 95.889,73.593 C95.52,73.119 95.152,73.224 95.152,73.857 L95.204,78.29 C95.204,78.607 95.31,78.818 95.625,78.976 C97.363,79.926 99.573,80.243 101.205,80.243 C105.891,80.243 109.945,77.552 109.945,72.274 C109.945,66.838 105.628,64.2 102.732,61.403 C100.679,59.555 99.205,57.55 99.205,55.386 C99.205,52.853 101.205,52.009 102.943,52.009 C104.838,52.009 106.681,53.011 108.102,54.806 C108.47,55.281 108.839,55.175 108.839,54.595 L108.839,50.267 C108.839,49.95 108.734,49.739 108.418,49.581 C106.891,48.842 104.996,48.262 102.995,48.262 C98.679,48.262 94.625,50.9 94.625,56.283 C94.625,60.4 97.047,62.986 99.573,65.255 L99.573,65.255 Z" id="Fill-1"></path>
        </g>
    </g>
</svg>