<?xml version="1.0" encoding="UTF-8"?>
<svg width="301px" height="116px" viewBox="0 0 301 116" version="1.1" xmlns="http://www.w3.org/2000/svg" xmlns:xlink="http://www.w3.org/1999/xlink">
    <!-- Generator: Sketch 64 (93537) - https://sketch.com -->
    <title>noosa-festival-of-surf-logo</title>
    <desc>Created with Sketch.</desc>
    <g id="Page-1" stroke="none" stroke-width="1" fill="none" fill-rule="evenodd">
        <g id="noosa-festival-of-surf-logo" fill="#FFFFFF" fill-rule="nonzero">
            <path d="M124.48,4.98 L124.48,28.41 C124.48,29.31 124.37,30.47 123.95,31.52 C123.74,32 123.9,32.26 124.42,32.26 L136.32,32.26 C136.74,32.26 137,32 137.06,31.57 L137.43,27.24 C137.48,26.55 137.27,26.55 136.85,27.03 C135.64,28.35 133.9,28.56 131.9,28.56 L129.64,28.56 C129.27,28.56 129.01,28.3 129.01,27.93 L129.01,16.22 C129.01,15.85 129.22,15.59 129.64,15.59 C131.01,15.59 132.01,15.59 132.85,15.64 C133.43,15.69 134.17,15.8 134.85,16.06 C135.38,16.32 135.64,16.17 135.64,15.59 C135.59,14.64 135.59,13.21 135.64,12.21 C135.64,11.68 135.38,11.52 134.9,11.79 C134.27,12.05 133.64,12.16 133.06,12.21 C132.17,12.26 131.16,12.26 129.64,12.26 C129.22,12.26 129.01,12 129.01,11.63 L129.01,5.56 C129.01,5.19 129.27,4.93 129.64,4.93 L133.75,4.93 C134.8,4.93 135.75,5.19 136.43,5.77 C136.9,6.19 137.11,6.09 137.11,5.51 L137.06,1.92 C137.06,1.45 136.8,1.18 136.32,1.18 L124.26,1.18 C123.79,1.18 123.68,1.39 123.89,1.87 C124.37,2.92 124.48,4.08 124.48,4.98 Z M81.52,32.32 C82.31,32.32 83.1,32.27 83.89,32.27 C84.68,32.27 85.52,32.32 86.36,32.32 C86.83,32.32 86.83,32.16 86.62,31.79 C86.41,31.47 86.3,31.05 86.3,30.58 C86.3,30.21 86.35,29.79 86.46,29.21 L87.09,25.99 C87.14,25.67 87.41,25.46 87.72,25.46 L93,25.46 C93.32,25.46 93.58,25.67 93.63,25.99 L94.21,29.21 C94.32,29.79 94.37,30.27 94.37,30.63 C94.37,31.05 94.32,31.37 94.16,31.69 C94,32.11 94.05,32.32 94.53,32.32 C95.37,32.32 96.21,32.27 97.06,32.27 C97.96,32.27 98.8,32.32 99.64,32.32 C100.11,32.32 100.22,32.11 99.96,31.69 C99.43,30.95 99.17,30.11 98.91,29.21 L93.33,4.67 C93.22,3.83 93.12,3.19 93.12,2.66 C93.12,2.34 93.17,2.03 93.23,1.82 C93.39,1.34 93.28,1.13 92.81,1.19 L88.28,1.19 C87.86,1.14 87.75,1.35 87.91,1.82 C87.96,2.03 88.02,2.35 88.02,2.66 C88.02,3.24 87.91,3.93 87.7,4.88 L82.44,28.68 C82.18,29.68 81.86,30.79 81.23,31.64 C80.94,32.05 81.05,32.32 81.52,32.32 Z M90.1,10.52 C90.2,9.99 90.52,9.99 90.63,10.52 C90.89,12.21 91.53,14.95 92.68,21.07 C92.73,21.49 92.52,21.76 92.15,21.76 L88.52,21.76 C88.15,21.76 87.94,21.5 87.99,21.07 C89.16,15.06 89.79,12.26 90.1,10.52 Z M144.58,17.75 C147.37,20.23 150.27,22.39 150.27,25.19 C150.27,27.46 148.48,28.99 146.27,28.99 C144.48,28.99 142.48,27.99 140.9,26.09 C140.53,25.62 140.16,25.72 140.16,26.35 L140.21,30.78 C140.21,31.1 140.32,31.31 140.63,31.47 C142.37,32.42 144.58,32.74 146.21,32.74 C150.9,32.74 154.95,30.05 154.95,24.77 C154.95,19.33 150.63,16.7 147.74,13.9 C145.69,12.05 144.21,10.05 144.21,7.88 C144.21,5.35 146.21,4.5 147.95,4.5 C149.85,4.5 151.69,5.5 153.11,7.3 C153.48,7.78 153.85,7.67 153.85,7.09 L153.85,2.76 C153.85,2.44 153.74,2.23 153.43,2.07 C151.9,1.33 150.01,0.75 148.01,0.75 C143.69,0.75 139.64,3.39 139.64,8.77 C139.64,12.9 142.06,15.48 144.58,17.75 Z M69.57,17.75 C72.36,20.23 75.26,22.39 75.26,25.19 C75.26,27.46 73.47,28.99 71.26,28.99 C69.47,28.99 67.47,27.99 65.89,26.09 C65.52,25.62 65.15,25.72 65.15,26.35 L65.2,30.78 C65.2,31.1 65.31,31.31 65.62,31.47 C67.36,32.42 69.57,32.74 71.2,32.74 C75.89,32.74 79.94,30.05 79.94,24.77 C79.94,19.33 75.62,16.7 72.73,13.9 C70.68,12.05 69.2,10.05 69.2,7.88 C69.2,5.35 71.2,4.5 72.94,4.5 C74.84,4.5 76.68,5.5 78.1,7.3 C78.47,7.78 78.84,7.67 78.84,7.09 L78.84,2.76 C78.84,2.44 78.73,2.23 78.42,2.07 C76.89,1.33 75,0.75 73,0.75 C68.68,0.75 64.63,3.39 64.63,8.77 C64.63,12.9 67.05,15.48 69.57,17.75 Z M182.96,4.93 L182.96,4.88 L188.33,28.52 C188.59,29.68 188.7,30.47 188.7,30.79 C188.7,31.11 188.65,31.37 188.59,31.58 C188.43,32.05 188.7,32.27 189.12,32.27 L193.33,32.27 C193.86,32.27 193.96,32.06 193.86,31.53 C193.81,31.32 193.81,31.11 193.81,30.79 C193.81,30.37 193.92,29.68 194.13,28.78 L199.45,4.98 C199.71,3.82 200.13,2.71 200.71,1.92 C201.08,1.5 200.97,1.18 200.39,1.18 L195.7,1.18 C195.23,1.18 195.17,1.39 195.38,1.87 C195.43,2.08 195.49,2.4 195.49,2.71 C195.49,3.4 195.33,4.19 195.17,5.19 C193.96,11.63 192.33,20.07 191.75,23.5 C191.64,23.92 191.33,23.97 191.22,23.5 C190.59,20.12 188.96,11.84 187.69,5.45 C187.43,4.03 187.06,2.76 187.43,1.86 C187.64,1.38 187.59,1.17 187.11,1.17 L182,1.17 C181.42,1.17 181.32,1.49 181.68,1.91 C182.27,2.71 182.7,3.77 182.96,4.93 Z M157.32,5.56 C158.32,4.82 159.69,4.72 160.9,4.72 L161.01,4.72 C161.33,4.72 161.54,4.93 161.54,5.25 L161.54,28.42 C161.54,29.32 161.49,30.48 161.07,31.53 C160.86,32.01 161.02,32.27 161.54,32.27 L166.17,32.27 C166.7,32.27 166.8,32.06 166.64,31.58 C166.17,30.52 166.11,29.36 166.11,28.41 L166.11,5.3 C166.11,4.98 166.32,4.77 166.64,4.77 L166.75,4.77 C168.22,4.77 169.49,4.88 170.44,5.61 C171.28,6.3 171.55,6.3 171.49,5.19 L171.38,1.71 C171.38,1.29 171.17,1.13 170.8,1.13 C168.9,1.18 166.38,1.18 163.85,1.18 C161.32,1.18 158.8,1.18 156.9,1.13 C156.53,1.13 156.32,1.29 156.32,1.71 L156.21,5.14 C156.17,6.19 156.43,6.25 157.32,5.56 Z M52.83,32.74 C59.52,32.74 62.25,26.57 62.25,16.8 C62.25,6.98 59.51,0.76 52.83,0.76 C46.2,0.76 43.46,6.93 43.46,16.75 C43.46,26.57 46.2,32.74 52.83,32.74 Z M52.94,4.24 C57.05,4.24 57.63,12 57.63,16.75 C57.63,21.71 57,29.2 52.94,29.2 C48.83,29.2 48.04,21.71 48.04,16.75 C48.04,12 48.78,4.24 52.94,4.24 Z M219.6,4.98 L219.6,28.41 C219.6,29.31 219.49,30.42 219.07,31.47 C218.86,32 219.02,32.26 219.6,32.26 L231.55,32.26 C231.92,32.26 232.13,32.05 232.18,31.68 L232.55,27.56 C232.6,26.66 232.39,26.66 231.76,27.24 C230.6,28.35 228.92,28.56 227.02,28.56 L224.76,28.56 C224.39,28.56 224.13,28.3 224.13,27.93 L224.13,4.98 C224.13,4.08 224.18,2.92 224.66,1.87 C224.82,1.45 224.66,1.13 224.19,1.18 L219.56,1.18 C219.03,1.13 218.88,1.44 219.09,1.92 C219.49,2.98 219.6,4.08 219.6,4.98 Z M175.01,4.98 L175.01,28.41 C175.01,29.31 174.91,30.47 174.48,31.52 C174.27,32 174.43,32.26 174.95,32.26 L179.58,32.26 C180.11,32.26 180.21,32.05 180.05,31.57 C179.58,30.51 179.52,29.35 179.52,28.4 L179.52,4.98 C179.52,4.14 179.57,3.13 179.94,2.13 C180.15,1.5 180.05,1.13 179.52,1.18 L174.89,1.18 C174.36,1.13 174.26,1.39 174.42,1.87 C174.91,2.98 175.01,4.08 175.01,4.98 Z M107.68,32.32 C108.36,32.27 109.21,32.27 110.26,32.27 L111.52,32.27 C112.52,32.27 113.36,32.27 114.05,32.32 C113.26,31.11 113.16,29.58 113.16,28.41 L113.16,17.28 C113.16,16.91 113.37,16.65 113.79,16.65 C115.26,16.65 116.32,16.65 117.21,16.7 C118.05,16.75 119.11,16.96 120.05,17.6 C119.94,16.91 119.94,13.06 120.05,12.38 C119.15,13.01 118.26,13.22 117.42,13.28 C116.53,13.33 115.42,13.33 113.79,13.33 C113.37,13.33 113.16,13.07 113.16,12.7 L113.16,5.58 C113.16,5.21 113.42,4.95 113.79,4.95 L117.9,4.95 C119.37,4.95 120.64,5.48 121.27,6.64 L121.22,1.2 L108.64,1.2 C108.27,1.2 107.96,1.15 107.69,1.15 C108.48,2.42 108.64,3.89 108.64,5 L108.64,28.43 C108.63,29.57 108.47,31.1 107.68,32.32 Z M217.02,31.68 C216.49,30.94 216.23,30.1 215.97,29.2 L210.39,4.66 C210.28,3.82 210.18,3.18 210.18,2.65 C210.18,2.33 210.23,2.02 210.29,1.81 C210.45,1.33 210.34,1.12 209.87,1.18 L205.34,1.18 C204.92,1.13 204.81,1.34 204.97,1.81 C205.02,2.02 205.08,2.34 205.08,2.65 C205.08,3.23 204.97,3.92 204.76,4.87 L199.5,28.67 C199.24,29.67 198.92,30.78 198.29,31.63 C198.03,32.05 198.13,32.32 198.61,32.32 C199.4,32.32 200.19,32.27 200.98,32.27 C201.77,32.27 202.61,32.32 203.45,32.32 C203.92,32.32 203.92,32.16 203.71,31.79 C203.5,31.47 203.39,31.05 203.39,30.58 C203.39,30.21 203.44,29.79 203.55,29.21 L204.18,25.99 C204.23,25.67 204.5,25.46 204.81,25.46 L210.07,25.46 C210.39,25.46 210.65,25.67 210.7,25.99 L211.28,29.21 C211.39,29.79 211.44,30.27 211.44,30.63 C211.44,31.05 211.39,31.37 211.23,31.69 C211.07,32.11 211.12,32.32 211.6,32.32 C212.44,32.32 213.28,32.27 214.13,32.27 C215.03,32.27 215.87,32.32 216.71,32.32 C217.18,32.32 217.28,32.11 217.02,31.68 Z M209.23,21.76 L205.6,21.76 C205.23,21.76 205.02,21.5 205.07,21.07 C206.23,15.05 206.86,12.26 207.18,10.52 C207.28,9.99 207.6,9.99 207.71,10.52 C207.97,12.21 208.61,14.95 209.76,21.07 C209.81,21.5 209.6,21.76 209.23,21.76 Z M31.04,0.76 C24.41,0.76 21.67,6.93 21.67,16.75 C21.67,26.57 24.41,32.74 31.04,32.74 C37.73,32.74 40.4600273,26.57 40.4600273,16.8 C40.47,6.99 37.73,0.76 31.04,0.76 Z M31.15,29.2 C27.04,29.2 26.25,21.71 26.25,16.75 C26.25,12 26.99,4.24 31.15,4.24 C35.26,4.24 35.84,12 35.84,16.75 C35.83,21.71 35.2,29.2 31.15,29.2 Z M5.41,32.26 C5.94,32.26 6.04,32.05 5.88,31.57 C5.41,30.51 5.35,29.35 5.35,28.4 L5.35,11.52 C5.35,11.05 5.72,10.99 5.88,11.41 L12.04,28.51 L12.04,28.46 C12.3,29.15 12.67,30.57 12.67,31.57 C12.67,32.04 12.83,32.31 13.3,32.26 L17.93,32.26 C18.46,32.26 18.51,32.1 18.35,31.63 C18.09,30.84 17.98,29.68 17.98,28.41 L17.98,5.03 C17.98,4.19 18.09,3.13 18.45,2.07 C18.66,1.49 18.5,1.17 17.98,1.17 L13.82,1.17 C13.29,1.17 13.19,1.38 13.35,1.86 C13.77,2.86 13.88,3.97 13.93,4.97 C13.93,9.72 13.98,17.16 13.98,20.75 C13.98,21.28 13.56,21.33 13.35,20.8 C12.24,17.63 9.72,10.93 7.45,4.97 C7.08,3.97 6.55,2.49 6.55,1.59 C6.55,1.27 6.5,1.11 6.13,1.17 L1.13,1.17 C0.6,1.17 0.5,1.38 0.66,1.86 C1.13,2.97 1.24,4.13 1.24,5.03 L1.24,28.41 C1.24,29.31 1.14,30.47 0.71,31.52 C0.5,32 0.66,32.26 1.18,32.26 L5.41,32.26 L5.41,32.26 Z M23.58,42.44 C23.21,42.44 22.9,42.39 22.63,42.39 C23.42,43.66 23.58,45.13 23.58,46.24 L23.58,69.67 C23.58,70.83 23.42,72.36 22.63,73.58 C23.31,73.53 24.16,73.53 25.21,73.53 L26.47,73.53 C27.47,73.53 28.31,73.53 29,73.58 C28.21,72.37 28.11,70.84 28.11,69.67 L28.11,58.54 C28.11,58.17 28.32,57.91 28.74,57.91 C30.21,57.91 31.27,57.91 32.16,57.96 C33,58.01 34.06,58.22 35,58.86 C34.89,58.17 34.89,54.32 35,53.64 C34.1,54.27 33.21,54.48 32.37,54.54 C31.48,54.59 30.37,54.59 28.74,54.59 C28.32,54.59 28.11,54.33 28.11,53.96 L28.11,46.84 C28.11,46.47 28.37,46.21 28.74,46.21 L32.85,46.21 C34.32,46.21 35.59,46.74 36.22,47.9 L36.17,42.46 L23.58,42.46 L23.58,42.44 Z M10.32,42.02 C3.69,42.02 0.95,48.19 0.95,58.01 C0.95,67.83 3.68,74 10.32,74 C17.01,74 19.74,67.83 19.74,58.06 C19.74,48.25 17,42.02 10.32,42.02 Z M10.42,70.47 C6.31,70.47 5.52,62.98 5.52,58.02 C5.52,53.27 6.26,45.51 10.42,45.51 C14.53,45.51 15.11,53.27 15.11,58.02 C15.11,62.97 14.48,70.47 10.42,70.47 Z M81.15,83.5 C78.31,81.76 75.58,80.68 72.95,80.28 C70.32,79.88 67.65,79.72 64.95,79.82 C62.25,79.92 59.45,80.04 56.57,80.16 C53.69,80.28 50.62,80.04 47.38,79.44 C48.98,74.71 51.16,70.49 53.93,66.8 C56.69,63.11 59.83,59.64 63.33,56.4 C63.75,56.89 63.77,57.25 63.39,57.48 C63.01,57.71 63.07,58.02 63.57,58.41 C63.98,58.09 64.33,57.95 64.61,58.01 C64.89,58.07 65.15,58.22 65.41,58.46 C65.67,58.7 65.92,58.94 66.18,59.18 C66.43,59.42 66.75,59.57 67.12,59.61 C67.49,59.66 67.8,59.57 68.04,59.36 C68.29,59.15 68.53,58.94 68.78,58.72 C69.03,58.51 69.28,58.34 69.53,58.22 C69.79,58.1 70.16,58.19 70.65,58.49 C71.29,57.05 71.94,55.66 72.58,54.31 C73.23,52.96 73.38,51.54 73.01,50.03 C72.82,49.24 72.38,48.61 71.69,48.15 C71,47.69 70.4,47.22 69.89,46.74 C69.18,46.1 68.55,45.4 68.01,44.65 C67.46,43.9 66.75,43.62 65.87,43.82 C64.78,43.77 63.91,43.9 63.27,44.21 C62.63,44.51 61.81,44.68 60.82,44.71 C55.63,48.97 51.04,53.64 47.04,58.71 C43.04,63.78 39.84,69.51 37.45,75.88 C38.16,79.52 39.56,82.25 41.64,84.09 C43.72,85.93 46.18,87.17 49.02,87.82 C51.86,88.48 54.92,88.69 58.2,88.47 C61.48,88.25 64.67,87.91 67.79,87.44 C68.27,87.65 68.87,87.76 69.59,87.77 C70.31,87.77 71.06,87.79 71.84,87.84 C72.61,87.88 73.35,87.98 74.05,88.12 C74.75,88.26 75.31,88.63 75.74,89.21 C73.22,93.79 69.83,97.44 65.59,100.18 C61.35,102.92 56.54,105.25 51.16,107.18 C51.26,106.53 51.36,105.86 51.46,105.17 C51.56,104.48 51.61,103.77 51.61,103.04 C51.16,103.09 50.93,103.04 50.91,102.85 C50.89,102.67 50.86,102.47 50.84,102.25 C50.81,102.03 50.76,101.81 50.69,101.59 C50.62,101.37 50.4,101.24 50.03,101.19 C49.37,101 48.85,101.33 48.46,102.2 C48.07,103.07 47.47,103.55 46.67,103.64 C46.72,103.27 46.89,102.87 47.2,102.42 C47.51,101.97 47.34,101.7 46.69,101.6 C45.94,102.87 45.16,104.13 44.36,105.36 C43.56,106.59 42.98,108 42.63,109.59 C43.12,111.35 43.93,112.63 45.07,113.45 C46.21,114.26 47.45,115 48.8,115.65 C51.52,115.68 54.26,115.35 57.03,114.65 C59.8,113.95 62.61,112.7 65.47,110.9 C67.81,110.07 70.03,108.96 72.13,107.57 C74.22,106.18 76.34,104.63 78.49,102.91 C80.38,101.32 82.06,99.67 83.52,97.94 C84.99,96.22 85.8,94.17 85.96,91.79 C85.59,90.29 84.93,88.9 83.96,87.61 C82.98,86.3 82.05,84.93 81.15,83.5 Z M115.71,63.79 C115.42,61.01 115.19,58.25 115.03,55.5 C114.46,54.72 113.93,53.86 113.42,52.9 C112.91,51.94 112.42,50.94 111.92,49.9 C111.43,48.86 110.91,47.85 110.36,46.87 C109.81,45.89 109.19,45.07 108.5,44.41 C107.8,44.47 107.23,44.44 106.79,44.3 C106.35,44.16 105.89,44.03 105.41,43.9 C104.93,43.77 104.44,43.73 103.94,43.77 C103.43,43.81 102.83,43.99 102.13,44.29 C102.65,46.68 103.35,49.11 104.22,51.58 C105.09,54.06 105.72,56.39 106.1,58.58 C106.07,61.23 106.19,63.98 106.47,66.84 C106.75,69.71 106.86,72.54 106.8,75.36 C106.74,78.17 106.42,80.95 105.82,83.7 C105.22,86.45 104.02,88.99 102.22,91.32 C101.1,90.56 100.08,89.61 99.16,88.47 C98.24,87.33 97.44,86.13 96.75,84.87 C96.07,83.61 95.48,82.34 95,81.06 C94.51,79.78 94.17,78.57 93.96,77.44 C92.11,73.64 90.7,69.42 89.74,64.78 C88.77,60.14 88.32,55.77 88.36,51.69 C88.12,51.69 87.82,51.38 87.47,50.78 C86.77,50.84 85.99,50.83 85.13,50.75 C84.26,50.66 83.41,50.66 82.56,50.73 C81.71,50.81 80.91,51 80.18,51.31 C79.44,51.62 78.83,52.14 78.34,52.85 C78.78,56.22 79.29,59.61 79.86,63.02 C80.43,66.43 81.19,69.86 82.13,73.31 C83.07,76.76 84.25,80.2 85.66,83.62 C87.07,87.04 88.88,90.48 91.1,93.92 C92.81,95.05 94.72,96.02 96.81,96.83 C98.9,97.64 101.16,97.86 103.59,97.48 C106.33,97.08 108.54,96.1 110.23,94.52 C111.92,92.94 113.4,91.15 114.67,89.15 C115.45,86.35 115.92,83.54 116.1,80.73 C116.28,77.92 116.33,75.09 116.25,72.24 C116.19,69.39 116,66.57 115.71,63.79 Z M153.3,86.71 C151.77,86.59 150.23,86.55 148.69,86.59 C147.14,86.63 145.66,86.62 144.26,86.56 C142.85,86.5 141.52,86.29 140.26,85.91 C139,85.53 137.86,84.87 136.84,83.93 C137.19,81.84 137.88,79.7 138.9,77.53 C139.92,75.36 141.04,73.17 142.25,70.97 C143.46,68.77 144.61,66.55 145.7,64.29 C146.79,62.03 147.57,59.77 148.06,57.51 C148.4,55.95 148.34,54.5 147.87,53.15 C147.4,51.8 146.86,50.48 146.25,49.19 C145.01,48.96 144.18,48.38 143.77,47.44 C142.3,47.16 141.07,46.91 140.1,46.69 C139.12,46.47 137.91,46.26 136.44,46.05 C136.11,46.47 135.85,46.67 135.66,46.66 C135.47,46.65 135.11,46.63 134.58,46.62 C132.96,47.65 131.62,48.88 130.54,50.3 C129.46,51.72 128.37,53.15 127.25,54.57 C127.2,53.51 127.05,52.58 126.8,51.78 C126.55,50.98 126.3,50.17 126.05,49.37 C125.62,48.97 124.97,48.55 124.08,48.13 C123.2,47.71 122.27,47.38 121.29,47.16 C120.31,46.94 119.41,46.95 118.57,47.21 C117.73,47.47 117.18,48.06 116.91,49.01 C116.92,49.69 117.14,50.1 117.57,50.24 C118,50.38 118.18,50.79 118.12,51.48 C118.78,56.87 119.37,62.21 119.9,67.49 C120.43,72.78 120.76,78.15 120.89,83.6 C120.87,84.67 120.92,85.87 121.05,87.23 C121.18,88.58 121.25,90.02 121.29,91.53 C121.29,92.82 121.26,94.1 121.19,95.36 C121.12,96.62 121.06,97.86 121.02,99.08 C120.98,100.3 121,101.44 121.09,102.49 C121.18,103.54 121.43,104.5 121.84,105.36 C123.2,105.95 124.57,106.3 125.94,106.4 C127.32,106.5 128.7,106.39 130.1,106.06 C130.29,104.52 130.34,102.88 130.24,101.15 C130.14,99.42 130,97.61 129.81,95.74 C129.62,93.87 129.45,91.97 129.29,90.05 C129.13,88.13 129.09,86.22 129.16,84.31 C130.35,85.99 132.01,87.48 134.14,88.77 C136.27,90.07 138.52,91.01 140.9,91.59 C143.28,92.17 145.65,92.36 148.01,92.15 C150.37,91.94 152.45,91.15 154.26,89.8 C154.07,89.52 153.98,89.04 153.97,88.36 C153.94,87.66 153.73,87.12 153.3,86.71 Z M132.66,71.63 C131.49,73.56 130.54,75.55 129.81,77.61 C129.67,76.49 129.63,75.39 129.69,74.32 C129.75,73.25 129.8,72.26 129.84,71.34 C129.88,71.03 129.99,70.89 130.18,70.9 C130.37,70.92 130.52,70.76 130.64,70.45 C130.62,70.3 130.49,70.13 130.24,69.93 C129.99,69.73 129.89,69.56 129.95,69.4 C129.92,69.17 129.98,68.7 130.12,67.96 C130.26,67.22 130.44,66.44 130.69,65.61 C130.93,64.78 131.2,64.05 131.5,63.4 C131.8,62.76 132.13,62.38 132.5,62.26 C132.46,61.96 132.38,61.76 132.26,61.66 C132.13,61.56 132.06,61.4 132.03,61.18 C132.34,61.29 132.65,61.33 132.95,61.3 C132.66,60.81 132.47,60.47 132.37,60.29 C132.27,60.11 132.26,59.71 132.34,59.1 C132.59,58.69 132.85,58.51 133.13,58.55 C133.4,58.59 133.68,58.52 133.96,58.34 C134.05,57.87 133.98,57.6 133.75,57.51 C133.51,57.43 133.53,57.25 133.8,56.99 C134.54,56.83 135.11,56.53 135.51,56.1 C135.91,55.67 136.27,55.21 136.59,54.71 C136.91,54.22 137.25,53.74 137.61,53.28 C137.97,52.82 138.52,52.51 139.26,52.34 C139.43,54.98 139.19,57.4 138.55,59.6 C137.91,61.8 137.06,63.88 136.01,65.83 C134.94,67.76 133.83,69.7 132.66,71.63 Z M191.81,67.36 C189.37,67.89 187.11,68.54 185.01,69.33 C182.91,70.12 180.91,70.99 179.02,71.94 C177.13,72.89 175.28,73.87 173.47,74.89 C171.66,75.91 169.75,76.84 167.73,77.69 C167.94,74.48 168.17,71.53 168.42,68.84 C168.66,66.15 168.78,63.26 168.78,60.14 C170.54,59.09 172.42,58.14 174.4,57.29 C176.38,56.44 178.4,55.65 180.47,54.9 C182.54,54.16 184.62,53.39 186.72,52.6 C188.82,51.81 190.84,51 192.79,50.15 C192.57,49.57 192.54,49.16 192.69,48.91 C192.85,48.66 192.9,48.31 192.85,47.87 C192.4,47.32 191.89,46.83 191.31,46.41 C190.73,45.99 190.18,45.54 189.67,45.07 C187.71,45.16 185.85,45.38 184.07,45.75 C182.3,46.12 180.53,46.54 178.77,47.02 C177.01,47.5 175.3,48.03 173.62,48.61 C171.95,49.19 170.31,49.73 168.71,50.23 C168.99,49.44 169.08,48.63 168.98,47.81 C168.88,46.99 168.78,46.16 168.68,45.34 C167.53,44.57 166.17,43.84 164.61,43.16 C163.05,42.48 161.3,42.56 159.36,43.4 C159.23,44.18 159.2,45.05 159.28,46.03 C159.36,47.01 159.48,48 159.64,49 C159.8,50.01 159.9,51.02 159.95,52.04 C160,53.06 159.89,54.04 159.63,54.98 C158.11,55.55 156.8,56.01 155.71,56.37 C154.62,56.73 153.36,56.96 151.93,57.06 C151.72,58.45 151.87,59.54 152.38,60.31 C152.89,61.08 153.55,61.71 154.37,62.18 C155.18,62.65 156.08,63.04 157.07,63.33 C158.05,63.63 158.91,64 159.65,64.44 C159.4,67.36 159.19,70.13 159.02,72.77 C158.85,75.41 158.66,78.07 158.46,80.75 C157.41,80.8 156.82,81.16 156.72,81.82 C156.61,82.48 156.36,83.1 155.98,83.68 C156.4,84.01 156.78,84.36 157.13,84.74 C157.48,85.12 157.75,85.52 157.96,85.95 C157.81,87.87 157.78,89.96 157.87,92.22 C157.96,94.49 158.28,96.56 158.85,98.42 C159.42,100.29 160.28,101.8 161.45,102.95 C162.61,104.1 164.27,104.54 166.44,104.28 C167.15,103.89 167.84,103.35 168.52,102.66 C167.62,100.26 167.09,97.8 166.94,95.28 C166.78,92.76 166.91,90.33 167.3,88 C171.41,85.68 175.5,83.34 179.57,80.98 C183.64,78.63 187.89,76.42 192.34,74.36 C192.72,73.71 193.25,73.15 193.95,72.68 C194.65,72.21 195.02,71.52 195.06,70.61 C194.37,68.8 193.29,67.71 191.81,67.36 Z M208.25,73.18 C208.12,69.63 208.07,66.12 208.11,62.66 C208.14,59.2 208.02,55.67 207.73,52.06 C207.95,51.43 208.09,50.78 208.12,50.13 C208.15,49.48 208.25,48.84 208.4,48.22 C207.27,47.07 205.89,46.12 204.25,45.37 C202.61,44.62 200.84,44.55 198.94,45.16 C198.78,48.82 198.67,52.31 198.62,55.62 C198.57,58.93 198.61,62.27 198.76,65.63 C198.9,68.99 199.11,72.44 199.39,75.97 C199.67,79.51 200.09,83.29 200.66,87.32 C201.11,88.56 201.58,89.94 202.07,91.48 C202.56,93.01 203.25,94.34 204.14,95.44 C204.84,95.58 205.53,95.78 206.2,96.04 C206.88,96.3 207.52,96.49 208.14,96.6 C208.76,96.71 209.4,96.69 210.06,96.54 C210.72,96.38 211.39,96 212.08,95.38 C210.69,91.45 209.74,87.65 209.22,84 C208.71,80.34 208.38,76.74 208.25,73.18 Z M251.66,34.56 C251.22,34.08 250.64,33.62 249.9,33.18 C249.17,32.74 248.37,32.45 247.52,32.33 C246.67,32.21 245.86,32.25 245.09,32.45 C244.32,32.66 243.71,33.13 243.27,33.87 C243.37,36.59 243.52,39.33 243.7,42.07 C243.88,44.82 243.79,47.2 243.43,49.22 C243.5,51.64 243.52,54.2 243.51,56.9 C243.5,59.6 243.47,62.33 243.43,65.11 C243.39,67.89 243.31,70.65 243.19,73.4 C243.07,76.15 242.93,78.75 242.78,81.19 C240.75,78.86 239.13,76.09 237.91,72.9 C236.69,69.71 235.56,66.39 234.54,62.94 C233.51,59.5 232.44,56.08 231.3,52.68 C230.17,49.29 228.68,46.26 226.84,43.6 C226.18,43.76 225.54,43.78 224.92,43.66 C224.3,43.55 223.68,43.43 223.06,43.32 C222.44,43.21 221.79,43.17 221.12,43.21 C220.44,43.25 219.72,43.51 218.94,43.99 C218.69,44.4 218.47,44.83 218.3,45.26 C218.13,45.7 217.87,46.09 217.54,46.44 C217.18,49.67 216.78,53.25 216.35,57.18 C215.92,61.11 215.68,65.08 215.64,69.11 C215.6,73.14 215.87,77.07 216.45,80.91 C217.03,84.75 218.18,88.16 219.91,91.14 C220.54,91.37 221.28,91.5 222.12,91.55 C222.96,91.6 223.78,91.54 224.6,91.36 C225.41,91.19 226.15,90.91 226.83,90.52 C227.5,90.14 227.95,89.62 228.18,88.99 C227.92,88.11 227.52,87.46 226.98,87.03 C226.43,86.6 226.01,86.03 225.69,85.31 C225.37,83.3 225.05,81.17 224.74,78.93 C224.43,76.69 224.19,74.42 224.03,72.13 C223.86,69.83 223.82,67.6 223.9,65.43 C223.98,63.26 224.28,61.27 224.82,59.45 C225.64,62.46 226.47,65.42 227.32,68.31 C228.17,71.21 229.14,73.95 230.26,76.55 C231.37,79.15 232.69,81.55 234.2,83.76 C235.72,85.97 237.59,87.81 239.81,89.28 C241.12,89.5 242.6,89.66 244.24,89.77 C245.88,89.87 247.53,89.6 249.19,88.94 C249.29,88.55 249.54,88.23 249.93,87.99 C250.31,87.75 250.64,87.43 250.89,87.02 C251.26,85.68 251.54,84.28 251.74,82.82 C251.94,81.35 251.87,79.88 251.54,78.4 C251.6,74.52 251.68,70.79 251.77,67.21 C251.86,63.63 251.92,60.07 251.95,56.54 C251.97,53.01 251.96,49.44 251.9,45.84 C251.84,42.27 251.76,38.5 251.66,34.56 Z M300.6,80.82 C299.99,79.84 299.44,78.95 298.94,78.16 C298.44,77.37 298.01,76.55 297.67,75.7 C297.32,74.85 297.07,73.91 296.9,72.87 C296.73,71.84 296.68,70.58 296.75,69.11 C297.45,66.19 298.22,63.37 299.06,60.67 C299.9,57.97 300.37,54.95 300.45,51.61 C298.97,49.44 297.25,48.23 295.27,47.98 C293.3,47.73 291.22,48.01 289.06,48.8 C286.89,49.59 284.75,50.66 282.65,52.01 C280.55,53.36 278.63,54.59 276.91,55.69 C277.39,57.66 278.33,59.05 279.72,59.85 C281.11,60.65 282.65,61.28 284.32,61.72 C284.94,61.48 285.4,61.1 285.7,60.58 C286,60.06 286.6,59.82 287.49,59.87 C285.92,64.28 283.39,68.08 279.89,71.26 C276.39,74.44 272.35,76.52 267.78,77.48 C267.49,77.11 267.07,76.96 266.51,77.03 C265.48,75.94 264.83,74.66 264.52,73.19 C264.22,71.73 264.13,70.13 264.24,68.41 C264.45,64.81 265.32,61.14 266.85,57.38 C268.38,53.62 270.14,50 272.15,46.51 C274.42,42.58 276.83,38.88 279.36,35.41 C281.89,31.94 284.5,29.23 287.17,27.28 C288.14,27.25 288.96,27.06 289.65,26.73 C290.34,26.4 290.71,25.83 290.78,25.01 C290.22,23.7 289.42,22.68 288.41,21.95 C287.39,21.22 286.28,20.57 285.07,19.98 C283.69,19.99 282.61,20.22 281.82,20.68 C281.03,21.14 280.17,21.55 279.24,21.91 C273.6,27.47 268.9,33.7 265.12,40.61 C261.35,47.52 258.3,55.09 255.98,63.33 C256.38,64.58 256.4,65.59 256.05,66.36 C255.7,67.13 255.52,68.17 255.52,69.47 C255.64,71.81 256.22,73.93 257.26,75.83 C258.3,77.73 259.65,79.35 261.31,80.7 C262.97,82.04 264.92,83.06 267.15,83.76 C269.38,84.46 271.7,84.75 274.11,84.62 C277.31,83.66 280.12,82.33 282.55,80.61 C284.97,78.9 287.23,76.98 289.32,74.86 C290.11,77.36 291.4,79.44 293.18,81.09 C294.96,82.74 297.23,83.27 299.99,82.7 C300.2,82.43 300.25,82.06 300.16,81.58 C300.05,81.13 300.2,80.87 300.6,80.82 Z" id="Shape"></path>
        </g>
    </g>
</svg>