<?xml version="1.0" encoding="UTF-8"?>
<svg width="1170px" height="668px" viewBox="0 0 1170 668" version="1.1" xmlns="http://www.w3.org/2000/svg" xmlns:xlink="http://www.w3.org/1999/xlink">
    <!-- Generator: Sketch 64 (93537) - https://sketch.com -->
    <title>pandelaw_logo</title>
    <desc>Created with Sketch.</desc>
    <g id="Page-1" stroke="none" stroke-width="1" fill="none" fill-rule="evenodd">
        <g id="pandelaw_logo" transform="translate(154.000000, 94.000000)" fill-rule="nonzero">
            <path d="M244.4,32.7 C222.2,12.4 193.6,2.3 158.6,2.3 L6.4,2.3 C2.2,2.3 0,4.3 0,8.3 L0,33.5 C0,37.5 2.2,39.4 6.4,39.4 L151.7,39.4 C175.4,39.4 195.1,45.7 210.8,58.2 C226.5,70.7 234.3,89.7 234.3,115 C234.3,163.8 206.6,188.2 151.3,188.2 L87,188.2 L87,49.6 L44,49.6 L44,320.1 L6.4,320.1 C2.1,320.1 0,322.1 0,326 L0,351.2 C0,355.2 2.2,357.1 6.4,357.1 L135.4,357.1 C139.4,357.1 141.3,355.1 141.3,351.2 L141.3,326 C141.3,322 139.3,320.1 135.4,320.1 L87,320.1 L87,223.2 L153.2,223.2 C192.8,223.2 223.4,213.7 245.2,194.8 C267,175.9 277.8,149.1 277.8,114.7 C277.8,80.3 266.7,53 244.4,32.7 Z" id="Path" fill="#E57200"></path>
            <path d="M855.6,265.8 L829,265.8 C824.7,265.8 822.6,267.8 822.6,271.7 L822.6,320.2 L673.7,320.2 L673.7,209.3 L630.7,209.3 L630.7,320.2 L593.1,320.2 C588.8,320.2 586.7,322.1 586.7,326.1 L586.7,351.3 C586.7,355.3 588.8,357.2 593.1,357.2 L855.6,357.2 C859.9,357.2 862,355.2 862,351.3 L862,271.7 C862.1,267.8 859.9,265.8 855.6,265.8 Z M855.6,2.3 L593.2,2.3 C588.9,2.3 586.8,4.3 586.8,8.2 L586.8,33.4 C586.8,37.4 588.9,39.3 593.2,39.3 L630.8,39.3 L630.8,150.7 L673.8,150.7 L673.8,39.4 L823,39.4 L823,87.8 C823,92.1 825,94.3 828.9,94.2 L855.6,94.2 C859.9,94.2 862,92 862,87.8 L862,8.2 C862.1,4.3 859.9,2.3 855.6,2.3 Z" id="Shape" fill="#E57200"></path>
            <path d="M801.2,160.1 L497.3,160.1 C494.6,160.1 492.5,162.3 492.5,164.9 C492.5,164.9 492.5,164.9 492.5,164.9 L492.5,187.1 C492.4,188.1 492.3,189 492.3,190 C492.3,210 490,226.6 486.3,240.5 C484.3,248.1 481.5,255.5 478.1,262.6 L465.2,244.3 L412.4,169.3 L405.9,160.5 L392.6,142.6 C388.6,137.7 385,133 381.8,128.4 C369.6,111 363.5,96 363.5,83.7 C363.5,68.1 367.6,56.1 375.9,47.9 C384.2,39.7 394.9,35.6 408.2,35.6 C414.4,35.5 420.5,36.6 426.3,38.9 C431.3,41 435.7,44.2 439.3,48.2 C444.4,53.8 447.9,60.6 449.5,68 C450,70.6 450.2,73.3 450.2,76 C450.2,76.6 450.3,77.1 450.4,77.7 C450.4,77.9 450.4,78 450.4,78.2 L450.5,78.2 C451.1,80.3 452.8,81.4 455.5,81.4 L482.5,81.4 C486,81.4 487.8,79.6 487.8,76.1 C487.8,74.1 487.7,72.2 487.6,70.3 L487.7,70.3 C487.5,66 487,61.6 486.1,57.4 C484.8,51 482.7,44.8 479.6,39.1 C475.7,31.7 470.4,25.2 464,20 C447.9,6.6 428.4,0 405.4,0 C382.4,0 363,7.2 347.4,21.5 C331.8,35.8 324,55.5 324,80.5 C324,105.5 335.2,131 357.6,157 C338.3,164.8 320.3,175.7 304.3,189.1 C290.2,200.8 280.3,216.9 276.2,234.8 C274.2,243.5 273.2,252.3 273.2,261.2 C273.2,287.2 283.2,310.3 303.3,330.5 C323.4,350.7 351.7,360.9 388.4,360.800728 C425.1,360.800728 455.1,348.6 478.4,324.3 L488.8,339.1 C497.7,351.3 505.6,357.4 512.5,357.4 L552.5,357.4 C556.8,357.4 558.9,355.4 558.9,351.5 L558.9,329.3 C558.9,325.3 556.7,320.4 552.5,320.4 L521.4,320.4 L501.6,295.8 C516.1,270.7 527,230.5 527.2,198.3 L801.1,198.3 C803.8,198.3 805.903281,196.1 805.903281,193.5 L805.903281,193.5 L805.903281,165.2 C806,162.2 803.8,160.1 801.2,160.1 L801.2,160.1 Z M390.2,324.7 C369.8,324.7 352.5,318.8 338.4,307 C336.7,305.6 335.1,304.1 333.6,302.6 C322.6,291.4 317.1,277.2 317.1,260.1 C317.1,253.3 318,246.6 319.8,240.1 C320.7,237 321.7,233.9 323,231 C331.6,213.6 350.3,198.6 379.3,186.1 L437.3,267.2 L457.3,295.2 C455.8,297 454.3,298.7 452.7,300.3 C436.7,316.5 415.8,324.7 390.2,324.7 L390.2,324.7 Z" id="Shape" fill="#C7C8C6"></path>
            <path d="M632.8,399.4 L642.8,399.4 C643.8,399.4 644.6,400.2 644.6,401.2 C644.6,401.2 644.6,401.2 644.6,401.2 L644.6,467 C644.6,468 645.4,468.8 646.4,468.8 L646.4,468.8 L683.8,468.8 C684.8,468.8 685.6,469.6 685.6,470.6 C685.6,470.6 685.6,470.6 685.6,470.6 L685.6,477.5 C685.6,478.5 684.8,479.3 683.8,479.3 L683.8,479.3 L632.9,479.3 C631.9,479.3 631.1,478.5 631.1,477.6 C631.1,477.6 631.1,477.6 631.1,477.6 L631.1,401.3 C631,400.1 631.8,399.3 632.8,399.4 C632.8,399.3 632.8,399.3 632.8,399.4 Z" id="Path" fill="#C7C8C6"></path>
            <path d="M723.6,399.4 L736.3,399.4 C737,399.4 737.7,399.9 738,400.5 L766.9,476.8 C767.2,477.7 766.8,478.7 765.9,479.1 C765.7,479.2 765.5,479.2 765.3,479.2 L755.2,479.2 C754.5,479.2 753.8,478.8 753.5,478.1 L746.4,459.8 C746.1,459.1 745.5,458.7 744.8,458.7 L715.1,458.7 C714.4,458.7 713.7,459.2 713.4,459.8 L706.3,478.1 C706,478.8 705.4,479.2 704.6,479.2 L694.4,479.2 C693.4,479.2 692.6,478.4 692.6,477.4 C692.6,477.2 692.6,477 692.7,476.8 L721.9,400.5 C722.3,399.8 722.9,399.4 723.6,399.4 Z M742.8,445.8 L731.5,416 C731.1,415.1 730.1,414.6 729.2,415 C728.7,415.2 728.4,415.5 728.2,416 L716.9,445.8 C716.6,446.7 717,447.7 717.9,448.1 C718.1,448.2 718.3,448.2 718.5,448.2 L741.2,448.2 C742.2,448.2 743,447.4 743,446.4 C743,446.2 742.9,446 742.8,445.8 Z" id="Shape" fill="#C7C8C6"></path>
            <path d="M767.9,399.4 L777.5,399.4 C778.3,399.4 779,400 779.2,400.8 L790.9,452.8 C791.1,453.8 792,454.4 793,454.1 C793.6,454 794.1,453.5 794.3,452.9 L807.4,409.4 C807.4,409.2 807.5,409.1 807.5,408.9 L807.5,401.3 C807.5,400.3 808.3,399.5 809.3,399.5 L817.2,399.5 C818,399.5 818.7,400 818.9,400.8 L833.6,452.8 C833.9,453.7 834.9,454.3 835.8,454 C836.4,453.8 836.9,453.3 837,452.7 L848.9,400.9 C849.1,400.1 849.8,399.5 850.6,399.5 L860.1,399.5 C861.1,399.5 861.9,400.3 861.9,401.3 C861.9,401.4 861.9,401.6 861.9,401.7 L844.2,478 C844,478.8 843.3,479.4 842.5,479.4 L832,479.4 C831.2,479.4 830.5,478.9 830.3,478.1 L816.3,429.2 C816,428.3 815,427.7 814.1,428 C813.5,428.2 813.1,428.6 812.9,429.2 L798.2,478 C798,478.7 797.3,479.3 796.5,479.2 L785.7,479.2 C784.9,479.2 784.2,478.6 784,477.8 L766.2,401.4 C766,400.4 766.6,399.5 767.5,399.3 C767.7,399.4 767.8,399.4 767.9,399.4 Z" id="Path" fill="#C7C8C6"></path>
        </g>
    </g>
</svg>