<?xml version="1.0" encoding="utf-8"?>
<!-- Generator: Adobe Illustrator 22.1.0, SVG Export Plug-In . SVG Version: 6.00 Build 0)  -->
<svg version="1.1" id="Layer_1" xmlns="http://www.w3.org/2000/svg" xmlns:xlink="http://www.w3.org/1999/xlink" x="0px" y="0px"
	 viewBox="0 0 862.1 479.2" style="enable-background:new 0 0 862.1 479.2;" xml:space="preserve">
<style type="text/css">
	.st0{fill:#E57200;}
	.st1{fill:#C7C8C6;}
</style>
<title>PAE_Logo_RGB_PAE_SVG0</title>
<g id="Layer_2_1_">
	<g id="Layer_1-2">
		<path class="st0" d="M244.4,32.7c-22.2-20.3-50.8-30.4-85.8-30.4H6.4C2.2,2.3,0,4.3,0,8.3v25.2c0,4,2.2,5.9,6.4,5.9h145.3
			c23.7,0,43.4,6.3,59.1,18.8s23.5,31.5,23.5,56.8c0,48.8-27.7,73.2-83,73.2H87V49.6H44v270.5H6.4c-4.3,0-6.4,2-6.4,5.9v25.2
			c0,4,2.2,5.9,6.4,5.9h129c4,0,5.9-2,5.9-5.9v-25.2c0-4-2-5.9-5.9-5.9H87v-96.9h66.2c39.6,0,70.2-9.5,92-28.4s32.6-45.7,32.6-80.1
			C277.8,80.3,266.7,53,244.4,32.7z"/>
		<path class="st0" d="M855.6,265.8H829c-4.3,0-6.4,2-6.4,5.9v48.5H673.7V209.3h-43v110.9h-37.6c-4.3,0-6.4,1.9-6.4,5.9v25.2
			c0,4,2.1,5.9,6.4,5.9h262.5c4.3,0,6.4-2,6.4-5.9v-79.6C862.1,267.8,859.9,265.8,855.6,265.8z M855.6,2.3H593.2
			c-4.3,0-6.4,2-6.4,5.9v25.2c0,4,2.1,5.9,6.4,5.9h37.6v111.4h43V39.4H823v48.4c0,4.3,2,6.5,5.9,6.4h26.7c4.3,0,6.4-2.2,6.4-6.4V8.2
			C862.1,4.3,859.9,2.3,855.6,2.3z"/>
		<path class="st1" d="M801.2,160.1H497.3c-2.7,0-4.8,2.2-4.8,4.8c0,0,0,0,0,0v22.2c-0.1,1-0.2,1.9-0.2,2.9c0,20-2.3,36.6-6,50.5
			c-2,7.6-4.8,15-8.2,22.1l-12.9-18.3l-52.8-75l-6.5-8.8l-13.3-17.9c-4-4.9-7.6-9.6-10.8-14.2C369.6,111,363.5,96,363.5,83.7
			c0-15.6,4.1-27.6,12.4-35.8s19-12.3,32.3-12.3c6.2-0.1,12.3,1,18.1,3.3c5,2.1,9.4,5.3,13,9.3c5.1,5.6,8.6,12.4,10.2,19.8
			c0.5,2.6,0.7,5.3,0.7,8c0,0.6,0.1,1.1,0.2,1.7c0,0.2,0,0.3,0,0.5h0.1c0.6,2.1,2.3,3.2,5,3.2h27c3.5,0,5.3-1.8,5.3-5.3
			c0-2-0.1-3.9-0.2-5.8h0.1c-0.2-4.3-0.7-8.7-1.6-12.9c-1.3-6.4-3.4-12.6-6.5-18.3c-3.9-7.4-9.2-13.9-15.6-19.1
			C447.9,6.6,428.4,0,405.4,0c-23,0-42.4,7.2-58,21.5c-15.6,14.3-23.4,34-23.4,59s11.2,50.5,33.6,76.5
			c-19.3,7.8-37.3,18.7-53.3,32.1c-14.1,11.7-24,27.8-28.1,45.7c-2,8.7-3,17.5-3,26.4c0,26,10,49.1,30.1,69.3s48.4,30.4,85.1,30.3
			c36.7,0,66.7-12.2,90-36.5l10.4,14.8c8.9,12.2,16.8,18.3,23.7,18.3h40c4.3,0,6.4-2,6.4-5.9v-22.2c0-4-2.2-8.9-6.4-8.9h-31.1
			l-19.8-24.6c14.5-25.1,25.4-65.3,25.6-97.5h273.9c2.7,0,4.8-2.2,4.8-4.8v0v-28.3C806,162.2,803.8,160.1,801.2,160.1L801.2,160.1z
			 M390.2,324.7c-20.4,0-37.7-5.9-51.8-17.7c-1.7-1.4-3.3-2.9-4.8-4.4c-11-11.2-16.5-25.4-16.5-42.5c0-6.8,0.9-13.5,2.7-20
			c0.9-3.1,1.9-6.2,3.2-9.1c8.6-17.4,27.3-32.4,56.3-44.9l58,81.1l20,28c-1.5,1.8-3,3.5-4.6,5.1
			C436.7,316.5,415.8,324.7,390.2,324.7L390.2,324.7z"/>
		<path class="st1" d="M632.8,399.4h10c1,0,1.8,0.8,1.8,1.8c0,0,0,0,0,0V467c0,1,0.8,1.8,1.8,1.8l0,0h37.4c1,0,1.8,0.8,1.8,1.8
			c0,0,0,0,0,0v6.9c0,1-0.8,1.8-1.8,1.8l0,0h-50.9c-1,0-1.8-0.8-1.8-1.7c0,0,0,0,0,0v-76.3C631,400.1,631.8,399.3,632.8,399.4
			C632.8,399.3,632.8,399.3,632.8,399.4z"/>
		<path class="st1" d="M723.6,399.4h12.7c0.7,0,1.4,0.5,1.7,1.1l28.9,76.3c0.3,0.9-0.1,1.9-1,2.3c-0.2,0.1-0.4,0.1-0.6,0.1h-10.1
			c-0.7,0-1.4-0.4-1.7-1.1l-7.1-18.3c-0.3-0.7-0.9-1.1-1.6-1.1h-29.7c-0.7,0-1.4,0.5-1.7,1.1l-7.1,18.3c-0.3,0.7-0.9,1.1-1.7,1.1
			h-10.2c-1,0-1.8-0.8-1.8-1.8c0-0.2,0-0.4,0.1-0.6l29.2-76.3C722.3,399.8,722.9,399.4,723.6,399.4z M742.8,445.8L731.5,416
			c-0.4-0.9-1.4-1.4-2.3-1c-0.5,0.2-0.8,0.5-1,1l-11.3,29.8c-0.3,0.9,0.1,1.9,1,2.3c0.2,0.1,0.4,0.1,0.6,0.1h22.7
			c1,0,1.8-0.8,1.8-1.8C743,446.2,742.9,446,742.8,445.8z"/>
		<path class="st1" d="M767.9,399.4h9.6c0.8,0,1.5,0.6,1.7,1.4l11.7,52c0.2,1,1.1,1.6,2.1,1.3c0.6-0.1,1.1-0.6,1.3-1.2l13.1-43.5
			c0-0.2,0.1-0.3,0.1-0.5v-7.6c0-1,0.8-1.8,1.8-1.8h7.9c0.8,0,1.5,0.5,1.7,1.3l14.7,52c0.3,0.9,1.3,1.5,2.2,1.2
			c0.6-0.2,1.1-0.7,1.2-1.3l11.9-51.8c0.2-0.8,0.9-1.4,1.7-1.4h9.5c1,0,1.8,0.8,1.8,1.8c0,0.1,0,0.3,0,0.4l-17.7,76.3
			c-0.2,0.8-0.9,1.4-1.7,1.4h-10.5c-0.8,0-1.5-0.5-1.7-1.3l-14-48.9c-0.3-0.9-1.3-1.5-2.2-1.2c-0.6,0.2-1,0.6-1.2,1.2L798.2,478
			c-0.2,0.7-0.9,1.3-1.7,1.2h-10.8c-0.8,0-1.5-0.6-1.7-1.4l-17.8-76.4c-0.2-1,0.4-1.9,1.3-2.1C767.7,399.4,767.8,399.4,767.9,399.4z
			"/>
	</g>
</g>
</svg>
