<?xml version="1.0" encoding="utf-8"?>
<!-- Generator: Adobe Illustrator 21.1.0, SVG Export Plug-In . SVG Version: 6.00 Build 0)  -->
<svg version="1.2" baseProfile="tiny" id="Layer_1" xmlns="http://www.w3.org/2000/svg" xmlns:xlink="http://www.w3.org/1999/xlink"
	 x="0px" y="0px" viewBox="0 0 621.5 271.1" xml:space="preserve">
<g id="Layer_1_1_">
	<path fill="#FFFFFF" d="M80.3,177.4c-0.1,9.7-3.7,18-10.8,24.9s-16.8,10.5-29.2,10.8c-8.6-0.2-16.3-2.2-23.2-6
		C10.3,203.3,4.6,198.6,0,193l10.6-11.7c2.9,3.5,7,7,12.1,10.5s11.6,5.3,19.5,5.6c5.1,0,9.7-1.6,13.7-4.9c4-3.2,6.2-8.1,6.4-14.5
		c0.1-4.6-2.1-9-6.7-13.2c-4.6-4.2-12.1-9-22.7-14.6c-8-4.2-14.6-9-19.8-14.3c-5.3-5.3-8-11.8-8.2-19.4c0.3-10.5,4-18.4,11-23.8
		c7-5.4,15.4-8,25.2-8.1c6.3,0.1,12.1,1.3,17.5,3.7s10.4,5.4,14.9,9.1l-7.9,13.1c-8.2-6.3-16.6-9.5-25.3-9.8
		c-3.9-0.1-7.8,1-11.5,3.2s-5.7,5.7-6,10.7c0.1,5.1,2.2,9,6.2,11.8s9.1,5.8,15.3,9.1C54.8,141,63.4,147,70,153.4
		C76.7,159.8,80.1,167.8,80.3,177.4"/>
	<polyline fill="#FFFFFF" points="120.1,209 100.9,209 153.3,88.7 163.5,88.7 216.2,209 197.2,209 158.4,120.8 120.1,209 	"/>
	<polyline fill="#FFFFFF" points="262.9,245 244.9,269.2 244.9,88.7 262.9,88.7 262.9,245 	"/>
	<polyline fill="#FFFFFF" points="389.1,209 309.5,209 309.5,88.7 382.3,88.7 382.3,104.5 327.5,104.5 327.5,137.9 378.7,137.9 
		378.7,153.6 327.5,153.6 327.5,193.2 389.1,193.2 389.1,209 	"/>
	<polyline fill="#FFFFFF" points="519,209 501,209 501,104.5 441.1,104.5 441.1,209 423.2,209 423.2,88.7 519,88.7 519,209 	"/>
	<polyline fill="#FFFFFF" points="267.5,56.1 253.9,69.7 240.3,56.1 253.9,42.5 267.5,56.1 	"/>
	<polyline fill="#FFFFFF" points="267.5,13.6 253.9,27.2 240.3,13.6 253.9,0 267.5,13.6 	"/>
	<polyline fill="#FFFFFF" points="245.6,35.1 232,48.7 218.4,35.1 232,21.5 245.6,35.1 	"/>
	<path fill="#FFFFFF" d="M598.6,269.9h21.8v-4.6h-16.9v-32h-5v36.6 M558.2,256.5l6.9-16.9h0.1l6.8,16.9H558.2z M547,269.9h5.8
		l3.6-9.1h17.5l3.7,9.1h5.8l-15.7-36.7h-4.5L547,269.9z M519.1,249.4v4.7h8.1v10.2c-2.2,1.2-5.5,1.9-9,1.9
		c-8.1,0-14.3-6.3-14.3-14.6c0-8,5.4-14.6,13.9-14.6c3.7,0,7.2,1,10.2,3.9l3.5-3.8c-2.8-3-6.9-4.8-13.7-4.8
		c-11.2,0-19.1,8.4-19.1,19.3c0,10.4,7.2,19.3,19.7,19.3c4.5,0,10.3-1.2,13.9-3.4v-18.1L519.1,249.4L519.1,249.4z M458.9,269.9h24.6
		v-4.6h-19.7v-11.8h17.4v-4.7h-17.4v-11h18.7v-4.7h-23.7v36.8H458.9z M421.6,269.9h21.8v-4.6h-16.9v-32h-5v36.6H421.6z"/>
</g>
<g id="Layer_2">
</g>
</svg>
