<?xml version="1.0" encoding="UTF-8"?>
<svg width="379px" height="99px" viewBox="0 0 379 99" version="1.1" xmlns="http://www.w3.org/2000/svg" xmlns:xlink="http://www.w3.org/1999/xlink">
    <!-- Generator: Sketch 64 (93537) - https://sketch.com -->
    <title>Group</title>
    <desc>Created with Sketch.</desc>
    <g id="Page-1" stroke="none" stroke-width="1" fill="none" fill-rule="evenodd">
        <g id="OHS044_LOGO-LANDSCAPE_RGB_2020" transform="translate(-23.000000, -24.000000)">
            <g id="Group" transform="translate(23.417000, 24.917000)">
                <path d="M75.063,15.786 C75.063,12.786 72.847,10.207 68.848,10.207 L68.78,10.207 C64.939,10.207 62.205,12.764 62.205,15.786 L62.205,52.423 C62.205,55.446 64.76,58.268 68.814,58.268 C72.831,58.268 75.063,55.446 75.063,52.423 L75.063,15.786 Z M84.711,52.423 C84.711,61.787 78.064,67.791 68.814,67.814 C59.586,67.814 52.557,61.809 52.557,52.423 L52.557,15.786 C52.557,6.422 59.586,0.695 68.814,0.695 C78.064,0.695 84.711,6.422 84.711,15.786 L84.711,52.423 L84.711,52.423 Z" id="Fill-1" fill="#20B0A1"></path>
                <path d="M124.736,1.84 C124.736,1.024 125.404,0.356 126.22,0.356 L151.523,0.356 C152.339,0.356 153.006,1.024 153.006,1.84 L153.006,8.385 C153.006,9.201 152.339,9.869 151.523,9.869 L135.868,9.869 C135.052,9.869 134.385,10.537 134.385,11.352 L134.385,27.545 C134.385,28.361 135.052,29.029 135.868,29.029 L151.146,29.029 C151.962,29.029 152.629,29.696 152.629,30.512 L152.629,37.091 C152.629,37.907 151.962,38.574 151.146,38.574 L135.868,38.574 C135.052,38.574 134.385,39.242 134.385,40.058 L134.385,56.251 C134.385,57.067 135.052,57.734 135.868,57.734 L151.523,57.734 C152.339,57.734 153.006,58.402 153.006,59.218 L153.006,65.763 C153.006,66.579 152.339,67.247 151.523,67.247 L126.22,67.247 C125.404,67.247 124.736,66.579 124.736,65.763 L124.736,1.84" id="Fill-2" fill="#20B0A1"></path>
                <path d="M350.175,1.84 C350.175,1.024 350.843,0.356 351.659,0.356 L376.963,0.356 C377.778,0.356 378.446,1.024 378.446,1.84 L378.446,8.385 C378.446,9.201 377.778,9.869 376.963,9.869 L361.307,9.869 C360.492,9.869 359.824,10.537 359.824,11.352 L359.824,27.545 C359.824,28.361 360.492,29.029 361.307,29.029 L376.585,29.029 C377.4,29.029 378.068,29.696 378.068,30.512 L378.068,37.091 C378.068,37.907 377.4,38.574 376.585,38.574 L361.307,38.574 C360.492,38.574 359.824,39.242 359.824,40.058 L359.824,56.251 C359.824,57.067 360.492,57.734 361.307,57.734 L376.963,57.734 C377.778,57.734 378.446,58.402 378.446,59.218 L378.446,65.763 C378.446,66.579 377.778,67.247 376.963,67.247 L351.659,67.247 C350.843,67.247 350.175,66.579 350.175,65.763 L350.175,1.84" id="Fill-3" fill="#20B0A1"></path>
                <path d="M158.037,1.84 C158.037,1.024 158.705,0.356 159.521,0.356 L166.202,0.356 C167.018,0.356 167.905,0.987 168.175,1.757 L180.759,37.754 C181.028,38.524 181.249,38.487 181.249,37.671 L181.249,1.84 C181.249,1.024 181.916,0.356 182.732,0.356 L188.697,0.356 C189.513,0.356 190.181,1.024 190.181,1.84 L190.181,65.763 C190.181,66.579 189.513,67.247 188.697,67.247 L182.016,67.247 C181.2,67.247 180.311,66.617 180.04,65.847 L167.803,31.076 C167.532,30.306 167.311,30.344 167.311,31.16 L167.311,65.763 C167.311,66.579 166.643,67.247 165.827,67.247 L159.521,67.247 C158.705,67.247 158.037,66.579 158.037,65.763 L158.037,1.84" id="Fill-4" fill="#20B0A1"></path>
                <path d="M205.621,1.84 C205.621,1.024 206.289,0.356 207.105,0.356 L213.786,0.356 C214.602,0.356 215.269,1.024 215.269,1.84 L215.269,27.545 C215.269,28.361 215.937,29.029 216.753,29.029 L225.305,29.029 C226.121,29.029 226.789,28.361 226.789,27.545 L226.789,1.84 C226.789,1.024 227.457,0.356 228.272,0.356 L234.953,0.356 C235.769,0.356 236.436,1.024 236.436,1.84 L236.436,65.763 C236.436,66.579 235.769,67.247 234.953,67.247 L228.272,67.247 C227.457,67.247 226.789,66.579 226.789,65.763 L226.789,40.058 C226.789,39.242 226.121,38.574 225.305,38.574 L216.753,38.574 C215.937,38.574 215.269,39.242 215.269,40.058 L215.269,65.763 C215.269,66.579 214.602,67.247 213.786,67.247 L207.105,67.247 C206.289,67.247 205.621,66.579 205.621,65.763 L205.621,1.84" id="Fill-5" fill="#20B0A1"></path>
                <path d="M308.949,1.84 C308.949,1.024 308.281,0.356 307.465,0.356 L300.785,0.356 C299.968,0.356 299.301,1.024 299.301,1.84 L299.301,52.862 C299.301,55.885 296.603,58.094 293.786,58.094 C290.99,58.094 288.224,55.885 288.224,52.862 L288.224,1.84 C288.224,1.024 287.556,0.356 286.741,0.356 L280.059,0.356 C279.244,0.356 278.576,1.024 278.576,1.84 L278.576,52.862 C278.576,62.248 284.557,67.64 293.786,67.64 C303.036,67.617 308.949,62.226 308.949,52.862 L308.949,1.84" id="Fill-6" fill="#20B0A1"></path>
                <path d="M111.244,22.856 C111.244,25.563 109.969,28.463 106.587,28.756 C106.131,28.922 103.194,29.011 101.656,29.026 L101.656,29.018 C101.11,29.024 100.575,29.029 100.225,29.029 C99.616,29.029 99.117,28.361 99.117,27.545 L99.117,12.257 C99.117,11.441 99.785,10.773 100.601,10.773 L105.716,10.773 C108.512,10.773 111.244,13.238 111.244,16.283 L111.244,22.856 Z M105.62,0.356 L90.952,0.356 C90.136,0.356 89.469,1.024 89.469,1.84 L89.469,65.763 C89.469,66.579 90.136,67.247 90.952,67.247 L97.633,67.247 C98.449,67.247 99.117,66.579 99.117,65.763 L99.117,40.058 C99.117,39.242 99.47,38.574 99.901,38.574 C100.188,38.574 100.737,38.572 101.312,38.569 L101.312,38.573 C104.307,38.561 109.381,38.472 110.743,38.033 C116.902,36.032 120.893,28.509 120.893,21.6 L120.893,17.153 C120.893,7.789 114.189,0.38 105.62,0.356 L105.62,0.356 Z" id="Fill-7" fill="#20B0A1"></path>
                <path d="M330.208,0 C320.98,0 314.031,5.995 314.031,15.359 L314.031,21.47 C314.031,27.63 317,31.955 323.023,36.251 C329.046,40.569 336.563,41.064 336.563,46.861 L336.563,52.077 C336.563,55.1 332.928,57.769 330.132,57.769 C327.314,57.769 323.461,55.791 323.461,52.768 L323.461,44.188 C323.461,43.372 322.793,42.705 321.976,42.705 L315.296,42.705 C314.479,42.705 313.812,43.372 313.812,44.188 L313.812,52.768 C313.812,62.132 320.881,67.292 330.132,67.316 C339.36,67.316 346.212,61.463 346.212,52.077 L346.212,45.986 C346.212,39.985 341.241,33.2 334.29,30.672 C327.07,28.047 323.679,24.244 323.679,21.265 L323.679,15.359 C323.679,12.336 326.632,9.512 330.173,9.512 L330.242,9.512 C334.18,9.512 336.699,12.359 336.699,15.359 L336.699,23.422 C336.699,24.238 337.367,24.906 338.182,24.906 L344.864,24.906 C345.68,24.906 346.347,24.238 346.347,23.422 L346.347,15.359 C346.347,5.995 339.459,0 330.208,0" id="Fill-8" fill="#20B0A1"></path>
                <path d="M263.837,57.278 L252.318,57.278 L254.822,22.919 C252.465,21.773 250.836,19.362 250.836,16.564 C250.836,12.659 254.001,9.493 257.906,9.493 C261.811,9.493 264.977,12.659 264.977,16.564 C264.977,19.19 263.542,21.477 261.417,22.696 L263.837,57.278 Z M257.929,0.695 C248.702,0.695 241.673,6.422 241.673,15.786 L241.673,52.423 C241.673,61.809 248.702,67.814 257.929,67.814 C267.179,67.791 273.826,61.787 273.826,52.423 L273.826,15.786 C273.826,6.422 267.179,0.695 257.929,0.695 L257.929,0.695 Z" id="Fill-9" fill="#1C6892"></path>
                <path d="M41.167,41.038 C41.167,41.819 40.527,42.458 39.746,42.458 L1.421,42.458 C0.639,42.458 0,41.819 0,41.038 L0,37.161 C0,36.379 0.639,35.74 1.421,35.74 L33.882,35.74 C34.663,35.74 35.302,35.101 35.302,34.319 L35.302,26.454 C35.302,25.672 35.942,25.033 36.723,25.033 L39.746,25.033 C40.527,25.033 41.167,25.672 41.167,26.454 L41.167,41.038" id="Fill-10" fill="#1C6892"></path>
                <path d="M30.707,8.122 C32.558,8.122 35.302,9.097 35.302,11.043 L35.302,13.262 L35.293,13.262 C35.299,13.374 35.302,13.482 35.302,13.581 L35.302,13.684 C35.302,14.465 34.663,15.104 33.882,15.104 L7.261,15.104 C6.479,15.104 5.84,14.465 5.84,13.684 L5.84,13.581 C5.84,13.482 5.843,13.374 5.849,13.262 L5.84,13.262 L5.84,11.043 C5.84,9.097 8.178,8.122 10.062,8.122 L30.707,8.122 Z M0,10.355 L0,20.402 C0,21.184 0.639,21.823 1.421,21.823 L39.746,21.823 C40.527,21.823 41.167,21.184 41.167,20.402 L41.167,10.782 C41.151,4.53 36.451,1.404 30.707,1.404 L10.062,1.404 C4.285,1.404 0,4.388 0,10.355 L0,10.355 Z" id="Fill-11" fill="#1C6892"></path>
                <path d="M32.693,53.226 C34.589,53.226 36.36,54.626 36.36,57.146 C36.36,59.69 34.589,61.292 32.693,61.292 L9.71,61.292 C7.814,61.292 6.211,59.578 6.211,57.168 L6.211,57.125 C6.211,54.616 7.828,53.226 9.71,53.226 L32.693,53.226 Z M32.693,47.174 L9.71,47.174 C3.836,47.174 0.243,51.344 0.243,57.146 C0.243,62.935 3.836,67.345 9.71,67.345 L32.693,67.345 C37.82,67.345 41.336,64.001 42.16,59.315 L42.162,59.315 C44.789,59.268 46.538,58.278 47.409,56.347 C47.989,55.078 48.321,52.894 48.405,49.814 L48.431,49.814 C48.44,49.663 48.444,49.576 48.444,49.576 C48.484,48.795 47.877,48.157 47.096,48.157 L44.976,48.157 C44.194,48.157 43.514,48.795 43.463,49.575 L43.433,49.814 L43.442,49.814 C43.34,53.327 42.933,55.21 42.225,55.477 C41.556,50.563 37.985,47.174 32.693,47.174 L32.693,47.174 Z" id="Fill-12" fill="#1C6892"></path>
                <path d="M336.854,78.628 C336.854,77.533 336.045,76.59 334.584,76.59 L334.558,76.59 C333.155,76.59 332.157,77.524 332.157,78.628 L332.157,92.013 C332.157,93.117 333.09,94.148 334.571,94.148 C336.039,94.148 336.854,93.117 336.854,92.013 L336.854,78.628 Z M340.379,92.013 C340.379,95.433 337.951,97.627 334.571,97.635 C331.2,97.635 328.632,95.442 328.632,92.013 L328.632,78.628 C328.632,75.207 331.2,73.116 334.571,73.116 C337.951,73.116 340.379,75.207 340.379,78.628 L340.379,92.013 L340.379,92.013 Z" id="Fill-13" fill="#1C6892"></path>
                <path d="M294.052,73.741 C294.052,73.443 294.297,73.199 294.594,73.199 L303.838,73.199 C304.136,73.199 304.38,73.443 304.38,73.741 L304.38,76.132 C304.38,76.43 304.136,76.674 303.838,76.674 L298.119,76.674 C297.821,76.674 297.577,76.918 297.577,77.216 L297.577,83.132 C297.577,83.43 297.821,83.674 298.119,83.674 L303.7,83.674 C303.998,83.674 304.242,83.917 304.242,84.216 L304.242,86.619 C304.242,86.917 303.998,87.161 303.7,87.161 L298.119,87.161 C297.821,87.161 297.577,87.405 297.577,87.703 L297.577,93.618 C297.577,93.916 297.821,94.16 298.119,94.16 L303.838,94.16 C304.136,94.16 304.38,94.404 304.38,94.702 L304.38,97.093 C304.38,97.391 304.136,97.635 303.838,97.635 L294.594,97.635 C294.297,97.635 294.052,97.391 294.052,97.093 L294.052,73.741" id="Fill-14" fill="#1C6892"></path>
                <path d="M233.407,73.741 C233.407,73.443 233.651,73.199 233.949,73.199 L236.389,73.199 C236.687,73.199 237.012,73.429 237.11,73.711 L241.708,86.861 C241.805,87.142 241.886,87.129 241.886,86.83 L241.886,73.741 C241.886,73.443 242.131,73.199 242.428,73.199 L244.607,73.199 C244.906,73.199 245.149,73.443 245.149,73.741 L245.149,97.093 C245.149,97.391 244.906,97.635 244.607,97.635 L242.167,97.635 C241.869,97.635 241.544,97.405 241.445,97.124 L236.974,84.421 C236.876,84.14 236.795,84.154 236.795,84.452 L236.795,97.093 C236.795,97.391 236.55,97.635 236.253,97.635 L233.949,97.635 C233.651,97.635 233.407,97.391 233.407,97.093 L233.407,73.741" id="Fill-15" fill="#1C6892"></path>
                <path d="M280.214,73.741 C280.214,73.443 280.458,73.199 280.756,73.199 L283.196,73.199 C283.494,73.199 283.818,73.429 283.917,73.711 L288.514,86.861 C288.612,87.142 288.693,87.129 288.693,86.83 L288.693,73.741 C288.693,73.443 288.937,73.199 289.235,73.199 L291.414,73.199 C291.713,73.199 291.956,73.443 291.956,73.741 L291.956,97.093 C291.956,97.391 291.713,97.635 291.414,97.635 L288.973,97.635 C288.675,97.635 288.35,97.405 288.252,97.124 L283.781,84.421 C283.682,84.14 283.601,84.154 283.601,84.452 L283.601,97.093 C283.601,97.391 283.357,97.635 283.059,97.635 L280.756,97.635 C280.458,97.635 280.214,97.391 280.214,97.093 L280.214,73.741" id="Fill-16" fill="#1C6892"></path>
                <path d="M261.228,73.741 C261.228,73.443 261.471,73.199 261.77,73.199 L264.211,73.199 C264.508,73.199 264.753,73.443 264.753,73.741 L264.753,83.132 C264.753,83.43 264.997,83.674 265.295,83.674 L268.419,83.674 C268.716,83.674 268.961,83.43 268.961,83.132 L268.961,73.741 C268.961,73.443 269.205,73.199 269.503,73.199 L271.943,73.199 C272.241,73.199 272.485,73.443 272.485,73.741 L272.485,97.093 C272.485,97.391 272.241,97.635 271.943,97.635 L269.503,97.635 C269.205,97.635 268.961,97.391 268.961,97.093 L268.961,87.703 C268.961,87.405 268.716,87.161 268.419,87.161 L265.295,87.161 C264.997,87.161 264.753,87.405 264.753,87.703 L264.753,97.093 C264.753,97.391 264.508,97.635 264.211,97.635 L261.77,97.635 C261.471,97.635 261.228,97.391 261.228,97.093 L261.228,73.741" id="Fill-17" fill="#1C6892"></path>
                <path d="M231.31,73.598 C231.31,73.299 231.067,73.056 230.768,73.056 L228.328,73.056 C228.03,73.056 227.786,73.299 227.786,73.598 L227.786,92.237 C227.786,93.341 226.8,94.148 225.771,94.148 C224.75,94.148 223.739,93.341 223.739,92.237 L223.739,73.598 C223.739,73.299 223.495,73.056 223.197,73.056 L220.756,73.056 C220.459,73.056 220.215,73.299 220.215,73.598 L220.215,92.237 C220.215,95.665 222.4,97.635 225.771,97.635 C229.15,97.627 231.31,95.658 231.31,92.237 L231.31,73.598" id="Fill-18" fill="#1C6892"></path>
                <path d="M212.222,73.043 C208.851,73.043 206.312,75.234 206.312,78.654 L206.312,80.887 C206.312,83.137 207.397,84.717 209.597,86.286 C211.798,87.864 214.544,88.045 214.544,90.162 L214.544,92.068 C214.544,93.172 213.216,94.148 212.195,94.148 C211.165,94.148 209.757,93.425 209.757,92.321 L209.757,89.186 C209.757,88.888 209.513,88.644 209.215,88.644 L206.775,88.644 C206.476,88.644 206.233,88.888 206.233,89.186 L206.233,92.321 C206.233,95.742 208.815,97.627 212.195,97.635 C215.566,97.635 218.069,95.497 218.069,92.068 L218.069,89.843 C218.069,87.651 216.253,85.172 213.713,84.249 C211.076,83.289 209.837,81.9 209.837,80.812 L209.837,78.654 C209.837,77.55 210.916,76.518 212.21,76.518 L212.235,76.518 C213.673,76.518 214.593,77.558 214.593,78.654 L214.593,81.6 C214.593,81.898 214.838,82.142 215.135,82.142 L217.576,82.142 C217.875,82.142 218.118,81.898 218.118,81.6 L218.118,78.654 C218.118,75.234 215.602,73.043 212.222,73.043" id="Fill-19" fill="#1C6892"></path>
                <path d="M253.235,73.043 C249.864,73.043 247.326,75.234 247.326,78.654 L247.326,80.887 C247.326,83.137 248.41,84.717 250.611,86.286 C252.811,87.864 255.557,88.045 255.557,90.162 L255.557,92.068 C255.557,93.172 254.229,94.148 253.208,94.148 C252.178,94.148 250.77,93.425 250.77,92.321 L250.77,89.186 C250.77,88.888 250.527,88.644 250.228,88.644 L247.788,88.644 C247.49,88.644 247.246,88.888 247.246,89.186 L247.246,92.321 C247.246,95.742 249.829,97.627 253.208,97.635 C256.579,97.635 259.082,95.497 259.082,92.068 L259.082,89.843 C259.082,87.651 257.266,85.172 254.726,84.249 C252.09,83.289 250.85,81.9 250.85,80.812 L250.85,78.654 C250.85,77.55 251.929,76.518 253.223,76.518 L253.248,76.518 C254.686,76.518 255.607,77.558 255.607,78.654 L255.607,81.6 C255.607,81.898 255.85,82.142 256.149,82.142 L258.59,82.142 C258.887,82.142 259.131,81.898 259.131,81.6 L259.131,78.654 C259.131,75.234 256.615,73.043 253.235,73.043" id="Fill-20" fill="#1C6892"></path>
                <path d="M360.647,73.043 C357.276,73.043 354.737,75.234 354.737,78.654 L354.737,80.887 C354.737,83.137 355.822,84.717 358.022,86.286 C360.222,87.864 362.968,88.045 362.968,90.162 L362.968,92.068 C362.968,93.172 361.64,94.148 360.62,94.148 C359.59,94.148 358.182,93.425 358.182,92.321 L358.182,89.186 C358.182,88.888 357.938,88.644 357.64,88.644 L355.199,88.644 C354.901,88.644 354.657,88.888 354.657,89.186 L354.657,92.321 C354.657,95.742 357.24,97.627 360.62,97.635 C363.99,97.635 366.494,95.497 366.494,92.068 L366.494,89.843 C366.494,87.651 364.677,85.172 362.137,84.249 C359.501,83.289 358.261,81.9 358.261,80.812 L358.261,78.654 C358.261,77.55 359.34,76.518 360.634,76.518 L360.659,76.518 C362.098,76.518 363.018,77.558 363.018,78.654 L363.018,81.6 C363.018,81.898 363.262,82.142 363.56,82.142 L366.001,82.142 C366.299,82.142 366.543,81.898 366.543,81.6 L366.543,78.654 C366.543,75.234 364.026,73.043 360.647,73.043" id="Fill-21" fill="#1C6892"></path>
                <path d="M274.582,73.668 C274.582,73.369 274.827,73.124 275.126,73.124 L277.573,73.124 C277.872,73.124 278.117,73.369 278.117,73.668 L278.117,97.091 C278.117,97.39 277.872,97.635 277.573,97.635 L275.126,97.635 C274.827,97.635 274.582,97.39 274.582,97.091 L274.582,73.668" id="Fill-22" fill="#1C6892"></path>
                <path d="M348.453,89.029 C348.749,89.029 348.96,88.788 348.921,88.495 L347.726,79.474 C347.688,79.18 347.624,79.18 347.586,79.474 L346.391,88.495 C346.352,88.788 346.562,89.029 346.859,89.029 L348.453,89.029 Z M352.444,88.497 C352.49,88.789 352.559,89.269 352.598,89.563 L353.595,97.101 C353.633,97.395 353.423,97.635 353.127,97.635 L350.668,97.635 C350.372,97.635 350.097,97.395 350.058,97.101 L349.519,93.025 C349.481,92.732 349.207,92.491 348.91,92.491 L346.414,92.491 C346.118,92.491 345.843,92.731 345.803,93.025 L345.255,97.101 C345.215,97.395 344.94,97.635 344.644,97.635 L342.198,97.635 C341.901,97.635 341.691,97.395 341.73,97.101 L342.725,89.6 C342.764,89.307 342.834,88.827 342.881,88.534 L345.185,73.908 C345.232,73.615 345.512,73.375 345.808,73.375 L349.528,73.375 C349.824,73.375 350.104,73.615 350.15,73.908 L352.444,88.497 L352.444,88.497 Z" id="Fill-23" fill="#1C6892"></path>
                <path d="M377.403,73.375 C377.7,73.375 377.942,73.618 377.942,73.914 L377.942,76.286 C377.942,76.583 377.7,76.825 377.403,76.825 L375.204,76.825 C374.908,76.825 374.666,77.068 374.666,77.364 L374.666,97.097 C374.666,97.393 374.423,97.635 374.127,97.635 L371.705,97.635 C371.409,97.635 371.166,97.393 371.166,97.097 L371.166,77.364 C371.166,77.068 370.923,76.825 370.628,76.825 L368.428,76.825 C368.131,76.825 367.889,76.583 367.889,76.286 L367.889,73.914 C367.889,73.618 368.131,73.375 368.428,73.375 L377.403,73.375" id="Fill-24" fill="#1C6892"></path>
                <path d="M323.472,92.013 C323.472,93.117 322.657,94.148 321.189,94.148 C319.709,94.148 318.775,93.117 318.775,92.013 L318.775,78.628 C318.775,77.524 319.773,76.59 321.176,76.59 L321.202,76.59 C322.663,76.59 323.472,77.533 323.472,78.628 L323.472,80.996 L326.997,80.996 L326.997,78.628 C326.997,75.207 324.569,73.116 321.189,73.116 C317.818,73.116 315.251,75.207 315.251,78.628 L315.251,92.013 C315.251,95.442 317.818,97.635 321.189,97.635 C324.569,97.627 326.997,95.433 326.997,92.013 L326.997,89.273 L323.472,89.273 L323.472,92.013" id="Fill-25" fill="#1C6892"></path>
            </g>
        </g>
    </g>
</svg>