<?xml version="1.0" encoding="UTF-8"?>
<svg width="693px" height="261px" viewBox="0 0 693 261" version="1.1" xmlns="http://www.w3.org/2000/svg" xmlns:xlink="http://www.w3.org/1999/xlink">
    <!-- Generator: Sketch 64 (93537) - https://sketch.com -->
    <title>spero_logo</title>
    <desc>Created with Sketch.</desc>
    <g id="Page-1" stroke="none" stroke-width="1" fill="none" fill-rule="evenodd">
        <g id="spero_logo" fill="#0072CE" fill-rule="nonzero">
            <path d="M528.6,153.9 C530,153.2 531,153.6 532,154.7 C532.9,155.7 533.9,156.5 535.2,157 C536.3,157.4 537.1,158.5 538,159.3 C546.2,166.9 554.4,174.5 561.8,182.8 C564.6,185.9 567.8,188.7 570.8,191.7 C571,191.9 571.1,192.1 571.5,192.5 C569.1,191.6 567.1,190.7 564.9,190.1 C562.9,189.6 560.7,189.4 558.6,189.1 C558.1,189 557.5,189.1 557,189 C556.1,188.9 555.2,188.6 554.3,188.6 C553,188.7 551.8,188.3 550.6,187.8 C546.6,185.9 542.5,184.3 538.7,182.2 C534.9,180.1 531.3,177.7 527.7,175.3 C525.6,173.9 523.6,172.5 521.4,170.9 C521.8,170.7 522.2,170.4 522.8,170 C520.7,168.4 518.8,167 516.9,165.6 C515.6,164.6 514.4,163.4 513.1,162.4 C511.5,161.1 510,159.7 507.7,159.3 C506.7,159.2 505.7,158.6 504.7,158.2 C504.4,158.1 504.1,157.8 503.7,157.8 C500.6,157.4 498.6,155.1 496.1,153.6 C494.2,152.5 492.4,151.2 490.5,150 C489.2,149.2 487.9,148.5 486.6,147.8 C486.1,147.5 485.6,147.3 485,147.1 C483.1,146.6 483.1,146.6 482.9,144.4 C481.4,143.7 479.8,143 478.2,142.3 C478.2,142.3 478.1,142.4 478.1,142.4 C477.3,141.4 476.1,141 474.9,140.5 C473.1,139.9 471.5,138.9 469.3,137.8 C470.1,137.4 470.4,137.3 470.7,137.2 C471.5,137.7 472.2,138.3 473.5,138 C472.4,137.5 471.7,136.6 470.6,137.3 C470,135.8 468.5,135.7 467.4,135 C466.6,134.5 465.7,133.9 464.9,133.9 C463.8,133.8 463.1,133.5 462.3,132.8 C462,132.5 461.4,132.5 460.9,132.4 C460.5,130.4 460.4,130.3 458.6,130.9 C458.6,130.5 458.5,130.1 458.5,129.8 C457.8,129.6 457.1,129.5 456.1,129.2 C456.8,128.9 457.2,128.7 458.1,128.4 C455.8,127.8 454,127.2 452.2,126.7 C452.2,126.6 452.2,126.5 452.3,126.3 C452.7,126.2 453.2,126 453.8,125.8 C453.2,125.4 452.8,125.1 452.4,124.9 C450.7,123.9 449.3,122.8 448.1,121.2 C447.1,119.9 445.7,118.8 444.8,117.3 C444.4,116.6 442.7,116.5 441.8,116.9 C440.6,117.5 439.4,118 438.1,118.3 C439.1,117.7 440.1,117 441.1,116.4 C441.1,116.3 441,116.2 441,116.1 C440.5,116.2 439.9,116.4 439,116.6 C440.1,115.6 440.9,114.9 441.9,114 C441,113.8 440.3,113.6 439.6,113.4 C439.6,113.1 439.6,112.8 439.7,112.4 C438,112.2 436.4,112.9 434.7,114.8 C436,115.6 435.8,116.6 435.5,117.9 C435,120 434.9,122.2 434.6,124.4 C434.2,127.1 434.7,129.8 434.3,132.5 C434.1,133.7 433.7,135.1 434.2,136.5 C434.4,137.1 434,137.9 434.1,138.5 C434.3,143.3 435.1,148 436.1,152.6 C436.8,155.7 437.1,158.8 437.6,161.9 C438,164.7 438.4,167.4 438.8,170.2 C439,171.9 439.2,173.6 439.3,175.3 C439.4,176.8 438.8,177.3 437.3,177.7 C436.8,177.8 436.2,178.1 435.6,178.3 C434.7,178.2 434.3,176.7 433,177.4 C432.9,177.5 432.5,177 432.3,176.7 C428.5,171.3 424.2,166.3 421.4,160.3 C419.7,156.6 418.6,152.8 417.9,148.8 C416.4,140.3 416,131.7 416.5,123.1 C416.7,120.4 416.9,117.7 417,115 C417,114.3 416.8,113.5 416.5,112.8 C415.9,111.4 415.1,110.2 414.5,108.8 C414.3,108.2 414.2,107.5 414.3,106.9 C414.9,103.5 415.7,100.2 418.2,97.6 C418.6,97.1 418.9,96.4 419,95.7 C419.4,93.2 419.7,90.6 419.9,88 C420.5,81.5 422.6,75.4 425.1,69.5 C426.7,65.7 428.5,61.9 430,58.1 C431,55.7 431.9,53.2 432,50.4 C432.8,50.1 433.3,50.7 433.8,51.2 C437.5,54.8 439.4,59 439.2,64.2 C439,69.8 439.3,75.5 438.7,81.1 C438.6,82.4 438.7,83.7 438.7,85.4 C449,79.1 459.1,73 468.9,66.6 C478.8,60.2 488.3,53.3 497.6,45.4 C496.7,45.2 496.3,45 495.3,44.8 C496.9,44.5 498,44.3 499,44.1 C499,43.9 498.9,43.7 498.9,43.6 C497.3,43.9 495.7,43.8 494.3,44.7 C493.3,43.2 491.7,44 490.4,43.9 C489,43.8 487.6,44.2 486.1,44.4 C486.1,44.3 485.9,44 485.8,43.7 C485.7,43.7 485.5,43.6 485.4,43.6 C482.9,43.9 480.3,44.3 477.8,44.4 C477,44.4 476.3,43.7 475.3,44.1 C474.5,44.4 473.5,44.4 472.6,44.5 C471.6,44.6 470.6,44.7 469.6,44.6 C468.1,44.4 466.5,45.2 465.1,44.2 C464.9,44.1 464.6,44.3 464.3,44.4 C464,44.5 463.5,44.8 463.3,44.7 C461.5,44 460.1,45.3 458.5,45.6 C457.8,45.7 457.1,46 456.4,46 C455.9,46 455.4,45.3 455,45.3 C453.1,45.3 451.2,45.5 449.3,45.6 C446.8,45.7 444.3,46.7 441.7,46.5 C440.2,46.4 438.7,47.1 437.1,47.4 C432.5,48.2 428,49.1 423.4,49.7 C420.9,50 418.3,50.1 415.8,48.9 C415.4,48.7 415,48.8 414.5,48.7 C413.3,48.3 412.3,47.9 411.5,46.8 C410.6,45.5 409.5,44.4 408.4,43.2 C406.5,41.3 406.3,39 406.3,36.5 C406.3,33.4 407.7,31.1 409.6,28.9 C409.9,28.6 410.3,28.2 410.8,28.1 C415.8,26.3 420.7,24.4 425.7,22.8 C432.9,20.4 440.2,18.3 447.6,16.8 C452.8,15.7 457.9,14.5 463.2,13.7 C468,13 472.9,12.6 477.7,12.3 C481.5,12.1 485.4,12.1 489.3,12.3 C492,12.5 494.7,13.1 497.4,13.6 C497.6,14.8 498.6,15.2 499.6,15.5 C501.7,16.1 503.5,17.4 505.3,18.8 C504.2,18.5 503.2,18.2 502.1,18 C500.8,17.8 499.5,17.4 498.4,18.7 C498.2,18.9 497.6,18.8 497.2,18.9 C496.6,19 496,19.1 495,19.3 C497.3,20.5 499,21.6 500.9,22.5 C503.2,23.6 505.3,24.8 506.8,26.9 C507.1,27.4 507.8,27.7 508.4,27.9 C509.4,28.2 510.4,28.5 511.6,28.8 C511.7,28.6 512,28.3 512.3,27.8 C511.9,27.3 511.5,26.8 511.2,26.4 C511.6,25.8 511.9,25.3 512.4,24.7 C512.5,25.6 512.6,26.4 512.7,27.1 C513.3,29.7 514.6,30.7 517.3,30.7 C517.7,30.7 518.1,31.2 518.5,31.5 C519,31.6 519.5,31.6 520,31.7 C520.4,30.7 520.8,29.7 519.7,28.7 C519.3,29.7 518.9,30.6 518.5,31.5 C518.9,29.7 519.3,28 518.1,26.3 C517.8,25.8 517.9,25.3 518.5,24.9 C519.7,24.2 519.7,24.1 518.8,23.1 C517.1,21.2 515,19.9 512.8,18.7 C512.2,18.4 511.7,18.1 511.1,17.9 C511.2,17 511.7,16.9 512.3,17.3 C514.4,18.7 516.6,20.2 518.7,21.7 C519.4,22.2 520,22.9 520.6,23.4 C524.3,26.5 525.6,30.8 525.9,35.4 C526,36.3 525.5,37.2 525.2,38.2 C526.1,39.2 526.2,40.6 525.8,42 C524.6,42.1 524.5,42.1 523.3,43.7 C522.1,45.2 520.8,46.6 520.9,48.7 C520.9,49.5 520.3,50.3 519.9,51.3 C521.8,51.2 522.3,49.8 523,48.7 C523.7,47.5 524.4,46.3 525.1,45.1 C526,45.7 525.9,46.4 525.7,46.9 C525.1,48 524.3,49 523.7,50.1 C523.3,50.8 523,51.5 522.9,52.4 C522.3,52.7 521.8,52.9 521.2,53.2 C521.3,53.8 521.4,54.2 521.6,54.6 C522.6,54.5 523.6,54.5 524.7,54.4 C523.8,55.9 522.8,57.4 521.9,58.9 C519.1,63.7 515.4,67.4 510.5,70.1 C507,72 503.3,73.7 500.2,76.2 C494.7,80.6 488.1,83.1 482.4,87.2 C481.1,88.1 479.7,88.9 478.4,89.7 C478.1,89.9 477.7,90.1 477.6,90.4 C477.2,92.3 475.5,92.4 474.2,92.9 C471.7,93.7 466.3,96.7 464.3,98.6 C465.5,98.7 466.4,98.5 467.4,98 C470.5,96.3 473.5,94.7 476.7,93.1 C477.8,92.5 479.1,92.2 480.3,91.8 C481.4,91.3 482.6,91.7 483.7,91.6 C484.8,91.4 485.8,90.6 487.1,90 C486.9,90.5 486.8,90.8 486.7,90.8 C484.8,91.9 483,92.9 481,94 C480.7,93.6 480.5,93.2 480.1,92.6 C477,94.7 473.1,95.3 469.9,97.9 C471.4,98.1 472.6,98.3 474.3,98.5 C471.9,99.5 469.9,100.4 467.9,101.1 C466.6,101.6 466,102.6 465.4,103.7 C465.8,104.5 466.4,104.6 467.2,104.1 C470.3,102.1 473.5,100.1 476.7,98.2 C479.3,96.7 482,95.3 484.7,93.9 C485.7,93.4 486.9,93.3 488.1,93.3 C487.7,93.5 487.4,93.8 487,93.9 C485.2,94.9 483.2,95.6 481.6,96.8 C480.6,97.6 479.7,98.7 478.6,99.3 C477.1,100.1 475.5,100.8 474.1,101.7 C472.2,102.9 470.4,104.1 468.2,105.6 C469,106.2 469.4,106.5 469.9,106.8 C471.1,107.5 472,108.5 472.2,110 C472.3,110.4 472.6,110.8 472.8,111.1 C474.3,112.9 475.9,114.8 477.6,116.9 C476.8,116.7 476.2,116.6 475.7,116.5 C475.7,116.6 475.6,116.8 475.6,116.8 C476.1,117.4 476.6,118 477.2,118.5 C479.2,120.1 481.3,121.6 483.3,123.3 C484.5,124.3 485.7,125.5 486.8,126.7 C487.8,127.8 489.1,128.3 490.3,128.9 C491.9,129.7 493.2,130.8 494.4,132.2 C495.8,133.9 497.6,135.2 499.3,136.6 C501.6,138.5 503.9,140.4 506.3,142.3 C507.5,143.2 509,143.9 510.3,144.8 C511.1,145.3 511.9,145.9 512.7,146.6 C513.7,147.4 514.6,148.3 515.6,149 C517.3,150.2 519,151.3 520.7,152.5 C523.1,154.1 525.4,155.6 527.8,157.2 C528,157.3 528.3,157.3 529,157.5 C528,156.3 527.2,155.4 526.3,154.3 C527,154.4 527.8,154.1 528.6,153.9 L528.6,153.9 Z M487.4,78.5 C487.1,78.7 486.8,78.9 486.5,79.1 C484.4,80.3 482.6,81.9 480.1,82.3 C479.5,82.4 479.1,83.1 478.6,83.5 C478.7,83.6 478.8,83.8 478.8,83.9 C479.2,83.8 479.6,83.8 480,83.6 C482.3,82.4 484.5,81.2 486.7,79.9 C487,79.7 487.1,78.9 487.4,78.5 C488.6,78.8 489.4,78.3 489.8,77.1 C489,77.5 488.2,78 487.4,78.5 Z M469.3,94.8 C469.2,94.6 469.1,94.5 469,94.3 C465.7,94.8 463.2,96.9 460.3,98.3 C459.5,98.7 458.9,99.3 457.8,100.1 C458.7,100.2 459.1,100.4 459.3,100.3 C462.8,98.5 466,96.6 469.3,94.8 Z M510.5,63.7 C514.4,62.8 517.4,60.6 519.7,57.3 C519.2,57.3 518.7,57.5 518.4,57.8 C517.3,58.8 516.2,59.8 515,60.8 C514.5,61.3 513.9,61.9 513.3,62 C512,62 511.3,62.8 510.5,63.7 Z M505.9,71.5 C506,71.7 506.2,71.8 506.3,72 C509.2,70.2 512.3,68.5 514.8,66.1 C514.9,66 514.8,65.6 514.9,65 C511.6,67.3 508.7,69.4 505.9,71.5 Z M503.8,39.1 C501.7,37.6 497.2,37.5 494.3,38.9 C497.6,38.8 500.5,39.3 503.8,39.1 Z M500.8,26.5 C498.9,24.7 496.7,23.7 494.1,23.3 C496.2,24.7 498.2,26.1 500.8,26.5 Z M530.5,157.6 C531.5,157 531,156.5 530.8,156 C530.1,154.4 529.7,154.4 528.6,156 C529.2,156.5 529.8,157.1 530.5,157.6 Z M494.3,78.4 C495.8,78.2 497,77.5 497.9,76.3 C496.5,76.6 495.2,77 494.3,78.4 Z M498.2,153.1 C498.1,153.3 497.9,153.5 497.8,153.7 C499.5,154 500.1,155.8 501.9,156 C502,155.9 502.1,155.7 502.2,155.6 C500.8,154.8 499.5,154 498.2,153.1 Z M457.9,96 C456.2,96.2 455.5,96.6 454.2,98 C455.8,97.9 456.5,97.5 457.9,96 Z M497,35.2 C497,35 497,34.8 497,34.6 C496.1,34.7 495.2,34.7 494.3,34.8 C494.3,34.9 494.3,35.1 494.3,35.2 C495.2,35.2 496.1,35.2 497,35.2 Z M502.9,25.7 C502.8,25.9 502.7,26 502.7,26.2 C503.3,26.5 503.6,27.5 505,26.9 C504.1,26.4 503.5,26 502.9,25.7 Z M503.6,69.9 C504.4,70.5 504.9,70.1 505.2,69.7 C505.2,69.6 505.1,69.5 505,69.2 C504.6,69.3 504.2,69.6 503.6,69.9 Z M469.7,90.2 C469.8,90.3 469.8,90.4 469.9,90.5 C470.4,90.3 470.9,90 471.3,89.8 C471.2,89.7 471.2,89.6 471.1,89.4 C470.6,89.7 470.2,90 469.7,90.2 Z M490.6,147.6 C490,146.3 489.6,146 489.1,146.6 C489.6,146.9 490,147.2 490.6,147.6 Z M489.1,145 C489.2,144.9 489.2,144.7 489.3,144.6 C488.9,144.4 488.4,144.3 488,144.1 C488,144.2 487.9,144.3 487.9,144.4 C488.3,144.7 488.7,144.9 489.1,145 Z" id="Shape"></path>
            <path d="M688.1,113 C687.4,114.8 686.8,116.7 685.9,118.5 C684.5,121.4 683.1,124.4 681.3,127.1 C680.1,128.9 678.3,130.3 676.7,131.8 C674.4,134 672.1,136 669.8,138.2 C669.3,138.7 669.2,139.6 668.8,140.1 C668.2,140.9 667.4,141.7 666.6,142.4 C665.4,143.4 664.2,144.7 662.6,144.3 C659.5,147 656.5,149.5 653.5,152.2 C653.3,151.6 653.2,151.2 653.1,150.6 C650.3,152.2 647.5,153.7 644.5,155.4 C646.1,155.7 648.8,154.7 651.3,153.4 C651,153.8 650.7,154.3 650.3,154.5 C648.3,155.1 646.6,156.8 644.3,156.4 C644.2,156.4 644.2,156.4 644.1,156.4 C643.1,156.6 642.4,157.2 641.1,156.8 C640.2,156.5 638.9,157.2 637.8,157.4 C636.7,157.7 635.6,157.9 634.6,158.4 C630.5,160.6 626,160.4 621.7,161.1 C616.8,161.8 611.8,162.3 606.9,162.7 C604.7,162.9 602.5,162.4 600.2,162.3 C599,162.2 597.7,161.8 596.7,162.9 C596.5,163.1 596.1,163.1 595.8,163.1 C593.9,162.7 592.1,162.3 590.2,162 C589.5,161.9 588.8,161.6 588.2,161.6 C585.5,161.8 583,160.7 581,159.4 C578.3,157.6 575.1,156.8 572.5,155 C571.2,154.1 570.3,152.6 569,151.5 C567.1,149.8 565.1,148.3 563.2,146.7 C562.1,145.8 562,145.5 562.9,144 C561.7,142.7 560.6,141.1 559.1,140 C558,139.2 558.6,137.7 557.2,137 C556.2,136.5 555.6,135.1 555,134 C554.4,132.9 554,131.8 553.6,130.6 C553.2,129.4 552.7,128.2 552.4,126.9 C551.6,123.5 550.7,120 550.2,116.6 C549.8,113.6 549.8,110.5 550,107.5 C550.4,102.1 551.6,96.9 553.8,91.9 C554.7,89.8 556,87.9 557.1,85.8 C557.5,85.1 558.2,84.6 558,83.4 C557.9,82.7 559.1,81.8 560,80.7 C558.2,80.8 556.7,81.1 555.3,81.8 C553.9,82.5 552.4,83.2 550.9,83.7 C550.2,84 549.4,84.1 548.7,84 C547.8,83.8 546.9,84 546.1,83.9 C544.9,83.8 543.2,84.4 542.3,83 C543.1,83.3 543.8,83.2 544.3,82.3 C543.7,82.6 543,82.8 542.4,83.1 C539.2,83.6 536.9,86 534,87.2 C532.5,87.8 531.3,89.2 530,90.2 C529.6,90.5 529.1,90.7 528.4,90.7 C529.5,89.5 530.4,88.1 531.6,87 C535.1,84.1 538,80.6 541.8,78.1 C544.9,76 547.9,73.6 550.9,71.5 C552.1,70.7 553.5,70.1 554.7,69.4 C565.6,62.5 577.6,58.4 590.1,55.4 C592.8,54.8 595.5,54.3 598.2,53.7 C601.9,52.7 605.6,51.6 609.3,50.6 C612.7,49.6 616.1,49.4 619.6,49.4 C621.9,49.4 623.7,50.3 624.7,52.3 C625.4,53.7 626.5,53.7 627.7,53.8 C634.5,53.9 641.2,54.1 647.9,55.3 C650.5,55.8 653,56.2 655.6,56.8 C656.7,57.1 657.8,57.7 658.9,58.1 C660.1,58.5 661.4,59 662.6,59.3 C664.6,59.8 666.6,60.3 668.4,61.5 C669.1,61.9 670,62 671,62.3 C670.5,62.7 670.1,62.9 669.6,63.3 C670.1,63.6 670.6,63.8 671,64 C672.3,64.5 673.8,64.9 674.5,66.3 C674.6,66.5 675,66.6 675.2,66.8 C677.1,68.2 679,69.6 681,70.9 C682.4,71.9 683.9,72.7 685.4,73.6 C684.6,74.8 685.7,75.6 686,76.6 C685.5,76.3 685,76.3 684.9,77 C684.9,77.1 685.2,77.5 685.4,77.5 C686.1,77.5 686.3,77.1 686,76.5 C686.6,77 687.3,77.4 688.2,78.1 C687.3,78.3 686.7,78.5 686.1,78.7 C686.1,78.9 686.1,79.1 686.2,79.3 C687.3,81.2 688.4,83 689.4,84.9 C689.8,85.6 689.9,86.4 690.1,87.1 C688.9,87.2 687.9,87.2 686.9,87.3 C686.8,88.8 687.3,89.6 688.6,89.8 C688.7,89.5 688.9,89.1 689,88.8 C689.4,89.7 689.1,91.1 690.6,91.3 C689.9,92.4 689.7,93.4 690.6,94.5 C691,94.5 691.4,94.4 691.9,94.4 C691.7,94.9 691.3,95.4 691.3,95.8 C691.4,96.2 691.8,96.6 692.1,97 C691,98.3 690.6,96.4 689.5,96.7 C688.6,98.1 690.9,98.5 690.4,99.7 C691,99.6 691.3,99.5 691.7,99.5 C691.8,99.5 691.8,99.6 691.9,99.6 C692,99.7 692.1,99.9 692.1,100 C691.8,103.1 690.7,106 689.9,109 C689.5,110.2 688.7,111.6 688.1,113 C687.9,112.7 687.8,112.2 687.6,111.6 C686.2,113.5 686.2,113.5 686.7,115.1 C687.2,114.3 687.7,113.6 688.1,113 Z M636.6,70.5 C636.2,69.5 636.8,69.5 637.5,69.6 C638.4,69.7 639.3,69.9 640.2,70.1 C640.2,69.9 640.3,69.7 640.3,69.5 C635.9,68.3 631.3,68 626.9,67 C629.2,66.4 630.3,66.3 632.2,66.9 C633.2,67.2 635.5,67.1 636.7,66.6 C633.4,65.9 630.1,65.4 626.8,64.9 C626,64.8 625,64.7 624.3,65.1 C622.9,66 621.6,65.7 620.1,65.8 C620.6,64.7 619.8,64.5 619.4,64.8 C617.7,66.1 615.7,65.7 613.9,65.8 C612,65.9 610.5,66.4 609.2,67.8 C607.9,69.1 606.4,70.5 604.7,71.3 C602.8,72.2 601.9,74.4 599.8,74.7 C598.8,76.3 597,76.9 595.4,77.6 C594.5,78 593.6,78.5 592.6,78.9 C592.6,79 592.7,79.2 592.7,79.3 C593.3,79.4 593.9,79.4 595,79.5 C593.9,80.2 593.1,80.9 592.3,81 C589.1,81.6 586.6,83.6 583.8,85 C582.7,85.6 581.7,86.4 580.6,87.2 C580.8,87.6 581,87.9 581.2,88.2 C578.6,88.1 578.9,88.1 577.1,90.2 C578,90.5 578.8,90.8 579.6,91.2 C578.4,92.3 576.8,93.1 576.5,94.9 C576.3,94.7 575.9,94.4 575.8,94.5 C575.1,95 574.4,95.6 573.6,96.1 C573.9,96.4 574.1,96.5 574.5,96.9 C573.4,97.7 572.3,98.5 571.2,99.3 C571.8,100.7 571.8,100.9 570.7,102.1 C569.1,103.8 568.7,105.8 568.6,108 C568.6,109.2 568.7,110.3 568.7,111.5 C568.6,116.5 570.2,121.1 572.9,125.2 C576.9,131.3 582,136.4 588,140.6 C590.4,142.2 592.8,143.8 595.6,144.4 C602.6,145.9 609.7,146.6 616.9,146.1 C626,145.5 634.5,142.8 642.8,139 C647.7,136.8 651.8,133.4 655.8,129.9 C659.2,126.9 661.7,123.1 663.8,119.3 C665.5,116.2 667.8,113.3 668.4,109.6 C668.6,108.3 669.2,107 669.7,105.7 C671.2,101.9 670.9,100.4 667.9,97.7 C665.8,95.8 663.5,94.1 661.2,92.3 C661.8,91.2 661.4,90.3 660.3,89.7 C659,89 657.7,88.2 656.4,87.3 C655.6,86.8 654.9,86.2 654.1,85.6 C655.2,84.4 655,82.6 657.1,82.4 C655,81 652.7,80.5 651.6,78.3 C651.5,78.2 651.4,78.1 651.2,78 C649.7,77.4 648.2,76.8 646.8,76.2 C646,75.8 645.2,75.4 644.4,75 C645.2,75 646.2,75.7 647.1,74.5 C646,74.5 645.2,73.8 644.2,74.3 C644.4,74.7 644.5,74.9 644.5,75.1 C643.3,75 642.1,75 641.7,73.6 C641.4,72.4 640.5,72.3 639.6,72 C638.5,71.5 637.3,71.5 636.6,70.5 L636.6,70.5 Z M689,101.8 C688.8,100.3 689.8,98.8 688.2,97.9 C686.9,98.9 686.3,100.1 686.8,101.8 C687,102.4 686.9,103.2 686.7,103.8 C686.4,105.3 687.1,106.2 688.4,106.7 C688.4,107.5 688.4,108.2 688.3,109 C690.4,108.1 689.3,106.7 689.1,105.9 C689.8,105.2 690.4,104.8 690.7,104.2 C691,103.6 690.8,102.7 690.9,101.9 C690.2,101.8 689.6,101.8 689,101.8 Z M684.8,115.3 C687.3,111.7 687.5,110.2 685.6,108.2 C685.4,108.6 685.3,108.9 685.1,109.2 C684.2,110.9 685.5,112.9 684.3,114.5 C684.2,114.7 684.6,115.1 684.8,115.3 Z M680.9,121.6 C682.6,120.5 682.1,118.8 682.3,117.3 C682.1,117.3 682,117.2 681.8,117.2 C681.5,118.6 681.2,120.1 680.9,121.6 Z M685.5,90.7 C684.8,91.4 684.4,92 685.2,92.7 C685.3,92.8 685.8,92.8 686,92.7 C686.7,91.9 686.2,91.3 685.5,90.7 Z M653.5,149.6 C653.7,149.8 653.9,150 654,150.2 C654.6,149.7 655.2,149.2 655.8,148.7 C655.7,148.5 655.5,148.4 655.4,148.2 C654.8,148.7 654.2,149.2 653.5,149.6 Z M686.5,108 C686.8,107.9 687,107.9 687.3,107.8 C687.1,107.2 686.8,106.6 686.6,106 C686.4,106.1 686.2,106.1 686,106.2 C686.2,106.7 686.3,107.3 686.5,108 Z M632.3,53.9 C632.3,54 632.2,54.2 632.2,54.3 C632.8,54.4 633.3,54.4 633.9,54.5 C633.9,54.5 633.9,54.3 634,54 C633.4,54 632.9,53.9 632.3,53.9 Z M642.7,73.9 C642.8,73.8 642.9,73.7 643,73.7 C642.8,73.4 642.5,73 642.3,72.7 C642.2,72.8 642.1,72.9 642,73 C642.3,73.2 642.5,73.5 642.7,73.9 Z" id="Shape"></path>
            <path d="M387.2,39.1 C387.3,39.4 387.3,39.6 387.4,39.9 C385.7,40.5 384.1,41 382.4,41.6 C382.4,41.8 382.4,41.9 382.4,42.1 C383.2,42.5 384,42.8 385,43.3 C382.9,43.4 381,43.6 379,43.7 C379.1,44.4 379.2,44.8 379.2,45.1 C378.3,46 377.4,46.8 376.7,47.7 C376.2,48.4 375.5,48.6 374.7,48.8 C372,49.6 369.1,50 366.6,51.4 C365.6,51.9 364.4,52.1 363.3,52.4 C360.5,53.1 357.8,53.8 355,54.4 C354,54.6 352.9,55.3 352,53.9 C351.9,53.7 350.8,54 350.2,54.2 C347.2,55.2 344.2,56.4 341.1,57.3 C338.8,58 336.4,58.4 334,58.9 C329.9,59.9 325.8,60.9 321.7,62 C314.9,63.9 308.1,66 301.4,68 C297.4,69.2 293.5,70.3 289.4,71.4 C283.1,73 279.7,71.4 276,66.4 C273.5,63 272,59.2 270.9,55.2 C270.3,53.1 270,50.7 271.1,48.5 C271.6,47.6 271.5,46.4 271.9,45.5 C273.3,42.4 276,40.8 279.1,39.8 C285.4,37.8 291.6,35.8 298,34.1 C306.9,31.7 315.8,29.4 324.8,27.2 C330.4,25.8 336.1,24.7 341.8,23.6 C345.2,22.9 348.6,22.4 352,22 C359,21.3 366.1,20.6 373.2,20.1 C377.2,19.8 381.2,20.4 385.2,21 C387.5,21.4 389.2,22.8 390.8,24.4 C392.2,25.7 393.8,26.9 394.1,29 C394.3,30.7 394.3,32.3 392.8,33.5 C392.3,33.9 392.3,34.7 392,35 C390.7,36.6 389.5,38.5 387.2,39.1 Z" id="Path"></path>
            <path d="M376,156.2 C375,156.6 373.9,157.1 372.9,157.4 C371.4,157.8 369.9,158 368.5,158.3 C367.8,158.4 367.1,158.6 367,159.7 C368.9,160.4 370.8,159.3 372.7,159.8 C369.8,160.3 367,160.7 364.1,161.3 C363.4,161.4 362.5,161.7 362,162.2 C358.7,165.5 354.3,166 350.1,167 C349.8,167.1 349.5,166.8 349,166.7 C349.4,166.2 349.7,165.9 350.1,165.3 C347.4,166.3 344.9,167.2 342.4,168.1 C340,168.9 337.6,169.6 335.3,170.4 C334.6,170.6 333.9,171.1 333.2,171.4 C332.7,171.6 332.2,172 331.8,171.1 C331.7,171 331.1,170.9 330.7,171 C329.1,171.4 327.6,171.9 326,172.2 C325,172.4 324,172.2 323.1,172.4 C321.5,172.6 319.9,172.9 318.3,173.3 C316.9,173.7 315.4,174.2 314.3,172.8 C313.4,173.2 312.6,173.5 311.9,173.8 C309.9,174.8 307.8,174.5 305.8,173.9 C304.9,173.6 303.6,174.5 303,173.1 C303,173 302.5,173.2 302.2,173.2 C301.8,173.3 301.3,173.5 301,173.4 C297.2,172.4 293.1,173 289.3,172 C288.9,171.9 288.7,171.6 288,171.1 C286.9,171.6 285.9,170.5 284.6,169.9 C281.7,168.5 279.2,166.7 276.8,164.6 C273.5,161.6 271.7,157.9 271.8,153.4 C271.8,152 272,150.5 272,149.1 C272,147.6 272.5,146.5 274.1,145.8 C274.5,146.2 275.1,146.6 275.5,147.1 C276.9,148.9 278.9,149.4 281,149.4 C284.8,149.5 288.6,148.9 292.3,147.9 C305.4,144.4 318.5,140.6 331.6,137.1 C339.8,134.9 348.1,132.8 356.4,131 C364.5,129.3 372.6,128.3 380.9,127.8 C382.5,127.7 384.2,127.5 385.8,127.5 C389.6,127.3 393.1,128.6 396.3,130.5 C397,130.9 397.7,131.3 398.4,131.5 C399.9,132 401.1,132.8 402.1,134.1 C401.7,135.3 400.6,135.5 399.7,135.9 C398.9,136.3 398,136.4 397.7,137.6 C397.5,138.2 396.5,138.5 396.2,138.8 C395.7,140 395.5,141.2 394.8,141.9 C394.1,142.6 393.7,144 392.3,144 C391.9,144 391.4,144.4 391,144.7 C390.3,145.1 389.6,145.5 389,145.9 C386.5,147.6 383.5,147 380.8,147.3 C380.4,147.4 380,147.4 379,147.4 C379.8,147.8 380.1,148.1 380.4,148.1 C381.4,148.1 382.5,147.9 383.5,147.8 C384.4,149.2 385.3,147.6 386.2,147.9 C386.3,147.9 386.3,147.9 386.7,148.1 C386.2,148.5 385.9,149 385.5,149.1 C382.5,149.6 379.4,150 376.4,150.5 C373.8,150.9 371.2,151.4 368.8,152.6 C373.7,152.2 378.6,151.3 383.8,151.8 C383.5,152.1 383.4,152.3 383.3,152.4 C380.7,153 378.2,153.6 375.6,154.2 C373.4,154.7 371.3,155.1 369.1,155.5 C368.4,155.6 367.7,156 367,156 C364,156.1 361.2,157.1 358.4,158.4 C364.3,157.8 370.2,157.1 376,156.2 L376,156.2 Z M352.2,162.2 C353.9,161.8 355.4,161.5 356.8,161.2 C358.2,160.9 359.6,160.6 361,160.3 C362.3,160 363.6,159.6 365,159.2 C362.3,159 353.9,161.1 352.2,162.2 Z" id="Shape"></path>
            <path d="M354,101.8 C353.6,102.1 353.2,102.4 352.4,102.9 C355.3,102.5 357.7,102.2 360.2,101.9 C356.5,104.1 351.9,103.7 348,106.3 C349.4,106.6 350.6,106.8 352.2,107.1 C348.4,108.1 345,109.1 341.5,109.8 C336.6,110.8 331.8,112 327,113.6 C326.7,113.7 326.3,113.7 326,114 C326.5,114 326.9,114 327.4,114 C327.4,114.1 327.5,114.2 327.5,114.4 C326.4,114.7 325.4,115 324.1,115.4 C324.3,114.9 324.4,114.6 324.6,114.2 C320.9,115.1 317.3,115.9 313.7,116.7 C313.3,116.8 312.6,117.1 312.5,117.5 C312.1,118.7 311.1,118.9 310.2,119.2 C309.1,119.6 308,119.7 306.9,120.2 C305.9,120.7 305.2,120.3 304.7,119.6 C300.6,121.5 296.4,122.8 292,123.3 C290.2,123.5 288.5,123.1 286.8,122.4 C285.9,122 284.9,121.7 284,121.4 C279.8,119.9 277.8,116.3 276,112.6 C275.2,110.9 274.7,109 274.2,107.1 C273,102.4 275.2,97.7 279.5,95.6 C279.7,95.5 280,95.3 280.2,95.3 C284.1,95.2 287.7,93.6 291.4,92.6 C297.9,90.8 304.3,88.9 310.8,87.1 C320.7,84.5 330.7,82.2 340.7,80.3 C355.7,77.5 370.8,75.5 386.1,74.7 C389.8,74.5 393.4,74.7 396.9,75.9 C398.4,76.4 399.6,77.1 400.6,78.3 C401.5,79.4 402.5,80.3 403.2,81.4 C404.5,83.3 404.1,85 402.4,86.4 C401.6,87.1 400.9,87.9 400.1,88.6 C399.7,89 399.3,89.4 398.8,89.7 C397.1,90.6 395.5,91.9 393.6,92.3 C391.3,92.9 388.8,92.9 386.4,93.2 C383.3,93.6 380.3,93.9 377.3,94.4 C376.7,94.5 376.1,94.8 375.6,95.4 C376.7,95.5 377.9,95.7 379.4,95.9 C375.5,96.5 372,96.9 368.5,97.5 C365.6,98 362.6,98.7 359.7,99.3 C358.7,99.5 357.7,99.5 356.7,99.7 C351.5,100.5 346.4,101.4 341.4,103 C341.1,103.1 340.6,103.1 340.4,103.4 C339.7,104.6 338.9,104.7 337.7,104 C337.4,103.8 336.9,104.1 336.5,104.2 C334.5,104.9 332.3,105.2 330.4,106.5 C329.5,107.2 328.1,107.2 326.9,107.6 C324.8,108.3 322.7,109 320.6,109.7 C320.6,109.9 320.7,110 320.7,110.2 C321.1,110.2 321.6,110.1 322,110.1 C322.6,110.1 323.2,109.7 323.8,110.4 C323.9,110.6 324.6,110.5 324.9,110.4 C326.6,109.9 328.3,109.4 330.1,108.9 C331.1,108.7 332.1,108.3 333,108.6 C335.6,109.2 337.9,108 340.3,107.4 C341.2,107.2 342.1,106.9 342.9,106.5 C343.2,106.4 343.5,106 344,105.6 C342.3,105.1 341,105.7 339.7,106.1 C338.8,106.4 338,106.6 337,106.5 C335.9,106.5 334.8,106.9 333.7,107.2 C333,107.4 332.3,107.5 331.6,107.7 L331.6,107.7 C332.3,107.4 333,106.9 333.8,106.7 C336,106.1 338.1,105.3 340.2,104.6 C343.1,103.7 346.1,103.3 349.1,102.7 C350.9,102.5 352.5,102.2 354,101.8 L354,101.8 Z M308.3,118.3 C307.1,117.6 306.7,118.4 306.4,119.3 C307,118.9 307.6,118.6 308.3,118.3 Z M332.2,109.3 C332.2,109.2 332.1,109.1 332.1,108.9 C331.6,109.1 331,109.2 330.5,109.4 C330.6,109.6 330.6,109.8 330.7,109.9 C331.2,109.8 331.7,109.5 332.2,109.3 Z M351,103.2 C351,103.1 350.9,103.1 350.9,103 C350.3,103 349.6,103.1 349,103.1 C349,103.2 349,103.2 349,103.3 C349.7,103.3 350.3,103.3 351,103.2 Z M346.7,107 C346.7,106.9 346.6,106.8 346.6,106.7 C346.2,106.8 345.8,106.9 345.4,107.1 C345.4,107.2 345.5,107.3 345.5,107.4 C345.9,107.3 346.3,107.2 346.7,107 Z" id="Shape"></path>
            <path d="M602.8,35.2 C602.5,36.6 601.6,37.1 600.3,37.5 C598.5,38 596.8,38.7 595.1,39.3 C594.7,39.4 594.3,39.7 594,39.6 C591.8,38.3 590.2,40.2 588.3,40.6 C586.8,41 585.4,41.5 584,42 C581.9,42.7 579.7,42.4 577.5,42.7 C575.3,43 573.1,43.3 571,43.8 C567.7,44.6 564.4,44.8 561,44.7 C560.1,44.7 559.1,44.6 558.2,44.8 C557.7,44.9 557.3,45.5 556.6,46 C557.5,46.5 558,46.7 558.5,47 C558.4,48 558.3,48.9 558.2,49.9 C557.7,49.9 557.1,49.8 556.6,49.8 C556.3,48.4 556,47.2 555.7,45.6 C554,47 555.9,48.2 555.4,49.4 C552.9,48.8 551.9,46.6 550.4,44.9 C550,44.5 549.7,44 549.2,43.7 C547.7,42.7 546.3,41.8 545.9,39.7 C545.6,38.1 544.7,36.5 543.9,35.1 C541.5,30.7 542.7,25.5 545.8,22.4 C546.5,21.7 547.2,21 548,20.7 C548.8,20.4 549.5,20 550.6,20.4 C552,20.9 553.6,21.2 555.1,21 C560,20.3 564.8,19.5 569.6,18.4 C577.9,16.6 586.1,14.6 594.3,12.8 C599.7,11.6 605.2,10.7 610.6,9.7 C613.5,9.2 616.6,9.1 619.5,8.4 C622.5,7.7 625.4,7.5 628.4,7.5 C631,7.5 633.6,7.1 636.2,6.9 C641.9,6.5 647.5,6.1 653.2,5.7 C653.7,5.7 654.3,5.7 654.8,5.7 C657.4,6 659.9,6.3 662.5,5.6 C663.8,5.2 665.4,5.8 666.8,6 C667.9,6.1 668.9,6.3 670,6.5 C670.7,6.7 671.3,7.1 672,7.4 C673.1,8 674.3,8.6 675.4,9.1 C677.3,10.1 678.7,11.5 679.1,13.7 C679.2,14.1 679.4,14.4 679.5,14.6 C679,16.5 676.7,14.9 676.1,16.5 C677,17 677.8,17.4 678.8,17.9 C677.5,19 676.4,20 675.3,20.9 C675,21.1 674.6,21.1 674.2,21.2 C673,21.6 671.8,22 670.6,22.5 C670.4,22.6 670.4,23.3 670.3,23.6 C668.8,23.7 667.4,23.8 665.9,23.9 C665.9,24 665.8,24.2 665.8,24.3 C667.1,24.9 668.4,25.4 669.7,26 C668.2,26.9 665.4,27.2 660.4,26.7 C661.9,26.4 663.3,26 665.1,25.6 C663.5,24.2 661.8,24.5 660.4,24.3 C656.2,23.8 652,24.2 647.8,25 C646.7,25.2 645.4,26.1 644.3,24.7 C644.3,24.7 644.2,24.7 644.1,24.7 C641.1,25.2 638,25.6 635,26.1 C633.3,26.4 631.6,26.7 629.8,26.9 C627.5,27.2 625.1,27.4 622.8,27.7 C622.4,27.8 621.9,27.9 621.5,28.2 C620.7,28.8 620,29.7 619.3,28.1 C618.1,28.4 617,28.6 615.8,28.9 C615.3,29 614.9,29.6 614.5,29.6 C613.6,29.7 612.7,29.6 611.8,29.5 C611.8,30.9 610.5,30.3 609.9,30.6 C609.2,30.9 608.3,31 607.4,31.1 C606.5,31.3 605.6,31.4 604.7,31.7 C603.8,31.9 602.9,32.1 602,32.4 C598.7,33.5 595.4,34.7 592,35.8 C589.9,36.5 587.7,37 585.6,37.5 C584.4,37.8 583.1,38.1 582.3,39.4 C584.1,39 585.9,38.7 587.6,38.3 C587.5,38.4 587.4,38.7 587.3,39 C587.5,39.1 587.7,39.3 587.8,39.2 C591.4,38 595.4,37.9 598.9,36.1 C600.2,36 601.6,35.7 602.8,35.2 L602.8,35.2 Z M644,9 C643.2,8.9 642.4,8.9 641.5,8.8 C642.9,9.5 642.9,9.5 644,9 C644.7,9.2 645.4,9.4 645.8,7.8 C644.9,8.4 644.5,8.7 644,9 Z M651.5,17 C651.5,16.8 651.5,16.6 651.4,16.4 C648.7,16.7 646,17 643.3,17.2 C643,17.2 642.3,17.2 642.3,17.1 C641.9,15.7 641,16.4 640.3,16.6 C639.6,16.7 638.8,16.9 638.1,17 C635.6,17.4 633.1,17.8 630.7,18.3 C630.2,18.4 629.7,18.7 629.3,19 C628.7,19.3 628.1,19.8 627.4,20.1 C625.5,20.8 623.5,21.4 621.3,22.1 C625,22.2 628.3,20.9 631.7,21.1 C631.4,22 631.1,22.7 630.7,24 C633.2,23.4 635.2,23 637.1,22.5 C638.7,22.2 640.2,21.9 641.8,21.7 C643.1,21.5 644.4,21.6 645.7,21.5 C646.8,21.4 647.3,20.9 647,19.7 C646.5,19.7 645.9,19.7 645.2,19.6 C647,17.6 649.6,18.1 651.5,17 Z M625.9,26.4 C627.9,26.9 643.1,24.4 645.1,23.8 C645.3,23.7 645.5,23.4 645.9,23.1 C645.4,22.8 645,22.5 644.6,22.5 C638.3,23.1 632.1,24.7 625.9,26.4 Z M621.4,17.9 C621.4,18.1 621.5,18.3 621.5,18.5 C622.6,18.2 623.8,17.9 624.9,17.6 C626.2,17.3 627.4,17 628.7,16.7 C629.9,16.4 631.1,16.2 632.3,16 C633.6,15.8 634.9,15.6 636.1,15.4 C637.2,15.2 638.5,15.6 639.5,14.2 C633,14.1 627.2,16.3 621.4,17.9 Z M629.3,22.6 C625.7,22.5 622.5,23.4 619.4,25.9 C621.6,26.3 622.9,25.2 624.4,24.4 C625.9,23.5 627.7,23.1 629.3,22.6 Z M591.6,34.6 C589.4,34.9 587.4,35.5 585.6,36.9 C587.8,36.4 590,36.2 591.6,34.6 Z M657.6,9.3 C656.6,9.1 655.6,8.7 654.7,9.5 C655.8,9.8 656.7,10.5 657.6,9.3 Z M644,11.9 C645.2,11.5 646,11.3 646.9,11 C645.9,10.9 644.8,10.3 644,11.9 Z M649.3,13.9 C649.3,13.7 649.3,13.6 649.3,13.4 C648.4,13.4 647.6,13.2 646.3,14.1 C647.6,14.1 648.5,14 649.3,13.9 Z M596.5,33.2 C596.4,33 596.4,32.8 596.3,32.7 C595.4,33 594.6,33.2 593.7,33.5 C593.7,33.7 593.8,33.8 593.8,34 C594.8,33.7 595.7,33.5 596.5,33.2 Z M635.8,10.1 C635.2,10.3 634.6,10.5 634,10.7 C635.1,11 635.1,11 635.8,10.1 Z M652.2,19.7 C652.2,19.9 652.3,20.1 652.3,20.3 C653.2,20.2 654.1,20 655,19.9 C655,19.8 655,19.6 654.9,19.5 C654,19.6 653.1,19.7 652.2,19.7 Z M665.3,23.1 C665.3,22.9 665.3,22.7 665.3,22.5 C664.7,22.1 664.1,21.9 663.3,23.1 C664.1,23.1 664.7,23.1 665.3,23.1 Z M642.6,14 C642.5,13.8 642.4,13.6 642.3,13.4 C641.8,13.6 641.3,13.8 640.9,14 C641,14.1 641,14.3 641.1,14.4 C641.6,14.3 642.1,14.1 642.6,14 Z M650.8,9.4 C650.9,9.5 651,9.6 651,9.7 C651.3,9.5 651.6,9.4 651.8,9.2 C651.7,9 651.6,8.9 651.5,8.7 C651.3,9 651.1,9.2 650.8,9.4 Z M649.7,8.6 C649.7,8.5 649.7,8.4 649.7,8.3 C649.4,8.3 649.2,8.2 648.9,8.2 C648.6,8.2 648.4,8.4 648.1,8.5 C648.1,8.6 648.2,8.7 648.2,8.8 C648.8,8.7 649.3,8.6 649.7,8.6 Z" id="Shape"></path>
            <path d="M667.5,151.2 C668.2,150.8 668.9,150.4 669.6,149.9 C670.4,149.3 671.4,148.8 671.4,147.5 C671.4,146.9 672.2,146.2 672.8,145.9 C675.1,144.6 676.7,142.5 678.6,140.8 C680.8,138.9 682.4,136.6 684.1,134.4 C684.5,133.8 685.1,133.4 685.8,133.1 C684.5,135.3 683.8,138 681.7,139.5 C680.4,140.4 679.8,141.9 678.4,142.7 C677,143.4 676,144.8 674.9,146 C674.4,146.6 674.1,147.4 673.6,148 C673,148.7 672.3,149.5 671.5,150 C670.3,150.7 669,151.1 667.8,151.7 C667.6,151.4 667.5,151.3 667.5,151.2 Z" id="Path"></path>
            <path d="M602.8,35.2 C605,34.6 607.2,34 609.4,33.5 C612.3,32.9 615.2,32.3 618.2,31.8 C620.5,31.4 622.9,31.1 625.2,31 C621.8,31.6 618.4,32.1 615,32.7 C613.2,33 611.4,33.6 609.7,34.1 C607.5,34.9 605.2,35.5 602.8,35.2 C602.8,35.2 602.8,35.2 602.8,35.2 Z" id="Path"></path>
            <path d="M657,152.5 C657.4,150.9 659.1,150.9 659.9,150 C660.9,149 662.3,148.5 663.6,147.8 C664.8,147.2 666,146.7 667.3,146.1 C666.3,147.2 658.7,152 657,152.5 Z" id="Path"></path>
            <path d="M502.1,79.9 C499.6,81.8 497.7,84.5 494.3,85.4 C494.2,84.3 495,83.8 495.6,83.6 C497.7,83.1 499.2,81.7 500.8,80.5 C501.2,80.3 501.7,80.1 502.1,79.9 Z" id="Path"></path>
            <path d="M649.7,27.6 C646.1,28 642.5,28.4 638.9,28.9 C638.9,28.8 638.9,28.7 638.9,28.6 C642.5,28.1 646.1,27.6 649.7,27.1 C649.7,27.3 649.7,27.4 649.7,27.6 Z" id="Path"></path>
            <path d="M599.9,39.4 C603.2,38.7 606.4,38 609.7,37.3 C609.7,37.4 609.8,37.5 609.8,37.6 C606.6,38.4 603.3,39.1 600.1,39.9 C600,39.7 600,39.5 599.9,39.4 Z" id="Path"></path>
            <path d="M648.7,156.6 C650.8,155.6 652.9,154.7 655,153.7 C653.2,155.4 651,156.1 648.7,156.6 Z" id="Path"></path>
            <path d="M626.6,34.6 C624.2,35 621.8,35.4 619.4,35.8 C619.4,35.7 619.4,35.5 619.3,35.4 C621.7,35.1 624.2,34.7 626.6,34.4 C626.7,34.4 626.6,34.5 626.6,34.6 Z" id="Path"></path>
            <path d="M673.7,142.1 C672.2,143.2 670.6,144.2 669.1,145.2 C669.8,143.5 671.2,142.5 673.7,142.1 Z" id="Path"></path>
            <path d="M528.6,153.9 C528.4,152.7 527.1,153.1 526.6,152.5 C527.4,151.2 527.6,151.2 529.2,152.3 C529,152.7 528.8,153.3 528.6,153.9 C528.6,153.9 528.6,153.9 528.6,153.9 Z" id="Path"></path>
            <path d="M505.2,75.8 C506,74.2 507.3,73.5 509.2,73.8 C507.8,74.4 506.5,75.1 505.2,75.8 C505.1,75.8 505.2,75.8 505.2,75.8 Z" id="Path"></path>
            <path d="M634.3,29.4 C631.9,29.8 629.6,30.2 627.2,30.6 C627.2,30.5 627.2,30.4 627.1,30.2 C629.5,29.8 631.9,29.5 634.3,29.1 C634.4,29.3 634.4,29.4 634.3,29.4 Z" id="Path"></path>
            <path d="M343.6,168.6 C344.6,168.3 345.7,167.9 347.1,167.5 C345.9,168.7 345.3,169 343.6,169 C343.7,168.9 343.6,168.8 343.6,168.6 Z" id="Path"></path>
            <path d="M331.7,107.7 C329.8,108.3 328,108.9 326.1,109.4 C326.1,109.3 326,109.1 326,109 C327.9,108.6 329.9,108.1 331.7,107.7 C331.8,107.7 331.7,107.7 331.7,107.7 Z" id="Path"></path>
            <path d="M674.9,23.7 C674.1,24.9 673.5,25.8 672.8,26.7 C672.7,26.7 672.6,26.6 672.5,26.6 C672.6,26.2 672.8,25.8 672.9,25.3 C673,24.8 673,24.4 673.1,23.8 C673.5,23.8 674,23.8 674.9,23.7 Z" id="Path"></path>
            <path d="M690.5,83.1 C689.1,82.4 688.9,80.9 688.5,79.7 C689.8,80.5 689.9,81.9 690.5,83.1 L690.5,83.1 Z" id="Path"></path>
            <path d="M487,122.8 C487.6,123.5 487.9,123.9 488.4,124.4 C488,124.6 487.7,124.9 487.5,124.8 C486.3,124.7 486.4,124 487,122.8 Z" id="Path"></path>
            <path d="M478.2,142.4 C478.2,142.4 478.3,142.3 478.3,142.3 C478.5,142.7 478.8,143.1 479,143.5 L479,143.4 C477.9,143 476.8,142.7 475.7,142.3 C475.7,142.2 475.7,142.1 475.8,141.9 C476.6,142.2 477.4,142.3 478.2,142.4 Z" id="Path"></path>
            <path d="M477.9,116.6 C478.7,115.1 478.7,115.1 480.1,116.1 C479.3,116.3 478.8,116.4 477.9,116.6 Z" id="Path"></path>
            <path d="M498.9,80 C499.6,79.6 500.3,79.1 501.2,78.5 C500.8,79.9 499.9,80 499.2,80.4 C499.1,80.3 499,80.2 498.9,80 Z" id="Path"></path>
            <path d="M376,156.2 C377.3,156 378.6,155.9 379.9,155.7 C379.9,155.8 379.9,155.8 379.9,155.9 C378.6,156 377.3,156.1 376,156.2 C376,156.2 376,156.2 376,156.2 Z" id="Path"></path>
            <path d="M632,33.9 C631.1,34 630.2,34 629.3,34.1 C629.3,34.1 629.3,34 629.3,34 C630.2,33.9 631.2,33.9 632.1,33.8 C632,33.8 632,33.8 632,33.9 Z" id="Path"></path>
            <path d="M662.5,29.8 C663.3,29.9 664.1,30 664.9,30.1 C664.9,30.2 664.9,30.3 664.9,30.4 C664.1,30.4 663.3,30.4 662.4,30.4 C662.5,30.1 662.5,30 662.5,29.8 Z" id="Path"></path>
            <path d="M490.6,88.5 C490,88.7 489.5,89 488.9,89.2 C488.9,89.1 488.8,89 488.8,88.9 C489.3,88.6 489.9,88.3 490.4,88 C490.4,88.2 490.5,88.3 490.6,88.5 Z" id="Path"></path>
            <path d="M354.1,101.8 C355,101.6 355.9,101.3 356.9,101.1 C356.9,101.2 357,101.4 357,101.5 C356,101.6 355,101.7 354.1,101.8 C354,101.8 354.1,101.8 354.1,101.8 Z" id="Path"></path>
            <path d="M596.2,40.9 C595.5,41.1 594.7,41.4 594,41.6 C594,41.5 593.9,41.4 593.9,41.3 C594.6,41 595.3,40.8 596,40.5 C596.1,40.6 596.2,40.7 596.2,40.9 Z" id="Path"></path>
            <path d="M682.4,126.9 C682.7,126.4 682.9,126 683.4,125.2 C683.8,126.4 683.6,127 682.4,126.9 Z" id="Path"></path>
            <path d="M687.4,128.7 C686,129 686,129 685.9,127.9 C686.4,128.2 686.8,128.4 687.4,128.7 Z" id="Path"></path>
            <path d="M617.2,36.2 C616.6,36.3 616,36.3 615.4,36.4 C615.4,36.4 615.4,36.3 615.4,36.3 C616,36.2 616.6,36.2 617.2,36.2 C617.2,36.2 617.2,36.2 617.2,36.2 Z" id="Path"></path>
            <path d="M690.4,83.2 C690.7,83.7 691,84.3 691.5,85.2 C690.3,84.6 689.9,84 690.4,83.2 C690.5,83.1 690.4,83.2 690.4,83.2 Z" id="Path"></path>
            <g id="Group" transform="translate(122.000000, 28.000000)">
                <path d="M98.7,67.8 C98.5,68 98.4,68.3 98.1,68.7 C98.8,68.6 99.3,68.5 99.8,68.4 C99.8,68.6 99.8,68.8 99.8,68.8 C98,69.6 96.2,70.4 94.4,71.1 C94.2,71.2 93.9,71.2 93.8,71.3 C91.6,73.5 88.4,73.7 85.9,75.3 C81.9,75.3 78.9,78 75.2,78.8 C74.1,78.1 75.2,77.6 75.5,76.8 C75.1,76.8 74.9,76.8 74.6,76.9 L74.7,76.9 C75.2,76.6 75.7,76.2 76.3,75.9 C77.5,76.7 77.7,76.6 78.4,75.4 C79.2,75.6 79.8,75.3 80,74.4 C79.5,74.8 79,75.1 78.5,75.5 C78,75.5 77.6,75.6 77.1,75.6 C78.3,74.8 79.5,73.9 81,72.9 C80.4,72.9 80.1,72.9 79.8,72.9 C77.5,73.9 75.2,74.9 72.9,75.9 C71.5,76.5 70.2,77.1 68.8,77.8 C68.1,78.1 67.1,78.1 67.2,79.4 C67.2,79.7 66.2,80.2 65.5,80.4 C64.7,80.6 63.9,80.5 62.9,80.5 C63.6,79.2 64.7,78.6 65.8,78.1 C69.5,76.2 73.3,74.4 77.1,72.5 C78.2,72 79.2,71.4 80.4,70.7 C80.1,70.5 80,70.4 79.9,70.4 C76.7,71.7 73.3,72.8 70.2,74.3 C66.4,76.1 62.7,78.2 59,80.1 C58.4,80.4 57.9,80.9 57,80.6 C56.6,80.4 55.9,80.8 55.5,81.1 C52.8,82.7 50.1,84.3 47.4,85.9 C46.8,86.3 46.1,86.5 46,87.5 C46,87.9 45.1,88.3 44.5,88.6 C43.4,89.1 42.9,89.9 43.1,91 C45.8,89.4 48.4,87.7 51.1,86.2 C52.2,85.6 53.5,85.4 54.7,84.9 C54.7,84.9 54.6,84.9 54.6,84.9 C53.7,85.5 52.9,86.2 52,86.7 C50.2,87.8 48.3,88.8 46.3,89.9 C46.7,90.3 46.9,90.5 47.1,90.7 C46.3,91.2 45.6,91.6 44.8,92 C43,93.1 43,93.1 43.6,95.4 C43.6,95.5 43.7,95.7 43.7,95.8 C42.9,99.2 43.5,102.5 43.7,105.9 C43.8,107.5 44,109.1 44,110.7 C44,111.4 44.5,112.2 44.8,112.9 C44.7,113.4 44.7,113.9 44.6,114.4 C44.6,114.9 44.7,115.4 44.6,115.8 C44.4,116.5 44.3,117 45.1,117.4 C45.3,117.5 45.3,118.2 45.3,118.7 C45.3,120.5 44.8,122.4 45.4,123.9 C46,125.8 46.1,127.4 45.7,129.2 C45.6,129.8 46.3,130.4 46.3,131.1 C46.5,133.9 46.6,136.6 46.8,139.4 C46.9,140.7 46.9,142 47.3,143.2 C47.8,144.7 47.8,146.2 47.7,147.7 C47.6,148.7 48,149.6 48.1,150.6 C48.4,154 47.8,157.3 45.8,160.1 C45.5,160.5 44.5,160.8 43.9,160.7 C42.1,160.4 40.5,161.2 39.1,162 C38,162.6 37.1,163.7 36,164.8 C35.4,164.6 34.6,164.4 33.7,164.2 C32.5,165.7 30.2,165.8 28.8,164 C27.9,162.8 27,161.3 26.7,159.9 C25.9,155.3 25.3,150.7 24.7,146.1 C25.4,143.7 24.1,141.5 23.8,139.2 C23.5,136.3 23.3,133.4 23,130.4 C22.6,126.1 22.1,121.9 21.7,117.6 C21.5,115.5 21.4,113.5 21.2,111.3 C20.7,111.1 20.2,111 19.6,110.8 C19.7,110.4 19.7,109.9 19.8,109.2 C18.8,109.6 17.9,109.9 16.7,110.3 C16.9,109.6 17,109.2 17.2,108.5 C15.7,108.9 14.4,109.2 12.7,109.6 C13.1,108.9 13.3,108.5 13.7,107.7 C12.8,108.3 12.3,108.7 11.8,109 C9.5,107.9 7.3,108.2 5.1,109 C3.4,109.6 2,108.7 1.7,107 C1,102.3 2.9,98.5 5.8,95 C9.2,91 13.5,88.1 17.2,84.7 C17.7,84.3 18.1,83.8 18.7,83.5 C19.9,82.7 20.3,81.6 20.3,80 C20.5,68.2 21.6,56.4 24.3,44.9 C25.5,39.9 27.1,35 28.6,30.1 C29.2,28.2 30,26.3 29.1,24.3 C30.4,23.5 31.4,23.3 32.6,24 C34.1,24.8 35.6,25.6 37.2,26.3 C38.8,27 39.6,28.3 40.2,30 C42.4,36.6 42.7,43.3 42.7,50.1 C42.8,54.6 42.8,59.1 42.8,63.6 C42.8,64.2 42.9,64.8 43,65.8 C45,64.7 46.7,63.6 48.5,62.6 C50.2,61.6 51.8,60.5 53.5,59.6 C54.4,59.1 55.5,58.8 56.5,58.4 C57.9,58.8 59.8,58 60.8,56.5 C60.2,56.7 59.7,56.8 59.3,56.9 C60.3,55.6 61.5,55.6 62.8,56.3 C62.6,56.7 62.5,57.2 62.1,58 C67.5,55.8 72.2,52.6 78.1,51.1 C77.1,52.4 76.1,52.7 75.2,53 C71.7,54.3 68.3,55.7 65.2,57.7 C65,57.8 64.8,58 64.4,58.3 C65.7,58.8 66.8,58.9 67.9,58.2 C68.6,57.8 69.2,57.6 69.7,58.8 C69.2,58.8 68.7,58.8 68.3,58.8 C67,58.8 66.7,59.3 66.9,60.6 C64.3,61.2 61.8,61.9 59.7,63.7 C60.2,63.9 60.7,64 61,63.9 C61.9,63.5 62.8,62.6 63.7,62.5 C65.1,62.3 66,61.6 66.8,60.6 C68.4,60.5 70.1,60.5 71.6,59.6 C72,59.4 72.5,59.2 72.6,58.9 C73.3,57.6 74.6,57.2 75.8,56.4 C75.6,55.9 75.4,55.5 75.2,55 C74.4,55.3 73.7,55.6 72.9,55.9 C72.8,55.8 72.8,55.8 72.7,55.7 C73,55.4 73.2,55.1 73.5,54.9 C75.1,54 76.8,53.2 78.4,52.3 C78.8,52.1 79.4,51.9 79.8,52 C82.2,52.3 83.9,50.6 85.9,50 C86,50 86.1,49.7 86.3,49.3 C85,49.3 83.9,49.4 82.7,49.4 C82.7,49.3 82.6,49.2 82.6,49 C83,48.8 83.5,48.4 83.7,48.5 C84.7,49.1 85.5,48.5 86.3,48.1 C87.5,47.5 88.8,47 89.9,46.3 C90.6,45.9 92.2,46.1 91.6,44.4 C91.6,44.3 92.3,44.1 92.4,43.8 C92.5,43.5 92.4,43 92.4,42.4 C92.9,42 93.6,41.5 94.4,41 C94.3,40.9 94.3,40.8 94.2,40.7 C90.5,42.2 86.8,43.7 82.8,45.4 C83.5,45.9 83.9,46.1 84.5,46.5 C83.5,47.4 82.4,47.9 81.2,48 C78.5,48.3 76,49.5 73.6,50.6 C71.8,51.4 70.1,52.3 68.1,52.9 C68.5,52.6 69,52.3 69.4,51.9 C70,51.4 71.4,51.5 70.7,50 C70.6,49.8 71.5,49.1 72.1,48.8 C74.7,47.4 77.4,46 80.1,44.7 C81.4,44.1 82.6,43.5 84.1,43.3 C85.9,43 87.7,41.9 89.4,41.2 C89.6,41.1 89.8,40.9 89.9,40.8 C90.9,39 92.8,38.4 94.4,37.4 C101.8,32.8 110,29.5 116.8,23.9 C117.7,23.1 118.8,22.5 119.2,21 C118.4,20.7 117.7,20.4 117,20.3 C112.3,19.9 107.7,18.8 103,19.3 C101.8,19.4 100.6,19 99.5,18.9 C98,18.9 96.5,18.9 95,19 C93.5,19.1 91.9,19.3 90.4,19.5 C88.6,19.6 86.9,19.8 85.1,19.8 C84.3,19.8 83.3,20.4 82.6,19.3 C82.5,19.1 81.9,19.2 81.6,19.2 C80.7,19.3 79.9,19.5 79,19.5 C77.8,19.5 76.7,19.7 75.5,19.4 C74.3,19.1 72.9,19.8 71.5,19.9 C70.4,20 69.4,19.9 68.3,19.9 C64.7,19.9 61.2,19.8 57.6,19.8 C53.2,19.8 48.7,20 44.4,19.6 C40.3,19.3 36.4,19.6 32.5,20.5 C30.1,21 27.7,21.2 25.2,21.6 C24,21.8 22.8,22 21.7,22.3 C21.3,22.4 20.9,22.6 20.5,22.7 C19.4,23 18.4,23.4 17.2,23.6 C14.3,24.1 11.4,24.3 8.7,25.6 C6.5,26.6 4.3,26.1 2.7,24.1 C1.7,22.8 0.3,21.6 0.5,19.3 C1,19 1.7,18.6 2.5,18.2 C14.8,12.3 27.9,8.7 41.3,6.3 C49.4,4.8 57.5,3.7 65.7,2.4 C72.3,1.4 79,0.7 85.8,0.4 C94.9,-0.1 103.8,0.9 112.6,2.9 C118.3,4.2 123.8,6.2 129,9.1 C132.3,11 135.2,13.5 137.1,16.8 C138,18.4 138.2,20.4 138.5,22.3 C138.6,22.8 138.2,23.2 138.7,23.7 C139,24 139,24.8 139,25.4 C139,26.3 138.9,27.2 139,28.1 C139.2,29.5 139.5,30.9 138.4,32.2 C138.1,32.5 138.1,33.1 137.9,33.7 C136.6,33.4 136.2,34.6 135.4,35.1 C134.6,35.6 133.6,35.9 132.7,36.3 C133.2,37.5 133.8,37 134.5,36.7 C135.4,36.3 136.2,35.8 137.4,35.2 C137.3,36.1 137.4,36.7 137.2,36.9 C136.3,37.8 135.3,38.5 135.3,39.9 C133.3,41.5 132.2,43.7 131.1,45.9 C130.9,46.3 130.4,46.5 130,46.9 C128.6,48 127.2,49 126.2,50.4 C126.1,50.6 125.9,50.7 125.7,50.7 C124.6,50.9 123.9,51.4 123.9,52.6 C123.9,52.9 123.8,53.2 123.6,53.4 C122.3,54.4 120.9,55.4 119.5,56.3 C118.7,56.8 117.8,57 117,57.4 C115.9,57.9 115.9,57.9 115.6,59.5 C113.4,60.6 111,61.5 109,62.9 C106.4,64.8 103.3,65.5 100.6,67 C100.5,66.9 100.4,66.7 100.4,66.7 C98.9,66.8 97.5,67.4 96.4,68.6 C97,68.4 97.8,68.1 98.7,67.8 Z M58.7,64.1 C58.3,64.1 57.9,64 57.5,64.2 C56,64.8 54.8,66 53.4,66.8 C51.9,67.7 50,68.2 49,69.9 C48.8,70.2 48.4,70.2 48.1,70.4 C46.8,71 45.5,71.6 43.8,72.3 C44.7,71.2 45.3,70.5 45.9,69.7 C44.8,69.4 43,69.9 42.8,70.7 C42.6,71.6 42.6,72.6 42.7,73.6 C42.7,73.8 43.2,74 43.5,74.2 C43.1,74.9 41.6,75 42.6,76.4 C43.6,76.2 44.4,75.7 45.2,75.1 C48.2,72.8 51.1,70.4 54.3,68.4 C55.9,67.3 57.6,66.3 58.7,64.1 Z M42.9,87.3 C47.3,84.7 51.8,82.2 56.2,79.6 C53.7,79.9 44.3,85.3 42.9,87.3 Z M58.9,77.5 C61.3,77.4 71.1,72.5 72.1,71 C67.5,73 62.9,74.7 58.9,77.5 Z M58.3,70 C60.7,70.3 64.6,67.4 65.2,65.4 C63.9,66.1 62.7,66.7 61.6,67.4 C61.9,67.8 62,68 62.1,68.1 C60.8,68.8 59.6,69.4 58.3,70 Z M76.8,55.1 C78.5,55.5 81.5,54.1 83.7,52 C81.1,52.6 79,53.7 76.8,55.1 Z M88.5,72.2 C88.6,72.4 88.6,72.5 88.7,72.7 C91.3,73 93,70.9 95.1,70.1 C95,70 95,69.8 94.9,69.7 C92.8,70.5 90.6,71.4 88.5,72.2 Z M49,64.4 C51.5,63.6 53,62.1 54.7,60.8 C52.8,61.7 50.6,62.2 49,64.4 Z M52.9,63.3 C53.4,63.7 53.9,64.2 54,64.1 C55.2,63.5 56.3,62.8 57.4,62.1 C57.3,62 57.3,61.9 57.2,61.8 C56,62.2 54.6,62.7 52.9,63.3 Z M43,80.7 C44.4,80.6 44.6,80.6 45.2,79.1 C44.4,79.7 43.8,80.1 43,80.7 Z M108.9,17.4 C108.9,17.2 108.9,17.1 108.9,16.9 C108.1,16.9 107.3,17 106.5,17 C106.5,17.1 106.5,17.2 106.5,17.3 C107.3,17.4 108.1,17.4 108.9,17.4 Z M68.8,64 C68.7,63.9 68.7,63.7 68.6,63.6 C67.9,64 67.2,64.3 66.5,64.7 C66.6,64.8 66.6,64.9 66.7,65.1 C67.4,64.7 68.1,64.4 68.8,64 Z" id="Shape"></path>
                <path d="M59.6,81.8 C59.3,82.2 59.2,82.7 58.8,82.8 C57.4,83.5 55.9,84.1 54.4,84.7 C54.4,84.7 54.5,84.7 54.5,84.7 C54.9,84.2 55.3,83.6 55.9,83.4 C57.1,82.9 58.4,82.4 59.6,81.8 L59.6,81.8 Z" id="Path"></path>
                <path d="M73.9,62.5 C72.8,63.1 71.8,64.3 70,63.6 C71.4,62.7 72.7,62.6 73.9,62.5 C74,62.6 73.9,62.5 73.9,62.5 Z" id="Path"></path>
                <path d="M50.3,88.8 C49.8,89.1 49.3,89.4 48.8,89.7 C48.7,89.6 48.7,89.5 48.6,89.4 C49.1,89.1 49.5,88.7 50,88.4 C50,88.6 50.2,88.7 50.3,88.8 Z" id="Path"></path>
                <path d="M59.3,80 C59.9,79.6 60.5,79.2 61.1,78.9 C60.8,79.9 60.1,80.1 59.3,80 C59.2,80 59.3,80 59.3,80 Z" id="Path"></path>
                <path d="M58.4,56.7 C57.6,57.2 56.9,57.6 56.1,58.1 C56.6,57.1 57.5,56.9 58.4,56.7 Z" id="Path"></path>
                <path d="M62,83.8 C62.4,83.7 62.8,83.5 63.2,83.4 C63.2,83.5 63.3,83.6 63.3,83.7 C62.9,83.9 62.5,84 62.1,84.2 C62.1,84.1 62,83.9 62,83.8 Z" id="Path"></path>
            </g>
            <path d="M677.1,64.2 C676.8,64 676.4,63.7 676.1,63.5 C676.2,63.4 676.2,63.3 676.3,63.2 C676.7,63.4 677.1,63.5 677.4,63.7 C677.3,63.9 677.2,64 677.1,64.2 Z" id="Path"></path>
            <path d="M633.8,160.7 C634.2,160.6 634.5,160.6 634.9,160.5 C634.9,160.6 635,160.8 635,160.9 C634.6,161 634.2,161.1 633.9,161.1 C633.8,161 633.8,160.9 633.8,160.7 Z" id="Path"></path>
            <path d="M479,143.5 C479.5,143.7 480,143.8 480.5,144 C480.4,144.2 480.3,144.3 480.2,144.5 C479.8,144.1 479.5,143.8 479,143.5 C479.1,143.5 479,143.5 479,143.5 Z" id="Path"></path>
            <path d="M689.2,122.6 C689,122.9 688.8,123.2 688.7,123.2 C688.5,123.2 688.2,123 688,122.8 C688.1,122.6 688.2,122.3 688.3,122.3 C688.6,122.4 688.8,122.5 689.2,122.6 Z" id="Path"></path>
            <g id="Group">
                <path d="M88.5,133.7 C89,133.6 89.4,133.5 90,133.3 C89,134.4 88.5,134.8 87,135 C85.5,135.2 84.5,136.1 83.5,137.3 C83.9,137.2 84.2,137.2 84.7,137.1 C84.7,137.4 84.9,137.9 84.7,138 C83.7,138.7 82.7,139.3 81.7,139.9 C80.6,140.6 79.3,141.1 78.5,142 C77.8,142.7 77.1,143.1 76.3,143.5 C75.3,143.9 74.7,144.9 73.9,145.2 C72.9,145.6 72.2,146 71.5,146.8 C71.1,147.2 70.3,147.3 69.8,147.6 C68.6,148.2 67.3,148.9 65.8,149.7 C66.4,149.9 66.6,150 67,150.1 C66,150.9 65.2,151.7 64.2,152.4 C63.2,153.1 61.6,152.7 60.8,154.1 C61.2,154.2 61.6,154.3 62.1,154.4 C61.8,154.7 61.7,155 61.5,155.1 C60.2,155.9 58.9,156.6 57.7,157.3 C57.3,157.5 56.8,157.9 56.3,157.8 C54.9,157.7 54.1,158.6 53.1,159.5 C53.9,159.4 54.8,159.4 55.6,159.3 C54.1,160.1 52.9,161.4 51.1,161.3 C50.6,161.3 50.1,161.7 49.6,162 C48.2,162.8 48.2,162.8 48.3,164.3 C47.1,165.2 45.9,166.1 44.7,167.1 C42.5,168.9 40.4,170.7 38.3,172.5 C37.8,172.9 37,173.3 37.5,174.3 C36.6,174.4 35.4,174.3 35.2,175.6 C35.1,176 35.6,176.5 35.8,177 C34.3,178.7 32,179.6 29.7,181 C30.6,181.3 31,181.5 31.7,181.8 C30.5,183.4 28.7,184.4 27.8,185.9 C26.8,187.6 24.9,188.1 23.7,190.1 C24.5,189.8 24.9,189.7 25.3,189.5 C25.3,191.2 24.6,192.7 23.8,194.2 C24.5,194.6 25.1,195 25.8,195.4 C24.8,196.6 23.8,197.4 22.5,197.6 C20.7,197.9 19.1,198.8 17.2,198.2 C16.8,198.1 16.1,198.5 15.7,198.8 C14.1,200.2 12.5,201.1 10.3,200.6 C9.3,200.4 8.1,200.8 7.2,200.5 C3.5,199.4 2.3,196.5 1.8,193 C1.3,189 2.6,185.5 4.3,182.1 C7,176.7 10.7,171.9 14.8,167.5 C22.9,158.9 32,151.5 41.5,144.6 C51.2,137.6 61,130.8 70.9,124.1 C79.9,118 89,112 98,105.9 C100.2,104.4 102.1,102.6 104.1,100.8 C104.6,100.3 105.1,99.8 105.5,99.2 C106.2,98.3 106.1,97.5 105.4,96.7 C104.7,95.9 103.9,95.1 103,94.5 C98,91.1 92.5,89 86.3,89 C82.6,89 78.9,88.9 75.1,89.1 C72,89.3 68.9,89.8 65.7,90.1 C63.8,90.3 62,90.3 60.1,90.5 C57,90.8 54,91.2 50.9,91.4 C47.7,91.6 44.5,91.7 41.3,91.9 C39.3,92 37.3,92.4 35.3,92.3 C32.5,92.3 29.6,92.1 26.8,91.7 C23.2,91.2 19.6,90.5 16.2,89.1 C12.8,87.8 9.6,86.1 7.3,83.3 C5,80.5 2.9,77.5 1.5,74.1 C0.4,71.5 0.8,68.7 1.2,66.1 C1.9,61.7 3.9,57.8 6.5,54.2 C10.9,48.1 16.4,43.1 22.2,38.4 C33.3,29.5 45.5,22.3 58.3,16.1 C66.5,12.2 74.8,8.4 83.1,4.7 C86.5,3.2 90,2 93.5,0.8 C94.3,0.5 95.6,0.6 96.3,1 C98.6,2.3 100.8,3.8 102.8,5.5 C104.8,7.1 104.7,9.5 104.5,11.9 C104.2,15.8 102.2,18.6 99.3,20.9 C97.9,21.9 96.4,22.8 95,23.7 C91.9,25.8 88.7,27.9 85.6,30.1 C81.2,33.2 77,36.6 72.5,39.4 C67.2,42.6 61.6,45.4 56.1,48.2 C50.9,50.9 45.6,53.3 40.6,56.4 C36.8,58.8 33.1,61.3 29.9,64.7 C27.9,66.8 26.1,69.1 24.1,71.3 C24,71.5 23.9,71.7 23.8,72 C24.3,73.2 25.5,73.7 26.5,74.2 C30.2,76 34.2,77 38.2,77.4 C47.5,78.3 56.8,78 66.1,77.8 C72,77.7 77.9,77.4 83.7,77.8 C93.9,78.5 103.9,80.3 112.9,85.5 C117.2,88 121,91 123,95.7 C124.1,98.3 124.1,100.9 123.4,103.8 C122.6,107.2 120.6,109.7 118.4,112.1 C118,112.5 117.7,113 117.4,113.5 C116.5,114.8 115.5,115.7 114,116.1 C112.2,116.6 110.4,117.3 109.1,118.9 C108.9,119.2 108.3,119.2 108,119.5 C107.5,119.9 107,120.3 106.6,120.7 C106.4,120.9 106.3,121.3 106.1,121.3 C103.2,122.4 101.1,124.7 98.2,125.9 C96.3,126.7 94.8,128 93.4,129.5 C92.9,130 92.2,130.1 91.6,130.5 C90.3,131.4 89,132.3 87.8,133.2 C88.3,133.5 88.4,133.6 88.5,133.7 Z" id="Path"></path>
                <path d="M50.2,162.5 C50.5,162.5 50.9,162.4 51.2,162.4 C51.2,162.6 51.2,162.8 51.2,163 C50.9,163 50.5,162.9 50.2,162.9 C50.2,162.8 50.2,162.7 50.2,162.5 Z" id="Path"></path>
            </g>
            <path d="M523.7,53.5 C523.9,53.2 524,53 524.2,52.7 C524.3,52.8 524.4,52.9 524.5,52.9 C524.3,53.2 524.1,53.4 524,53.7 C523.9,53.6 523.8,53.5 523.7,53.5 Z" id="Path"></path>
            <path d="M505.1,75.8 C504.7,76.3 504.4,76.7 504,77.2 C503.9,77.1 503.8,77 503.7,76.8 C504.2,76.4 504.7,76.1 505.1,75.8 C505.2,75.8 505.1,75.8 505.1,75.8 Z" id="Path"></path>
            <path d="M636.6,70.5 C634.2,70.5 631.8,70.4 629.4,70.4 C629.4,70.2 629.4,70 629.4,69.8 C631,70 632.5,70.2 634.1,70.3 C635,70.4 635.8,70.5 636.6,70.5 C636.6,70.5 636.6,70.5 636.6,70.5 Z" id="Path"></path>
            <path d="M585.3,85.7 C585.7,85.5 586.1,85.3 586.6,85 C586.7,85.1 586.7,85.2 586.8,85.3 C586.4,85.5 586,85.8 585.6,86 C585.5,86 585.4,85.9 585.3,85.7 Z" id="Path"></path>
            <g id="Group" transform="translate(274.000000, 223.000000)">
                <path d="M36.5,18.4 C36.5,29.5 29.1,37.6 18.4,37.6 C8,37.6 0.1,29.8 0.1,19.2 C0.1,8.6 7.8,0.7 18.3,0.7 C27.1,0.7 34.4,6.3 36,14.2 L28.1,14.2 C26.6,10.4 22.8,8 18.4,8 C12.1,8 7.8,12.6 7.8,19.2 C7.8,25.7 12,30.3 18.4,30.3 C23,30.3 26.9,27.9 28.2,24.2 L17.6,24.2 L17.6,18.3 L36.5,18.3 L36.5,18.4 Z" id="Path"></path>
                <path d="M60,24.8 L55.1,24.8 L55.1,36.9 L47.4,36.9 L47.4,1.5 L61.7,1.5 C68.8,1.5 74.1,6.4 74.1,13.2 C74.1,17.8 71.6,21.6 67.7,23.5 L75.5,36.9 L67,36.9 L60,24.8 Z M55.1,17.7 L61.2,17.7 C64.4,17.7 66.3,15.8 66.3,13.1 C66.3,10.5 64.4,8.5 61.2,8.5 L55.1,8.5 L55.1,17.7 Z" id="Shape"></path>
                <polygon id="Path" points="107.7 29.7 107.7 36.8 85.9 36.8 85.9 1.4 107.1 1.4 107.1 8.5 93.5 8.5 93.5 15.5 105.8 15.5 105.8 22.4 93.5 22.4 93.5 29.7 107.7 29.7"></polygon>
                <polygon id="Path" points="141 29.7 141 36.8 119.2 36.8 119.2 1.4 140.4 1.4 140.4 8.5 126.8 8.5 126.8 15.5 139.1 15.5 139.1 22.4 126.8 22.4 126.8 29.7 141 29.7"></polygon>
                <polygon id="Path" points="172.7 36.9 160.2 19.6 160.2 36.9 152.5 36.9 152.5 1.5 160.2 1.5 160.2 17.8 171.8 1.5 180.7 1.5 168.7 18.4 182 36.8 172.7 36.8"></polygon>
                <path d="M204.9,25.4 L212.6,25.4 C212.6,28.8 215.4,30.5 218.6,30.5 C221.5,30.5 224.3,29 224.3,26.3 C224.3,23.6 221.1,22.8 217.2,21.9 C211.9,20.6 205.4,19 205.4,11.4 C205.4,4.6 210.4,0.8 218.2,0.8 C226.3,0.8 231,5.1 231,12.2 L223.4,12.2 C223.4,9.2 220.9,7.7 218,7.7 C215.5,7.7 213,8.8 213,11.1 C213,13.6 216.1,14.3 219.8,15.2 C225.2,16.6 232,18.2 232,26.2 C232,33.8 225.9,37.5 218.6,37.5 C210.5,37.6 204.9,33 204.9,25.4 Z" id="Path"></path>
                <polygon id="Path" points="266.9 8.6 257.1 8.6 257.1 36.9 249.4 36.9 249.4 8.6 239.6 8.6 239.6 1.5 266.9 1.5"></polygon>
                <path d="M289.7,24.8 L284.8,24.8 L284.8,36.9 L277.1,36.9 L277.1,1.5 L291.4,1.5 C298.5,1.5 303.8,6.4 303.8,13.2 C303.8,17.8 301.3,21.6 297.4,23.5 L305.2,36.9 L296.7,36.9 L289.7,24.8 Z M284.8,17.7 L290.9,17.7 C294.1,17.7 296,15.8 296,13.1 C296,10.5 294.1,8.5 290.9,8.5 L284.8,8.5 L284.8,17.7 Z" id="Shape"></path>
                <polygon id="Path" points="337.4 29.7 337.4 36.8 315.6 36.8 315.6 1.4 336.8 1.4 336.8 8.5 323.2 8.5 323.2 15.5 335.5 15.5 335.5 22.4 323.2 22.4 323.2 29.7 337.4 29.7"></polygon>
                <polygon id="Path" points="370.6 29.7 370.6 36.8 348.8 36.8 348.8 1.4 370 1.4 370 8.5 356.4 8.5 356.4 15.5 368.7 15.5 368.7 22.4 356.4 22.4 356.4 29.7 370.6 29.7"></polygon>
                <polygon id="Path" points="406.5 8.6 396.7 8.6 396.7 36.9 389 36.9 389 8.6 379.2 8.6 379.2 1.5 406.5 1.5"></polygon>
            </g>
        </g>
    </g>
</svg>