<?xml version="1.0" encoding="iso-8859-1"?>
<!-- Generator: Adobe Illustrator 22.0.1, SVG Export Plug-In . SVG Version: 6.00 Build 0)  -->
<svg version="1.1" id="Layer_1" xmlns="http://www.w3.org/2000/svg" xmlns:xlink="http://www.w3.org/1999/xlink" x="0px" y="0px"
	 viewBox="0 0 566.929 251.179" style="enable-background:new 0 0 566.929 251.179;" xml:space="preserve">
<path style="fill:#003C69;" d="M178.791,155.854l16.496-16.496h29.423V176.5h-45.919V155.854z M178.791,94.662v-19.81h45.919v37.14
	H196.12L178.791,94.662z M151.425,47.422v59.79l6.477,6.476l11.981,11.981l-11.981,11.98v-0.001l-6.477,6.476v59.752l100.648,0.025
	V47.381L151.425,47.422z"/>
<path style="fill:#63CECA;" d="M74.769,139.358h29.423l16.496,16.497V176.5H74.769V139.358z M74.769,74.852h45.919v19.81
	l-17.329,17.331H74.769V74.852z M47.405,203.901l100.648-0.024v-59.752l-6.477-6.476v0.001l-11.981-11.98l11.981-11.981l6.477-6.477
	v-59.79L47.405,47.381V203.901z"/>
<polygon style="fill:#63CECA;" points="272.417,47.33 303.854,47.33 303.854,56.226 292.678,56.226 292.678,94.747 283.525,94.747 
	283.525,56.226 272.417,56.226 "/>
<path style="fill:#63CECA;" d="M308.372,45.929h8.736v17.084c1.719-1.484,3.45-2.595,5.191-3.336
	c1.739-0.742,3.502-1.113,5.285-1.113c3.483,0,6.415,1.204,8.802,3.611c2.04,2.083,3.061,5.147,3.061,9.187v23.176h-8.671V79.162
	c0-4.06-0.194-6.812-0.58-8.25c-0.387-1.441-1.047-2.515-1.982-3.224c-0.935-0.709-2.092-1.065-3.466-1.065
	c-1.783,0-3.314,0.592-4.593,1.774c-1.28,1.181-2.165,2.792-2.66,4.835c-0.257,1.054-0.387,3.461-0.387,7.22v14.087h-8.736V45.929z"
	/>
<path style="fill:#63CECA;" d="M371.969,72.619c-0.581-1.954-1.727-3.545-3.438-4.77c-1.711-1.226-3.697-1.838-5.958-1.838
	c-2.454,0-4.605,0.686-6.456,2.064c-1.164,0.859-2.241,2.373-3.23,4.544H371.969z M380.769,79.55H352.5
	c0.408,2.493,1.499,4.477,3.272,5.947c1.771,1.473,4.034,2.208,6.784,2.208c3.289,0,6.114-1.149,8.478-3.447l7.414,3.481
	c-1.849,2.622-4.06,4.561-6.641,5.817c-2.578,1.259-5.64,1.886-9.185,1.886c-5.501,0-9.983-1.735-13.442-5.205
	c-3.46-3.47-5.191-7.817-5.191-13.039c0-5.351,1.725-9.793,5.174-13.329c3.449-3.536,7.773-5.304,12.975-5.304
	c5.522,0,10.014,1.768,13.474,5.304c3.458,3.536,5.189,8.204,5.189,14.006L380.769,79.55z"/>
<path style="fill:#003C69;" d="M292.601,128.551v12.153h2.263c3.75,0,6.278-0.472,7.581-1.418c1.304-0.946,1.956-2.321,1.956-4.126
	c0-2.042-0.765-3.655-2.296-4.836c-1.529-1.181-4.072-1.773-7.629-1.773H292.601z M292.601,110.499v9.993h1.974
	c2.201,0,3.835-0.461,4.903-1.386c1.067-0.923,1.601-2.18,1.601-3.771c0-1.482-0.508-2.659-1.522-3.53s-2.556-1.306-4.627-1.306
	H292.601z M283.575,149.311v-47.417h7.456c4.326,0,7.489,0.28,9.49,0.838c2.84,0.753,5.098,2.148,6.776,4.191
	c1.679,2.04,2.518,4.447,2.518,7.22c0,1.806-0.382,3.444-1.146,4.917c-0.762,1.47-2.003,2.85-3.722,4.141
	c2.879,1.354,4.986,3.047,6.317,5.079c1.334,2.03,1.999,4.431,1.999,7.203c0,2.666-0.688,5.093-2.065,7.286
	c-1.379,2.191-3.152,3.831-5.324,4.914c-2.175,1.087-5.176,1.629-9.003,1.629H283.575z"/>
<path style="fill:#003C69;" d="M334.927,121.621c-2.735,0-5.011,0.951-6.831,2.852c-1.819,1.901-2.727,4.335-2.727,7.302
	c0,3.052,0.898,5.524,2.695,7.413c1.798,1.892,4.074,2.837,6.829,2.837c2.755,0,5.048-0.956,6.878-2.869
	c1.83-1.913,2.746-4.373,2.746-7.381c0-3.008-0.899-5.453-2.698-7.334C340.022,122.561,337.725,121.621,334.927,121.621
	 M334.78,113.336c3.31,0,6.421,0.828,9.332,2.483c2.913,1.655,5.185,3.901,6.818,6.737c1.635,2.838,2.451,5.9,2.451,9.187
	c0,3.31-0.823,6.405-2.466,9.284c-1.643,2.879-3.885,5.13-6.722,6.753c-2.836,1.621-5.963,2.434-9.379,2.434
	c-5.029,0-9.323-1.789-12.88-5.368c-3.556-3.577-5.333-7.923-5.333-13.039c0-5.478,2.008-10.045,6.027-13.699
	C326.153,114.927,330.204,113.336,334.78,113.336"/>
<path style="fill:#003C69;" d="M374.912,121.621c-2.735,0-5.011,0.951-6.831,2.852c-1.819,1.901-2.727,4.335-2.727,7.302
	c0,3.052,0.898,5.524,2.695,7.413c1.798,1.892,4.074,2.837,6.829,2.837c2.755,0,5.048-0.956,6.878-2.869
	c1.829-1.913,2.746-4.373,2.746-7.381c0-3.008-0.899-5.453-2.698-7.334C380.007,122.561,377.71,121.621,374.912,121.621
	 M374.765,113.336c3.31,0,6.421,0.828,9.332,2.483c2.913,1.655,5.185,3.901,6.818,6.737c1.635,2.838,2.451,5.9,2.451,9.187
	c0,3.31-0.822,6.405-2.466,9.284c-1.643,2.879-3.885,5.13-6.721,6.753c-2.837,1.621-5.964,2.434-9.38,2.434
	c-5.029,0-9.323-1.789-12.879-5.368c-3.557-3.577-5.334-7.923-5.334-13.039c0-5.478,2.008-10.045,6.028-13.699
	C366.138,114.927,370.19,113.336,374.765,113.336"/>
<polygon style="fill:#003C69;" points="397.384,100.701 406.184,100.701 406.184,128.697 419.142,114.238 430.193,114.238 
	415.086,131.048 431.999,149.311 421.076,149.311 406.184,133.148 406.184,149.311 397.384,149.311 "/>
<rect x="434.655" y="114.238" style="fill:#003C69;" width="8.8" height="35.073"/>
<rect x="434.655" y="103.164" style="fill:#003C69;" width="8.8" height="8.109"/>
<g>
	<path style="fill:#003C69;" d="M448.301,114.238h8.8v3.594c1.996-1.681,3.803-2.85,5.424-3.51c1.619-0.658,3.278-0.987,4.972-0.987
		c3.478,0,6.427,1.216,8.853,3.643c2.038,2.064,3.058,5.115,3.058,9.155v23.177h-8.703v-15.359c0-4.187-0.189-6.965-0.562-8.339
		c-0.376-1.372-1.029-2.421-1.962-3.139c-0.933-0.72-2.086-1.079-3.456-1.079c-1.78,0-3.308,0.596-4.584,1.787
		c-1.275,1.191-2.159,2.84-2.654,4.942c-0.256,1.097-0.385,3.468-0.385,7.117v14.07h-8.8V114.238z"/>
	<path style="fill:#003C69;" d="M501.672,121.557c-2.772,0-5.061,0.929-6.866,2.787c-1.806,1.86-2.708,4.199-2.708,7.011
		c0,2.923,0.925,5.32,2.772,7.189c1.849,1.872,4.169,2.806,6.964,2.806c2.729,0,4.98-0.914,6.752-2.74
		c1.774-1.826,2.659-4.224,2.659-7.188c0-2.923-0.891-5.298-2.674-7.125C506.785,122.47,504.487,121.557,501.672,121.557
		 M510.793,114.238h8.768v30.043c0,5.931-1.192,10.293-3.577,13.088c-3.203,3.782-8.027,5.672-14.474,5.672
		c-3.438,0-6.329-0.429-8.67-1.288c-2.343-0.859-4.32-2.123-5.932-3.787c-1.612-1.667-2.804-3.692-3.577-6.076h9.703
		c0.858,0.989,1.966,1.735,3.32,2.24c1.354,0.506,2.954,0.758,4.803,0.758c2.363,0,4.266-0.365,5.705-1.097
		c1.441-0.73,2.457-1.675,3.047-2.836c0.59-1.161,0.886-3.16,0.886-5.996c-1.546,1.548-3.169,2.66-4.868,3.336
		c-1.696,0.678-3.62,1.016-5.77,1.016c-4.706,0-8.682-1.697-11.926-5.094c-3.246-3.394-4.867-7.692-4.867-12.894
		c0-5.564,1.719-10.035,5.157-13.409c3.117-3.051,6.834-4.578,11.152-4.578c2.02,0,3.928,0.371,5.721,1.114
		c1.794,0.74,3.597,1.961,5.4,3.658V114.238z"/>
	<path style="fill:#003C69;" d="M292.601,183.238v12.153h2.263c3.75,0,6.278-0.471,7.581-1.418c1.304-0.946,1.956-2.321,1.956-4.126
		c0-2.042-0.765-3.655-2.296-4.836c-1.529-1.181-4.072-1.773-7.629-1.773H292.601z M292.601,165.186v9.993h1.974
		c2.201,0,3.835-0.461,4.903-1.386c1.067-0.923,1.601-2.18,1.601-3.771c0-1.482-0.508-2.659-1.522-3.53
		c-1.013-0.87-2.556-1.306-4.627-1.306H292.601z M283.575,203.997V156.58h7.456c4.326,0,7.489,0.28,9.49,0.838
		c2.84,0.753,5.098,2.148,6.776,4.191c1.679,2.04,2.518,4.447,2.518,7.22c0,1.806-0.382,3.444-1.146,4.917
		c-0.762,1.47-2.003,2.85-3.722,4.141c2.879,1.355,4.986,3.047,6.317,5.079c1.334,2.03,1.999,4.431,1.999,7.203
		c0,2.666-0.688,5.093-2.065,7.286c-1.379,2.19-3.152,3.831-5.324,4.914c-2.175,1.087-5.176,1.629-9.003,1.629H283.575z"/>
	<path style="fill:#003C69;" d="M334.915,176.306c-2.735,0-5.011,0.952-6.831,2.853c-1.819,1.902-2.727,4.335-2.727,7.302
		c0,3.052,0.898,5.523,2.695,7.413c1.798,1.892,4.074,2.837,6.829,2.837c2.755,0,5.048-0.955,6.878-2.869
		c1.829-1.913,2.746-4.373,2.746-7.381s-0.899-5.453-2.698-7.334C340.01,177.247,337.713,176.306,334.915,176.306 M334.767,168.022
		c3.31,0,6.421,0.828,9.332,2.483c2.913,1.655,5.185,3.901,6.818,6.737c1.634,2.839,2.451,5.9,2.451,9.187
		c0,3.31-0.823,6.405-2.466,9.283c-1.643,2.879-3.885,5.131-6.722,6.754c-2.836,1.621-5.963,2.434-9.379,2.434
		c-5.029,0-9.323-1.789-12.879-5.368c-3.557-3.577-5.334-7.923-5.334-13.039c0-5.478,2.008-10.045,6.028-13.7
		C326.141,169.613,330.191,168.022,334.767,168.022"/>
</g>
<polygon style="fill:#003C69;" points="377.35,168.924 370.453,178.485 363.52,168.924 353.302,168.924 365.356,185.547 
	352.044,203.997 362.093,203.997 370.393,192.493 378.737,203.997 388.954,203.997 375.489,185.43 387.394,168.924 "/>
<g>
</g>
<g>
</g>
<g>
</g>
<g>
</g>
<g>
</g>
<g>
</g>
</svg>
