<?xml version="1.0" encoding="UTF-8"?>
<svg width="473px" height="160px" viewBox="0 0 473 160" version="1.1" xmlns="http://www.w3.org/2000/svg" xmlns:xlink="http://www.w3.org/1999/xlink">
    <!-- Generator: Sketch 64 (93537) - https://sketch.com -->
    <title>TheBookingBox_Logo</title>
    <desc>Created with Sketch.</desc>
    <g id="Page-1" stroke="none" stroke-width="1" fill="none" fill-rule="evenodd">
        <g id="TheBookingBox_Logo" fill-rule="nonzero">
            <path d="M131.79,110.85 L148.29,94.36 L177.71,94.36 L177.71,131.5 L131.79,131.5 L131.79,110.85 Z M131.79,49.66 L131.79,29.85 L177.71,29.85 L177.71,67 L149.12,67 L131.79,49.66 Z M104.43,2.42 L104.43,62.21 L110.9,68.69 L122.9,80.69 L110.9,92.69 L110.9,92.69 L104.43,99.16 L104.43,158.92 L205.07,158.92 L205.07,2.38 L104.43,2.42 Z" id="Shape" fill="#003C69"></path>
            <path d="M27.77,94.36 L57.19,94.36 L73.69,110.86 L73.69,131.5 L27.77,131.5 L27.77,94.36 Z M27.77,29.85 L73.69,29.85 L73.69,49.66 L56.36,67 L27.77,67 L27.77,29.85 Z M0.4,158.9 L101.05,158.9 L101.05,99.13 L94.58,92.65 L94.58,92.65 L82.58,80.65 L94.58,68.65 L101.05,62.17 L101.05,2.42 L0.4,2.42 L0.4,158.9 Z" id="Shape" fill="#63CECA"></path>
            <polygon id="Path" fill="#63CECA" points="225.42 2.33 256.85 2.33 256.85 11.23 245.68 11.23 245.68 49.75 236.52 49.75 236.52 11.23 225.42 11.23"></polygon>
            <path d="M261.37,0.93 L270.11,0.93 L270.11,18 C271.658227,16.6294003 273.408865,15.5061587 275.3,14.67 C276.965815,13.9424006 278.762251,13.5613382 280.58,13.55 C283.892115,13.479983 287.08397,14.7915055 289.39,17.17 C291.43,19.25 292.45,22.31 292.45,26.35 L292.45,49.54 L283.78,49.54 L283.78,34.16 C283.884233,31.397139 283.689772,28.6311006 283.2,25.91 C282.916453,24.6414604 282.211459,23.5064203 281.2,22.69 C280.198759,21.9564751 278.980533,21.5797405 277.74,21.62 C276.036368,21.5917785 274.389179,22.2305578 273.15,23.4 C271.797463,24.7056188 270.870387,26.3889942 270.49,28.23 C270.140984,30.6198265 270.010445,33.0364834 270.1,35.45 L270.1,49.54 L261.36,49.54 L261.36,0.93 L261.37,0.93 Z" id="Path" fill="#63CECA"></path>
            <path d="M325,27.62 C324.432067,25.6836361 323.218028,24.0002157 321.56,22.85 C319.811177,21.6048258 317.706222,20.9593064 315.56,21.01 C313.240244,20.9677191 310.971921,21.6956925 309.11,23.08 C307.672211,24.3008771 306.561974,25.8613957 305.88,27.62 L325,27.62 Z M333.8,34.55 L305.5,34.55 C305.8025,36.8881714 306.968989,39.0285174 308.77,40.55 C310.696983,42.0735302 313.105429,42.8574279 315.56,42.76 C318.731426,42.785473 321.777322,41.5223646 324,39.26 L331.42,42.74 C329.738829,45.2141731 327.453158,47.2175776 324.78,48.56 C321.900551,49.8806182 318.75674,50.5237483 315.59,50.44 C310.09,50.44 305.61,48.7066667 302.15,45.24 C298.709248,41.8025464 296.832629,37.1019582 296.96,32.24 C296.806786,27.2798354 298.672377,22.4697126 302.13,18.91 C305.52457,15.3928693 310.243961,13.4688102 315.13,13.61 C320.65,13.61 325.14,15.3766667 328.6,18.91 C332.06,22.4433333 333.79,27.11 333.79,32.91 L333.8,34.55 Z" id="Shape" fill="#63CECA"></path>
            <path d="M245.6,83.55 L245.6,95.7 L247.86,95.7 C251.613333,95.7 254.143333,95.23 255.45,94.29 C256.756725,93.3317839 257.490408,91.7778793 257.4,90.16 C257.471586,88.269767 256.616912,86.4633819 255.11,85.32 C253.58,84.14 251.03,83.55 247.48,83.55 L245.6,83.55 Z M245.6,65.5 L245.6,75.5 L247.6,75.5 C249.345397,75.6365956 251.08242,75.1473933 252.5,74.12 C253.577931,73.171342 254.166561,71.784384 254.1,70.35 C254.159685,69.0028263 253.599722,67.7023862 252.58,66.82 C251.242665,65.8443547 249.60026,65.3796569 247.95,65.51 L245.6,65.5 Z M236.6,104.31 L236.6,56.89 L244,56.89 C247.185905,56.7762224 250.373614,57.05838 253.49,57.73 C256.13914,58.3675622 258.514895,59.8357652 260.27,61.92 C261.94644,63.9478385 262.840505,66.5094051 262.79,69.14 C262.810438,70.8488954 262.415809,72.5372192 261.64,74.06 C260.750431,75.6940736 259.506761,77.1085777 258,78.2 C260.533475,79.2758336 262.7181,81.034612 264.31,83.28 C265.680229,85.4266414 266.376771,87.9341919 266.31,90.48 C266.339372,93.0576322 265.624075,95.5889524 264.25,97.77 C262.9687,99.8739224 261.121786,101.575301 258.92,102.68 C256.753333,103.766667 253.753333,104.31 249.92,104.31 L236.6,104.31 Z" id="Shape" fill="#003C69"></path>
            <path d="M287.93,76.62 C285.351434,76.5544292 282.867165,77.5910569 281.1,79.47 C279.25134,81.4449562 278.268476,84.0767263 278.37,86.78 C278.252988,89.5083086 279.220015,92.1721263 281.06,94.19 C282.824462,96.0717281 285.311538,97.1058855 287.89,97.03 C290.487222,97.0958032 292.989473,96.0519864 294.77,94.16 C298.418537,89.9385932 298.439775,83.6860954 294.82,79.44 C293.029759,77.5616448 290.523472,76.5358494 287.93,76.62 M287.78,68.3396817 C291.054558,68.3272953 294.273939,69.1830365 297.11,70.82 C302.854337,74.0570339 306.4001,80.1464126 306.380204,86.74 C306.395362,90.0009501 305.542873,93.2072782 303.91,96.03 C302.328426,98.8514415 300.004369,101.185874 297.19,102.78 C294.333843,104.406729 291.096736,105.245339 287.81,105.21 C282.959318,105.285835 278.294806,103.344703 274.93,99.85 C271.396683,96.2516653 269.475938,91.372838 269.607909,86.331516 C269.739881,81.2901939 271.913256,76.5185425 275.63,73.11 C278.918339,70.0205656 283.268122,68.3128732 287.78,68.3396817" id="Shape" fill="#003C69"></path>
            <path d="M327.91,76.62 C325.331674,76.5557079 322.847906,77.5921265 321.08,79.47 C319.23134,81.4449562 318.248476,84.0767263 318.35,86.78 C318.231286,89.5103875 319.20257,92.1760213 321.05,94.19 C322.814462,96.0717281 325.301538,97.1058855 327.88,97.03 C330.476744,97.0932518 332.977996,96.0498516 334.76,94.16 C338.385674,89.9231116 338.385674,83.6768884 334.76,79.44 C332.970496,77.5605666 330.463703,76.5345644 327.87,76.62 M327.73,68.34 C331.004558,68.3272953 334.223939,69.1830365 337.06,70.82 C342.804337,74.0570339 346.3501,80.1464126 346.330253,86.74 C346.346993,89.9864721 345.508899,93.1801929 343.9,96 C342.315564,98.8192781 339.992193,101.153022 337.18,102.75 C334.322755,104.374049 331.086385,105.212469 327.8,105.18 C322.949086,105.257045 318.284111,103.31572 314.92,99.82 C309.678082,94.5629461 308.093169,86.6783031 310.89654,79.8040444 C313.699911,72.9297857 320.346669,68.402076 327.77,68.31" id="Shape" fill="#003C69"></path>
            <polygon id="Path" fill="#003C69" points="350.38 55.7 359.18 55.7 359.18 83.7 372.14 69.24 383.19 69.24 368.09 86.05 385 104.31 374.08 104.31 359.18 88.15 359.18 104.31 350.38 104.31"></polygon>
            <rect id="Rectangle" fill="#003C69" x="387.65" y="69.24" width="8.8" height="35.07"></rect>
            <rect id="Rectangle" fill="#003C69" x="387.65" y="58.16" width="8.8" height="8.11"></rect>
            <path d="M401.3,69.24 L410.1,69.24 L410.1,72.83 C411.71779,71.3913541 413.545453,70.2077563 415.52,69.32 C417.104851,68.6616368 418.803844,68.3218381 420.52,68.32 C423.8471,68.2537359 427.052321,69.5720414 429.37,71.96 C431.41,74.02 432.43,77.07 432.43,81.11 L432.43,104.29 L423.73,104.29 L423.73,89 C423.844063,86.2075407 423.65293,83.4109741 423.16,80.66 C422.862842,79.4192928 422.158734,78.3138432 421.16,77.52 C420.165633,76.7794072 418.949165,76.3985996 417.71,76.44 C416.004585,76.4123308 414.356429,77.0550758 413.12,78.23 C411.762373,79.5744909 410.83926,81.2953125 410.47,83.17 C410.125824,85.5267433 409.995294,87.9097645 410.08,90.29 L410.08,104.36 L401.28,104.36 L401.28,69.24 L401.3,69.24 Z" id="Path" fill="#003C69"></path>
            <path d="M454.67,76.56 C452.094298,76.4816278 449.604484,77.4906193 447.81,79.34 C445.999002,81.2119897 445.021634,83.7365567 445.1,86.34 C444.999773,89.0119037 446.001225,91.6077248 447.87,93.52 C449.705232,95.3980554 452.245604,96.4178332 454.87,96.33 C457.409048,96.4116448 459.86435,95.4164484 461.63,93.59 C463.44364,91.646821 464.398755,89.0553969 464.28,86.4 C464.38917,83.763302 463.425971,81.1947702 461.61,79.28 C459.796982,77.4379995 457.29277,76.4435733 454.71,76.54 M463.83,69.22 L472.6,69.22 L472.6,99.22 C472.6,105.153333 471.406667,109.516667 469.02,112.31 C465.82,116.09 460.996667,117.98 454.55,117.98 C451.606981,118.057314 448.673026,117.620774 445.88,116.69 C441.314846,115.114474 437.779575,111.449092 436.37,106.83 L446,106.83 C446.898844,107.846082 448.041311,108.616904 449.32,109.07 C450.864978,109.608961 452.494117,109.866371 454.13,109.83 C456.089581,109.910147 458.040959,109.533565 459.83,108.73 C461.124794,108.139576 462.194473,107.147054 462.88,105.9 C463.47,104.73 463.76,102.74 463.76,99.9 C462.386442,101.335134 460.732092,102.472074 458.9,103.24 C457.056909,103.93411 455.099177,104.273405 453.13,104.24 C448.609867,104.320012 444.270159,102.468452 441.2,99.15 C437.91917,95.6728518 436.165573,91.0277996 436.33,86.25 C436.33,80.69 438.05,76.22 441.49,72.84 C444.430345,69.8634686 448.456443,68.21331 452.64,68.27 C454.601309,68.2581097 456.545495,68.6353905 458.36,69.38 C460.36866,70.2595346 462.198947,71.5000624 463.76,73.04 L463.76,69.17 L463.83,69.22 Z" id="Shape" fill="#003C69"></path>
            <path d="M245.6,138.24 L245.6,150.39 L247.86,150.39 C251.613333,150.39 254.143333,149.916667 255.45,148.97 C256.756572,148.016175 257.490676,146.465144 257.4,144.85 C257.473301,142.959416 256.618271,141.152278 255.11,140.01 C253.58,138.83 251.03,138.24 247.48,138.24 L245.6,138.24 Z M245.6,120.19 L245.6,130.19 L247.6,130.19 C249.347154,130.329073 251.086119,129.835774 252.5,128.8 C253.580368,127.853102 254.16952,126.464913 254.1,125.03 C254.156714,123.683372 253.597284,122.38417 252.58,121.5 C251.238617,120.533489 249.598427,120.072961 247.95,120.2 L245.6,120.19 Z M236.6,159 L236.6,111.58 L244,111.58 C247.185905,111.466222 250.373614,111.74838 253.49,112.42 C256.140785,113.05361 258.517694,114.522526 260.27,116.61 C261.94644,118.637838 262.840505,121.199405 262.79,123.83 C262.809243,125.538765 262.414681,127.226807 261.64,128.75 C260.727457,130.392436 259.455837,131.807626 257.92,132.89 C260.457604,133.958929 262.643963,135.719104 264.23,137.97 C265.600229,140.116641 266.296771,142.624192 266.23,145.17 C266.258237,147.747481 265.543028,150.278487 264.17,152.46 C262.8887,154.563922 261.041786,156.265301 258.84,157.37 C256.673333,158.456667 253.673333,159 249.84,159 L236.6,159 Z" id="Shape" fill="#003C69"></path>
            <path d="M287.92,131.31 C285.338461,131.244119 282.850991,132.280565 281.08,134.16 C279.238443,136.134679 278.259593,138.76174 278.36,141.46 C278.242988,144.188309 279.210015,146.852126 281.05,148.87 C282.814462,150.751728 285.301538,151.785886 287.88,151.71 C290.478181,151.780946 292.982452,150.736287 294.76,148.84 C298.407052,144.621838 298.428292,138.372858 294.81,134.13 C293.018294,132.253794 290.513011,131.228409 287.92,131.31 M287.77,123.02 C291.045411,123.010812 294.26473,123.869987 297.1,125.51 C302.850531,128.740747 306.398625,134.834128 306.370172,141.43 C306.380242,144.68713 305.528041,147.888921 303.9,150.71 C302.315791,153.532034 299.992583,155.869071 297.18,157.47 C294.323298,159.095387 291.08656,159.933902 287.8,159.9 C282.94782,159.973229 278.283085,158.028382 274.92,154.53 C269.67401,149.271267 268.086452,141.382658 270.889832,134.504014 C273.693213,127.625369 280.342625,123.093724 287.77,123" id="Shape" fill="#003C69"></path>
            <polygon id="Path" fill="#003C69" points="330.35 123.92 323.45 133.49 316.52 123.92 306.3 123.92 318.36 140.55 305.04 159 315.09 159 323.39 147.49 331.74 159 341.95 159 328.49 140.43 340.39 123.92"></polygon>
        </g>
    </g>
</svg>