<svg id="Layer_1" data-name="Layer 1" xmlns="http://www.w3.org/2000/svg" viewBox="0 0 566.93 251.18"><defs><style>.cls-1{fill:#003c69;}.cls-2{fill:#63ceca;}</style></defs><title>TheBookingBox_Logo</title><path class="cls-1" d="M178.79,155.85l16.5-16.49h29.42V176.5H178.79V155.85Zm0-61.19V74.85h45.92V112H196.12ZM151.43,47.42v59.79l6.47,6.48,12,12-12,12h0l-6.47,6.47v59.76l100.64,0V47.38Z"/><path class="cls-2" d="M74.77,139.36h29.42l16.5,16.5V176.5H74.77Zm0-64.51h45.92V94.66L103.36,112H74.77ZM47.4,203.9l100.65,0V144.13l-6.47-6.48h0l-12-12,12-12,6.47-6.48V47.42l-100.65,0Z"/><polygon class="cls-2" points="272.42 47.33 303.85 47.33 303.85 56.23 292.68 56.23 292.68 94.75 283.52 94.75 283.52 56.23 272.42 56.23 272.42 47.33"/><path class="cls-2" d="M308.37,45.93h8.74V63a20.08,20.08,0,0,1,5.19-3.33,13.4,13.4,0,0,1,5.28-1.12,11.92,11.92,0,0,1,8.81,3.62q3.06,3.12,3.06,9.18V94.54h-8.67V79.16a38.4,38.4,0,0,0-.58-8.25,5.75,5.75,0,0,0-2-3.22,5.55,5.55,0,0,0-3.46-1.07,6.53,6.53,0,0,0-4.59,1.78,9.34,9.34,0,0,0-2.66,4.83,39.76,39.76,0,0,0-.39,7.22V94.54h-8.74V45.93Z"/><path class="cls-2" d="M372,72.62a8.83,8.83,0,0,0-3.44-4.77,9.94,9.94,0,0,0-6-1.84,10.49,10.49,0,0,0-6.45,2.07,11.33,11.33,0,0,0-3.23,4.54Zm8.8,6.93H352.5a9.44,9.44,0,0,0,3.27,6,10.29,10.29,0,0,0,6.79,2.21A11.7,11.7,0,0,0,371,84.26l7.42,3.48a17.55,17.55,0,0,1-6.64,5.82,20.73,20.73,0,0,1-9.19,1.88q-8.25,0-13.44-5.2a17.72,17.72,0,0,1-5.19-13,18.32,18.32,0,0,1,5.17-13.33,17.37,17.37,0,0,1,13-5.3q8.28,0,13.47,5.3t5.19,14Z"/><path class="cls-1" d="M292.6,128.55V140.7h2.26q5.63,0,7.59-1.41a4.79,4.79,0,0,0,1.95-4.13,5.8,5.8,0,0,0-2.29-4.84c-1.53-1.18-4.08-1.77-7.63-1.77Zm0-18.05v10h2a7.37,7.37,0,0,0,4.9-1.38,4.73,4.73,0,0,0,1.6-3.77,4.41,4.41,0,0,0-1.52-3.53,6.93,6.93,0,0,0-4.63-1.31Zm-9,38.81V101.89H291a38.52,38.52,0,0,1,9.49.84,12.77,12.77,0,0,1,6.78,4.19,11,11,0,0,1,2.52,7.22,10.56,10.56,0,0,1-1.15,4.92A12.48,12.48,0,0,1,305,123.2a14.85,14.85,0,0,1,6.31,5.08,12.76,12.76,0,0,1,2,7.2,13.39,13.39,0,0,1-2.06,7.29,13.14,13.14,0,0,1-5.33,4.91q-3.25,1.63-9,1.63Z"/><path class="cls-1" d="M334.93,121.62a9.06,9.06,0,0,0-6.83,2.85,10.14,10.14,0,0,0-2.73,7.31,10.34,10.34,0,0,0,2.69,7.41,9,9,0,0,0,6.83,2.84,9.13,9.13,0,0,0,6.88-2.87,11.3,11.3,0,0,0,.05-14.72,9.11,9.11,0,0,0-6.89-2.82m-.15-8.28a18.52,18.52,0,0,1,9.33,2.48,18.21,18.21,0,0,1,9.27,15.92,18.38,18.38,0,0,1-2.47,9.29,17.71,17.71,0,0,1-6.72,6.75,18.55,18.55,0,0,1-9.38,2.43,17.5,17.5,0,0,1-12.88-5.36,18.6,18.6,0,0,1,.7-26.74,17.59,17.59,0,0,1,12.15-4.77"/><path class="cls-1" d="M374.91,121.62a9.07,9.07,0,0,0-6.83,2.85,10.14,10.14,0,0,0-2.73,7.31,10.3,10.3,0,0,0,2.7,7.41,9,9,0,0,0,6.83,2.84,9.15,9.15,0,0,0,6.88-2.87,11.32,11.32,0,0,0,0-14.72,9.1,9.1,0,0,0-6.89-2.82m-.14-8.28a18.52,18.52,0,0,1,9.33,2.48,18.21,18.21,0,0,1,9.27,15.92A18.49,18.49,0,0,1,390.9,141a17.78,17.78,0,0,1-6.72,6.75,18.61,18.61,0,0,1-9.38,2.43,17.49,17.49,0,0,1-12.88-5.36,18.47,18.47,0,0,1,12.85-31.51"/><polygon class="cls-1" points="397.38 100.7 406.18 100.7 406.18 128.7 419.14 114.24 430.19 114.24 415.09 131.05 432 149.31 421.08 149.31 406.18 133.15 406.18 149.31 397.38 149.31 397.38 100.7"/><rect class="cls-1" x="434.65" y="114.24" width="8.8" height="35.07"/><rect class="cls-1" x="434.65" y="103.16" width="8.8" height="8.11"/><path class="cls-1" d="M448.3,114.24h8.8v3.59a21.3,21.3,0,0,1,5.42-3.51,13.07,13.07,0,0,1,5-1,12,12,0,0,1,8.85,3.64q3.06,3.09,3.06,9.15v23.18h-8.7V134a38.4,38.4,0,0,0-.57-8.34,5.71,5.71,0,0,0-2-3.14,5.47,5.47,0,0,0-3.45-1.08,6.51,6.51,0,0,0-4.59,1.79,9.55,9.55,0,0,0-2.65,4.94,39.54,39.54,0,0,0-.39,7.12v14.07h-8.8V114.24Z"/><path class="cls-1" d="M501.67,121.56a9.17,9.17,0,0,0-6.86,2.78,9.65,9.65,0,0,0-2.71,7,9.75,9.75,0,0,0,2.77,7.18,9.35,9.35,0,0,0,7,2.81,9,9,0,0,0,6.76-2.74,9.89,9.89,0,0,0,2.65-7.19,9.76,9.76,0,0,0-2.67-7.12,9.2,9.2,0,0,0-6.9-2.74m9.12-7.32h8.77v30q0,8.9-3.58,13.09-4.8,5.67-14.47,5.67a25.32,25.32,0,0,1-8.67-1.29,15.09,15.09,0,0,1-9.51-9.86H493a8,8,0,0,0,3.32,2.24,13.68,13.68,0,0,0,4.81.76,12.65,12.65,0,0,0,5.7-1.1,6.61,6.61,0,0,0,3.05-2.83c.59-1.17.88-3.16.88-6a14.47,14.47,0,0,1-4.86,3.34,15.62,15.62,0,0,1-5.77,1,15.87,15.87,0,0,1-11.93-5.09,17.9,17.9,0,0,1-4.87-12.9q0-8.34,5.16-13.41a15.38,15.38,0,0,1,11.15-4.57,14.83,14.83,0,0,1,5.72,1.11,17.93,17.93,0,0,1,5.4,3.66v-3.87Z"/><path class="cls-1" d="M292.6,183.24v12.15h2.26q5.63,0,7.59-1.42a4.77,4.77,0,0,0,1.95-4.12,5.79,5.79,0,0,0-2.29-4.84c-1.53-1.18-4.08-1.77-7.63-1.77Zm0-18.05v10h2a7.31,7.31,0,0,0,4.9-1.39,4.71,4.71,0,0,0,1.6-3.77,4.43,4.43,0,0,0-1.52-3.53,7,7,0,0,0-4.63-1.3Zm-9,38.81V156.58H291a38.52,38.52,0,0,1,9.49.84,12.71,12.71,0,0,1,6.78,4.19,11,11,0,0,1,2.52,7.22,10.59,10.59,0,0,1-1.15,4.92,12.48,12.48,0,0,1-3.72,4.14,14.7,14.7,0,0,1,6.31,5.08,12.76,12.76,0,0,1,2,7.2,13.41,13.41,0,0,1-2.06,7.29,13.14,13.14,0,0,1-5.33,4.91q-3.25,1.63-9,1.63Z"/><path class="cls-1" d="M334.92,176.31a9.08,9.08,0,0,0-6.84,2.85,10.15,10.15,0,0,0-2.72,7.3,10.34,10.34,0,0,0,2.69,7.41,9,9,0,0,0,6.83,2.84,9.09,9.09,0,0,0,6.88-2.87,11.29,11.29,0,0,0,.05-14.71,9.13,9.13,0,0,0-6.89-2.82m-.15-8.29a18.53,18.53,0,0,1,9.33,2.49,18.17,18.17,0,0,1,9.27,15.92,18.45,18.45,0,0,1-2.47,9.28,17.81,17.81,0,0,1-6.72,6.76,18.58,18.58,0,0,1-9.38,2.43,17.5,17.5,0,0,1-12.88-5.37A18.48,18.48,0,0,1,334.77,168"/><polygon class="cls-1" points="377.35 168.92 370.45 178.49 363.52 168.92 353.3 168.92 365.36 185.55 352.04 204 362.09 204 370.39 192.49 378.74 204 388.95 204 375.49 185.43 387.39 168.92 377.35 168.92"/></svg>