<?xml version="1.0" encoding="utf-8"?>
<!-- Generator: Adobe Illustrator 22.1.0, SVG Export Plug-In . SVG Version: 6.00 Build 0)  -->
<svg version="1.1" id="Layer_1" xmlns="http://www.w3.org/2000/svg" xmlns:xlink="http://www.w3.org/1999/xlink" x="0px" y="0px"
	 viewBox="0 0 3437.7 1563.8" style="enable-background:new 0 0 3437.7 1563.8;" xml:space="preserve">
<style type="text/css">
	.st0{opacity:0.35;fill:none;stroke:#F7E3C6;stroke-width:43;stroke-miterlimit:10;}
	.st1{opacity:0.35;fill:none;stroke:#EFCCCD;stroke-width:43;stroke-miterlimit:10;}
	.st2{opacity:0.35;fill:none;stroke:#EECABF;stroke-width:43;stroke-miterlimit:10;}
	.st3{opacity:0.35;fill:none;stroke:#F3D8C8;stroke-width:43;stroke-miterlimit:10;}
</style>
<path class="st0" d="M-27.6,154.1c1.1,0.8,27.8,20.4,75.3,47.3c27.7,15.7,56.9,30.7,86.7,44.6c37.2,17.4,75.6,33,114,46.6
	c97.9,34.5,196.7,55.5,293.7,62.5c23.9,1.7,47.8,2.6,71.6,2.6c33.6,0,67-1.7,99.9-5.1c61.7-6.4,123-19,182.2-37.5
	c59.7-18.6,120-32.5,179.2-41.3c52.1-7.7,104.5-11.6,155.7-11.6c1.6,0,3.2,0,4.8,0c88.9,0.4,176,12.5,258.9,35.9
	c32.6,9.2,64.7,20.2,95.3,32.7c24.5,10,48.1,21,70.2,32.6c35.1,18.5,55.1,32.9,57.9,34.9c1.1,0.8,27.8,20.4,75.3,47.3
	c27.7,15.7,56.9,30.7,86.7,44.6c37.2,17.4,75.6,33,114,46.6c97.9,34.5,196.7,55.5,293.7,62.5c23.9,1.7,47.8,2.6,71.6,2.6
	c33.6,0,67-1.7,99.9-5.1c61.7-6.4,123-19,182.2-37.5c59.7-18.6,120-32.5,179.2-41.3c52.1-7.7,104.4-11.6,155.7-11.6
	c1.6,0,3.2,0,4.8,0c88.9,0.4,176,12.5,258.9,35.9c32.6,9.2,64.7,20.2,95.3,32.7c24.5,10,48.1,21,70.2,32.6
	c37.4,19.7,57.8,34.7,58.3,35.1l0,0"/>
<path class="st1" d="M-27.6,331.1c1.1,0.8,27.8,20.4,75.3,47.3c27.7,15.7,56.9,30.7,86.7,44.6c37.2,17.4,75.6,33,114,46.6
	c97.9,34.5,196.7,55.5,293.7,62.5c23.9,1.7,47.8,2.6,71.6,2.6c33.6,0,67-1.7,99.9-5.1c61.7-6.4,123-19,182.2-37.5
	c59.7-18.6,120-32.5,179.2-41.3c52.1-7.7,104.5-11.6,155.7-11.6c1.6,0,3.2,0,4.8,0c88.9,0.4,176,12.5,258.9,35.9
	c32.6,9.2,64.7,20.2,95.3,32.7c24.5,10,48.1,21,70.2,32.6c35.1,18.5,55.1,32.9,57.9,34.9c1.1,0.8,27.8,20.4,75.3,47.3
	c27.7,15.7,56.9,30.7,86.7,44.6c37.2,17.4,75.6,33,114,46.6c97.9,34.5,196.7,55.5,293.7,62.5c23.9,1.7,47.8,2.6,71.6,2.6
	c33.6,0,67-1.7,99.9-5.1c61.7-6.4,123-19,182.2-37.5c59.7-18.6,120-32.5,179.2-41.3c52.1-7.7,104.4-11.6,155.7-11.6
	c1.6,0,3.2,0,4.8,0c88.9,0.4,176,12.5,258.9,35.9c32.6,9.2,64.7,20.2,95.3,32.7c24.5,10,48.1,21,70.2,32.6
	c37.4,19.7,57.8,34.7,58.3,35.1l0,0"/>
<path class="st1" d="M-27.6,508.3c1.1,0.8,27.8,20.4,75.3,47.3c27.7,15.7,56.9,30.7,86.7,44.6c37.2,17.4,75.6,33,114,46.6
	c97.9,34.5,196.7,55.5,293.7,62.5c23.9,1.7,47.8,2.6,71.6,2.6c33.6,0,67-1.7,99.9-5.1c61.7-6.4,123-19,182.2-37.5
	c59.7-18.6,120-32.5,179.2-41.3c52.1-7.7,104.5-11.6,155.7-11.6c1.6,0,3.2,0,4.8,0c88.9,0.4,176,12.5,258.9,35.9
	c32.6,9.2,64.7,20.2,95.3,32.7c24.5,10,48.1,21,70.2,32.6c35.1,18.5,55.1,32.9,57.9,34.9c1.1,0.8,27.8,20.4,75.3,47.3
	c27.7,15.7,56.9,30.7,86.7,44.6c37.2,17.4,75.6,33,114,46.6c97.9,34.5,196.7,55.5,293.7,62.5c23.9,1.7,47.8,2.6,71.6,2.6
	c33.6,0,67-1.7,99.9-5.1c61.7-6.4,123-19,182.2-37.5c59.7-18.6,120-32.5,179.2-41.3c52.1-7.7,104.4-11.6,155.7-11.6
	c1.6,0,3.2,0,4.8,0c88.9,0.4,176,12.5,258.9,35.9c32.6,9.2,64.7,20.2,95.3,32.7c24.5,10,48.1,21,70.2,32.6
	c37.4,19.7,57.8,34.7,58.3,35.1l0,0"/>
<path class="st2" d="M-27.6,685.2c1.1,0.8,27.8,20.4,75.3,47.3c27.7,15.7,56.9,30.7,86.7,44.6c37.2,17.4,75.6,33,114,46.6
	c97.9,34.5,196.7,55.5,293.7,62.5c23.9,1.7,47.8,2.6,71.6,2.6c33.6,0,67-1.7,99.9-5.1c61.7-6.4,123-19,182.2-37.5
	c59.7-18.6,120-32.5,179.2-41.3c52.1-7.7,104.5-11.6,155.7-11.6c1.6,0,3.2,0,4.8,0c88.9,0.4,176,12.5,258.9,35.9
	c32.6,9.2,64.7,20.2,95.3,32.7c24.5,10,48.1,21,70.2,32.6c35.1,18.5,55.1,32.9,57.9,34.9c1.1,0.8,27.8,20.4,75.3,47.3
	c27.7,15.7,56.9,30.7,86.7,44.6c37.2,17.4,75.6,33,114,46.6c97.9,34.5,196.7,55.5,293.7,62.5c23.9,1.7,47.8,2.6,71.6,2.6
	c33.6,0,67-1.7,99.9-5.1c61.7-6.4,123-19,182.2-37.5c59.7-18.6,120-32.5,179.2-41.3c52.1-7.7,104.4-11.6,155.7-11.6
	c1.6,0,3.2,0,4.8,0c88.9,0.4,176,12.5,258.9,35.9c32.6,9.2,64.7,20.2,95.3,32.7c24.5,10,48.1,21,70.2,32.6
	c37.4,19.7,57.8,34.7,58.3,35.1l0,0"/>
<path class="st3" d="M-27.6,862.1c1.1,0.8,27.8,20.4,75.3,47.3c27.7,15.7,56.9,30.7,86.7,44.6c37.2,17.4,75.6,33,114,46.6
	c97.9,34.5,196.7,55.5,293.7,62.5c23.9,1.7,47.8,2.6,71.6,2.6c33.6,0,67-1.7,99.9-5.1c61.7-6.4,123-19,182.2-37.5
	c59.7-18.6,120-32.5,179.2-41.3c52.1-7.7,104.5-11.6,155.7-11.6c1.6,0,3.2,0,4.8,0c88.9,0.4,176,12.5,258.9,35.9
	c32.6,9.2,64.7,20.2,95.3,32.7c24.5,10,48.1,21,70.2,32.6c35.1,18.5,55.1,32.9,57.9,34.9c1.1,0.8,27.8,20.4,75.3,47.3
	c27.7,15.7,56.9,30.7,86.7,44.6c37.2,17.4,75.6,33,114,46.6c97.9,34.5,196.7,55.5,293.7,62.5c23.9,1.7,47.8,2.6,71.6,2.6
	c33.6,0,67-1.7,99.9-5.1c61.7-6.4,123-19,182.2-37.5c59.7-18.6,120-32.5,179.2-41.3c52.1-7.7,104.4-11.6,155.7-11.6
	c1.6,0,3.2,0,4.8,0c88.9,0.4,176,12.5,258.9,35.9c32.6,9.2,64.7,20.2,95.3,32.7c24.5,10,48.1,21,70.2,32.6
	c37.4,19.7,57.8,34.7,58.3,35.1l0,0"/>
<path class="st1" d="M-27.6,1039.1c1.1,0.8,27.8,20.4,75.3,47.3c27.7,15.7,56.9,30.7,86.7,44.6c37.2,17.4,75.6,33,114,46.6
	c97.9,34.5,196.7,55.5,293.7,62.5c23.9,1.7,47.8,2.6,71.6,2.6c33.6,0,67-1.7,99.9-5.1c61.7-6.4,123-19,182.2-37.5
	c59.7-18.6,120-32.5,179.2-41.3c52.1-7.7,104.5-11.6,155.7-11.6c1.6,0,3.2,0,4.8,0c88.9,0.4,176,12.5,258.9,35.9
	c32.6,9.2,64.7,20.2,95.3,32.7c24.5,10,48.1,21,70.2,32.6c35.1,18.5,55.1,32.9,57.9,34.9c1.1,0.8,27.8,20.4,75.3,47.3
	c27.7,15.7,56.9,30.7,86.7,44.6c37.2,17.4,75.6,33,114,46.6c97.9,34.5,196.7,55.5,293.7,62.5c23.9,1.7,47.8,2.6,71.6,2.6
	c33.6,0,67-1.7,99.9-5.1c61.7-6.4,123-19,182.2-37.5c59.7-18.6,120-32.5,179.2-41.3c52.1-7.7,104.4-11.6,155.7-11.6
	c1.6,0,3.2,0,4.8,0c88.9,0.4,176,12.5,258.9,35.9c32.6,9.2,64.7,20.2,95.3,32.7c24.5,10,48.1,21,70.2,32.6
	c37.4,19.7,57.8,34.7,58.3,35.1l0,0"/>
<path class="st0" d="M-27.6,65.4c1.1,0.8,27.8,20.4,75.3,47.3c27.7,15.7,56.9,30.7,86.7,44.6c37.2,17.4,75.6,33,114,46.6
	c97.9,34.5,196.7,55.5,293.7,62.5c23.9,1.7,47.8,2.6,71.6,2.6c33.6,0,67-1.7,99.9-5.1c61.7-6.4,123-19,182.2-37.5
	c59.7-18.6,120-32.5,179.2-41.3c52.1-7.7,104.5-11.6,155.7-11.6c1.6,0,3.2,0,4.8,0c88.9,0.4,176,12.5,258.9,35.9
	c32.6,9.2,64.7,20.2,95.3,32.7c24.5,10,48.1,21,70.2,32.6c35.1,18.5,55.1,32.9,57.9,34.9c1.1,0.8,27.8,20.4,75.3,47.3
	c27.7,15.7,56.9,30.7,86.7,44.6c37.2,17.4,75.6,33,114,46.6c97.9,34.5,196.7,55.5,293.7,62.5c23.9,1.7,47.8,2.6,71.6,2.6
	c33.6,0,67-1.7,99.9-5.1c61.7-6.4,123-19,182.2-37.5c59.7-18.6,120-32.5,179.2-41.3c52.1-7.7,104.4-11.6,155.7-11.6
	c1.6,0,3.2,0,4.8,0c88.9,0.4,176,12.5,258.9,35.9c32.6,9.2,64.7,20.2,95.3,32.7c24.5,10,48.1,21,70.2,32.6
	c37.4,19.7,57.8,34.7,58.3,35.1l0,0"/>
<path class="st0" d="M-27.6,242.4c1.1,0.8,27.8,20.4,75.3,47.3c27.7,15.7,56.9,30.7,86.7,44.6c37.2,17.4,75.6,33,114,46.6
	c97.9,34.5,196.7,55.5,293.7,62.5c23.9,1.7,47.8,2.6,71.6,2.6c33.6,0,67-1.7,99.9-5.1c61.7-6.4,123-19,182.2-37.5
	c59.7-18.6,120-32.5,179.2-41.3c52.1-7.7,104.5-11.6,155.7-11.6c1.6,0,3.2,0,4.8,0c88.9,0.4,176,12.5,258.9,35.9
	c32.6,9.2,64.7,20.2,95.3,32.7c24.5,10,48.1,21,70.2,32.6c35.1,18.5,55.1,32.9,57.9,34.9c1.1,0.8,27.8,20.4,75.3,47.3
	c27.7,15.7,56.9,30.7,86.7,44.6c37.2,17.4,75.6,33,114,46.6c97.9,34.5,196.7,55.5,293.7,62.5c23.9,1.7,47.8,2.6,71.6,2.6
	c33.6,0,67-1.7,99.9-5.1c61.7-6.4,123-19,182.2-37.5c59.7-18.6,120-32.5,179.2-41.3c52.1-7.7,104.4-11.6,155.7-11.6
	c1.6,0,3.2,0,4.8,0c88.9,0.4,176,12.5,258.9,35.9c32.6,9.2,64.7,20.2,95.3,32.7c24.5,10,48.1,21,70.2,32.6
	c37.4,19.7,57.8,34.7,58.3,35.1l0,0"/>
<path class="st1" d="M-27.6,419.7c1.1,0.8,27.8,20.4,75.3,47.3c27.7,15.7,56.9,30.7,86.7,44.6c37.2,17.4,75.6,33,114,46.6
	c97.9,34.5,196.7,55.5,293.7,62.5c23.9,1.7,47.8,2.6,71.6,2.6c33.6,0,67-1.7,99.9-5.1c61.7-6.4,123-19,182.2-37.5
	c59.7-18.6,120-32.5,179.2-41.3c52.1-7.7,104.5-11.6,155.7-11.6c1.6,0,3.2,0,4.8,0c88.9,0.4,176,12.5,258.9,35.9
	c32.6,9.2,64.7,20.2,95.3,32.7c24.5,10,48.1,21,70.2,32.6c35.1,18.5,55.1,32.9,57.9,34.9c1.1,0.8,27.8,20.4,75.3,47.3
	c27.7,15.7,56.9,30.7,86.7,44.6c37.2,17.4,75.6,33,114,46.6c97.9,34.5,196.7,55.5,293.7,62.5c23.9,1.7,47.8,2.6,71.6,2.6
	c33.6,0,67-1.7,99.9-5.1c61.7-6.4,123-19,182.2-37.5c59.7-18.6,120-32.5,179.2-41.3c52.1-7.7,104.4-11.6,155.7-11.6
	c1.6,0,3.2,0,4.8,0c88.9,0.4,176,12.5,258.9,35.9c32.6,9.2,64.7,20.2,95.3,32.7c24.5,10,48.1,21,70.2,32.6
	c37.4,19.7,57.8,34.7,58.3,35.1l0,0"/>
<path class="st2" d="M-27.6,596.6c1.1,0.8,27.8,20.4,75.3,47.3c27.7,15.7,56.9,30.7,86.7,44.6c37.2,17.4,75.6,33,114,46.6
	c97.9,34.5,196.7,55.5,293.7,62.5c23.9,1.7,47.8,2.6,71.6,2.6c33.6,0,67-1.7,99.9-5.1c61.7-6.4,123-19,182.2-37.5
	c59.7-18.6,120-32.5,179.2-41.3c52.1-7.7,104.5-11.6,155.7-11.6c1.6,0,3.2,0,4.8,0c88.9,0.4,176,12.5,258.9,35.9
	c32.6,9.2,64.7,20.2,95.3,32.7c24.5,10,48.1,21,70.2,32.6c35.1,18.5,55.1,32.9,57.9,34.9c1.1,0.8,27.8,20.4,75.3,47.3
	c27.7,15.7,56.9,30.7,86.7,44.6c37.2,17.4,75.6,33,114,46.6c97.9,34.5,196.7,55.5,293.7,62.5c23.9,1.7,47.8,2.6,71.6,2.6
	c33.6,0,67-1.7,99.9-5.1c61.7-6.4,123-19,182.2-37.5c59.7-18.6,120-32.5,179.2-41.3c52.1-7.7,104.4-11.6,155.7-11.6
	c1.6,0,3.2,0,4.8,0c88.9,0.4,176,12.5,258.9,35.9c32.6,9.2,64.7,20.2,95.3,32.7c24.5,10,48.1,21,70.2,32.6
	c37.4,19.7,57.8,34.7,58.3,35.1l0,0"/>
<path class="st2" d="M-27.6,773.4c1.1,0.8,27.8,20.4,75.3,47.3c27.7,15.7,56.9,30.7,86.7,44.6c37.2,17.4,75.6,33,114,46.6
	c97.9,34.5,196.7,55.5,293.7,62.5c23.9,1.7,47.8,2.6,71.6,2.6c33.6,0,67-1.7,99.9-5.1c61.7-6.4,123-19,182.2-37.5
	c59.7-18.6,120-32.5,179.2-41.3c52.1-7.7,104.5-11.6,155.7-11.6c1.6,0,3.2,0,4.8,0c88.9,0.4,176,12.5,258.9,35.9
	c32.6,9.2,64.7,20.2,95.3,32.7c24.5,10,48.1,21,70.2,32.6c35.1,18.5,55.1,32.9,57.9,34.9c1.1,0.8,27.8,20.4,75.3,47.3
	c27.7,15.7,56.9,30.7,86.7,44.6c37.2,17.4,75.6,33,114,46.6c97.9,34.5,196.7,55.5,293.7,62.5c23.9,1.7,47.8,2.6,71.6,2.6
	c33.6,0,67-1.7,99.9-5.1c61.7-6.4,123-19,182.2-37.5c59.7-18.6,120-32.5,179.2-41.3c52.1-7.7,104.4-11.6,155.7-11.6
	c1.6,0,3.2,0,4.8,0c88.9,0.4,176,12.5,258.9,35.9c32.6,9.2,64.7,20.2,95.3,32.7c24.5,10,48.1,21,70.2,32.6
	c37.4,19.7,57.8,34.7,58.3,35.1l0,0"/>
<path class="st1" d="M-27.6,950.4c1.1,0.8,27.8,20.4,75.3,47.3c27.7,15.7,56.9,30.7,86.7,44.6c37.2,17.4,75.6,33,114,46.6
	c97.9,34.5,196.7,55.5,293.7,62.5c23.9,1.7,47.8,2.6,71.6,2.6c33.6,0,67-1.7,99.9-5.1c61.7-6.4,123-19,182.2-37.5
	c59.7-18.6,120-32.5,179.2-41.3c52.1-7.7,104.5-11.6,155.7-11.6c1.6,0,3.2,0,4.8,0c88.9,0.4,176,12.5,258.9,35.9
	c32.6,9.2,64.7,20.2,95.3,32.7c24.5,10,48.1,21,70.2,32.6c35.1,18.5,55.1,32.9,57.9,34.9c1.1,0.8,27.8,20.4,75.3,47.3
	c27.7,15.7,56.9,30.7,86.7,44.6c37.2,17.4,75.6,33,114,46.6c97.9,34.5,196.7,55.5,293.7,62.5c23.9,1.7,47.8,2.6,71.6,2.6
	c33.6,0,67-1.7,99.9-5.1c61.7-6.4,123-19,182.2-37.5c59.7-18.6,120-32.5,179.2-41.3c52.1-7.7,104.4-11.6,155.7-11.6
	c1.6,0,3.2,0,4.8,0c88.9,0.4,176,12.5,258.9,35.9c32.6,9.2,64.7,20.2,95.3,32.7c24.5,10,48.1,21,70.2,32.6
	c37.4,19.7,57.8,34.7,58.3,35.1l0,0"/>
</svg>
