<?xml version="1.0" encoding="utf-8"?>
<!-- Generator: Adobe Illustrator 21.0.2, SVG Export Plug-In . SVG Version: 6.00 Build 0)  -->
<svg version="1.1" baseProfile="tiny" id="Layer_1" xmlns="http://www.w3.org/2000/svg" xmlns:xlink="http://www.w3.org/1999/xlink"
	 x="0px" y="0px" viewBox="0 0 318.3 167.2" xml:space="preserve">
<title>WS_Logos</title>
<path fill="#FFFFFF" d="M103,130.7c0-0.1-0.1-0.1-0.1-0.2c-0.1-0.1-0.3-0.3-0.4-0.4c-0.5-0.3-1-0.5-1.4-0.8
	c-3.6-1.8-7.5-2.7-11.5-2.6c-0.8,0-1.5,0-2.2,0.1h-0.4c-0.7,0.1-1.4,0.1-2.1,0.2l0,0c-6.3,1-10.6,4.2-11.8,10.2
	c-0.3,1.5-0.3,3-0.1,4.4l0,0c0,0.2,0.1,0.3,0.1,0.5s0.1,0.3,0.1,0.4c0.1,0.3,0.2,0.6,0.3,0.9c0.1,0.1,0.1,0.3,0.2,0.4
	s0.2,0.4,0.3,0.5L74,145c0.1,0.2,0.2,0.3,0.3,0.5l0.3,0.4c0.1,0.2,0.3,0.4,0.4,0.5l0.2,0.3c0.2,0.2,0.5,0.5,0.7,0.7l0.3,0.3l0.5,0.4
	l0.4,0.3l0.6,0.4l0.4,0.2c0.3,0.2,0.5,0.3,0.8,0.4l0.2,0.1c0.3,0.2,0.7,0.3,1.1,0.5l0.4,0.1l0.8,0.3l0.4,0.1l0.9,0.2l0.3,0.1
	c0.4,0.1,0.8,0.2,1.2,0.3c1.5,0.2,2.9,0.7,4.2,1.4c0.7,0.4,1.1,1.3,0.8,2.1l0,0c-0.3,1.2-1.2,2.1-2.9,2.5c-0.9,0.2-1.8,0.3-2.7,0.4
	c-3.5,0-6.8-1.1-9.6-3.2c-0.3-0.2-0.7-0.3-1.1-0.2c-0.3,0.1-0.5,0.3-0.7,0.5l-2.1,2.9l-2.1,2.9c-0.3,0.3-0.4,0.8-0.2,1.3
	c0.1,0.2,0.2,0.4,0.4,0.5c4.1,3.3,8.9,4.9,15,4.9c3.7,0.1,7.4-0.7,10.8-2.4c1.7-0.9,3.1-2.2,4.3-3.8c0.7-1,1.2-2.1,1.6-3.2
	c0.2-0.7,0.4-1.4,0.6-2.1c0.2-1,0.2-2.1,0.2-3.1c-0.1-2.3-1.1-4.4-2.6-6c-2.3-2.4-5.7-3.7-8.8-4.4l-0.9-0.2c-3-0.7-4.9-1.5-4.5-3.5
	l0,0c0-0.1,0-0.2,0.1-0.3c0-0.1,0.1-0.2,0.1-0.4c0.2-0.5,0.6-0.8,1-1.1c1.1-0.6,2.3-0.8,3.6-0.7c1,0,2.1,0.1,3.1,0.2
	c1.8,0.3,3.5,0.9,5.1,1.7c0.2,0.1,0.5,0.2,0.8,0.2c0.4,0,0.8-0.2,1-0.6l1.5-2l2.9-3.9C103.1,131.5,103.2,131.1,103,130.7L103,130.7z
	 M317.6,130.1c-3.9-2.3-8.4-3.5-13-3.4c-2.7,0-5.4,0.3-8,1.1l-0.4,0.1c-0.3,0.1-0.5,0.2-0.8,0.3s-0.7,0.3-1.1,0.5l-0.4,0.2
	c-0.3,0.2-0.5,0.3-0.8,0.5l-0.4,0.2c-0.3,0.2-0.7,0.5-1,0.8l0,0c-0.9,0.8-1.7,1.8-2.3,2.9c-0.4,0.7-0.7,1.4-1,2.2
	c-0.2,0.5-0.3,1.1-0.5,1.6c-0.4,1.9-0.4,3.8,0.2,5.6c0.2,0.8,0.6,1.5,1,2.2l0,0c0.2,0.3,0.5,0.7,0.7,1l0.3,0.3
	c0.2,0.2,0.4,0.4,0.6,0.6l0.4,0.3c0.2,0.2,0.4,0.4,0.6,0.5l0.4,0.3c0.2,0.2,0.5,0.3,0.7,0.5l0.5,0.3c0.3,0.2,0.6,0.3,1,0.5l0.7,0.3
	c0.3,0.1,0.6,0.2,0.9,0.4l0.7,0.2l0.5,0.2l0,0c0.7,0.2,1.4,0.4,2.1,0.6c3,0.7,5.5,1.2,5,3.5c-0.4,1.7-2.1,2.8-5.7,2.8
	c-1,0-2-0.1-3-0.3l0,0c-1.2-0.2-2.3-0.5-3.4-1h-0.1c-0.5-0.2-0.9-0.4-1.4-0.7l-0.4-0.2c-0.5-0.3-0.9-0.6-1.4-0.9l0,0
	c-0.3-0.3-0.8-0.4-1.2-0.2c-0.1,0.1-0.3,0.1-0.4,0.2c-0.1,0.1-0.1,0.1-0.2,0.2l-2.4,3.3l-1.8,2.5c-0.4,0.4-0.4,1-0.1,1.4
	c0.1,0.1,0.2,0.3,0.3,0.4c0.5,0.4,1.1,0.9,1.7,1.2c0.3,0.2,0.5,0.4,0.8,0.5c0.5,0.3,1,0.6,1.5,0.8l0.4,0.2c0.4,0.2,0.8,0.4,1.2,0.5
	l0.4,0.2c0.5,0.2,0.9,0.3,1.4,0.5l0.3,0.1c2.3,0.6,4.8,1,7.2,0.9c9.2,0,15.8-3.6,17.3-11.4c1.5-8.6-5.5-12.2-11.2-13.4
	c-2.7-0.6-4.8-1.2-5.3-2.4l0,0c-0.1-0.2-0.1-0.4-0.2-0.6l0,0c0-0.2,0-0.4,0-0.7l0,0c0-0.2,0.1-0.4,0.1-0.6c0.1-0.2,0.1-0.3,0.2-0.4
	c0.7-1.1,2.2-1.4,4.3-1.4c2.9-0.1,5.7,0.6,8.2,2c0.5,0.4,1.3,0.3,1.7-0.3c0,0,0-0.1,0.1-0.1l4.4-5.8c0.5-0.4,0.5-1,0.2-1.5
	C317.9,130.3,317.7,130.2,317.6,130.1z M142.9,127.8h-0.3h-8.7c-0.7-0.1-1.2,0.4-1.3,1c0,0,0,0,0,0.1l-3,17.1l0,0l-1.1,6.2l-0.8,4.5
	l-0.4,0.2l-0.4,0.1h-0.1c-0.3,0.1-0.6,0.2-1,0.2c-0.9,0.2-1.8,0.3-2.7,0.3c-0.7,0-1.4-0.1-2.1-0.3c-1.2-0.4-2-1.3-2.3-2.5l0,0
	c-0.1-0.2-0.1-0.4-0.1-0.6l0,0c0-0.2-0.1-0.5-0.1-0.7l0,0c0-0.8,0-1.7,0.2-2.5l0.8-4.8l0.5-3l0.2-1.2l0,0l2.1-12.6
	c0.2-0.5-0.1-1.1-0.6-1.3c-0.2-0.1-0.3-0.1-0.5,0h-8.6c-0.7-0.1-1.3,0.4-1.3,1.1l-1.5,8.3l-0.5,2.7l-0.8,4.5l-0.9,5.2
	c-0.2,1-0.3,2-0.3,3c0,0.1,0,0.2,0,0.3l0,0c-0.1,1.9,0.2,3.8,0.7,5.6c1.5,1.4,3.4,2.9,5.3,4.5c-1.9-1.7-3.8-3.2-5.3-4.5
	c0.2,0.5,0.3,1,0.6,1.4l0,0c0.2,0.5,0.4,0.9,0.7,1.3l0,0c0.3,0.4,0.5,0.8,0.8,1.1l0.3,0.3c0.3,0.3,0.6,0.6,0.9,0.9l0.1,0.1
	c0.4,0.3,0.7,0.6,1.1,0.9l0.3,0.2c0.3,0.2,0.7,0.4,1.1,0.6l0.3,0.1c0.5,0.2,1,0.4,1.4,0.6l0.4,0.1l0.6,0.2l0,0
	c1.7,0.4,3.4,0.7,5.2,0.6c0.7,0,1.5,0,2.3-0.1h0.1c1.5-0.1,3-0.3,4.4-0.6h0.2l1.1-0.2l0.7-0.1l0.9-0.2l0.9-0.2l0.8-0.2l1.1-0.3
	l0.6-0.2c0.6-0.2,1.1-0.4,1.6-0.6h0.1c0.6-0.2,1-0.7,1.1-1.3l1-5.9l4.9-27.8c0.1-0.3,0-0.5-0.1-0.8
	C143.5,128.1,143.2,127.9,142.9,127.8z M281.1,127.8c-0.2,0-0.3-0.1-0.5-0.1H272c-0.7-0.1-1.2,0.4-1.3,1c0,0,0,0,0,0.1l-2.9,16.6
	l-3.4,19.3c-0.2,0.6,0.1,1.2,0.7,1.4c0.1,0,0.3,0.1,0.4,0h8.6c0.7,0.1,1.3-0.5,1.4-1.2l2.6-14.7l0.7-3.8l3.1-17.4
	C281.9,128.6,281.6,128,281.1,127.8C281.1,127.9,281.1,127.9,281.1,127.8L281.1,127.8z M263.2,127.4c-0.8-0.2-1.6-0.3-2.3-0.4
	c-1.3-0.2-2.5-0.3-3.8-0.3c-4.7,0-9.4,1.1-13.7,3.1c-0.6,0.3-1,0.8-1.1,1.4l-0.8,4.4l-5.1,29.1c-0.2,0.6,0.2,1.2,0.8,1.4
	c0.1,0,0.3,0.1,0.4,0h8.6c0.7,0,1.3-0.5,1.3-1.2l4.8-27.2c1.5-0.6,3.2-0.9,4.8-0.9c0.7,0,1.3,0,2,0.1c0.8,0.1,1.6,0.2,2.3,0.3
	c0.6,0.1,1.3-0.3,1.4-0.9c0-0.1,0-0.1,0-0.2l1.3-7.2c0.2-0.6-0.2-1.3-0.9-1.4C263.3,127.4,263.3,127.4,263.2,127.4L263.2,127.4z
	 M198.6,137.8c0.2-0.2,0.3-0.5,0.4-0.8l1-5.7l0.2-1.1c0-0.2,0-0.4,0-0.6c-0.1-0.5-0.6-0.9-1.1-0.8h-6.5v-0.3l0.2-1.2
	c0.7-3.5,2.4-5.2,5.5-5.2h0.7h0.3c0.4,0,0.8,0,1.2,0.1l0,0l0.8,0.1l0,0c0.1,0,0.1,0,0.2,0c0.5,0,0.9-0.4,0.9-0.9
	c0-0.1,0-0.2,0.1-0.2l0.1-0.4l0.3-1.5l0.7-4.1l0.2-1c0.2-0.6-0.1-1.3-0.8-1.5c0,0,0,0-0.1,0c-0.1,0-0.1-0.1-0.2-0.1
	c-1.5-0.2-3.1-0.3-4.6-0.3c-4.6,0-8.4,1.2-11.1,3.6l0,0c-0.9,0.8-1.7,1.7-2.4,2.8c-0.3,0.5-0.6,1-0.9,1.5c-0.2,0.3-0.3,0.7-0.5,1
	c-0.4,0.8-0.6,1.7-0.9,2.5c-0.2,0.8-0.4,1.6-0.6,2.4l-0.4,2.6H178c-1.6,0-3.3-0.2-4.9-0.6c-0.6-0.1-1.2-0.3-1.8-0.5l-1.2-0.3
	c-1.5-0.4-3.1-0.7-4.7-0.7h-0.1c-2.6,0-5.2,0.4-7.6,1.3c-1.3,0.4-2.5,1-4,1.7l-0.1,0.1h-0.1c-0.6,0.3-1,0.8-1.1,1.4l-4.8,28.3
	l-0.9,5.2c-0.2,0.5,0.1,1.1,0.7,1.3c0.2,0.1,0.3,0.1,0.5,0.1h8.6c0.7,0,1.3-0.5,1.3-1.2l1.7-9.7l0,0l3.1-17.5l0.5-0.2l0.2-0.1
	l0.5-0.2c0.3-0.1,0.5-0.1,0.8-0.2l0,0c0.9-0.2,1.8-0.3,2.7-0.3c0.7,0,1.5,0.1,2.2,0.2l0.3,0.1c0.6,0.1,1.1,0.3,1.7,0.5
	c1.3,0.4,2.6,0.6,4,0.6h1.1h3.2l-1.8,9.9v0.1l-0.4,2l-0.7,3.8l-1.9,10.8c-0.2,0.6,0.2,1.2,0.7,1.4c0.1,0,0.3,0.1,0.4,0h8.6
	c0.5,0,0.9-0.2,1.1-0.6c0.1-0.2,0.2-0.4,0.2-0.6l1.1-5.9l0.3-1.6l0.3-1.9l1.3-7.2l0.3-1.8l0.1-0.5l1.4-7.7h0.4l0,0h6.3
	C197.9,138.2,198.3,138.1,198.6,137.8z M218.2,126.8c-2.5,0-5,0.2-7.5,0.7c-1,0.2-2.1,0.5-3.1,0.8l-0.4,0.1
	c-0.4,0.2-0.7,0.7-0.8,1.1l-1.2,7.1c0,0.3,0,0.6,0.1,0.9l0,0c0.1,0.4,0.5,0.6,0.9,0.6c0.2,0,0.5-0.1,0.7-0.2
	c0.7-0.3,1.4-0.5,2.1-0.6c2.2-0.4,4.4-0.7,6.6-0.7c4.6-0.1,5.7,2,5,5.6l-0.1,1.1c-2.1-0.4-4.2-0.6-6.3-0.6c-2.6,0-5.2,0.3-7.6,0.9
	c-2.7,0.6-5.1,2.1-6.9,4.2c-0.3,0.4-0.6,0.8-0.8,1.2c-0.7,1.2-1.2,2.6-1.4,4c-0.3,1.5-0.3,3-0.1,4.5c0.9,5.6,5.9,9.4,14.2,9.4
	c5,0,10-0.8,14.8-2.4l0.5-0.2c0.6-0.2,1-0.8,1.1-1.4l3.3-18.7c0.6-2.9,0.6-5.8-0.1-8.6C229.9,130,225.3,126.8,218.2,126.8
	L218.2,126.8z M218.1,157.3c-1.7,0.4-3.4,0.6-5.1,0.6c-3.2,0-5-1.3-4.5-4.1c0.4-2.2,2.3-3.4,5.9-3.4c1.6,0,3.2,0.2,4.7,0.5
	L218.1,157.3z M147.8,112.5c2.6,2.4,6.3,3.7,11,3.7c2.5,0,5-0.2,7.5-0.7l0,0c1.3-0.2,2.6-0.5,3.8-0.9l0,0c0.5-0.1,1-0.3,1.5-0.5
	l0.3-0.1c0.4-0.1,0.8-0.3,1.2-0.5l0.5-0.2c0.2-0.1,0.4-0.2,0.6-0.4c0.3-0.3,0.5-0.6,0.5-1l2.4-13.9l0.1-0.8l1.9-10.5l1.8-10.4
	c0.7-3.5,2.4-5.2,5.5-5.2c1,0,2.1,0.1,3.1,0.2c0.7,0.1,1.1-0.2,1.2-1.1l1.2-7c0.2-0.6-0.1-1.3-0.7-1.5c-0.1,0-0.2,0-0.3-0.1
	c-1.5-0.2-3.1-0.3-4.6-0.3c-9.1,0-14.7,4.7-16.3,13.9l-0.3,1.8c-2.2-1.1-4.7-1.6-7.2-1.6c-0.9,0-1.9,0.1-2.8,0.2
	c-7.4,1.1-12.9,6.7-14.3,14.5l-1.5,7.9l-0.1,0.6C142.9,104.7,144.4,109.5,147.8,112.5z M155.1,99.9l1.4-7.9c0.2-1.3,0.7-2.6,1.3-3.8
	c1.1-1.9,3.1-3,5.3-2.9c1.7-0.1,3.4,0.4,4.9,1.2l-0.2,1l0,0l-1.7,9.9l-1.4,8.2c-1.6,0.6-3.2,0.8-4.9,0.8
	C155.8,106.5,154.2,104.6,155.1,99.9L155.1,99.9z M132.4,116.3c1.3,0,2.6-0.1,3.9-0.4c0.4-0.1,0.7-0.3,0.8-0.7
	c0.1-0.2,0.1-0.3,0.2-0.5l1.2-7c0.1-0.9-0.3-1.2-1.2-1.2h-1.5c-0.7,0-1.4-0.2-2-0.6c-1.1-0.8-1.3-2.5-0.9-4.9l6.5-37
	c0.2-0.6-0.1-1.2-0.7-1.4c-0.1,0-0.3-0.1-0.4,0h-8.6c-0.7,0-1.3,0.5-1.3,1.2l-1.2,6.8l-4.3,24.3l-1,5.6
	C120.3,110,124.5,116.3,132.4,116.3L132.4,116.3z M82.4,110.6c2.2-2.5,3.6-5.6,4.2-8.9l1.7-9.3c0.6-3,0.2-6.2-1.1-9
	c-2.2-4.5-6.9-7.5-13.3-7.5c-3.6-0.1-7.2,0.7-10.4,2.4c-4.7,2.4-7.9,6.9-8.7,12.1l-1.5,9.2c-0.3,1.5-0.4,3-0.2,4.5
	c0,0.1,0,0.3,0.1,0.4l0,0c0.1,1,0.3,2,0.7,2.9v0.1c0.1,0.3,0.2,0.6,0.3,0.9v0.1c0.5,1.1,1.1,2.2,1.9,3.1l0.1,0.1
	c0.2,0.2,0.4,0.4,0.6,0.6l0.1,0.1c0.6,0.6,1.4,1.2,2.1,1.7l0.2,0.1c0.2,0.1,0.5,0.3,0.7,0.4l0.2,0.1c0.9,0.4,1.7,0.8,2.7,1h0.1l0,0
	c1.5,0.4,3.1,0.6,4.6,0.6C74,116.3,79.1,114.3,82.4,110.6L82.4,110.6z M64.2,100.6l1.7-9.5c0.5-3.3,3.3-5.7,6.6-5.5
	c3.5,0,5.1,2.7,4.5,6.1l-1.7,9.4c-0.6,3.5-3,5.5-6.8,5.5C65.1,106.6,63.6,104.3,64.2,100.6L64.2,100.6z M52.3,76.9h-8.5
	c-0.7,0-1.3,0.4-1.5,1l-4.5,12.2c-1.2,3.5-3.4,9.2-4.4,12.5h-0.3c0.1-3.7-0.1-8.5-0.2-12.2l-0.6-11.8c0-0.8-0.4-1.2-1.3-1.2h-8.8
	c-0.7,0-1.3,0.4-1.5,1l-4.7,12c-1.3,3.4-3.1,8.6-4.3,12.3h-0.3c0-3.3-0.1-9.1-0.2-12.4l-0.3-12.1c0-0.9-0.5-1.2-1.3-1.2H1.3
	C0.7,77,0.1,77.4,0,78c0,0.1,0,0.2,0,0.4l3.2,35.9c0.1,0.7,0.6,1.1,1.3,1.1h9.4c0.6,0,1.2-0.4,1.4-1l5.2-12.5c1-2.6,3-8.2,3.8-10.9
	h0.2c0.1,2.6,0.2,7.4,0.2,10.9l0.5,12.2c0,0.7,0.5,1.2,1.2,1.3c0,0,0.1,0,0.1,0h9.2c0.7,0,1.3-0.4,1.6-1l5.4-12.2l10.4-23.8
	C53.7,77.5,53.3,77,52.3,76.9L52.3,76.9z M93.2,115.3h8.6c0.7,0,1.3-0.5,1.3-1.2l4.8-27.2c1.5-0.6,3.2-0.9,4.8-0.9
	c0.6,0,1.1,0,1.6,0.1c0.9,0.1,1.8,0.2,2.6,0.3c0.6,0.1,1.3-0.3,1.4-0.9c0-0.1,0-0.1,0-0.2l1.3-7.2c0.2-0.6-0.2-1.3-0.8-1.4
	c-0.1,0-0.1,0-0.2,0c-0.9-0.2-1.8-0.3-2.6-0.4c-1.2-0.1-2.3-0.2-3.5-0.2c-4.7,0-9.4,1.1-13.6,3.1c-0.6,0.3-1,0.8-1.1,1.4l-0.4,2
	L92,113.9c-0.1,0.2-0.1,0.4,0,0.7C92.2,115,92.7,115.4,93.2,115.3L93.2,115.3z M285,108.1c0.4-0.2,0.8-0.4,1.2-0.6s0.8-0.4,1.3-0.6
	s0.8-0.4,1.2-0.6s0.8-0.5,1.2-0.7s0.8-0.4,1.1-0.7s0.8-0.5,1.2-0.8s0.7-0.5,1.1-0.7s0.8-0.6,1.1-0.8s0.7-0.5,1.1-0.8
	s0.7-0.6,1.1-0.9s0.7-0.5,1-0.8s0.7-0.6,1-0.9s0.7-0.6,1-0.9s0.7-0.6,1-1s0.6-0.6,1-0.9s0.6-0.7,1-1s0.6-0.6,0.9-1s0.6-0.7,0.9-1
	s0.6-0.7,0.9-1s0.6-0.7,0.9-1.1s0.6-0.7,0.8-1.1s0.5-0.8,0.8-1.1s0.5-0.7,0.8-1.1s0.5-0.8,0.8-1.2s0.5-0.8,0.7-1.1s0.5-0.8,0.7-1.2
	s0.5-0.8,0.7-1.2s0.4-0.8,0.6-1.2s0.4-0.8,0.6-1.2s0.4-0.9,0.6-1.3s0.4-0.8,0.5-1.2s0.4-0.9,0.5-1.4s0.3-0.8,0.5-1.2
	s0.3-0.9,0.5-1.4s0.3-0.8,0.4-1.2s0.3-1,0.4-1.4s0.2-0.8,0.4-1.2s0.2-1,0.3-1.5s0.2-0.8,0.3-1.2s0.2-1,0.3-1.5s0.2-0.8,0.2-1.3
	s0.1-1,0.2-1.5c0.1-0.5,0.1-0.9,0.2-1.3s0.1-1,0.1-1.5s0.1-0.9,0.1-1.3s0-1,0-1.5s0-0.9,0-1.4s0-0.9,0-1.4s0-1,0-1.5
	s-0.1-0.9-0.1-1.4s-0.1-1-0.1-1.5s-0.1-0.9-0.2-1.3s-0.1-1-0.2-1.5s-0.1-0.9-0.2-1.3s-0.2-1-0.3-1.5s-0.2-0.9-0.3-1.3
	s-0.2-1-0.3-1.4s-0.2-0.9-0.4-1.3s-0.2-0.9-0.4-1.4s-0.3-0.9-0.4-1.3s-0.3-0.9-0.5-1.3s-0.3-0.9-0.5-1.3s-0.3-0.9-0.5-1.3
	s-0.4-0.8-0.6-1.3s-0.4-0.8-0.6-1.2s-0.4-0.8-0.6-1.3s-0.4-0.8-0.6-1.2s-0.5-0.8-0.7-1.2s-0.4-0.8-0.7-1.2s-0.5-0.8-0.8-1.2
	s-0.5-0.8-0.7-1.1s-0.5-0.8-0.8-1.1s-0.5-0.7-0.8-1.1s-0.6-0.7-0.9-1.1s-0.5-0.7-0.8-1.1s-0.6-0.7-0.9-1s-0.6-0.7-0.9-1
	s-0.6-0.6-0.9-1s-0.6-0.7-1-1s-0.6-0.6-1-0.9s-0.7-0.7-1-1s-0.6-0.6-1-0.8s-0.7-0.6-1.1-0.9s-0.7-0.5-1-0.8s-0.8-0.6-1.2-0.9
	s-0.7-0.5-1-0.7s-0.8-0.6-1.2-0.8s-0.7-0.5-1-0.7s-0.8-0.5-1.2-0.8s-0.7-0.4-1.1-0.6S289,7,288.5,6.8s-0.7-0.4-1.1-0.6
	s-0.9-0.5-1.3-0.7s-0.8-0.3-1.1-0.5s-0.9-0.4-1.4-0.6s-0.8-0.3-1.2-0.5s-0.9-0.4-1.4-0.5s-0.8-0.3-1.3-0.4s-0.9-0.3-1.4-0.5
	s-0.9-0.2-1.3-0.4s-0.9-0.3-1.4-0.4s-0.9-0.2-1.4-0.3s-0.9-0.2-1.4-0.3s-1-0.2-1.4-0.3s-0.9-0.2-1.4-0.2s-1-0.1-1.5-0.2
	s-0.9-0.1-1.3-0.2s-1-0.1-1.5-0.1S264.9,0,264.5,0s-1,0-1.5,0s-0.9,0-1.4,0c-0.9,0-1.8,0-2.7,0.1l-0.8,0c-0.6,0-1.3,0.1-2,0.2
	l-1,0.1l-1.7,0.2l-1,0.2L250.8,1l-1,0.2l-1.6,0.4l-1,0.2c-0.6,0.2-1.2,0.3-1.9,0.5l-0.6,0.2c-0.8,0.3-1.6,0.5-2.4,0.8l-0.8,0.3
	c-0.5,0.2-1.1,0.4-1.6,0.6l-1,0.4l-1.4,0.6l-1,0.5l-1.3,0.7l-1,0.5L233,7.8l-1,0.6c-0.5,0.3-0.9,0.6-1.4,0.9l-0.8,0.5
	c-0.7,0.5-1.3,0.9-2,1.4l-0.8,0.6l-0.8,0.7c7.7-5.5,7.5-1.4,6.4,1.3c-1,2.4,5.8,2.5,18.4-1.2c13.8-4,6.6,4.8,22.8,3.6
	c14-1.1,26.1-0.3,19.8,5.4s-1.8,10.8-4.7,11.5c-2.1,0.5-2.5-4.8-1.3-7.2c1.4-2.9-1.6-3-3.4,0.8c-0.7,1.5-10.8-1.7-6.9,5
	c1.6,2.9,1,6.4-1.4,8.6c-1.4,1.2-4.5-1-4,1.9c1,6.7-2.4,8.5-3.8,2.5c-0.8-3.3-3.7-0.4-3.1,3c0.4,2.6,1,5.6-0.8,7.4
	c-3.3,3.4-5.8,1.9-9.5,4.3c-3.7,2.4,1.5,5.7-1.6,7.4c-3.1,1.7-4.4-4.4-6.6-2.3c-2.2,2.1,4.9,8.6,3,8.5s-4.4-4.5-8-12
	s-12.2-1.8-12.3,1.9c-0.1,3.7-4.6,1.1-4.9-4.8s-4.7-10.4-6.7-7.9c-2.5,3.3-3.8,4.6-6.6,11.5s-4.2,11.5,1.2,22.3
	c0.3,0.6,0.6,1.1,1,1.7l0.2,0.3c0.4,0.6,0.7,1.2,1.1,1.8l0.4,0.6c0.4,0.6,0.8,1.1,1.2,1.7l0.2,0.3c0.5,0.6,1,1.2,1.4,1.8l0.5,0.6
	c0.4,0.5,0.9,1,1.3,1.5l0.3,0.3c0.5,0.6,1.1,1.1,1.6,1.7l0.5,0.5c0.5,0.5,1,0.9,1.4,1.4l0.3,0.3c0.6,0.5,1.2,1,1.8,1.6l0.5,0.4
	c0.5,0.4,1,0.8,1.6,1.2l0.4,0.3c0.7,0.5,1.3,0.9,2,1.4l0.4,0.3c0.6,0.4,1.1,0.7,1.7,1.1l0.4,0.3c0.7,0.4,1.4,0.8,2.1,1.2l0.4,0.2
	c0.6,0.3,1.2,0.7,1.9,1l0.5,0.2c0.7,0.4,1.5,0.7,2.2,1l0.3,0.1c0.7,0.3,1.4,0.6,2.1,0.8l0.5,0.2c0.8,0.3,1.6,0.6,2.4,0.8l0.2,0.1
	c0.8,0.2,1.5,0.4,2.3,0.6l0.5,0.1c0.8,0.2,1.6,0.4,2.5,0.6l0,0c0.8,0.2,1.6,0.3,2.5,0.4l0.6,0.1c1.7,0.2,3.4,0.4,5.1,0.5h0.6
	c0.8,0,1.6,0.1,2.4,0.1h0.2c0.5,0,1,0,1.5,0s1,0,1.4,0s1-0.1,1.4-0.1s1-0.1,1.5-0.1s0.9-0.1,1.4-0.2s1-0.1,1.5-0.2s0.9-0.2,1.4-0.2
	s1-0.2,1.4-0.3s0.9-0.2,1.3-0.3s1-0.2,1.4-0.3s0.9-0.2,1.3-0.4s0.9-0.2,1.4-0.4s0.9-0.3,1.3-0.4s0.9-0.3,1.3-0.4s0.9-0.3,1.3-0.5
	s0.9-0.3,1.3-0.5S284.6,108.3,285,108.1L285,108.1z M293.1,97.4c1.2-1.3,2.5-2.4,3.9-3.6c0.9-0.4,0.6,2.2-2,3.8
	c-2.2,1.3-5.4,4.9-7.1,4.3C286.9,101.6,290.6,99.8,293.1,97.4L293.1,97.4z M213,82c-0.9-1.6-1.6-5.9-0.6-6.3s1.3,2,1.8,5.4
	C214.8,84.7,214,83.5,213,82L213,82z M286.6,80.4c-0.1,2.8-6.8,1.4-7-1.1c-0.1-1.7-3-2-4.4-1.9l-0.6,0.1c-0.6,0.1-2.1-0.9-1-1.7
	C274.9,74.7,286.7,77.6,286.6,80.4z M278.4,44.8c1.7-1.7,1.1-6.4,3.4-6.5s0.3,6.8-2,8.7c-1.5,1.2-6.7,4-7.3,2.2
	S276.9,46.4,278.4,44.8L278.4,44.8z M269.2,68.1c1,1.5-1.8,2.4-2.1,1.7C266.2,67.9,268.3,66.5,269.2,68.1L269.2,68.1z M264.2,62.4
	c0.9-2.4,2.5-1.4,2,0S263.4,64.3,264.2,62.4L264.2,62.4z M262.8,76.6c1-3.8,3.4-2.3,3-0.4C265.4,78.2,262.3,78.4,262.8,76.6
	L262.8,76.6z M258.6,71.5c2-0.6,1.7-2,3.5-1.4c1.2,0.3,0,6.1-2,7.3s-5.7-0.2-6.4-2.9S256,72.2,258.6,71.5z M251.5,80.5
	c-4-0.9-4.4-3.3-6.3-5.6s-5.1-3.9-4.8-5.3c0.4-1.5,3.7,0.7,7,4.6c1,1.2,1.9,1.8,3.1,3.2s7.7,2.7,7.5,4.1S255.5,81.4,251.5,80.5
	L251.5,80.5z M280.1,101.7c-0.4,0.4-1,0.5-1.4,0.1c0,0-0.1-0.1-0.1-0.1c-0.5-0.6-0.3-0.9,0.8-0.9S280.9,100.5,280.1,101.7
	L280.1,101.7z M281.9,98.9c-2.1,1.9-5,1-7.6-1.6c-2-1.9-4.5-1.8-7.3-0.7s-8.1,2.6-7.7,0.2c0.4-3-3.3-4.8-1.6-6.3
	c1.7-1.5,6.1-1.6,8.3-3.8c2.3-2.4,3.6-0.1,4.8-1.2c2.3-2.1,4.6-2.4,6-1.9c2.1,0.8-2.2,1.6,1.1,3c3.8,1.5,2.3-1.3,3.5-3.3
	c0.9-1.4,0.7,1.7,2.1,1.9c0.9,0.1,0.2,2.6,1.2,2.9c1.8,0.8,2.9,2.7,2.6,4.6C286.6,94.4,283.9,97,281.9,98.9L281.9,98.9z"/>
</svg>
